<svg version="1.1" viewBox="-3.2 -6.4 70 70" xmlns="http://www.w3.org/2000/svg">
<g transform="translate(1.25,1.25)" fill="currentColor">
<path d="m30.55-6.4c-18.562 0-33.75 15.188-33.75 33.75s15.188 33.75 33.75 33.75 33.75-15.188 33.75-33.75-15.188-33.75-33.75-33.75m0 64.441c-16.98 0-30.691-13.711-30.691-30.691s13.711-30.691 30.691-30.691 30.691 13.711 30.691 30.691-13.711 30.691-30.691 30.691" />
<path d="m49.534 8.2074c-4.957-4.957-11.707-7.9102-19.09-7.9102-7.3828 0-14.133 3.0586-19.09 7.9102h-0.10547c-0.10547 0 0 0 0 0.10547-4.8516 4.8516-7.8047 11.602-7.8047 18.984 0 7.3828 3.0586 14.133 7.9102 19.09v0.10547c0 0.10547 0 0 0.10547 0 4.8516 4.8516 11.602 7.9102 19.09 7.9102 7.3828 0 14.133-3.0586 19.09-7.9102h0.10547v-0.10547c4.8516-4.8516 7.9102-11.602 7.9102-19.09-0.21094-7.3828-3.1641-14.133-8.1211-19.09m2.6367 20.566h2.2148c-0.31641 5.4844-2.5312 10.441-5.9062 14.344l-1.582-1.582c-0.63281-0.63281-1.582-0.63281-2.1094 0-0.63281 0.63281-0.63281 1.582 0 2.1094l1.582 1.582c-3.9023 3.375-8.8594 5.5898-14.344 5.9062v-2.2148c0-0.84375-0.63281-1.4766-1.4766-1.4766s-1.4766 0.63281-1.4766 1.4766v2.2148c-5.4844-0.31641-10.441-2.5312-14.344-5.9062l1.582-1.582c0.63281-0.63281 0.63281-1.582 0-2.1094-0.63281-0.63281-1.582-0.63281-2.1094 0l-1.793 1.582c-3.375-3.9023-5.5898-8.8594-5.9063-14.344h2.2148c0.84375 0 1.4766-0.63281 1.4766-1.4766s-0.63281-1.4766-1.4766-1.4766h-2.2148c0.31641-5.4844 2.5312-10.441 5.9063-14.344l1.582 1.582c0.31641 0.31641 0.63281 0.42188 1.0547 0.42188s0.73828-0.10547 1.0547-0.42188c0.63281-0.63281 0.63281-1.582 0-2.1094l-1.4766-1.6875c3.9023-3.375 8.8594-5.5898 14.344-5.9062v2.2148c0 0.84375 0.63281 1.4766 1.4766 1.4766s1.4766-0.63281 1.4766-1.4766v-2.2148c5.4844 0.31641 10.441 2.5312 14.344 5.9062l-1.582 1.582c-0.63281 0.63281-0.63281 1.582 0 2.1094 0.31641 0.31641 0.63281 0.42188 1.0547 0.42188s0.73828-0.10547 1.0547-0.42188l1.582-1.582c3.375 3.9023 5.5898 8.8594 5.9062 14.344h-2.2148c-0.84375 0-1.4766 0.63281-1.4766 1.4766s0.73828 1.582 1.582 1.582" />
<path d="m35.131 11.804-9.3947 13.48c-0.14335 0.17161-0.15506 0.39491-0.25843 0.65819l-2.2228 15.916c-0.03513 0.6699 0.24471 1.3115 0.9029 1.57 0.39492 0.15506 0.70988 0.12679 1.0765-0.03312 0.27498-0.11993 0.41833-0.29154 0.65334-0.50314l9.3947-13.48c0.14335-0.17162 0.15506-0.39492 0.25843-0.65819l2.2228-15.916c0.03513-0.6699-0.24471-1.3115-0.9029-1.57-0.65819-0.25843-1.3398-0.07025-1.7299 0.53625m-2.4178 16.219-5.6725 8.2561 1.3567-9.6467 5.6725-8.2561z"/>
</g>
</svg>
