<svg version="1.1" viewBox="-5 -10 110 110" xmlns="http://www.w3.org/2000/svg">
<path d="m93.784 83.786v-19.007c4.395-0.808 7.77-5.32 7.77-10.75 0-6-4.121-10.883-9.184-10.883s-9.183 4.883-9.183 10.883c0 5.43 3.375 9.942 7.77 10.75v19.007c-7.1573 0.02048-9.2273 0.18083-14.786 0v-49.682h7.903c0.9513-0.0026 1.631-0.92162 1.355-1.832l-8.031-26.057c-0.35675-1.1575-1.4288-1.9453-2.64-1.94-1.2116-0.00572-2.2841 0.78216-2.641 1.94l-8.032 26.056c-0.132 0.43-0.054 0.898 0.215 1.257 0.266 0.364 0.692 0.575 1.14 0.575h7.903v49.683c-11.64 0.25958-19.305 0.14665-29.648 0v-18.209h17.918c2.1307 0.0014 3.3962-2.3798 2.203-4.145l-10.746-15.907h5.344c1.8832 0.0043 3.0023-2.1016 1.945-3.66l-9.977-14.766h3.22c0.874 0 1.671-0.48 2.077-1.254s0.352-1.703-0.144-2.422l-11.07-16.062c-1.0561-1.5318-3.3189-1.5318-4.375 0l-11.07 16.066c-0.49581 0.71726-0.55169 1.6507-0.145 2.422 0.40481 0.77262 1.2058 1.256 2.078 1.254h3.22l-9.977 14.766c-0.48782 0.71824-0.53787 1.6475-0.13 2.414 0.40648 0.76857 1.2056 1.2484 2.075 1.246h5.344l-10.746 15.906c-0.55222 0.81409-0.60804 1.8671-0.145 2.735 0.461 0.867 1.36 1.41 2.348 1.41h17.918v18.206c-8.3872 0.73566-24.998 0.25643-31.766 0v-30.909h6.394c0.9513-0.0026 1.631-0.92162 1.355-1.832l-6.733-21.85c-0.328-1.07-1.308-1.789-2.433-1.789s-2.102 0.72-2.434 1.79l-6.734 21.847c-0.133 0.43-0.055 0.899 0.215 1.258 0.265 0.363 0.691 0.574 1.14 0.574h6.395v30.911c34.823 1.0878 43.436 0 87.525 0zm-7.765-29.76c0-4.437 2.848-8.047 6.352-8.047s6.351 3.61 6.351 8.047c0 3.82-2.668 7.1865-5.872 7.844h-1.397c-2.8893-0.64115-5.434-4.024-5.434-7.844zm-11.27-46.758 7.398 24h-14.796zm-39.434 37.633c0.63667-0.94012-0.03658-2.2096-1.172-2.21h-7.094l10.953-16.216c0.63667-0.94012-0.03658-2.2096-1.172-2.21h-4.957l10.398-15.09 10.398 15.09h-4.957c-0.523 0-1.003 0.288-1.25 0.753s-0.214 1.023 0.079 1.457l10.953 16.215h-7.094c-1.1354 3.54e-4 -1.8087 1.2699-1.172 2.21l12.05 17.841h-38.014zm-27.648-13.984 5.895 19.117h-11.785l5.894-19.117z" stroke="currentColor" stroke-width="1.1339" fill="currentColor"/>
<path d="m-1.2816 85.97h102.56" fill="none" stroke="currentColor" stroke-dashoffset="60.8" stroke-linecap="round" stroke-linejoin="round" stroke-width="4.8869"/>
</svg>
