<?xml version="1.0" encoding="UTF-8" standalone="no"?>
<!-- Generator: Adobe Illustrator 16.0.0, SVG Export Plug-In . SVG Version: 6.00 Build 0)  -->

<svg
   xmlns:dc="http://purl.org/dc/elements/1.1/"
   xmlns:cc="http://creativecommons.org/ns#"
   xmlns:rdf="http://www.w3.org/1999/02/22-rdf-syntax-ns#"
   xmlns:svg="http://www.w3.org/2000/svg"
   xmlns="http://www.w3.org/2000/svg"
   xmlns:sodipodi="http://sodipodi.sourceforge.net/DTD/sodipodi-0.dtd"
   xmlns:inkscape="http://www.inkscape.org/namespaces/inkscape"
   version="1.1"
   id="Capa_1"
   x="0px"
   y="0px"
   fill="#4747ff"
   width="444.81799"
   height="280.37399"
   viewBox="0 0 444.81799 280.37399"
   xml:space="preserve"
   sodipodi:docname="right-chevron_icon-icons.com_73430.svg"
   inkscape:version="0.92.4 (5da689c313, 2019-01-14)"><metadata
   id="metadata41"><rdf:RDF><cc:Work
       rdf:about=""><dc:format>image/svg+xml</dc:format><dc:type
         rdf:resource="http://purl.org/dc/dcmitype/StillImage" /><dc:title></dc:title></cc:Work></rdf:RDF></metadata><defs
   id="defs39" /><sodipodi:namedview
   borderopacity="1"
   objecttolerance="10"
   gridtolerance="10"
   guidetolerance="10"
   inkscape:pageopacity="0"
   inkscape:pageshadow="2"
   inkscape:window-width="929"
   inkscape:window-height="480"
   id="namedview37"
   showgrid="false"
   fit-margin-top="0"
   fit-margin-left="0"
   fit-margin-right="0"
   fit-margin-bottom="0"
   inkscape:zoom="0.53055288"
   inkscape:cx="222.4095"
   inkscape:cy="140.1865"
   inkscape:window-x="219"
   inkscape:window-y="144"
   inkscape:window-maximized="0"
   inkscape:current-layer="Capa_1" />
<g
   id="g4"
   transform="rotate(90,263.52,181.298)">
	<path
   d="M 352.025,196.712 165.884,10.848 C 159.029,3.615 150.469,0 140.187,0 129.905,0 121.345,3.619 114.49,10.848 L 92.792,32.264 c -7.044,7.043 -10.566,15.604 -10.566,25.692 0,9.897 3.521,18.56 10.566,25.981 L 231.545,222.41 92.786,361.168 c -7.042,7.043 -10.564,15.604 -10.564,25.693 0,9.896 3.521,18.562 10.564,25.98 l 21.7,21.413 c 7.043,7.043 15.612,10.564 25.697,10.564 10.089,0 18.656,-3.521 25.697,-10.564 L 352.025,248.39 c 7.046,-7.423 10.571,-16.084 10.571,-25.981 10e-4,-10.088 -3.525,-18.654 -10.571,-25.697 z"
   id="path2"
   inkscape:connector-curvature="0" />
</g>
<g
   id="g6"
   transform="translate(0,-82.222)">
</g>
<g
   id="g8"
   transform="translate(0,-82.222)">
</g>
<g
   id="g10"
   transform="translate(0,-82.222)">
</g>
<g
   id="g12"
   transform="translate(0,-82.222)">
</g>
<g
   id="g14"
   transform="translate(0,-82.222)">
</g>
<g
   id="g16"
   transform="translate(0,-82.222)">
</g>
<g
   id="g18"
   transform="translate(0,-82.222)">
</g>
<g
   id="g20"
   transform="translate(0,-82.222)">
</g>
<g
   id="g22"
   transform="translate(0,-82.222)">
</g>
<g
   id="g24"
   transform="translate(0,-82.222)">
</g>
<g
   id="g26"
   transform="translate(0,-82.222)">
</g>
<g
   id="g28"
   transform="translate(0,-82.222)">
</g>
<g
   id="g30"
   transform="translate(0,-82.222)">
</g>
<g
   id="g32"
   transform="translate(0,-82.222)">
</g>
<g
   id="g34"
   transform="translate(0,-82.222)">
</g>
</svg>
