<?xml version="1.0" encoding="UTF-8" standalone="no"?>
<svg
   xmlns:dc="http://purl.org/dc/elements/1.1/"
   xmlns:cc="http://creativecommons.org/ns#"
   xmlns:rdf="http://www.w3.org/1999/02/22-rdf-syntax-ns#"
   xmlns:svg="http://www.w3.org/2000/svg"
   xmlns="http://www.w3.org/2000/svg"
   xmlns:sodipodi="http://sodipodi.sourceforge.net/DTD/sodipodi-0.dtd"
   xmlns:inkscape="http://www.inkscape.org/namespaces/inkscape"
   version="1.1"
   id="svg370"
   xml:space="preserve"
   width="250.81488"
   height="244.62376"
   viewBox="0 0 250.81488 244.62376"
   sodipodi:docname="github.svg"
   inkscape:version="1.0.1 (3bc2e813f5, 2020-09-07)"><metadata
     id="metadata376"><rdf:RDF><cc:Work
         rdf:about=""><dc:format>image/svg+xml</dc:format><dc:type
           rdf:resource="http://purl.org/dc/dcmitype/StillImage" /><dc:title></dc:title></cc:Work></rdf:RDF></metadata><defs
     id="defs374" /><sodipodi:namedview
     pagecolor="#ffffff"
     bordercolor="#666666"
     borderopacity="1"
     objecttolerance="10"
     gridtolerance="10"
     guidetolerance="10"
     inkscape:pageopacity="0"
     inkscape:pageshadow="2"
     inkscape:window-width="1366"
     inkscape:window-height="731"
     id="namedview372"
     showgrid="false"
     fit-margin-top="0"
     fit-margin-left="0"
     fit-margin-right="0"
     fit-margin-bottom="0"
     inkscape:zoom="0.2365918"
     inkscape:cx="288.55216"
     inkscape:cy="872.45836"
     inkscape:window-x="0"
     inkscape:window-y="0"
     inkscape:window-maximized="1"
     inkscape:current-layer="g378" /><g
     id="g378"
     inkscape:groupmode="layer"
     inkscape:label="ink_ext_XXXXXX"
     transform="matrix(1.3333333,0,0,-1.3333333,224.39255,1704.88)"><g
       id="g663"
       transform="translate(-524.0424,525.41914)"><path
         d="m 449.80434,753.24092 c -51.93909,0 -94.05636,-42.10949 -94.05636,-94.05636 0,-41.55656 26.95001,-76.8129 64.32148,-89.24981 4.70064,-0.87066 6.42638,2.04037 6.42638,4.52463 0,2.24285 -0.0872,9.65204 -0.12771,17.51136 -26.16657,-5.68967 -31.68803,11.09743 -31.68803,11.09743 -4.27855,10.87159 -10.44327,13.76237 -10.44327,13.76237 -8.53373,5.83764 0.64326,5.71771 0.64326,5.71771 9.44489,-0.66196 14.4181,-9.6941 14.4181,-9.6941 8.38887,-14.37759 22.00328,-10.22053 27.37054,-7.81726 0.84418,6.07906 3.28173,10.22988 5.97159,12.57709 -20.89121,2.37835 -42.85244,10.44326 -42.85244,46.48304 0,10.26882 3.67423,18.65926 9.69098,25.24607 -0.97657,2.37057 -4.196,11.93538 0.91116,24.89095 0,0 7.89825,2.52788 25.87219,-9.64113 7.50265,2.08398 15.54887,3.12908 23.54213,3.16491 7.99327,-0.0358 16.04572,-1.08093 23.56238,-3.16491 17.95213,12.16901 25.83948,9.64113 25.83948,9.64113 5.11962,-12.95557 1.89864,-22.52038 0.92206,-24.89095 6.03078,-6.58681 9.68008,-14.97725 9.68008,-25.24607 0,-36.12544 -22.00328,-44.07977 -42.94744,-46.40828 3.37361,-2.91882 6.37966,-8.64276 6.37966,-17.4179 0,-12.58488 -0.10903,-22.71352 -0.10903,-25.81146 0,-2.50295 1.69304,-5.43579 6.46065,-4.51217 37.35122,12.45092 64.26697,47.6948 64.26697,89.23735 0,51.94687 -42.11105,94.05636 -94.05481,94.05636"
         style="fill:#1b1817;fill-opacity:1;fill-rule:evenodd;stroke:none;stroke-width:0.155753"
         id="path386" /><path
         d="m 391.3719,618.1965 c -0.20716,-0.46882 -0.94231,-0.60744 -1.61205,-0.28659 -0.6822,0.30683 -1.06536,0.94386 -0.84419,1.41268 0.20248,0.47972 0.9392,0.61367 1.61984,0.29438 0.68376,-0.3084 1.07314,-0.95166 0.8364,-1.42047 v 0"
         style="fill:#1b1817;fill-opacity:1;fill-rule:nonzero;stroke:none;stroke-width:0.155753"
         id="path388" /><path
         d="m 395.18162,613.94754 c -0.44857,-0.41586 -1.32546,-0.22272 -1.92044,0.43455 -0.61522,0.65573 -0.73048,1.53262 -0.27568,1.95471 0.46259,0.4143 1.313,0.21961 1.92979,-0.43455 0.61522,-0.66351 0.73515,-1.53417 0.26633,-1.95471 v 0"
         style="fill:#1b1817;fill-opacity:1;fill-rule:nonzero;stroke:none;stroke-width:0.155753"
         id="path390" /><path
         d="m 398.89011,608.53044 c -0.57629,-0.40029 -1.51859,-0.0249 -2.10111,0.81147 -0.57629,0.8364 -0.57629,1.83945 0.0125,2.2413 0.58407,0.40184 1.51236,0.0389 2.10267,-0.78967 0.57473,-0.85042 0.57473,-1.85347 -0.014,-2.2631 v 0"
         style="fill:#1b1817;fill-opacity:1;fill-rule:nonzero;stroke:none;stroke-width:0.155753"
         id="path392" /><path
         d="m 403.97079,603.29713 c -0.51555,-0.5685 -1.61361,-0.41587 -2.41729,0.35979 -0.82238,0.75851 -1.05134,1.83477 -0.53424,2.40327 0.52178,0.57006 1.62607,0.40963 2.43598,-0.35979 0.81615,-0.75696 1.06536,-1.84101 0.51555,-2.40327 v 0"
         style="fill:#1b1817;fill-opacity:1;fill-rule:nonzero;stroke:none;stroke-width:0.155753"
         id="path394" /><path
         d="m 410.97969,600.25838 c -0.2274,-0.73672 -1.28496,-1.07159 -2.35032,-0.75852 -1.06379,0.32241 -1.76001,1.18528 -1.54507,1.92978 0.22117,0.74139 1.28341,1.09028 2.35655,0.75541 1.06224,-0.32086 1.76001,-1.1775 1.53884,-1.92667 v 0"
         style="fill:#1b1817;fill-opacity:1;fill-rule:nonzero;stroke:none;stroke-width:0.155753"
         id="path396" /><path
         d="m 418.67702,599.69455 c 0.0265,-0.77565 -0.87689,-1.41891 -1.9952,-1.43293 -1.12454,-0.0249 -2.03414,0.60276 -2.0466,1.36596 0,0.78343 0.88313,1.42047 2.00766,1.43916 1.11831,0.0218 2.03414,-0.60121 2.03414,-1.37219 v 0"
         style="fill:#1b1817;fill-opacity:1;fill-rule:nonzero;stroke:none;stroke-width:0.155753"
         id="path398" /><path
         d="m 425.84012,600.9141 c 0.13395,-0.75696 -0.64326,-1.53417 -1.75378,-1.74132 -1.09183,-0.19937 -2.10267,0.26789 -2.24129,1.01862 -0.13551,0.77565 0.65572,1.55286 1.74599,1.75379 1.11208,0.19313 2.10735,-0.26167 2.24908,-1.03109 v 0"
         style="fill:#1b1817;fill-opacity:1;fill-rule:nonzero;stroke:none;stroke-width:0.155753"
         id="path400" /></g></g></svg>
