<svg width="101.55" height="22.442" fill="none" version="1.1" viewBox="0 0 101.55 26.931" xmlns="http://www.w3.org/2000/svg">
 <path d="m44.224 18.378c0.9075 0 1.6643-0.7376 1.6643-1.6472 0-0.8851-0.7568-1.6226-1.6643-1.6226-0.9333 0-1.6641 0.7375-1.6641 1.6226 0 0.9096 0.7308 1.6472 1.6641 1.6472z" clip-rule="evenodd" fill="#fff" fill-rule="evenodd"/>
 <path d="m9.3877 6.9212c-1.3595-4.0229-5.102-6.9212-9.4976-6.9212-0.718 0-1.4185 0.07916-2.0952 0.22568-0.4098 0.08967-0.8104 0.20553-1.2003 0.34471 0.0511 0.15919 0.1012 0.31866 0.1523 0.47814 0.2469 0.77491 0.504 1.5834 0.7737 2.3892 0.1579 0.47194 0.3212 0.94087 0.4873 1.4023 0.5279 1.4625 1.0974 2.8294 1.7148 3.8554 0.2719 0.452 0.5545 0.8295 0.8447 1.1276 0.4209 0.4305 0.8614 0.6885 1.3236 0.6885 0.6768-5e-4 1.3053-0.5322 1.8929-1.3895 0.5026 1.0286 1.0161 2.3658 1.4616 3.6345-0.9414 0.8256-2.0348 1.3223-3.353 1.3226h-0.0015c-1.0006 0-1.8699-0.2917-2.6451-0.7866-0.3667-0.2346-0.7176-0.507-1.0431-0.8323-0.9273-0.9273-1.6954-2.2011-2.3708-3.6604-0.23625-0.511-0.46235-1.0432-0.67816-1.5953-0.60148-1.5333-1.1373-3.193-1.664-4.8463-0.35508 0.30023-0.68972 0.6258-1.0007 0.97282-1.6409 1.8262-2.6444 4.2592-2.6444 6.9269 0 2.3308 0.76682 4.4821 2.0545 6.2069 0.29094 0.3899 0.60895 0.7586 0.95105 1.1019 0.36241-1.048 0.7041-2.1247 1.0268-3.1409 0.43063-1.3578 0.86647-2.7221 1.3376-4.0234 0.7158 1.3632 1.5442 2.5329 2.5413 3.3945-0.1912 0.5848-0.3756 1.1652-0.5546 1.7289-0.4405 1.3882-0.88479 2.7861-1.3674 4.1132 0.37819 0.1715 0.76863 0.3205 1.1695 0.4441 0.915 0.28 1.8842 0.4333 2.8867 0.4333 2.6995 0 5.1508-1.0945 6.9572-2.8688 0.3459-0.339 0.6656-0.702 0.9614-1.0876-0.1119-0.347-0.2219-0.6944-0.3324-1.0413-0.2456-0.7736-0.5027-1.5806-0.7723-2.3843-0.1587-0.4731-0.3208-0.9418-0.4875-1.4039-0.5267-1.4608-1.0954-2.8288-1.7135-3.8555-0.2712-0.4523-0.5538-0.8303-0.8449-1.1281-0.1044-0.1074-0.2113-0.2044-0.3183-0.289-0.3226-0.25418-0.6556-0.39898-1.0032-0.39898-0.6762 0-1.3065 0.53168-1.8942 1.3898-0.5039-1.0298-1.0159-2.3655-1.4625-3.6344 0.1175-0.10334 0.2377-0.20136 0.3602-0.29433 0.8591-0.64927 1.8408-1.0288 2.9957-1.0288h0.0032c0.9984 0 1.8663 0.29117 2.641 0.78571 0.3682 0.2346 0.7171 0.50663 1.0436 0.83177 0.9273 0.92762 1.6944 2.2021 2.3698 3.662 0.2368 0.5115 0.4619 1.0442 0.6787 1.5963 0.2733 0.6982 0.5333 1.4233 0.7843 2.1614 0.0506-0.4167 0.0803-0.8398 0.0803-1.2705 0-1.1682-0.1948-2.29-0.549-3.3368z" clip-rule="evenodd" fill="#46275e" fill-rule="evenodd"/>
 <g transform="translate(-13.411 -3.6732)" mask="url(#mask0)">
  <path d="m2.8862 3.2531h20.81v21.248h-20.81z" clip-rule="evenodd" fill="#6440b1" fill-rule="evenodd"/>
 </g>
 <path d="m111.66 16.653c-0.199-0.3561-1.05-1.4755-1.05-1.4755-0.976 2.0096-2.754 2.6711-4.305 2.6711-3.655 0-3.729-2.1372-3.729-2.2641 0 0 0.025-0.0254 0.05-0.0254 0.175 0.0507 0.876 0.1015 1.176 0.1015 5.156 0 5.256-3.6888 5.256-4.0448v-0.0256c0-3.5615-3.404-3.6123-3.754-3.6123h-0.025c-3.479 0-5.732 2.5442-5.732 6.1565 0 0.3635 7e-3 0.8765 0.089 1.4498-0.465 1.297-1.291 1.6029-1.89 1.6029-1.026 0-1.227-0.9668-1.227-1.5265v-14.272h-3.729v2.2895h1.051v13.102c0 1.6788 1.201 3.1289 3.154 3.1289 1.904 0 3.023-1.1188 3.511-1.9852 0.829 1.1921 2.372 2.1635 5.248 2.1635 4.005 0 5.957-2.5186 5.957-3.2818 0-0.0254 0-0.0764-0.051-0.1527zm-70.19-10.43c0.9006 0 1.6519-0.76324 1.6519-1.7044 0-0.91597-0.7513-1.6792-1.6519-1.6792-0.9263 0-1.652 0.76324-1.652 1.6792 0 0.94113 0.7257 1.7044 1.652 1.7044zm63.433 4.0454c-1.676 0-2.553 1.6022-2.553 3.0776 0 0.051 0.276 0.1786 1.177 0.1786 2.778 0 2.828-1.7304 2.828-1.9847 0-1.1956-1.102-1.2715-1.452-1.2715zm-17.969 7.3771c-0.6254 0-1.2008-0.2291-1.2008-0.2291v-6.8685s0.8758-0.1783 1.4008-0.1783c0.526 0 3.254 0.1273 3.254 3.4343 0 3.7398-2.828 3.8416-3.454 3.8416zm-9.6107-3.0532c0 1.2976-0.9506 2.7987-2.6523 2.7987-2.078 0-2.1028-2.239-2.1028-2.9004 0-3.2563 2.2778-4.1972 3.504-4.1972 0.9002 0 1.2511 0.1525 1.2511 0.1525zm-23.916-0.0505c0 1.2717-0.9013 2.8238-2.578 2.8238-2.0778 0-2.1273-2.2643-2.1273-2.9004 0-3.2309 2.1525-4.1718 3.454-4.1718 0.9009 0 1.2513 0.1525 1.2513 0.1525zm33.927-6.5127c-0.676 0-1.6018 0.2799-1.6018 0.2799v-6.9197h-3.7044v2.2897h1.0514v11.97c-0.4678 1.2678-1.2846 1.5891-1.8776 1.5891-1.0261 0-1.2266-0.9919-1.2266-1.5267v-7.2499c0-0.0252-1.8517-0.4836-3.3786-0.4836-5.1554 0-6.8326 3.6381-6.8326 6.8943 0 0.3021 0.023 0.7666 0.1117 1.2956-0.4812 0.8309-1.1267 1.0451-1.6283 1.0451-1.0509 0-1.2514-0.916-1.2514-1.4499v-4.1216c0-2.3913-1.6267-3.46-3.5783-3.46-2.1781 0-3.1539 1.2976-3.1539 1.2976-0.0498 0.0764-0.0752 0.1018-0.0997 0.1018-0.0252 0-0.0252-0.051-0.0252-0.0762v-1.0683h-3.7293v0.0034c-0.6113-0.0214-0.7636-0.0666-0.7636-0.0666l5e-4 0.0033c-0.6026-0.1442-1.8553-0.3727-2.9653-0.3727-5.106 0-6.7579 3.4595-6.7579 6.9195 0 0.1273 0.0096 0.4068 0.0554 0.7704-0.4876 1.2287-1.2709 1.5193-1.857 1.5193-1.0516 0-1.2268-0.9667-1.2268-1.5265v-7.2501h-3.7541v2.2893h1.077v4.7535c-0.4576 1.3862-1.3127 1.708-1.9275 1.708-1.0266 0-1.227-0.9665-1.227-1.5263v-14.272h-3.7283v2.2897h1.0514v13.102c0 1.6788 1.2008 3.1291 3.1528 3.1291 1.5096 0 2.5262-0.7031 3.1259-1.4261 0.5097 0.8612 1.4364 1.4512 2.6803 1.4512 1.7841 0 2.8808-0.9638 3.4205-1.7945 0.591 0.9906 1.5922 1.8202 3.2866 1.8202 1.2012 0 2.3277-0.3057 3.1787-1.2467 0 0 0.0753-0.1015 0.125-0.1015 0.0252 0 0.0506 0.0254 0.0506 0.1269v1.323c0 1.4755-0.2512 4.5538-3.7299 4.5538-0.2004 0-0.55-0.0254-0.55-0.0254v-1.9083h-2.3023v3.9943s0.7506 0.2543 2.177 0.2543c7.0076 0 7.0076-5.902 7.0076-7.4792v-8.7209h0.5064l-4e-4 -0.0049h1.0963v8.9039h2.6772v-5.9531c0-1.5771 0.851-2.9508 2.4029-2.9508 0.3752 0 1.6519 0.2035 1.6519 1.679v4.4011c0 1.6792 1.176 3.1288 3.1281 3.1288 1.5893 0 2.6334-0.7739 3.224-1.5309 0.6227 0.9547 1.6519 1.7091 3.3481 1.7091 1.502 0 2.9279-0.7121 3.6288-1.9587 0.0256-0.0256 0.0502-0.0763 0.0754-0.0763 0.0258 0 0.0258 0.0258 0.0499 0.1015 0.3257 1.0429 1.3015 1.7553 2.6534 1.7553 1.1524 0 2.0165-0.4101 2.6282-0.9255v0.2897s1.0266 0.7122 3.7538 0.7122c5.931 0 6.332-5.0113 6.332-6.1052 0-5.7495-4.931-5.8768-5.831-5.8768zm-60.02 4.2485-2.628-7.1993c-0.0247-0.07614-0.0506-0.12735-0.0747-0.12735-0.0252 0-0.0501 0.05121-0.0756 0.12735l-2.5526 7.1993zm-11.437 7.3521 6.1058-15.722h-1.3514v-2.5186h5.7564l6.1322 15.722h1.3503v2.5184h-3.9032l-1.7521-4.8079h-7.1324l-1.7521 4.8079z" clip-rule="evenodd" fill="#231f20" fill-rule="evenodd"/>
 <g transform="translate(-13.411 -3.6732)" mask="url(#mask1)">
  <path d="m29.192 3.7212h96.49v27.265h-96.49z" clip-rule="evenodd" fill="#000" fill-rule="evenodd"/>
 </g>
 <defs>
  <mask id="mask0" x="3" y="3" width="21" height="22" mask-type="alpha" maskUnits="userSpaceOnUse">
   <path d="m22.798 10.594c-1.3595-4.0229-5.102-6.9212-9.4976-6.9212-0.718 0-1.4185 0.07916-2.0952 0.22568-0.4098 0.08967-0.8104 0.20553-1.2003 0.34471 0.0511 0.15919 0.1012 0.31866 0.1523 0.47814 0.2469 0.77491 0.504 1.5834 0.7737 2.3892 0.1579 0.47194 0.3212 0.94087 0.4873 1.4023 0.5279 1.4625 1.0974 2.8294 1.7148 3.8554 0.2719 0.452 0.5545 0.8295 0.8447 1.1276 0.4209 0.4305 0.8614 0.6885 1.3236 0.6885 0.6768-5e-4 1.3053-0.5322 1.8929-1.3895 0.5026 1.0286 1.0161 2.3658 1.4616 3.6345-0.9414 0.8256-2.0348 1.3223-3.353 1.3226h-0.0015c-1.0006 0-1.8699-0.2917-2.6451-0.7866-0.3667-0.2346-0.7176-0.507-1.0431-0.8323-0.9273-0.9273-1.6954-2.2011-2.3708-3.6604-0.23625-0.511-0.46235-1.0432-0.67816-1.5953-0.60148-1.5333-1.1373-3.193-1.664-4.8463-0.35508 0.30023-0.68972 0.6258-1.0007 0.97282-1.6409 1.8262-2.6444 4.2592-2.6444 6.9269 0 2.3308 0.76682 4.4821 2.0545 6.2069 0.29094 0.3899 0.60895 0.7586 0.95105 1.1019 0.36241-1.048 0.7041-2.1247 1.0268-3.1409 0.43063-1.3578 0.86647-2.7221 1.3376-4.0234 0.7158 1.3632 1.5442 2.5329 2.5413 3.3945-0.1912 0.5848-0.3756 1.1652-0.5546 1.7289-0.4405 1.3882-0.88479 2.7861-1.3674 4.1132 0.37819 0.1715 0.76863 0.3205 1.1695 0.4441 0.915 0.28 1.8842 0.4333 2.8867 0.4333 2.6995 0 5.1508-1.0945 6.9572-2.8688 0.3459-0.339 0.6656-0.702 0.9614-1.0876-0.1119-0.347-0.2219-0.6944-0.3324-1.0413-0.2456-0.7736-0.5027-1.5806-0.7723-2.3843-0.1587-0.4731-0.3208-0.9418-0.4875-1.4039-0.5267-1.4608-1.0954-2.8288-1.7135-3.8555-0.2712-0.4523-0.5538-0.8303-0.8449-1.1281-0.1044-0.1074-0.2113-0.2044-0.3183-0.289-0.3226-0.25418-0.6556-0.39898-1.0032-0.39898-0.6762 0-1.3065 0.53168-1.8942 1.3898-0.5039-1.0298-1.0159-2.3655-1.4625-3.6344 0.1175-0.10334 0.2377-0.20136 0.3602-0.29433 0.8591-0.64927 1.8408-1.0288 2.9957-1.0288h0.0032c0.9984 0 1.8663 0.29117 2.641 0.78571 0.3682 0.2346 0.7171 0.50663 1.0436 0.83177 0.9273 0.92762 1.6944 2.2021 2.3698 3.662 0.2368 0.5115 0.4619 1.0442 0.6787 1.5963 0.2733 0.6982 0.5333 1.4233 0.7843 2.1614 0.0506-0.4167 0.0803-0.8398 0.0803-1.2705 0-1.1682-0.1948-2.29-0.549-3.3368z" clip-rule="evenodd" fill="#fff" fill-rule="evenodd"/>
  </mask>
  <mask id="mask1" x="29" y="5" width="97" height="26" mask-type="alpha" maskUnits="userSpaceOnUse">
   <path d="m125.07 20.326c-0.199-0.3561-1.05-1.4755-1.05-1.4755-0.976 2.0096-2.754 2.6711-4.305 2.6711-3.655 0-3.729-2.1372-3.729-2.2641 0 0 0.025-0.0254 0.05-0.0254 0.175 0.0507 0.876 0.1015 1.176 0.1015 5.156 0 5.256-3.6888 5.256-4.0448v-0.0256c0-3.5615-3.404-3.6123-3.754-3.6123h-0.025c-3.479 0-5.732 2.5442-5.732 6.1565 0 0.3635 7e-3 0.8765 0.089 1.4498-0.465 1.297-1.291 1.6029-1.89 1.6029-1.026 0-1.227-0.9668-1.227-1.5265v-14.272h-3.729v2.2895h1.051v13.102c0 1.6788 1.201 3.1289 3.154 3.1289 1.904 0 3.023-1.1188 3.511-1.9852 0.829 1.1921 2.372 2.1635 5.248 2.1635 4.005 0 5.957-2.5186 5.957-3.2818 0-0.0254 0-0.0764-0.051-0.1527zm-70.19-10.43c0.9006 0 1.6519-0.76324 1.6519-1.7044 0-0.91597-0.7513-1.6792-1.6519-1.6792-0.9263 0-1.652 0.76324-1.652 1.6792 0 0.94113 0.7257 1.7044 1.652 1.7044zm63.433 4.0454c-1.676 0-2.553 1.6022-2.553 3.0776 0 0.051 0.276 0.1786 1.177 0.1786 2.778 0 2.828-1.7304 2.828-1.9847 0-1.1956-1.102-1.2715-1.452-1.2715zm-17.969 7.3771c-0.6254 0-1.2008-0.2291-1.2008-0.2291v-6.8685s0.8758-0.1783 1.4008-0.1783c0.526 0 3.254 0.1273 3.254 3.4343 0 3.7398-2.828 3.8416-3.454 3.8416zm-9.6107-3.0532c0 1.2976-0.9506 2.7987-2.6523 2.7987-2.078 0-2.1028-2.239-2.1028-2.9004 0-3.2563 2.2778-4.1972 3.504-4.1972 0.9002 0 1.2511 0.1525 1.2511 0.1525zm-23.916-0.0505c0 1.2717-0.9013 2.8238-2.578 2.8238-2.0778 0-2.1273-2.2643-2.1273-2.9004 0-3.2309 2.1525-4.1718 3.454-4.1718 0.9009 0 1.2513 0.1525 1.2513 0.1525zm33.927-6.5127c-0.676 0-1.6018 0.2799-1.6018 0.2799v-6.9197h-3.7044v2.2897h1.0514v11.97c-0.4678 1.2678-1.2846 1.5891-1.8776 1.5891-1.0261 0-1.2266-0.9919-1.2266-1.5267v-7.2499c0-0.0252-1.8517-0.4836-3.3786-0.4836-5.1554 0-6.8326 3.6381-6.8326 6.8943 0 0.3021 0.023 0.7666 0.1117 1.2956-0.4812 0.8309-1.1267 1.0451-1.6283 1.0451-1.0509 0-1.2514-0.916-1.2514-1.4499v-4.1216c0-2.3913-1.6267-3.46-3.5783-3.46-2.1781 0-3.1539 1.2976-3.1539 1.2976-0.0498 0.0764-0.0752 0.1018-0.0997 0.1018-0.0252 0-0.0252-0.051-0.0252-0.0762v-1.0683h-3.7293v0.0034c-0.6113-0.0214-0.7636-0.0666-0.7636-0.0666l5e-4 0.0033c-0.6026-0.1442-1.8553-0.3727-2.9653-0.3727-5.106 0-6.7579 3.4595-6.7579 6.9195 0 0.1273 0.0096 0.4068 0.0554 0.7704-0.4876 1.2287-1.2709 1.5193-1.857 1.5193-1.0516 0-1.2268-0.9667-1.2268-1.5265v-7.2501h-3.7541v2.2893h1.077v4.7535c-0.4576 1.3862-1.3127 1.708-1.9275 1.708-1.0266 0-1.227-0.9665-1.227-1.5263v-14.272h-3.7283v2.2897h1.0514v13.102c0 1.6788 1.2008 3.1291 3.1528 3.1291 1.5096 0 2.5262-0.7031 3.1259-1.4261 0.5097 0.8612 1.4364 1.4512 2.6803 1.4512 1.7841 0 2.8808-0.9638 3.4205-1.7945 0.591 0.9906 1.5922 1.8202 3.2866 1.8202 1.2012 0 2.3277-0.3057 3.1787-1.2467 0 0 0.0753-0.1015 0.125-0.1015 0.0252 0 0.0506 0.0254 0.0506 0.1269v1.323c0 1.4755-0.2512 4.5538-3.7299 4.5538-0.2004 0-0.55-0.0254-0.55-0.0254v-1.9083h-2.3023v3.9943s0.7506 0.2543 2.177 0.2543c7.0076 0 7.0076-5.902 7.0076-7.4792v-8.7209h0.5064l-4e-4 -0.0049h1.0963v8.9039h2.6772v-5.9531c0-1.5771 0.851-2.9508 2.4029-2.9508 0.3752 0 1.6519 0.2035 1.6519 1.679v4.4011c0 1.6792 1.176 3.1288 3.1281 3.1288 1.5893 0 2.6334-0.7739 3.224-1.5309 0.6227 0.9547 1.6519 1.7091 3.3481 1.7091 1.502 0 2.9279-0.7121 3.6288-1.9587 0.0256-0.0256 0.0502-0.0763 0.0754-0.0763 0.0258 0 0.0258 0.0258 0.0499 0.1015 0.3257 1.0429 1.3015 1.7553 2.6534 1.7553 1.1524 0 2.0165-0.4101 2.6282-0.9255v0.2897s1.0266 0.7122 3.7538 0.7122c5.931 0 6.332-5.0113 6.332-6.1052 0-5.7495-4.931-5.8768-5.831-5.8768zm-60.02 4.2485-2.628-7.1993c-0.0247-0.07614-0.0506-0.12735-0.0747-0.12735-0.0252 0-0.0501 0.05121-0.0756 0.12735l-2.5526 7.1993zm-11.437 7.3521 6.1058-15.722h-1.3514v-2.5186h5.7564l6.1322 15.722h1.3503v2.5184h-3.9032l-1.7521-4.8079h-7.1324l-1.7521 4.8079z" clip-rule="evenodd" fill="#fff" fill-rule="evenodd"/>
  </mask>
 </defs>
</svg>
