<svg enable-background="new 0 0 750 100" height="100" viewBox="0 0 750 100" width="750" xmlns="http://www.w3.org/2000/svg"><path d="m0 0h750v100h-750z" fill="none"/><path d="m676.8252 22.7114v17.3462h-7.3584c-6.7109 0-9.5225 2.9453-9.5225 9.9629v27.9897h-18.9512v-55.0351h12.6943l2.96 6.1064c3.8789-4.4888 8.6094-6.3701 15.1582-6.3701zm-85.1006 21.7798h22.2451c-1.6641-5.5-5.6289-8.4678-11.3447-8.4678-5.5293 0-9.3672 3.0025-10.9004 8.4678zm40.5244 10.499h-40.8613c1.2402 6.3149 5.25 9.5771 11.2373 9.5771 4.4268 0 8.124-1.9395 9.9492-5.1641h18.8623c-3.8721 12.5605-15.0068 20.4087-28.8115 20.4087-17.1699 0-29.8965-12.5503-29.8965-29.3657 0-16.8691 12.623-29.2744 29.8965-29.2744 17.7354 0 30.0166 12.6553 30.0166 28.7969 0 1.6592-.1445 3.3194-.3926 5.0215zm-85.2304-6.101c0-6.9487-4.8857-11.9941-11.707-11.9941-6.8066 0-11.7471 5.0454-11.7471 11.9941 0 7.0142 4.8818 12.0576 11.7441 12.0576 6.8076 0 11.71-5.0435 11.71-12.0576zm17.7246-25.9141v48.9199c0 17.2905-11.3242 28.0054-29.5 28.0054-15.6133 0-26.5439-7.8721-29.0801-20.9155h18.29c1.3164 3.6797 6.0117 5.6606 10.6143 5.6606 6.3525 0 11.458-4.0376 11.458-10.5835v-1.6396c-4.1377 2.625-9.0469 4.1338-14.3623 4.1338-15.7744 0-27.502-11.7407-27.502-27.667 0-15.6909 11.7275-27.6763 27.502-27.6763 6.6631 0 12.6953 2.3911 17.3594 6.3789l2.4053-4.6167h12.8154zm-89.0479-1.626c-7.1143 0-13.2256 2.7334-17.3223 7.3003l-2.6045-5.6743h-13.2939v55.0352h18.9541v-29.3916c0-7.0039 3.3975-11.1313 9.3086-11.1313 4.7715 0 7.1797 3.1782 7.1797 9.5811v30.9419h18.9551v-33.5602c-0-14.02-8.3955-23.1011-21.1768-23.1011zm-63.8301 1.6226h18.9541v55.0352h-18.9541zm.1446-22.9717h18.6621v16.0903h-18.6621zm-12.3819 22.7114c-6.5527 0-11.2793 1.8813-15.1582 6.3701l-2.9561-6.1064h-12.7021v55.0352h18.958v-27.9898c0-7.0176 2.8115-9.9629 9.5225-9.9629h7.3555v-17.3462zm-57.9355 27.7759c0-7.2261-5.2197-12.5918-12.3193-12.5918-7.1006 0-12.3203 5.3657-12.3203 12.5918 0 7.2314 5.2197 12.5986 12.3203 12.5986 7.0546 0 12.3193-5.3671 12.3193-12.5986zm19.0713.0034c0 17.1465-12.0293 29.3799-28.8555 29.3799-4.9746 0-9.5322-1.3091-13.415-3.6553v21.6655h-18.7373v-74.9057h12.8877l2.373 4.3721c4.5273-3.9136 10.3525-6.1772 16.8916-6.1772 16.8262-.0001 28.8555 12.1733 28.8555 29.3207zm-93.4229 29.3213c14.6279 0 24.332-7.5273 24.332-19.0273 0-13.9575-11.5576-15.7646-20.25-17.3096-5.2295-.9287-9.4395-1.6606-9.4395-4.792 0-2.5493 2.043-4.0552 5.082-4.0552 3.4346 0 5.7979 1.6348 5.7979 5.1489h17.749c-.2139-11.1519-9.2988-18.6069-23.3125-18.6069-14.1006 0-23.499 7.1226-23.499 18.1519 0 13.3481 11.3096 15.9233 19.8438 17.3081 5.2881.875 9.4531 1.7813 9.4531 4.9541 0 2.8457-2.6289 4.2583-5.3984 4.2583-3.5967 0-6.3975-1.8535-6.3975-5.8774h-18.2451c.1719 11.9267 9.2881 19.8471 24.2842 19.8471zm-73.039-1.8017h18.9551v-74.9082h-18.9551zm-49.2715-33.5191h22.248c-1.6631-5.5-5.6289-8.4678-11.3477-8.4678-5.5253 0-9.3671 3.0025-10.9003 8.4678zm40.5312 10.499h-40.8652c1.2402 6.3149 5.25 9.5771 11.2344 9.5771 4.4307 0 8.127-1.9395 9.9492-5.1641h18.8652c-3.876 12.5605-15.0068 20.4087-28.8145 20.4087-17.1699 0-29.8896-12.5503-29.8896-29.3657 0-16.8691 12.6191-29.2744 29.8896-29.2744 17.7383 0 30.0205 12.6553 30.0205 28.7969.0001 1.6592-.1445 3.3194-.3896 5.0215zm-58.2451 23.0201-18.2871-29.0523 17.0537-25.9829h-20.6294l-8.3164 13.8579-7.9478-13.8579h-20.9252l16.915 26.4805-18.252 28.5547h20.9321l9.2295-16.3022 9.0469 16.3022zm-83.5088-27.5347c0-7.1416-5.2192-12.5073-12.3198-12.5073-7.1416 0-12.3159 5.3657-12.3159 12.5073 0 7.188 5.2192 12.5518 12.3159 12.5518 7.1006-.0001 12.3198-5.3638 12.3198-12.5518zm18.0278-27.5606v55.0332h-14.6518l-1.6226-3.8931c-4.5098 3.6519-10.2148 5.7568-16.6055 5.7568-16.8291 0-28.8555-12.2783-28.8555-29.3813 0-17.043 12.0264-29.1748 28.8555-29.1748 6.4805 0 12.2715 2.167 16.8154 5.9155l1.9365-4.2563z"/><path d="m687.8867 77.9414h62.1084v-13.9458h-62.1084v6.9727z" fill="#00f"/></svg>