<svg width="647.56" height="93.43" data-name="Layer 2" version="1.1" viewBox="0 0 647.56 93.43" xmlns="http://www.w3.org/2000/svg">
<defs>
<style>.cls-1 { fill: #00babd; } .cls-2 { fill: #9f9ea0; } .cls-3 { fill: #f60; }</style>
</defs>
<path class="cls-1" d="m407.57 78.57 3.95-2.24c4.57 8.36 11.23 12.72 20.86 12.72 12.59 0 19.75-6.23 19.75-21.58v-14.22c-3.58 7.49-11.61 13.35-21.36 13.35-14.44 0-24.94-11.6-24.94-26.57s10.49-26.44 24.94-26.44c10.25 0 17.77 5.74 21.6 13.6l-0.25-12.47h4.81v53.26c0 17.34-9.38 25.45-24.45 25.45-12.1 0-20.61-6.36-24.94-14.84m44.97-38.56c0-12.6-8.39-22.08-21.11-22.08s-20.49 9.48-20.49 22.08 8.02 22.2 20.49 22.2 21.11-9.6 21.11-22.2"/>
<path class="cls-1" d="m465.47 13.59h4.81l-0.12 10.23c2.84-7.36 8.27-11.23 14.69-11.23 3.95 0 6.67 0.75 9.13 2.62l-2.34 3.99c-1.48-1.12-3.7-2.12-7.41-2.12-7.16 0-13.95 6.11-13.95 18.46v28.94h-4.81z"/>
<path class="cls-1" d="m489.92 38.91c0-14.59 11.61-26.45 26.3-26.45s26.05 11.85 26.05 26.45-11.35 26.57-26.05 26.57-26.3-11.97-26.3-26.57m47.4 0c0-12.6-8.52-22.08-21.11-22.08s-21.36 9.48-21.36 22.08 8.77 22.2 21.36 22.2 21.11-9.61 21.11-22.2"/>
<path class="cls-1" d="m546.21 42.15v-28.56h4.82v28.19c0 12.35 4.94 19.21 16.29 19.21s16.3-6.86 16.3-19.21v-28.19h4.81v28.56c0 14.97-8.39 23.32-21.11 23.32s-21.11-8.36-21.11-23.32"/>
<path class="cls-1" d="m596.46 13.59h4.81l-0.25 12.47c3.7-7.86 11.36-13.6 21.6-13.6 14.44 0 24.94 11.47 24.94 26.44s-10.49 26.57-24.94 26.57c-9.75 0-17.78-5.86-21.36-13.35v38.79h-4.81v-77.32zm46.05 25.32c0-12.6-8.02-22.08-20.49-22.08s-21.11 9.48-21.11 22.08 8.39 22.2 21.11 22.2 20.49-9.6 20.49-22.2"/>
<path class="cls-3" d="m217.88 31.31c-0.26-3.22-1.42-6.05-3.47-8.43-2.01-2.33-4.85-4.14-8.44-5.37-3.5-1.19-8.96-1.8-13.88-1.8-4.61 0-8.67 0.62-12.04 1.85-3.47 1.26-6.19 3.11-8.08 5.49-1.94 2.43-2.92 5.36-2.92 8.68v0.05c0 2.73 0.67 4.69 1.98 6.71 1.3 2 3.23 3.63 5.75 4.86 2.42 1.18 5.48 2.02 9.09 2.49l12.57 1.36c3.87 0.49 5.63 1.25 6.43 1.81 0.96 0.67 1.41 2.06 1.41 3.39v0.05c0 1.14-0.36 2.05-1.14 2.87-0.85 0.89-2.19 1.58-3.97 2.07-1.91 0.52-4.29 0.79-7.08 0.79-4.68 0-7.1-0.59-9.57-1.75-2.27-1.07-3.59-2.55-4.04-4.54l-0.26-1.08h-12.71l0.19 1.59c0.41 3.36 1.74 5.45 3.95 7.83 2.16 2.33 5.17 4.13 8.95 5.33 3.22 1.03 7.06 1.61 11.44 1.74 0.62 0.02 1.24 0.03 1.88 0.03 0.6 0 2.39-0.01 2.97-0.03 4.13-0.14 7.77-0.76 10.84-1.84 3.6-1.28 6.43-3.16 8.41-5.59 2.03-2.5 3.06-4.64 3.06-8.01v-0.05c0-4.22-1.39-7.02-4.12-9.36-2.6-2.23-6.85-3.74-12.6-4.5l-13.47-1.41c-2.02-0.23-3.66-0.59-4.88-1.07-1.09-0.43-1.87-0.95-2.33-1.56-0.43-0.57-0.63-1.73-0.63-2.54v-0.05c0-1.12 0.34-2.52 1.07-3.3 0.8-0.85 2.04-1.53 3.7-2.02 1.78-0.52 3.61-0.79 6.25-0.79 4.12 0 7.42 0.62 9.79 1.83 2.19 1.12 3.35 3.03 3.63 4.92l0.17 1.09h12.24l-0.13-1.75z"/>
<path class="cls-3" d="m274.41 31.31c-0.26-3.22-1.42-6.05-3.47-8.43-2.01-2.33-4.85-4.14-8.44-5.37-3.5-1.19-8.96-1.8-13.88-1.8-4.61 0-8.67 0.62-12.04 1.85-3.47 1.26-6.19 3.11-8.08 5.49-1.94 2.43-2.92 5.36-2.92 8.68v0.05c0 2.73 0.67 4.69 1.98 6.71 1.3 2 3.23 3.63 5.75 4.86 2.42 1.18 5.48 2.02 9.09 2.49l12.57 1.36c3.87 0.49 5.63 1.25 6.43 1.81 0.96 0.67 1.41 2.06 1.41 3.39v0.05c0 1.14-0.36 2.05-1.14 2.87-0.85 0.89-2.18 1.58-3.97 2.07-1.91 0.52-4.29 0.79-7.08 0.79-4.68 0-7.1-0.59-9.57-1.75-2.27-1.07-3.59-2.55-4.04-4.54l-0.26-1.08h-12.71l0.19 1.59c0.41 3.36 1.74 5.45 3.95 7.83 2.16 2.33 5.17 4.13 8.95 5.33 3.22 1.03 7.06 1.61 11.44 1.74 0.62 0.02 1.24 0.03 1.88 0.03 0.6 0 2.39-0.01 2.97-0.03 4.13-0.14 7.77-0.76 10.84-1.84 3.6-1.28 6.43-3.16 8.41-5.59 2.03-2.5 3.06-4.64 3.06-8.01v-0.05c0-4.22-1.39-7.02-4.12-9.36-2.6-2.23-6.85-3.74-12.6-4.5l-13.47-1.41c-2.02-0.23-3.66-0.59-4.88-1.07-1.09-0.43-1.87-0.95-2.33-1.56-0.43-0.57-0.63-1.73-0.63-2.54v-0.05c0-1.12 0.34-2.52 1.07-3.3 0.8-0.85 2.04-1.53 3.7-2.02 1.78-0.52 3.61-0.79 6.25-0.79 4.12 0 7.42 0.62 9.79 1.83 2.2 1.12 3.35 3.03 3.63 4.92l0.17 1.09h12.24l-0.12-1.75z"/>
<path class="cls-3" d="m28.35 57.88c-3.47 0-6.08-0.65-8.8-1.98-5.17-2.54-7.72-8.1-7.72-14.16 0-7.32 4.13-14.33 10.92-15.91 1.85-0.43 3.47-0.65 5.6-0.65 4.98 0 9.18 1.51 12.13 4.38 2.94 2.85 4.51 7.45 4.52 12.25-0.03 9.61-6.72 16.07-16.65 16.07m28.75-16.14v-1.46h-0.03c-0.28-6.86-2.6-12.74-6.74-17.05-4.82-5.02-12.41-7.67-21.17-7.67-7.61 0-14.1 3.21-17.32 6.81v-22.37h-11.84v66.04h11.83v-4.72c4.27 3.92 10.64 5.9 17.72 5.9 7.62 0 15.91-1.87 20.77-6.96 4.13-4.33 6.45-10.17 6.74-16.93h0.03v-0.83-0.66-0.08-0.01z"/>
<path class="cls-3" d="m326.31 43.71v0.03c-0.85 8.33-7.67 14.02-16.97 14.16-9.32-0.14-15.75-5.84-16.59-14.17-0.23-1.91-0.15-5.04 0.57-7.47v-0.03l0.05-0.14c1.82-6.76 7.39-11.12 15.96-11.12s14.63 4.43 16.41 11.29v0.03c0.73 2.4 0.81 5.53 0.58 7.42zm11.79-1.93v-1.46h-0.04c-0.34-6.51-2.8-12.46-6.97-16.82-5.02-5.25-13.07-8.02-21.76-8.02s-16.32 2.76-21.32 7.99c-4.19 4.38-6.66 10.34-7.01 16.85h-0.03v0.83l-0.01 0.68v1.54h0.04c0.35 6.42 2.83 11.48 7.01 15.83 4.31 4.47 10.67 7.15 17.79 7.86 0.08 0 0.15 0.02 0.23 0.03 0.43 0.04 0.86 0.07 1.3 0.1 0.11 0 0.22 0.02 0.33 0.02 0.55 0.03 1.1 0.04 1.66 0.05h0.19c0.49 0 1.38-0.02 1.86-0.04 0.19 0 0.38-0.03 0.57-0.04 0.35-0.02 0.7-0.04 1.05-0.08 0.15-0.01 0.28-0.03 0.43-0.05 0.4-0.04 0.8-0.09 1.19-0.14 0.04 0 0.08-0.01 0.12-0.02 6.47-0.92 12.3-3.53 16.31-7.69 4.36-4.53 6.86-9.9 7.05-16.63v-0.62l0.01-0.01v-0.12-0.02z"/>
<path class="cls-3" d="m393.48 21.5c-3.6-3.73-9.85-5.61-16.22-5.61-4.29 0-8.67 0.37-14.54 3.44-1.95 1.02-4.02 2.74-5.41 4.25v-6.77h-12v49.29h12v-25.48c0-2.78 0.58-5.59 1.74-7.62 1.15-2.02 3.5-4.07 5.59-5.16 3.86-2.02 7.51-2.51 10.36-2.51 3.98 0 6.59 1.06 8.54 3.14 1.96 2.1 3.36 5.28 3.36 9.46v28.17h12v-29.13c0-6.54-1.82-11.74-5.42-15.47"/>
<path class="cls-3" d="m158.71 56.6c-3.47 0.92-6.42 0.97-7.14 0.97h-0.42c-6.04 0-6.02-2.43-6.02-4.55v-26.2h15.81v-9.97h-15.81v-16.85h-11.83v16.85h-12.69v9.97h12.69v27.21c0 4.52 1.57 7.21 4.66 9.64 3.03 2.38 7.39 3.58 12.97 3.58h0.05c0.72 0 9.01-0.17 13.19-2.19l0.98-0.5-5.35-8.24-1.08 0.28z"/>
<path class="cls-3" d="m77.55 32.93c0.35-0.75 0.76-1.46 1.22-2.12 0.12-0.17 0.26-0.36 0.4-0.55 0.24-0.3 0.5-0.6 0.76-0.89 0.27-0.28 0.55-0.55 0.84-0.8 0.19-0.16 0.37-0.31 0.55-0.45l0.24-0.18c0.66-0.49 1.4-0.92 2.18-1.29 0.22-0.1 0.44-0.2 0.67-0.3 2.19-0.9 3.59-1.37 6.53-1.37 5.65 0 10.33 2.26 13.17 6.36 0.76 1.1 1.45 2.94 1.92 4.29l0.15 0.42h-29.52c0.02-0.12 0.05-0.26 0.08-0.42 0.19-0.85 0.53-2.11 0.8-2.7m-1.49 10.49h43.13v-0.87c0-0.31-0.01-0.6-0.02-0.76-0.18-6.09-1.35-12.88-7.01-18.57-4.91-4.93-13.4-7.75-21.22-7.75-5.02 0-9.5 0.92-13.33 2.73-1.48 0.7-2.89 1.55-4.19 2.54-0.5 0.38-0.95 0.75-1.37 1.12-1.06 0.94-2.04 2-2.93 3.15-0.22 0.28-0.43 0.57-0.63 0.86-0.84 1.21-1.58 2.49-2.19 3.82-1.45 3.17-2.31 6.84-2.5 10.64h-0.03v0.83l-0.01 0.68v1.54h0.04c0 0.07 0.01 0.14 0.01 0.21l0.02 0.36 0.03 0.51c0.01 0.16 0.03 0.33 0.05 0.49l0.04 0.37c0.01 0.12 0.03 0.25 0.04 0.38 0.03 0.2 0.06 0.39 0.09 0.59l0.05 0.33c0.01 0.1 0.03 0.21 0.05 0.31 0.04 0.25 0.09 0.49 0.14 0.74l0.05 0.24c0.01 0.08 0.03 0.16 0.05 0.24 0.07 0.31 0.14 0.62 0.21 0.89l0.03 0.11c0.02 0.07 0.03 0.14 0.05 0.2 0.08 0.32 0.18 0.64 0.27 0.94l0.02 0.08s0.03 0.1 0.05 0.16c0.11 0.36 0.23 0.71 0.32 0.98l0.06 0.17c0.12 0.32 0.24 0.65 0.4 1.03l0.04 0.11c0.14 0.35 0.29 0.68 0.47 1.08l0.02 0.04c0.17 0.35 0.34 0.71 0.53 1.07v0.03c4.5 8.45 13.16 12.26 24.41 12.26s21.1-3.47 26.64-11.59l0.57-0.84-8.71-5.55-0.57 0.62c-4.46 4.84-8.12 8.01-17.93 8.01h-0.34c-4.04-0.06-6.42-1.19-9.15-3.26-0.2-0.15-0.38-0.29-0.56-0.45-0.19-0.16-0.36-0.31-0.53-0.47s-0.32-0.31-0.47-0.46l-0.03-0.03c-0.17-0.18-0.31-0.33-0.45-0.48l-0.03-0.04c-0.17-0.19-0.29-0.34-0.42-0.5l-0.03-0.04c-0.13-0.16-0.25-0.32-0.37-0.48l-0.06-0.08c-0.12-0.16-0.22-0.32-0.33-0.48l-0.07-0.11c-0.11-0.16-0.21-0.32-0.3-0.48l-0.07-0.13c-0.09-0.16-0.18-0.31-0.27-0.47l-0.08-0.16c-0.08-0.16-0.16-0.31-0.23-0.46l-0.1-0.21-0.02-0.04c-0.06-0.13-0.12-0.26-0.17-0.39l-0.11-0.28c-0.05-0.13-0.1-0.25-0.15-0.38-0.02-0.05-0.03-0.09-0.05-0.13l-0.07-0.21v-0.02c-0.04-0.11-0.08-0.21-0.11-0.32-0.02-0.05-0.03-0.09-0.04-0.14v-0.03l-0.08-0.24v-0.03c-0.04-0.08-0.06-0.17-0.09-0.25-0.02-0.06-0.03-0.13-0.05-0.2l-0.06-0.25c-0.02-0.09-0.05-0.17-0.07-0.26-0.02-0.07-0.03-0.15-0.05-0.22l-0.06-0.28c-0.02-0.08-0.03-0.15-0.05-0.22-0.02-0.1-0.04-0.21-0.05-0.31 0 0-0.07-0.52-0.07-1.11v-0.4h0.01z"/>
</svg>
