<svg width="146.99mm" height="41.534mm" version="1.1" viewBox="0 0 146.99 41.534" xmlns="http://www.w3.org/2000/svg">
 <g transform="matrix(.26458 0 0 .26458 0 .0026458)">
  <path d="m156.62 78.65c0-12.01-8.81-22.1-20.27-24.12 6.68-9.55 5.74-22.49-2.84-31.08-8.27-8.57-21.41-9.52-31.02-2.88-1.89-11.62-12.05-20.58-24.17-20.58s-22.1 8.81-24.12 20.27c-9.55-6.68-22.49-5.74-31.08 2.84-8.71 8.71-9.56 22.19-2.31 31.33-11.73 1.81-20.81 12.02-20.81 24.22s8.83 21.91 20.32 24.05c-6.73 9.56-5.81 22.54 2.79 31.15 8.6 8.3 21.58 9.18 31.14 3.19 2.16 11.3 12.16 19.93 24.05 19.93s22.2-9.17 24.15-20.78c9.39 6.86 22.74 5.98 31.39-2.67 8.51-8.51 9.51-21.3 3.03-30.83 11.21-2.23 19.74-12.19 19.74-24.02z" fill="#7532a8"/>
  <path class="logo_svg__cls-1" d="m61.33 72.59c0.2-2.08 2.06-3.61 4.15-3.61h3.12c1.67 0 2.7-1.88 1.75-3.25-2.01-2.91-5.38-4.8-9.2-4.74-6.07 0.09-10.84 5.29-10.84 11.36v12.27c0 6.06 4.74 11.25 10.79 11.36s11.21-4.85 11.21-11v-3.96c0-2.23-1.81-4.04-4.04-4.04h-2.96c-2.34 0-4.21-2.01-3.98-4.39zm34 0c0.2-2.08 2.06-3.61 4.15-3.61h3.12c1.67 0 2.7-1.88 1.75-3.25-2.01-2.91-5.38-4.8-9.2-4.74-6.07 0.09-10.84 5.29-10.84 11.36v12.27c0 6.06 4.74 11.25 10.79 11.36s11.21-4.85 11.21-11v-3.96c0-2.23-1.81-4.04-4.04-4.04h-2.96c-2.34 0-4.21-2.01-3.98-4.39z" fill="#fff"/>
 </g>
 <path d="m53.195 30.179c-2.1855-2.0944-3.2782-5.0387-3.2782-8.8531 0-2.6003 0.51601-4.897 1.548-6.8801 1.032-1.9932 2.4991-3.5311 4.3911-4.6036 1.892-1.0725 4.0775-1.629 6.5564-1.629 2.0135 0 3.9561 0.36424 5.8279 1.0927l-0.98143 4.6947c-1.6492-0.74872-3.2579-1.1332-4.806-1.1332-2.2057 0-3.9561 0.71837-5.241 2.1652-1.285 1.4469-1.9325 3.3692-1.9325 5.7773 0 2.408 0.6779 4.3608 2.0438 5.7166 1.3558 1.3558 3.2377 2.0438 5.6458 2.0438 1.5784 0 3.1062-0.25296 4.5935-0.76895l0.79931 4.4822c-1.7706 0.6779-3.7841 1.0219-6.0505 1.0219-3.8853 0-6.9206-1.0421-9.1061-3.1365zm19.264-21.602c0.72848-0.02027 2.0843-0.04046 4.0775-0.04046s3.3895 0.0099 4.118 0.04046c2.7723 0.10118 4.8363 0.76895 6.1921 2.0236 1.3558 1.2546 2.0438 2.9342 2.0438 5.0488 0 1.801-0.4553 3.3187-1.3659 4.5733-0.9106 1.2546-2.1753 2.0742-3.8043 2.4586 0.50589 0.41483 1.032 0.98143 1.5683 1.6897 0.53625 0.71837 1.2749 1.8313 2.2259 3.3288 0.99155 1.5784 2.0033 3.2883 3.0252 5.1399h-6.1213l-4.118-7.6491c-0.43507-0.79931-0.82966-1.3052-1.1838-1.5076-0.35415-0.20237-0.88026-0.31365-1.5885-0.31365v9.4703h-5.0589v-24.263zm7.3253 10.745c1.2344 0 2.2158-0.31365 2.9342-0.95108 0.71837-0.6273 1.0725-1.4772 1.0725-2.5497 0-0.97131-0.31365-1.7099-0.95108-2.2259-0.6273-0.50589-1.5581-0.76896-2.7723-0.76896h-2.5497v6.4855h2.2563zm13.224-10.745h14.752v4.5935h-9.5411v4.8464h7.902v4.4417h-7.902v5.7874h9.5411v4.5935h-14.752zm19.305 0c0.70825-0.02027 2.0438-0.04046 4.0067-0.04046 1.9629 0 3.3389 0.0099 4.0471 0.04046 2.4991 0.05059 4.4721 0.71837 5.8987 2.0033 1.4367 1.285 2.145 3.0758 2.145 5.3523 0 1.629-0.36424 3.0657-1.0927 4.3203-0.72849 1.2546-1.7504 2.2158-3.0758 2.8937-1.3254 0.67789-2.8229 1.0219-4.5024 1.0219h-2.3676v8.671h-5.0589zm7.214 11.292c1.1838 0 2.1146-0.34401 2.7824-1.0219 0.66778-0.67789 1.0017-1.5986 1.0017-2.7723 0-2.1349-1.1737-3.2074-3.5311-3.2074h-2.408v6.9914h2.145zm12.708-11.292h14.752v4.5935h-9.5411v4.8464h7.902v4.4417h-7.902v5.7874h9.5411v4.5935h-14.752z" fill="currentColor" stroke-width="1.0118"/>
</svg>
