<svg fill="none" height="41" viewBox="0 0 200 41" width="200" xmlns="http://www.w3.org/2000/svg" xmlns:xlink="http://www.w3.org/1999/xlink"><clipPath id="a"><path d="m0 0h200v40.0314h-200z"/></clipPath><g clip-path="url(#a)" clip-rule="evenodd" fill="#cb192d" fill-rule="evenodd"><path d="m66.393.325004c.636 0 .9539.317175.9539.951856l-.011 13.91504c-.0806.547-.3946.8207-.9429.8207-.6428 0-.9639-.3174-.9639-.9521v-10.79726c-1.9445 4.17897-3.3839 7.28186-4.3189 9.30926l-.0218.0219c-.1755.3283-.4238.4924-.7456.4924-.0876 0-.1826-.0149-.2851-.0439-.263-.0655-.4565-.2188-.5809-.4595l-4.8992-9.41869-.0109 11.26789c-.0588.3862-.2812.58-.6688.58-.4534 0-.6797-.2228-.6797-.6675l.0329-14.26514c.1315-.510443.4165-.765995.8551-.765995.1096 0 .2302.014829.3617.043828.2851.072661.4966.240723.636.503195l5.4582 10.830212 4.9436-10.775345c.1677-.393955.4637-.590851.8873-.590851z"/><path d="m83.6184 1.23307c-.4621 1.23267-1.3496 2.83344-2.6622 4.80231-.1321.20465-.2822.43055-.4511.67837-.6972.99193-1.3605 1.93987-1.9916 2.84431l-.0105 5.63444c-.0808.5464-.3928.8201-.9352.8201-.6311 0-.9463-.3167-.9463-.9514v-4.8686c0-.1969-.187-.594-.5612-1.19197-.2051-.32822-.653-.99242-1.3416-1.99144-.7263-1.05043-1.2726-1.87809-1.6396-2.48313-.6822-1.10843-1.0673-1.7489-1.1554-1.9201-.088-.17186-.2123-.4177-.3734-.73819-.081-.18289-.1217-.34305-.1217-.48146 0-.715117.3521-1.072345 1.0563-1.072345.5133 0 .8512.244688 1.0124.733075l.033.13132c.2641.92619.7113 1.91417 1.3423 2.9646.0363.05866.2124.31735.5276.77691.389.56138.7884 1.12638 1.1993 1.69535.5503.76603.9904 1.34207 1.3204 1.72896 2.2512-2.62615 3.7476-5.14537 4.4881-7.559623.0951-.313563.3009-.470592.6163-.470592.4329 0 .6492.218818.6492.65662 0 .065585-.0183.153075-.0551.262485z"/><path d="m103.372.470947c.682 0 1.024.350143 1.024 1.050433 0 .69254-.342 1.03889-1.024 1.03889-.138 0-.273-.029-.404-.0875-.58-.30647-1.07-.51376-1.47-.62317-.53-.15307-1.401-.22969-2.6137-.22969-.8137 0-1.456.03608-1.9282.10941-.0584.02191-.1051.04696-.1417.07662-.2684.20399-.4178.62679-.4466 1.26859v4.34325h5.8712c.421 0 .631.21503.631.64558 0 .43006-.21.64558-.631.64558h-5.8712v6.64056h-.0109c-.0801.5463-.3884.82-.9253.82-.6179 0-.9261-.3167-.9261-.9514v-13.79509c0-.63471.3082-.952063.9261-.952063z"/><path d="m114.169 9.87412c-.913-2.46491-1.855-4.73118-2.826-6.79862-.577 1.1111-1.182 2.46175-1.818 4.05061-.365.9201-.712 1.83572-1.04 2.74801zm3.965 5.32018c.051.1324.076.2649.076.3974 0 .6987-.346 1.0488-1.04 1.0488-.49 0-.814-.2357-.975-.7065-.379-1.3176-.909-2.9247-1.587-4.8234h-6.551c-.708 2.0895-1.175 3.7123-1.401 4.8675-.088.4415-.355.6624-.8.6624-.555 0-.832-.2799-.832-.839l.033-.2319c.401-1.3538.62-2.0935.657-2.2189.335-.9784.749-2.1038 1.238-3.37717.598-1.61097 1.182-3.06435 1.752-4.35915.27-.6252.562-1.29147.876-1.99796.423-.9344.781-1.64804 1.074-2.14092.394-.669426.697-1.004553.908-1.004553.38 0 .807.485735 1.282 1.457203 2.044 4.20122 3.808 8.62335 5.29 13.26615z"/><path d="m131.992 1.54187c-.402 1.35386-.622 2.09346-.659 2.21814-.336.98581-.746 2.11176-1.23 3.37751-.607 1.60389-1.193 3.05718-1.756 4.35978-.271.6183-.564 1.2839-.879 1.9976-.424.9344-.779 1.6488-1.064 2.1417-.396.6694-.7 1.0039-.912 1.0039-.38 0-.809-.4851-1.285-1.4566-2.042-4.2014-3.806-8.62373-5.292-13.26733-.052-.12468-.077-.25717-.077-.39681 0-.699375.344-1.048813 1.032-1.048813.49 0 .82.235729.988.706523 1.237 4.31909 2.851 8.6056 4.843 12.85833.571-1.089 1.178-2.439 1.822-4.05075 1.494-3.76002 2.449-6.7068 2.867-8.84066v-.01097c.094-.441705.365-.662473.812-.662473.549 0 .823.279949.823.839013z"/><path d="m145.153 13.3624c.808-1.2215 1.213-2.8216 1.213-4.80086 0-2.11957-.466-3.80076-1.4-5.0444-.939-1.25063-2.203-1.87603-3.792-1.87603-1.246 0-2.285.34944-3.116 1.04815-.743.6254-1.296 1.48636-1.661 2.58321-.328.97866-.492 2.07468-.492 3.28907 0 2.07486.474 3.74176 1.421 4.99956.941 1.2586 2.19 1.8878 3.75 1.8878 1.785 0 3.144-.6956 4.077-2.0865zm1.278-10.64006c1.385 1.50132 2.078 3.4475 2.078 5.8392 0 2.36896-.689 4.30796-2.067 5.81646-1.377 1.5086-3.148 2.2625-5.312 2.2625-2.15 0-3.917-.7579-5.302-2.2735-1.384-1.5156-2.076-3.4508-2.076-5.80546 0-2.36245.685-4.30081 2.055-5.81709 1.37-1.51561 3.126-2.273503 5.269-2.273503 2.186 0 3.971.750743 5.355 2.251393z"/><path d="m153.319 8.98637c.853 0 1.621-.03279 2.305-.09853 1.411-.13907 2.499-.41968 3.264-.84249 1.022-.57604 1.533-1.50223 1.533-2.77857 0-1.0435-.279-1.8532-.838-2.42924-.743-.75104-1.978-1.12639-3.705-1.12639-.934 0-1.552.08766-1.853.26265-.463.26973-.699.86061-.706 1.77197zm8.392 4.18953.717 1.5975c.066.1461.099.2914.099.4376 0 .7364-.375 1.1051-1.125 1.1051-.558 0-.919-.2664-1.081-.7988-.764-2.4291-1.639-4.3104-2.624-5.64527-.574.10941-1.198.19377-1.874.25157l-2.504.0986-.011 5.2842c-.081.5471-.408.8201-.981.8201-.662 0-.993-.3167-.993-.9514v-13.79511c0-.634707.331-.95206.993-.95206h3.606c2.132 0 3.8.43055 5.006 1.29116 1.132.79487 1.698 1.78993 1.698 2.98651 0 1.7578-.588 3.02639-1.764 3.80725-.353.24073-.739.49234-1.158.75433.36.51805.687 1.05042.981 1.59752.155.2845.493.9879 1.015 2.1112z"/><path d="m167.504.313965c.628 0 .942.327327.942.982485v14.33755h-.011c-.074.5664-.385.8495-.931.8495-.628 0-.942-.3273-.942-.982v-14.20505c0-.655158.314-.982485.942-.982485z"/><path d="m183.738.470947c.69 0 1.034.350143 1.034 1.050433 0 .69962-.344 1.04976-1.034 1.04976-.146 0-.282-.029-.406-.08683-.594-.31406-1.09-.5253-1.485-.63471-.381-.10232-.939-.17185-1.672-.20778-.307.03593-.498.10546-.572.20778-.109.1455-.164.54656-.164 1.20301l-.023 12.29689c-.073.5463-.381.82-.923.82-.631 0-.946-.3167-.946-.9514v-12.65783c-.015-.23299-.033-.39397-.055-.48081-.066-.23365-.308-.37585-.726-.42676-.711.029-1.253.09458-1.627.1969-.396.10941-.891.32065-1.485.63471-.125.05783-.26.08683-.407.08683-.689 0-1.034-.35014-1.034-1.04976 0-.70029.345-1.050433 1.034-1.050433z"/><path d="m198.958 13.9779c.695 0 1.042.3393 1.042 1.0177 0 .6783-.347 1.017-1.042 1.017h-9.116c-.652 0-.977-.3167-.977-.9514l-.011-13.79518c0-.634702.325-.952055.977-.952055h8.359c.717 0 1.075.350143 1.075 1.050425 0 .69963-.358 1.04977-1.075 1.04977-.146 0-.289-.029-.428-.08683-.614-.31406-1.13-.5253-1.547-.63471-.555-.14599-1.473-.21882-2.753-.21882-.856 0-1.533.03279-2.029.09854-.059.029-.11.05783-.154.08683-.271.18999-.425.57671-.461 1.15984v4.00415h6.461c.439 0 .659.21503.659.64558 0 .42989-.22.64558-.659.64558h-6.461l.011 5.03198c.022.6418.124 1.0613.307 1.2584.205.2407.68.361 1.426.361h2.381c1.601 0 2.79-.2297 3.565-.6892.146-.0658.296-.0986.45-.0986z"/><path d="m82.8582 21.821c.4389 0 .6583.2181.6583.6555v9.011c0 1.8008-.4717 3.2625-1.4146 4.3845-1.0095 1.2031-2.5784 1.8046-4.7062 1.8046-2.2014 0-3.7774-.6453-4.728-1.9352-.7679-1.05-1.1772-2.6101-1.2281-4.6805l-.011-8.2891c0-.6265.3071-.9406.9209-.9406.6215 0 .9326.3141.9326.9406v8.5625c.0729 1.1883.2743 2.1579.6034 2.9088.3731.8381.9107 1.432 1.6128 1.782.5479.2774 1.2321.4156 2.051.4156.8701 0 1.5903-.1236 2.1607-.3718.7171-.3134 1.2689-.8274 1.6567-1.5416.5409-1.028.819-2.1546.8332-3.3788v-8.672c0-.4374.2195-.6555.6583-.6555z"/><path d="m89.4817 21.1931c.628 0 .9421.3271.9421.9818v14.3377h-.011c-.0743.5669-.3841.85-.9311.85-.628 0-.9417-.3271-.9417-.9825v-14.2052c0-.6547.3137-.9818.9417-.9818z"/><path d="m104.931 34.9422c.69 0 1.034.3512 1.034 1.0529 0 .7024-.344 1.0536-1.034 1.0536h-8.547c-.6245 0-.9366-.3183-.9366-.9548v-13.9461c0-.6359.3121-.9547.9366-.9547.6246 0 .9365.3188.9365.9547l.0109 12.0481c0 .7463.1198 1.1995.3594 1.3603.319.2194 1.2267.3292 2.7222.3292 1.219 0 2.097-.0729 2.635-.2195.399-.1097.892-.3214 1.481-.6359.13-.0587.264-.0878.402-.0878z"/><path d="m117.805 21.1931c.689 0 1.033.3501 1.033 1.0498 0 .7003-.344 1.0504-1.033 1.0504-.147 0-.282-.029-.407-.0875-.594-.3136-1.089-.5253-1.485-.6347-.381-.1023-.938-.1712-1.671-.2079-.308.0367-.499.1056-.572.2079-.11.1462-.165.547-.165 1.2037l-.022 12.2963c-.073.547-.381.8206-.924.8206-.63 0-.946-.3174-.946-.9519v-12.6575c-.014-.2337-.032-.3938-.055-.4813-.065-.233-.307-.3761-.725-.4268-.711.0295-1.254.0946-1.628.1969-.396.1094-.891.3211-1.485.6347-.124.0585-.26.0875-.407.0875-.689 0-1.034-.3501-1.034-1.0504 0-.6997.345-1.0498 1.034-1.0498z"/><path d="m140.874 29.4401c.903.7137 1.355 1.7292 1.355 3.0462 0 1.1552-.357 2.1488-1.071 2.9807-.59.6838-1.374 1.2136-2.35 1.589-.802.3092-1.563.4636-2.285.4636-1.247 0-2.332-.2467-3.258-.7396-.743-.3897-1.337-.9163-1.782-1.578-.372-.5447-.557-1.0338-.557-1.4682 0-.2358.065-.4337.196-.5962.132-.1689.288-.2538.471-.2538.167 0 .32.107.459.32.218.3754.452.7729.7 1.1923.48.6625 1.03 1.1482 1.65 1.4566.619.3169 1.334.4746 2.143.4746 1.181 0 2.153-.3052 2.919-.9155.765-.6111 1.148-1.3871 1.148-2.3294 0-.8682-.314-1.5558-.941-2.0637-.459-.3682-1.104-.6404-1.935-.8169-.502-.0813-.972-.1578-1.41-.2319-.437-.0733-.758-.1363-.962-.1877-.204-.0512-.477-.1285-.82-.2317-.947-.2943-1.672-.7468-2.175-1.3579-.532-.6397-.798-1.4417-.798-2.406 0-1.2286.43-2.2586 1.29-3.0905.925-.8973 2.164-1.346 3.717-1.346.488 0 .98.044 1.475.1325.496.0876.944.2058 1.345.3532.459.1688.875.4266 1.246.7721.211.1695.317.3903.317.6623 0 .567-.281.8501-.841.8501-.219 0-.412-.0773-.58-.2319-.802-.5961-1.214-.9013-1.235-.9163-.656-.3455-1.341-.5188-2.055-.5188-.882 0-1.597.2468-2.143.7397-.546.4928-.82 1.1403-.82 1.9422 0 .8027.241 1.4059.722 1.8106.437.3825 1.22.7025 2.35.9604l.536.1325c.328.0663.525.1103.59.1325 1.516.2721 2.646.6948 3.389 1.2689z"/><path d="m155.953 21.664c.689 0 1.033.3502 1.033 1.0498 0 .7003-.344 1.0505-1.033 1.0505-.147 0-.283-.0291-.407-.0875-.594-.3136-1.089-.5253-1.485-.6348-.381-.1023-.939-.1712-1.672-.2079-.308.0367-.499.1056-.572.2079-.11.1462-.165.5471-.165 1.2037l-.022 12.2963c-.073.5471-.381.8206-.924.8206-.631 0-.946-.3173-.946-.9519v-12.6575c-.014-.2336-.033-.3938-.055-.4813-.066-.233-.308-.376-.726-.4268-.711.0295-1.253.0946-1.627.1969-.396.1095-.891.3212-1.484.6348-.126.0584-.261.0875-.407.0875-.689 0-1.034-.3502-1.034-1.0505 0-.6996.345-1.0498 1.034-1.0498z"/><path d="m168.387 34.0847c.809-1.2216 1.213-2.8223 1.213-4.8016 0-2.1189-.466-3.8003-1.399-5.0438-.94-1.2513-2.205-1.8767-3.793-1.8767-1.246 0-2.284.3493-3.115 1.0487-.744.6254-1.297 1.4865-1.662 2.5827-.327.9785-.491 2.0754-.491 3.2891 0 2.0754.473 3.7418 1.42 5.0002.94 1.2578 2.19 1.887 3.75 1.887 1.785 0 3.144-.6947 4.077-2.0856zm1.279-10.6402c1.384 1.5013 2.077 3.4475 2.077 5.8386 0 2.3696-.689 4.3087-2.067 5.8171-1.377 1.5079-3.148 2.2624-5.312 2.2624-2.15 0-3.917-.7577-5.301-2.2733-1.385-1.5165-2.077-3.4516-2.077-5.8062 0-2.3618.685-4.3009 2.055-5.8167 1.37-1.5156 3.126-2.2733 5.269-2.2733 2.186 0 3.971.7499 5.356 2.2514z"/><path d="m176.553 29.7078c.853 0 1.621-.0328 2.305-.0984 1.412-.1384 2.5-.419 3.264-.8427 1.022-.576 1.533-1.5022 1.533-2.7786 0-1.0426-.28-1.8523-.838-2.4284-.743-.7512-1.978-1.1271-3.705-1.1271-.934 0-1.552.0875-1.853.2627-.463.2697-.698.8606-.706 1.7726zm8.392 4.1902.717 1.597c.066.146.099.2921.099.4376 0 .7369-.375 1.1052-1.124 1.1052-.56 0-.92-.2665-1.081-.7988-.765-2.4285-1.64-4.3106-2.625-5.6449-.573.1094-1.198.1931-1.875.2518l-2.503.0983-.01 5.2839c-.082.547-.409.8206-.982.8206-.662 0-.993-.3174-.993-.952v-13.7954c0-.6345.331-.9512.993-.9512h3.606c2.132 0 3.8.4299 5.006 1.2905 1.132.7949 1.698 1.7906 1.698 2.9865 0 1.7578-.588 3.0271-1.764 3.8071-.353.2408-.739.4926-1.158.755.36.5183.687 1.0505.982 1.5977.154.2837.492.988 1.014 2.1111z"/><path d="m198.958 35.0142c.695 0 1.042.3384 1.042 1.0168 0 .6785-.347 1.0177-1.042 1.0177h-9.117c-.651 0-.976-.3174-.976-.952l-.011-13.7954c0-.6345.325-.9512.976-.9512h8.36c.717 0 1.075.3501 1.075 1.0497 0 .7003-.358 1.0505-1.075 1.0505-.146 0-.289-.029-.428-.0875-.614-.3136-1.13-.5253-1.547-.6347-.556-.1462-1.474-.2188-2.754-.2188-.856 0-1.532.0327-2.029.0985-.059.0288-.11.0585-.154.0875-.27.1898-.424.576-.46 1.1598v4.0042h6.461c.439 0 .659.2149.659.6456 0 .4299-.22.6449-.659.6449h-6.461l.01 5.0328c.022.6416.125 1.0606.308 1.2575.204.2408.68.3612 1.425.3612h2.382c1.601 0 2.79-.2299 3.565-.6887.146-.0656.296-.0984.45-.0984z"/><path d="m61.972 36.0849c-.183-.3219-.3216-.6625-.4169-1.0205-.022-.0813-.0878-.4012-.1967-.9643-.0149-.1109-.0315-.213-.0508-.3038 1.0377-.4341 1.9697-1.0787 2.7896-1.9288.2249.0213.4429.0311.6523.0311.3003 0 .5819-.0213.8463-.0679-.0909.4064-.2063.7864-.348 1.1399-.3289.8553-.8071 1.552-1.4356 2.0938-.5181.4458-1.1324.7857-1.8402 1.0205zm-5.1268-1.6565c-.0046-.0064-.0097-.0129-.0148-.0193.348.0329.6884.0477 1.0229.0477.8767 0 1.7048-.109 2.4822-.3251.0115.2426.0457.4998.1018.7688.0812.3567.2198.8108.4178 1.3593-1.7179 0-3.054-.6091-4.0099-1.8314zm-1.1667-2.5016c.0632-.0031.127-.0082.1882-.0135 1.1422-.0826 3.1636-.2258 3.9853-1.1043 1.11.3916 2.1826.7114 3.1617.9018-1.7707 1.5701-4.0531 2.1661-6.7841 1.7468-.2327-.4638-.417-.9741-.5511-1.5308zm-.2687-2.4756c0-.1432.0019-.2851.0065-.4238.063.0264.1255.0542.1881.0806.5067.218 1.0197.4361 1.5327.649.0085.0031.0169.0064.0233.0096.7457.3078 1.4953.6063 2.2308.8773-.7914.6392-2.6105.7662-3.5553.8341-.0909.0064-.1721.0116-.2475.016-.1206-.6275-.1786-1.3075-.1786-2.0428zm.3629-2.946c1.9473-.4237 3.2884-1.2281 4.1895-2.0189.3185.3895.6634.8037 1.0198 1.2216-.9191 1.3475-2.0903 2.7977-3.1861 3.3788-.696-.2844-1.3284-.5567-1.848-.7797-.1701-.0744-.3267-.1401-.4704-.2013.0579-.5729.1566-1.1063.2952-1.6005zm1.0067-2.1086c.5267-.7096 1.1603-1.2165 1.904-1.5204.2593.3348.6028.7709.9934 1.2578-.8186.7238-2.0227 1.4669-3.7508 1.8893.2166-.6108.5003-1.1526.8534-1.6267zm3.7572-1.8624c.1586 0 .3132.0047.4634.0182-.1843.3167-.5026.7811-1.0016 1.2778-.2965-.3651-.5904-.7367-.8792-1.1062.437-.1272.9109-.1898 1.4174-.1898zm2.1219.4259c-.1069.198-.6536 1.2055-1.4174 2.3627-.3152-.3676-.6348-.7495-.9553-1.1391.6401-.6341 1.0082-1.2289 1.1899-1.5771.4223.0696.8166.1871 1.1828.3535zm1.975 1.7552c.5413.8326.8997 1.8118 1.0763 2.9427-.2016.5005-.4208.9695-.6567 1.4067-.6472-.3018-2.013-1.6706-3.52-3.4032.8386-1.2578 1.4226-2.3511 1.5135-2.5014.6201.3598 1.1486.8785 1.5869 1.5552zm-3.7784 5.5107c-.8716-.2826-1.7474-.6128-2.5589-.936.6644-.4361 1.3309-1.1147 1.9452-1.8662.0329.7032.1566 1.9055.6137 2.8022zm-.1515-3.3653h-.0188c.205-.271.401-.5451.5879-.8141 1.2904 1.4829 2.6879 2.926 3.5838 3.3684-.3333.5697-.6981 1.0818-1.0926 1.5359-.6845-.0974-1.4406-.2792-2.2159-.5089-.7323-.8896-.8663-2.7853-.8444-3.5813zm5.0508 4.0374c-.2708.0845-.586.1258-.936.1289.37-.4792.7078-1.0075 1.0198-1.5854-.0013.5121-.0297.999-.0838 1.4565zm1.739 7.4889c-.2198-.1026-.7097-.1534-1.4683-.1534-.994 0-1.7281-.1026-2.2012-.3077-.2707-.1251-.5994-.3941-.9869-.8109 3.4253-1.4545 5.1379-3.9644 5.1379-7.5316 0-1.7913-.3822-3.3439-1.15-4.6599-.6729-1.1623-1.5984-2.0659-2.7838-2.7078-1.0655-.5767-2.2044-.8656-3.4168-.8656-2.1471 0-3.9221.7662-5.3235 2.3021-1.3891 1.5275-2.0826 3.4678-2.0826 5.8209 0 1.9668.4313 3.6001 1.2923 4.9012.7246 1.0816 1.7211 1.8886 2.9915 2.4221 1.03.4328 2.1471.6477 3.3531.6477l.6665-.033c.7676.9708 1.5893 1.6708 2.4654 2.0938.7077.3496 1.4715.5265 2.2901.5265 1.0364 0 1.556-.3303 1.556-.987 0-.3354-.1135-.5554-.3397-.6574z"/><path d="m36.4835 25.1999c.2736-1.99.1187-3.7028-.1726-5.0622.6907-1.8686 1.0061-3.26 1.1466-4.0522.7211.0807 1.4466.185 2.1705.3196-.1943 3.0034-1.2798 5.9862-3.1445 8.7948zm-1.8951-9.3327c.6639.0234 1.3352.0658 2.011.1277-.1096.5803-.3159 1.4883-.6947 2.669-.4142-1.2305-.9261-2.178-1.3163-2.7967zm.6873 10.991-.0029.0029c-1.5739 1.9797-3.5467 3.8524-5.8764 5.5623-.0663-.0396-.1292-.0865-.2005-.1346 3.3827-4.2338 5.3587-7.9441 6.4922-10.585.1549 1.443.1007 3.1821-.4124 5.1544zm-8.5416 3.6823s-.0057 0-.0057-.003c1.9452-2.6802 3.1313-5.4419 3.8437-7.6839.1828-.5677.3376-1.1206.4753-1.6423v-.0063c1.3071-2.1557 2.1835-4.0162 2.6543-5.1074.4622.6861 1.2375 2.038 1.6968 3.9107.0028.0223.0057.0367.0085.0544v.0057c-1.1111 2.9403-3.1649 7.0379-6.9151 11.7213-.5805-.409-1.1655-.8207-1.7578-1.2492zm-.632 4.0459c0 .0046-.0102.0046-.0102.0046-.6696.3873-1.426.9457-2.1408 1.3141 0 0-.9186.547-3.0599.3167.0955-.063.1885-.1249.2811-.1908 1.8413-1.2888 3.3593-2.7496 4.6111-4.2675 0 .0028.0028.0028.0028.0028.5896.3975 1.1832.7864 1.7614 1.1646h.0029c-.4623.547-.9422 1.0999-1.4484 1.6555zm-7.014 1.2688c-.885-.2641-1.8927-.6674-3.0307-1.2745 2.8434-1.0162 5.3297-2.572 7.4636-4.3714.3993.2738.793.547 1.1889.8152 0 0 .0028 0 .0028.0028-1.1654 1.4024-2.5754 2.7496-4.278 3.9423-.4341.3048-.8815.601-1.3466.8856zm-4.0179-1.8273c2.6297-1.022 5.0708-2.5944 7.2556-4.6618.3159.2212.6249.4429.941.6611 0 0 .0067 0 .0067.0028-2.1583 1.8056-4.6772 3.3643-7.5658 4.3627-.2074-.1157-.4222-.2389-.6375-.3648zm-2.5624-4.1812c1.486.4228 3.048.7659 4.5003 1.0225-.721.4222-1.4844.7975-2.2858 1.1308-.8119-.5958-1.5471-1.3215-2.2145-2.1533zm.6845 2.706c-.0835.0264-.1669.0528-.2497.0775-.1875-.1376-.3823-.2785-.5753-.4252-.8318-.6248-1.7168-1.3415-2.64974-2.1601-.68331-.598-1.30607-1.2699-1.87222-2.0061.92433.515 2.04187.9721 3.25536 1.3754.8193 1.1835 1.7099 2.166 2.6737 2.9432-.1885.0688-.3816.1352-.5821.1953zm-6.25535-6.5754c-.24396-.1644-.48952-.326-.73128-.4991-.00278 0-.00278-.0057-.00278-.0057-1.85905-3.5177-2.68525-7.7705-2.38133-11.6028.44169.6101 1.29641 1.5077 2.4704 2.6225.08059.409.16849.8237.26048 1.239.8787 4.0075 2.03559 7.31 3.45766 9.9016-.59134-.2389-1.12488-.4871-1.58822-.7494-.42458-.2393-.86159-.5029-1.30036-.7859zm-1.75053-17.52779c.10238 1.21614.26911 2.90829.5543 4.84109l-.00292-.0029c-.64323-.7086-1.1718-1.3449-1.54885-1.9007.23548-1.0425.56908-2.03518.99747-2.93749zm15.48088 19.70679c-.6348.5905-1.3163 1.1468-2.0413 1.6669-2.3607-.3489-5.0722-.9439-7.3323-1.7093-1.87494-3.0549-3.09866-6.957-3.9019-10.6055 3.2381 2.9312 8.1235 6.8934 13.2755 10.6479zm-12.91103-23.03669c.29822 1.56618 1.00434 4.3903 2.60453 7.45949 2.1018 4.0374 6.1822 9.2377 13.7892 11.6075-.6713.9382-1.4306 1.8829-2.2801 2.7862h-.0029c-5.8398-4.3788-11.5719-9.0646-15.06709-12.5853-.00351-.0028-.00351-.0028-.00629-.0085-.55139-3.2938-.76038-6.05267-.83468-7.27849.50721-.75494 1.1054-1.42526 1.79733-1.9809zm10.26523-.80362c.0035 0 .0092.00572.0149.00572.0057.00572.0114.00572.0177.0085.6918.36266 1.7459 1.03401 3.0873 1.86285-5.0372.46355-9.3077 1.18637-10.6719 1.43098-.53432-1.67896-.76964-3.00332-.85886-3.61058 2.16316-.91654 4.95966-.95599 8.41086.30253zm18.6607 2.04381c-3.7757-.7108-8.5982-.67414-13.0955-.36486-.8616-.51326-1.61-.99441-2.2332-1.41206 2.8547-1.56325 10.5011-4.830673 15.3287 1.77692zm.8896 1.51808c-2.1442.75098-4.29 1.36103-6.3826 1.85083-2.0356-.7831-3.8947-1.67324-5.5109-2.54285 4.2927-.21601 8.6554-.11453 11.8935.69202zm1.663 4.01382c-1.691-.2452-3.3393-.625-4.9127-1.0913 1.3747-.3694 2.7509-.7916 4.1284-1.26996.3279.78026.5895 1.56916.7843 2.36126zm-27.9582-2.08219c-.1376-.31969-.2587-.63997-.3758-.94748 1.6961-.29623 6.65-1.09985 12.1523-1.51516 1.5619.92564 3.3741 1.92987 5.3789 2.87443-7.7545-.95893-15.8379-.49553-17.1554-.41179zm16.5298.63009c-7.8144 1.4492-14.2439 1.3713-15.5997 1.3364-.012-.0177-.0223-.0401-.0337-.0573-.285-.5442-.537-1.0827-.7649-1.6017.7095-.0451 8.6102-.56764 16.3983.3226zm-8.3092 9.4162h-.0039c-.7274-.4646-1.4186-.9737-2.071-1.5266 1.8264-.5704 4.3904-1.2607 7.3887-1.7682-1.0997.8724-2.8343 2.0708-5.3138 3.2948zm7.6391-3.6398c.3993-.0498.8044-.095 1.2157-.1409-.4565 1.3129-1.4221 3.7367-3.0394 6.3632-1.6105-.4571-3.1061-1.0569-4.4899-1.8051 3.8215-1.9957 5.7565-3.8334 6.3136-4.4172zm1.1773 8.9632c-.6507 1.4769-1.5076 3.0544-2.6326 4.6016-.2239-.1551-.446-.3224-.6758-.4898-.08-.0526-.1679-.1157-.2485-.1815 1.3352-1.2556 2.5229-2.5973 3.5569-3.9303zm-3.7979 3.7509-.0029-.0027c-.3366-.2389-.6788-.4881-1.017-.7447 1.1512-1.2351 2.219-2.615 3.1988-4.1416 2.3755-3.6967 3.509-7.0918 3.8278-8.1355h.0028c.032 0 .0601-.0034.0949-.0034-.0743 1.1119-.3393 3.6254-1.29 6.6025-.1635.504-.3497 1.0362-.5628 1.5861 0 0 0 .0063-.0045.0063-1.1946 1.6263-2.599 3.2875-4.2471 4.833zm8.9666-13.0909c-.3902.9211-1.1158 2.502-2.1966 4.3787.4461-2.0044.5896-3.5791.6289-4.3655.5148-.0132 1.0399-.0162 1.5677-.0132zm6.0714-2.1631c.0599.4755.089.9446.1004 1.4166-9.5677-1.6527-19.0788.8403-23.3436 2.2352-1.1569-1.1233-2.1882-2.3932-3.0931-3.8099h.164c2.9617 0 10.1424-.2217 18.0563-2.0061 2.5274.9899 5.2697 1.7907 8.116 2.1642zm-.015-7.80889c-2.8913-4.86-6.8881-5.9478264-10.564-5.741055-.0143.002933-.0263.002933-.0405.002933-4.6351.60433-8.4863 3.098492-8.4863 3.098492-.1766-.07743-.3405-.16732-.5074-.2361-.2044.11746-.3479.21264-.437.27555-.0629.03563-.0937.06027-.0937.06027-.1274-.06599-.2501-.12318-.3657-.1685l-.0028-.00572c-3.2736-1.53582-6.0987-2.694038-8.4948-2.601797h-.0308c-13.20923.546987-13.33838 23.172917-3.43996 31.863417.84726.7465 1.66775 1.4224 2.4413 2.0296.49876.3787.97586.7378 1.44366 1.0689 5.8239 4.1605 9.5106 4.4258 11.3885 4.1091.0092-.0087.0149-.0087.0234-.0087 1.0078-.173 1.482-.5219 1.482-.5219 2.4407-1.2642 4.667-2.6544 6.6649-4.1491.0292-.0262.0715-.0566.1034-.0802.3731-.276.7273-.5561 1.0855-.8523.0057 0 .0234-.0144.0292-.0207h.0028c.7969-.6363 1.5357-1.2946 2.2424-1.963l.0029-.0035c.0376-.0394.0742-.0658.1154-.1169l.0057-.0063c8.0635-7.7224 10.5583-17.405 5.4319-26.03249zm-19.5982-2.87573c-.2044.11746-.3479.21264-.437.27555-.0629.03563-.0937.06027-.0937.06027-.1274-.06599-.2501-.12318-.3657-.1685l-.0028-.00572c-3.2736-1.53582-6.0987-2.694038-8.4948-2.601797 2.5772-.341393 5.6954.732057 9.394 2.440197zm0 0c.1669.06936.3308.15867.5074.2361 0 0 3.8512-2.494162 8.4863-3.098492-4.0426.238887-7.6819 2.058772-8.9937 2.862392zm20.6381 2.78349c-3.1651-5.329126-7.6579-6.150492-11.6039-5.648815 3.6759-.2067714 7.6727.881055 10.564 5.741055 5.1264 8.62749 2.6316 18.31009-5.4319 26.03249l-.0057.0063c-.0412.0511-.0778.0775-.1154.1169l-.0029.0035c-.7067.6684-1.4455 1.3267-2.2424 1.963h-.0028c-.0058.0063-.0235.0207-.0292.0207-.3582.2962-.7124.5763-1.0855.8523-.0319.0236-.0742.054-.1034.0802-1.9979 1.4947-4.2242 2.8849-6.6649 4.1491 0 0-.4742.3489-1.482.5219 1.7203-.0384 2.519-.6187 2.519-.6187 2.2052-1.144 4.2351-2.3905 6.0839-3.7263h.0028v-.0029c.0177-.012.0354-.0235.056-.0355.0303-.0217.0572-.0424.0863-.0658.077-.0544.1519-.1118.2296-.1701.1286-.094.2571-.1891.3845-.2847.152-.1158.3039-.2361.4565-.3563 10.3515-8.0656 14.0988-18.9833 8.3874-28.57833z"/></g></svg>