<svg xmlns="http://www.w3.org/2000/svg" viewBox="0 0 178.84 55.522">
  <defs>
    <style>
      .a {
        fill: #00204f;
      }
    </style>
  </defs>
  <path class="a" d="M27.761,0A27.761,27.761,0,1,0,55.522,27.761,27.793,27.793,0,0,0,27.761,0Zm0,52.262a24.5,24.5,0,1,1,24.5-24.5A24.529,24.529,0,0,1,27.761,52.262Zm-5.543-8.536H35.3L22.218,28.358Zm5.9-30.856h-5.9V27.242h5.9a7.186,7.186,0,1,0,0-14.372Zm75.168,22.755a1.825,1.825,0,0,0-1.239.656A6.35,6.35,0,0,1,97.2,38.467a6.762,6.762,0,0,1-6.668-6.959,6.762,6.762,0,0,1,6.668-6.96,5.551,5.551,0,0,1,3.5,1.166l-3.844,4.245a1.23,1.23,0,0,0-.328.911,1.37,1.37,0,0,0,2.405.838l4.646-5.3a1.468,1.468,0,0,0-.074-2.223,9.326,9.326,0,0,0-6.3-2.332,9.656,9.656,0,0,0,0,19.312,9.22,9.22,0,0,0,7.105-3.17,1.7,1.7,0,0,0,.438-.984A1.38,1.38,0,0,0,103.286,35.625ZM117.543,22.01a9.019,9.019,0,0,0-6.622,2.833,10.116,10.116,0,0,0-1.843,2.566,9.363,9.363,0,0,0-.99,4.172v14.4a1.406,1.406,0,0,0,1.416,1.452,1.428,1.428,0,0,0,1.417-1.452V37.947a8.885,8.885,0,0,0,6.622,2.833,9.156,9.156,0,0,0,9.173-9.385A9.156,9.156,0,0,0,117.543,22.01Zm-.177,16.149a6.5,6.5,0,0,1-6.445-6.481v-.566a6.466,6.466,0,1,1,12.926.283A6.55,6.55,0,0,1,117.366,38.159ZM139.83,22.01a9.385,9.385,0,0,0,0,18.77,9.208,9.208,0,0,0,9.314-9.385A9.209,9.209,0,0,0,139.83,22.01Zm0,16.149a6.593,6.593,0,0,1-6.481-6.764,6.47,6.47,0,1,1,12.926,0A6.565,6.565,0,0,1,139.83,38.159Zm38.292-10.041a10.174,10.174,0,0,0-2.116-3.275A9.17,9.17,0,0,0,160.211,31.4a9.156,9.156,0,0,0,9.173,9.385,8.942,8.942,0,0,0,6.622-2.833v1.31a1.429,1.429,0,0,0,1.417,1.452,1.407,1.407,0,0,0,1.417-1.452V31.581A10.176,10.176,0,0,0,178.122,28.118Zm-2.116,3.56A6.466,6.466,0,1,1,163.08,31.4a6.466,6.466,0,1,1,12.926-.283ZM158.27,22.15a4.873,4.873,0,0,0-3.208.735,4.992,4.992,0,0,0-2.182,3.663l-.006.067V39.3a1.415,1.415,0,1,0,2.829,0V26.761a2.183,2.183,0,0,1,.9-1.5,2.076,2.076,0,0,1,1.336-.3,1.414,1.414,0,1,0,.331-2.809ZM77.577,28.959l.732-.037A6.319,6.319,0,0,0,83.8,22.369c0-4.063-3.038-7.322-7.688-7.322h-5.93a1.547,1.547,0,0,0-1.538,1.538V39.393a1.556,1.556,0,1,0,3.112,0V17.939H76a4.414,4.414,0,1,1,0,8.823H74.794A1.4,1.4,0,0,0,73.4,28.19a1.927,1.927,0,0,0,.476,1.208l9.226,10.983a1.489,1.489,0,0,0,1.208.586,1.547,1.547,0,0,0,1.538-1.537,1.424,1.424,0,0,0-.366-1.025Z"/>
</svg>
