<?xml version="1.0" encoding="utf-8"?>
<svg viewBox="0 0 512 512" width="512" height="512" xmlns="http://www.w3.org/2000/svg">
  <defs>
    <linearGradient id="paint1_linear" x1="194.651" y1="8.81818" x2="236.076" y2="292.989" gradientUnits="userSpaceOnUse" gradientTransform="matrix(1.217517, 0, 0, 1.217517, -20.691875, 43.730177)">
      <stop stop-color="#FFEA83"/>
      <stop offset="0.0833" stop-color="#FFDD35"/>
      <stop offset="1" stop-color="#FFA800"/>
    </linearGradient>
  </defs>
  <g stroke-width="2.00" fill="none" stroke-linecap="butt">
    <path stroke="#e46a54" vector-effect="non-scaling-stroke" d=" M 60.56 0.00 Q 59.95 0.60 57.56 2.31 Q 54.85 4.26 54.63 8.01 Q 54.17 16.00 54.14 24.00 Q 54.00 61.00 54.02 98.00 Q 54.02 106.05 61.25 109.21"/>
    <path stroke="#d65848" vector-effect="non-scaling-stroke" d=" M 61.25 109.21 L 54.25 109.79"/>
    <path stroke="#cf5144" vector-effect="non-scaling-stroke" d=" M 54.25 109.79 Q 43.89 109.55 10.25 109.50 Q 2.47 109.49 0.00 101.94"/>
    <path stroke="#dd604d" vector-effect="non-scaling-stroke" d=" M 101.78 0.04 Q 105.60 2.73 106.69 4.81 Q 108.48 8.25 108.35 13.47 Q 108.26 16.98 108.26 17.02 Q 108.42 57.16 108.03 97.30 Q 107.99 102.00 106.94 104.01 Q 105.22 107.31 101.18 108.52 Q 98.78 109.24 94.00 109.25 Q 77.63 109.28 61.25 109.21"/>
    <path stroke="#d65848" vector-effect="non-scaling-stroke" d=" M 140.56 0.00 Q 135.96 3.08 135.07 7.95 Q 135.00 8.36 135.00 17.06 Q 135.00 55.52 135.00 93.99 Q 135.00 100.69 135.13 101.49 Q 135.87 105.99 139.60 108.04 Q 142.25 109.49 149.15 109.47 Q 163.70 109.43 178.25 109.82 Q 187.27 110.06 196.25 109.21"/>
    <path stroke="#dd604d" vector-effect="non-scaling-stroke" d=" M 196.25 109.21 Q 277.75 109.28 359.25 109.25 Q 367.45 109.25 368.72 109.02 Q 374.83 107.91 376.45 102.33 Q 377.00 100.45 377.00 90.12 Q 377.01 52.31 377.18 14.50 Q 377.21 9.14 376.00 5.75 Q 374.58 1.76 369.80 0.03"/>
    <path stroke="#d65848" vector-effect="non-scaling-stroke" d=" M 410.58 0.02 Q 406.22 2.08 404.81 5.06 Q 403.63 7.58 403.70 11.94 Q 403.75 14.46 403.74 14.55 Q 403.58 56.88 403.97 99.21 Q 404.01 102.95 405.30 104.99 Q 408.04 109.31 413.75 109.50 Q 423.27 109.82 448.92 109.59 Q 448.96 109.59 455.96 109.73 Q 460.61 109.83 465.25 109.21"/>
    <path stroke="#dd604d" vector-effect="non-scaling-stroke" d=" M 465.25 109.21 Q 481.25 109.28 497.25 109.46 Q 501.39 109.50 504.75 108.75 Q 511.18 107.31 511.25 100.63 A 0.37 0.23 -3.7 0 1 511.59 100.39 Q 511.80 100.37 512.00 100.06"/>
    <path stroke="#dd604d" vector-effect="non-scaling-stroke" d=" M 512.00 142.31 Q 510.68 136.45 504.88 135.05 Q 501.54 134.25 494.75 134.25 Q 412.62 134.25 330.51 134.25"/>
    <path stroke="#d65848" vector-effect="non-scaling-stroke" d=" M 330.51 134.25 Q 308.59 133.86 286.67 133.97 Q 279.01 134.01 277.85 134.22 Q 272.21 135.25 270.61 140.34 Q 270.00 142.29 270.00 151.71 Q 270.00 192.98 270.00 234.25 Q 270.00 239.75 274.06 241.94 Q 277.88 243.99 282.25 244.04 Q 306.26 244.31 330.25 243.58"/>
    <path stroke="#dd604d" vector-effect="non-scaling-stroke" d=" M 330.25 243.58 Q 414.08 243.49 497.91 243.44 Q 504.10 243.44 506.34 242.46 Q 510.74 240.53 511.95 235.05"/>
    <path stroke="#dd604d" vector-effect="non-scaling-stroke" d=" M 512.00 276.31 Q 509.40 268.37 500.75 268.50 Q 487.54 268.70 464.56 268.34"/>
    <path stroke="#d65848" vector-effect="non-scaling-stroke" d=" M 464.56 268.34 Q 428.47 267.48 415.00 268.00 Q 406.04 268.35 404.18 275.30 Q 403.76 276.87 403.73 286.73 Q 403.60 326.73 403.97 366.72 Q 404.01 371.27 405.39 373.50 Q 408.10 377.89 414.25 377.94 Q 439.10 378.16 464.05 377.79"/>
    <path stroke="#dd604d" vector-effect="non-scaling-stroke" d=" M 464.05 377.79 Q 480.59 377.72 497.25 377.95 Q 501.72 378.01 504.75 377.25 Q 510.84 375.72 511.96 369.05"/>
    <path stroke="#dd604d" vector-effect="non-scaling-stroke" d=" M 512.00 409.81 Q 509.47 404.41 504.43 403.11 Q 503.00 402.75 495.04 402.75 Q 413.14 402.79 331.26 402.69"/>
    <path stroke="#d65848" vector-effect="non-scaling-stroke" d=" M 331.26 402.69 Q 300.85 402.28 280.00 402.50 Q 275.03 402.55 272.23 405.92 Q 270.42 408.09 270.18 412.06 Q 270.02 414.76 270.00 418.75 Q 269.82 460.54 270.22 502.33 Q 270.25 505.32 271.40 507.39 Q 272.76 509.85 274.73 511.97"/>
    <path stroke="#dd604d" vector-effect="non-scaling-stroke" d=" M 235.19 512.00 Q 239.41 509.52 240.44 507.69 Q 242.26 504.42 242.12 499.00 Q 242.01 495.06 242.01 495.00 Q 242.17 454.17 241.78 413.34 Q 241.74 410.03 240.92 408.30 Q 239.73 405.79 237.36 404.33 Q 235.56 403.24 232.80 402.96 Q 230.72 402.74 228.00 402.75 Q 196.04 402.83 61.25 402.71"/>
    <path stroke="#d65848" vector-effect="non-scaling-stroke" d=" M 61.25 402.71 L 54.00 402.21"/>
    <path stroke="#c8473e" vector-effect="non-scaling-stroke" d=" M 54.00 402.21 L 54.29 378.25"/>
    <path stroke="#d65848" vector-effect="non-scaling-stroke" d=" M 54.29 378.25 L 60.06 377.67"/>
    <path stroke="#dd604d" vector-effect="non-scaling-stroke" d=" M 60.06 377.67 Q 90.57 377.89 97.75 377.75 Q 103.86 377.63 106.47 373.31 Q 107.98 370.83 108.06 364.89 Q 108.56 323.80 108.06 282.71 Q 107.98 275.94 106.74 273.48 Q 104.27 268.60 97.50 268.50 Q 89.29 268.38 60.86 268.57"/>
    <path stroke="#d65848" vector-effect="non-scaling-stroke" d=" M 60.86 268.57 Q 57.40 267.66 54.00 267.96"/>
    <path stroke="#c8473e" vector-effect="non-scaling-stroke" d=" M 54.00 267.96 L 54.25 244.04"/>
    <path stroke="#d65848" vector-effect="non-scaling-stroke" d=" M 54.25 244.04 Q 57.30 244.32 60.27 243.49"/>
    <path stroke="#dd604d" vector-effect="non-scaling-stroke" d=" M 60.27 243.49 Q 143.60 243.51 226.98 243.50 Q 227.04 243.50 229.52 243.56 Q 232.96 243.64 235.56 242.81 Q 239.90 241.43 241.27 236.68 Q 242.00 234.18 242.00 229.25 Q 242.00 189.91 242.00 150.56 Q 242.00 142.47 241.00 140.06 Q 238.60 134.26 230.50 134.25 Q 126.36 134.18 61.00 134.46"/>
    <path stroke="#d65848" vector-effect="non-scaling-stroke" d=" M 61.00 134.46 L 54.25 133.95"/>
    <path stroke="#c8473e" vector-effect="non-scaling-stroke" d=" M 54.25 133.95 Q 53.63 121.63 54.25 109.79"/>
    <path stroke="#dd604d" vector-effect="non-scaling-stroke" d=" M 195.75 377.71 Q 280.88 377.78 366.00 377.69 Q 373.11 377.68 375.68 372.68 Q 377.00 370.12 377.00 363.11 Q 377.00 321.06 377.00 279.00 Q 377.00 272.10 371.36 269.56 Q 369.47 268.71 366.50 268.58 Q 364.40 268.49 361.50 268.50 Q 311.73 268.60 195.52 268.43"/>
    <path stroke="#d65848" vector-effect="non-scaling-stroke" d=" M 195.52 268.43 Q 172.50 267.68 149.50 267.82 Q 146.21 267.84 143.01 268.56 Q 136.66 269.99 135.30 275.20 Q 135.00 276.36 135.00 284.35 Q 135.00 322.83 135.00 361.31 Q 135.00 369.91 135.51 371.63 Q 137.35 377.81 145.50 378.00 Q 162.06 378.39 195.75 377.71"/>
    <path stroke="#e46a54" vector-effect="non-scaling-stroke" d=" M 195.52 268.43 Q 189.13 272.10 189.06 278.81 Q 188.92 291.75 188.88 360.75 Q 188.87 369.24 189.56 370.94 Q 191.40 375.45 195.75 377.71"/>
    <path stroke="#e46a54" vector-effect="non-scaling-stroke" d=" M 196.58 0.04 Q 189.47 2.59 189.31 9.56 Q 188.52 45.65 189.20 97.09 Q 189.26 101.96 190.47 104.19 Q 192.29 107.58 196.25 109.21"/>
    <path stroke="#e46a54" vector-effect="non-scaling-stroke" d=" M 464.56 0.00 Q 463.12 1.08 461.64 2.12 Q 458.71 4.16 458.37 7.74 Q 458.00 11.62 458.00 14.00 Q 458.00 52.97 458.00 91.94 Q 458.00 100.48 458.24 101.53 Q 459.47 106.81 465.25 109.21"/>
    <path stroke="#cf5144" vector-effect="non-scaling-stroke" d=" M 54.25 133.95 Q 31.43 133.86 8.50 134.34 Q 3.42 134.45 1.14 139.18 Q 0.09 141.34 0.33 138.95 Q 0.44 137.81 0.00 135.94"/>
    <path stroke="#e46a54" vector-effect="non-scaling-stroke" d=" M 61.00 134.46 Q 54.00 137.39 54.00 144.50 Q 54.00 188.50 54.00 232.50 Q 54.00 239.54 60.27 243.49"/>
    <path stroke="#cf5144" vector-effect="non-scaling-stroke" d=" M 54.25 244.04 Q 32.63 243.58 11.00 243.81 Q 2.43 243.89 -0.03 235.96"/>
    <path stroke="#e46a54" vector-effect="non-scaling-stroke" d=" M 330.51 134.25 Q 327.13 136.25 325.47 139.27 Q 324.26 141.47 324.22 145.95 Q 323.81 189.22 323.83 232.50 Q 323.83 238.65 328.06 241.69 Q 329.94 243.03 330.25 243.58"/>
    <path stroke="#cf5144" vector-effect="non-scaling-stroke" d=" M 54.00 267.96 Q 44.88 267.92 11.00 268.25 Q 3.04 268.33 0.00 275.19"/>
    <path stroke="#e46a54" vector-effect="non-scaling-stroke" d=" M 60.86 268.57 Q 55.24 271.24 54.50 276.00 Q 54.01 279.16 54.00 284.00 Q 53.93 334.80 54.22 366.15 Q 54.26 370.34 55.47 372.61 Q 57.07 375.60 60.06 377.67"/>
    <path stroke="#cf5144" vector-effect="non-scaling-stroke" d=" M 54.29 378.25 Q 38.15 377.81 22.00 378.08 Q 14.49 378.20 9.00 377.75 Q 2.39 377.21 0.00 370.94"/>
    <path stroke="#e46a54" vector-effect="non-scaling-stroke" d=" M 464.56 268.34 Q 459.07 271.68 458.05 277.15 Q 458.01 277.35 457.98 287.37 Q 457.84 327.07 458.22 366.77 Q 458.26 370.80 459.49 372.98 Q 461.08 375.79 464.05 377.79"/>
    <path stroke="#cf5144" vector-effect="non-scaling-stroke" d=" M 54.00 402.21 Q 34.13 402.72 14.25 402.49 Q 11.27 402.45 7.25 403.00 Q 4.01 403.44 2.18 405.80 Q 1.86 406.21 1.60 406.89 Q 0.25 410.40 0.00 405.94"/>
    <path stroke="#e46a54" vector-effect="non-scaling-stroke" d=" M 61.25 402.71 Q 55.61 405.34 54.32 410.63 Q 54.00 411.93 54.00 420.41 Q 53.99 458.83 53.83 497.25 Q 53.82 500.79 54.38 504.27 Q 54.94 507.72 57.44 509.56 Q 58.79 510.56 58.94 512.00"/>
    <path stroke="#e46a54" vector-effect="non-scaling-stroke" d=" M 331.26 402.69 Q 325.51 405.42 324.26 410.80 Q 324.00 411.92 324.00 420.73 Q 323.99 455.62 323.87 490.50 Q 323.85 497.39 324.53 504.25 Q 324.88 507.83 327.76 509.79 Q 328.14 510.05 328.41 510.51 Q 329.21 511.92 330.94 512.00"/>
  </g>
  <path fill="#dd624e" d=" M 7.81 0.00 L 60.56 0.00 Q 59.95 0.60 57.56 2.31 Q 54.85 4.26 54.63 8.01 Q 54.17 16.00 54.14 24.00 Q 54.00 61.00 54.02 98.00 Q 54.02 106.05 61.25 109.21 L 54.25 109.79 Q 43.89 109.55 10.25 109.50 Q 2.47 109.49 0.00 101.94 L 0.00 7.94 Q 1.52 1.66 7.81 0.00 Z"/>
  <path fill="#eb7259" d=" M 60.56 0.00 L 101.78 0.04 Q 105.60 2.73 106.69 4.81 Q 108.48 8.25 108.35 13.47 Q 108.26 16.98 108.26 17.02 Q 108.42 57.16 108.03 97.30 Q 107.99 102.00 106.94 104.01 Q 105.22 107.31 101.18 108.52 Q 98.78 109.24 94.00 109.25 Q 77.63 109.28 61.25 109.21 Q 54.02 106.05 54.02 98.00 Q 54.00 61.00 54.14 24.00 Q 54.17 16.00 54.63 8.01 Q 54.85 4.26 57.56 2.31 Q 59.95 0.60 60.56 0.00 Z"/>
  <path fill="#ce4e41" d=" M 101.78 0.04 L 140.56 0.00 Q 135.96 3.08 135.07 7.95 Q 135.00 8.36 135.00 17.06 Q 135.00 55.52 135.00 93.99 Q 135.00 100.69 135.13 101.49 Q 135.87 105.99 139.60 108.04 Q 142.25 109.49 149.15 109.47 Q 163.70 109.43 178.25 109.82 Q 187.27 110.06 196.25 109.21 Q 277.75 109.28 359.25 109.25 Q 367.45 109.25 368.72 109.02 Q 374.83 107.91 376.45 102.33 Q 377.00 100.45 377.00 90.12 Q 377.01 52.31 377.18 14.50 Q 377.21 9.14 376.00 5.75 Q 374.58 1.76 369.80 0.03 L 410.58 0.02 Q 406.22 2.08 404.81 5.06 Q 403.63 7.58 403.70 11.94 Q 403.75 14.46 403.74 14.55 Q 403.58 56.88 403.97 99.21 Q 404.01 102.95 405.30 104.99 Q 408.04 109.31 413.75 109.50 Q 423.27 109.82 448.92 109.59 Q 448.96 109.59 455.96 109.73 Q 460.61 109.83 465.25 109.21 Q 481.25 109.28 497.25 109.46 Q 501.39 109.50 504.75 108.75 Q 511.18 107.31 511.25 100.63 A 0.37 0.23 -3.7 0 1 511.59 100.39 Q 511.80 100.37 512.00 100.06 L 512.00 142.31 Q 510.68 136.45 504.88 135.05 Q 501.54 134.25 494.75 134.25 Q 412.62 134.25 330.51 134.25 Q 308.59 133.86 286.67 133.97 Q 279.01 134.01 277.85 134.22 Q 272.21 135.25 270.61 140.34 Q 270.00 142.29 270.00 151.71 Q 270.00 192.98 270.00 234.25 Q 270.00 239.75 274.06 241.94 Q 277.88 243.99 282.25 244.04 Q 306.26 244.31 330.25 243.58 Q 414.08 243.49 497.91 243.44 Q 504.10 243.44 506.34 242.46 Q 510.74 240.53 511.95 235.05 L 512.00 276.31 Q 509.40 268.37 500.75 268.50 Q 487.54 268.70 464.56 268.34 Q 428.47 267.48 415.00 268.00 Q 406.04 268.35 404.18 275.30 Q 403.76 276.87 403.73 286.73 Q 403.60 326.73 403.97 366.72 Q 404.01 371.27 405.39 373.50 Q 408.10 377.89 414.25 377.94 Q 439.10 378.16 464.05 377.79 Q 480.59 377.72 497.25 377.95 Q 501.72 378.01 504.75 377.25 Q 510.84 375.72 511.96 369.05 L 512.00 409.81 Q 509.47 404.41 504.43 403.11 Q 503.00 402.75 495.04 402.75 Q 413.14 402.79 331.26 402.69 Q 300.85 402.28 280.00 402.50 Q 275.03 402.55 272.23 405.92 Q 270.42 408.09 270.18 412.06 Q 270.02 414.76 270.00 418.75 Q 269.82 460.54 270.22 502.33 Q 270.25 505.32 271.40 507.39 Q 272.76 509.85 274.73 511.97 L 235.19 512.00 Q 239.41 509.52 240.44 507.69 Q 242.26 504.42 242.12 499.00 Q 242.01 495.06 242.01 495.00 Q 242.17 454.17 241.78 413.34 Q 241.74 410.03 240.92 408.30 Q 239.73 405.79 237.36 404.33 Q 235.56 403.24 232.80 402.96 Q 230.72 402.74 228.00 402.75 Q 196.04 402.83 61.25 402.71 L 54.00 402.21 L 54.29 378.25 L 60.06 377.67 Q 90.57 377.89 97.75 377.75 Q 103.86 377.63 106.47 373.31 Q 107.98 370.83 108.06 364.89 Q 108.56 323.80 108.06 282.71 Q 107.98 275.94 106.74 273.48 Q 104.27 268.60 97.50 268.50 Q 89.29 268.38 60.86 268.57 Q 57.40 267.66 54.00 267.96 L 54.25 244.04 Q 57.30 244.32 60.27 243.49 Q 143.60 243.51 226.98 243.50 Q 227.04 243.50 229.52 243.56 Q 232.96 243.64 235.56 242.81 Q 239.90 241.43 241.27 236.68 Q 242.00 234.18 242.00 229.25 Q 242.00 189.91 242.00 150.56 Q 242.00 142.47 241.00 140.06 Q 238.60 134.26 230.50 134.25 Q 126.36 134.18 61.00 134.46 L 54.25 133.95 Q 53.63 121.63 54.25 109.79 L 61.25 109.21 Q 77.63 109.28 94.00 109.25 Q 98.78 109.24 101.18 108.52 Q 105.22 107.31 106.94 104.01 Q 107.99 102.00 108.03 97.30 Q 108.42 57.16 108.26 17.02 Q 108.26 16.98 108.35 13.47 Q 108.48 8.25 106.69 4.81 Q 105.60 2.73 101.78 0.04 Z M 195.75 377.71 Q 280.88 377.78 366.00 377.69 Q 373.11 377.68 375.68 372.68 Q 377.00 370.12 377.00 363.11 Q 377.00 321.06 377.00 279.00 Q 377.00 272.10 371.36 269.56 Q 369.47 268.71 366.50 268.58 Q 364.40 268.49 361.50 268.50 Q 311.73 268.60 195.52 268.43 Q 172.50 267.68 149.50 267.82 Q 146.21 267.84 143.01 268.56 Q 136.66 269.99 135.30 275.20 Q 135.00 276.36 135.00 284.35 Q 135.00 322.83 135.00 361.31 Q 135.00 369.91 135.51 371.63 Q 137.35 377.81 145.50 378.00 Q 162.06 378.39 195.75 377.71 Z"/>
  <path fill="#dd624e" d=" M 140.56 0.00 L 196.58 0.04 Q 189.47 2.59 189.31 9.56 Q 188.52 45.65 189.20 97.09 Q 189.26 101.96 190.47 104.19 Q 192.29 107.58 196.25 109.21 Q 187.27 110.06 178.25 109.82 Q 163.70 109.43 149.15 109.47 Q 142.25 109.49 139.60 108.04 Q 135.87 105.99 135.13 101.49 Q 135.00 100.69 135.00 93.99 Q 135.00 55.52 135.00 17.06 Q 135.00 8.36 135.07 7.95 Q 135.96 3.08 140.56 0.00 Z"/>
  <path fill="#eb7259" d=" M 196.58 0.04 L 369.80 0.03 Q 374.58 1.76 376.00 5.75 Q 377.21 9.14 377.18 14.50 Q 377.01 52.31 377.00 90.12 Q 377.00 100.45 376.45 102.33 Q 374.83 107.91 368.72 109.02 Q 367.45 109.25 359.25 109.25 Q 277.75 109.28 196.25 109.21 Q 192.29 107.58 190.47 104.19 Q 189.26 101.96 189.20 97.09 Q 188.52 45.65 189.31 9.56 Q 189.47 2.59 196.58 0.04 Z"/>
  <path fill="#dd624e" d=" M 410.58 0.02 L 464.56 0.00 Q 463.12 1.08 461.64 2.12 Q 458.71 4.16 458.37 7.74 Q 458.00 11.62 458.00 14.00 Q 458.00 52.97 458.00 91.94 Q 458.00 100.48 458.24 101.53 Q 459.47 106.81 465.25 109.21 Q 460.61 109.83 455.96 109.73 Q 448.96 109.59 448.92 109.59 Q 423.27 109.82 413.75 109.50 Q 408.04 109.31 405.30 104.99 Q 404.01 102.95 403.97 99.21 Q 403.58 56.88 403.74 14.55 Q 403.75 14.46 403.70 11.94 Q 403.63 7.58 404.81 5.06 Q 406.22 2.08 410.58 0.02 Z"/>
  <path fill="#eb7259" d=" M 464.56 0.00 L 503.06 0.00 Q 510.81 1.27 512.00 9.06 L 512.00 100.06 Q 511.80 100.37 511.59 100.39 A 0.37 0.23 -3.7 0 0 511.25 100.63 Q 511.18 107.31 504.75 108.75 Q 501.39 109.50 497.25 109.46 Q 481.25 109.28 465.25 109.21 Q 459.47 106.81 458.24 101.53 Q 458.00 100.48 458.00 91.94 Q 458.00 52.97 458.00 14.00 Q 458.00 11.62 458.37 7.74 Q 458.71 4.16 461.64 2.12 Q 463.12 1.08 464.56 0.00 Z"/>
  <path fill="#c1403a" d=" M 0.00 101.94 Q 2.47 109.49 10.25 109.50 Q 43.89 109.55 54.25 109.79 Q 53.63 121.63 54.25 133.95 Q 31.43 133.86 8.50 134.34 Q 3.42 134.45 1.14 139.18 Q 0.09 141.34 0.33 138.95 Q 0.44 137.81 0.00 135.94 L 0.00 101.94 Z"/>
  <path fill="#dd624e" d=" M 54.25 133.95 L 61.00 134.46 Q 54.00 137.39 54.00 144.50 Q 54.00 188.50 54.00 232.50 Q 54.00 239.54 60.27 243.49 Q 57.30 244.32 54.25 244.04 Q 32.63 243.58 11.00 243.81 Q 2.43 243.89 -0.03 235.96 L 0.00 135.94 Q 0.44 137.81 0.33 138.95 Q 0.09 141.34 1.14 139.18 Q 3.42 134.45 8.50 134.34 Q 31.43 133.86 54.25 133.95 Z"/>
  <path fill="#dd624e" d=" M 330.51 134.25 Q 327.13 136.25 325.47 139.27 Q 324.26 141.47 324.22 145.95 Q 323.81 189.22 323.83 232.50 Q 323.83 238.65 328.06 241.69 Q 329.94 243.03 330.25 243.58 Q 306.26 244.31 282.25 244.04 Q 277.88 243.99 274.06 241.94 Q 270.00 239.75 270.00 234.25 Q 270.00 192.98 270.00 151.71 Q 270.00 142.29 270.61 140.34 Q 272.21 135.25 277.85 134.22 Q 279.01 134.01 286.67 133.97 Q 308.59 133.86 330.51 134.25 Z"/>
  <path fill="#eb7259" d=" M 60.27 243.49 Q 54.00 239.54 54.00 232.50 Q 54.00 188.50 54.00 144.50 Q 54.00 137.39 61.00 134.46 Q 126.36 134.18 230.50 134.25 Q 238.60 134.26 241.00 140.06 Q 242.00 142.47 242.00 150.56 Q 242.00 189.91 242.00 229.25 Q 242.00 234.18 241.27 236.68 Q 239.90 241.43 235.56 242.81 Q 232.96 243.64 229.52 243.56 Q 227.04 243.50 226.98 243.50 Q 143.60 243.51 60.27 243.49 Z"/>
  <path fill="#eb7259" d=" M 512.00 142.31 L 511.95 235.05 Q 510.74 240.53 506.34 242.46 Q 504.10 243.44 497.91 243.44 Q 414.08 243.49 330.25 243.58 Q 329.94 243.03 328.06 241.69 Q 323.83 238.65 323.83 232.50 Q 323.81 189.22 324.22 145.95 Q 324.26 141.47 325.47 139.27 Q 327.13 136.25 330.51 134.25 Q 412.62 134.25 494.75 134.25 Q 501.54 134.25 504.88 135.05 Q 510.68 136.45 512.00 142.31 Z"/>
  <path fill="#c1403a" d=" M -0.03 235.96 Q 2.43 243.89 11.00 243.81 Q 32.63 243.58 54.25 244.04 L 54.00 267.96 Q 44.88 267.92 11.00 268.25 Q 3.04 268.33 0.00 275.19 L -0.03 235.96 Z"/>
  <path fill="#dd624e" d=" M 60.86 268.57 Q 55.24 271.24 54.50 276.00 Q 54.01 279.16 54.00 284.00 Q 53.93 334.80 54.22 366.15 Q 54.26 370.34 55.47 372.61 Q 57.07 375.60 60.06 377.67 L 54.29 378.25 Q 38.15 377.81 22.00 378.08 Q 14.49 378.20 9.00 377.75 Q 2.39 377.21 0.00 370.94 L 0.00 275.19 Q 3.04 268.33 11.00 268.25 Q 44.88 267.92 54.00 267.96 Q 57.40 267.66 60.86 268.57 Z"/>
  <path fill="#dd624e" d=" M 195.52 268.43 Q 189.13 272.10 189.06 278.81 Q 188.92 291.75 188.88 360.75 Q 188.87 369.24 189.56 370.94 Q 191.40 375.45 195.75 377.71 Q 162.06 378.39 145.50 378.00 Q 137.35 377.81 135.51 371.63 Q 135.00 369.91 135.00 361.31 Q 135.00 322.83 135.00 284.35 Q 135.00 276.36 135.30 275.20 Q 136.66 269.99 143.01 268.56 Q 146.21 267.84 149.50 267.82 Q 172.50 267.68 195.52 268.43 Z"/>
  <path fill="#dd624e" d=" M 464.56 268.34 Q 459.07 271.68 458.05 277.15 Q 458.01 277.35 457.98 287.37 Q 457.84 327.07 458.22 366.77 Q 458.26 370.80 459.49 372.98 Q 461.08 375.79 464.05 377.79 Q 439.10 378.16 414.25 377.94 Q 408.10 377.89 405.39 373.50 Q 404.01 371.27 403.97 366.72 Q 403.60 326.73 403.73 286.73 Q 403.76 276.87 404.18 275.30 Q 406.04 268.35 415.00 268.00 Q 428.47 267.48 464.56 268.34 Z"/>
  <path fill="#eb7259" d=" M 60.86 268.57 Q 89.29 268.38 97.50 268.50 Q 104.27 268.60 106.74 273.48 Q 107.98 275.94 108.06 282.71 Q 108.56 323.80 108.06 364.89 Q 107.98 370.83 106.47 373.31 Q 103.86 377.63 97.75 377.75 Q 90.57 377.89 60.06 377.67 Q 57.07 375.60 55.47 372.61 Q 54.26 370.34 54.22 366.15 Q 53.93 334.80 54.00 284.00 Q 54.01 279.16 54.50 276.00 Q 55.24 271.24 60.86 268.57 Z"/>
  <path fill="#eb7259" d=" M 195.52 268.43 Q 311.73 268.60 361.50 268.50 Q 364.40 268.49 366.50 268.58 Q 369.47 268.71 371.36 269.56 Q 377.00 272.10 377.00 279.00 Q 377.00 321.06 377.00 363.11 Q 377.00 370.12 375.68 372.68 Q 373.11 377.68 366.00 377.69 Q 280.88 377.78 195.75 377.71 Q 191.40 375.45 189.56 370.94 Q 188.87 369.24 188.88 360.75 Q 188.92 291.75 189.06 278.81 Q 189.13 272.10 195.52 268.43 Z"/>
  <path fill="#eb7259" d=" M 464.56 268.34 Q 487.54 268.70 500.75 268.50 Q 509.40 268.37 512.00 276.31 L 511.96 369.05 Q 510.84 375.72 504.75 377.25 Q 501.72 378.01 497.25 377.95 Q 480.59 377.72 464.05 377.79 Q 461.08 375.79 459.49 372.98 Q 458.26 370.80 458.22 366.77 Q 457.84 327.07 457.98 287.37 Q 458.01 277.35 458.05 277.15 Q 459.07 271.68 464.56 268.34 Z"/>
  <path fill="#c1403a" d=" M 0.00 370.94 Q 2.39 377.21 9.00 377.75 Q 14.49 378.20 22.00 378.08 Q 38.15 377.81 54.29 378.25 L 54.00 402.21 Q 34.13 402.72 14.25 402.49 Q 11.27 402.45 7.25 403.00 Q 4.01 403.44 2.18 405.80 Q 1.86 406.21 1.60 406.89 Q 0.25 410.40 0.00 405.94 L 0.00 370.94 Z"/>
  <path fill="#dd624e" d=" M 54.00 402.21 L 61.25 402.71 Q 55.61 405.34 54.32 410.63 Q 54.00 411.93 54.00 420.41 Q 53.99 458.83 53.83 497.25 Q 53.82 500.79 54.38 504.27 Q 54.94 507.72 57.44 509.56 Q 58.79 510.56 58.94 512.00 L 7.94 512.00 Q 1.62 510.46 0.00 504.19 L 0.00 405.94 Q 0.25 410.40 1.60 406.89 Q 1.86 406.21 2.18 405.80 Q 4.01 403.44 7.25 403.00 Q 11.27 402.45 14.25 402.49 Q 34.13 402.72 54.00 402.21 Z"/>
  <path fill="#dd624e" d=" M 331.26 402.69 Q 325.51 405.42 324.26 410.80 Q 324.00 411.92 324.00 420.73 Q 323.99 455.62 323.87 490.50 Q 323.85 497.39 324.53 504.25 Q 324.88 507.83 327.76 509.79 Q 328.14 510.05 328.41 510.51 Q 329.21 511.92 330.94 512.00 L 274.73 511.97 Q 272.76 509.85 271.40 507.39 Q 270.25 505.32 270.22 502.33 Q 269.82 460.54 270.00 418.75 Q 270.02 414.76 270.18 412.06 Q 270.42 408.09 272.23 405.92 Q 275.03 402.55 280.00 402.50 Q 300.85 402.28 331.26 402.69 Z"/>
  <path fill="#eb7259" d=" M 61.25 402.71 Q 196.04 402.83 228.00 402.75 Q 230.72 402.74 232.80 402.96 Q 235.56 403.24 237.36 404.33 Q 239.73 405.79 240.92 408.30 Q 241.74 410.03 241.78 413.34 Q 242.17 454.17 242.01 495.00 Q 242.01 495.06 242.12 499.00 Q 242.26 504.42 240.44 507.69 Q 239.41 509.52 235.19 512.00 L 58.94 512.00 Q 58.79 510.56 57.44 509.56 Q 54.94 507.72 54.38 504.27 Q 53.82 500.79 53.83 497.25 Q 53.99 458.83 54.00 420.41 Q 54.00 411.93 54.32 410.63 Q 55.61 405.34 61.25 402.71 Z"/>
  <path fill="#eb7259" d=" M 331.26 402.69 Q 413.14 402.79 495.04 402.75 Q 503.00 402.75 504.43 403.11 Q 509.47 404.41 512.00 409.81 L 512.00 503.06 Q 510.73 510.82 502.94 512.00 L 330.94 512.00 Q 329.21 511.92 328.41 510.51 Q 328.14 510.05 327.76 509.79 Q 324.88 507.83 324.53 504.25 Q 323.85 497.39 323.87 490.50 Q 323.99 455.62 324.00 420.73 Q 324.00 411.92 324.26 410.80 Q 325.51 405.42 331.26 402.69 Z"/>
  <path d="M 335.997 45.647 L 170.215 78.132 C 167.491 78.665 165.473 80.974 165.309 83.746 L 155.111 255.98 C 154.871 260.037 158.597 263.186 162.556 262.272 L 208.712 251.62 C 213.031 250.625 216.933 254.428 216.045 258.771 L 202.332 325.921 C 201.409 330.44 205.653 334.304 210.066 332.964 L 238.574 324.303 C 242.994 322.961 247.24 326.836 246.305 331.359 L 224.513 436.836 C 223.149 443.434 231.925 447.032 235.585 441.375 L 238.03 437.597 L 373.118 168.005 C 375.38 163.49 371.48 158.344 366.522 159.301 L 319.012 168.47 C 314.547 169.331 310.749 165.173 312.009 160.805 L 343.018 53.309 C 344.279 48.933 340.467 44.772 335.997 45.647 Z" fill="url(#paint1_linear)" style="opacity: 0.8;"/>
</svg>