<svg version="1.1" viewBox="0 0 100 100" xmlns="http://www.w3.org/2000/svg">
<path fill="currentColor" d="m96.911 24.5-9-7.2c-0.2-0.2-0.5-0.3-0.8-0.3h-1.4l-50.6-15.4c-0.2-0.2-0.5-0.4-0.8-0.4-0.4 0-0.7 0.2-0.9 0.6l-19.7 10.3h-5.2c-0.5 0-1 0.5-1 1v2l-3.4 1.9h-0.3c-0.7 0-1.2 0.6-1.2 1.2v7.2c0 0.7 0.6 1.2 1.2 1.2h3.6v3.8c0 0.5 0.5 1 1 1h9.4c0.5 0 1-0.5 1-1v-3.8h8.3v64.3h-16.1v7.9h47.1v-7.9h-16.8v-64.2h45.6l0.9 23h-0.2c-0.4 0-0.8 0.4-0.8 0.8v5.2c0 0.4 0.4 0.8 0.8 0.8h2.5v4.2c0 0.4 0.4 0.8 0.8 0.8 2 0 3.6 1.6 3.6 3.6s-1.6 3.7-3.6 3.7-3.7-1.6-3.7-3.7c0-0.4-0.4-0.8-0.8-0.8s-0.8 0.4-0.8 0.8c0 2.9 2.4 5.2 5.2 5.2 2.9 0 5.2-2.4 5.2-5.2 0-2.6-1.9-4.8-4.4-5.2v-3.5h2.5c0.4 0 0.8-0.4 0.8-0.8v-5.2c0-0.4-0.4-0.8-0.8-0.8l0.9-23h1.1c0.5 0 1-0.3 1.2-0.8 0.2-0.4 0-1-0.4-1.3zm-16.6-7.5h-39.3v-0.1l-5.1-13.4zm-46-12 4.6 12h-9.3zm-1.8-0.9-5.1 12.8v0.1h-8.6v-3.8c0-0.5-0.5-1-1-1h-0.7zm-18.4 10h2.7v2.8h-2.7zm-4.6 0h2.6v2.8h-2.6zm-4.4 10.1v-4.7h0.3l5.2 4.7zm7 5.3h-2.6v-2.8h2.6zm0.9-5.3-5.2-4.7h11.1l-5.2 4.7zm3.8 5.3h-2.7v-2.8h2.7zm-0.8-5.3 5.2-4.7h0.6l5.2 4.7zm8.2-4.7h11.4l-5.2 4.7h-1zm13.8 17.8-8.5 8v-8zm-8.4-1.6v-7.9l8.4 7.9zm8.5 22h-8.6v-8.1zm-7.7-9.4h8.3v7.8zm7.5 11.1-8.3 7.8v-7.8zm0.1 21.9-8.5 8v-8zm-8.4-1.6v-8l8.4 8zm0.8-9.3h8.3v7.8zm-0.1-1.7 8.5-8v8zm0-22 8.5-8v8zm0.5-20h8v7.5zm-17.3 69.7v-2.8h42.1v2.8zm16.5-5.4 8.8-8.3v8.3zm10-66.8h-7.3l5.2-4.7h0.5l5.2 4.7zm6 0-5.2-4.7h11.4l-5.2 4.7zm3.3 0 5.2-4.7 5.2 4.7zm12.8 0-5.2-4.7h11.1l-5.2 4.7zm3 0 5.2-4.7h0.8l5.2 4.7zm13.6 0-5.2-4.7h11.1l-5.2 4.7zm3.1 0 5.1-4.6 5.8 4.6zm11.6 2.5-0.9 23h-3l-0.9-23zm0 28.1h-5v-3.6h5z"/>
</svg>
