<svg version="1.1" viewBox="0 0 32 32" xmlns="http://www.w3.org/2000/svg">
<path d="m31.353 9.6463-6-6c-0.19531-0.19531-0.51172-0.19531-0.70703 0l-6.6465 6.6465-2.6459-2.6459c-0.0459-0.04602-0.10071-0.082886-0.16168-0.10828-0.06036-0.025208-0.12561-0.038818-0.19244-0.038818h-9c-0.27637 0-0.5 0.22363-0.5 0.5s0.22363 0.5 0.5 0.5h8.5v12.293l-12.293-12.293h5.793c3.9489-0.211 3.8653-0.74664 0-1h-7c-0.20215 0-0.38477 0.12207-0.46191 0.30859-0.077637 0.18652-0.034668 0.40234 0.1084 0.54492l13.854 13.854v-0.4141l-5.8535 5.8535c-0.14307 0.14258-0.18604 0.3584-0.1084 0.54492 0.07715 0.18652 0.25976 0.30859 0.46191 0.30859h6c0.06683 0 0.13208-0.01361 0.19244-0.03882 0.06097-0.02539 0.11578-0.06226 0.16168-0.10828l9.9994-9.9994c0.04724-0.04724 0.0838-0.10303 0.1087-0.1637 0.0249-0.06073 0.03778-0.12518 0.03778-0.18982v-7.5h5.5c0.20215 0 0.38476-0.12207 0.46191-0.30859s0.03418-0.40234-0.1084-0.54492zm-6.8535-4.4395v11.586l-5.793-5.793zm-6.8535 6.1465 6.6465 6.6465-8.793 8.793v-17.586l1.1465 1.1465zm-3.1465 11.854v4.293h-4.293zm11-13.707v-4.293l4.293 4.293z" fill="currentColor" stroke="currentColor" stroke-width="0.1"/>
</svg>
