<?xml version="1.0" encoding="UTF-8" standalone="no"?>
<svg
   viewBox="-3.2 -6.4 70 70"
   version="1.1"
   id="svg10"
   sodipodi:docname="compass.svg"
   inkscape:version="1.2.2 (b0a8486541, 2022-12-01)"
   width="70"
   height="70"
   xmlns:inkscape="http://www.inkscape.org/namespaces/inkscape"
   xmlns:sodipodi="http://sodipodi.sourceforge.net/DTD/sodipodi-0.dtd"
   xmlns="http://www.w3.org/2000/svg"
   xmlns:svg="http://www.w3.org/2000/svg">
  <defs
     id="defs14" />
  <sodipodi:namedview
     id="namedview12"
     pagecolor="#ffffff"
     bordercolor="#000000"
     borderopacity="0.25"
     inkscape:showpageshadow="2"
     inkscape:pageopacity="0.0"
     inkscape:pagecheckerboard="0"
     inkscape:deskcolor="#d1d1d1"
     showgrid="false"
     inkscape:zoom="4.8078166"
     inkscape:cx="23.087403"
     inkscape:cy="44.09486"
     inkscape:window-width="1366"
     inkscape:window-height="745"
     inkscape:window-x="0"
     inkscape:window-y="0"
     inkscape:window-maximized="1"
     inkscape:current-layer="svg10" />
  <g
     id="g360"
     transform="translate(1.25,1.25)">
    <path
       d="M 30.55,-6.4 C 11.9875,-6.4 -3.2,8.7875 -3.2,27.35 -3.2,45.9125 11.9875,61.1 30.55,61.1 49.1125,61.1 64.3,45.9125 64.3,27.35 64.3,8.7875 49.1125,-6.4 30.55,-6.4 m 0,64.441406 c -16.980469,0 -30.6914062,-13.710937 -30.6914062,-30.691406 0,-16.980469 13.7109372,-30.6914063 30.6914062,-30.6914063 16.980469,0 30.691406,13.7109373 30.691406,30.6914063 0,16.980469 -13.710937,30.691406 -30.691406,30.691406"
       id="path2"
       style="stroke-width:1.05469" />
    <path
       d="M 49.534375,8.2074217 C 44.577344,3.2503905 37.827344,0.2972655 30.444531,0.2972655 c -7.382812,0 -14.132812,3.0585938 -19.089844,7.9101562 h -0.105468 c -0.105469,0 0,0 0,0.1054688 C 6.397656,13.164453 3.444531,19.914452 3.444531,27.297266 c 0,7.382812 3.0585938,14.132812 7.910156,19.089843 v 0.105469 c 0,0.105469 0,0 0.105469,0 4.851563,4.851563 11.601563,7.910156 19.089844,7.910156 7.382812,0 14.132812,-3.058593 19.089844,-7.910156 h 0.105468 V 46.387109 C 54.596875,41.535547 57.655469,34.785546 57.655469,27.297266 57.444531,19.914452 54.491406,13.164453 49.534375,8.2074217 m 2.636719,20.5664053 h 2.214843 c -0.316406,5.484375 -2.53125,10.441407 -5.90625,14.34375 l -1.582031,-1.582031 c -0.632812,-0.632812 -1.582031,-0.632812 -2.109375,0 -0.632812,0.632813 -0.632812,1.582031 0,2.109375 l 1.582031,1.582032 c -3.902343,3.375 -8.859375,5.589843 -14.34375,5.90625 v -2.214844 c 0,-0.84375 -0.632812,-1.476563 -1.476562,-1.476563 -0.84375,0 -1.476563,0.632813 -1.476563,1.476563 v 2.214844 c -5.484375,-0.316407 -10.441406,-2.53125 -14.34375,-5.90625 l 1.582032,-1.582032 c 0.632812,-0.632812 0.632812,-1.582031 0,-2.109375 -0.632813,-0.632812 -1.582032,-0.632812 -2.109375,0 l -1.792969,1.582031 C 9.0343748,39.215234 6.819531,34.258202 6.5031248,28.773827 h 2.2148437 c 0.84375,0 1.4765625,-0.632812 1.4765625,-1.476562 0,-0.84375 -0.6328125,-1.476563 -1.4765625,-1.476563 H 6.5031248 C 6.819531,20.336327 9.0343748,15.379297 12.409375,11.476953 l 1.582031,1.582031 c 0.316406,0.316407 0.632813,0.421875 1.054688,0.421875 0.421875,0 0.738281,-0.105468 1.054687,-0.421875 0.632813,-0.632812 0.632813,-1.582031 0,-2.109375 L 14.624219,9.2621092 c 3.902343,-3.375 8.859375,-5.5898437 14.34375,-5.90625 V 5.570703 c 0,0.84375 0.632812,1.4765625 1.476562,1.4765625 0.84375,0 1.476563,-0.6328125 1.476563,-1.4765625 V 3.3558593 c 5.484375,0.3164062 10.441406,2.5312499 14.34375,5.9062499 l -1.582032,1.5820318 c -0.632812,0.632812 -0.632812,1.582031 0,2.109375 0.316406,0.316406 0.632813,0.421875 1.054688,0.421875 0.421875,0 0.738281,-0.105469 1.054687,-0.421875 l 1.582032,-1.582032 c 3.375,3.902343 5.589843,8.859375 5.90625,14.34375 h -2.214844 c -0.84375,0 -1.476563,0.632813 -1.476563,1.476563 0,0.84375 0.738282,1.582031 1.582032,1.582031"
       id="path4"
       style="stroke-width:1.05469" />
    <path
       d="m 35.130927,11.804445 -9.394669,13.479622 c -0.143347,0.171614 -0.155055,0.394914 -0.258426,0.658191 l -2.222809,15.915688 c -0.03513,0.6699 0.24471,1.311532 0.902901,1.569959 0.394915,0.155055 0.709877,0.126788 1.076524,-0.03312 0.274985,-0.11993 0.418332,-0.291545 0.653341,-0.503136 L 35.282458,29.41203 c 0.143347,-0.171615 0.155056,-0.394915 0.258426,-0.658192 L 37.763693,12.83815 c 0.03513,-0.6699 -0.244709,-1.311532 -0.902901,-1.569958 -0.658191,-0.258427 -1.3398,-0.07025 -1.729865,0.536253 m -2.417841,16.218941 -5.672496,8.256076 1.356701,-9.646728 5.672497,-8.256076 z"
       id="path6" />
  </g>
</svg>
