<svg width="73.023" height="73.023" version="1.1" viewBox="0 0 73.023 73.023" xmlns="http://www.w3.org/2000/svg">
<g transform="translate(-13.489 -965.85)" stroke="#000">
<path d="m32.78 970.37c-4.5594 0-9.1281 1.8735-12.594 5.5938-6.9314 7.4403-6.9238 19.366 0 26.812l29.062 31.25a1.0001 1.0001 0 0 0 1.4688 0c9.6977-10.41 19.396-20.808 29.094-31.219 6.9314-7.4403 6.9313-19.372 0-26.813-6.9313-7.4407-18.256-7.4408-25.188 0l-4.625 4.9688-4.625-5c-3.4657-3.7203-8.0343-5.5938-12.594-5.5938zm0 1.9688c4.0102 0 8.0242 1.6714 11.125 5l5.375 5.7812a1.0001 1.0001 0 0 0 1.4688 0l5.3438-5.75c6.2016-6.6574 16.048-6.6572 22.25 0 6.2015 6.6572 6.2015 17.406 0 24.063-9.4518 10.146-18.892 20.323-28.344 30.469l-28.344-30.5c-6.1964-6.6644-6.2015-17.406 0-24.062 3.1008-3.3286 7.1148-5 11.125-5z" color="#000000" overflow="visible" stroke="#000" style="text-indent:0;text-transform:none"/>
</g>
</svg>
