<svg width="82.882" height="82.882" version="1.1" viewBox="-5 -10 82.882 82.882" xmlns="http://www.w3.org/2000/svg">
<path d="m39.053-3.2406c-14.25-1.0312-30.371 5.9609-32.898 28.672-0.55078 4.9688-0.57031 33.07-0.55859 38.648v0.14844c0 0.37891 0.21875 0.85156 0.82813 1.0312 2.2617 0.67188 27.719 0.89062 30.621 0.91016 4.6211 0.03906 8.5 0.05078 11.77 0.05078 17.031 0 17.32-0.44141 17.621-0.91016 0.19141-0.30078 0.60156-0.92188 0.80078-21.691 0.07812-7.7695 0.07812-16.48-0.08984-18.441-0.37891-4.4414-3.5-26.648-28.09-28.43zm-31.398 48.34c1.2109 0.07813 3.6016 0.66016 5.0391 3.8594 0.21094 0.46875 0.75 0.69922 1.2383 0.53906 0.03906-0.01172 3.6016-1.2109 5.1211 0.96094 0.98828 1.4219 0.76172 2.5312-0.80078 3.7305-0.37891 0.28906-2.4297 1.6719-5.7812-0.16016-0.42969-0.23828-0.96875-0.12109-1.2695 0.26953-0.01953 0.01953-1.4883 1.9102-3.6094 1.9492 0-3.3086 0.03125-7.2305 0.05859-11.16zm27.262 19.051c-12.32-0.12109-24.352-0.37891-27.32-0.69922v-5.1797c2.1797-0.01953 3.8281-1.3086 4.6406-2.1094 4.0508 1.8516 6.7383 0.03125 7.2812-0.39844 3.1992-2.4805 2.1211-5.1016 1.1797-6.4297-1.8086-2.6016-5.0195-2.2812-6.5586-1.9414-1.7695-3.2383-4.5703-4.1992-6.4688-4.2891 0.05078-5.1289 0.12891-10.09 0.25-13.531 2.25 0 14.5-0.01953 27.559 0.12891-0.21094 13-0.42969 26.781-0.57031 34.461zm0.59766-36.461c-12.93-0.14844-25.051-0.14063-27.512-0.12891 0.03906-0.80859 0.08984-1.4609 0.14063-1.9102 2.1992-19.738 15.328-26.82 27.828-26.98-0.03906 2.5703-0.23828 15.121-0.46094 29.02zm2.4609-28.98c0.30859 0.01172 0.62109 0.03125 0.92969 0.05078 22.391 1.6211 25.75 20.77 26.238 26.602 0.03906 0.51172 0.07812 1.6211 0.10156 3.1914-6.25-0.44922-17.109-0.69922-27.738-0.82812 0.21875-13.891 0.42188-26.441 0.46094-29.012zm27.258 44.902c-0.03125 2.9883-0.07031 5.6797-0.10938 8.0586-3.2891-0.17969-4.3281-1.9688-4.3711-2.0391-0.16016-0.30859-0.46875-0.51172-0.80859-0.53906-0.33984-0.03125-0.67969 0.12891-0.87891 0.41016-0.01953 0.03125-1.8516 2.4805-4.8203 1.8984-2.8398-0.55078-3.3984-2.6289-3.4219-2.7109-0.12109-0.53125-0.66016-0.87109-1.1914-0.75-0.76172 0.16016-3.0117 0.37891-4.2617-0.55859-0.58984-0.44922-0.91016-1.1289-0.96875-2.0781-0.05078-0.75 0.14062-1.3516 0.55859-1.8086 0.83984-0.91016 2.4805-1.1484 3.0391-1.1602 0.48047 0 0.89062-0.37109 0.96875-0.83984 0.01953-0.10156 0.42188-2.3711 2.6289-3.3594 2.8984-1.3086 5.0586 1.1484 5.1484 1.25 0.19922 0.23828 0.51172 0.37109 0.82031 0.35156s0.60156-0.17969 0.78125-0.44141c0.08984-0.14062 2.2695-3.3203 5.4414-1.7305 0.78906 0.39062 1.1016 0.67187 1.4805 1.0898 0 1.5781-0.01953 3.2383-0.03906 4.9609zm0.05078-7.5117c-0.17969-0.10938-0.37109-0.21094-0.58984-0.32812-3.1484-1.5703-5.8086-0.03125-7.2617 1.5-1.4297-1.1406-3.8906-2.1992-6.6406-0.96094-2.3008 1.0391-3.2305 3-3.5781 4.1016-0.96094 0.14062-2.6016 0.53906-3.6992 1.7305-0.80859 0.87109-1.1719 1.9805-1.1016 3.2891 0.08984 1.5508 0.69141 2.75 1.7617 3.5586 1.5898 1.1992 3.8281 1.1719 5.0312 1.0391 0.53125 1.0703 1.8008 2.7891 4.6484 3.3398 2.8203 0.55078 4.8711-0.78125 5.9492-1.7617 0.87109 0.85938 2.5195 1.9297 5.2812 2.0586-0.10938 5.4414-0.23828 8.9609-0.35938 10.27-2.8594 0.28906-15.238 0.33984-27.809 0.23047 0.14062-7.6797 0.35938-21.461 0.57031-34.449 10.691 0.12891 21.602 0.37891 27.789 0.83984 0.01172 1.5898 0.01172 3.4688 0 5.5508z"/>
<path d="m73.788 28.388c-0.45921-13.669-5.8681-36.828-36.911-38.354-7.0954-0.35216-17.605 1.9916-25.854 9.5975-7.5017 6.9138-11.6 16.527-11.941 28.578-0.10733 42.063 0.00571 43.414 0.019855 44.673h74.743c-0.0666-15.155-0.05842-27.731-0.06459-44.502zm-2.7272 42.27c-21.631 0.13996-63.706 0.36564-69.804 0.16505-0.036138-1.8599-0.050169-10.169 0.033532-42.549 0.32104-11.471 4.0801-20.592 11.151-27.109 7.7822-7.1729 17.673-9.379 24.334-9.0471 27.902 1.3682 33.756 20.484 34.285 36.315 0.07142 17.874 0.0334 26.733 0 42.224z" stroke-width="1.0383"/>
<path d="m25.274 22.573c2.8594 0 5.1914-2.3281 5.1914-5.1914 0-2.8594-2.3281-5.1914-5.1914-5.1914-2.8594 0-5.1914 2.3281-5.1914 5.1914 0 2.8594 2.3281 5.1914 5.1914 5.1914zm0-8.3789c1.7617 0 3.1914 1.4297 3.1914 3.1914s-1.4297 3.1914-3.1914 3.1914-3.1914-1.4297-3.1914-3.1914 1.4297-3.1914 3.1914-3.1914z"/>
</svg>
