<svg width="34.471" height="34.471" version="1.1" viewBox="0 0 34.471 34.471" xmlns="http://www.w3.org/2000/svg">
<g transform="translate(.00015446 5.9908)">
<path d="m15.394 22.072a2.31 2.31 0 0 0 3.217-0.568 0.798 0.798 0 0 0-0.197-1.114l-1.85-1.949 4.222 2.955a1.497 1.497 0 0 0 2.089-0.369 1.5 1.5 0 0 0-0.369-2.089l-3.596-3.305 5.375 3.763a1.497 1.497 0 0 0 2.089-0.369 1.5 1.5 0 0 0-0.369-2.089l-4.766-4.073 5.864 4.105a1.497 1.497 0 0 0 2.089-0.369 1.5 1.5 0 0 0-0.369-2.089l-25.124-11.577-3.467 5.521c-0.389 0.6-0.283 1.413 0.276 1.891l7.786 6.671c0.355 0.304 0.724 0.591 1.107 0.859z" fill="#ef9645"/>
<path d="m28.768 13.493-11.302-8.151-0.059-0.08 0.053-0.08 0.053-0.053 0.854 0.469c0.958 0.62 3.147 1.536 4.806 1.536 1.135 0 1.815-0.425 2.018-1.257a1.409 1.409 0 0 0-1.152-1.622 6.788 6.788 0 0 1-2.801-1.091l-0.555-0.373c-0.624-0.421-1.331-0.898-1.853-1.206-0.65-0.394-1.357-0.585-2.163-0.585-1.196 0-2.411 0.422-3.585 0.83l-1.266 0.436a5.18 5.18 0 0 1-1.696 0.271c-1.544 0-3.055-0.586-4.516-1.152l-0.147-0.058a1.389 1.389 0 0 0-1.674 0.56l-3.467 5.523a1.357 1.357 0 0 0 0.257 1.761l7.785 6.672c0.352 0.301 0.722 0.588 1.1 0.852l6.165 4.316a2 2 0 0 0 2.786-0.491 0.803 0.803 0 0 0-0.196-1.115l-1.833-1.283a0.424 0.424 0 0 1-0.082-0.618 0.422 0.422 0 0 1 0.567-0.075l3.979 2.785a1.4001 1.4001 0 0 0 1.606-2.294l-3.724-2.606a0.424 0.424 0 0 1-0.082-0.618 0.423 0.423 0 0 1 0.567-0.075l5.132 3.593a1.4001 1.4001 0 0 0 1.606-2.294l-4.868-3.407a0.42 0.42 0 0 1-0.081-0.618 0.377 0.377 0 0 1 0.506-0.066l5.656 3.959a1.4006 1.4006 0 0 0 1.606-2.295z" fill="#ffdc5d"/>
<path d="m15.502 19.67c-0.07 0.267-0.207 0.498-0.389 0.681l-1.004 0.996a1.494 1.494 0 0 1-1.437 0.396 1.5 1.5 0 0 1-0.683-2.512l1.004-0.996a1.494 1.494 0 0 1 1.437-0.396 1.502 1.502 0 0 1 1.072 1.831zm-10.544-4.921 1.503-1.497a1.5 1.5 0 0 0-0.444-2.429 1.495 1.495 0 0 0-1.674 0.31l-1.503 1.497a1.5 1.5 0 0 0 0.445 2.429 1.496 1.496 0 0 0 1.673-0.31zm5.204 0.052a1.5 1.5 0 1 0-2.122-2.118l-3.002 2.998a1.5 1.5 0 1 0 2.122 2.118zm2.25 3a1.5 1.5 0 0 0-0.945-2.555 1.489 1.489 0 0 0-1.173 0.44l-2.005 1.995a1.5 1.5 0 0 0 0.945 2.556c0.455 0.036 0.874-0.141 1.173-0.44zm16.555-4.137 0.627-0.542-6.913-10.85-12.27 1.985a1.507 1.507 0 0 0-1.235 1.737c0.658 2.695 6.003 0.693 8.355-0.601z" fill="#ef9645"/>
<path d="m15.502 18.67c-0.07 0.267-0.207 0.498-0.389 0.681l-1.004 0.996a1.494 1.494 0 0 1-1.437 0.396 1.5 1.5 0 0 1-0.683-2.512l1.004-0.996a1.494 1.494 0 0 1 1.437-0.396 1.502 1.502 0 0 1 1.072 1.831zm-10.544-4.921 1.503-1.497a1.5 1.5 0 0 0-0.444-2.429 1.497 1.497 0 0 0-1.674 0.31l-1.503 1.497a1.5 1.5 0 0 0 0.445 2.429 1.496 1.496 0 0 0 1.673-0.31zm5.204 0.052a1.5 1.5 0 1 0-2.122-2.118l-3.002 2.998a1.5 1.5 0 1 0 2.122 2.118zm2.25 3a1.5 1.5 0 0 0-0.945-2.555 1.489 1.489 0 0 0-1.173 0.44l-2.005 1.995a1.5 1.5 0 0 0 0.945 2.556c0.455 0.036 0.874-0.141 1.173-0.44zm21.557-7.456a1.45 1.45 0 0 0 0.269-1.885l-3e-3 -5e-3 -3.467-6.521a1.488 1.488 0 0 0-1.794-0.6c-1.992 0.771-4.174 1.657-6.292 0.937l-1.098-0.377c-1.948-0.675-4.066-1.466-6-0.294-0.695 0.409-1.738 1.133-2.411 1.58a6.873 6.873 0 0 1-2.762 1.076 1.502 1.502 0 0 0-1.235 1.737c0.613 2.512 5.3 0.908 7.838-0.369a0.968 0.968 0 0 1 1.002 0.081l11.584 8.416z" fill="#ffcc4d"/>
</g>
</svg>
