<svg version="1.1" xmlns="http://www.w3.org/2000/svg" xmlns:xlink="http://www.w3.org/1999/xlink" x="0px" y="0px" viewBox="190 425 620 150" xml:space="preserve">
<g>
  <g fill="#2563eb">
    <path d="M222.62,572.34h-28.93c-1.23,0-2.29-0.86-2.55-2.06l-0.1-0.49l0,0c-0.3-1.4,0.59-2.78,1.99-3.09
      c4.71-1.05,9.27-2.25,13.7-3.57c3.58-1.07,7.08-2.22,10.49-3.45c2.9-1.04,6.05,0.68,6.7,3.69l0.35,1.61l0.9,4.21
      C225.51,570.81,224.28,572.34,222.62,572.34z"/>
    <path d="M376.79,572.34h-11.8c-1.23,0-2.29-0.86-2.55-2.06l-12.41-57.94c-0.42-1.95-2.77-2.73-4.26-1.41
      c-2.37,2.1-5.02,4.31-7.96,6.6c-1.5,1.17-3.72,0.37-4.12-1.5c-2.26-10.56-8.35-38.98-9.96-46.5c-0.26-1.19-0.06-2.44,0.53-3.5
      c4.46-8.06,8.09-15.71,11-22.58c1.92-4.52,3.54-8.71,4.88-12.44c1.72-4.8,8.66-4.31,9.73,0.67l29.47,137.51
      C379.68,570.81,378.44,572.34,376.79,572.34z"/>
    <path d="M325.4,572.34h-11.8c-1.23,0-2.29-0.86-2.55-2.06l-6.06-28.29c-0.35-1.64-2.13-2.52-3.65-1.82l-9.66,4.49
      c-1.52,0.71-3.3-0.18-3.65-1.82l-4.42-20.64c-0.37-1.73,0.2-3.51,1.47-4.74c4.26-4.09,8.25-8.29,11.97-12.55
      c2.4-2.74,4.7-5.5,6.88-8.27c2.65-3.36,8.02-2.07,8.92,2.11l6.72,31.33l8.37,39.09C328.29,570.81,327.06,572.34,325.4,572.34z"/>
    <path d="M274.01,572.34h-11.8c-1.23,0-2.29-0.86-2.55-2.06l-2.22-10.36c-0.32-1.47-1.8-2.37-3.25-1.96
      c-3.54,1-7.17,1.96-10.92,2.89c-1.43,0.35-2.87-0.55-3.18-1.99l-0.95-4.43c-0.47-2.21,0.56-4.48,2.56-5.53
      c4.13-2.17,8.1-4.47,11.92-6.84c2.99-1.86,5.89-3.79,8.7-5.77c2.96-2.09,7.1-0.44,7.85,3.1l2.71,12.64l3.68,17.15
      C276.9,570.81,275.67,572.34,274.01,572.34z"/>
  </g>
  <g fill="#172554">
    <path d="M414.81,569.55v-84.44c0-0.7,0.57-1.27,1.27-1.27h30.39c9.7,0,17.16,1.78,22.38,5.34
      c5.22,3.56,7.82,8.57,7.82,15.04c0,4.69-1.59,8.79-4.76,12.31c-3.17,3.52-7.23,5.96-12.16,7.34v0.24
      c6.19,0.77,11.13,3.05,14.83,6.85c3.7,3.8,5.55,8.43,5.55,13.89c0,7.97-2.85,14.28-8.55,18.95s-13.48,7.01-23.35,7.01h-32.15
      C415.38,570.82,414.81,570.26,414.81,569.55z M434.4,499.55v18.08c0,0.7,0.57,1.27,1.27,1.27h7.34c4.04,0,7.23-0.98,9.55-2.94
      c2.32-1.96,3.49-4.66,3.49-8.1c0-6.39-4.77-9.58-14.31-9.58h-6.07C434.97,498.28,434.4,498.85,434.4,499.55z M434.4,534.73v20.39
      c0,0.7,0.57,1.27,1.27,1.27h9.35c4.53,0,8.08-1.05,10.64-3.15c2.57-2.1,3.85-4.97,3.85-8.61c0-3.48-1.26-6.21-3.79-8.19
      c-2.53-1.98-6.06-2.97-10.58-2.97h-9.47C434.97,533.46,434.4,534.03,434.4,534.73z"/>
    <path d="M510.47,570.82h-16.63c-0.7,0-1.27-0.57-1.27-1.27v-89.41c0-0.7,0.57-1.27,1.27-1.27h16.63
      c0.7,0,1.27,0.57,1.27,1.27v89.41C511.73,570.26,511.17,570.82,510.47,570.82z"/>
    <path d="M585.61,570.82h-16.57c-0.7,0-1.27-0.57-1.27-1.27v-8.19h-0.3c-4.73,7.32-11.06,10.98-18.98,10.98
      c-14.39,0-21.59-8.71-21.59-26.14v-36.21c0-0.7,0.57-1.27,1.27-1.27h16.57c0.7,0,1.27,0.57,1.27,1.27v34.52
      c0,8.77,3.48,13.16,10.43,13.16c3.44,0,6.19-1.2,8.25-3.61c2.06-2.4,3.09-5.67,3.09-9.8v-34.27c0-0.7,0.57-1.27,1.27-1.27h16.57
      c0.7,0,1.27,0.57,1.27,1.27v59.57C586.88,570.26,586.31,570.82,585.61,570.82z"/>
    <path d="M656.28,545.23h-37.83c-0.78,0-1.37,0.71-1.26,1.48c1.15,8.03,6.77,12.04,16.89,12.04
      c6.03,0,11.42-1.26,16.16-3.78c0.84-0.45,1.86,0.16,1.86,1.11v10.86c0,0.48-0.26,0.93-0.69,1.14
      c-5.64,2.83-12.87,4.25-21.69,4.25c-10.03,0-17.81-2.78-23.35-8.34c-5.54-5.56-8.31-13.31-8.31-23.26
      c0-10.31,2.99-18.48,8.98-24.5c5.98-6.02,13.34-9.04,22.08-9.04c9.06,0,16.06,2.69,21.02,8.07c4.95,5.38,7.43,12.68,7.43,21.9
      v6.8C657.55,544.66,656.98,545.23,656.28,545.23z M638.48,533.46c0.71,0,1.3-0.58,1.27-1.3c-0.34-8.03-3.93-12.05-10.77-12.05
      c-3.07,0-5.73,1.27-7.98,3.82c-1.93,2.19-3.21,4.85-3.84,7.97c-0.16,0.8,0.43,1.55,1.24,1.55H638.48z"/>
    <path d="M668.69,501.01c0-7.08,2.3-12.78,6.91-17.1c4.61-4.33,10.88-6.49,18.8-6.49c3.43,0,6.36,0.32,8.78,0.95
      c0.55,0.14,0.92,0.66,0.92,1.23v12.17c0,0.85-0.82,1.46-1.64,1.21c-1.88-0.59-3.7-0.88-5.46-0.88c-6.15,0-9.22,3.34-9.22,10.01
      v5.34c0,0.7,0.57,1.27,1.27,1.27h11.65c0.7,0,1.27,0.57,1.27,1.27v11.59c0,0.7-0.57,1.27-1.27,1.27h-11.65
      c-0.7,0-1.27,0.57-1.27,1.27v45.44c0,0.7-0.57,1.27-1.27,1.27h-16.57c-0.7,0-1.27-0.57-1.27-1.27V501.01z"/>
    <path d="M724.71,498.89c-3.23,0-5.88-0.96-7.95-2.88c-2.06-1.92-3.09-4.28-3.09-7.07c0-2.87,1.03-5.22,3.09-7.04
      c2.06-1.82,4.71-2.73,7.95-2.73c3.28,0,5.93,0.91,7.98,2.73c2.04,1.82,3.06,4.16,3.06,7.04c0,2.91-1.02,5.3-3.06,7.16
      C730.65,497.96,727.99,498.89,724.71,498.89z M732.91,570.82h-16.63c-0.7,0-1.27-0.57-1.27-1.27v-59.57
      c0-0.7,0.57-1.27,1.27-1.27h16.63c0.7,0,1.27,0.57,1.27,1.27v59.57C734.17,570.26,733.61,570.82,732.91,570.82z"/>
    <path d="M807.75,570.82h-16.57c-0.7,0-1.27-0.57-1.27-1.27v-33.24c0-9.62-3.44-14.44-10.31-14.44
      c-3.32,0-6.04,1.27-8.19,3.82s-3.21,5.78-3.21,9.7v34.15c0,0.7-0.57,1.27-1.27,1.27h-16.63c-0.7,0-1.27-0.57-1.27-1.27v-59.57
      c0-0.7,0.57-1.27,1.27-1.27h16.63c0.7,0,1.27,0.57,1.27,1.27v8.56h0.24c4.57-7.56,11.22-11.34,19.95-11.34
      c13.75,0,20.62,8.53,20.62,25.59v36.76C809.02,570.26,808.46,570.82,807.75,570.82z"/>
  </g>
</g>
</svg>
