<svg class="hammer" width="38.963" height="38.963" version="1.1" viewBox="-50 -50 38.963 38.963" xmlns="http://www.w3.org/2000/svg" xmlns:xlink="http://www.w3.org/1999/xlink">
<defs>
<linearGradient id="gradient-dynamic-0" x1="2.6386" x2="21.207" y1="-25.154" y2="-25.154" gradientTransform="matrix(1.1222 0 0 .89111 -34.835 -27.158)" gradientUnits="userSpaceOnUse">
<stop stop-color="#cfcfcf" offset=".3"/>
<stop stop-color="#a8a8a8" offset="1"/>
</linearGradient>
<linearGradient id="gradient-dynamic-2" gradientTransform="rotate(45)">
<stop stop-color="#ffe507" offset=".3"/>
<stop stop-color="#ffc212" offset="1"/>
</linearGradient>
<linearGradient id="gradient-dynamic-3" x1=".9838" x2="18.783" y1="-22.214" y2="-4.4151" gradientTransform="matrix(.99105 0 0 1.009 -34.835 -27.158)" gradientUnits="userSpaceOnUse">
<stop stop-color="#e6e6e6" offset=".24486"/>
<stop stop-color="#c4c4c4" offset="1"/>
</linearGradient>
<linearGradient id="gradient-dynamic-4" x1="-10.921" x2="6.2121" y1="-9.2409" y2="-9.2409" gradientTransform="matrix(.95395 0 0 1.0483 -34.835 -27.158)" gradientUnits="userSpaceOnUse">
<stop stop-color="#b8b8b8" offset=".3"/>
<stop stop-color="#8a8a8a" offset="1"/>
</linearGradient>
<linearGradient id="linearGradient363" x1="-3.3413" x2="23.757" y1="-20.427" y2="-20.427" gradientTransform="matrix(.97267 0 0 1.0281 -34.835 -27.158)" gradientUnits="userSpaceOnUse">
<stop stop-color="#d6d6d6" offset=".3"/>
<stop stop-color="#b0afaf" offset="1"/>
</linearGradient>
<linearGradient id="linearGradient365" x1="2.4947" x2="15.201" y1="-14.102" y2="-14.102" gradientTransform="matrix(1.114 0 0 .89769 -34.835 -27.158)" gradientUnits="userSpaceOnUse" xlink:href="#gradient-dynamic-2"/>
<linearGradient id="linearGradient369" x1="-10.28" x2="5.1665" y1="-8.3843" y2="8.3843" gradientTransform="matrix(1.0135 0 0 .98672 -34.835 -27.158)" gradientUnits="userSpaceOnUse">
<stop stop-color="#d6d6d6" offset=".51489"/>
<stop stop-color="#949494" offset=".70064"/>
</linearGradient>
<linearGradient id="linearGradient377" x1="-10.17" x2="5.1113" y1="-8.4748" y2="8.4748" gradientTransform="matrix(1.0244 0 0 .97619 -34.835 -27.158)" gradientUnits="userSpaceOnUse">
<stop stop-color="#d6d6d6" offset=".5266"/>
<stop stop-color="#949494" offset=".71248"/>
</linearGradient>
<linearGradient id="linearGradient379" x1="-10.567" x2="5.3108" y1="-8.1565" y2="8.1565" gradientTransform="matrix(.98592 0 0 1.0143 -34.835 -27.158)" gradientUnits="userSpaceOnUse">
<stop stop-color="#ffb152" offset=".40996"/>
<stop stop-color="#aa5422" offset=".75403"/>
</linearGradient>
<linearGradient id="linearGradient383" x1="3.7162" x2="9.3085" y1="-10.06" y2="-10.06" gradientTransform="matrix(1.0273 0 0 .97347 -34.835 -27.158)" gradientUnits="userSpaceOnUse">
<stop stop-color="#ffb152" offset=".3"/>
<stop stop-color="#aa5422" offset="1"/>
</linearGradient>
<linearGradient id="linearGradient385" x1="-5.2089" x2="13.636" y1="-16.3" y2="2.5445" gradientTransform="matrix(.97267 0 0 1.0281 -34.835 -27.158)" gradientUnits="userSpaceOnUse">
<stop stop-color="#d6d6d6" offset=".17754"/>
<stop stop-color="#b0afaf" offset=".82015"/>
</linearGradient>
<linearGradient id="linearGradient387" x1="-2.4874" x2="10.223" y1="-12.267" y2=".44363" gradientTransform="matrix(.85151 0 0 1.1744 -34.835 -27.158)" gradientUnits="userSpaceOnUse">
<stop stop-color="#fff505" offset="0"/>
<stop stop-color="#ffa014" offset="1"/>
</linearGradient>
</defs>
<g stroke-linecap="round" stroke-linejoin="round">
<path d="m-40.071-38.26v2.829l1.986-1.414z" fill="#7d7d7d"/>
<path d="m-29.367-49.573-10.704 11.313 1.986 1.415 10.704-11.314z" fill="#9e9e9e"/>
<path d="m-22.431-20.299-1.986 1.414-15.654-16.546 1.986-1.414z" fill="#a8a8a8"/>
<path d="m-11.727-31.613-10.704 11.314-15.654-16.546 10.704-11.314z" fill="url(#linearGradient363)"/>
<path d="m-21.326-35.684-1.985 2.091 4.925 4.352-1e-3 1e-3 0.093 0.079 0.092 0.354-0.065 0.096-0.253-0.04-9.683-3.339-0.232-0.227-0.216-0.246 2.003-2.072-4.925-4.353h2e-3l-0.094-0.079-0.091-0.353 0.064-0.097 0.253 0.039 9.992 3.245 0.232 0.227z" fill="url(#linearGradient365)" stroke="url(#linearGradient365)" stroke-width=".6"/>
<path d="m-29.367-49.573h2.676l-0.69 1.414z" fill="#cfcfcf"/>
<path d="m-21.741-18.885h-2.676l1.986-1.414z" fill="#d6d6d6"/>
<path d="m-26.691-49.573-0.69 1.414 15.654 16.546 0.69-1.414z" fill="#a8a8a8"/>
</g>
<path d="m-44.769-16.657-2.007 2.121" color="#000000" stroke-width="8.4" style="-inkscape-stroke:none"/>
<path d="m-47.82-19.543-1.9434 2.0566-0.007812 0.005859c-0.12213 0.09372-0.19754 0.24293-0.21875 0.37695-0.04332 0.27378 0.04746 0.51012 0.18164 0.78516 0.26837 0.55008 0.79164 1.242 1.5312 2.0234 0.73911 0.78147 1.5324 1.4731 2.2422 1.9785 0.7098 0.50545 1.2853 0.85156 1.834 0.85156 0.13723 0 0.28525-0.02798 0.41211-0.12109 0.042142-0.030931 0.078293-0.068044 0.10937-0.10937l1.9609-2.0742-6.1016-5.7734z" color="#000000" fill="url(#linearGradient369)" style="-inkscape-stroke:none"/>
<g stroke-linecap="round" stroke-linejoin="round">
<path d="m-46.016-16.657c1.448 1.531 3.121 2.722 3.822 2.722 0.702 0 0.12-1.191-1.328-2.722-1.449-1.532-3.122-2.723-3.823-2.723s-0.12 1.191 1.329 2.723" fill="none" stroke="url(#linearGradient377)" stroke-width=".7"/>
<path d="m-11.037-30.199-10.704 11.314-0.69-1.414 10.704-11.314z" fill="#ebebeb"/>
<path d="m-45.253-38.26h5.182v2.829h-5.182z" fill="#a8a8a8"/>
<path d="m-11.037-30.199v-2.828l-0.69 1.414z" fill="#ededed"/>
<path d="m-45.253-38.26h5.182l10.704-11.313h-5.183z" fill="#ababab"/>
</g>
<path d="m-28.145-34.229-16.39 17.324" color="#000000" stroke-width="7.7" style="-inkscape-stroke:none"/>
<path d="m-30.941-36.875-16.367 17.299c-0.35092 0.24104 0.25248 1.3249 1.5273 2.6719 1.448 1.531 3.1213 2.7207 3.8223 2.7207 0.13162 0 0.21757-0.041008 0.26172-0.11914l16.35-17.281-5.5938-5.291z" color="#000000" fill="url(#linearGradient379)" style="-inkscape-stroke:none"/>
<g stroke-linecap="round" stroke-linejoin="round">
<path d="m-29.392-34.229c1.449 1.531 3.121 2.722 3.822 2.722 0.702 0 0.121-1.191-1.328-2.722s-3.121-2.722-3.823-2.722c-0.701 0-0.12 1.191 1.329 2.722" fill="url(#linearGradient383)"/>
<path d="m-24.417-18.885h-5.182l-15.654-16.546h5.182z" fill="#ababab"/>
<path d="m-34.55-49.573h7.859-5.183z" fill="#d9d9d9"/>
<path d="m-21.741-18.885h-7.858 5.182z" fill="#a8a8a8"/>
<path d="m-11.037-33.027h-5.183l-15.654-16.546h5.183z" fill="url(#gradient-dynamic-0)"/>
<path d="m-21.741-18.885h-5.182l10.703-11.314h5.183z" fill="#ababab"/>
<path d="m-45.253-38.26v2.829l0.69-1.414z" fill="#d6d6d6"/>
<path d="m-11.037-30.199h-5.183v-2.828h5.183z" fill="#d9d9d9"/>
<path d="m-34.55-49.573-10.703 11.313 0.69 1.415 10.703-11.314z" fill="#ebebeb"/>
<path d="m-44.563-36.845-0.69 1.414 15.654 16.546 0.69-1.414z" fill="url(#gradient-dynamic-4)"/>
<path d="m-34.55-49.573h2.676l-1.986 1.414z" fill="#ededed"/>
<path d="m-26.923-18.885h-2.676l0.69-1.414z" fill="#7d7d7d"/>
<path d="m-33.86-48.159-10.703 11.314 15.654 16.546 10.704-11.314z" fill="url(#linearGradient385)"/>
<path d="m-36.615-41.559a0.30003 0.30003 0 0 0-0.12695 0.054688l-0.089843 0.068359a0.30003 0.30003 0 0 0-0.11719 0.28125l0.03711 0.26758a0.30003 0.30003 0 0 0 0.009765 0.046875l3.1582 10.234a0.30003 0.30003 0 0 0 0.060547 0.10938l0.2168 0.24609a0.30003 0.30003 0 0 0 0.015625 0.017578l0.23242 0.22656a0.30003 0.30003 0 0 0 0.42969-0.009766l1.7227-1.8594 3.9004 4.9297a0.30003 0.30003 0 0 0 0.001954 0.001953l0.068359 0.089843a0.30003 0.30003 0 0 0 0.15625 0.10742l0.33594 0.097656a0.30003 0.30003 0 0 0 0.26172-0.048828l0.091797-0.068359a0.30003 0.30003 0 0 0 0.11719-0.28125l-0.03711-0.26758a0.30003 0.30003 0 0 0-0.007812-0.042969l-3.0703-10.559a0.30003 0.30003 0 0 0-0.0625-0.11328l-0.21289-0.24609a0.30003 0.30003 0 0 0-0.33594-0.083984l-0.30469 0.11914a0.30003 0.30003 0 0 0-0.10938 0.074218l-1.7402 1.8438-3.9023-4.9336a0.30003 0.30003 0 0 0-0.003906-0.001953l-0.068359-0.089844a0.30003 0.30003 0 0 0-0.15625-0.10742l-0.33398-0.097656a0.30003 0.30003 0 0 0-0.13672-0.00586z" color="#000000" fill="url(#linearGradient387)" stroke-width=".6" style="-inkscape-stroke:none"/>
<path d="m-16.22-33.027-1.985 1.414-15.655-16.546 1.986-1.414z" fill="url(#gradient-dynamic-3)"/>
<path d="m-16.22-30.199-10.703 11.314-1.986-1.414 10.704-11.314z" fill="#9e9e9e"/>
<path d="m-16.22-30.199v-2.828l-1.985 1.414z" fill="#cfcfcf"/>
</g>
<path d="m-38.777-28.594 5.2969 5.6035c-0.34941 0.37349-0.71482 0.7573-1.0758 1.1389l-5.3234-5.5773z" fill-opacity=".067224" stop-color="#000000" style="paint-order:markers fill stroke"/>
</svg>
