<svg class="hammer" width="39.264" height="39.264" version="1.1" viewBox="-50 -50 39.264 39.264" xmlns="http://www.w3.org/2000/svg" xmlns:xlink="http://www.w3.org/1999/xlink">
<defs>
<linearGradient id="gradient-dynamic-0" x1="2.3813" x2="21.574" y1="-25.393" y2="-6.2006" gradientTransform="scale(1.117 .89523)" gradientUnits="userSpaceOnUse">
<stop stop-color="#cfcfcf" offset=".22"/>
<stop stop-color="#a8a8a8" offset=".72"/>
</linearGradient>
<linearGradient id="gradient-dynamic-1" y2="1">
<stop stop-color="#d9d9d9" offset=".22"/>
<stop stop-color="#b0afaf" offset=".72"/>
</linearGradient>
<linearGradient id="gradient-dynamic-2" y2="1">
<stop stop-color="#ff0" offset=".22"/>
<stop stop-color="#ffdf00" offset=".72"/>
</linearGradient>
<linearGradient id="gradient-dynamic-3" x1=".68051" x2="19.099" y1="-22.516" y2="-4.0974" gradientTransform="scale(.99044 1.0097)" gradientUnits="userSpaceOnUse">
<stop stop-color="#dedede" offset=".22"/>
<stop stop-color="#c4c4c4" offset=".72"/>
</linearGradient>
<linearGradient id="gradient-dynamic-4" x1="-11.229" x2="6.5233" y1="-9.5515" y2="8.2008" gradientTransform="scale(.95458 1.0476)" gradientUnits="userSpaceOnUse">
<stop stop-color="#b8b8b8" offset=".22"/>
<stop stop-color="#8a8a8a" offset=".72"/>
</linearGradient>
<linearGradient id="gradient-dynamic-5" y2="1">
<stop stop-color="#ffb152" offset=".22"/>
<stop stop-color="#aa5422" offset=".72"/>
</linearGradient>
<linearGradient id="gradient-dynamic-6" y2="1">
<stop stop-color="#d6d6d6" offset=".22"/>
<stop stop-color="#949494" offset=".72"/>
</linearGradient>
<linearGradient id="linearGradient347" x1="-3.6508" x2="24.067" y1="-20.736" y2="6.9809" gradientTransform="scale(.97268 1.0281)" gradientUnits="userSpaceOnUse" xlink:href="#gradient-dynamic-1"/>
<linearGradient id="linearGradient349" x1="2.3755" x2="15.546" y1="-14.489" y2="-1.3182" gradientTransform="scale(1.1143 .89744)" gradientUnits="userSpaceOnUse" xlink:href="#gradient-dynamic-2"/>
<linearGradient id="linearGradient353" x1="-14.793" x2="-6.7919" y1="7.7168" y2="15.717" gradientTransform="scale(1.0135 .98672)" gradientUnits="userSpaceOnUse" xlink:href="#gradient-dynamic-6"/>
<linearGradient id="linearGradient355" x1="-14.804" x2="-8.5095" y1="9.7819" y2="16.077" gradientTransform="scale(1.0244 .97619)" gradientUnits="userSpaceOnUse" xlink:href="#gradient-dynamic-6"/>
<linearGradient id="linearGradient359" x1="-12.845" x2="-6.5503" y1="7.6092" y2="13.904" gradientTransform="scale(1.0244 .97619)" gradientUnits="userSpaceOnUse" xlink:href="#gradient-dynamic-6"/>
<linearGradient id="linearGradient363" x1="-12.675" x2="9.6222" y1="-9.5801" y2="12.717" gradientTransform="scale(.98592 1.0143)" gradientUnits="userSpaceOnUse" xlink:href="#gradient-dynamic-5"/>
<linearGradient id="linearGradient365" x1="-12.239" x2="-6.6467" y1="7.7362" y2="13.329" gradientTransform="scale(1.0273 .97347)" gradientUnits="userSpaceOnUse" xlink:href="#gradient-dynamic-5"/>
<linearGradient id="linearGradient367" x1="3.7162" x2="9.3085" y1="-10.06" y2="-4.4675" gradientTransform="scale(1.0273 .97347)" gradientUnits="userSpaceOnUse" xlink:href="#gradient-dynamic-5"/>
<linearGradient id="linearGradient369" x1="-10.311" x2="17.407" y1="-20.736" y2="6.9809" gradientTransform="scale(.97268 1.0281)" gradientUnits="userSpaceOnUse" xlink:href="#gradient-dynamic-1"/>
<linearGradient id="linearGradient371" x1="-2.5668" x2="10.609" y1="-12.614" y2=".56183" gradientTransform="scale(.85126 1.1747)" gradientUnits="userSpaceOnUse" xlink:href="#gradient-dynamic-2"/>
</defs>
<g transform="translate(-34.835 -26.848)">
<g stroke-linecap="round" stroke-linejoin="round">
<path d="m-5.537-11.42v2.829l1.986-1.415z" fill="#7d7d7d"/>
<path d="m5.167-22.733-10.704 11.313 1.986 1.414 10.704-11.313z" fill="#9e9e9e"/>
<path d="m12.705 7.177-1.986 1.414-16.256-17.182 1.986-1.415z" fill="#a8a8a8"/>
<path d="m23.409-4.137-10.704 11.314-16.256-17.183 10.704-11.313z" fill="url(#linearGradient347)"/>
<path d="m13.778-8.724-2.061 2.172 5.114 4.52-1e-3 1e-3 0.098 0.082 0.095 0.367-0.067 0.099-0.263-0.04-10.055-3.468-0.242-0.236-0.224-0.255 2.08-2.153-5.114-4.519 2e-3 -1e-3 -0.098-0.082-0.095-0.367 0.067-0.099 0.263 0.04 10.375 3.37 0.242 0.235z" fill="url(#linearGradient349)" stroke="url(#linearGradient349)" stroke-width=".6"/>
<path d="m5.167-22.733h2.676l-0.69 1.414z" fill="#cfcfcf"/>
<path d="m13.395 8.591h-2.676l1.986-1.414z" fill="#dedede"/>
<path d="m7.843-22.733-0.69 1.414 16.256 17.182 0.69-1.414z" fill="#a8a8a8"/>
</g>
<path d="m-9.934 10.501-2.007 2.121" stroke="url(#linearGradient353)" stroke-width="8.4"/>
<g stroke-linecap="round" stroke-linejoin="round">
<path d="m-13.188 12.622c-1.449-1.531-2.03-2.723-1.329-2.723 0.702 0 2.374 1.192 3.823 2.723 1.448 1.531 2.03 2.722 1.328 2.722-0.701 0-2.374-1.191-3.822-2.722" fill="url(#linearGradient355)" stroke="url(#linearGradient355)" stroke-width=".7"/>
<path d="m-11.181 10.501c1.448 1.531 3.121 2.722 3.822 2.722 0.702 0 0.12-1.191-1.328-2.722-1.449-1.532-3.122-2.723-3.823-2.723s-0.12 1.191 1.329 2.723" fill="url(#linearGradient359)" stroke="url(#linearGradient359)" stroke-width=".7"/>
<path d="m24.099-2.722-10.704 11.313-0.69-1.414 10.704-11.314z" fill="#d1d1d1"/>
<path d="m-10.719-11.42h5.182v2.829h-5.182z" fill="#a8a8a8"/>
<path d="m24.099-2.722v-2.829l-0.69 1.414z" fill="#dedede"/>
<path d="m-10.719-11.42h5.182l10.704-11.313h-5.183z" fill="#ababab"/>
</g>
<path d="m6.69-7.071-16.39 17.324" stroke="url(#linearGradient363)" stroke-width="7.7"/>
<g stroke-linecap="round" stroke-linejoin="round">
<path d="m-10.947 10.253c-1.449-1.531-2.03-2.722-1.329-2.722 0.702 0 2.374 1.191 3.823 2.722s2.03 2.722 1.328 2.722c-0.701 0-2.374-1.191-3.822-2.722" fill="url(#linearGradient365)"/>
<path d="m5.443-7.071c1.449 1.531 3.121 2.722 3.822 2.722 0.702 0 0.121-1.191-1.328-2.722s-3.121-2.722-3.823-2.722c-0.701 0-0.12 1.191 1.329 2.722" fill="url(#linearGradient367)"/>
<path d="m10.719 8.591h-5.182l-16.256-17.182h5.182z" fill="#ababab"/>
<path d="m-0.016-22.733h7.859-5.183z" fill="#dcdbdb"/>
<path d="m13.395 8.591h-7.858 5.182z" fill="#a8a8a8"/>
<path d="m24.099-5.551h-5.183l-16.256-17.182h5.183z" fill="url(#gradient-dynamic-0)"/>
<path d="m13.395 8.591h-5.182l10.703-11.313h5.183z" fill="#ababab"/>
<path d="m-10.719-11.42v2.829l0.69-1.415z" fill="#dedede"/>
<path d="m24.099-2.722h-5.183v-2.829h5.183z" fill="#dcdbdb"/>
<path d="m-0.016-22.733-10.703 11.313 0.69 1.414 10.703-11.313z" fill="#d1d1d1"/>
<path d="m-10.029-10.006-0.69 1.415 16.256 17.182 0.69-1.414z" fill="url(#gradient-dynamic-4)"/>
<path d="m-0.016-22.733h2.676l-1.986 1.414z" fill="#dedede"/>
<path d="m8.213 8.591h-2.676l0.69-1.414z" fill="#7d7d7d"/>
<path d="m0.674-21.319-10.703 11.313 16.256 17.183 10.704-11.314z" fill="url(#linearGradient369)"/>
<path d="m4.966-11.088-2.055 2.179-4.276-5.406-1e-3 1e-3 -0.078-0.103-0.347-0.101-0.094 0.071 0.038 0.278 3.281 10.628 0.223 0.256 0.242 0.236 2.036-2.198 4.276 5.406 1e-3 -2e-3 0.077 0.102 0.347 0.101 0.095-0.071-0.038-0.278-3.188-10.966-0.223-0.256z" fill="url(#linearGradient371)" stroke="url(#linearGradient371)" stroke-width=".6"/>
<path d="m18.916-5.551-1.985 1.414-16.257-17.182 1.986-1.414z" fill="url(#gradient-dynamic-3)"/>
<path d="m18.916-2.722-10.703 11.313-1.986-1.414 10.704-11.314z" fill="#9e9e9e"/>
<path d="m18.916-2.722v-2.829l-1.985 1.414z" fill="#cfcfcf"/>
</g>
</g>
</svg>
