<svg class="hammer" width="39.733" height="38.922" version="1.1" viewBox="-50 -50 39.733 38.922" xmlns="http://www.w3.org/2000/svg" xmlns:xlink="http://www.w3.org/1999/xlink">
<defs>
<linearGradient id="gradient-dynamic-0" x1="2.3813" x2="21.574" y1="-25.393" y2="-6.2006" gradientTransform="scale(1.117 .89523)" gradientUnits="userSpaceOnUse">
<stop stop-color="#c2c2c2" offset=".22"/>
<stop stop-color="#929090" offset=".72"/>
</linearGradient>
<linearGradient id="gradient-dynamic-1" y2="1">
<stop stop-color="#c9c9c9" offset=".22"/>
<stop stop-color="#8c8c8c" offset=".72"/>
</linearGradient>
<linearGradient id="gradient-dynamic-2" x1="-2.488" x2="10.687" y1="-12.674" y2=".50141" gradientTransform="scale(.85129 1.1747)" gradientUnits="userSpaceOnUse">
<stop stop-color="#ff0" offset=".22"/>
<stop stop-color="#ffc000" offset=".72"/>
</linearGradient>
<linearGradient id="gradient-dynamic-3" x1=".68051" x2="19.099" y1="-22.516" y2="-4.0974" gradientTransform="scale(.99044 1.0097)" gradientUnits="userSpaceOnUse">
<stop stop-color="#dedede" offset=".22"/>
<stop stop-color="#ababab" offset=".72"/>
</linearGradient>
<linearGradient id="gradient-dynamic-4" x1="-11.229" x2="6.5233" y1="-9.5515" y2="8.2008" gradientTransform="scale(.95458 1.0476)" gradientUnits="userSpaceOnUse">
<stop stop-color="#ababab" offset=".22"/>
<stop stop-color="#757575" offset=".72"/>
</linearGradient>
<linearGradient id="gradient-dynamic-5" y2="1">
<stop stop-color="#ffae00" offset=".22"/>
<stop stop-color="#ac501b" offset=".72"/>
</linearGradient>
<linearGradient id="gradient-dynamic-6" y2="1">
<stop stop-color="#b0b0b0" offset=".22"/>
<stop stop-color="#878787" offset=".72"/>
</linearGradient>
<linearGradient id="linearGradient345" x1="-3.6508" x2="24.067" y1="-20.736" y2="6.9809" gradientTransform="scale(.97268 1.0281)" gradientUnits="userSpaceOnUse" xlink:href="#gradient-dynamic-1"/>
<linearGradient id="linearGradient347" x1="-15.266" x2="-7.1269" y1="8.0695" y2="16.208" gradientTransform="scale(1.0128 .98737)" gradientUnits="userSpaceOnUse" xlink:href="#gradient-dynamic-6"/>
<linearGradient id="linearGradient349" x1="-15.262" x2="-8.9668" y1="10.289" y2="16.584" gradientTransform="scale(1.0244 .97619)" gradientUnits="userSpaceOnUse" xlink:href="#gradient-dynamic-6"/>
<linearGradient id="linearGradient353" x1="-13.171" x2="-6.8761" y1="7.9726" y2="14.267" gradientTransform="scale(1.0245 .97609)" gradientUnits="userSpaceOnUse" xlink:href="#gradient-dynamic-6"/>
<linearGradient id="linearGradient357" x1="-13.018" x2="9.6242" y1="-9.5781" y2="13.064" gradientTransform="scale(.98572 1.0145)" gradientUnits="userSpaceOnUse" xlink:href="#gradient-dynamic-5"/>
<linearGradient id="linearGradient359" x1="-12.566" x2="-6.9731" y1="8.0981" y2="13.691" gradientTransform="scale(1.0272 .97356)" gradientUnits="userSpaceOnUse" xlink:href="#gradient-dynamic-5"/>
<linearGradient id="linearGradient361" x1="3.7162" x2="9.3085" y1="-10.06" y2="-4.4675" gradientTransform="scale(1.0273 .97347)" gradientUnits="userSpaceOnUse" xlink:href="#gradient-dynamic-5"/>
<linearGradient id="linearGradient363" x1="-10.311" x2="17.407" y1="-20.736" y2="6.9809" gradientTransform="scale(.97268 1.0281)" gradientUnits="userSpaceOnUse" xlink:href="#gradient-dynamic-1"/>
</defs>
<g transform="translate(-34.366 -27.267)">
<g stroke-linecap="round" stroke-linejoin="round">
<path d="m-5.537-11.42v2.829l1.986-1.415z" fill="#7d7d7d"/>
<path d="m5.167-22.733-10.704 11.313 1.986 1.414 10.704-11.313z" fill="#a3a3a3"/>
<path d="m12.705 7.177-1.986 1.414-16.256-17.182 1.986-1.415z" fill="#e3e3e3"/>
<path d="m23.409-4.137-10.704 11.314-16.256-17.183 10.704-11.313z" fill="url(#linearGradient345)"/>
<path d="m5.167-22.733h2.676l-0.69 1.414z" fill="#b5b5b5"/>
<path d="m13.395 8.591h-2.676l1.986-1.414z" fill="#cfcfcf"/>
<path d="m7.843-22.733-0.69 1.414 16.256 17.182 0.69-1.414z" fill="#e3e3e3"/>
</g>
<path d="m-10.269 10.854-2.141 2.263" stroke="url(#linearGradient347)" stroke-width="8.4"/>
<g stroke-linecap="round" stroke-linejoin="round">
<path d="m-13.657 13.117c-1.448-1.531-2.03-2.723-1.328-2.723 0.701 0 2.374 1.192 3.822 2.723 1.449 1.531 2.03 2.722 1.329 2.722-0.702 0-2.374-1.191-3.823-2.722" fill="url(#linearGradient349)" stroke="url(#linearGradient349)" stroke-width=".7"/>
<path d="m-11.516 10.854c1.449 1.531 3.121 2.722 3.823 2.722 0.701 0 0.12-1.191-1.329-2.722s-3.121-2.722-3.822-2.722c-0.702 0-0.121 1.191 1.328 2.722" fill="url(#linearGradient353)" stroke="url(#linearGradient353)" stroke-width=".7"/>
<path d="m24.099-2.722-10.704 11.313-0.69-1.414 10.704-11.314z" fill="#d1d1d1"/>
<path d="m-10.719-11.42h5.182v2.829h-5.182z" fill="#e3e3e3"/>
<path d="m24.099-2.722v-2.829l-0.69 1.414z" fill="#dedede"/>
<path d="m-10.719-11.42h5.182l10.704-11.313h-5.183z" fill="#878787"/>
</g>
<path d="m6.69-7.071-16.725 17.678" stroke="url(#linearGradient357)" stroke-width="7.7"/>
<g stroke-linecap="round" stroke-linejoin="round">
<path d="m-11.282 10.607c-1.449-1.532-2.03-2.723-1.328-2.723 0.701 0 2.374 1.191 3.822 2.723 1.449 1.531 2.03 2.722 1.329 2.722-0.702 0-2.374-1.191-3.823-2.722" fill="url(#linearGradient359)"/>
<path d="m5.443-7.071c1.449 1.531 3.121 2.722 3.822 2.722 0.702 0 0.121-1.191-1.328-2.722s-3.121-2.722-3.823-2.722c-0.701 0-0.12 1.191 1.329 2.722" fill="url(#linearGradient361)"/>
<path d="m10.719 8.591h-5.182l-16.256-17.182h5.182z" fill="#878787"/>
<path d="m-0.016-22.733h7.859-5.183z" fill="#a3a3a3"/>
<path d="m13.395 8.591h-7.858 5.182z" fill="#e3e3e3"/>
<path d="m24.099-5.551h-5.183l-16.256-17.182h5.183z" fill="url(#gradient-dynamic-0)"/>
<path d="m13.395 8.591h-5.182l10.703-11.313h5.183z" fill="#878787"/>
<path d="m-10.719-11.42v2.829l0.69-1.415z" fill="#cfcfcf"/>
<path d="m24.099-2.722h-5.183v-2.829h5.183z" fill="#a3a3a3"/>
<path d="m-0.016-22.733-10.703 11.313 0.69 1.414 10.703-11.313z" fill="#d1d1d1"/>
<path d="m-10.029-10.006-0.69 1.415 16.256 17.182 0.69-1.414z" fill="url(#gradient-dynamic-4)"/>
<path d="m-0.016-22.733h2.676l-1.986 1.414z" fill="#dedede"/>
<path d="m8.213 8.591h-2.676l0.69-1.414z" fill="#7d7d7d"/>
<path d="m0.674-21.319-10.703 11.313 16.256 17.183 10.704-11.314z" fill="url(#linearGradient363)"/>
<path d="m5.033-11.159-2.055 2.179-4.276-5.406-1e-3 1e-3 -0.078-0.103-0.347-0.1-0.094 0.07 0.038 0.278 3.281 10.629 0.223 0.255 0.242 0.236 2.036-2.198 4.276 5.406 1e-3 -2e-3 0.077 0.103 0.347 0.1 0.095-0.071-0.039-0.277-3.188-10.967-0.222-0.256z" fill="url(#gradient-dynamic-2)" stroke="url(#gradient-dynamic-2)" stroke-width=".6"/>
<path d="m18.916-5.551-1.985 1.414-16.257-17.182 1.986-1.414z" fill="url(#gradient-dynamic-3)"/>
<path d="m18.916-2.722-10.703 11.313-1.986-1.414 10.704-11.314z" fill="#a3a3a3"/>
<path d="m18.916-2.722v-2.829l-1.985 1.414z" fill="#b5b5b5"/>
</g>
</g>
</svg>
