<svg width="413" height="180" viewBox="0 0 413 180" fill="none" xmlns="http://www.w3.org/2000/svg">
<g clip-path="url(#clip0_461_2)">
<path d="M407.651 0H5.34898C2.39482 0 0 2.39482 0 5.34898V174.651C0 177.605 2.39482 180 5.34898 180H407.651C410.605 180 413 177.605 413 174.651V5.34898C413 2.39482 410.605 0 407.651 0Z" fill="#E3E3E9" fill-opacity="0.4"/>
<path d="M6 7.76148C6 6.78864 6.78864 6 7.76148 6C8.73431 6 9.52295 6.78864 9.52295 7.76148C9.52295 8.73431 8.73431 9.52295 7.76148 9.52295C6.78864 9.52295 6 8.73431 6 7.76148Z" fill="#B8B8C5"/>
<path d="M403.5 7.76148C403.5 6.78864 404.289 6 405.261 6C406.234 6 407.023 6.78864 407.023 7.76148C407.023 8.73431 406.234 9.52295 405.261 9.52295C404.289 9.52295 403.5 8.73431 403.5 7.76148Z" fill="#B8B8C5"/>
<path d="M158.359 15.6362H160.623L164.559 25.247H164.704L168.64 15.6362H170.904V27.9998H169.129V19.0531H169.014L165.368 27.9817H163.895L160.249 19.047H160.134V27.9998H158.359V15.6362ZM175.482 15.6362V27.9998H173.616V15.6362H175.482ZM177.588 17.242V15.6362H187.157V17.242H183.299V27.9998H181.44V17.242H177.588ZM193.77 27.9998V15.6362H195.636V26.394H201.238V27.9998H193.77ZM203.221 27.9998V18.7271H205.026V27.9998H203.221ZM204.133 17.2963C203.819 17.2963 203.549 17.1917 203.324 16.9824C203.103 16.7691 202.992 16.5155 202.992 16.2217C202.992 15.9239 203.103 15.6704 203.324 15.4611C203.549 15.2478 203.819 15.1411 204.133 15.1411C204.447 15.1411 204.714 15.2478 204.936 15.4611C205.161 15.6704 205.274 15.9239 205.274 16.2217C205.274 16.5155 205.161 16.7691 204.936 16.9824C204.714 17.1917 204.447 17.2963 204.133 17.2963ZM211.361 28.1869C210.463 28.1869 209.69 27.9837 209.042 27.5772C208.398 27.1667 207.903 26.6012 207.557 25.8808C207.211 25.1604 207.038 24.3354 207.038 23.4057C207.038 22.4639 207.215 21.6328 207.569 20.9124C207.924 20.188 208.423 19.6226 209.067 19.2161C209.71 18.8096 210.469 18.6063 211.342 18.6063C212.047 18.6063 212.675 18.7371 213.226 18.9987C213.777 19.2563 214.222 19.6185 214.56 20.0854C214.902 20.5522 215.105 21.0976 215.17 21.7214H213.413C213.317 21.2867 213.095 20.9124 212.749 20.5985C212.407 20.2846 211.948 20.1276 211.373 20.1276C210.87 20.1276 210.429 20.2605 210.051 20.5261C209.676 20.7877 209.384 21.162 209.175 21.6489C208.966 22.1319 208.861 22.7034 208.861 23.3634C208.861 24.0396 208.964 24.6231 209.169 25.1141C209.374 25.6052 209.664 25.9855 210.038 26.2551C210.417 26.5248 210.861 26.6596 211.373 26.6596C211.715 26.6596 212.025 26.5972 212.302 26.4725C212.584 26.3437 212.819 26.1605 213.009 25.9231C213.202 25.6856 213.337 25.3999 213.413 25.0659H215.17C215.105 25.6655 214.91 26.2008 214.584 26.6717C214.258 27.1426 213.822 27.5128 213.274 27.7825C212.731 28.0521 212.093 28.1869 211.361 28.1869ZM221.097 28.1869C220.183 28.1869 219.396 27.9918 218.736 27.6014C218.08 27.2069 217.573 26.6536 217.215 25.9412C216.861 25.2248 216.684 24.3857 216.684 23.4238C216.684 22.474 216.861 21.6369 217.215 20.9124C217.573 20.188 218.072 19.6226 218.712 19.2161C219.356 18.8096 220.109 18.6063 220.97 18.6063C221.493 18.6063 222 18.6929 222.491 18.8659C222.982 19.039 223.423 19.3106 223.813 19.6809C224.204 20.0512 224.512 20.5321 224.737 21.1237C224.962 21.7113 225.075 22.4257 225.075 23.2668V23.9068H217.704V22.5545H223.306C223.306 22.0796 223.21 21.659 223.016 21.2928C222.823 20.9225 222.552 20.6307 222.201 20.4174C221.855 20.2041 221.449 20.0975 220.982 20.0975C220.475 20.0975 220.032 20.2222 219.654 20.4717C219.279 20.7172 218.99 21.0392 218.784 21.4377C218.583 21.8321 218.483 22.2607 218.483 22.7235V23.78C218.483 24.3998 218.591 24.927 218.809 25.3617C219.03 25.7963 219.338 26.1284 219.732 26.3578C220.127 26.5831 220.587 26.6958 221.115 26.6958C221.457 26.6958 221.769 26.6475 222.05 26.5509C222.332 26.4503 222.576 26.3014 222.781 26.1042C222.986 25.907 223.143 25.6635 223.252 25.3737L224.96 25.6816C224.823 26.1847 224.578 26.6254 224.224 27.0037C223.874 27.378 223.433 27.6698 222.902 27.8791C222.374 28.0843 221.773 28.1869 221.097 28.1869ZM228.883 22.4941V27.9998H227.078V18.7271H228.81V20.2363H228.925C229.138 19.7453 229.472 19.3509 229.927 19.0531C230.386 18.7552 230.963 18.6063 231.66 18.6063C232.292 18.6063 232.845 18.7391 233.32 19.0048C233.795 19.2664 234.163 19.6568 234.425 20.1759C234.686 20.6951 234.817 21.337 234.817 22.1017V27.9998H233.012V22.319C233.012 21.6469 232.837 21.1217 232.487 20.7434C232.137 20.3611 231.656 20.1699 231.044 20.1699C230.625 20.1699 230.253 20.2605 229.927 20.4416C229.605 20.6227 229.35 20.8883 229.16 21.2384C228.975 21.5846 228.883 22.0031 228.883 22.4941ZM241.144 28.1869C240.246 28.1869 239.474 27.9837 238.826 27.5772C238.182 27.1667 237.687 26.6012 237.34 25.8808C236.994 25.1604 236.821 24.3354 236.821 23.4057C236.821 22.4639 236.998 21.6328 237.353 20.9124C237.707 20.188 238.206 19.6226 238.85 19.2161C239.494 18.8096 240.252 18.6063 241.126 18.6063C241.83 18.6063 242.458 18.7371 243.009 18.9987C243.561 19.2563 244.005 19.6185 244.343 20.0854C244.685 20.5522 244.889 21.0976 244.953 21.7214H243.196C243.1 21.2867 242.878 20.9124 242.532 20.5985C242.19 20.2846 241.731 20.1276 241.156 20.1276C240.653 20.1276 240.212 20.2605 239.834 20.5261C239.459 20.7877 239.168 21.162 238.958 21.6489C238.749 22.1319 238.644 22.7034 238.644 23.3634C238.644 24.0396 238.747 24.6231 238.952 25.1141C239.158 25.6052 239.447 25.9855 239.822 26.2551C240.2 26.5248 240.645 26.6596 241.156 26.6596C241.498 26.6596 241.808 26.5972 242.086 26.4725C242.367 26.3437 242.603 26.1605 242.792 25.9231C242.985 25.6856 243.12 25.3999 243.196 25.0659H244.953C244.889 25.6655 244.693 26.2008 244.367 26.6717C244.041 27.1426 243.605 27.5128 243.057 27.7825C242.514 28.0521 241.876 28.1869 241.144 28.1869ZM250.88 28.1869C249.966 28.1869 249.179 27.9918 248.519 27.6014C247.863 27.2069 247.356 26.6536 246.998 25.9412C246.644 25.2248 246.467 24.3857 246.467 23.4238C246.467 22.474 246.644 21.6369 246.998 20.9124C247.356 20.188 247.855 19.6226 248.495 19.2161C249.139 18.8096 249.892 18.6063 250.753 18.6063C251.276 18.6063 251.783 18.6929 252.274 18.8659C252.765 19.039 253.206 19.3106 253.596 19.6809C253.987 20.0512 254.295 20.5321 254.52 21.1237C254.745 21.7113 254.858 22.4257 254.858 23.2668V23.9068H247.487V22.5545H253.089C253.089 22.0796 252.993 21.659 252.8 21.2928C252.606 20.9225 252.335 20.6307 251.985 20.4174C251.638 20.2041 251.232 20.0975 250.765 20.0975C250.258 20.0975 249.815 20.2222 249.437 20.4717C249.063 20.7172 248.773 21.0392 248.568 21.4377C248.366 21.8321 248.266 22.2607 248.266 22.7235V23.78C248.266 24.3998 248.374 24.927 248.592 25.3617C248.813 25.7963 249.121 26.1284 249.515 26.3578C249.91 26.5831 250.371 26.6958 250.898 26.6958C251.24 26.6958 251.552 26.6475 251.834 26.5509C252.115 26.4503 252.359 26.3014 252.564 26.1042C252.769 25.907 252.926 25.6635 253.035 25.3737L254.743 25.6816C254.607 26.1847 254.361 26.6254 254.007 27.0037C253.657 27.378 253.216 27.6698 252.685 27.8791C252.158 28.0843 251.556 28.1869 250.88 28.1869Z" fill="black"/>
<path d="M6 172.761C6 171.789 6.78864 171 7.76148 171C8.73431 171 9.52295 171.789 9.52295 172.761C9.52295 173.734 8.73431 174.523 7.76148 174.523C6.78864 174.523 6 173.734 6 172.761Z" fill="#B8B8C5"/>
<path d="M403.5 172.761C403.5 171.789 404.289 171 405.261 171C406.234 171 407.023 171.789 407.023 172.761C407.023 173.734 406.234 174.523 405.261 174.523C404.289 174.523 403.5 173.734 403.5 172.761Z" fill="#B8B8C5"/>
<path d="M139.652 50.3345H24.3506C21.5811 50.3345 19.3359 52.5796 19.3359 55.3491V156.651C19.3359 159.42 21.5811 161.665 24.3506 161.665H139.652C142.422 161.665 144.667 159.42 144.667 156.651V55.3491C144.667 52.5796 142.422 50.3345 139.652 50.3345Z" fill="white"/>
<path d="M139.652 50.3345H24.3506C21.5811 50.3345 19.3359 52.5796 19.3359 55.3491V156.651C19.3359 159.42 21.5811 161.665 24.3506 161.665H139.652C142.422 161.665 144.667 159.42 144.667 156.651V55.3491C144.667 52.5796 142.422 50.3345 139.652 50.3345Z" stroke="#D6D6D6" stroke-width="0.668622"/>
<path d="M45.9141 74.0352V62.3647H52.9574V63.6184H47.3273V67.5617H52.5927V68.8154H47.3273V72.7815H53.0486V74.0352H45.9141ZM56.6672 68.7698V74.0352H55.3223V65.2823H56.6216V66.65H56.7355C56.9407 66.2055 57.2522 65.8484 57.6701 65.5786C58.088 65.3051 58.6274 65.1683 59.2885 65.1683C59.8811 65.1683 60.3997 65.2899 60.8441 65.5331C61.2886 65.7724 61.6343 66.1371 61.8813 66.6272C62.1282 67.1134 62.2517 67.7289 62.2517 68.4735V74.0352H60.9068V68.5646C60.9068 67.877 60.7283 67.3414 60.3712 66.9577C60.0141 66.5702 59.524 66.3764 58.901 66.3764C58.4717 66.3764 58.088 66.4695 57.7499 66.6557C57.4156 66.8418 57.1515 67.1134 56.9578 67.4705C56.764 67.8276 56.6672 68.2607 56.6672 68.7698ZM68.2422 77.4999C67.5926 77.4999 67.0341 77.4163 66.5669 77.2491C66.0996 77.0858 65.7102 76.8692 65.3987 76.5995C65.0909 76.3336 64.8459 76.0487 64.6636 75.7447L65.7349 74.9925C65.8564 75.1521 66.0103 75.3344 66.1964 75.5396C66.3826 75.7485 66.6371 75.929 66.96 76.0809C67.2868 76.2367 67.7141 76.3146 68.2422 76.3146C68.9488 76.3146 69.532 76.1436 69.9916 75.8017C70.4513 75.4598 70.6812 74.9242 70.6812 74.1947V72.4168H70.5672C70.4684 72.5764 70.3279 72.7739 70.1455 73.0095C69.9669 73.2412 69.7086 73.4482 69.3705 73.6306C69.0362 73.8091 68.5841 73.8984 68.0143 73.8984C67.3077 73.8984 66.6732 73.7313 66.111 73.397C65.5525 73.0626 65.1099 72.5764 64.7832 71.9381C64.4603 71.2999 64.2989 70.5249 64.2989 69.6132C64.2989 68.7166 64.4565 67.9359 64.7718 67.2711C65.0871 66.6025 65.5259 66.0858 66.0882 65.7211C66.6504 65.3526 67.3001 65.1683 68.0371 65.1683C68.6069 65.1683 69.059 65.2633 69.3933 65.4533C69.7314 65.6394 69.9897 65.8522 70.1683 66.0915C70.3506 66.327 70.4912 66.5208 70.59 66.6727H70.7267V65.2823H72.026V74.2859C72.026 75.0381 71.855 75.6498 71.5131 76.1208C71.175 76.5957 70.7191 76.9433 70.1455 77.1637C69.5757 77.3878 68.9412 77.4999 68.2422 77.4999ZM68.1966 72.6903C68.7361 72.6903 69.192 72.5669 69.5643 72.3199C69.9366 72.073 70.2196 71.7178 70.4133 71.2543C70.6071 70.7909 70.7039 70.2362 70.7039 69.5904C70.7039 68.9597 70.609 68.4032 70.419 67.9207C70.2291 67.4382 69.948 67.0602 69.5757 66.7867C69.2033 66.5132 68.7437 66.3764 68.1966 66.3764C67.6268 66.3764 67.1519 66.5208 66.772 66.8095C66.3959 67.0982 66.1129 67.4857 65.9229 67.972C65.7368 68.4583 65.6437 68.9977 65.6437 69.5904C65.6437 70.1982 65.7387 70.7358 65.9286 71.203C66.1224 71.6665 66.4073 72.0312 66.7834 72.2972C67.1633 72.5593 67.6344 72.6903 68.1966 72.6903ZM74.4877 74.0352V65.2823H75.8326V74.0352H74.4877ZM75.1716 63.8235C74.9094 63.8235 74.6834 63.7342 74.4934 63.5557C74.3073 63.3771 74.2142 63.1625 74.2142 62.9118C74.2142 62.661 74.3073 62.4464 74.4934 62.2678C74.6834 62.0893 74.9094 62 75.1716 62C75.4337 62 75.6578 62.0893 75.844 62.2678C76.0339 62.4464 76.1289 62.661 76.1289 62.9118C76.1289 63.1625 76.0339 63.3771 75.844 63.5557C75.6578 63.7342 75.4337 63.8235 75.1716 63.8235ZM79.6406 68.7698V74.0352H78.2958V65.2823H79.595V66.65H79.709C79.9141 66.2055 80.2256 65.8484 80.6435 65.5786C81.0614 65.3051 81.6009 65.1683 82.2619 65.1683C82.8545 65.1683 83.3731 65.2899 83.8176 65.5331C84.2621 65.7724 84.6078 66.1371 84.8547 66.6272C85.1016 67.1134 85.2251 67.7289 85.2251 68.4735V74.0352H83.8803V68.5646C83.8803 67.877 83.7017 67.3414 83.3446 66.9577C82.9875 66.5702 82.4974 66.3764 81.8744 66.3764C81.4451 66.3764 81.0614 66.4695 80.7233 66.6557C80.389 66.8418 80.125 67.1134 79.9312 67.4705C79.7375 67.8276 79.6406 68.2607 79.6406 68.7698ZM91.3524 74.2175C90.509 74.2175 89.7815 74.0314 89.1699 73.6591C88.562 73.283 88.0929 72.7587 87.7624 72.0863C87.4356 71.4101 87.2723 70.6237 87.2723 69.7271C87.2723 68.8306 87.4356 68.0404 87.7624 67.3566C88.0929 66.6689 88.5526 66.1333 89.1414 65.7496C89.734 65.3621 90.4255 65.1683 91.2156 65.1683C91.6715 65.1683 92.1217 65.2443 92.5662 65.3963C93.0107 65.5482 93.4153 65.7952 93.78 66.1371C94.1447 66.4752 94.4353 66.9235 94.6518 67.4819C94.8684 68.0404 94.9766 68.728 94.9766 69.5448V70.1146H88.2296V68.9521H93.609C93.609 68.4583 93.5102 68.0176 93.3127 67.6301C93.1189 67.2426 92.8416 66.9368 92.4807 66.7126C92.1236 66.4885 91.7019 66.3764 91.2156 66.3764C90.68 66.3764 90.2165 66.5094 89.8252 66.7753C89.4377 67.0375 89.1395 67.3794 88.9305 67.801C88.7216 68.2227 88.6171 68.6748 88.6171 69.1573V69.9323C88.6171 70.5933 88.7311 71.1537 88.959 71.6133C89.1908 72.0692 89.5118 72.4168 89.9221 72.6562C90.3324 72.8917 90.8091 73.0095 91.3524 73.0095C91.7057 73.0095 92.0248 72.9601 92.3098 72.8613C92.5985 72.7587 92.8473 72.6068 93.0563 72.4054C93.2652 72.2003 93.4267 71.9457 93.5406 71.6418L94.8399 72.0065C94.7031 72.4472 94.4733 72.8347 94.1504 73.169C93.8274 73.4995 93.4286 73.7579 92.9537 73.944C92.4788 74.1264 91.945 74.2175 91.3524 74.2175ZM100.692 74.2175C99.8488 74.2175 99.1213 74.0314 98.5097 73.6591C97.9019 73.283 97.4327 72.7587 97.1022 72.0863C96.7755 71.4101 96.6121 70.6237 96.6121 69.7271C96.6121 68.8306 96.7755 68.0404 97.1022 67.3566C97.4327 66.6689 97.8924 66.1333 98.4812 65.7496C99.0738 65.3621 99.7653 65.1683 100.556 65.1683C101.011 65.1683 101.462 65.2443 101.906 65.3963C102.351 65.5482 102.755 65.7952 103.12 66.1371C103.485 66.4752 103.775 66.9235 103.992 67.4819C104.208 68.0404 104.317 68.728 104.317 69.5448V70.1146H97.5694V68.9521H102.949C102.949 68.4583 102.85 68.0176 102.653 67.6301C102.459 67.2426 102.182 66.9368 101.821 66.7126C101.464 66.4885 101.042 66.3764 100.556 66.3764C100.02 66.3764 99.5563 66.5094 99.165 66.7753C98.7775 67.0375 98.4793 67.3794 98.2704 67.801C98.0614 68.2227 97.9569 68.6748 97.9569 69.1573V69.9323C97.9569 70.5933 98.0709 71.1537 98.2989 71.6133C98.5306 72.0692 98.8516 72.4168 99.2619 72.6562C99.6722 72.8917 100.149 73.0095 100.692 73.0095C101.046 73.0095 101.365 72.9601 101.65 72.8613C101.938 72.7587 102.187 72.6068 102.396 72.4054C102.605 72.2003 102.767 71.9457 102.881 71.6418L104.18 72.0065C104.043 72.4472 103.813 72.8347 103.49 73.169C103.167 73.4995 102.768 73.7579 102.294 73.944C101.819 74.1264 101.285 74.2175 100.692 74.2175ZM106.362 74.0352V65.2823H107.662V66.6044H107.753C107.912 66.1713 108.201 65.8199 108.619 65.5501C109.037 65.2804 109.508 65.1456 110.032 65.1456C110.131 65.1456 110.254 65.1475 110.403 65.1513C110.551 65.1551 110.663 65.1608 110.739 65.1683V66.536C110.693 66.5246 110.589 66.5075 110.425 66.4847C110.266 66.4581 110.097 66.4448 109.918 66.4448C109.493 66.4448 109.113 66.5341 108.778 66.7126C108.448 66.8874 108.186 67.1305 107.992 67.442C107.802 67.7498 107.707 68.1012 107.707 68.4963V74.0352H106.362ZM118.533 67.2426L117.325 67.5845C117.249 67.3832 117.137 67.1875 116.989 66.9976C116.844 66.8038 116.647 66.6443 116.396 66.5189C116.145 66.3935 115.824 66.3308 115.433 66.3308C114.897 66.3308 114.451 66.4543 114.094 66.7012C113.74 66.9444 113.564 67.254 113.564 67.6301C113.564 67.9644 113.685 68.2284 113.928 68.4222C114.172 68.6159 114.552 68.7774 115.068 68.9066L116.367 69.2257C117.15 69.4156 117.733 69.7062 118.117 70.0975C118.501 70.485 118.692 70.9846 118.692 71.5962C118.692 72.0977 118.548 72.546 118.259 72.9411C117.974 73.3362 117.575 73.6477 117.063 73.8756C116.55 74.1036 115.953 74.2175 115.273 74.2175C114.381 74.2175 113.642 74.0238 113.057 73.6363C112.472 73.2488 112.101 72.6827 111.945 71.9381L113.222 71.619C113.343 72.0901 113.573 72.4434 113.911 72.679C114.253 72.9145 114.7 73.0323 115.251 73.0323C115.877 73.0323 116.375 72.8993 116.744 72.6334C117.116 72.3636 117.302 72.0407 117.302 71.6646C117.302 71.3607 117.196 71.1062 116.983 70.901C116.77 70.6921 116.443 70.5363 116.003 70.4337L114.544 70.0918C113.742 69.9019 113.153 69.6075 112.777 69.2086C112.405 68.8059 112.219 68.3025 112.219 67.6985C112.219 67.2046 112.358 66.7677 112.635 66.3878C112.916 66.0079 113.298 65.7097 113.78 65.4932C114.267 65.2766 114.817 65.1683 115.433 65.1683C116.299 65.1683 116.979 65.3583 117.473 65.7382C117.971 66.1181 118.324 66.6196 118.533 67.2426Z" fill="#262626"/>
<path d="M130.301 103.982H33.6966C30.7425 103.982 28.3477 106.377 28.3477 109.331V145.017C28.3477 147.971 30.7425 150.366 33.6966 150.366H130.301C133.255 150.366 135.65 147.971 135.65 145.017V109.331C135.65 106.377 133.255 103.982 130.301 103.982Z" fill="#F2F1FF"/>
<path d="M62.5508 134.674V120.572H71.2956V122.404H64.6784V126.701H70.669V128.525H64.6784V134.674H62.5508ZM73.6143 134.674V124.098H75.6043V125.778H75.7144C75.9072 125.209 76.2469 124.761 76.7335 124.435C77.2247 124.105 77.7801 123.94 78.3999 123.94C78.5284 123.94 78.6799 123.944 78.8543 123.953C79.0333 123.963 79.1733 123.974 79.2743 123.988V125.957C79.1917 125.934 79.0448 125.909 78.8337 125.881C78.6225 125.849 78.4113 125.833 78.2002 125.833C77.7136 125.833 77.2798 125.936 76.8988 126.143C76.5224 126.345 76.224 126.627 76.0036 126.99C75.7833 127.348 75.6731 127.757 75.6731 128.216V134.674H73.6143ZM85.2356 134.888C84.1936 134.888 83.2961 134.665 82.5433 134.22C81.7951 133.77 81.2167 133.139 80.8081 132.326C80.4042 131.509 80.2022 130.552 80.2022 129.455C80.2022 128.372 80.4042 127.417 80.8081 126.591C81.2167 125.764 81.7859 125.119 82.5158 124.656C83.2502 124.192 84.1087 123.96 85.091 123.96C85.6878 123.96 86.2662 124.059 86.8262 124.256C87.3862 124.454 87.8889 124.764 88.3342 125.186C88.7794 125.608 89.1306 126.157 89.3877 126.832C89.6447 127.502 89.7733 128.317 89.7733 129.276V130.006H81.3659V128.463H87.7558C87.7558 127.922 87.6456 127.442 87.4252 127.024C87.2049 126.602 86.8951 126.269 86.4957 126.026C86.1009 125.783 85.6373 125.661 85.1048 125.661C84.5264 125.661 84.0214 125.803 83.5899 126.088C83.163 126.368 82.8325 126.735 82.5984 127.19C82.3689 127.639 82.2541 128.128 82.2541 128.656V129.861C82.2541 130.568 82.3781 131.17 82.6259 131.665C82.8784 132.161 83.2296 132.54 83.6794 132.801C84.1293 133.058 84.6549 133.187 85.2563 133.187C85.6465 133.187 86.0022 133.132 86.3235 133.022C86.6449 132.907 86.9226 132.737 87.1567 132.512C87.3908 132.287 87.5698 132.01 87.6938 131.679L89.6424 132.03C89.4864 132.604 89.2063 133.107 88.8024 133.538C88.403 133.965 87.9004 134.298 87.2944 134.537C86.6931 134.771 86.0068 134.888 85.2356 134.888ZM96.6159 134.888C95.5739 134.888 94.6764 134.665 93.9236 134.22C93.1754 133.77 92.597 133.139 92.1884 132.326C91.7844 131.509 91.5825 130.552 91.5825 129.455C91.5825 128.372 91.7844 127.417 92.1884 126.591C92.597 125.764 93.1662 125.119 93.8961 124.656C94.6305 124.192 95.4889 123.96 96.4713 123.96C97.0681 123.96 97.6464 124.059 98.2065 124.256C98.7665 124.454 99.2692 124.764 99.7144 125.186C100.159 125.608 100.51 126.157 100.767 126.832C101.025 127.502 101.153 128.317 101.153 129.276V130.006H92.7461V128.463H99.136C99.136 127.922 99.0259 127.442 98.8055 127.024C98.5852 126.602 98.2753 126.269 97.876 126.026C97.4812 125.783 97.0176 125.661 96.4851 125.661C95.9067 125.661 95.4017 125.803 94.9702 126.088C94.5433 126.368 94.2128 126.735 93.9787 127.19C93.7492 127.639 93.6344 128.128 93.6344 128.656V129.861C93.6344 130.568 93.7583 131.17 94.0062 131.665C94.2587 132.161 94.6099 132.54 95.0597 132.801C95.5096 133.058 96.0352 133.187 96.6365 133.187C97.0267 133.187 97.3825 133.132 97.7038 133.022C98.0252 132.907 98.3029 132.737 98.537 132.512C98.7711 132.287 98.9501 132.01 99.0741 131.679L101.022 132.03C100.866 132.604 100.586 133.107 100.182 133.538C99.7833 133.965 99.2806 134.298 98.6747 134.537C98.0734 134.771 97.3871 134.888 96.6159 134.888Z" fill="#5B55FD"/>
<path d="M391.65 49.6655H160.347C157.209 49.6655 154.664 52.21 154.664 55.3488V156.651C154.664 159.79 157.209 162.335 160.347 162.335H391.65C394.789 162.335 397.333 159.79 397.333 156.651V55.3488C397.333 52.21 394.789 49.6655 391.65 49.6655Z" fill="white"/>
<path d="M391.65 49.6655H160.347C157.209 49.6655 154.664 52.21 154.664 55.3488V156.651C154.664 159.79 157.209 162.335 160.347 162.335H391.65C394.789 162.335 397.333 159.79 397.333 156.651V55.3488C397.333 52.21 394.789 49.6655 391.65 49.6655Z" stroke="#D6D6D6" stroke-width="0.668622"/>
<path d="M190.314 88.9089C190.259 88.4411 190.034 88.0779 189.64 87.8194C189.246 87.5609 188.763 87.4316 188.191 87.4316C187.772 87.4316 187.406 87.4993 187.092 87.6347C186.781 87.7702 186.538 87.9564 186.363 88.1933C186.19 88.4303 186.104 88.6996 186.104 89.0012C186.104 89.2536 186.164 89.4706 186.284 89.6521C186.407 89.8306 186.564 89.9799 186.755 90.0999C186.946 90.2169 187.146 90.3138 187.355 90.3908C187.564 90.4646 187.757 90.5247 187.932 90.5708L188.892 90.8293C189.139 90.894 189.413 90.9832 189.714 91.0971C190.019 91.211 190.31 91.3664 190.587 91.5634C190.867 91.7573 191.098 92.0065 191.279 92.3112C191.461 92.6159 191.552 92.9899 191.552 93.433C191.552 93.9439 191.418 94.4056 191.15 94.818C190.885 95.2304 190.497 95.5582 189.987 95.8013C189.479 96.0444 188.862 96.166 188.135 96.166C187.458 96.166 186.872 96.0567 186.376 95.8382C185.884 95.6197 185.496 95.315 185.213 94.9242C184.933 94.5333 184.775 94.0793 184.738 93.5623H185.919C185.95 93.9193 186.07 94.2148 186.28 94.4487C186.492 94.6795 186.76 94.8518 187.083 94.9657C187.409 95.0765 187.76 95.1319 188.135 95.1319C188.572 95.1319 188.965 95.0611 189.313 94.9195C189.66 94.7749 189.936 94.5748 190.139 94.3194C190.342 94.0609 190.444 93.7593 190.444 93.4146C190.444 93.1007 190.356 92.8452 190.18 92.6482C190.005 92.4513 189.774 92.2912 189.488 92.1681C189.202 92.045 188.892 91.9373 188.56 91.845L187.397 91.5126C186.658 91.3002 186.073 90.9971 185.642 90.6031C185.212 90.2092 184.996 89.6937 184.996 89.0566C184.996 88.5273 185.139 88.0656 185.425 87.6717C185.715 87.2747 186.103 86.9669 186.589 86.7484C187.078 86.5268 187.624 86.416 188.228 86.416C188.837 86.416 189.379 86.5252 189.853 86.7438C190.327 86.9592 190.702 87.2547 190.979 87.6301C191.259 88.0056 191.407 88.4319 191.422 88.9089H190.314ZM193.286 95.9998V88.9089H194.339V90.0168H194.431C194.579 89.6383 194.817 89.3444 195.147 89.1351C195.476 88.9227 195.871 88.8166 196.333 88.8166C196.801 88.8166 197.19 88.9227 197.501 89.1351C197.815 89.3444 198.06 89.6383 198.235 90.0168H198.309C198.491 89.6506 198.763 89.3598 199.126 89.1443C199.489 88.9258 199.925 88.8166 200.433 88.8166C201.067 88.8166 201.585 89.0151 201.988 89.4121C202.391 89.806 202.593 90.42 202.593 91.2541V95.9998H201.504V91.2541C201.504 90.7309 201.36 90.3569 201.074 90.1323C200.788 89.9076 200.451 89.7953 200.063 89.7953C199.565 89.7953 199.178 89.9461 198.904 90.2477C198.631 90.5462 198.494 90.9248 198.494 91.3833V95.9998H197.386V91.1433C197.386 90.7401 197.255 90.4154 196.993 90.1692C196.732 89.9199 196.395 89.7953 195.982 89.7953C195.699 89.7953 195.434 89.8707 195.188 90.0215C194.945 90.1723 194.748 90.3815 194.597 90.6493C194.45 90.914 194.376 91.2202 194.376 91.568V95.9998H193.286ZM206.672 96.166C206.222 96.166 205.815 96.0814 205.448 95.9121C205.082 95.7397 204.791 95.492 204.576 95.1688C204.36 94.8426 204.253 94.4487 204.253 93.987C204.253 93.5808 204.333 93.2515 204.493 92.9991C204.653 92.7436 204.867 92.5436 205.134 92.3989C205.402 92.2543 205.698 92.1466 206.021 92.0758C206.347 92.0019 206.675 91.9435 207.004 91.9004C207.435 91.845 207.784 91.8034 208.052 91.7757C208.323 91.7449 208.52 91.6942 208.643 91.6234C208.769 91.5526 208.832 91.4295 208.832 91.2541V91.2171C208.832 90.7616 208.708 90.4077 208.458 90.1553C208.212 89.903 207.838 89.7768 207.336 89.7768C206.816 89.7768 206.409 89.8907 206.113 90.1184C205.818 90.3462 205.61 90.5893 205.49 90.8478L204.456 90.4785C204.64 90.0476 204.887 89.7122 205.194 89.4721C205.505 89.229 205.844 89.0597 206.21 88.9643C206.579 88.8658 206.943 88.8166 207.3 88.8166C207.527 88.8166 207.789 88.8443 208.084 88.8997C208.383 88.952 208.671 89.0612 208.948 89.2274C209.228 89.3936 209.46 89.6444 209.645 89.9799C209.829 90.3154 209.922 90.7647 209.922 91.3279V95.9998H208.832V95.0396H208.777C208.703 95.1935 208.58 95.3581 208.407 95.5335C208.235 95.709 208.006 95.8582 207.72 95.9813C207.433 96.1044 207.084 96.166 206.672 96.166ZM206.838 95.1873C207.269 95.1873 207.632 95.1027 207.927 94.9334C208.226 94.7641 208.451 94.5456 208.601 94.2779C208.755 94.0101 208.832 93.7285 208.832 93.433V92.4359C208.786 92.4913 208.684 92.5421 208.527 92.5882C208.374 92.6313 208.195 92.6698 207.992 92.7036C207.792 92.7344 207.597 92.7621 207.406 92.7867C207.218 92.8083 207.066 92.8267 206.949 92.8421C206.666 92.8791 206.401 92.9391 206.155 93.0222C205.911 93.1022 205.715 93.2238 205.564 93.3869C205.416 93.5469 205.342 93.7654 205.342 94.0424C205.342 94.421 205.482 94.7072 205.762 94.9011C206.045 95.0919 206.404 95.1873 206.838 95.1873ZM213 86.5453V95.9998H211.91V86.5453H213ZM216.085 86.5453V95.9998H214.995V86.5453H216.085ZM223.823 96.166C223.374 96.166 222.966 96.0814 222.6 95.9121C222.233 95.7397 221.943 95.492 221.727 95.1688C221.512 94.8426 221.404 94.4487 221.404 93.987C221.404 93.5808 221.484 93.2515 221.644 92.9991C221.804 92.7436 222.018 92.5436 222.286 92.3989C222.554 92.2543 222.849 92.1466 223.172 92.0758C223.498 92.0019 223.826 91.9435 224.155 91.9004C224.586 91.845 224.936 91.8034 225.203 91.7757C225.474 91.7449 225.671 91.6942 225.794 91.6234C225.92 91.5526 225.984 91.4295 225.984 91.2541V91.2171C225.984 90.7616 225.859 90.4077 225.61 90.1553C225.363 89.903 224.989 89.7768 224.488 89.7768C223.968 89.7768 223.56 89.8907 223.264 90.1184C222.969 90.3462 222.761 90.5893 222.641 90.8478L221.607 90.4785C221.792 90.0476 222.038 89.7122 222.346 89.4721C222.657 89.229 222.995 89.0597 223.361 88.9643C223.731 88.8658 224.094 88.8166 224.451 88.8166C224.679 88.8166 224.94 88.8443 225.236 88.8997C225.534 88.952 225.822 89.0612 226.099 89.2274C226.379 89.3936 226.611 89.6444 226.796 89.9799C226.981 90.3154 227.073 90.7647 227.073 91.3279V95.9998H225.984V95.0396H225.928C225.854 95.1935 225.731 95.3581 225.559 95.5335C225.386 95.709 225.157 95.8582 224.871 95.9813C224.585 96.1044 224.235 96.166 223.823 96.166ZM223.989 95.1873C224.42 95.1873 224.783 95.1027 225.079 94.9334C225.377 94.7641 225.602 94.5456 225.753 94.2779C225.907 94.0101 225.984 93.7285 225.984 93.433V92.4359C225.937 92.4913 225.836 92.5421 225.679 92.5882C225.525 92.6313 225.346 92.6698 225.143 92.7036C224.943 92.7344 224.748 92.7621 224.557 92.7867C224.369 92.8083 224.217 92.8267 224.1 92.8421C223.817 92.8791 223.552 92.9391 223.306 93.0222C223.063 93.1022 222.866 93.2238 222.715 93.3869C222.567 93.5469 222.493 93.7654 222.493 94.0424C222.493 94.421 222.634 94.7072 222.914 94.9011C223.197 95.0919 223.555 95.1873 223.989 95.1873ZM229.062 98.6589V88.9089H230.114V90.0353H230.243C230.323 89.9122 230.434 89.7552 230.576 89.5644C230.72 89.3705 230.927 89.1982 231.194 89.0474C231.465 88.8935 231.831 88.8166 232.293 88.8166C232.89 88.8166 233.416 88.9658 233.872 89.2644C234.327 89.5629 234.683 89.9861 234.938 90.5339C235.194 91.0817 235.322 91.728 235.322 92.4728C235.322 93.2238 235.194 93.8747 234.938 94.4256C234.683 94.9734 234.329 95.3981 233.877 95.6997C233.424 95.9983 232.902 96.1475 232.312 96.1475C231.856 96.1475 231.491 96.0721 231.217 95.9213C230.944 95.7674 230.733 95.5935 230.585 95.3997C230.437 95.2027 230.323 95.0396 230.243 94.9103H230.151V98.6589H229.062ZM230.133 92.4543C230.133 92.9899 230.211 93.4623 230.368 93.8716C230.525 94.2779 230.754 94.5964 231.056 94.8272C231.358 95.055 231.727 95.1688 232.164 95.1688C232.619 95.1688 232.999 95.0488 233.304 94.8087C233.612 94.5656 233.843 94.2394 233.997 93.8301C234.154 93.4177 234.232 92.9591 234.232 92.4543C234.232 91.9558 234.155 91.5064 234.001 91.1063C233.85 90.7032 233.621 90.3846 233.313 90.1507C233.009 89.9137 232.626 89.7953 232.164 89.7953C231.721 89.7953 231.348 89.9076 231.047 90.1323C230.745 90.3538 230.517 90.6647 230.363 91.0648C230.21 91.4618 230.133 91.925 230.133 92.4543ZM236.983 98.6589V88.9089H238.036V90.0353H238.165C238.245 89.9122 238.356 89.7552 238.498 89.5644C238.642 89.3705 238.849 89.1982 239.116 89.0474C239.387 88.8935 239.753 88.8166 240.215 88.8166C240.812 88.8166 241.338 88.9658 241.794 89.2644C242.249 89.5629 242.605 89.9861 242.86 90.5339C243.116 91.0817 243.243 91.728 243.243 92.4728C243.243 93.2238 243.116 93.8747 242.86 94.4256C242.605 94.9734 242.251 95.3981 241.798 95.6997C241.346 95.9983 240.824 96.1475 240.233 96.1475C239.778 96.1475 239.413 96.0721 239.139 95.9213C238.865 95.7674 238.655 95.5935 238.507 95.3997C238.359 95.2027 238.245 95.0396 238.165 94.9103H238.073V98.6589H236.983ZM238.054 92.4543C238.054 92.9899 238.133 93.4623 238.29 93.8716C238.447 94.2779 238.676 94.5964 238.978 94.8272C239.279 95.055 239.649 95.1688 240.086 95.1688C240.541 95.1688 240.921 95.0488 241.226 94.8087C241.534 94.5656 241.765 94.2394 241.918 93.8301C242.075 93.4177 242.154 92.9591 242.154 92.4543C242.154 91.9558 242.077 91.5064 241.923 91.1063C241.772 90.7032 241.543 90.3846 241.235 90.1507C240.931 89.9137 240.547 89.7953 240.086 89.7953C239.643 89.7953 239.27 89.9076 238.969 90.1323C238.667 90.3538 238.439 90.6647 238.285 91.0648C238.131 91.4618 238.054 91.925 238.054 92.4543ZM249.928 90.497L248.949 90.7739C248.888 90.6108 248.797 90.4523 248.677 90.2985C248.56 90.1415 248.4 90.0122 248.197 89.9107C247.994 89.8091 247.734 89.7583 247.417 89.7583C246.983 89.7583 246.621 89.8583 246.332 90.0584C246.046 90.2554 245.902 90.5062 245.902 90.8109C245.902 91.0817 246.001 91.2956 246.198 91.4526C246.395 91.6095 246.703 91.7403 247.121 91.845L248.174 92.1035C248.808 92.2574 249.28 92.4928 249.591 92.8098C249.902 93.1237 250.057 93.5284 250.057 94.0239C250.057 94.4302 249.94 94.7934 249.706 95.1134C249.476 95.4335 249.152 95.6859 248.737 95.8705C248.322 96.0552 247.838 96.1475 247.287 96.1475C246.564 96.1475 245.966 95.9906 245.492 95.6766C245.018 95.3627 244.718 94.9042 244.591 94.3009L245.626 94.0424C245.724 94.424 245.91 94.7103 246.184 94.9011C246.461 95.0919 246.823 95.1873 247.269 95.1873C247.777 95.1873 248.18 95.0796 248.478 94.8641C248.78 94.6456 248.931 94.384 248.931 94.0793C248.931 93.8331 248.845 93.6269 248.672 93.4607C248.5 93.2915 248.235 93.1653 247.878 93.0822L246.697 92.8052C246.047 92.6513 245.57 92.4128 245.265 92.0896C244.964 91.7634 244.813 91.3556 244.813 90.8663C244.813 90.4662 244.925 90.1123 245.15 89.8045C245.378 89.4967 245.687 89.2551 246.078 89.0797C246.472 88.9043 246.918 88.8166 247.417 88.8166C248.118 88.8166 248.669 88.9704 249.069 89.2782C249.473 89.586 249.759 89.9922 249.928 90.497Z" fill="#888888"/>
<path d="M295.145 95.9999V86.5454H296.29V94.9843H300.685V95.9999H295.145ZM304.396 96.1661C303.947 96.1661 303.539 96.0815 303.173 95.9122C302.807 95.7398 302.516 95.4921 302.3 95.1689C302.085 94.8427 301.977 94.4488 301.977 93.9871C301.977 93.5809 302.057 93.2516 302.217 92.9992C302.377 92.7437 302.591 92.5437 302.859 92.399C303.127 92.2544 303.422 92.1467 303.745 92.0759C304.072 92.002 304.399 91.9436 304.729 91.9005C305.16 91.8451 305.509 91.8035 305.777 91.7758C306.047 91.745 306.244 91.6943 306.368 91.6235C306.494 91.5527 306.557 91.4296 306.557 91.2542V91.2172C306.557 90.7617 306.432 90.4078 306.183 90.1554C305.937 89.9031 305.563 89.7769 305.061 89.7769C304.541 89.7769 304.133 89.8908 303.838 90.1185C303.542 90.3463 303.335 90.5894 303.214 90.8479L302.18 90.4786C302.365 90.0477 302.611 89.7123 302.919 89.4722C303.23 89.2291 303.568 89.0598 303.935 88.9644C304.304 88.8659 304.667 88.8167 305.024 88.8167C305.252 88.8167 305.513 88.8444 305.809 88.8998C306.107 88.9521 306.395 89.0613 306.672 89.2275C306.952 89.3937 307.185 89.6445 307.369 89.98C307.554 90.3155 307.646 90.7648 307.646 91.328V95.9999H306.557V95.0397H306.501C306.428 95.1936 306.304 95.3582 306.132 95.5336C305.96 95.7091 305.73 95.8583 305.444 95.9814C305.158 96.1045 304.809 96.1661 304.396 96.1661ZM304.562 95.1874C304.993 95.1874 305.357 95.1028 305.652 94.9335C305.951 94.7642 306.175 94.5457 306.326 94.278C306.48 94.0102 306.557 93.7286 306.557 93.4331V92.436C306.511 92.4914 306.409 92.5422 306.252 92.5883C306.098 92.6314 305.92 92.6699 305.717 92.7037C305.517 92.7345 305.321 92.7622 305.13 92.7868C304.943 92.8084 304.79 92.8268 304.673 92.8422C304.39 92.8792 304.125 92.9392 303.879 93.0223C303.636 93.1023 303.439 93.2239 303.288 93.387C303.141 93.547 303.067 93.7655 303.067 94.0425C303.067 94.4211 303.207 94.7073 303.487 94.9012C303.77 95.092 304.129 95.1874 304.562 95.1874ZM309.635 95.9999V88.909H310.687V89.98H310.761C310.891 89.6292 311.124 89.3445 311.463 89.126C311.802 88.9075 312.183 88.7982 312.608 88.7982C312.688 88.7982 312.788 88.7997 312.908 88.8028C313.028 88.8059 313.119 88.8105 313.18 88.8167V89.9246C313.143 89.9154 313.059 89.9015 312.926 89.8831C312.797 89.8615 312.66 89.8508 312.516 89.8508C312.171 89.8508 311.863 89.9231 311.592 90.0677C311.324 90.2093 311.112 90.4063 310.955 90.6586C310.801 90.9079 310.724 91.1926 310.724 91.5127V95.9999H309.635ZM317.118 98.8067C316.592 98.8067 316.139 98.739 315.761 98.6036C315.382 98.4713 315.067 98.2958 314.815 98.0773C314.565 97.8619 314.367 97.6311 314.219 97.3848L315.087 96.7755C315.185 96.9047 315.31 97.0525 315.461 97.2187C315.612 97.3879 315.818 97.5341 316.079 97.6572C316.344 97.7834 316.69 97.8465 317.118 97.8465C317.691 97.8465 318.163 97.708 318.535 97.431C318.908 97.154 319.094 96.7201 319.094 96.1292V94.6888H319.002C318.922 94.8181 318.808 94.9781 318.66 95.1689C318.515 95.3567 318.306 95.5244 318.032 95.6721C317.761 95.8168 317.395 95.8891 316.934 95.8891C316.361 95.8891 315.847 95.7537 315.392 95.4829C314.939 95.212 314.581 94.8181 314.316 94.301C314.054 93.784 313.924 93.1561 313.924 92.4175C313.924 91.6912 314.051 91.0587 314.307 90.5201C314.562 89.9785 314.918 89.5599 315.373 89.2645C315.829 88.9659 316.355 88.8167 316.952 88.8167C317.414 88.8167 317.78 88.8936 318.051 89.0475C318.325 89.1983 318.534 89.3706 318.679 89.5645C318.826 89.7553 318.94 89.9123 319.02 90.0354H319.131V88.909H320.184V96.203C320.184 96.8124 320.045 97.3079 319.768 97.6895C319.494 98.0742 319.125 98.3558 318.66 98.5343C318.198 98.7159 317.684 98.8067 317.118 98.8067ZM317.081 94.9104C317.518 94.9104 317.888 94.8104 318.189 94.6103C318.491 94.4103 318.72 94.1225 318.877 93.7471C319.034 93.3716 319.112 92.9222 319.112 92.399C319.112 91.8882 319.036 91.4373 318.882 91.0464C318.728 90.6556 318.5 90.3493 318.198 90.1277C317.897 89.9061 317.524 89.7954 317.081 89.7954C316.62 89.7954 316.235 89.9123 315.927 90.1462C315.622 90.3801 315.393 90.694 315.239 91.088C315.088 91.4819 315.013 91.9189 315.013 92.399C315.013 92.8915 315.09 93.327 315.244 93.7055C315.401 94.081 315.632 94.3764 315.936 94.5919C316.244 94.8042 316.626 94.9104 317.081 94.9104ZM325.151 96.1476C324.468 96.1476 323.878 95.9968 323.383 95.6952C322.89 95.3905 322.51 94.9658 322.242 94.4211C321.978 93.8732 321.845 93.2362 321.845 92.5098C321.845 91.7835 321.978 91.1434 322.242 90.5894C322.51 90.0323 322.883 89.5984 323.36 89.2875C323.84 88.9736 324.4 88.8167 325.04 88.8167C325.409 88.8167 325.774 88.8782 326.134 89.0013C326.494 89.1244 326.822 89.3245 327.117 89.6015C327.413 89.8754 327.648 90.2385 327.824 90.691C327.999 91.1434 328.087 91.7004 328.087 92.3621V92.8238H322.621V91.882H326.979C326.979 91.4819 326.899 91.1249 326.739 90.811C326.582 90.4971 326.357 90.2493 326.065 90.0677C325.776 89.8861 325.434 89.7954 325.04 89.7954C324.606 89.7954 324.231 89.9031 323.914 90.1185C323.6 90.3309 323.358 90.6079 323.189 90.9495C323.02 91.2911 322.935 91.6573 322.935 92.0482V92.676C322.935 93.2115 323.027 93.6655 323.212 94.0379C323.4 94.4072 323.66 94.6888 323.992 94.8827C324.324 95.0735 324.711 95.1689 325.151 95.1689C325.437 95.1689 325.696 95.1289 325.926 95.0489C326.16 94.9658 326.362 94.8427 326.531 94.6796C326.7 94.5134 326.831 94.3072 326.924 94.061L327.976 94.3564C327.865 94.7134 327.679 95.0274 327.418 95.2982C327.156 95.566 326.833 95.7752 326.448 95.926C326.063 96.0738 325.631 96.1476 325.151 96.1476ZM329.744 95.9999V88.909H330.797V89.98H330.871C331 89.6292 331.234 89.3445 331.572 89.126C331.911 88.9075 332.293 88.7982 332.717 88.7982C332.797 88.7982 332.897 88.7997 333.017 88.8028C333.137 88.8059 333.228 88.8105 333.29 88.8167V89.9246C333.253 89.9154 333.168 89.9015 333.036 89.8831C332.907 89.8615 332.77 89.8508 332.625 89.8508C332.28 89.8508 331.972 89.9231 331.702 90.0677C331.434 90.2093 331.222 90.4063 331.065 90.6586C330.911 90.9079 330.834 91.1926 330.834 91.5127V95.9999H329.744ZM340.324 96.1661C339.875 96.1661 339.467 96.0815 339.101 95.9122C338.734 95.7398 338.444 95.4921 338.228 95.1689C338.013 94.8427 337.905 94.4488 337.905 93.9871C337.905 93.5809 337.985 93.2516 338.145 92.9992C338.305 92.7437 338.519 92.5437 338.787 92.399C339.055 92.2544 339.35 92.1467 339.673 92.0759C339.999 92.002 340.327 91.9436 340.656 91.9005C341.087 91.8451 341.437 91.8035 341.704 91.7758C341.975 91.745 342.172 91.6943 342.295 91.6235C342.421 91.5527 342.485 91.4296 342.485 91.2542V91.2172C342.485 90.7617 342.36 90.4078 342.111 90.1554C341.864 89.9031 341.49 89.7769 340.989 89.7769C340.469 89.7769 340.061 89.8908 339.765 90.1185C339.47 90.3463 339.262 90.5894 339.142 90.8479L338.108 90.4786C338.293 90.0477 338.539 89.7123 338.847 89.4722C339.158 89.2291 339.496 89.0598 339.862 88.9644C340.232 88.8659 340.595 88.8167 340.952 88.8167C341.18 88.8167 341.441 88.8444 341.737 88.8998C342.035 88.9521 342.323 89.0613 342.6 89.2275C342.88 89.3937 343.112 89.6445 343.297 89.98C343.482 90.3155 343.574 90.7648 343.574 91.328V95.9999H342.485V95.0397H342.429C342.355 95.1936 342.232 95.3582 342.06 95.5336C341.887 95.7091 341.658 95.8583 341.372 95.9814C341.086 96.1045 340.736 96.1661 340.324 96.1661ZM340.49 95.1874C340.921 95.1874 341.284 95.1028 341.58 94.9335C341.878 94.7642 342.103 94.5457 342.254 94.278C342.408 94.0102 342.485 93.7286 342.485 93.4331V92.436C342.438 92.4914 342.337 92.5422 342.18 92.5883C342.026 92.6314 341.847 92.6699 341.644 92.7037C341.444 92.7345 341.249 92.7622 341.058 92.7868C340.87 92.8084 340.718 92.8268 340.601 92.8422C340.318 92.8792 340.053 92.9392 339.807 93.0223C339.564 93.1023 339.367 93.2239 339.216 93.387C339.068 93.547 338.994 93.7655 338.994 94.0425C338.994 94.4211 339.135 94.7073 339.415 94.9012C339.698 95.092 340.056 95.1874 340.49 95.1874ZM345.563 98.659V88.909H346.615V90.0354H346.744C346.824 89.9123 346.935 89.7553 347.077 89.5645C347.221 89.3706 347.428 89.1983 347.695 89.0475C347.966 88.8936 348.332 88.8167 348.794 88.8167C349.391 88.8167 349.917 88.9659 350.373 89.2645C350.828 89.563 351.184 89.9862 351.439 90.534C351.695 91.0818 351.823 91.7281 351.823 92.4729C351.823 93.2239 351.695 93.8748 351.439 94.4257C351.184 94.9735 350.83 95.3982 350.378 95.6998C349.925 95.9984 349.403 96.1476 348.813 96.1476C348.357 96.1476 347.992 96.0722 347.718 95.9214C347.445 95.7675 347.234 95.5936 347.086 95.3998C346.938 95.2028 346.824 95.0397 346.744 94.9104H346.652V98.659H345.563ZM346.634 92.4544C346.634 92.99 346.712 93.4624 346.869 93.8717C347.026 94.278 347.255 94.5965 347.557 94.8273C347.859 95.0551 348.228 95.1689 348.665 95.1689C349.12 95.1689 349.5 95.0489 349.805 94.8088C350.113 94.5657 350.344 94.2395 350.498 93.8302C350.655 93.4178 350.733 92.9592 350.733 92.4544C350.733 91.9559 350.656 91.5065 350.502 91.1064C350.351 90.7033 350.122 90.3847 349.814 90.1508C349.51 89.9138 349.127 89.7954 348.665 89.7954C348.222 89.7954 347.849 89.9077 347.548 90.1324C347.246 90.3539 347.018 90.6648 346.864 91.0649C346.711 91.4619 346.634 91.9251 346.634 92.4544ZM353.484 98.659V88.909H354.537V90.0354H354.666C354.746 89.9123 354.857 89.7553 354.999 89.5645C355.143 89.3706 355.35 89.1983 355.617 89.0475C355.888 88.8936 356.254 88.8167 356.716 88.8167C357.313 88.8167 357.839 88.9659 358.295 89.2645C358.75 89.563 359.106 89.9862 359.361 90.534C359.617 91.0818 359.744 91.7281 359.744 92.4729C359.744 93.2239 359.617 93.8748 359.361 94.4257C359.106 94.9735 358.752 95.3982 358.299 95.6998C357.847 95.9984 357.325 96.1476 356.734 96.1476C356.279 96.1476 355.914 96.0722 355.64 95.9214C355.366 95.7675 355.156 95.5936 355.008 95.3998C354.86 95.2028 354.746 95.0397 354.666 94.9104H354.574V98.659H353.484ZM354.555 92.4544C354.555 92.99 354.634 93.4624 354.791 93.8717C354.948 94.278 355.177 94.5965 355.479 94.8273C355.78 95.0551 356.15 95.1689 356.587 95.1689C357.042 95.1689 357.422 95.0489 357.727 94.8088C358.035 94.5657 358.266 94.2395 358.419 93.8302C358.576 93.4178 358.655 92.9592 358.655 92.4544C358.655 91.9559 358.578 91.5065 358.424 91.1064C358.273 90.7033 358.044 90.3847 357.736 90.1508C357.432 89.9138 357.048 89.7954 356.587 89.7954C356.144 89.7954 355.771 89.9077 355.47 90.1324C355.168 90.3539 354.94 90.6648 354.786 91.0649C354.632 91.4619 354.555 91.9251 354.555 92.4544ZM366.429 90.4971L365.45 90.774C365.389 90.6109 365.298 90.4524 365.178 90.2986C365.061 90.1416 364.901 90.0123 364.698 89.9108C364.495 89.8092 364.235 89.7584 363.918 89.7584C363.484 89.7584 363.122 89.8584 362.833 90.0585C362.547 90.2555 362.403 90.5063 362.403 90.811C362.403 91.0818 362.502 91.2957 362.699 91.4527C362.896 91.6096 363.204 91.7404 363.622 91.8451L364.675 92.1036C365.309 92.2575 365.781 92.4929 366.092 92.8099C366.403 93.1238 366.558 93.5285 366.558 94.024C366.558 94.4303 366.441 94.7935 366.207 95.1135C365.977 95.4336 365.653 95.686 365.238 95.8706C364.823 96.0553 364.339 96.1476 363.788 96.1476C363.065 96.1476 362.467 95.9907 361.993 95.6767C361.519 95.3628 361.219 94.9043 361.092 94.301L362.127 94.0425C362.225 94.4241 362.411 94.7104 362.685 94.9012C362.962 95.092 363.324 95.1874 363.77 95.1874C364.278 95.1874 364.681 95.0797 364.979 94.8642C365.281 94.6457 365.432 94.3841 365.432 94.0794C365.432 93.8332 365.346 93.627 365.173 93.4608C365.001 93.2916 364.736 93.1654 364.379 93.0823L363.198 92.8053C362.548 92.6514 362.071 92.4129 361.766 92.0897C361.465 91.7635 361.314 91.3557 361.314 90.8664C361.314 90.4663 361.426 90.1124 361.651 89.8046C361.879 89.4968 362.188 89.2552 362.579 89.0798C362.973 88.9044 363.419 88.8167 363.918 88.8167C364.619 88.8167 365.17 88.9705 365.57 89.2783C365.974 89.5861 366.26 89.9923 366.429 90.4971Z" fill="#888888"/>
<path d="M240.804 66.0117H239.391C239.308 65.6052 239.161 65.2481 238.952 64.9404C238.747 64.6327 238.496 64.3744 238.2 64.1654C237.908 63.9527 237.583 63.7931 237.226 63.6868C236.869 63.5804 236.496 63.5272 236.109 63.5272C235.402 63.5272 234.762 63.7057 234.188 64.0629C233.619 64.42 233.165 64.9461 232.826 65.6413C232.492 66.3365 232.325 67.1894 232.325 68.2C232.325 69.2105 232.492 70.0634 232.826 70.7586C233.165 71.4538 233.619 71.9799 234.188 72.3371C234.762 72.6942 235.402 72.8727 236.109 72.8727C236.496 72.8727 236.869 72.8195 237.226 72.7132C237.583 72.6068 237.908 72.4491 238.2 72.2402C238.496 72.0274 238.747 71.7672 238.952 71.4595C239.161 71.148 239.308 70.7909 239.391 70.3882H240.804C240.698 70.9846 240.504 71.5184 240.223 71.9894C239.942 72.4605 239.592 72.8613 239.175 73.1918C238.757 73.5185 238.287 73.7674 237.767 73.9383C237.25 74.1093 236.698 74.1948 236.109 74.1948C235.113 74.1948 234.228 73.9516 233.453 73.4654C232.678 72.9791 232.069 72.2877 231.624 71.3911C231.18 70.4945 230.957 69.4308 230.957 68.2C230.957 66.9691 231.18 65.9054 231.624 65.0088C232.069 64.1122 232.678 63.4208 233.453 62.9346C234.228 62.4483 235.113 62.2051 236.109 62.2051C236.698 62.2051 237.25 62.2906 237.767 62.4616C238.287 62.6325 238.757 62.8833 239.175 63.2138C239.592 63.5405 239.942 63.9394 240.223 64.4105C240.504 64.8777 240.698 65.4115 240.804 66.0117ZM246.461 74.2176C245.671 74.2176 244.978 74.0295 244.382 73.6534C243.789 73.2773 243.325 72.7511 242.991 72.0749C242.661 71.3987 242.495 70.6085 242.495 69.7044C242.495 68.7926 242.661 67.9967 242.991 67.3167C243.325 66.6367 243.789 66.1086 244.382 65.7325C244.978 65.3564 245.671 65.1684 246.461 65.1684C247.252 65.1684 247.943 65.3564 248.536 65.7325C249.132 66.1086 249.596 66.6367 249.926 67.3167C250.26 67.9967 250.428 68.7926 250.428 69.7044C250.428 70.6085 250.26 71.3987 249.926 72.0749C249.596 72.7511 249.132 73.2773 248.536 73.6534C247.943 74.0295 247.252 74.2176 246.461 74.2176ZM246.461 73.0095C247.062 73.0095 247.556 72.8556 247.943 72.5479C248.331 72.2402 248.617 71.8356 248.804 71.3341C248.99 70.8327 249.083 70.2894 249.083 69.7044C249.083 69.1193 248.99 68.5742 248.804 68.0689C248.617 67.5636 248.331 67.1552 247.943 66.8437C247.556 66.5322 247.062 66.3764 246.461 66.3764C245.861 66.3764 245.367 66.5322 244.98 66.8437C244.592 67.1552 244.306 67.5636 244.119 68.0689C243.933 68.5742 243.84 69.1193 243.84 69.7044C243.84 70.2894 243.933 70.8327 244.119 71.3341C244.306 71.8356 244.592 72.2402 244.98 72.5479C245.367 72.8556 245.861 73.0095 246.461 73.0095ZM252.481 74.0352V65.2823H253.78V66.65H253.894C254.076 66.1827 254.371 65.8199 254.777 65.5616C255.183 65.2994 255.672 65.1684 256.242 65.1684C256.819 65.1684 257.3 65.2994 257.683 65.5616C258.071 65.8199 258.373 66.1827 258.589 66.65H258.68C258.905 66.1979 259.241 65.8389 259.689 65.573C260.137 65.3032 260.675 65.1684 261.302 65.1684C262.084 65.1684 262.724 65.4134 263.222 65.9035C263.72 66.3897 263.969 67.1476 263.969 68.1772V74.0352H262.624V68.1772C262.624 67.5313 262.447 67.0698 262.094 66.7924C261.741 66.5151 261.325 66.3764 260.846 66.3764C260.23 66.3764 259.754 66.5626 259.416 66.9349C259.077 67.3034 258.908 67.7707 258.908 68.3367V74.0352H257.541V68.0404C257.541 67.5427 257.379 67.1419 257.056 66.838C256.733 66.5303 256.317 66.3764 255.808 66.3764C255.459 66.3764 255.132 66.4695 254.828 66.6557C254.528 66.8418 254.285 67.1001 254.099 67.4307C253.917 67.7574 253.825 68.1354 253.825 68.5647V74.0352H252.481ZM266.428 77.3175V65.2823H267.727V66.6728H267.886C267.985 66.5208 268.122 66.3271 268.297 66.0915C268.475 65.8522 268.73 65.6394 269.06 65.4533C269.395 65.2633 269.847 65.1684 270.416 65.1684C271.153 65.1684 271.803 65.3526 272.365 65.7211C272.928 66.0896 273.366 66.612 273.682 67.2882C273.997 67.9644 274.155 68.7622 274.155 69.6816C274.155 70.6085 273.997 71.412 273.682 72.092C273.366 72.7682 272.93 73.2925 272.371 73.6648C271.813 74.0333 271.169 74.2176 270.439 74.2176C269.877 74.2176 269.427 74.1245 269.089 73.9383C268.751 73.7484 268.49 73.5337 268.308 73.2944C268.126 73.0513 267.985 72.8499 267.886 72.6904H267.772V77.3175H266.428ZM267.75 69.6588C267.75 70.3198 267.846 70.9029 268.04 71.4082C268.234 71.9097 268.517 72.3029 268.889 72.5878C269.262 72.8689 269.717 73.0095 270.257 73.0095C270.819 73.0095 271.288 72.8613 271.664 72.565C272.044 72.2649 272.329 71.8622 272.519 71.3569C272.713 70.8478 272.81 70.2818 272.81 69.6588C272.81 69.0433 272.715 68.4887 272.525 67.9948C272.339 67.4971 272.056 67.1039 271.676 66.8152C271.3 66.5227 270.827 66.3764 270.257 66.3764C269.71 66.3764 269.25 66.5151 268.878 66.7924C268.506 67.066 268.224 67.4497 268.035 67.9435C267.845 68.4336 267.75 69.0053 267.75 69.6588ZM278.782 74.2403C278.227 74.2403 277.724 74.1359 277.272 73.9269C276.82 73.7142 276.461 73.4084 276.195 73.0095C275.929 72.6068 275.796 72.1205 275.796 71.5507C275.796 71.0492 275.895 70.6427 276.092 70.3312C276.29 70.0159 276.554 69.7689 276.884 69.5904C277.215 69.4118 277.579 69.2789 277.978 69.1915C278.381 69.1003 278.786 69.0281 279.192 68.9749C279.724 68.9066 280.155 68.8553 280.486 68.8211C280.82 68.7831 281.063 68.7204 281.215 68.633C281.371 68.5457 281.449 68.3937 281.449 68.1772V68.1316C281.449 67.5693 281.295 67.1324 280.987 66.8209C280.683 66.5094 280.222 66.3536 279.602 66.3536C278.96 66.3536 278.457 66.4942 278.092 66.7753C277.728 67.0565 277.471 67.3566 277.323 67.6757L276.047 67.2198C276.275 66.688 276.578 66.2739 276.958 65.9775C277.342 65.6774 277.76 65.4685 278.212 65.3507C278.668 65.2291 279.116 65.1684 279.557 65.1684C279.838 65.1684 280.161 65.2026 280.526 65.2709C280.894 65.3355 281.249 65.4704 281.591 65.6755C281.937 65.8807 282.224 66.1903 282.452 66.6044C282.68 67.0185 282.794 67.5731 282.794 68.2683V74.0352H281.449V72.8499H281.38C281.289 73.0399 281.137 73.2431 280.924 73.4597C280.712 73.6762 280.429 73.8604 280.075 74.0124C279.722 74.1644 279.291 74.2403 278.782 74.2403ZM278.987 73.0323C279.519 73.0323 279.967 72.9278 280.332 72.7189C280.7 72.5099 280.978 72.2402 281.164 71.9097C281.354 71.5792 281.449 71.2315 281.449 70.8668V69.636C281.392 69.7044 281.266 69.767 281.073 69.824C280.883 69.8772 280.662 69.9247 280.412 69.9665C280.165 70.0045 279.923 70.0387 279.688 70.0691C279.456 70.0956 279.268 70.1184 279.124 70.1374C278.774 70.183 278.448 70.2571 278.144 70.3597C277.844 70.4585 277.6 70.6085 277.414 70.8099C277.232 71.0074 277.141 71.2771 277.141 71.619C277.141 72.0863 277.314 72.4396 277.659 72.679C278.009 72.9145 278.451 73.0323 278.987 73.0323ZM286.593 68.7698V74.0352H285.248V65.2823H286.547V66.65H286.661C286.867 66.2055 287.178 65.8484 287.596 65.5787C288.014 65.3051 288.553 65.1684 289.214 65.1684C289.807 65.1684 290.326 65.2899 290.77 65.5331C291.215 65.7724 291.56 66.1371 291.807 66.6272C292.054 67.1134 292.178 67.7289 292.178 68.4735V74.0352H290.833V68.5647C290.833 67.877 290.654 67.3414 290.297 66.9577C289.94 66.5702 289.45 66.3764 288.827 66.3764C288.398 66.3764 288.014 66.4695 287.676 66.6557C287.341 66.8418 287.077 67.1134 286.884 67.4705C286.69 67.8277 286.593 68.2607 286.593 68.7698ZM294.635 74.0352V65.2823H295.98V74.0352H294.635ZM295.319 63.8235C295.057 63.8235 294.831 63.7342 294.641 63.5557C294.455 63.3771 294.362 63.1625 294.362 62.9118C294.362 62.661 294.455 62.4464 294.641 62.2678C294.831 62.0893 295.057 62 295.319 62C295.581 62 295.805 62.0893 295.991 62.2678C296.181 62.4464 296.276 62.661 296.276 62.9118C296.276 63.1625 296.181 63.3771 295.991 63.5557C295.805 63.7342 295.581 63.8235 295.319 63.8235ZM302.113 74.2176C301.27 74.2176 300.542 74.0314 299.93 73.6591C299.323 73.283 298.853 72.7587 298.523 72.0863C298.196 71.4101 298.033 70.6237 298.033 69.7271C298.033 68.8306 298.196 68.0404 298.523 67.3566C298.853 66.669 299.313 66.1333 299.902 65.7496C300.495 65.3621 301.186 65.1684 301.976 65.1684C302.432 65.1684 302.882 65.2443 303.327 65.3963C303.771 65.5483 304.176 65.7952 304.54 66.1371C304.905 66.4752 305.196 66.9235 305.412 67.4819C305.629 68.0404 305.737 68.728 305.737 69.5448V70.1146H298.99V68.9522H304.369C304.369 68.4583 304.271 68.0176 304.073 67.6301C303.879 67.2426 303.602 66.9368 303.241 66.7126C302.884 66.4885 302.462 66.3764 301.976 66.3764C301.44 66.3764 300.977 66.5094 300.586 66.7753C300.198 67.0375 299.9 67.3794 299.691 67.8011C299.482 68.2227 299.378 68.6748 299.378 69.1573V69.9323C299.378 70.5933 299.492 71.1537 299.72 71.6133C299.951 72.0692 300.272 72.4168 300.683 72.6562C301.093 72.8917 301.57 73.0095 302.113 73.0095C302.466 73.0095 302.785 72.9601 303.07 72.8613C303.359 72.7587 303.608 72.6068 303.817 72.4054C304.026 72.2003 304.187 71.9458 304.301 71.6418L305.6 72.0065C305.464 72.4472 305.234 72.8347 304.911 73.169C304.588 73.4995 304.189 73.7579 303.714 73.944C303.239 74.1264 302.706 74.2176 302.113 74.2176ZM313.983 67.2426L312.775 67.5845C312.699 67.3832 312.587 67.1875 312.439 66.9976C312.294 66.8038 312.097 66.6443 311.846 66.5189C311.595 66.3935 311.274 66.3309 310.883 66.3309C310.347 66.3309 309.901 66.4543 309.544 66.7013C309.19 66.9444 309.014 67.254 309.014 67.6301C309.014 67.9644 309.135 68.2284 309.378 68.4222C309.622 68.6159 310.001 68.7774 310.518 68.9066L311.817 69.2257C312.6 69.4156 313.183 69.7063 313.567 70.0975C313.951 70.485 314.142 70.9846 314.142 71.5962C314.142 72.0977 313.998 72.546 313.709 72.9411C313.424 73.3362 313.025 73.6477 312.513 73.8756C312 74.1036 311.403 74.2176 310.723 74.2176C309.831 74.2176 309.092 74.0238 308.507 73.6363C307.922 73.2488 307.551 72.6828 307.395 71.9382L308.672 71.619C308.793 72.0901 309.023 72.4434 309.361 72.679C309.703 72.9145 310.15 73.0323 310.7 73.0323C311.327 73.0323 311.825 72.8993 312.194 72.6334C312.566 72.3636 312.752 72.0407 312.752 71.6646C312.752 71.3607 312.646 71.1062 312.433 70.901C312.22 70.6921 311.893 70.5363 311.453 70.4338L309.994 70.0918C309.192 69.9019 308.603 69.6075 308.227 69.2086C307.855 68.8059 307.669 68.3025 307.669 67.6985C307.669 67.2046 307.808 66.7677 308.085 66.3878C308.366 66.0079 308.748 65.7097 309.23 65.4932C309.717 65.2766 310.267 65.1684 310.883 65.1684C311.749 65.1684 312.429 65.3583 312.923 65.7382C313.421 66.1181 313.774 66.6196 313.983 67.2426Z" fill="#262626"/>
<path d="M382.649 103.98H285.697C282.742 103.98 280.348 106.375 280.348 109.329V145.015C280.348 147.969 282.742 150.364 285.697 150.364H382.649C385.603 150.364 387.998 147.969 387.998 145.015V109.329C387.998 106.375 385.603 103.98 382.649 103.98Z" fill="#F2F1FF"/>
<path d="M320.703 128.571L311.559 133.006V130.899L318.307 127.828L318.238 127.945V127.648L318.307 127.772L311.559 124.695V122.594L320.703 127.029V128.571ZM333.983 134.906C332.896 134.901 331.966 134.614 331.195 134.045C330.424 133.476 329.834 132.647 329.425 131.56C329.017 130.472 328.812 129.161 328.812 127.628C328.812 126.099 329.017 124.793 329.425 123.71C329.838 122.627 330.43 121.8 331.202 121.231C331.977 120.662 332.905 120.377 333.983 120.377C335.062 120.377 335.987 120.664 336.758 121.238C337.53 121.807 338.119 122.633 338.528 123.717C338.941 124.796 339.148 126.099 339.148 127.628C339.148 129.166 338.943 130.479 338.535 131.566C338.126 132.65 337.536 133.478 336.765 134.052C335.994 134.621 335.067 134.906 333.983 134.906ZM333.983 133.068C334.938 133.068 335.684 132.602 336.221 131.67C336.763 130.738 337.034 129.391 337.034 127.628C337.034 126.457 336.91 125.468 336.662 124.66C336.419 123.848 336.068 123.232 335.608 122.815C335.154 122.392 334.612 122.181 333.983 122.181C333.033 122.181 332.287 122.649 331.746 123.586C331.204 124.522 330.931 125.87 330.926 127.628C330.926 128.803 331.048 129.797 331.291 130.609C331.539 131.417 331.89 132.03 332.345 132.448C332.799 132.861 333.345 133.068 333.983 133.068ZM351.074 136.435V118.807H352.203V136.435H351.074ZM354.606 124.275C354.533 123.623 354.23 123.118 353.697 122.76C353.165 122.397 352.494 122.216 351.686 122.216C351.108 122.216 350.608 122.308 350.185 122.491C349.763 122.67 349.435 122.918 349.201 123.235C348.971 123.547 348.856 123.903 348.856 124.302C348.856 124.637 348.935 124.926 349.091 125.17C349.251 125.413 349.46 125.617 349.717 125.782C349.979 125.943 350.259 126.079 350.557 126.189C350.856 126.294 351.143 126.382 351.418 126.45L352.795 126.808C353.245 126.919 353.706 127.068 354.179 127.256C354.652 127.444 355.09 127.692 355.494 128C355.898 128.307 356.224 128.688 356.472 129.143C356.725 129.597 356.851 130.141 356.851 130.775C356.851 131.573 356.644 132.283 356.231 132.902C355.822 133.522 355.228 134.011 354.448 134.369C353.672 134.727 352.733 134.906 351.631 134.906C350.576 134.906 349.662 134.738 348.891 134.403C348.12 134.068 347.516 133.593 347.08 132.978C346.644 132.358 346.403 131.624 346.357 130.775H348.492C348.533 131.284 348.698 131.709 348.987 132.048C349.281 132.384 349.655 132.634 350.11 132.799C350.569 132.96 351.071 133.04 351.618 133.04C352.219 133.04 352.754 132.946 353.222 132.758C353.695 132.565 354.067 132.299 354.337 131.959C354.608 131.615 354.744 131.213 354.744 130.754C354.744 130.336 354.624 129.994 354.386 129.728C354.152 129.462 353.833 129.241 353.429 129.067C353.029 128.893 352.577 128.739 352.072 128.606L350.406 128.151C349.277 127.844 348.381 127.391 347.72 126.795C347.064 126.198 346.736 125.408 346.736 124.426C346.736 123.613 346.956 122.904 347.397 122.298C347.837 121.692 348.434 121.222 349.187 120.887C349.94 120.547 350.789 120.377 351.735 120.377C352.69 120.377 353.532 120.545 354.262 120.88C354.996 121.215 355.575 121.676 355.997 122.264C356.419 122.847 356.64 123.517 356.658 124.275H354.606Z" fill="#5B55FD"/>
<path d="M266.647 103.98H169.697C166.742 103.98 164.348 106.375 164.348 109.329V145.015C164.348 147.969 166.742 150.364 169.697 150.364H266.647C269.601 150.364 271.996 147.969 271.996 145.015V109.329C271.996 106.375 269.601 103.98 266.647 103.98Z" fill="#F2F1FF"/>
<path d="M198.723 134.672V120.57H207.468V122.402H200.851V126.698H206.841V128.523H200.851V134.672H198.723ZM209.787 134.672V124.095H211.777V125.776H211.887C212.08 125.206 212.419 124.759 212.906 124.433C213.397 124.102 213.953 123.937 214.572 123.937C214.701 123.937 214.852 123.942 215.027 123.951C215.206 123.96 215.346 123.972 215.447 123.985V125.955C215.364 125.932 215.217 125.906 215.006 125.879C214.795 125.847 214.584 125.831 214.373 125.831C213.886 125.831 213.452 125.934 213.071 126.141C212.695 126.343 212.396 126.625 212.176 126.987C211.956 127.346 211.846 127.754 211.846 128.213V134.672H209.787ZM221.408 134.885C220.366 134.885 219.469 134.663 218.716 134.217C217.967 133.768 217.389 133.136 216.98 132.324C216.577 131.507 216.375 130.55 216.375 129.453C216.375 128.369 216.577 127.414 216.98 126.588C217.389 125.762 217.958 125.117 218.688 124.653C219.423 124.19 220.281 123.958 221.263 123.958C221.86 123.958 222.439 124.056 222.999 124.254C223.559 124.451 224.061 124.761 224.507 125.183C224.952 125.606 225.303 126.154 225.56 126.829C225.817 127.499 225.946 128.314 225.946 129.274V130.003H217.538V128.461H223.928C223.928 127.919 223.818 127.44 223.598 127.022C223.377 126.6 223.067 126.267 222.668 126.023C222.273 125.78 221.81 125.659 221.277 125.659C220.699 125.659 220.194 125.801 219.762 126.085C219.335 126.365 219.005 126.733 218.771 127.187C218.541 127.637 218.426 128.126 218.426 128.654V129.859C218.426 130.566 218.55 131.167 218.798 131.663C219.051 132.159 219.402 132.537 219.852 132.799C220.302 133.056 220.827 133.185 221.429 133.185C221.819 133.185 222.175 133.129 222.496 133.019C222.817 132.905 223.095 132.735 223.329 132.51C223.563 132.285 223.742 132.007 223.866 131.677L225.815 132.028C225.659 132.602 225.379 133.104 224.975 133.536C224.575 133.963 224.073 134.295 223.467 134.534C222.865 134.768 222.179 134.885 221.408 134.885ZM232.788 134.885C231.746 134.885 230.849 134.663 230.096 134.217C229.348 133.768 228.769 133.136 228.361 132.324C227.957 131.507 227.755 130.55 227.755 129.453C227.755 128.369 227.957 127.414 228.361 126.588C228.769 125.762 229.339 125.117 230.068 124.653C230.803 124.19 231.661 123.958 232.644 123.958C233.24 123.958 233.819 124.056 234.379 124.254C234.939 124.451 235.442 124.761 235.887 125.183C236.332 125.606 236.683 126.154 236.94 126.829C237.197 127.499 237.326 128.314 237.326 129.274V130.003H228.919V128.461H235.308C235.308 127.919 235.198 127.44 234.978 127.022C234.758 126.6 234.448 126.267 234.048 126.023C233.654 125.78 233.19 125.659 232.657 125.659C232.079 125.659 231.574 125.801 231.143 126.085C230.716 126.365 230.385 126.733 230.151 127.187C229.922 127.637 229.807 128.126 229.807 128.654V129.859C229.807 130.566 229.931 131.167 230.179 131.663C230.431 132.159 230.782 132.537 231.232 132.799C231.682 133.056 232.208 133.185 232.809 133.185C233.199 133.185 233.555 133.129 233.876 133.019C234.198 132.905 234.475 132.735 234.709 132.51C234.943 132.285 235.123 132.007 235.246 131.677L237.195 132.028C237.039 132.602 236.759 133.104 236.355 133.536C235.956 133.963 235.453 134.295 234.847 134.534C234.246 134.768 233.559 134.885 232.788 134.885Z" fill="#5B55FD"/>
<path d="M408.565 52.0749L408.567 52.077C408.696 52.3331 408.695 52.597 408.58 52.8418C408.462 53.0926 408.212 53.3448 407.81 53.5286L407.805 53.5311L397.585 58.4158L397.48 58.466L397.429 58.5706L393.554 66.4756C393.554 66.4762 393.554 66.4768 393.553 66.4773C393.281 67.0144 392.45 67.4547 391.386 67.4547H378.7H378.624L378.555 67.4874L368.336 72.3721L368.327 72.3762L368.319 72.3808C367.965 72.5751 367.466 72.665 366.93 72.665C366.407 72.665 365.964 72.5796 365.523 72.3717C365.522 72.3716 365.522 72.3714 365.522 72.3713L355.304 67.4874L355.235 67.4547H355.159H342.684C341.621 67.4547 340.79 67.0143 340.517 66.4773C340.517 66.4767 340.517 66.4762 340.516 66.4756L336.642 58.5706L336.59 58.4656L336.485 58.4154L326.194 53.5307L326.194 53.5307L326.19 53.5287C325.788 53.3448 325.538 53.0926 325.42 52.8418C325.305 52.597 325.304 52.3331 325.433 52.077L325.433 52.077L325.435 52.0734L329.312 44.1649L329.384 44.0174L329.312 43.87L325.435 35.9614L325.435 35.9614L325.433 35.9579C325.304 35.7017 325.305 35.4379 325.42 35.1931C325.538 34.9423 325.788 34.6901 326.19 34.5062L326.19 34.5063L326.195 34.5038L336.415 29.6191L336.52 29.5688L336.571 29.4643L340.447 21.5576C340.719 21.0206 341.55 20.5802 342.614 20.5802H355.23H355.306L355.375 20.547L365.592 15.6173C366.418 15.2408 367.512 15.2409 368.338 15.6175C368.339 15.6179 368.34 15.6183 368.341 15.6187L378.555 20.501L378.624 20.5337H378.7H391.316C392.379 20.5337 393.21 20.974 393.483 21.511C393.483 21.5116 393.483 21.5122 393.484 21.5128L397.358 29.4177L397.41 29.5223L397.515 29.5726L407.734 34.4573L407.74 34.4597C408.142 34.6436 408.392 34.8958 408.51 35.1466C408.625 35.3913 408.625 35.6552 408.496 35.9113L408.494 35.9149L404.618 43.8235L404.545 43.9718L404.619 44.1198L408.565 52.0749Z" fill="#EE6E6E" stroke="#D6D6D6" stroke-width="0.67"/>
<path d="M354.298 38V37.052L357.862 31.52H354.478V30.2H359.782V31.148L356.218 36.68H359.782V38H354.298ZM364.343 38.144C363.351 38.144 362.571 37.876 362.003 37.34C361.435 36.804 361.151 36.072 361.151 35.144C361.151 34.544 361.275 34.02 361.523 33.572C361.771 33.124 362.115 32.776 362.555 32.528C362.995 32.272 363.507 32.144 364.091 32.144C364.659 32.144 365.151 32.264 365.567 32.504C365.991 32.736 366.319 33.064 366.551 33.488C366.783 33.912 366.899 34.408 366.899 34.976C366.899 35.08 366.895 35.188 366.887 35.3C366.879 35.404 366.863 35.516 366.839 35.636H362.591C362.671 36.076 362.859 36.404 363.155 36.62C363.451 36.836 363.851 36.944 364.355 36.944C364.955 36.944 365.543 36.76 366.119 36.392L366.647 37.436C366.279 37.684 365.911 37.864 365.543 37.976C365.175 38.088 364.775 38.144 364.343 38.144ZM362.603 34.568H365.507C365.443 34.168 365.287 33.864 365.039 33.656C364.799 33.448 364.479 33.344 364.079 33.344C363.687 33.344 363.363 33.448 363.107 33.656C362.859 33.864 362.691 34.168 362.603 34.568ZM368.808 38V32.288H369.912L370.056 33.08C370.352 32.752 370.672 32.516 371.016 32.372C371.36 32.22 371.748 32.144 372.18 32.144C372.764 32.144 373.268 32.296 373.692 32.6L373.164 33.824C372.988 33.696 372.808 33.604 372.624 33.548C372.448 33.484 372.256 33.452 372.048 33.452C371.368 33.452 370.76 33.78 370.224 34.436V38H368.808ZM377.941 38.144C377.365 38.144 376.857 38.02 376.417 37.772C375.977 37.516 375.633 37.164 375.385 36.716C375.137 36.26 375.013 35.736 375.013 35.144C375.013 34.544 375.137 34.02 375.385 33.572C375.633 33.124 375.977 32.776 376.417 32.528C376.857 32.272 377.365 32.144 377.941 32.144C378.517 32.144 379.025 32.272 379.465 32.528C379.905 32.776 380.249 33.124 380.497 33.572C380.745 34.02 380.869 34.544 380.869 35.144C380.869 35.736 380.745 36.26 380.497 36.716C380.249 37.164 379.905 37.516 379.465 37.772C379.025 38.02 378.517 38.144 377.941 38.144ZM377.941 36.848C378.405 36.848 378.769 36.7 379.033 36.404C379.297 36.1 379.429 35.68 379.429 35.144C379.429 34.608 379.297 34.192 379.033 33.896C378.769 33.592 378.405 33.44 377.941 33.44C377.477 33.44 377.113 33.592 376.849 33.896C376.585 34.192 376.453 34.608 376.453 35.144C376.453 35.68 376.585 36.1 376.849 36.404C377.113 36.7 377.477 36.848 377.941 36.848ZM337.052 52V50.68H338.936V45.52H337.052V44.2H342.26V45.52H340.376V50.68H342.26V52H337.052ZM344.109 52V46.288H345.153L345.273 46.78C345.577 46.556 345.877 46.396 346.173 46.3C346.477 46.196 346.797 46.144 347.133 46.144C347.805 46.144 348.321 46.336 348.681 46.72C349.041 47.096 349.221 47.636 349.221 48.34V52H347.805V48.556C347.805 48.148 347.725 47.86 347.565 47.692C347.413 47.524 347.145 47.44 346.761 47.44C346.537 47.44 346.325 47.468 346.125 47.524C345.933 47.572 345.733 47.652 345.525 47.764V52H344.109ZM352.858 52L350.614 46.288H352.126L353.626 50.236L355.126 46.288H356.542L354.298 52H352.858ZM360.863 52.144C359.871 52.144 359.091 51.876 358.523 51.34C357.955 50.804 357.671 50.072 357.671 49.144C357.671 48.544 357.795 48.02 358.043 47.572C358.291 47.124 358.635 46.776 359.075 46.528C359.515 46.272 360.027 46.144 360.611 46.144C361.179 46.144 361.671 46.264 362.087 46.504C362.511 46.736 362.839 47.064 363.071 47.488C363.303 47.912 363.419 48.408 363.419 48.976C363.419 49.08 363.415 49.188 363.407 49.3C363.399 49.404 363.383 49.516 363.359 49.636H359.111C359.191 50.076 359.379 50.404 359.675 50.62C359.971 50.836 360.371 50.944 360.875 50.944C361.475 50.944 362.063 50.76 362.639 50.392L363.167 51.436C362.799 51.684 362.431 51.864 362.063 51.976C361.695 52.088 361.295 52.144 360.863 52.144ZM359.123 48.568H362.027C361.963 48.168 361.807 47.864 361.559 47.656C361.319 47.448 360.999 47.344 360.599 47.344C360.207 47.344 359.883 47.448 359.627 47.656C359.379 47.864 359.211 48.168 359.123 48.568ZM367.452 52.144C366.38 52.144 365.464 51.908 364.704 51.436L365.22 50.332C365.532 50.532 365.88 50.684 366.264 50.788C366.656 50.892 367.064 50.944 367.488 50.944C368.312 50.944 368.724 50.748 368.724 50.356C368.724 50.196 368.68 50.08 368.592 50.008C368.504 49.936 368.344 49.888 368.112 49.864L366.792 49.708C366.184 49.636 365.732 49.468 365.436 49.204C365.148 48.932 365.004 48.544 365.004 48.04C365.004 47.432 365.22 46.964 365.652 46.636C366.084 46.308 366.712 46.144 367.536 46.144C368.432 46.144 369.252 46.336 369.996 46.72L369.54 47.848C368.956 47.512 368.28 47.344 367.512 47.344C366.784 47.344 366.42 47.536 366.42 47.92C366.42 48.072 366.464 48.184 366.552 48.256C366.648 48.328 366.808 48.376 367.032 48.4L368.352 48.556C368.96 48.628 369.408 48.8 369.696 49.072C369.992 49.336 370.14 49.724 370.14 50.236C370.14 50.844 369.908 51.316 369.444 51.652C368.988 51.98 368.324 52.144 367.452 52.144ZM375.42 52.144C373.948 52.144 373.212 51.412 373.212 49.948V47.56H371.544V46.288H373.212V44.668L374.628 44.056V46.288H376.788V47.56H374.628V49.732C374.628 50.14 374.704 50.428 374.856 50.596C375.016 50.764 375.288 50.848 375.672 50.848C376.144 50.848 376.6 50.712 377.04 50.44L377.4 51.64C376.824 51.976 376.164 52.144 375.42 52.144ZM381.421 52.144C380.845 52.144 380.337 52.02 379.897 51.772C379.457 51.516 379.113 51.164 378.865 50.716C378.617 50.26 378.493 49.736 378.493 49.144C378.493 48.544 378.617 48.02 378.865 47.572C379.113 47.124 379.457 46.776 379.897 46.528C380.337 46.272 380.845 46.144 381.421 46.144C381.997 46.144 382.505 46.272 382.945 46.528C383.385 46.776 383.729 47.124 383.977 47.572C384.225 48.02 384.349 48.544 384.349 49.144C384.349 49.736 384.225 50.26 383.977 50.716C383.729 51.164 383.385 51.516 382.945 51.772C382.505 52.02 381.997 52.144 381.421 52.144ZM381.421 50.848C381.885 50.848 382.249 50.7 382.513 50.404C382.777 50.1 382.909 49.68 382.909 49.144C382.909 48.608 382.777 48.192 382.513 47.896C382.249 47.592 381.885 47.44 381.421 47.44C380.957 47.44 380.593 47.592 380.329 47.896C380.065 48.192 379.933 48.608 379.933 49.144C379.933 49.68 380.065 50.1 380.329 50.404C380.593 50.7 380.957 50.848 381.421 50.848ZM386.21 52V46.288H387.314L387.458 47.08C387.754 46.752 388.074 46.516 388.418 46.372C388.762 46.22 389.15 46.144 389.582 46.144C390.166 46.144 390.67 46.296 391.094 46.6L390.566 47.824C390.39 47.696 390.21 47.604 390.026 47.548C389.85 47.484 389.658 47.452 389.45 47.452C388.77 47.452 388.162 47.78 387.626 48.436V52H386.21ZM395.295 52.144C394.223 52.144 393.307 51.908 392.547 51.436L393.063 50.332C393.375 50.532 393.723 50.684 394.107 50.788C394.499 50.892 394.907 50.944 395.331 50.944C396.155 50.944 396.567 50.748 396.567 50.356C396.567 50.196 396.523 50.08 396.435 50.008C396.347 49.936 396.187 49.888 395.955 49.864L394.635 49.708C394.027 49.636 393.575 49.468 393.279 49.204C392.991 48.932 392.847 48.544 392.847 48.04C392.847 47.432 393.063 46.964 393.495 46.636C393.927 46.308 394.555 46.144 395.379 46.144C396.275 46.144 397.095 46.336 397.839 46.72L397.383 47.848C396.799 47.512 396.123 47.344 395.355 47.344C394.627 47.344 394.263 47.536 394.263 47.92C394.263 48.072 394.307 48.184 394.395 48.256C394.491 48.328 394.651 48.376 394.875 48.4L396.195 48.556C396.803 48.628 397.251 48.8 397.539 49.072C397.835 49.336 397.983 49.724 397.983 50.236C397.983 50.844 397.751 51.316 397.287 51.652C396.831 51.98 396.167 52.144 395.295 52.144Z" fill="white"/>
</g>
<defs>
<clipPath id="clip0_461_2">
<rect width="413" height="180" fill="white"/>
</clipPath>
</defs>
</svg>
