<svg width="413" height="180" viewBox="0 0 413 180" fill="none" xmlns="http://www.w3.org/2000/svg">
<g clip-path="url(#clip0_440_2)">
<path d="M407.651 0H5.34898C2.39482 0 0 2.39482 0 5.34898V174.651C0 177.605 2.39482 180 5.34898 180H407.651C410.605 180 413 177.605 413 174.651V5.34898C413 2.39482 410.605 0 407.651 0Z" fill="#E3E3E9" fill-opacity="0.4"/>
<path d="M6 7.76148C6 6.78864 6.78864 6 7.76148 6C8.73431 6 9.52295 6.78864 9.52295 7.76148C9.52295 8.73431 8.73431 9.52295 7.76148 9.52295C6.78864 9.52295 6 8.73431 6 7.76148Z" fill="#B8B8C5"/>
<path d="M403.5 7.76148C403.5 6.78864 404.289 6 405.261 6C406.234 6 407.023 6.78864 407.023 7.76148C407.023 8.73431 406.234 9.52295 405.261 9.52295C404.289 9.52295 403.5 8.73431 403.5 7.76148Z" fill="#B8B8C5"/>
<path d="M158.359 15.6362H160.623L164.559 25.247H164.704L168.64 15.6362H170.904V27.9998H169.129V19.0531H169.014L165.368 27.9817H163.895L160.249 19.047H160.134V27.9998H158.359V15.6362ZM175.482 15.6362V27.9998H173.616V15.6362H175.482ZM177.588 17.242V15.6362H187.157V17.242H183.299V27.9998H181.44V17.242H177.588ZM193.77 27.9998V15.6362H195.636V26.394H201.238V27.9998H193.77ZM203.221 27.9998V18.7271H205.026V27.9998H203.221ZM204.133 17.2963C203.819 17.2963 203.549 17.1917 203.324 16.9824C203.103 16.7691 202.992 16.5155 202.992 16.2217C202.992 15.9239 203.103 15.6704 203.324 15.4611C203.549 15.2478 203.819 15.1411 204.133 15.1411C204.447 15.1411 204.714 15.2478 204.936 15.4611C205.161 15.6704 205.274 15.9239 205.274 16.2217C205.274 16.5155 205.161 16.7691 204.936 16.9824C204.714 17.1917 204.447 17.2963 204.133 17.2963ZM211.361 28.1869C210.463 28.1869 209.69 27.9837 209.042 27.5772C208.398 27.1667 207.903 26.6012 207.557 25.8808C207.211 25.1604 207.038 24.3354 207.038 23.4057C207.038 22.4639 207.215 21.6328 207.569 20.9124C207.924 20.188 208.423 19.6226 209.067 19.2161C209.71 18.8096 210.469 18.6063 211.342 18.6063C212.047 18.6063 212.675 18.7371 213.226 18.9987C213.777 19.2563 214.222 19.6185 214.56 20.0854C214.902 20.5522 215.105 21.0976 215.17 21.7214H213.413C213.317 21.2867 213.095 20.9124 212.749 20.5985C212.407 20.2846 211.948 20.1276 211.373 20.1276C210.87 20.1276 210.429 20.2605 210.051 20.5261C209.676 20.7877 209.384 21.162 209.175 21.6489C208.966 22.1319 208.861 22.7034 208.861 23.3634C208.861 24.0396 208.964 24.6231 209.169 25.1141C209.374 25.6052 209.664 25.9855 210.038 26.2551C210.417 26.5248 210.861 26.6596 211.373 26.6596C211.715 26.6596 212.025 26.5972 212.302 26.4725C212.584 26.3437 212.819 26.1605 213.009 25.9231C213.202 25.6856 213.337 25.3999 213.413 25.0659H215.17C215.105 25.6655 214.91 26.2008 214.584 26.6717C214.258 27.1426 213.822 27.5128 213.274 27.7825C212.731 28.0521 212.093 28.1869 211.361 28.1869ZM221.097 28.1869C220.183 28.1869 219.396 27.9918 218.736 27.6014C218.08 27.2069 217.573 26.6536 217.215 25.9412C216.861 25.2248 216.684 24.3857 216.684 23.4238C216.684 22.474 216.861 21.6369 217.215 20.9124C217.573 20.188 218.072 19.6226 218.712 19.2161C219.356 18.8096 220.109 18.6063 220.97 18.6063C221.493 18.6063 222 18.6929 222.491 18.8659C222.982 19.039 223.423 19.3106 223.813 19.6809C224.204 20.0512 224.512 20.5321 224.737 21.1237C224.962 21.7113 225.075 22.4257 225.075 23.2668V23.9068H217.704V22.5545H223.306C223.306 22.0796 223.21 21.659 223.016 21.2928C222.823 20.9225 222.552 20.6307 222.201 20.4174C221.855 20.2041 221.449 20.0975 220.982 20.0975C220.475 20.0975 220.032 20.2222 219.654 20.4717C219.279 20.7172 218.99 21.0392 218.784 21.4377C218.583 21.8321 218.483 22.2607 218.483 22.7235V23.78C218.483 24.3998 218.591 24.927 218.809 25.3617C219.03 25.7963 219.338 26.1284 219.732 26.3578C220.127 26.5831 220.587 26.6958 221.115 26.6958C221.457 26.6958 221.769 26.6475 222.05 26.5509C222.332 26.4503 222.576 26.3014 222.781 26.1042C222.986 25.907 223.143 25.6635 223.252 25.3737L224.96 25.6816C224.823 26.1847 224.578 26.6254 224.224 27.0037C223.874 27.378 223.433 27.6698 222.902 27.8791C222.374 28.0843 221.773 28.1869 221.097 28.1869ZM228.883 22.4941V27.9998H227.078V18.7271H228.81V20.2363H228.925C229.138 19.7453 229.472 19.3509 229.927 19.0531C230.386 18.7552 230.963 18.6063 231.66 18.6063C232.292 18.6063 232.845 18.7391 233.32 19.0048C233.795 19.2664 234.163 19.6568 234.425 20.1759C234.686 20.6951 234.817 21.337 234.817 22.1017V27.9998H233.012V22.319C233.012 21.6469 232.837 21.1217 232.487 20.7434C232.137 20.3611 231.656 20.1699 231.044 20.1699C230.625 20.1699 230.253 20.2605 229.927 20.4416C229.605 20.6227 229.35 20.8883 229.16 21.2384C228.975 21.5846 228.883 22.0031 228.883 22.4941ZM241.144 28.1869C240.246 28.1869 239.474 27.9837 238.826 27.5772C238.182 27.1667 237.687 26.6012 237.34 25.8808C236.994 25.1604 236.821 24.3354 236.821 23.4057C236.821 22.4639 236.998 21.6328 237.353 20.9124C237.707 20.188 238.206 19.6226 238.85 19.2161C239.494 18.8096 240.252 18.6063 241.126 18.6063C241.83 18.6063 242.458 18.7371 243.009 18.9987C243.561 19.2563 244.005 19.6185 244.343 20.0854C244.685 20.5522 244.889 21.0976 244.953 21.7214H243.196C243.1 21.2867 242.878 20.9124 242.532 20.5985C242.19 20.2846 241.731 20.1276 241.156 20.1276C240.653 20.1276 240.212 20.2605 239.834 20.5261C239.459 20.7877 239.168 21.162 238.958 21.6489C238.749 22.1319 238.644 22.7034 238.644 23.3634C238.644 24.0396 238.747 24.6231 238.952 25.1141C239.158 25.6052 239.447 25.9855 239.822 26.2551C240.2 26.5248 240.645 26.6596 241.156 26.6596C241.498 26.6596 241.808 26.5972 242.086 26.4725C242.367 26.3437 242.603 26.1605 242.792 25.9231C242.985 25.6856 243.12 25.3999 243.196 25.0659H244.953C244.889 25.6655 244.693 26.2008 244.367 26.6717C244.041 27.1426 243.605 27.5128 243.057 27.7825C242.514 28.0521 241.876 28.1869 241.144 28.1869ZM250.88 28.1869C249.966 28.1869 249.179 27.9918 248.519 27.6014C247.863 27.2069 247.356 26.6536 246.998 25.9412C246.644 25.2248 246.467 24.3857 246.467 23.4238C246.467 22.474 246.644 21.6369 246.998 20.9124C247.356 20.188 247.855 19.6226 248.495 19.2161C249.139 18.8096 249.892 18.6063 250.753 18.6063C251.276 18.6063 251.783 18.6929 252.274 18.8659C252.765 19.039 253.206 19.3106 253.596 19.6809C253.987 20.0512 254.295 20.5321 254.52 21.1237C254.745 21.7113 254.858 22.4257 254.858 23.2668V23.9068H247.487V22.5545H253.089C253.089 22.0796 252.993 21.659 252.8 21.2928C252.606 20.9225 252.335 20.6307 251.985 20.4174C251.638 20.2041 251.232 20.0975 250.765 20.0975C250.258 20.0975 249.815 20.2222 249.437 20.4717C249.063 20.7172 248.773 21.0392 248.568 21.4377C248.366 21.8321 248.266 22.2607 248.266 22.7235V23.78C248.266 24.3998 248.374 24.927 248.592 25.3617C248.813 25.7963 249.121 26.1284 249.515 26.3578C249.91 26.5831 250.371 26.6958 250.898 26.6958C251.24 26.6958 251.552 26.6475 251.834 26.5509C252.115 26.4503 252.359 26.3014 252.564 26.1042C252.769 25.907 252.926 25.6635 253.035 25.3737L254.743 25.6816C254.607 26.1847 254.361 26.6254 254.007 27.0037C253.657 27.378 253.216 27.6698 252.685 27.8791C252.158 28.0843 251.556 28.1869 250.88 28.1869Z" fill="black"/>
<path d="M6 172.761C6 171.789 6.78864 171 7.76148 171C8.73431 171 9.52295 171.789 9.52295 172.761C9.52295 173.734 8.73431 174.523 7.76148 174.523C6.78864 174.523 6 173.734 6 172.761Z" fill="#B8B8C5"/>
<path d="M403.5 172.761C403.5 171.789 404.289 171 405.261 171C406.234 171 407.023 171.789 407.023 172.761C407.023 173.734 406.234 174.523 405.261 174.523C404.289 174.523 403.5 173.734 403.5 172.761Z" fill="#B8B8C5"/>
<path d="M139.959 55H24.0414C21.2571 55 19 57.0771 19 59.6394V153.361C19 155.923 21.2571 158 24.0414 158H139.959C142.743 158 145 155.923 145 153.361V59.6394C145 57.0771 142.743 55 139.959 55Z" fill="white"/>
<path d="M139.959 55H24.0414C21.2571 55 19 57.0771 19 59.6394V153.361C19 155.923 21.2571 158 24.0414 158H139.959C142.743 158 145 155.923 145 153.361V59.6394C145 57.0771 142.743 55 139.959 55Z" stroke="#D6D6D6" stroke-width="0.668622"/>
<path d="M45.9141 76.9952V65.3247H52.9574V66.5784H47.3273V70.5217H52.5927V71.7754H47.3273V75.7415H53.0486V76.9952H45.9141ZM56.6672 71.7298V76.9952H55.3223V68.2423H56.6216V69.61H56.7355C56.9407 69.1655 57.2522 68.8084 57.6701 68.5386C58.088 68.2651 58.6274 68.1283 59.2885 68.1283C59.8811 68.1283 60.3997 68.2499 60.8441 68.4931C61.2886 68.7324 61.6343 69.0971 61.8813 69.5872C62.1282 70.0734 62.2517 70.6889 62.2517 71.4335V76.9952H60.9068V71.5246C60.9068 70.837 60.7283 70.3014 60.3712 69.9177C60.0141 69.5302 59.524 69.3364 58.901 69.3364C58.4717 69.3364 58.088 69.4295 57.7499 69.6157C57.4156 69.8018 57.1515 70.0734 56.9578 70.4305C56.764 70.7876 56.6672 71.2207 56.6672 71.7298ZM68.2422 80.4599C67.5926 80.4599 67.0341 80.3763 66.5669 80.2091C66.0996 80.0458 65.7102 79.8292 65.3987 79.5595C65.0909 79.2936 64.8459 79.0087 64.6636 78.7047L65.7349 77.9525C65.8564 78.1121 66.0103 78.2944 66.1964 78.4996C66.3826 78.7085 66.6371 78.889 66.96 79.0409C67.2868 79.1967 67.7141 79.2746 68.2422 79.2746C68.9488 79.2746 69.532 79.1036 69.9916 78.7617C70.4513 78.4198 70.6812 77.8842 70.6812 77.1547V75.3768H70.5672C70.4684 75.5364 70.3279 75.7339 70.1455 75.9695C69.9669 76.2012 69.7086 76.4082 69.3705 76.5906C69.0362 76.7691 68.5841 76.8584 68.0143 76.8584C67.3077 76.8584 66.6732 76.6913 66.111 76.357C65.5525 76.0226 65.1099 75.5364 64.7832 74.8981C64.4603 74.2599 64.2989 73.4849 64.2989 72.5732C64.2989 71.6766 64.4565 70.8959 64.7718 70.2311C65.0871 69.5625 65.5259 69.0458 66.0882 68.6811C66.6504 68.3126 67.3001 68.1283 68.0371 68.1283C68.6069 68.1283 69.059 68.2233 69.3933 68.4133C69.7314 68.5994 69.9897 68.8122 70.1683 69.0515C70.3506 69.287 70.4912 69.4808 70.59 69.6327H70.7267V68.2423H72.026V77.2459C72.026 77.9981 71.855 78.6098 71.5131 79.0808C71.175 79.5557 70.7191 79.9033 70.1455 80.1237C69.5757 80.3478 68.9412 80.4599 68.2422 80.4599ZM68.1966 75.6503C68.7361 75.6503 69.192 75.5269 69.5643 75.2799C69.9366 75.033 70.2196 74.6778 70.4133 74.2143C70.6071 73.7509 70.7039 73.1962 70.7039 72.5504C70.7039 71.9197 70.609 71.3632 70.419 70.8807C70.2291 70.3982 69.948 70.0202 69.5757 69.7467C69.2033 69.4732 68.7437 69.3364 68.1966 69.3364C67.6268 69.3364 67.1519 69.4808 66.772 69.7695C66.3959 70.0582 66.1129 70.4457 65.9229 70.932C65.7368 71.4183 65.6437 71.9577 65.6437 72.5504C65.6437 73.1582 65.7387 73.6958 65.9286 74.163C66.1224 74.6265 66.4073 74.9912 66.7834 75.2572C67.1633 75.5193 67.6344 75.6503 68.1966 75.6503ZM74.4877 76.9952V68.2423H75.8326V76.9952H74.4877ZM75.1716 66.7835C74.9094 66.7835 74.6834 66.6942 74.4934 66.5157C74.3073 66.3371 74.2142 66.1225 74.2142 65.8718C74.2142 65.621 74.3073 65.4064 74.4934 65.2278C74.6834 65.0493 74.9094 64.96 75.1716 64.96C75.4337 64.96 75.6578 65.0493 75.844 65.2278C76.0339 65.4064 76.1289 65.621 76.1289 65.8718C76.1289 66.1225 76.0339 66.3371 75.844 66.5157C75.6578 66.6942 75.4337 66.7835 75.1716 66.7835ZM79.6406 71.7298V76.9952H78.2958V68.2423H79.595V69.61H79.709C79.9141 69.1655 80.2256 68.8084 80.6435 68.5386C81.0614 68.2651 81.6009 68.1283 82.2619 68.1283C82.8545 68.1283 83.3731 68.2499 83.8176 68.4931C84.2621 68.7324 84.6078 69.0971 84.8547 69.5872C85.1016 70.0734 85.2251 70.6889 85.2251 71.4335V76.9952H83.8803V71.5246C83.8803 70.837 83.7017 70.3014 83.3446 69.9177C82.9875 69.5302 82.4974 69.3364 81.8744 69.3364C81.4451 69.3364 81.0614 69.4295 80.7233 69.6157C80.389 69.8018 80.125 70.0734 79.9312 70.4305C79.7375 70.7876 79.6406 71.2207 79.6406 71.7298ZM91.3524 77.1775C90.509 77.1775 89.7815 76.9914 89.1699 76.6191C88.562 76.243 88.0929 75.7187 87.7624 75.0463C87.4356 74.3701 87.2723 73.5837 87.2723 72.6871C87.2723 71.7906 87.4356 71.0004 87.7624 70.3166C88.0929 69.6289 88.5526 69.0933 89.1414 68.7096C89.734 68.3221 90.4255 68.1283 91.2156 68.1283C91.6715 68.1283 92.1217 68.2043 92.5662 68.3563C93.0107 68.5082 93.4153 68.7552 93.78 69.0971C94.1447 69.4352 94.4353 69.8835 94.6518 70.4419C94.8684 71.0004 94.9766 71.688 94.9766 72.5048V73.0746H88.2296V71.9121H93.609C93.609 71.4183 93.5102 70.9776 93.3127 70.5901C93.1189 70.2026 92.8416 69.8968 92.4807 69.6726C92.1236 69.4485 91.7019 69.3364 91.2156 69.3364C90.68 69.3364 90.2165 69.4694 89.8252 69.7353C89.4377 69.9975 89.1395 70.3394 88.9305 70.761C88.7216 71.1827 88.6171 71.6348 88.6171 72.1173V72.8923C88.6171 73.5533 88.7311 74.1137 88.959 74.5733C89.1908 75.0292 89.5118 75.3768 89.9221 75.6162C90.3324 75.8517 90.8091 75.9695 91.3524 75.9695C91.7057 75.9695 92.0248 75.9201 92.3098 75.8213C92.5985 75.7187 92.8473 75.5668 93.0563 75.3654C93.2652 75.1603 93.4267 74.9057 93.5406 74.6018L94.8399 74.9665C94.7031 75.4072 94.4733 75.7947 94.1504 76.129C93.8274 76.4595 93.4286 76.7179 92.9537 76.904C92.4788 77.0864 91.945 77.1775 91.3524 77.1775ZM100.692 77.1775C99.8488 77.1775 99.1213 76.9914 98.5097 76.6191C97.9019 76.243 97.4327 75.7187 97.1022 75.0463C96.7755 74.3701 96.6121 73.5837 96.6121 72.6871C96.6121 71.7906 96.7755 71.0004 97.1022 70.3166C97.4327 69.6289 97.8924 69.0933 98.4812 68.7096C99.0738 68.3221 99.7653 68.1283 100.556 68.1283C101.011 68.1283 101.462 68.2043 101.906 68.3563C102.351 68.5082 102.755 68.7552 103.12 69.0971C103.485 69.4352 103.775 69.8835 103.992 70.4419C104.208 71.0004 104.317 71.688 104.317 72.5048V73.0746H97.5694V71.9121H102.949C102.949 71.4183 102.85 70.9776 102.653 70.5901C102.459 70.2026 102.182 69.8968 101.821 69.6726C101.464 69.4485 101.042 69.3364 100.556 69.3364C100.02 69.3364 99.5563 69.4694 99.165 69.7353C98.7775 69.9975 98.4793 70.3394 98.2704 70.761C98.0614 71.1827 97.9569 71.6348 97.9569 72.1173V72.8923C97.9569 73.5533 98.0709 74.1137 98.2989 74.5733C98.5306 75.0292 98.8516 75.3768 99.2619 75.6162C99.6722 75.8517 100.149 75.9695 100.692 75.9695C101.046 75.9695 101.365 75.9201 101.65 75.8213C101.938 75.7187 102.187 75.5668 102.396 75.3654C102.605 75.1603 102.767 74.9057 102.881 74.6018L104.18 74.9665C104.043 75.4072 103.813 75.7947 103.49 76.129C103.167 76.4595 102.768 76.7179 102.294 76.904C101.819 77.0864 101.285 77.1775 100.692 77.1775ZM106.362 76.9952V68.2423H107.662V69.5644H107.753C107.912 69.1313 108.201 68.7799 108.619 68.5101C109.037 68.2404 109.508 68.1056 110.032 68.1056C110.131 68.1056 110.254 68.1075 110.403 68.1113C110.551 68.1151 110.663 68.1208 110.739 68.1283V69.496C110.693 69.4846 110.589 69.4675 110.425 69.4447C110.266 69.4181 110.097 69.4048 109.918 69.4048C109.493 69.4048 109.113 69.4941 108.778 69.6726C108.448 69.8474 108.186 70.0905 107.992 70.402C107.802 70.7098 107.707 71.0612 107.707 71.4563V76.9952H106.362ZM118.533 70.2026L117.325 70.5445C117.249 70.3432 117.137 70.1475 116.989 69.9576C116.844 69.7638 116.647 69.6043 116.396 69.4789C116.145 69.3535 115.824 69.2908 115.433 69.2908C114.897 69.2908 114.451 69.4143 114.094 69.6612C113.74 69.9044 113.564 70.214 113.564 70.5901C113.564 70.9244 113.685 71.1884 113.928 71.3822C114.172 71.5759 114.552 71.7374 115.068 71.8666L116.367 72.1857C117.15 72.3756 117.733 72.6662 118.117 73.0575C118.501 73.445 118.692 73.9446 118.692 74.5562C118.692 75.0577 118.548 75.506 118.259 75.9011C117.974 76.2962 117.575 76.6077 117.063 76.8356C116.55 77.0636 115.953 77.1775 115.273 77.1775C114.381 77.1775 113.642 76.9838 113.057 76.5963C112.472 76.2088 112.101 75.6427 111.945 74.8981L113.222 74.579C113.343 75.0501 113.573 75.4034 113.911 75.639C114.253 75.8745 114.7 75.9923 115.251 75.9923C115.877 75.9923 116.375 75.8593 116.744 75.5934C117.116 75.3236 117.302 75.0007 117.302 74.6246C117.302 74.3207 117.196 74.0662 116.983 73.861C116.77 73.6521 116.443 73.4963 116.003 73.3937L114.544 73.0518C113.742 72.8619 113.153 72.5675 112.777 72.1686C112.405 71.7659 112.219 71.2625 112.219 70.6585C112.219 70.1646 112.358 69.7277 112.635 69.3478C112.916 68.9679 113.298 68.6697 113.78 68.4532C114.267 68.2366 114.817 68.1283 115.433 68.1283C116.299 68.1283 116.979 68.3183 117.473 68.6982C117.971 69.0781 118.324 69.5796 118.533 70.2026Z" fill="#262626"/>
<path d="M130.301 103.982H33.6966C30.7425 103.982 28.3477 106.377 28.3477 109.331V145.017C28.3477 147.971 30.7425 150.366 33.6966 150.366H130.301C133.255 150.366 135.65 147.971 135.65 145.017V109.331C135.65 106.377 133.255 103.982 130.301 103.982Z" fill="#F2F1FF"/>
<path d="M62.5508 134.674V120.572H71.2956V122.404H64.6784V126.701H70.669V128.525H64.6784V134.674H62.5508ZM73.6143 134.674V124.098H75.6043V125.778H75.7144C75.9072 125.209 76.2469 124.761 76.7335 124.435C77.2247 124.105 77.7801 123.94 78.3999 123.94C78.5284 123.94 78.6799 123.944 78.8543 123.953C79.0333 123.963 79.1733 123.974 79.2743 123.988V125.957C79.1917 125.934 79.0448 125.909 78.8337 125.881C78.6225 125.849 78.4113 125.833 78.2002 125.833C77.7136 125.833 77.2798 125.936 76.8988 126.143C76.5224 126.345 76.224 126.627 76.0036 126.99C75.7833 127.348 75.6731 127.757 75.6731 128.216V134.674H73.6143ZM85.2356 134.888C84.1936 134.888 83.2961 134.665 82.5433 134.22C81.7951 133.77 81.2167 133.139 80.8081 132.326C80.4042 131.509 80.2022 130.552 80.2022 129.455C80.2022 128.372 80.4042 127.417 80.8081 126.591C81.2167 125.764 81.7859 125.119 82.5158 124.656C83.2502 124.192 84.1087 123.96 85.091 123.96C85.6878 123.96 86.2662 124.059 86.8262 124.256C87.3862 124.454 87.8889 124.764 88.3342 125.186C88.7794 125.608 89.1306 126.157 89.3877 126.832C89.6447 127.502 89.7733 128.317 89.7733 129.276V130.006H81.3659V128.463H87.7558C87.7558 127.922 87.6456 127.442 87.4252 127.024C87.2049 126.602 86.8951 126.269 86.4957 126.026C86.1009 125.783 85.6373 125.661 85.1048 125.661C84.5264 125.661 84.0214 125.803 83.5899 126.088C83.163 126.368 82.8325 126.735 82.5984 127.19C82.3689 127.639 82.2541 128.128 82.2541 128.656V129.861C82.2541 130.568 82.3781 131.17 82.6259 131.665C82.8784 132.161 83.2296 132.54 83.6794 132.801C84.1293 133.058 84.6549 133.187 85.2563 133.187C85.6465 133.187 86.0022 133.132 86.3235 133.022C86.6449 132.907 86.9226 132.737 87.1567 132.512C87.3908 132.287 87.5698 132.01 87.6938 131.679L89.6424 132.03C89.4864 132.604 89.2063 133.107 88.8024 133.538C88.403 133.965 87.9004 134.298 87.2944 134.537C86.6931 134.771 86.0068 134.888 85.2356 134.888ZM96.6159 134.888C95.5739 134.888 94.6764 134.665 93.9236 134.22C93.1754 133.77 92.597 133.139 92.1884 132.326C91.7844 131.509 91.5825 130.552 91.5825 129.455C91.5825 128.372 91.7844 127.417 92.1884 126.591C92.597 125.764 93.1662 125.119 93.8961 124.656C94.6305 124.192 95.4889 123.96 96.4713 123.96C97.0681 123.96 97.6464 124.059 98.2065 124.256C98.7665 124.454 99.2692 124.764 99.7144 125.186C100.159 125.608 100.51 126.157 100.767 126.832C101.025 127.502 101.153 128.317 101.153 129.276V130.006H92.7461V128.463H99.136C99.136 127.922 99.0259 127.442 98.8055 127.024C98.5852 126.602 98.2753 126.269 97.876 126.026C97.4812 125.783 97.0176 125.661 96.4851 125.661C95.9067 125.661 95.4017 125.803 94.9702 126.088C94.5433 126.368 94.2128 126.735 93.9787 127.19C93.7492 127.639 93.6344 128.128 93.6344 128.656V129.861C93.6344 130.568 93.7583 131.17 94.0062 131.665C94.2587 132.161 94.6099 132.54 95.0597 132.801C95.5096 133.058 96.0352 133.187 96.6365 133.187C97.0267 133.187 97.3825 133.132 97.7038 133.022C98.0252 132.907 98.3029 132.737 98.537 132.512C98.7711 132.287 98.9501 132.01 99.0741 131.679L101.022 132.03C100.866 132.604 100.586 133.107 100.182 133.538C99.7833 133.965 99.2806 134.298 98.6747 134.537C98.0734 134.771 97.3871 134.888 96.6159 134.888Z" fill="#5B55FD"/>
<path d="M391.332 55H160.668C157.537 55 155 57.3261 155 60.1956V152.804C155 155.674 157.537 158 160.668 158H391.332C394.463 158 397 155.674 397 152.804V60.1956C397 57.3261 394.463 55 391.332 55Z" fill="white"/>
<path d="M391.332 55H160.668C157.537 55 155 57.3261 155 60.1956V152.804C155 155.674 157.537 158 160.668 158H391.332C394.463 158 397 155.674 397 152.804V60.1956C397 57.3261 394.463 55 391.332 55Z" stroke="#D6D6D6" stroke-width="0.668622"/>
<path d="M190.314 88.9089C190.259 88.4411 190.034 88.0779 189.64 87.8194C189.246 87.5609 188.763 87.4316 188.191 87.4316C187.772 87.4316 187.406 87.4993 187.092 87.6347C186.781 87.7702 186.538 87.9564 186.363 88.1933C186.19 88.4303 186.104 88.6996 186.104 89.0012C186.104 89.2536 186.164 89.4706 186.284 89.6521C186.407 89.8306 186.564 89.9799 186.755 90.0999C186.946 90.2169 187.146 90.3138 187.355 90.3908C187.564 90.4646 187.757 90.5247 187.932 90.5708L188.892 90.8293C189.139 90.894 189.413 90.9832 189.714 91.0971C190.019 91.211 190.31 91.3664 190.587 91.5634C190.867 91.7573 191.098 92.0065 191.279 92.3112C191.461 92.6159 191.552 92.9899 191.552 93.433C191.552 93.9439 191.418 94.4056 191.15 94.818C190.885 95.2304 190.497 95.5582 189.987 95.8013C189.479 96.0444 188.862 96.166 188.135 96.166C187.458 96.166 186.872 96.0567 186.376 95.8382C185.884 95.6197 185.496 95.315 185.213 94.9242C184.933 94.5333 184.775 94.0793 184.738 93.5623H185.919C185.95 93.9193 186.07 94.2148 186.28 94.4487C186.492 94.6795 186.76 94.8518 187.083 94.9657C187.409 95.0765 187.76 95.1319 188.135 95.1319C188.572 95.1319 188.965 95.0611 189.313 94.9195C189.66 94.7749 189.936 94.5748 190.139 94.3194C190.342 94.0609 190.444 93.7593 190.444 93.4146C190.444 93.1007 190.356 92.8452 190.18 92.6482C190.005 92.4513 189.774 92.2912 189.488 92.1681C189.202 92.045 188.892 91.9373 188.56 91.845L187.397 91.5126C186.658 91.3002 186.073 90.9971 185.642 90.6031C185.212 90.2092 184.996 89.6937 184.996 89.0566C184.996 88.5273 185.139 88.0656 185.425 87.6717C185.715 87.2747 186.103 86.9669 186.589 86.7484C187.078 86.5268 187.624 86.416 188.228 86.416C188.837 86.416 189.379 86.5252 189.853 86.7438C190.327 86.9592 190.702 87.2547 190.979 87.6301C191.259 88.0056 191.407 88.4319 191.422 88.9089H190.314ZM193.286 95.9998V88.9089H194.339V90.0168H194.431C194.579 89.6383 194.817 89.3444 195.147 89.1351C195.476 88.9227 195.871 88.8166 196.333 88.8166C196.801 88.8166 197.19 88.9227 197.501 89.1351C197.815 89.3444 198.06 89.6383 198.235 90.0168H198.309C198.491 89.6506 198.763 89.3598 199.126 89.1443C199.489 88.9258 199.925 88.8166 200.433 88.8166C201.067 88.8166 201.585 89.0151 201.988 89.4121C202.391 89.806 202.593 90.42 202.593 91.2541V95.9998H201.504V91.2541C201.504 90.7309 201.36 90.3569 201.074 90.1323C200.788 89.9076 200.451 89.7953 200.063 89.7953C199.565 89.7953 199.178 89.9461 198.904 90.2477C198.631 90.5462 198.494 90.9248 198.494 91.3833V95.9998H197.386V91.1433C197.386 90.7401 197.255 90.4154 196.993 90.1692C196.732 89.9199 196.395 89.7953 195.982 89.7953C195.699 89.7953 195.434 89.8707 195.188 90.0215C194.945 90.1723 194.748 90.3815 194.597 90.6493C194.45 90.914 194.376 91.2202 194.376 91.568V95.9998H193.286ZM206.672 96.166C206.222 96.166 205.815 96.0814 205.448 95.9121C205.082 95.7397 204.791 95.492 204.576 95.1688C204.36 94.8426 204.253 94.4487 204.253 93.987C204.253 93.5808 204.333 93.2515 204.493 92.9991C204.653 92.7436 204.867 92.5436 205.134 92.3989C205.402 92.2543 205.698 92.1466 206.021 92.0758C206.347 92.0019 206.675 91.9435 207.004 91.9004C207.435 91.845 207.784 91.8034 208.052 91.7757C208.323 91.7449 208.52 91.6942 208.643 91.6234C208.769 91.5526 208.832 91.4295 208.832 91.2541V91.2171C208.832 90.7616 208.708 90.4077 208.458 90.1553C208.212 89.903 207.838 89.7768 207.336 89.7768C206.816 89.7768 206.409 89.8907 206.113 90.1184C205.818 90.3462 205.61 90.5893 205.49 90.8478L204.456 90.4785C204.64 90.0476 204.887 89.7122 205.194 89.4721C205.505 89.229 205.844 89.0597 206.21 88.9643C206.579 88.8658 206.943 88.8166 207.3 88.8166C207.527 88.8166 207.789 88.8443 208.084 88.8997C208.383 88.952 208.671 89.0612 208.948 89.2274C209.228 89.3936 209.46 89.6444 209.645 89.9799C209.829 90.3154 209.922 90.7647 209.922 91.3279V95.9998H208.832V95.0396H208.777C208.703 95.1935 208.58 95.3581 208.407 95.5335C208.235 95.709 208.006 95.8582 207.72 95.9813C207.433 96.1044 207.084 96.166 206.672 96.166ZM206.838 95.1873C207.269 95.1873 207.632 95.1027 207.927 94.9334C208.226 94.7641 208.451 94.5456 208.601 94.2779C208.755 94.0101 208.832 93.7285 208.832 93.433V92.4359C208.786 92.4913 208.684 92.5421 208.527 92.5882C208.374 92.6313 208.195 92.6698 207.992 92.7036C207.792 92.7344 207.597 92.7621 207.406 92.7867C207.218 92.8083 207.066 92.8267 206.949 92.8421C206.666 92.8791 206.401 92.9391 206.155 93.0222C205.911 93.1022 205.715 93.2238 205.564 93.3869C205.416 93.5469 205.342 93.7654 205.342 94.0424C205.342 94.421 205.482 94.7072 205.762 94.9011C206.045 95.0919 206.404 95.1873 206.838 95.1873ZM213 86.5453V95.9998H211.91V86.5453H213ZM216.085 86.5453V95.9998H214.995V86.5453H216.085ZM223.823 96.166C223.374 96.166 222.966 96.0814 222.6 95.9121C222.233 95.7397 221.943 95.492 221.727 95.1688C221.512 94.8426 221.404 94.4487 221.404 93.987C221.404 93.5808 221.484 93.2515 221.644 92.9991C221.804 92.7436 222.018 92.5436 222.286 92.3989C222.554 92.2543 222.849 92.1466 223.172 92.0758C223.498 92.0019 223.826 91.9435 224.155 91.9004C224.586 91.845 224.936 91.8034 225.203 91.7757C225.474 91.7449 225.671 91.6942 225.794 91.6234C225.92 91.5526 225.984 91.4295 225.984 91.2541V91.2171C225.984 90.7616 225.859 90.4077 225.61 90.1553C225.363 89.903 224.989 89.7768 224.488 89.7768C223.968 89.7768 223.56 89.8907 223.264 90.1184C222.969 90.3462 222.761 90.5893 222.641 90.8478L221.607 90.4785C221.792 90.0476 222.038 89.7122 222.346 89.4721C222.657 89.229 222.995 89.0597 223.361 88.9643C223.731 88.8658 224.094 88.8166 224.451 88.8166C224.679 88.8166 224.94 88.8443 225.236 88.8997C225.534 88.952 225.822 89.0612 226.099 89.2274C226.379 89.3936 226.611 89.6444 226.796 89.9799C226.981 90.3154 227.073 90.7647 227.073 91.3279V95.9998H225.984V95.0396H225.928C225.854 95.1935 225.731 95.3581 225.559 95.5335C225.386 95.709 225.157 95.8582 224.871 95.9813C224.585 96.1044 224.235 96.166 223.823 96.166ZM223.989 95.1873C224.42 95.1873 224.783 95.1027 225.079 94.9334C225.377 94.7641 225.602 94.5456 225.753 94.2779C225.907 94.0101 225.984 93.7285 225.984 93.433V92.4359C225.937 92.4913 225.836 92.5421 225.679 92.5882C225.525 92.6313 225.346 92.6698 225.143 92.7036C224.943 92.7344 224.748 92.7621 224.557 92.7867C224.369 92.8083 224.217 92.8267 224.1 92.8421C223.817 92.8791 223.552 92.9391 223.306 93.0222C223.063 93.1022 222.866 93.2238 222.715 93.3869C222.567 93.5469 222.493 93.7654 222.493 94.0424C222.493 94.421 222.634 94.7072 222.914 94.9011C223.197 95.0919 223.555 95.1873 223.989 95.1873ZM229.062 98.6589V88.9089H230.114V90.0353H230.243C230.323 89.9122 230.434 89.7552 230.576 89.5644C230.72 89.3705 230.927 89.1982 231.194 89.0474C231.465 88.8935 231.831 88.8166 232.293 88.8166C232.89 88.8166 233.416 88.9658 233.872 89.2644C234.327 89.5629 234.683 89.9861 234.938 90.5339C235.194 91.0817 235.322 91.728 235.322 92.4728C235.322 93.2238 235.194 93.8747 234.938 94.4256C234.683 94.9734 234.329 95.3981 233.877 95.6997C233.424 95.9983 232.902 96.1475 232.312 96.1475C231.856 96.1475 231.491 96.0721 231.217 95.9213C230.944 95.7674 230.733 95.5935 230.585 95.3997C230.437 95.2027 230.323 95.0396 230.243 94.9103H230.151V98.6589H229.062ZM230.133 92.4543C230.133 92.9899 230.211 93.4623 230.368 93.8716C230.525 94.2779 230.754 94.5964 231.056 94.8272C231.358 95.055 231.727 95.1688 232.164 95.1688C232.619 95.1688 232.999 95.0488 233.304 94.8087C233.612 94.5656 233.843 94.2394 233.997 93.8301C234.154 93.4177 234.232 92.9591 234.232 92.4543C234.232 91.9558 234.155 91.5064 234.001 91.1063C233.85 90.7032 233.621 90.3846 233.313 90.1507C233.009 89.9137 232.626 89.7953 232.164 89.7953C231.721 89.7953 231.348 89.9076 231.047 90.1323C230.745 90.3538 230.517 90.6647 230.363 91.0648C230.21 91.4618 230.133 91.925 230.133 92.4543ZM236.983 98.6589V88.9089H238.036V90.0353H238.165C238.245 89.9122 238.356 89.7552 238.498 89.5644C238.642 89.3705 238.849 89.1982 239.116 89.0474C239.387 88.8935 239.753 88.8166 240.215 88.8166C240.812 88.8166 241.338 88.9658 241.794 89.2644C242.249 89.5629 242.605 89.9861 242.86 90.5339C243.116 91.0817 243.243 91.728 243.243 92.4728C243.243 93.2238 243.116 93.8747 242.86 94.4256C242.605 94.9734 242.251 95.3981 241.798 95.6997C241.346 95.9983 240.824 96.1475 240.233 96.1475C239.778 96.1475 239.413 96.0721 239.139 95.9213C238.865 95.7674 238.655 95.5935 238.507 95.3997C238.359 95.2027 238.245 95.0396 238.165 94.9103H238.073V98.6589H236.983ZM238.054 92.4543C238.054 92.9899 238.133 93.4623 238.29 93.8716C238.447 94.2779 238.676 94.5964 238.978 94.8272C239.279 95.055 239.649 95.1688 240.086 95.1688C240.541 95.1688 240.921 95.0488 241.226 94.8087C241.534 94.5656 241.765 94.2394 241.918 93.8301C242.075 93.4177 242.154 92.9591 242.154 92.4543C242.154 91.9558 242.077 91.5064 241.923 91.1063C241.772 90.7032 241.543 90.3846 241.235 90.1507C240.931 89.9137 240.547 89.7953 240.086 89.7953C239.643 89.7953 239.27 89.9076 238.969 90.1323C238.667 90.3538 238.439 90.6647 238.285 91.0648C238.131 91.4618 238.054 91.925 238.054 92.4543ZM249.928 90.497L248.949 90.7739C248.888 90.6108 248.797 90.4523 248.677 90.2985C248.56 90.1415 248.4 90.0122 248.197 89.9107C247.994 89.8091 247.734 89.7583 247.417 89.7583C246.983 89.7583 246.621 89.8583 246.332 90.0584C246.046 90.2554 245.902 90.5062 245.902 90.8109C245.902 91.0817 246.001 91.2956 246.198 91.4526C246.395 91.6095 246.703 91.7403 247.121 91.845L248.174 92.1035C248.808 92.2574 249.28 92.4928 249.591 92.8098C249.902 93.1237 250.057 93.5284 250.057 94.0239C250.057 94.4302 249.94 94.7934 249.706 95.1134C249.476 95.4335 249.152 95.6859 248.737 95.8705C248.322 96.0552 247.838 96.1475 247.287 96.1475C246.564 96.1475 245.966 95.9906 245.492 95.6766C245.018 95.3627 244.718 94.9042 244.591 94.3009L245.626 94.0424C245.724 94.424 245.91 94.7103 246.184 94.9011C246.461 95.0919 246.823 95.1873 247.269 95.1873C247.777 95.1873 248.18 95.0796 248.478 94.8641C248.78 94.6456 248.931 94.384 248.931 94.0793C248.931 93.8331 248.845 93.6269 248.672 93.4607C248.5 93.2915 248.235 93.1653 247.878 93.0822L246.697 92.8052C246.047 92.6513 245.57 92.4128 245.265 92.0896C244.964 91.7634 244.813 91.3556 244.813 90.8663C244.813 90.4662 244.925 90.1123 245.15 89.8045C245.378 89.4967 245.687 89.2551 246.078 89.0797C246.472 88.9043 246.918 88.8166 247.417 88.8166C248.118 88.8166 248.669 88.9704 249.069 89.2782C249.473 89.586 249.759 89.9922 249.928 90.497Z" fill="#888888"/>
<path d="M295.145 95.9999V86.5454H296.29V94.9843H300.685V95.9999H295.145ZM304.396 96.1661C303.947 96.1661 303.539 96.0815 303.173 95.9122C302.807 95.7398 302.516 95.4921 302.3 95.1689C302.085 94.8427 301.977 94.4488 301.977 93.9871C301.977 93.5809 302.057 93.2516 302.217 92.9992C302.377 92.7437 302.591 92.5437 302.859 92.399C303.127 92.2544 303.422 92.1467 303.745 92.0759C304.072 92.002 304.399 91.9436 304.729 91.9005C305.16 91.8451 305.509 91.8035 305.777 91.7758C306.047 91.745 306.244 91.6943 306.368 91.6235C306.494 91.5527 306.557 91.4296 306.557 91.2542V91.2172C306.557 90.7617 306.432 90.4078 306.183 90.1554C305.937 89.9031 305.563 89.7769 305.061 89.7769C304.541 89.7769 304.133 89.8908 303.838 90.1185C303.542 90.3463 303.335 90.5894 303.214 90.8479L302.18 90.4786C302.365 90.0477 302.611 89.7123 302.919 89.4722C303.23 89.2291 303.568 89.0598 303.935 88.9644C304.304 88.8659 304.667 88.8167 305.024 88.8167C305.252 88.8167 305.513 88.8444 305.809 88.8998C306.107 88.9521 306.395 89.0613 306.672 89.2275C306.952 89.3937 307.185 89.6445 307.369 89.98C307.554 90.3155 307.646 90.7648 307.646 91.328V95.9999H306.557V95.0397H306.501C306.428 95.1936 306.304 95.3582 306.132 95.5336C305.96 95.7091 305.73 95.8583 305.444 95.9814C305.158 96.1045 304.809 96.1661 304.396 96.1661ZM304.562 95.1874C304.993 95.1874 305.357 95.1028 305.652 94.9335C305.951 94.7642 306.175 94.5457 306.326 94.278C306.48 94.0102 306.557 93.7286 306.557 93.4331V92.436C306.511 92.4914 306.409 92.5422 306.252 92.5883C306.098 92.6314 305.92 92.6699 305.717 92.7037C305.517 92.7345 305.321 92.7622 305.13 92.7868C304.943 92.8084 304.79 92.8268 304.673 92.8422C304.39 92.8792 304.125 92.9392 303.879 93.0223C303.636 93.1023 303.439 93.2239 303.288 93.387C303.141 93.547 303.067 93.7655 303.067 94.0425C303.067 94.4211 303.207 94.7073 303.487 94.9012C303.77 95.092 304.129 95.1874 304.562 95.1874ZM309.635 95.9999V88.909H310.687V89.98H310.761C310.891 89.6292 311.124 89.3445 311.463 89.126C311.802 88.9075 312.183 88.7982 312.608 88.7982C312.688 88.7982 312.788 88.7997 312.908 88.8028C313.028 88.8059 313.119 88.8105 313.18 88.8167V89.9246C313.143 89.9154 313.059 89.9015 312.926 89.8831C312.797 89.8615 312.66 89.8508 312.516 89.8508C312.171 89.8508 311.863 89.9231 311.592 90.0677C311.324 90.2093 311.112 90.4063 310.955 90.6586C310.801 90.9079 310.724 91.1926 310.724 91.5127V95.9999H309.635ZM317.118 98.8067C316.592 98.8067 316.139 98.739 315.761 98.6036C315.382 98.4713 315.067 98.2958 314.815 98.0773C314.565 97.8619 314.367 97.6311 314.219 97.3848L315.087 96.7755C315.185 96.9047 315.31 97.0525 315.461 97.2187C315.612 97.3879 315.818 97.5341 316.079 97.6572C316.344 97.7834 316.69 97.8465 317.118 97.8465C317.691 97.8465 318.163 97.708 318.535 97.431C318.908 97.154 319.094 96.7201 319.094 96.1292V94.6888H319.002C318.922 94.8181 318.808 94.9781 318.66 95.1689C318.515 95.3567 318.306 95.5244 318.032 95.6721C317.761 95.8168 317.395 95.8891 316.934 95.8891C316.361 95.8891 315.847 95.7537 315.392 95.4829C314.939 95.212 314.581 94.8181 314.316 94.301C314.054 93.784 313.924 93.1561 313.924 92.4175C313.924 91.6912 314.051 91.0587 314.307 90.5201C314.562 89.9785 314.918 89.5599 315.373 89.2645C315.829 88.9659 316.355 88.8167 316.952 88.8167C317.414 88.8167 317.78 88.8936 318.051 89.0475C318.325 89.1983 318.534 89.3706 318.679 89.5645C318.826 89.7553 318.94 89.9123 319.02 90.0354H319.131V88.909H320.184V96.203C320.184 96.8124 320.045 97.3079 319.768 97.6895C319.494 98.0742 319.125 98.3558 318.66 98.5343C318.198 98.7159 317.684 98.8067 317.118 98.8067ZM317.081 94.9104C317.518 94.9104 317.888 94.8104 318.189 94.6103C318.491 94.4103 318.72 94.1225 318.877 93.7471C319.034 93.3716 319.112 92.9222 319.112 92.399C319.112 91.8882 319.036 91.4373 318.882 91.0464C318.728 90.6556 318.5 90.3493 318.198 90.1277C317.897 89.9061 317.524 89.7954 317.081 89.7954C316.62 89.7954 316.235 89.9123 315.927 90.1462C315.622 90.3801 315.393 90.694 315.239 91.088C315.088 91.4819 315.013 91.9189 315.013 92.399C315.013 92.8915 315.09 93.327 315.244 93.7055C315.401 94.081 315.632 94.3764 315.936 94.5919C316.244 94.8042 316.626 94.9104 317.081 94.9104ZM325.151 96.1476C324.468 96.1476 323.878 95.9968 323.383 95.6952C322.89 95.3905 322.51 94.9658 322.242 94.4211C321.978 93.8732 321.845 93.2362 321.845 92.5098C321.845 91.7835 321.978 91.1434 322.242 90.5894C322.51 90.0323 322.883 89.5984 323.36 89.2875C323.84 88.9736 324.4 88.8167 325.04 88.8167C325.409 88.8167 325.774 88.8782 326.134 89.0013C326.494 89.1244 326.822 89.3245 327.117 89.6015C327.413 89.8754 327.648 90.2385 327.824 90.691C327.999 91.1434 328.087 91.7004 328.087 92.3621V92.8238H322.621V91.882H326.979C326.979 91.4819 326.899 91.1249 326.739 90.811C326.582 90.4971 326.357 90.2493 326.065 90.0677C325.776 89.8861 325.434 89.7954 325.04 89.7954C324.606 89.7954 324.231 89.9031 323.914 90.1185C323.6 90.3309 323.358 90.6079 323.189 90.9495C323.02 91.2911 322.935 91.6573 322.935 92.0482V92.676C322.935 93.2115 323.027 93.6655 323.212 94.0379C323.4 94.4072 323.66 94.6888 323.992 94.8827C324.324 95.0735 324.711 95.1689 325.151 95.1689C325.437 95.1689 325.696 95.1289 325.926 95.0489C326.16 94.9658 326.362 94.8427 326.531 94.6796C326.7 94.5134 326.831 94.3072 326.924 94.061L327.976 94.3564C327.865 94.7134 327.679 95.0274 327.418 95.2982C327.156 95.566 326.833 95.7752 326.448 95.926C326.063 96.0738 325.631 96.1476 325.151 96.1476ZM329.744 95.9999V88.909H330.797V89.98H330.871C331 89.6292 331.234 89.3445 331.572 89.126C331.911 88.9075 332.293 88.7982 332.717 88.7982C332.797 88.7982 332.897 88.7997 333.017 88.8028C333.137 88.8059 333.228 88.8105 333.29 88.8167V89.9246C333.253 89.9154 333.168 89.9015 333.036 89.8831C332.907 89.8615 332.77 89.8508 332.625 89.8508C332.28 89.8508 331.972 89.9231 331.702 90.0677C331.434 90.2093 331.222 90.4063 331.065 90.6586C330.911 90.9079 330.834 91.1926 330.834 91.5127V95.9999H329.744ZM340.324 96.1661C339.875 96.1661 339.467 96.0815 339.101 95.9122C338.734 95.7398 338.444 95.4921 338.228 95.1689C338.013 94.8427 337.905 94.4488 337.905 93.9871C337.905 93.5809 337.985 93.2516 338.145 92.9992C338.305 92.7437 338.519 92.5437 338.787 92.399C339.055 92.2544 339.35 92.1467 339.673 92.0759C339.999 92.002 340.327 91.9436 340.656 91.9005C341.087 91.8451 341.437 91.8035 341.704 91.7758C341.975 91.745 342.172 91.6943 342.295 91.6235C342.421 91.5527 342.485 91.4296 342.485 91.2542V91.2172C342.485 90.7617 342.36 90.4078 342.111 90.1554C341.864 89.9031 341.49 89.7769 340.989 89.7769C340.469 89.7769 340.061 89.8908 339.765 90.1185C339.47 90.3463 339.262 90.5894 339.142 90.8479L338.108 90.4786C338.293 90.0477 338.539 89.7123 338.847 89.4722C339.158 89.2291 339.496 89.0598 339.862 88.9644C340.232 88.8659 340.595 88.8167 340.952 88.8167C341.18 88.8167 341.441 88.8444 341.737 88.8998C342.035 88.9521 342.323 89.0613 342.6 89.2275C342.88 89.3937 343.112 89.6445 343.297 89.98C343.482 90.3155 343.574 90.7648 343.574 91.328V95.9999H342.485V95.0397H342.429C342.355 95.1936 342.232 95.3582 342.06 95.5336C341.887 95.7091 341.658 95.8583 341.372 95.9814C341.086 96.1045 340.736 96.1661 340.324 96.1661ZM340.49 95.1874C340.921 95.1874 341.284 95.1028 341.58 94.9335C341.878 94.7642 342.103 94.5457 342.254 94.278C342.408 94.0102 342.485 93.7286 342.485 93.4331V92.436C342.438 92.4914 342.337 92.5422 342.18 92.5883C342.026 92.6314 341.847 92.6699 341.644 92.7037C341.444 92.7345 341.249 92.7622 341.058 92.7868C340.87 92.8084 340.718 92.8268 340.601 92.8422C340.318 92.8792 340.053 92.9392 339.807 93.0223C339.564 93.1023 339.367 93.2239 339.216 93.387C339.068 93.547 338.994 93.7655 338.994 94.0425C338.994 94.4211 339.135 94.7073 339.415 94.9012C339.698 95.092 340.056 95.1874 340.49 95.1874ZM345.563 98.659V88.909H346.615V90.0354H346.744C346.824 89.9123 346.935 89.7553 347.077 89.5645C347.221 89.3706 347.428 89.1983 347.695 89.0475C347.966 88.8936 348.332 88.8167 348.794 88.8167C349.391 88.8167 349.917 88.9659 350.373 89.2645C350.828 89.563 351.184 89.9862 351.439 90.534C351.695 91.0818 351.823 91.7281 351.823 92.4729C351.823 93.2239 351.695 93.8748 351.439 94.4257C351.184 94.9735 350.83 95.3982 350.378 95.6998C349.925 95.9984 349.403 96.1476 348.813 96.1476C348.357 96.1476 347.992 96.0722 347.718 95.9214C347.445 95.7675 347.234 95.5936 347.086 95.3998C346.938 95.2028 346.824 95.0397 346.744 94.9104H346.652V98.659H345.563ZM346.634 92.4544C346.634 92.99 346.712 93.4624 346.869 93.8717C347.026 94.278 347.255 94.5965 347.557 94.8273C347.859 95.0551 348.228 95.1689 348.665 95.1689C349.12 95.1689 349.5 95.0489 349.805 94.8088C350.113 94.5657 350.344 94.2395 350.498 93.8302C350.655 93.4178 350.733 92.9592 350.733 92.4544C350.733 91.9559 350.656 91.5065 350.502 91.1064C350.351 90.7033 350.122 90.3847 349.814 90.1508C349.51 89.9138 349.127 89.7954 348.665 89.7954C348.222 89.7954 347.849 89.9077 347.548 90.1324C347.246 90.3539 347.018 90.6648 346.864 91.0649C346.711 91.4619 346.634 91.9251 346.634 92.4544ZM353.484 98.659V88.909H354.537V90.0354H354.666C354.746 89.9123 354.857 89.7553 354.999 89.5645C355.143 89.3706 355.35 89.1983 355.617 89.0475C355.888 88.8936 356.254 88.8167 356.716 88.8167C357.313 88.8167 357.839 88.9659 358.295 89.2645C358.75 89.563 359.106 89.9862 359.361 90.534C359.617 91.0818 359.744 91.7281 359.744 92.4729C359.744 93.2239 359.617 93.8748 359.361 94.4257C359.106 94.9735 358.752 95.3982 358.299 95.6998C357.847 95.9984 357.325 96.1476 356.734 96.1476C356.279 96.1476 355.914 96.0722 355.64 95.9214C355.366 95.7675 355.156 95.5936 355.008 95.3998C354.86 95.2028 354.746 95.0397 354.666 94.9104H354.574V98.659H353.484ZM354.555 92.4544C354.555 92.99 354.634 93.4624 354.791 93.8717C354.948 94.278 355.177 94.5965 355.479 94.8273C355.78 95.0551 356.15 95.1689 356.587 95.1689C357.042 95.1689 357.422 95.0489 357.727 94.8088C358.035 94.5657 358.266 94.2395 358.419 93.8302C358.576 93.4178 358.655 92.9592 358.655 92.4544C358.655 91.9559 358.578 91.5065 358.424 91.1064C358.273 90.7033 358.044 90.3847 357.736 90.1508C357.432 89.9138 357.048 89.7954 356.587 89.7954C356.144 89.7954 355.771 89.9077 355.47 90.1324C355.168 90.3539 354.94 90.6648 354.786 91.0649C354.632 91.4619 354.555 91.9251 354.555 92.4544ZM366.429 90.4971L365.45 90.774C365.389 90.6109 365.298 90.4524 365.178 90.2986C365.061 90.1416 364.901 90.0123 364.698 89.9108C364.495 89.8092 364.235 89.7584 363.918 89.7584C363.484 89.7584 363.122 89.8584 362.833 90.0585C362.547 90.2555 362.403 90.5063 362.403 90.811C362.403 91.0818 362.502 91.2957 362.699 91.4527C362.896 91.6096 363.204 91.7404 363.622 91.8451L364.675 92.1036C365.309 92.2575 365.781 92.4929 366.092 92.8099C366.403 93.1238 366.558 93.5285 366.558 94.024C366.558 94.4303 366.441 94.7935 366.207 95.1135C365.977 95.4336 365.653 95.686 365.238 95.8706C364.823 96.0553 364.339 96.1476 363.788 96.1476C363.065 96.1476 362.467 95.9907 361.993 95.6767C361.519 95.3628 361.219 94.9043 361.092 94.301L362.127 94.0425C362.225 94.4241 362.411 94.7104 362.685 94.9012C362.962 95.092 363.324 95.1874 363.77 95.1874C364.278 95.1874 364.681 95.0797 364.979 94.8642C365.281 94.6457 365.432 94.3841 365.432 94.0794C365.432 93.8332 365.346 93.627 365.173 93.4608C365.001 93.2916 364.736 93.1654 364.379 93.0823L363.198 92.8053C362.548 92.6514 362.071 92.4129 361.766 92.0897C361.465 91.7635 361.314 91.3557 361.314 90.8664C361.314 90.4663 361.426 90.1124 361.651 89.8046C361.879 89.4968 362.188 89.2552 362.579 89.0798C362.973 88.9044 363.419 88.8167 363.918 88.8167C364.619 88.8167 365.17 88.9705 365.57 89.2783C365.974 89.5861 366.26 89.9923 366.429 90.4971Z" fill="#888888"/>
<path d="M240.804 68.9765H239.391C239.308 68.57 239.161 68.2129 238.952 67.9052C238.747 67.5975 238.496 67.3392 238.2 67.1302C237.908 66.9175 237.583 66.7579 237.226 66.6516C236.869 66.5452 236.496 66.492 236.109 66.492C235.402 66.492 234.762 66.6705 234.188 67.0277C233.619 67.3848 233.165 67.9109 232.826 68.6061C232.492 69.3013 232.325 70.1542 232.325 71.1648C232.325 72.1753 232.492 73.0282 232.826 73.7234C233.165 74.4186 233.619 74.9447 234.188 75.3019C234.762 75.659 235.402 75.8375 236.109 75.8375C236.496 75.8375 236.869 75.7843 237.226 75.678C237.583 75.5716 237.908 75.4139 238.2 75.205C238.496 74.9922 238.747 74.732 238.952 74.4243C239.161 74.1128 239.308 73.7557 239.391 73.353H240.804C240.698 73.9494 240.504 74.4832 240.223 74.9542C239.942 75.4253 239.592 75.8261 239.175 76.1566C238.757 76.4833 238.287 76.7322 237.767 76.9031C237.25 77.0741 236.698 77.1596 236.109 77.1596C235.113 77.1596 234.228 76.9164 233.453 76.4302C232.678 75.9439 232.069 75.2525 231.624 74.3559C231.18 73.4593 230.957 72.3956 230.957 71.1648C230.957 69.9339 231.18 68.8702 231.624 67.9736C232.069 67.077 232.678 66.3856 233.453 65.8994C234.228 65.4131 235.113 65.1699 236.109 65.1699C236.698 65.1699 237.25 65.2554 237.767 65.4264C238.287 65.5973 238.757 65.8481 239.175 66.1786C239.592 66.5053 239.942 66.9042 240.223 67.3753C240.504 67.8425 240.698 68.3763 240.804 68.9765ZM246.461 77.1824C245.671 77.1824 244.978 76.9943 244.382 76.6182C243.789 76.2421 243.325 75.7159 242.991 75.0397C242.661 74.3635 242.495 73.5733 242.495 72.6692C242.495 71.7574 242.661 70.9615 242.991 70.2815C243.325 69.6015 243.789 69.0734 244.382 68.6973C244.978 68.3212 245.671 68.1332 246.461 68.1332C247.252 68.1332 247.943 68.3212 248.536 68.6973C249.132 69.0734 249.596 69.6015 249.926 70.2815C250.26 70.9615 250.428 71.7574 250.428 72.6692C250.428 73.5733 250.26 74.3635 249.926 75.0397C249.596 75.7159 249.132 76.2421 248.536 76.6182C247.943 76.9943 247.252 77.1824 246.461 77.1824ZM246.461 75.9743C247.062 75.9743 247.556 75.8204 247.943 75.5127C248.331 75.205 248.617 74.8004 248.804 74.2989C248.99 73.7975 249.083 73.2542 249.083 72.6692C249.083 72.0841 248.99 71.539 248.804 71.0337C248.617 70.5284 248.331 70.12 247.943 69.8085C247.556 69.497 247.062 69.3412 246.461 69.3412C245.861 69.3412 245.367 69.497 244.98 69.8085C244.592 70.12 244.306 70.5284 244.119 71.0337C243.933 71.539 243.84 72.0841 243.84 72.6692C243.84 73.2542 243.933 73.7975 244.119 74.2989C244.306 74.8004 244.592 75.205 244.98 75.5127C245.367 75.8204 245.861 75.9743 246.461 75.9743ZM252.481 77V68.2471H253.78V69.6148H253.894C254.076 69.1475 254.371 68.7847 254.777 68.5264C255.183 68.2642 255.672 68.1332 256.242 68.1332C256.819 68.1332 257.3 68.2642 257.683 68.5264C258.071 68.7847 258.373 69.1475 258.589 69.6148H258.68C258.905 69.1627 259.241 68.8037 259.689 68.5378C260.137 68.268 260.675 68.1332 261.302 68.1332C262.084 68.1332 262.724 68.3782 263.222 68.8683C263.72 69.3545 263.969 70.1124 263.969 71.142V77H262.624V71.142C262.624 70.4961 262.447 70.0346 262.094 69.7572C261.741 69.4799 261.325 69.3412 260.846 69.3412C260.23 69.3412 259.754 69.5274 259.416 69.8997C259.077 70.2682 258.908 70.7355 258.908 71.3015V77H257.541V71.0052C257.541 70.5075 257.379 70.1067 257.056 69.8028C256.733 69.4951 256.317 69.3412 255.808 69.3412C255.459 69.3412 255.132 69.4343 254.828 69.6205C254.528 69.8066 254.285 70.0649 254.099 70.3955C253.917 70.7222 253.825 71.1002 253.825 71.5295V77H252.481ZM266.428 80.2823V68.2471H267.727V69.6376H267.886C267.985 69.4856 268.122 69.2919 268.297 69.0563C268.475 68.817 268.73 68.6042 269.06 68.4181C269.395 68.2281 269.847 68.1332 270.416 68.1332C271.153 68.1332 271.803 68.3174 272.365 68.6859C272.928 69.0544 273.366 69.5768 273.682 70.253C273.997 70.9292 274.155 71.727 274.155 72.6464C274.155 73.5733 273.997 74.3768 273.682 75.0568C273.366 75.733 272.93 76.2573 272.371 76.6296C271.813 76.9981 271.169 77.1824 270.439 77.1824C269.877 77.1824 269.427 77.0893 269.089 76.9031C268.751 76.7132 268.49 76.4985 268.308 76.2592C268.126 76.0161 267.985 75.8147 267.886 75.6552H267.772V80.2823H266.428ZM267.75 72.6236C267.75 73.2846 267.846 73.8677 268.04 74.373C268.234 74.8745 268.517 75.2677 268.889 75.5526C269.262 75.8337 269.717 75.9743 270.257 75.9743C270.819 75.9743 271.288 75.8261 271.664 75.5298C272.044 75.2297 272.329 74.827 272.519 74.3217C272.713 73.8126 272.81 73.2466 272.81 72.6236C272.81 72.0081 272.715 71.4535 272.525 70.9596C272.339 70.4619 272.056 70.0687 271.676 69.78C271.3 69.4875 270.827 69.3412 270.257 69.3412C269.71 69.3412 269.25 69.4799 268.878 69.7572C268.506 70.0308 268.224 70.4145 268.035 70.9083C267.845 71.3984 267.75 71.9701 267.75 72.6236ZM278.782 77.2051C278.227 77.2051 277.724 77.1007 277.272 76.8917C276.82 76.679 276.461 76.3732 276.195 75.9743C275.929 75.5716 275.796 75.0853 275.796 74.5155C275.796 74.014 275.895 73.6075 276.092 73.296C276.29 72.9807 276.554 72.7337 276.884 72.5552C277.215 72.3766 277.579 72.2437 277.978 72.1563C278.381 72.0651 278.786 71.9929 279.192 71.9397C279.724 71.8714 280.155 71.8201 280.486 71.7859C280.82 71.7479 281.063 71.6852 281.215 71.5978C281.371 71.5105 281.449 71.3585 281.449 71.142V71.0964C281.449 70.5341 281.295 70.0972 280.987 69.7857C280.683 69.4742 280.222 69.3184 279.602 69.3184C278.96 69.3184 278.457 69.459 278.092 69.7401C277.728 70.0213 277.471 70.3214 277.323 70.6405L276.047 70.1846C276.275 69.6528 276.578 69.2387 276.958 68.9423C277.342 68.6422 277.76 68.4333 278.212 68.3155C278.668 68.1939 279.116 68.1332 279.557 68.1332C279.838 68.1332 280.161 68.1674 280.526 68.2357C280.894 68.3003 281.249 68.4352 281.591 68.6403C281.937 68.8455 282.224 69.1551 282.452 69.5692C282.68 69.9833 282.794 70.5379 282.794 71.2331V77H281.449V75.8147H281.38C281.289 76.0047 281.137 76.2079 280.924 76.4245C280.712 76.641 280.429 76.8252 280.075 76.9772C279.722 77.1292 279.291 77.2051 278.782 77.2051ZM278.987 75.9971C279.519 75.9971 279.967 75.8926 280.332 75.6837C280.7 75.4747 280.978 75.205 281.164 74.8745C281.354 74.544 281.449 74.1963 281.449 73.8316V72.6008C281.392 72.6692 281.266 72.7318 281.073 72.7888C280.883 72.842 280.662 72.8895 280.412 72.9313C280.165 72.9693 279.923 73.0035 279.688 73.0339C279.456 73.0604 279.268 73.0832 279.124 73.1022C278.774 73.1478 278.448 73.2219 278.144 73.3245C277.844 73.4233 277.6 73.5733 277.414 73.7747C277.232 73.9722 277.141 74.2419 277.141 74.5838C277.141 75.0511 277.314 75.4044 277.659 75.6438C278.009 75.8793 278.451 75.9971 278.987 75.9971ZM286.593 71.7346V77H285.248V68.2471H286.547V69.6148H286.661C286.867 69.1703 287.178 68.8132 287.596 68.5435C288.014 68.2699 288.553 68.1332 289.214 68.1332C289.807 68.1332 290.326 68.2547 290.77 68.4979C291.215 68.7372 291.56 69.1019 291.807 69.592C292.054 70.0782 292.178 70.6937 292.178 71.4383V77H290.833V71.5295C290.833 70.8418 290.654 70.3062 290.297 69.9225C289.94 69.535 289.45 69.3412 288.827 69.3412C288.398 69.3412 288.014 69.4343 287.676 69.6205C287.341 69.8066 287.077 70.0782 286.884 70.4353C286.69 70.7925 286.593 71.2255 286.593 71.7346ZM294.635 77V68.2471H295.98V77H294.635ZM295.319 66.7883C295.057 66.7883 294.831 66.699 294.641 66.5205C294.455 66.3419 294.362 66.1273 294.362 65.8766C294.362 65.6258 294.455 65.4112 294.641 65.2326C294.831 65.0541 295.057 64.9648 295.319 64.9648C295.581 64.9648 295.805 65.0541 295.991 65.2326C296.181 65.4112 296.276 65.6258 296.276 65.8766C296.276 66.1273 296.181 66.3419 295.991 66.5205C295.805 66.699 295.581 66.7883 295.319 66.7883ZM302.113 77.1824C301.27 77.1824 300.542 76.9962 299.93 76.6239C299.323 76.2478 298.853 75.7235 298.523 75.0511C298.196 74.3749 298.033 73.5885 298.033 72.6919C298.033 71.7954 298.196 71.0052 298.523 70.3214C298.853 69.6338 299.313 69.0981 299.902 68.7144C300.495 68.3269 301.186 68.1332 301.976 68.1332C302.432 68.1332 302.882 68.2091 303.327 68.3611C303.771 68.5131 304.176 68.76 304.54 69.1019C304.905 69.44 305.196 69.8883 305.412 70.4467C305.629 71.0052 305.737 71.6928 305.737 72.5096V73.0794H298.99V71.917H304.369C304.369 71.4231 304.271 70.9824 304.073 70.5949C303.879 70.2074 303.602 69.9016 303.241 69.6774C302.884 69.4533 302.462 69.3412 301.976 69.3412C301.44 69.3412 300.977 69.4742 300.586 69.7401C300.198 70.0023 299.9 70.3442 299.691 70.7659C299.482 71.1875 299.378 71.6396 299.378 72.1221V72.8971C299.378 73.5581 299.492 74.1185 299.72 74.5781C299.951 75.034 300.272 75.3816 300.683 75.621C301.093 75.8565 301.57 75.9743 302.113 75.9743C302.466 75.9743 302.785 75.9249 303.07 75.8261C303.359 75.7235 303.608 75.5716 303.817 75.3702C304.026 75.1651 304.187 74.9106 304.301 74.6066L305.6 74.9713C305.464 75.412 305.234 75.7995 304.911 76.1338C304.588 76.4643 304.189 76.7227 303.714 76.9088C303.239 77.0912 302.706 77.1824 302.113 77.1824ZM313.983 70.2074L312.775 70.5493C312.699 70.348 312.587 70.1523 312.439 69.9624C312.294 69.7686 312.097 69.6091 311.846 69.4837C311.595 69.3583 311.274 69.2957 310.883 69.2957C310.347 69.2957 309.901 69.4191 309.544 69.6661C309.19 69.9092 309.014 70.2188 309.014 70.5949C309.014 70.9292 309.135 71.1932 309.378 71.387C309.622 71.5807 310.001 71.7422 310.518 71.8714L311.817 72.1905C312.6 72.3804 313.183 72.6711 313.567 73.0623C313.951 73.4498 314.142 73.9494 314.142 74.561C314.142 75.0625 313.998 75.5108 313.709 75.9059C313.424 76.301 313.025 76.6125 312.513 76.8404C312 77.0684 311.403 77.1824 310.723 77.1824C309.831 77.1824 309.092 76.9886 308.507 76.6011C307.922 76.2136 307.551 75.6476 307.395 74.903L308.672 74.5838C308.793 75.0549 309.023 75.4082 309.361 75.6438C309.703 75.8793 310.15 75.9971 310.7 75.9971C311.327 75.9971 311.825 75.8641 312.194 75.5982C312.566 75.3284 312.752 75.0055 312.752 74.6294C312.752 74.3255 312.646 74.071 312.433 73.8658C312.22 73.6569 311.893 73.5011 311.453 73.3986L309.994 73.0566C309.192 72.8667 308.603 72.5723 308.227 72.1734C307.855 71.7707 307.669 71.2673 307.669 70.6633C307.669 70.1694 307.808 69.7325 308.085 69.3526C308.366 68.9727 308.748 68.6745 309.23 68.458C309.717 68.2414 310.267 68.1332 310.883 68.1332C311.749 68.1332 312.429 68.3231 312.923 68.703C313.421 69.0829 313.774 69.5844 313.983 70.2074Z" fill="#262626"/>
<path d="M382.649 103.98H285.697C282.742 103.98 280.348 106.375 280.348 109.329V145.015C280.348 147.969 282.742 150.364 285.697 150.364H382.649C385.603 150.364 387.998 147.969 387.998 145.015V109.329C387.998 106.375 385.603 103.98 382.649 103.98Z" fill="#F2F1FF"/>
<path d="M320.703 128.571L311.559 133.006V130.899L318.307 127.828L318.238 127.945V127.648L318.307 127.772L311.559 124.695V122.594L320.703 127.029V128.571ZM333.983 134.906C332.896 134.901 331.966 134.614 331.195 134.045C330.424 133.476 329.834 132.647 329.425 131.56C329.017 130.472 328.812 129.161 328.812 127.628C328.812 126.099 329.017 124.793 329.425 123.71C329.838 122.627 330.43 121.8 331.202 121.231C331.977 120.662 332.905 120.377 333.983 120.377C335.062 120.377 335.987 120.664 336.758 121.238C337.53 121.807 338.119 122.633 338.528 123.717C338.941 124.796 339.148 126.099 339.148 127.628C339.148 129.166 338.943 130.479 338.535 131.566C338.126 132.65 337.536 133.478 336.765 134.052C335.994 134.621 335.067 134.906 333.983 134.906ZM333.983 133.068C334.938 133.068 335.684 132.602 336.221 131.67C336.763 130.738 337.034 129.391 337.034 127.628C337.034 126.457 336.91 125.468 336.662 124.66C336.419 123.848 336.068 123.232 335.608 122.815C335.154 122.392 334.612 122.181 333.983 122.181C333.033 122.181 332.287 122.649 331.746 123.586C331.204 124.522 330.931 125.87 330.926 127.628C330.926 128.803 331.048 129.797 331.291 130.609C331.539 131.417 331.89 132.03 332.345 132.448C332.799 132.861 333.345 133.068 333.983 133.068ZM351.074 136.435V118.807H352.203V136.435H351.074ZM354.606 124.275C354.533 123.623 354.23 123.118 353.697 122.76C353.165 122.397 352.494 122.216 351.686 122.216C351.108 122.216 350.608 122.308 350.185 122.491C349.763 122.67 349.435 122.918 349.201 123.235C348.971 123.547 348.856 123.903 348.856 124.302C348.856 124.637 348.935 124.926 349.091 125.17C349.251 125.413 349.46 125.617 349.717 125.782C349.979 125.943 350.259 126.079 350.557 126.189C350.856 126.294 351.143 126.382 351.418 126.45L352.795 126.808C353.245 126.919 353.706 127.068 354.179 127.256C354.652 127.444 355.09 127.692 355.494 128C355.898 128.307 356.224 128.688 356.472 129.143C356.725 129.597 356.851 130.141 356.851 130.775C356.851 131.573 356.644 132.283 356.231 132.902C355.822 133.522 355.228 134.011 354.448 134.369C353.672 134.727 352.733 134.906 351.631 134.906C350.576 134.906 349.662 134.738 348.891 134.403C348.12 134.068 347.516 133.593 347.08 132.978C346.644 132.358 346.403 131.624 346.357 130.775H348.492C348.533 131.284 348.698 131.709 348.987 132.048C349.281 132.384 349.655 132.634 350.11 132.799C350.569 132.96 351.071 133.04 351.618 133.04C352.219 133.04 352.754 132.946 353.222 132.758C353.695 132.565 354.067 132.299 354.337 131.959C354.608 131.615 354.744 131.213 354.744 130.754C354.744 130.336 354.624 129.994 354.386 129.728C354.152 129.462 353.833 129.241 353.429 129.067C353.029 128.893 352.577 128.739 352.072 128.606L350.406 128.151C349.277 127.844 348.381 127.391 347.72 126.795C347.064 126.198 346.736 125.408 346.736 124.426C346.736 123.613 346.956 122.904 347.397 122.298C347.837 121.692 348.434 121.222 349.187 120.887C349.94 120.547 350.789 120.377 351.735 120.377C352.69 120.377 353.532 120.545 354.262 120.88C354.996 121.215 355.575 121.676 355.997 122.264C356.419 122.847 356.64 123.517 356.658 124.275H354.606Z" fill="#5B55FD"/>
<path d="M266.647 103.98H169.697C166.742 103.98 164.348 106.375 164.348 109.329V145.015C164.348 147.969 166.742 150.364 169.697 150.364H266.647C269.601 150.364 271.996 147.969 271.996 145.015V109.329C271.996 106.375 269.601 103.98 266.647 103.98Z" fill="#F2F1FF"/>
<path d="M198.723 134.672V120.57H207.468V122.402H200.851V126.698H206.841V128.523H200.851V134.672H198.723ZM209.787 134.672V124.095H211.777V125.776H211.887C212.08 125.206 212.419 124.759 212.906 124.433C213.397 124.102 213.953 123.937 214.572 123.937C214.701 123.937 214.852 123.942 215.027 123.951C215.206 123.96 215.346 123.972 215.447 123.985V125.955C215.364 125.932 215.217 125.906 215.006 125.879C214.795 125.847 214.584 125.831 214.373 125.831C213.886 125.831 213.452 125.934 213.071 126.141C212.695 126.343 212.396 126.625 212.176 126.987C211.956 127.346 211.846 127.754 211.846 128.213V134.672H209.787ZM221.408 134.885C220.366 134.885 219.469 134.663 218.716 134.217C217.967 133.768 217.389 133.136 216.98 132.324C216.577 131.507 216.375 130.55 216.375 129.453C216.375 128.369 216.577 127.414 216.98 126.588C217.389 125.762 217.958 125.117 218.688 124.653C219.423 124.19 220.281 123.958 221.263 123.958C221.86 123.958 222.439 124.056 222.999 124.254C223.559 124.451 224.061 124.761 224.507 125.183C224.952 125.606 225.303 126.154 225.56 126.829C225.817 127.499 225.946 128.314 225.946 129.274V130.003H217.538V128.461H223.928C223.928 127.919 223.818 127.44 223.598 127.022C223.377 126.6 223.067 126.267 222.668 126.023C222.273 125.78 221.81 125.659 221.277 125.659C220.699 125.659 220.194 125.801 219.762 126.085C219.335 126.365 219.005 126.733 218.771 127.187C218.541 127.637 218.426 128.126 218.426 128.654V129.859C218.426 130.566 218.55 131.167 218.798 131.663C219.051 132.159 219.402 132.537 219.852 132.799C220.302 133.056 220.827 133.185 221.429 133.185C221.819 133.185 222.175 133.129 222.496 133.019C222.817 132.905 223.095 132.735 223.329 132.51C223.563 132.285 223.742 132.007 223.866 131.677L225.815 132.028C225.659 132.602 225.379 133.104 224.975 133.536C224.575 133.963 224.073 134.295 223.467 134.534C222.865 134.768 222.179 134.885 221.408 134.885ZM232.788 134.885C231.746 134.885 230.849 134.663 230.096 134.217C229.348 133.768 228.769 133.136 228.361 132.324C227.957 131.507 227.755 130.55 227.755 129.453C227.755 128.369 227.957 127.414 228.361 126.588C228.769 125.762 229.339 125.117 230.068 124.653C230.803 124.19 231.661 123.958 232.644 123.958C233.24 123.958 233.819 124.056 234.379 124.254C234.939 124.451 235.442 124.761 235.887 125.183C236.332 125.606 236.683 126.154 236.94 126.829C237.197 127.499 237.326 128.314 237.326 129.274V130.003H228.919V128.461H235.308C235.308 127.919 235.198 127.44 234.978 127.022C234.758 126.6 234.448 126.267 234.048 126.023C233.654 125.78 233.19 125.659 232.657 125.659C232.079 125.659 231.574 125.801 231.143 126.085C230.716 126.365 230.385 126.733 230.151 127.187C229.922 127.637 229.807 128.126 229.807 128.654V129.859C229.807 130.566 229.931 131.167 230.179 131.663C230.431 132.159 230.782 132.537 231.232 132.799C231.682 133.056 232.208 133.185 232.809 133.185C233.199 133.185 233.555 133.129 233.876 133.019C234.198 132.905 234.475 132.735 234.709 132.51C234.943 132.285 235.123 132.007 235.246 131.677L237.195 132.028C237.039 132.602 236.759 133.104 236.355 133.536C235.956 133.963 235.453 134.295 234.847 134.534C234.246 134.768 233.559 134.885 232.788 134.885Z" fill="#5B55FD"/>
</g>
<defs>
<clipPath id="clip0_440_2">
<rect width="413" height="180" fill="white"/>
</clipPath>
</defs>
</svg>
