<svg width="413" height="180" viewBox="0 0 413 180" fill="none" xmlns="http://www.w3.org/2000/svg">
<rect width="413" height="180" rx="5.34898" fill="#E3E3E9" fill-opacity="0.4"/>
<path d="M6 7.76148C6 6.78864 6.78864 6 7.76148 6C8.73431 6 9.52295 6.78864 9.52295 7.76148C9.52295 8.73431 8.73431 9.52295 7.76148 9.52295C6.78864 9.52295 6 8.73431 6 7.76148Z" fill="#B8B8C5"/>
<path d="M403.5 7.76148C403.5 6.78864 404.289 6 405.261 6C406.234 6 407.023 6.78864 407.023 7.76148C407.023 8.73431 406.234 9.52295 405.261 9.52295C404.289 9.52295 403.5 8.73431 403.5 7.76148Z" fill="#B8B8C5"/>
<path d="M158.358 15.6364H160.622L164.558 25.2472H164.703L168.639 15.6364H170.903V28H169.128V19.0533H169.013L165.367 27.9819H163.894L160.248 19.0472H160.133V28H158.358V15.6364ZM175.481 15.6364V28H173.615V15.6364H175.481ZM177.587 17.2422V15.6364H187.156V17.2422H183.298V28H181.439V17.2422H177.587ZM193.769 28V15.6364H195.635V26.3942H201.237V28H193.769ZM203.22 28V18.7273H205.025V28H203.22ZM204.132 17.2965C203.818 17.2965 203.548 17.1919 203.323 16.9826C203.102 16.7693 202.991 16.5157 202.991 16.2219C202.991 15.9241 203.102 15.6706 203.323 15.4613C203.548 15.248 203.818 15.1413 204.132 15.1413C204.446 15.1413 204.713 15.248 204.935 15.4613C205.16 15.6706 205.273 15.9241 205.273 16.2219C205.273 16.5157 205.16 16.7693 204.935 16.9826C204.713 17.1919 204.446 17.2965 204.132 17.2965ZM211.36 28.1871C210.462 28.1871 209.689 27.9839 209.041 27.5774C208.397 27.1669 207.902 26.6014 207.556 25.881C207.21 25.1606 207.037 24.3356 207.037 23.4059C207.037 22.4641 207.214 21.633 207.568 20.9126C207.923 20.1882 208.422 19.6228 209.066 19.2163C209.709 18.8098 210.468 18.6065 211.341 18.6065C212.046 18.6065 212.674 18.7373 213.225 18.9989C213.776 19.2565 214.221 19.6187 214.559 20.0856C214.901 20.5524 215.104 21.0978 215.169 21.7216H213.412C213.316 21.2869 213.094 20.9126 212.748 20.5987C212.406 20.2848 211.947 20.1278 211.372 20.1278C210.869 20.1278 210.428 20.2607 210.05 20.5263C209.675 20.7879 209.383 21.1622 209.174 21.6491C208.965 22.1321 208.86 22.7036 208.86 23.3636C208.86 24.0398 208.963 24.6233 209.168 25.1143C209.373 25.6054 209.663 25.9857 210.037 26.2553C210.416 26.525 210.86 26.6598 211.372 26.6598C211.714 26.6598 212.024 26.5974 212.301 26.4727C212.583 26.3439 212.818 26.1607 213.008 25.9233C213.201 25.6858 213.336 25.4001 213.412 25.0661H215.169C215.104 25.6657 214.909 26.201 214.583 26.6719C214.257 27.1428 213.821 27.513 213.273 27.7827C212.73 28.0523 212.092 28.1871 211.36 28.1871ZM221.096 28.1871C220.182 28.1871 219.395 27.992 218.735 27.6016C218.079 27.2071 217.572 26.6538 217.214 25.9414C216.86 25.225 216.683 24.3859 216.683 23.424C216.683 22.4742 216.86 21.6371 217.214 20.9126C217.572 20.1882 218.071 19.6228 218.711 19.2163C219.355 18.8098 220.108 18.6065 220.969 18.6065C221.492 18.6065 221.999 18.6931 222.49 18.8661C222.981 19.0392 223.422 19.3108 223.812 19.6811C224.203 20.0514 224.511 20.5323 224.736 21.1239C224.961 21.7115 225.074 22.4259 225.074 23.267V23.907H217.703V22.5547H223.305C223.305 22.0798 223.209 21.6592 223.015 21.293C222.822 20.9227 222.551 20.6309 222.2 20.4176C221.854 20.2043 221.448 20.0977 220.981 20.0977C220.474 20.0977 220.031 20.2224 219.653 20.4719C219.278 20.7174 218.989 21.0394 218.783 21.4379C218.582 21.8323 218.482 22.2609 218.482 22.7237V23.7802C218.482 24.4 218.59 24.9272 218.808 25.3619C219.029 25.7965 219.337 26.1286 219.731 26.358C220.126 26.5833 220.586 26.696 221.114 26.696C221.456 26.696 221.768 26.6477 222.049 26.5511C222.331 26.4505 222.575 26.3016 222.78 26.1044C222.985 25.9072 223.142 25.6637 223.251 25.3739L224.959 25.6818C224.822 26.1849 224.577 26.6256 224.223 27.0039C223.873 27.3782 223.432 27.67 222.901 27.8793C222.373 28.0845 221.772 28.1871 221.096 28.1871ZM228.882 22.4943V28H227.077V18.7273H228.809V20.2365H228.924C229.137 19.7455 229.471 19.3511 229.926 19.0533C230.385 18.7554 230.962 18.6065 231.659 18.6065C232.291 18.6065 232.844 18.7393 233.319 19.005C233.794 19.2666 234.162 19.657 234.424 20.1761C234.685 20.6953 234.816 21.3372 234.816 22.1019V28H233.011V22.3192C233.011 21.6471 232.836 21.1219 232.486 20.7436C232.136 20.3613 231.655 20.1701 231.043 20.1701C230.624 20.1701 230.252 20.2607 229.926 20.4418C229.604 20.6229 229.349 20.8885 229.159 21.2386C228.974 21.5848 228.882 22.0033 228.882 22.4943ZM241.143 28.1871C240.245 28.1871 239.473 27.9839 238.825 27.5774C238.181 27.1669 237.686 26.6014 237.339 25.881C236.993 25.1606 236.82 24.3356 236.82 23.4059C236.82 22.4641 236.997 21.633 237.352 20.9126C237.706 20.1882 238.205 19.6228 238.849 19.2163C239.493 18.8098 240.251 18.6065 241.125 18.6065C241.829 18.6065 242.457 18.7373 243.008 18.9989C243.56 19.2565 244.004 19.6187 244.342 20.0856C244.684 20.5524 244.888 21.0978 244.952 21.7216H243.195C243.099 21.2869 242.877 20.9126 242.531 20.5987C242.189 20.2848 241.73 20.1278 241.155 20.1278C240.652 20.1278 240.211 20.2607 239.833 20.5263C239.458 20.7879 239.167 21.1622 238.957 21.6491C238.748 22.1321 238.643 22.7036 238.643 23.3636C238.643 24.0398 238.746 24.6233 238.951 25.1143C239.157 25.6054 239.446 25.9857 239.821 26.2553C240.199 26.525 240.644 26.6598 241.155 26.6598C241.497 26.6598 241.807 26.5974 242.085 26.4727C242.366 26.3439 242.602 26.1607 242.791 25.9233C242.984 25.6858 243.119 25.4001 243.195 25.0661H244.952C244.888 25.6657 244.692 26.201 244.366 26.6719C244.04 27.1428 243.604 27.513 243.056 27.7827C242.513 28.0523 241.875 28.1871 241.143 28.1871ZM250.879 28.1871C249.965 28.1871 249.178 27.992 248.518 27.6016C247.862 27.2071 247.355 26.6538 246.997 25.9414C246.643 25.225 246.466 24.3859 246.466 23.424C246.466 22.4742 246.643 21.6371 246.997 20.9126C247.355 20.1882 247.854 19.6228 248.494 19.2163C249.138 18.8098 249.891 18.6065 250.752 18.6065C251.275 18.6065 251.782 18.6931 252.273 18.8661C252.764 19.0392 253.205 19.3108 253.595 19.6811C253.986 20.0514 254.294 20.5323 254.519 21.1239C254.744 21.7115 254.857 22.4259 254.857 23.267V23.907H247.486V22.5547H253.088C253.088 22.0798 252.992 21.6592 252.799 21.293C252.605 20.9227 252.334 20.6309 251.984 20.4176C251.637 20.2043 251.231 20.0977 250.764 20.0977C250.257 20.0977 249.814 20.2224 249.436 20.4719C249.062 20.7174 248.772 21.0394 248.567 21.4379C248.365 21.8323 248.265 22.2609 248.265 22.7237V23.7802C248.265 24.4 248.373 24.9272 248.591 25.3619C248.812 25.7965 249.12 26.1286 249.514 26.358C249.909 26.5833 250.37 26.696 250.897 26.696C251.239 26.696 251.551 26.6477 251.833 26.5511C252.114 26.4505 252.358 26.3016 252.563 26.1044C252.768 25.9072 252.925 25.6637 253.034 25.3739L254.742 25.6818C254.606 26.1849 254.36 26.6256 254.006 27.0039C253.656 27.3782 253.215 27.67 252.684 27.8793C252.157 28.0845 251.555 28.1871 250.879 28.1871Z" fill="black"/>
<path d="M6 172.761C6 171.789 6.78864 171 7.76148 171C8.73431 171 9.52295 171.789 9.52295 172.761C9.52295 173.734 8.73431 174.523 7.76148 174.523C6.78864 174.523 6 173.734 6 172.761Z" fill="#B8B8C5"/>
<path d="M403.5 172.761C403.5 171.789 404.289 171 405.261 171C406.234 171 407.023 171.789 407.023 172.761C407.023 173.734 406.234 174.523 405.261 174.523C404.289 174.523 403.5 173.734 403.5 172.761Z" fill="#B8B8C5"/>
<rect x="19.3343" y="50.3343" width="125.331" height="111.331" rx="5.01467" fill="white"/>
<rect x="19.3343" y="50.3343" width="125.331" height="111.331" rx="5.01467" stroke="#D6D6D6" stroke-width="0.668622"/>
<path d="M45.9132 72.6338V60.9633H52.9565V62.217H47.3264V66.1603H52.5918V67.414H47.3264V71.3801H53.0477V72.6338H45.9132ZM56.6663 67.3684V72.6338H55.3214V63.8809H56.6207V65.2486H56.7346C56.9398 64.8041 57.2513 64.447 57.6692 64.1772C58.0871 63.9037 58.6265 63.7669 59.2876 63.7669C59.8802 63.7669 60.3988 63.8885 60.8432 64.1317C61.2877 64.371 61.6334 64.7357 61.8804 65.2258C62.1273 65.712 62.2508 66.3275 62.2508 67.0721V72.6338H60.9059V67.1632C60.9059 66.4756 60.7274 65.94 60.3703 65.5563C60.0132 65.1688 59.5231 64.975 58.9001 64.975C58.4708 64.975 58.0871 65.0681 57.749 65.2543C57.4147 65.4404 57.1506 65.712 56.9569 66.0691C56.7631 66.4262 56.6663 66.8593 56.6663 67.3684ZM68.2413 76.0985C67.5917 76.0985 67.0332 76.0149 66.566 75.8477C66.0987 75.6844 65.7093 75.4678 65.3978 75.1981C65.09 74.9322 64.845 74.6473 64.6627 74.3433L65.734 73.5911C65.8555 73.7507 66.0094 73.933 66.1955 74.1382C66.3817 74.3471 66.6362 74.5276 66.9591 74.6795C67.2859 74.8353 67.7132 74.9132 68.2413 74.9132C68.9479 74.9132 69.5311 74.7422 69.9907 74.4003C70.4504 74.0584 70.6803 73.5228 70.6803 72.7933V71.0154H70.5663C70.4675 71.175 70.327 71.3725 70.1446 71.6081C69.966 71.8398 69.7077 72.0468 69.3696 72.2292C69.0353 72.4077 68.5832 72.497 68.0134 72.497C67.3068 72.497 66.6723 72.3299 66.1101 71.9956C65.5516 71.6612 65.109 71.175 64.7823 70.5367C64.4594 69.8985 64.298 69.1235 64.298 68.2118C64.298 67.3152 64.4556 66.5345 64.7709 65.8697C65.0862 65.2011 65.525 64.6844 66.0873 64.3197C66.6495 63.9512 67.2992 63.7669 68.0362 63.7669C68.606 63.7669 69.0581 63.8619 69.3924 64.0519C69.7305 64.238 69.9888 64.4508 70.1674 64.6901C70.3497 64.9256 70.4903 65.1194 70.5891 65.2713H70.7258V63.8809H72.0251V72.8845C72.0251 73.6367 71.8541 74.2484 71.5122 74.7194C71.1741 75.1943 70.7182 75.5419 70.1446 75.7623C69.5748 75.9864 68.9403 76.0985 68.2413 76.0985ZM68.1957 71.2889C68.7352 71.2889 69.1911 71.1655 69.5634 70.9185C69.9357 70.6716 70.2187 70.3164 70.4124 69.8529C70.6062 69.3895 70.703 68.8348 70.703 68.189C70.703 67.5583 70.6081 67.0018 70.4181 66.5193C70.2282 66.0368 69.9471 65.6588 69.5748 65.3853C69.2024 65.1118 68.7428 64.975 68.1957 64.975C67.6259 64.975 67.151 65.1194 66.7711 65.4081C66.395 65.6968 66.112 66.0843 65.922 66.5706C65.7359 67.0569 65.6428 67.5963 65.6428 68.189C65.6428 68.7968 65.7378 69.3344 65.9277 69.8016C66.1215 70.2651 66.4064 70.6298 66.7825 70.8958C67.1624 71.1579 67.6335 71.2889 68.1957 71.2889ZM74.4868 72.6338V63.8809H75.8317V72.6338H74.4868ZM75.1707 62.4221C74.9085 62.4221 74.6825 62.3328 74.4925 62.1543C74.3064 61.9757 74.2133 61.7611 74.2133 61.5104C74.2133 61.2596 74.3064 61.045 74.4925 60.8664C74.6825 60.6879 74.9085 60.5986 75.1707 60.5986C75.4328 60.5986 75.6569 60.6879 75.8431 60.8664C76.033 61.045 76.128 61.2596 76.128 61.5104C76.128 61.7611 76.033 61.9757 75.8431 62.1543C75.6569 62.3328 75.4328 62.4221 75.1707 62.4221ZM79.6397 67.3684V72.6338H78.2949V63.8809H79.5941V65.2486H79.7081C79.9132 64.8041 80.2247 64.447 80.6426 64.1772C81.0605 63.9037 81.6 63.7669 82.261 63.7669C82.8536 63.7669 83.3722 63.8885 83.8167 64.1317C84.2612 64.371 84.6069 64.7357 84.8538 65.2258C85.1007 65.712 85.2242 66.3275 85.2242 67.0721V72.6338H83.8794V67.1632C83.8794 66.4756 83.7008 65.94 83.3437 65.5563C82.9866 65.1688 82.4965 64.975 81.8735 64.975C81.4442 64.975 81.0605 65.0681 80.7224 65.2543C80.3881 65.4404 80.1241 65.712 79.9303 66.0691C79.7366 66.4262 79.6397 66.8593 79.6397 67.3684ZM91.3515 72.8161C90.5081 72.8161 89.7806 72.63 89.169 72.2577C88.5611 71.8816 88.092 71.3573 87.7615 70.6849C87.4347 70.0087 87.2714 69.2223 87.2714 68.3257C87.2714 67.4292 87.4347 66.639 87.7615 65.9552C88.092 65.2675 88.5517 64.7319 89.1405 64.3482C89.7331 63.9607 90.4246 63.7669 91.2147 63.7669C91.6706 63.7669 92.1208 63.8429 92.5653 63.9949C93.0098 64.1468 93.4144 64.3938 93.7791 64.7357C94.1438 65.0738 94.4344 65.5221 94.6509 66.0805C94.8675 66.639 94.9757 67.3266 94.9757 68.1434V68.7132H88.2287V67.5507H93.6081C93.6081 67.0569 93.5093 66.6162 93.3118 66.2287C93.118 65.8412 92.8407 65.5354 92.4798 65.3112C92.1227 65.0871 91.701 64.975 91.2147 64.975C90.6791 64.975 90.2156 65.108 89.8243 65.3739C89.4368 65.6361 89.1386 65.978 88.9296 66.3996C88.7207 66.8213 88.6162 67.2734 88.6162 67.7559V68.5309C88.6162 69.1919 88.7302 69.7523 88.9581 70.2119C89.1899 70.6678 89.5109 71.0154 89.9212 71.2548C90.3315 71.4903 90.8082 71.6081 91.3515 71.6081C91.7048 71.6081 92.0239 71.5587 92.3089 71.4599C92.5976 71.3573 92.8464 71.2054 93.0554 71.004C93.2643 70.7989 93.4258 70.5443 93.5397 70.2404L94.839 70.6051C94.7022 71.0458 94.4724 71.4333 94.1495 71.7676C93.8265 72.0981 93.4277 72.3565 92.9528 72.5426C92.4779 72.725 91.9441 72.8161 91.3515 72.8161ZM100.691 72.8161C99.8479 72.8161 99.1204 72.63 98.5088 72.2577C97.901 71.8816 97.4318 71.3573 97.1013 70.6849C96.7746 70.0087 96.6112 69.2223 96.6112 68.3257C96.6112 67.4292 96.7746 66.639 97.1013 65.9552C97.4318 65.2675 97.8915 64.7319 98.4803 64.3482C99.0729 63.9607 99.7644 63.7669 100.555 63.7669C101.01 63.7669 101.461 63.8429 101.905 63.9949C102.35 64.1468 102.754 64.3938 103.119 64.7357C103.484 65.0738 103.774 65.5221 103.991 66.0805C104.207 66.639 104.316 67.3266 104.316 68.1434V68.7132H97.5685V67.5507H102.948C102.948 67.0569 102.849 66.6162 102.652 66.2287C102.458 65.8412 102.181 65.5354 101.82 65.3112C101.463 65.0871 101.041 64.975 100.555 64.975C100.019 64.975 99.5554 65.108 99.1641 65.3739C98.7766 65.6361 98.4784 65.978 98.2695 66.3996C98.0605 66.8213 97.956 67.2734 97.956 67.7559V68.5309C97.956 69.1919 98.07 69.7523 98.298 70.2119C98.5297 70.6678 98.8507 71.0154 99.261 71.2548C99.6713 71.4903 100.148 71.6081 100.691 71.6081C101.045 71.6081 101.364 71.5587 101.649 71.4599C101.937 71.3573 102.186 71.2054 102.395 71.004C102.604 70.7989 102.766 70.5443 102.88 70.2404L104.179 70.6051C104.042 71.0458 103.812 71.4333 103.489 71.7676C103.166 72.0981 102.767 72.3565 102.293 72.5426C101.818 72.725 101.284 72.8161 100.691 72.8161ZM106.361 72.6338V63.8809H107.661V65.203H107.752C107.911 64.7699 108.2 64.4185 108.618 64.1487C109.036 63.879 109.507 63.7442 110.031 63.7442C110.13 63.7442 110.253 63.7461 110.402 63.7499C110.55 63.7537 110.662 63.7594 110.738 63.7669V65.1346C110.692 65.1232 110.588 65.1061 110.424 65.0833C110.265 65.0567 110.096 65.0434 109.917 65.0434C109.492 65.0434 109.112 65.1327 108.777 65.3112C108.447 65.486 108.185 65.7291 107.991 66.0406C107.801 66.3484 107.706 66.6998 107.706 67.0949V72.6338H106.361ZM118.532 65.8412L117.324 66.1831C117.248 65.9818 117.136 65.7861 116.988 65.5962C116.843 65.4024 116.646 65.2429 116.395 65.1175C116.144 64.9921 115.823 64.9294 115.432 64.9294C114.896 64.9294 114.45 65.0529 114.093 65.2998C113.739 65.543 113.563 65.8526 113.563 66.2287C113.563 66.563 113.684 66.827 113.927 67.0208C114.171 67.2145 114.551 67.376 115.067 67.5052L116.366 67.8243C117.149 68.0142 117.732 68.3048 118.116 68.6961C118.5 69.0836 118.691 69.5832 118.691 70.1948C118.691 70.6963 118.547 71.1446 118.258 71.5397C117.973 71.9348 117.574 72.2463 117.062 72.4742C116.549 72.7022 115.952 72.8161 115.272 72.8161C114.38 72.8161 113.641 72.6224 113.056 72.2349C112.471 71.8474 112.1 71.2813 111.944 70.5367L113.221 70.2176C113.342 70.6887 113.572 71.042 113.91 71.2776C114.252 71.5131 114.699 71.6309 115.25 71.6309C115.876 71.6309 116.374 71.4979 116.743 71.232C117.115 70.9622 117.301 70.6393 117.301 70.2632C117.301 69.9593 117.195 69.7048 116.982 69.4996C116.769 69.2907 116.442 69.1349 116.002 69.0323L114.543 68.6904C113.741 68.5005 113.152 68.2061 112.776 67.8072C112.404 67.4045 112.218 66.9011 112.218 66.2971C112.218 65.8032 112.357 65.3663 112.634 64.9864C112.915 64.6065 113.297 64.3083 113.779 64.0918C114.266 63.8752 114.816 63.7669 115.432 63.7669C116.298 63.7669 116.978 63.9569 117.472 64.3368C117.97 64.7167 118.323 65.2182 118.532 65.8412Z" fill="#262626"/>
<rect x="28.3477" y="103.982" width="107.302" height="46.3842" rx="5.34898" fill="#F2F1FF"/>
<path d="M62.5493 134.674V120.572H71.2941V122.404H64.6769V126.701H70.6675V128.525H64.6769V134.674H62.5493ZM73.6128 134.674V124.098H75.6028V125.778H75.7129C75.9057 125.209 76.2454 124.761 76.732 124.435C77.2232 124.105 77.7786 123.94 78.3984 123.94C78.5269 123.94 78.6784 123.944 78.8528 123.953C79.0318 123.963 79.1718 123.974 79.2728 123.988V125.957C79.1902 125.934 79.0433 125.909 78.8322 125.881C78.621 125.849 78.4098 125.833 78.1987 125.833C77.7121 125.833 77.2783 125.936 76.8973 126.143C76.5209 126.345 76.2225 126.627 76.0021 126.99C75.7818 127.348 75.6716 127.757 75.6716 128.216V134.674H73.6128ZM85.2341 134.888C84.1921 134.888 83.2946 134.665 82.5418 134.22C81.7936 133.77 81.2152 133.139 80.8066 132.326C80.4027 131.509 80.2007 130.552 80.2007 129.455C80.2007 128.372 80.4027 127.417 80.8066 126.591C81.2152 125.764 81.7844 125.119 82.5143 124.656C83.2487 124.192 84.1072 123.96 85.0895 123.96C85.6863 123.96 86.2647 124.059 86.8247 124.256C87.3847 124.454 87.8874 124.764 88.3327 125.186C88.7779 125.608 89.1291 126.157 89.3862 126.832C89.6432 127.502 89.7718 128.317 89.7718 129.276V130.006H81.3644V128.463H87.7543C87.7543 127.922 87.6441 127.442 87.4237 127.024C87.2034 126.602 86.8936 126.269 86.4942 126.026C86.0994 125.783 85.6358 125.661 85.1033 125.661C84.5249 125.661 84.0199 125.803 83.5884 126.088C83.1615 126.368 82.831 126.735 82.5969 127.19C82.3674 127.639 82.2526 128.128 82.2526 128.656V129.861C82.2526 130.568 82.3766 131.17 82.6244 131.665C82.8769 132.161 83.2281 132.54 83.6779 132.801C84.1278 133.058 84.6534 133.187 85.2548 133.187C85.645 133.187 86.0007 133.132 86.322 133.022C86.6434 132.907 86.9211 132.737 87.1552 132.512C87.3893 132.287 87.5683 132.01 87.6923 131.679L89.6409 132.03C89.4849 132.604 89.2048 133.107 88.8009 133.538C88.4015 133.965 87.8989 134.298 87.2929 134.537C86.6916 134.771 86.0053 134.888 85.2341 134.888ZM96.6144 134.888C95.5724 134.888 94.6749 134.665 93.9221 134.22C93.1739 133.77 92.5955 133.139 92.1869 132.326C91.7829 131.509 91.581 130.552 91.581 129.455C91.581 128.372 91.7829 127.417 92.1869 126.591C92.5955 125.764 93.1647 125.119 93.8946 124.656C94.629 124.192 95.4874 123.96 96.4698 123.96C97.0666 123.96 97.6449 124.059 98.205 124.256C98.765 124.454 99.2677 124.764 99.7129 125.186C100.158 125.608 100.509 126.157 100.766 126.832C101.024 127.502 101.152 128.317 101.152 129.276V130.006H92.7446V128.463H99.1345C99.1345 127.922 99.0244 127.442 98.804 127.024C98.5837 126.602 98.2738 126.269 97.8745 126.026C97.4797 125.783 97.0161 125.661 96.4836 125.661C95.9052 125.661 95.4002 125.803 94.9687 126.088C94.5418 126.368 94.2113 126.735 93.9772 127.19C93.7477 127.639 93.6329 128.128 93.6329 128.656V129.861C93.6329 130.568 93.7568 131.17 94.0047 131.665C94.2572 132.161 94.6084 132.54 95.0582 132.801C95.5081 133.058 96.0337 133.187 96.635 133.187C97.0252 133.187 97.381 133.132 97.7023 133.022C98.0237 132.907 98.3014 132.737 98.5355 132.512C98.7696 132.287 98.9486 132.01 99.0726 131.679L101.021 132.03C100.865 132.604 100.585 133.107 100.181 133.538C99.7818 133.965 99.2791 134.298 98.6732 134.537C98.0719 134.771 97.3856 134.888 96.6144 134.888Z" fill="#5B55FD"/>
<rect x="154.666" y="49.6657" width="242.669" height="112.669" rx="5.68329" fill="white"/>
<rect x="154.666" y="49.6657" width="242.669" height="112.669" rx="5.68329" stroke="#D6D6D6" stroke-width="0.668622"/>
<path d="M190.315 88.9091C190.26 88.4413 190.035 88.0781 189.641 87.8196C189.247 87.5611 188.764 87.4318 188.192 87.4318C187.773 87.4318 187.407 87.4995 187.093 87.6349C186.782 87.7704 186.539 87.9566 186.364 88.1935C186.191 88.4305 186.105 88.6998 186.105 89.0014C186.105 89.2538 186.165 89.4708 186.285 89.6523C186.408 89.8308 186.565 89.9801 186.756 90.1001C186.947 90.2171 187.147 90.314 187.356 90.391C187.565 90.4648 187.758 90.5249 187.933 90.571L188.893 90.8295C189.14 90.8942 189.414 90.9834 189.715 91.0973C190.02 91.2112 190.311 91.3666 190.588 91.5636C190.868 91.7575 191.099 92.0067 191.28 92.3114C191.462 92.6161 191.553 92.9901 191.553 93.4332C191.553 93.9441 191.419 94.4058 191.151 94.8182C190.886 95.2306 190.498 95.5584 189.988 95.8015C189.48 96.0446 188.863 96.1662 188.136 96.1662C187.459 96.1662 186.873 96.0569 186.377 95.8384C185.885 95.6199 185.497 95.3152 185.214 94.9244C184.934 94.5335 184.776 94.0795 184.739 93.5625H185.92C185.951 93.9195 186.071 94.215 186.281 94.4489C186.493 94.6797 186.761 94.852 187.084 94.9659C187.41 95.0767 187.761 95.1321 188.136 95.1321C188.573 95.1321 188.966 95.0613 189.314 94.9197C189.661 94.7751 189.937 94.575 190.14 94.3196C190.343 94.0611 190.445 93.7595 190.445 93.4148C190.445 93.1009 190.357 92.8454 190.181 92.6484C190.006 92.4515 189.775 92.2914 189.489 92.1683C189.203 92.0452 188.893 91.9375 188.561 91.8452L187.398 91.5128C186.659 91.3004 186.074 90.9973 185.643 90.6033C185.213 90.2094 184.997 89.6939 184.997 89.0568C184.997 88.5275 185.14 88.0658 185.426 87.6719C185.716 87.2749 186.104 86.9671 186.59 86.7486C187.079 86.527 187.625 86.4162 188.229 86.4162C188.838 86.4162 189.38 86.5254 189.854 86.744C190.328 86.9594 190.703 87.2549 190.98 87.6303C191.26 88.0058 191.408 88.4321 191.423 88.9091H190.315ZM193.287 96V88.9091H194.34V90.017H194.432C194.58 89.6385 194.818 89.3446 195.148 89.1353C195.477 88.9229 195.872 88.8168 196.334 88.8168C196.802 88.8168 197.191 88.9229 197.502 89.1353C197.816 89.3446 198.061 89.6385 198.236 90.017H198.31C198.492 89.6508 198.764 89.36 199.127 89.1445C199.49 88.926 199.926 88.8168 200.434 88.8168C201.068 88.8168 201.586 89.0153 201.989 89.4123C202.392 89.8062 202.594 90.4202 202.594 91.2543V96H201.505V91.2543C201.505 90.7311 201.361 90.3571 201.075 90.1325C200.789 89.9078 200.452 89.7955 200.064 89.7955C199.566 89.7955 199.179 89.9463 198.905 90.2479C198.632 90.5464 198.495 90.925 198.495 91.3835V96H197.387V91.1435C197.387 90.7403 197.256 90.4156 196.994 90.1694C196.733 89.9201 196.396 89.7955 195.983 89.7955C195.7 89.7955 195.435 89.8709 195.189 90.0217C194.946 90.1725 194.749 90.3817 194.598 90.6495C194.451 90.9142 194.377 91.2204 194.377 91.5682V96H193.287ZM206.673 96.1662C206.223 96.1662 205.816 96.0816 205.449 95.9123C205.083 95.7399 204.792 95.4922 204.577 95.169C204.361 94.8428 204.254 94.4489 204.254 93.9872C204.254 93.581 204.334 93.2517 204.494 92.9993C204.654 92.7438 204.868 92.5438 205.135 92.3991C205.403 92.2545 205.699 92.1468 206.022 92.076C206.348 92.0021 206.676 91.9437 207.005 91.9006C207.436 91.8452 207.785 91.8036 208.053 91.7759C208.324 91.7451 208.521 91.6944 208.644 91.6236C208.77 91.5528 208.833 91.4297 208.833 91.2543V91.2173C208.833 90.7618 208.709 90.4079 208.459 90.1555C208.213 89.9032 207.839 89.777 207.337 89.777C206.817 89.777 206.41 89.8909 206.114 90.1186C205.819 90.3464 205.611 90.5895 205.491 90.848L204.457 90.4787C204.641 90.0478 204.888 89.7124 205.195 89.4723C205.506 89.2292 205.845 89.0599 206.211 88.9645C206.58 88.866 206.944 88.8168 207.301 88.8168C207.528 88.8168 207.79 88.8445 208.085 88.8999C208.384 88.9522 208.672 89.0614 208.949 89.2276C209.229 89.3938 209.461 89.6446 209.646 89.9801C209.83 90.3156 209.923 90.7649 209.923 91.3281V96H208.833V95.0398H208.778C208.704 95.1937 208.581 95.3583 208.408 95.5337C208.236 95.7092 208.007 95.8584 207.721 95.9815C207.434 96.1046 207.085 96.1662 206.673 96.1662ZM206.839 95.1875C207.27 95.1875 207.633 95.1029 207.928 94.9336C208.227 94.7643 208.452 94.5458 208.602 94.2781C208.756 94.0103 208.833 93.7287 208.833 93.4332V92.4361C208.787 92.4915 208.685 92.5423 208.528 92.5884C208.375 92.6315 208.196 92.67 207.993 92.7038C207.793 92.7346 207.598 92.7623 207.407 92.7869C207.219 92.8085 207.067 92.8269 206.95 92.8423C206.667 92.8793 206.402 92.9393 206.156 93.0224C205.912 93.1024 205.716 93.224 205.565 93.3871C205.417 93.5471 205.343 93.7656 205.343 94.0426C205.343 94.4212 205.483 94.7074 205.763 94.9013C206.046 95.0921 206.405 95.1875 206.839 95.1875ZM213.001 86.5455V96H211.911V86.5455H213.001ZM216.086 86.5455V96H214.996V86.5455H216.086ZM223.824 96.1662C223.375 96.1662 222.967 96.0816 222.601 95.9123C222.234 95.7399 221.944 95.4922 221.728 95.169C221.513 94.8428 221.405 94.4489 221.405 93.9872C221.405 93.581 221.485 93.2517 221.645 92.9993C221.805 92.7438 222.019 92.5438 222.287 92.3991C222.555 92.2545 222.85 92.1468 223.173 92.076C223.499 92.0021 223.827 91.9437 224.156 91.9006C224.587 91.8452 224.937 91.8036 225.204 91.7759C225.475 91.7451 225.672 91.6944 225.795 91.6236C225.921 91.5528 225.985 91.4297 225.985 91.2543V91.2173C225.985 90.7618 225.86 90.4079 225.611 90.1555C225.364 89.9032 224.99 89.777 224.489 89.777C223.969 89.777 223.561 89.8909 223.265 90.1186C222.97 90.3464 222.762 90.5895 222.642 90.848L221.608 90.4787C221.793 90.0478 222.039 89.7124 222.347 89.4723C222.658 89.2292 222.996 89.0599 223.362 88.9645C223.732 88.866 224.095 88.8168 224.452 88.8168C224.68 88.8168 224.941 88.8445 225.237 88.8999C225.535 88.9522 225.823 89.0614 226.1 89.2276C226.38 89.3938 226.612 89.6446 226.797 89.9801C226.982 90.3156 227.074 90.7649 227.074 91.3281V96H225.985V95.0398H225.929C225.855 95.1937 225.732 95.3583 225.56 95.5337C225.387 95.7092 225.158 95.8584 224.872 95.9815C224.586 96.1046 224.236 96.1662 223.824 96.1662ZM223.99 95.1875C224.421 95.1875 224.784 95.1029 225.08 94.9336C225.378 94.7643 225.603 94.5458 225.754 94.2781C225.908 94.0103 225.985 93.7287 225.985 93.4332V92.4361C225.938 92.4915 225.837 92.5423 225.68 92.5884C225.526 92.6315 225.347 92.67 225.144 92.7038C224.944 92.7346 224.749 92.7623 224.558 92.7869C224.37 92.8085 224.218 92.8269 224.101 92.8423C223.818 92.8793 223.553 92.9393 223.307 93.0224C223.064 93.1024 222.867 93.224 222.716 93.3871C222.568 93.5471 222.494 93.7656 222.494 94.0426C222.494 94.4212 222.635 94.7074 222.915 94.9013C223.198 95.0921 223.556 95.1875 223.99 95.1875ZM229.063 98.6591V88.9091H230.115V90.0355H230.244C230.324 89.9124 230.435 89.7554 230.577 89.5646C230.721 89.3707 230.928 89.1984 231.195 89.0476C231.466 88.8937 231.832 88.8168 232.294 88.8168C232.891 88.8168 233.417 88.966 233.873 89.2646C234.328 89.5631 234.684 89.9863 234.939 90.5341C235.195 91.0819 235.323 91.7282 235.323 92.473C235.323 93.224 235.195 93.8749 234.939 94.4258C234.684 94.9736 234.33 95.3983 233.878 95.6999C233.425 95.9985 232.903 96.1477 232.313 96.1477C231.857 96.1477 231.492 96.0723 231.218 95.9215C230.945 95.7676 230.734 95.5937 230.586 95.3999C230.438 95.2029 230.324 95.0398 230.244 94.9105H230.152V98.6591H229.063ZM230.134 92.4545C230.134 92.9901 230.212 93.4625 230.369 93.8718C230.526 94.2781 230.755 94.5966 231.057 94.8274C231.359 95.0552 231.728 95.169 232.165 95.169C232.62 95.169 233 95.049 233.305 94.8089C233.613 94.5658 233.844 94.2396 233.998 93.8303C234.155 93.4179 234.233 92.9593 234.233 92.4545C234.233 91.956 234.156 91.5066 234.002 91.1065C233.851 90.7034 233.622 90.3848 233.314 90.1509C233.01 89.9139 232.627 89.7955 232.165 89.7955C231.722 89.7955 231.349 89.9078 231.048 90.1325C230.746 90.354 230.518 90.6649 230.364 91.065C230.211 91.462 230.134 91.9252 230.134 92.4545ZM236.984 98.6591V88.9091H238.037V90.0355H238.166C238.246 89.9124 238.357 89.7554 238.499 89.5646C238.643 89.3707 238.85 89.1984 239.117 89.0476C239.388 88.8937 239.754 88.8168 240.216 88.8168C240.813 88.8168 241.339 88.966 241.795 89.2646C242.25 89.5631 242.606 89.9863 242.861 90.5341C243.117 91.0819 243.244 91.7282 243.244 92.473C243.244 93.224 243.117 93.8749 242.861 94.4258C242.606 94.9736 242.252 95.3983 241.799 95.6999C241.347 95.9985 240.825 96.1477 240.234 96.1477C239.779 96.1477 239.414 96.0723 239.14 95.9215C238.866 95.7676 238.656 95.5937 238.508 95.3999C238.36 95.2029 238.246 95.0398 238.166 94.9105H238.074V98.6591H236.984ZM238.055 92.4545C238.055 92.9901 238.134 93.4625 238.291 93.8718C238.448 94.2781 238.677 94.5966 238.979 94.8274C239.28 95.0552 239.65 95.169 240.087 95.169C240.542 95.169 240.922 95.049 241.227 94.8089C241.535 94.5658 241.766 94.2396 241.919 93.8303C242.076 93.4179 242.155 92.9593 242.155 92.4545C242.155 91.956 242.078 91.5066 241.924 91.1065C241.773 90.7034 241.544 90.3848 241.236 90.1509C240.932 89.9139 240.548 89.7955 240.087 89.7955C239.644 89.7955 239.271 89.9078 238.97 90.1325C238.668 90.354 238.44 90.6649 238.286 91.065C238.132 91.462 238.055 91.9252 238.055 92.4545ZM249.929 90.4972L248.95 90.7741C248.889 90.611 248.798 90.4525 248.678 90.2987C248.561 90.1417 248.401 90.0124 248.198 89.9109C247.995 89.8093 247.735 89.7585 247.418 89.7585C246.984 89.7585 246.622 89.8585 246.333 90.0586C246.047 90.2556 245.903 90.5064 245.903 90.8111C245.903 91.0819 246.002 91.2958 246.199 91.4528C246.396 91.6097 246.704 91.7405 247.122 91.8452L248.175 92.1037C248.809 92.2576 249.281 92.493 249.592 92.81C249.903 93.1239 250.058 93.5286 250.058 94.0241C250.058 94.4304 249.941 94.7936 249.707 95.1136C249.477 95.4337 249.153 95.6861 248.738 95.8707C248.323 96.0554 247.839 96.1477 247.288 96.1477C246.565 96.1477 245.967 95.9908 245.493 95.6768C245.019 95.3629 244.719 94.9044 244.592 94.3011L245.627 94.0426C245.725 94.4242 245.911 94.7105 246.185 94.9013C246.462 95.0921 246.824 95.1875 247.27 95.1875C247.778 95.1875 248.181 95.0798 248.479 94.8643C248.781 94.6458 248.932 94.3842 248.932 94.0795C248.932 93.8333 248.846 93.6271 248.673 93.4609C248.501 93.2917 248.236 93.1655 247.879 93.0824L246.698 92.8054C246.048 92.6515 245.571 92.413 245.266 92.0898C244.965 91.7636 244.814 91.3558 244.814 90.8665C244.814 90.4664 244.926 90.1125 245.151 89.8047C245.379 89.4969 245.688 89.2553 246.079 89.0799C246.473 88.9045 246.919 88.8168 247.418 88.8168C248.119 88.8168 248.67 88.9706 249.07 89.2784C249.474 89.5862 249.76 89.9924 249.929 90.4972Z" fill="#999999"/>
<path d="M295.145 96V86.5455H296.29V94.9844H300.685V96H295.145ZM304.396 96.1662C303.947 96.1662 303.539 96.0816 303.173 95.9123C302.807 95.7399 302.516 95.4922 302.3 95.169C302.085 94.8428 301.977 94.4489 301.977 93.9872C301.977 93.581 302.057 93.2517 302.217 92.9993C302.377 92.7438 302.591 92.5438 302.859 92.3991C303.127 92.2545 303.422 92.1468 303.745 92.076C304.072 92.0021 304.399 91.9437 304.729 91.9006C305.16 91.8452 305.509 91.8036 305.777 91.7759C306.047 91.7451 306.244 91.6944 306.368 91.6236C306.494 91.5528 306.557 91.4297 306.557 91.2543V91.2173C306.557 90.7618 306.432 90.4079 306.183 90.1555C305.937 89.9032 305.563 89.777 305.061 89.777C304.541 89.777 304.133 89.8909 303.838 90.1186C303.542 90.3464 303.335 90.5895 303.214 90.848L302.18 90.4787C302.365 90.0478 302.611 89.7124 302.919 89.4723C303.23 89.2292 303.568 89.0599 303.935 88.9645C304.304 88.866 304.667 88.8168 305.024 88.8168C305.252 88.8168 305.513 88.8445 305.809 88.8999C306.107 88.9522 306.395 89.0614 306.672 89.2276C306.952 89.3938 307.185 89.6446 307.369 89.9801C307.554 90.3156 307.646 90.7649 307.646 91.3281V96H306.557V95.0398H306.501C306.428 95.1937 306.304 95.3583 306.132 95.5337C305.96 95.7092 305.73 95.8584 305.444 95.9815C305.158 96.1046 304.809 96.1662 304.396 96.1662ZM304.562 95.1875C304.993 95.1875 305.357 95.1029 305.652 94.9336C305.951 94.7643 306.175 94.5458 306.326 94.2781C306.48 94.0103 306.557 93.7287 306.557 93.4332V92.4361C306.511 92.4915 306.409 92.5423 306.252 92.5884C306.098 92.6315 305.92 92.67 305.717 92.7038C305.517 92.7346 305.321 92.7623 305.13 92.7869C304.943 92.8085 304.79 92.8269 304.673 92.8423C304.39 92.8793 304.125 92.9393 303.879 93.0224C303.636 93.1024 303.439 93.224 303.288 93.3871C303.141 93.5471 303.067 93.7656 303.067 94.0426C303.067 94.4212 303.207 94.7074 303.487 94.9013C303.77 95.0921 304.129 95.1875 304.562 95.1875ZM309.635 96V88.9091H310.687V89.9801H310.761C310.891 89.6293 311.124 89.3446 311.463 89.1261C311.802 88.9076 312.183 88.7983 312.608 88.7983C312.688 88.7983 312.788 88.7998 312.908 88.8029C313.028 88.806 313.119 88.8106 313.18 88.8168V89.9247C313.143 89.9155 313.059 89.9016 312.926 89.8832C312.797 89.8616 312.66 89.8509 312.516 89.8509C312.171 89.8509 311.863 89.9232 311.592 90.0678C311.324 90.2094 311.112 90.4064 310.955 90.6587C310.801 90.908 310.724 91.1927 310.724 91.5128V96H309.635ZM317.118 98.8068C316.592 98.8068 316.139 98.7391 315.761 98.6037C315.382 98.4714 315.067 98.2959 314.815 98.0774C314.565 97.862 314.367 97.6312 314.219 97.3849L315.087 96.7756C315.185 96.9048 315.31 97.0526 315.461 97.2188C315.612 97.388 315.818 97.5342 316.079 97.6573C316.344 97.7835 316.69 97.8466 317.118 97.8466C317.691 97.8466 318.163 97.7081 318.535 97.4311C318.908 97.1541 319.094 96.7202 319.094 96.1293V94.6889H319.002C318.922 94.8182 318.808 94.9782 318.66 95.169C318.515 95.3568 318.306 95.5245 318.032 95.6722C317.761 95.8169 317.395 95.8892 316.934 95.8892C316.361 95.8892 315.847 95.7538 315.392 95.483C314.939 95.2121 314.581 94.8182 314.316 94.3011C314.054 93.7841 313.924 93.1562 313.924 92.4176C313.924 91.6913 314.051 91.0588 314.307 90.5202C314.562 89.9786 314.918 89.56 315.373 89.2646C315.829 88.966 316.355 88.8168 316.952 88.8168C317.414 88.8168 317.78 88.8937 318.051 89.0476C318.325 89.1984 318.534 89.3707 318.679 89.5646C318.826 89.7554 318.94 89.9124 319.02 90.0355H319.131V88.9091H320.184V96.2031C320.184 96.8125 320.045 97.308 319.768 97.6896C319.494 98.0743 319.125 98.3559 318.66 98.5344C318.198 98.716 317.684 98.8068 317.118 98.8068ZM317.081 94.9105C317.518 94.9105 317.888 94.8105 318.189 94.6104C318.491 94.4104 318.72 94.1226 318.877 93.7472C319.034 93.3717 319.112 92.9223 319.112 92.3991C319.112 91.8883 319.036 91.4374 318.882 91.0465C318.728 90.6557 318.5 90.3494 318.198 90.1278C317.897 89.9062 317.524 89.7955 317.081 89.7955C316.62 89.7955 316.235 89.9124 315.927 90.1463C315.622 90.3802 315.393 90.6941 315.239 91.0881C315.088 91.482 315.013 91.919 315.013 92.3991C315.013 92.8916 315.09 93.3271 315.244 93.7056C315.401 94.0811 315.632 94.3765 315.936 94.592C316.244 94.8043 316.626 94.9105 317.081 94.9105ZM325.151 96.1477C324.468 96.1477 323.878 95.9969 323.383 95.6953C322.89 95.3906 322.51 94.9659 322.242 94.4212C321.978 93.8733 321.845 93.2363 321.845 92.5099C321.845 91.7836 321.978 91.1435 322.242 90.5895C322.51 90.0324 322.883 89.5985 323.36 89.2876C323.84 88.9737 324.4 88.8168 325.04 88.8168C325.409 88.8168 325.774 88.8783 326.134 89.0014C326.494 89.1245 326.822 89.3246 327.117 89.6016C327.413 89.8755 327.648 90.2386 327.824 90.6911C327.999 91.1435 328.087 91.7005 328.087 92.3622V92.8239H322.621V91.8821H326.979C326.979 91.482 326.899 91.125 326.739 90.8111C326.582 90.4972 326.357 90.2494 326.065 90.0678C325.776 89.8862 325.434 89.7955 325.04 89.7955C324.606 89.7955 324.231 89.9032 323.914 90.1186C323.6 90.331 323.358 90.608 323.189 90.9496C323.02 91.2912 322.935 91.6574 322.935 92.0483V92.6761C322.935 93.2116 323.027 93.6656 323.212 94.038C323.4 94.4073 323.66 94.6889 323.992 94.8828C324.324 95.0736 324.711 95.169 325.151 95.169C325.437 95.169 325.696 95.129 325.926 95.049C326.16 94.9659 326.362 94.8428 326.531 94.6797C326.7 94.5135 326.831 94.3073 326.924 94.0611L327.976 94.3565C327.865 94.7135 327.679 95.0275 327.418 95.2983C327.156 95.5661 326.833 95.7753 326.448 95.9261C326.063 96.0739 325.631 96.1477 325.151 96.1477ZM329.744 96V88.9091H330.797V89.9801H330.871C331 89.6293 331.234 89.3446 331.572 89.1261C331.911 88.9076 332.293 88.7983 332.717 88.7983C332.797 88.7983 332.897 88.7998 333.017 88.8029C333.137 88.806 333.228 88.8106 333.29 88.8168V89.9247C333.253 89.9155 333.168 89.9016 333.036 89.8832C332.907 89.8616 332.77 89.8509 332.625 89.8509C332.28 89.8509 331.972 89.9232 331.702 90.0678C331.434 90.2094 331.222 90.4064 331.065 90.6587C330.911 90.908 330.834 91.1927 330.834 91.5128V96H329.744ZM340.324 96.1662C339.875 96.1662 339.467 96.0816 339.101 95.9123C338.734 95.7399 338.444 95.4922 338.228 95.169C338.013 94.8428 337.905 94.4489 337.905 93.9872C337.905 93.581 337.985 93.2517 338.145 92.9993C338.305 92.7438 338.519 92.5438 338.787 92.3991C339.055 92.2545 339.35 92.1468 339.673 92.076C339.999 92.0021 340.327 91.9437 340.656 91.9006C341.087 91.8452 341.437 91.8036 341.704 91.7759C341.975 91.7451 342.172 91.6944 342.295 91.6236C342.421 91.5528 342.485 91.4297 342.485 91.2543V91.2173C342.485 90.7618 342.36 90.4079 342.111 90.1555C341.864 89.9032 341.49 89.777 340.989 89.777C340.469 89.777 340.061 89.8909 339.765 90.1186C339.47 90.3464 339.262 90.5895 339.142 90.848L338.108 90.4787C338.293 90.0478 338.539 89.7124 338.847 89.4723C339.158 89.2292 339.496 89.0599 339.862 88.9645C340.232 88.866 340.595 88.8168 340.952 88.8168C341.18 88.8168 341.441 88.8445 341.737 88.8999C342.035 88.9522 342.323 89.0614 342.6 89.2276C342.88 89.3938 343.112 89.6446 343.297 89.9801C343.482 90.3156 343.574 90.7649 343.574 91.3281V96H342.485V95.0398H342.429C342.355 95.1937 342.232 95.3583 342.06 95.5337C341.887 95.7092 341.658 95.8584 341.372 95.9815C341.086 96.1046 340.736 96.1662 340.324 96.1662ZM340.49 95.1875C340.921 95.1875 341.284 95.1029 341.58 94.9336C341.878 94.7643 342.103 94.5458 342.254 94.2781C342.408 94.0103 342.485 93.7287 342.485 93.4332V92.4361C342.438 92.4915 342.337 92.5423 342.18 92.5884C342.026 92.6315 341.847 92.67 341.644 92.7038C341.444 92.7346 341.249 92.7623 341.058 92.7869C340.87 92.8085 340.718 92.8269 340.601 92.8423C340.318 92.8793 340.053 92.9393 339.807 93.0224C339.564 93.1024 339.367 93.224 339.216 93.3871C339.068 93.5471 338.994 93.7656 338.994 94.0426C338.994 94.4212 339.135 94.7074 339.415 94.9013C339.698 95.0921 340.056 95.1875 340.49 95.1875ZM345.563 98.6591V88.9091H346.615V90.0355H346.744C346.824 89.9124 346.935 89.7554 347.077 89.5646C347.221 89.3707 347.428 89.1984 347.695 89.0476C347.966 88.8937 348.332 88.8168 348.794 88.8168C349.391 88.8168 349.917 88.966 350.373 89.2646C350.828 89.5631 351.184 89.9863 351.439 90.5341C351.695 91.0819 351.823 91.7282 351.823 92.473C351.823 93.224 351.695 93.8749 351.439 94.4258C351.184 94.9736 350.83 95.3983 350.378 95.6999C349.925 95.9985 349.403 96.1477 348.813 96.1477C348.357 96.1477 347.992 96.0723 347.718 95.9215C347.445 95.7676 347.234 95.5937 347.086 95.3999C346.938 95.2029 346.824 95.0398 346.744 94.9105H346.652V98.6591H345.563ZM346.634 92.4545C346.634 92.9901 346.712 93.4625 346.869 93.8718C347.026 94.2781 347.255 94.5966 347.557 94.8274C347.859 95.0552 348.228 95.169 348.665 95.169C349.12 95.169 349.5 95.049 349.805 94.8089C350.113 94.5658 350.344 94.2396 350.498 93.8303C350.655 93.4179 350.733 92.9593 350.733 92.4545C350.733 91.956 350.656 91.5066 350.502 91.1065C350.351 90.7034 350.122 90.3848 349.814 90.1509C349.51 89.9139 349.127 89.7955 348.665 89.7955C348.222 89.7955 347.849 89.9078 347.548 90.1325C347.246 90.354 347.018 90.6649 346.864 91.065C346.711 91.462 346.634 91.9252 346.634 92.4545ZM353.484 98.6591V88.9091H354.537V90.0355H354.666C354.746 89.9124 354.857 89.7554 354.999 89.5646C355.143 89.3707 355.35 89.1984 355.617 89.0476C355.888 88.8937 356.254 88.8168 356.716 88.8168C357.313 88.8168 357.839 88.966 358.295 89.2646C358.75 89.5631 359.106 89.9863 359.361 90.5341C359.617 91.0819 359.744 91.7282 359.744 92.473C359.744 93.224 359.617 93.8749 359.361 94.4258C359.106 94.9736 358.752 95.3983 358.299 95.6999C357.847 95.9985 357.325 96.1477 356.734 96.1477C356.279 96.1477 355.914 96.0723 355.64 95.9215C355.366 95.7676 355.156 95.5937 355.008 95.3999C354.86 95.2029 354.746 95.0398 354.666 94.9105H354.574V98.6591H353.484ZM354.555 92.4545C354.555 92.9901 354.634 93.4625 354.791 93.8718C354.948 94.2781 355.177 94.5966 355.479 94.8274C355.78 95.0552 356.15 95.169 356.587 95.169C357.042 95.169 357.422 95.049 357.727 94.8089C358.035 94.5658 358.266 94.2396 358.419 93.8303C358.576 93.4179 358.655 92.9593 358.655 92.4545C358.655 91.956 358.578 91.5066 358.424 91.1065C358.273 90.7034 358.044 90.3848 357.736 90.1509C357.432 89.9139 357.048 89.7955 356.587 89.7955C356.144 89.7955 355.771 89.9078 355.47 90.1325C355.168 90.354 354.94 90.6649 354.786 91.065C354.632 91.462 354.555 91.9252 354.555 92.4545ZM366.429 90.4972L365.45 90.7741C365.389 90.611 365.298 90.4525 365.178 90.2987C365.061 90.1417 364.901 90.0124 364.698 89.9109C364.495 89.8093 364.235 89.7585 363.918 89.7585C363.484 89.7585 363.122 89.8585 362.833 90.0586C362.547 90.2556 362.403 90.5064 362.403 90.8111C362.403 91.0819 362.502 91.2958 362.699 91.4528C362.896 91.6097 363.204 91.7405 363.622 91.8452L364.675 92.1037C365.309 92.2576 365.781 92.493 366.092 92.81C366.403 93.1239 366.558 93.5286 366.558 94.0241C366.558 94.4304 366.441 94.7936 366.207 95.1136C365.977 95.4337 365.653 95.6861 365.238 95.8707C364.823 96.0554 364.339 96.1477 363.788 96.1477C363.065 96.1477 362.467 95.9908 361.993 95.6768C361.519 95.3629 361.219 94.9044 361.092 94.3011L362.127 94.0426C362.225 94.4242 362.411 94.7105 362.685 94.9013C362.962 95.0921 363.324 95.1875 363.77 95.1875C364.278 95.1875 364.681 95.0798 364.979 94.8643C365.281 94.6458 365.432 94.3842 365.432 94.0795C365.432 93.8333 365.346 93.6271 365.173 93.4609C365.001 93.2917 364.736 93.1655 364.379 93.0824L363.198 92.8054C362.548 92.6515 362.071 92.413 361.766 92.0898C361.465 91.7636 361.314 91.3558 361.314 90.8665C361.314 90.4664 361.426 90.1125 361.651 89.8047C361.879 89.4969 362.188 89.2553 362.579 89.0799C362.973 88.9045 363.419 88.8168 363.918 88.8168C364.619 88.8168 365.17 88.9706 365.57 89.2784C365.974 89.5862 366.26 89.9924 366.429 90.4972Z" fill="#999999"/>
<path d="M240.804 62.9765H239.391C239.308 62.57 239.161 62.2129 238.952 61.9052C238.747 61.5975 238.496 61.3392 238.2 61.1302C237.908 60.9175 237.583 60.7579 237.226 60.6516C236.869 60.5452 236.496 60.492 236.109 60.492C235.402 60.492 234.762 60.6705 234.188 61.0277C233.619 61.3848 233.165 61.9109 232.826 62.6061C232.492 63.3013 232.325 64.1542 232.325 65.1648C232.325 66.1753 232.492 67.0282 232.826 67.7234C233.165 68.4186 233.619 68.9447 234.188 69.3019C234.762 69.659 235.402 69.8375 236.109 69.8375C236.496 69.8375 236.869 69.7843 237.226 69.678C237.583 69.5716 237.908 69.4139 238.2 69.205C238.496 68.9922 238.747 68.732 238.952 68.4243C239.161 68.1128 239.308 67.7557 239.391 67.353H240.804C240.698 67.9494 240.504 68.4832 240.223 68.9542C239.942 69.4253 239.592 69.8261 239.175 70.1566C238.757 70.4833 238.287 70.7322 237.767 70.9031C237.25 71.0741 236.698 71.1596 236.109 71.1596C235.113 71.1596 234.228 70.9164 233.453 70.4302C232.678 69.9439 232.069 69.2525 231.624 68.3559C231.18 67.4593 230.957 66.3956 230.957 65.1648C230.957 63.9339 231.18 62.8702 231.624 61.9736C232.069 61.077 232.678 60.3856 233.453 59.8994C234.228 59.4131 235.113 59.1699 236.109 59.1699C236.698 59.1699 237.25 59.2554 237.767 59.4264C238.287 59.5973 238.757 59.8481 239.175 60.1786C239.592 60.5053 239.942 60.9042 240.223 61.3753C240.504 61.8425 240.698 62.3763 240.804 62.9765ZM246.461 71.1824C245.671 71.1824 244.978 70.9943 244.382 70.6182C243.789 70.2421 243.325 69.7159 242.991 69.0397C242.661 68.3635 242.495 67.5733 242.495 66.6692C242.495 65.7574 242.661 64.9615 242.991 64.2815C243.325 63.6015 243.789 63.0734 244.382 62.6973C244.978 62.3212 245.671 62.1332 246.461 62.1332C247.252 62.1332 247.943 62.3212 248.536 62.6973C249.132 63.0734 249.596 63.6015 249.926 64.2815C250.26 64.9615 250.428 65.7574 250.428 66.6692C250.428 67.5733 250.26 68.3635 249.926 69.0397C249.596 69.7159 249.132 70.2421 248.536 70.6182C247.943 70.9943 247.252 71.1824 246.461 71.1824ZM246.461 69.9743C247.062 69.9743 247.556 69.8204 247.943 69.5127C248.331 69.205 248.617 68.8004 248.804 68.2989C248.99 67.7975 249.083 67.2542 249.083 66.6692C249.083 66.0841 248.99 65.539 248.804 65.0337C248.617 64.5284 248.331 64.12 247.943 63.8085C247.556 63.497 247.062 63.3412 246.461 63.3412C245.861 63.3412 245.367 63.497 244.98 63.8085C244.592 64.12 244.306 64.5284 244.119 65.0337C243.933 65.539 243.84 66.0841 243.84 66.6692C243.84 67.2542 243.933 67.7975 244.119 68.2989C244.306 68.8004 244.592 69.205 244.98 69.5127C245.367 69.8204 245.861 69.9743 246.461 69.9743ZM252.481 71V62.2471H253.78V63.6148H253.894C254.076 63.1475 254.371 62.7847 254.777 62.5264C255.183 62.2642 255.672 62.1332 256.242 62.1332C256.819 62.1332 257.3 62.2642 257.683 62.5264C258.071 62.7847 258.373 63.1475 258.589 63.6148H258.68C258.905 63.1627 259.241 62.8037 259.689 62.5378C260.137 62.268 260.675 62.1332 261.302 62.1332C262.084 62.1332 262.724 62.3782 263.222 62.8683C263.72 63.3545 263.969 64.1124 263.969 65.142V71H262.624V65.142C262.624 64.4961 262.447 64.0346 262.094 63.7572C261.741 63.4799 261.325 63.3412 260.846 63.3412C260.23 63.3412 259.754 63.5274 259.416 63.8997C259.077 64.2682 258.908 64.7355 258.908 65.3015V71H257.541V65.0052C257.541 64.5075 257.379 64.1067 257.056 63.8028C256.733 63.4951 256.317 63.3412 255.808 63.3412C255.459 63.3412 255.132 63.4343 254.828 63.6205C254.528 63.8066 254.285 64.0649 254.099 64.3955C253.917 64.7222 253.825 65.1002 253.825 65.5295V71H252.481ZM266.428 74.2823V62.2471H267.727V63.6376H267.886C267.985 63.4856 268.122 63.2919 268.297 63.0563C268.475 62.817 268.73 62.6042 269.06 62.4181C269.395 62.2281 269.847 62.1332 270.416 62.1332C271.153 62.1332 271.803 62.3174 272.365 62.6859C272.928 63.0544 273.366 63.5768 273.682 64.253C273.997 64.9292 274.155 65.727 274.155 66.6464C274.155 67.5733 273.997 68.3768 273.682 69.0568C273.366 69.733 272.93 70.2573 272.371 70.6296C271.813 70.9981 271.169 71.1824 270.439 71.1824C269.877 71.1824 269.427 71.0893 269.089 70.9031C268.751 70.7132 268.49 70.4985 268.308 70.2592C268.126 70.0161 267.985 69.8147 267.886 69.6552H267.772V74.2823H266.428ZM267.75 66.6236C267.75 67.2846 267.846 67.8677 268.04 68.373C268.234 68.8745 268.517 69.2677 268.889 69.5526C269.262 69.8337 269.717 69.9743 270.257 69.9743C270.819 69.9743 271.288 69.8261 271.664 69.5298C272.044 69.2297 272.329 68.827 272.519 68.3217C272.713 67.8126 272.81 67.2466 272.81 66.6236C272.81 66.0081 272.715 65.4535 272.525 64.9596C272.339 64.4619 272.056 64.0687 271.676 63.78C271.3 63.4875 270.827 63.3412 270.257 63.3412C269.71 63.3412 269.25 63.4799 268.878 63.7572C268.506 64.0308 268.224 64.4145 268.035 64.9083C267.845 65.3984 267.75 65.9701 267.75 66.6236ZM278.782 71.2051C278.227 71.2051 277.724 71.1007 277.272 70.8917C276.82 70.679 276.461 70.3732 276.195 69.9743C275.929 69.5716 275.796 69.0853 275.796 68.5155C275.796 68.014 275.895 67.6075 276.092 67.296C276.29 66.9807 276.554 66.7337 276.884 66.5552C277.215 66.3766 277.579 66.2437 277.978 66.1563C278.381 66.0651 278.786 65.9929 279.192 65.9397C279.724 65.8714 280.155 65.8201 280.486 65.7859C280.82 65.7479 281.063 65.6852 281.215 65.5978C281.371 65.5105 281.449 65.3585 281.449 65.142V65.0964C281.449 64.5341 281.295 64.0972 280.987 63.7857C280.683 63.4742 280.222 63.3184 279.602 63.3184C278.96 63.3184 278.457 63.459 278.092 63.7401C277.728 64.0213 277.471 64.3214 277.323 64.6405L276.047 64.1846C276.275 63.6528 276.578 63.2387 276.958 62.9423C277.342 62.6422 277.76 62.4333 278.212 62.3155C278.668 62.1939 279.116 62.1332 279.557 62.1332C279.838 62.1332 280.161 62.1674 280.526 62.2357C280.894 62.3003 281.249 62.4352 281.591 62.6403C281.937 62.8455 282.224 63.1551 282.452 63.5692C282.68 63.9833 282.794 64.5379 282.794 65.2331V71H281.449V69.8147H281.38C281.289 70.0047 281.137 70.2079 280.924 70.4245C280.712 70.641 280.429 70.8252 280.075 70.9772C279.722 71.1292 279.291 71.2051 278.782 71.2051ZM278.987 69.9971C279.519 69.9971 279.967 69.8926 280.332 69.6837C280.7 69.4747 280.978 69.205 281.164 68.8745C281.354 68.544 281.449 68.1963 281.449 67.8316V66.6008C281.392 66.6692 281.266 66.7318 281.073 66.7888C280.883 66.842 280.662 66.8895 280.412 66.9313C280.165 66.9693 279.923 67.0035 279.688 67.0339C279.456 67.0604 279.268 67.0832 279.124 67.1022C278.774 67.1478 278.448 67.2219 278.144 67.3245C277.844 67.4233 277.6 67.5733 277.414 67.7747C277.232 67.9722 277.141 68.2419 277.141 68.5838C277.141 69.0511 277.314 69.4044 277.659 69.6438C278.009 69.8793 278.451 69.9971 278.987 69.9971ZM286.593 65.7346V71H285.248V62.2471H286.547V63.6148H286.661C286.867 63.1703 287.178 62.8132 287.596 62.5435C288.014 62.2699 288.553 62.1332 289.214 62.1332C289.807 62.1332 290.326 62.2547 290.77 62.4979C291.215 62.7372 291.56 63.1019 291.807 63.592C292.054 64.0782 292.178 64.6937 292.178 65.4383V71H290.833V65.5295C290.833 64.8418 290.654 64.3062 290.297 63.9225C289.94 63.535 289.45 63.3412 288.827 63.3412C288.398 63.3412 288.014 63.4343 287.676 63.6205C287.341 63.8066 287.077 64.0782 286.884 64.4353C286.69 64.7925 286.593 65.2255 286.593 65.7346ZM294.635 71V62.2471H295.98V71H294.635ZM295.319 60.7883C295.057 60.7883 294.831 60.699 294.641 60.5205C294.455 60.3419 294.362 60.1273 294.362 59.8766C294.362 59.6258 294.455 59.4112 294.641 59.2326C294.831 59.0541 295.057 58.9648 295.319 58.9648C295.581 58.9648 295.805 59.0541 295.991 59.2326C296.181 59.4112 296.276 59.6258 296.276 59.8766C296.276 60.1273 296.181 60.3419 295.991 60.5205C295.805 60.699 295.581 60.7883 295.319 60.7883ZM302.113 71.1824C301.27 71.1824 300.542 70.9962 299.93 70.6239C299.323 70.2478 298.853 69.7235 298.523 69.0511C298.196 68.3749 298.033 67.5885 298.033 66.6919C298.033 65.7954 298.196 65.0052 298.523 64.3214C298.853 63.6338 299.313 63.0981 299.902 62.7144C300.495 62.3269 301.186 62.1332 301.976 62.1332C302.432 62.1332 302.882 62.2091 303.327 62.3611C303.771 62.5131 304.176 62.76 304.54 63.1019C304.905 63.44 305.196 63.8883 305.412 64.4467C305.629 65.0052 305.737 65.6928 305.737 66.5096V67.0794H298.99V65.917H304.369C304.369 65.4231 304.271 64.9824 304.073 64.5949C303.879 64.2074 303.602 63.9016 303.241 63.6774C302.884 63.4533 302.462 63.3412 301.976 63.3412C301.44 63.3412 300.977 63.4742 300.586 63.7401C300.198 64.0023 299.9 64.3442 299.691 64.7659C299.482 65.1875 299.378 65.6396 299.378 66.1221V66.8971C299.378 67.5581 299.492 68.1185 299.72 68.5781C299.951 69.034 300.272 69.3816 300.683 69.621C301.093 69.8565 301.57 69.9743 302.113 69.9743C302.466 69.9743 302.785 69.9249 303.07 69.8261C303.359 69.7235 303.608 69.5716 303.817 69.3702C304.026 69.1651 304.187 68.9106 304.301 68.6066L305.6 68.9713C305.464 69.412 305.234 69.7995 304.911 70.1338C304.588 70.4643 304.189 70.7227 303.714 70.9088C303.239 71.0912 302.706 71.1824 302.113 71.1824ZM313.983 64.2074L312.775 64.5493C312.699 64.348 312.587 64.1523 312.439 63.9624C312.294 63.7686 312.097 63.6091 311.846 63.4837C311.595 63.3583 311.274 63.2957 310.883 63.2957C310.347 63.2957 309.901 63.4191 309.544 63.6661C309.19 63.9092 309.014 64.2188 309.014 64.5949C309.014 64.9292 309.135 65.1932 309.378 65.387C309.622 65.5807 310.001 65.7422 310.518 65.8714L311.817 66.1905C312.6 66.3804 313.183 66.6711 313.567 67.0623C313.951 67.4498 314.142 67.9494 314.142 68.561C314.142 69.0625 313.998 69.5108 313.709 69.9059C313.424 70.301 313.025 70.6125 312.513 70.8404C312 71.0684 311.403 71.1824 310.723 71.1824C309.831 71.1824 309.092 70.9886 308.507 70.6011C307.922 70.2136 307.551 69.6476 307.395 68.903L308.672 68.5838C308.793 69.0549 309.023 69.4082 309.361 69.6438C309.703 69.8793 310.15 69.9971 310.7 69.9971C311.327 69.9971 311.825 69.8641 312.194 69.5982C312.566 69.3284 312.752 69.0055 312.752 68.6294C312.752 68.3255 312.646 68.071 312.433 67.8658C312.22 67.6569 311.893 67.5011 311.453 67.3986L309.994 67.0566C309.192 66.8667 308.603 66.5723 308.227 66.1734C307.855 65.7707 307.669 65.2673 307.669 64.6633C307.669 64.1694 307.808 63.7325 308.085 63.3526C308.366 62.9727 308.748 62.6745 309.23 62.458C309.717 62.2414 310.267 62.1332 310.883 62.1332C311.749 62.1332 312.429 62.3231 312.923 62.703C313.421 63.0829 313.774 63.5844 313.983 64.2074Z" fill="#262626"/>
<rect x="280.348" y="103.98" width="107.65" height="46.3842" rx="5.34898" fill="#F2F1FF"/>
<path d="M320.703 128.571L311.559 133.006V130.899L318.307 127.828L318.238 127.945V127.648L318.307 127.772L311.559 124.695V122.594L320.703 127.029V128.571ZM333.983 134.906C332.896 134.901 331.966 134.614 331.195 134.045C330.424 133.476 329.834 132.647 329.425 131.56C329.017 130.472 328.812 129.161 328.812 127.628C328.812 126.099 329.017 124.793 329.425 123.71C329.838 122.627 330.43 121.8 331.202 121.231C331.977 120.662 332.905 120.377 333.983 120.377C335.062 120.377 335.987 120.664 336.758 121.238C337.53 121.807 338.119 122.633 338.528 123.717C338.941 124.796 339.148 126.099 339.148 127.628C339.148 129.166 338.943 130.479 338.535 131.566C338.126 132.65 337.536 133.478 336.765 134.052C335.994 134.621 335.067 134.906 333.983 134.906ZM333.983 133.068C334.938 133.068 335.684 132.602 336.221 131.67C336.763 130.738 337.034 129.391 337.034 127.628C337.034 126.457 336.91 125.468 336.662 124.66C336.419 123.848 336.068 123.232 335.608 122.815C335.154 122.392 334.612 122.181 333.983 122.181C333.033 122.181 332.287 122.649 331.746 123.586C331.204 124.522 330.931 125.87 330.926 127.628C330.926 128.803 331.048 129.797 331.291 130.609C331.539 131.417 331.89 132.03 332.345 132.448C332.799 132.861 333.345 133.068 333.983 133.068ZM351.074 136.435V118.807H352.203V136.435H351.074ZM354.606 124.275C354.533 123.623 354.23 123.118 353.697 122.76C353.165 122.397 352.494 122.216 351.686 122.216C351.108 122.216 350.608 122.308 350.185 122.491C349.763 122.67 349.435 122.918 349.201 123.235C348.971 123.547 348.856 123.903 348.856 124.302C348.856 124.637 348.935 124.926 349.091 125.17C349.251 125.413 349.46 125.617 349.717 125.782C349.979 125.943 350.259 126.079 350.557 126.189C350.856 126.294 351.143 126.382 351.418 126.45L352.795 126.808C353.245 126.919 353.706 127.068 354.179 127.256C354.652 127.444 355.09 127.692 355.494 128C355.898 128.307 356.224 128.688 356.472 129.143C356.725 129.597 356.851 130.141 356.851 130.775C356.851 131.573 356.644 132.283 356.231 132.902C355.822 133.522 355.228 134.011 354.448 134.369C353.672 134.727 352.733 134.906 351.631 134.906C350.576 134.906 349.662 134.738 348.891 134.403C348.12 134.068 347.516 133.593 347.08 132.978C346.644 132.358 346.403 131.624 346.357 130.775H348.492C348.533 131.284 348.698 131.709 348.987 132.048C349.281 132.384 349.655 132.634 350.11 132.799C350.569 132.96 351.071 133.04 351.618 133.04C352.219 133.04 352.754 132.946 353.222 132.758C353.695 132.565 354.067 132.299 354.337 131.959C354.608 131.615 354.744 131.213 354.744 130.754C354.744 130.336 354.624 129.994 354.386 129.728C354.152 129.462 353.833 129.241 353.429 129.067C353.029 128.893 352.577 128.739 352.072 128.606L350.406 128.151C349.277 127.844 348.381 127.391 347.72 126.795C347.064 126.198 346.736 125.408 346.736 124.426C346.736 123.613 346.956 122.904 347.397 122.298C347.837 121.692 348.434 121.222 349.187 120.887C349.94 120.547 350.789 120.377 351.735 120.377C352.69 120.377 353.532 120.545 354.262 120.88C354.996 121.215 355.575 121.676 355.997 122.264C356.419 122.847 356.64 123.517 356.658 124.275H354.606Z" fill="#5B55FD"/>
<rect x="164.348" y="103.98" width="107.648" height="46.3842" rx="5.34898" fill="#F2F1FF"/>
<path d="M198.721 134.672V120.57H207.466V122.402H200.849V126.698H206.839V128.523H200.849V134.672H198.721ZM209.785 134.672V124.095H211.775V125.776H211.885C212.078 125.206 212.417 124.759 212.904 124.433C213.395 124.102 213.951 123.937 214.57 123.937C214.699 123.937 214.85 123.942 215.025 123.951C215.204 123.96 215.344 123.972 215.445 123.985V125.955C215.362 125.932 215.215 125.906 215.004 125.879C214.793 125.847 214.582 125.831 214.371 125.831C213.884 125.831 213.45 125.934 213.069 126.141C212.693 126.343 212.394 126.625 212.174 126.987C211.954 127.346 211.844 127.754 211.844 128.213V134.672H209.785ZM221.406 134.885C220.364 134.885 219.467 134.663 218.714 134.217C217.965 133.768 217.387 133.136 216.978 132.324C216.575 131.507 216.373 130.55 216.373 129.453C216.373 128.369 216.575 127.414 216.978 126.588C217.387 125.762 217.956 125.117 218.686 124.653C219.421 124.19 220.279 123.958 221.261 123.958C221.858 123.958 222.437 124.056 222.997 124.254C223.557 124.451 224.059 124.761 224.505 125.183C224.95 125.606 225.301 126.154 225.558 126.829C225.815 127.499 225.944 128.314 225.944 129.274V130.003H217.536V128.461H223.926C223.926 127.919 223.816 127.44 223.596 127.022C223.375 126.6 223.065 126.267 222.666 126.023C222.271 125.78 221.808 125.659 221.275 125.659C220.697 125.659 220.192 125.801 219.76 126.085C219.333 126.365 219.003 126.733 218.769 127.187C218.539 127.637 218.424 128.126 218.424 128.654V129.859C218.424 130.566 218.548 131.167 218.796 131.663C219.049 132.159 219.4 132.537 219.85 132.799C220.3 133.056 220.825 133.185 221.427 133.185C221.817 133.185 222.173 133.129 222.494 133.019C222.815 132.905 223.093 132.735 223.327 132.51C223.561 132.285 223.74 132.007 223.864 131.677L225.813 132.028C225.657 132.602 225.377 133.104 224.973 133.536C224.573 133.963 224.071 134.295 223.465 134.534C222.863 134.768 222.177 134.885 221.406 134.885ZM232.786 134.885C231.744 134.885 230.847 134.663 230.094 134.217C229.346 133.768 228.767 133.136 228.359 132.324C227.955 131.507 227.753 130.55 227.753 129.453C227.753 128.369 227.955 127.414 228.359 126.588C228.767 125.762 229.337 125.117 230.066 124.653C230.801 124.19 231.659 123.958 232.642 123.958C233.238 123.958 233.817 124.056 234.377 124.254C234.937 124.451 235.44 124.761 235.885 125.183C236.33 125.606 236.681 126.154 236.938 126.829C237.195 127.499 237.324 128.314 237.324 129.274V130.003H228.917V128.461H235.306C235.306 127.919 235.196 127.44 234.976 127.022C234.756 126.6 234.446 126.267 234.046 126.023C233.652 125.78 233.188 125.659 232.655 125.659C232.077 125.659 231.572 125.801 231.141 126.085C230.714 126.365 230.383 126.733 230.149 127.187C229.92 127.637 229.805 128.126 229.805 128.654V129.859C229.805 130.566 229.929 131.167 230.177 131.663C230.429 132.159 230.78 132.537 231.23 132.799C231.68 133.056 232.206 133.185 232.807 133.185C233.197 133.185 233.553 133.129 233.874 133.019C234.196 132.905 234.473 132.735 234.707 132.51C234.941 132.285 235.121 132.007 235.244 131.677L237.193 132.028C237.037 132.602 236.757 133.104 236.353 133.536C235.954 133.963 235.451 134.295 234.845 134.534C234.244 134.768 233.557 134.885 232.786 134.885Z" fill="#5B55FD"/>
</svg>
