<svg version="1.1" viewBox="-5 -10 81.997 81.997" xmlns="http://www.w3.org/2000/svg" fill="currentColor">
<path d="m8.3594 41.595c1.2109 0.07813 3.6016 0.66016 5.0391 3.8594 0.21094 0.46875 0.75 0.69922 1.2383 0.53906 0.03906-0.01172 3.6016-1.2109 5.1211 0.96094 0.98828 1.4219 0.76172 2.5312-0.80078 3.7305-0.37891 0.28906-2.4297 1.6719-5.7812-0.16016-0.42969-0.23828-0.96875-0.12109-1.2695 0.26953-0.01953 0.01953-1.4883 1.9102-3.6094 1.9492 0-3.3086 0.03125-7.2305 0.05859-11.16zm-0.058 13.172c2.1797-0.01953 3.8281-1.3086 4.6406-2.1094 4.0508 1.8516 6.7383 0.03125 7.2812-0.39844 3.1992-2.4805 2.1211-5.1016 1.1797-6.4297-1.8086-2.6016-5.0195-2.2812-6.5586-1.9414-1.7695-3.2383-4.5703-4.1992-6.4688-4.2891m55.721 1.9383c-0.03125 2.9883-0.07031 5.6797-0.10938 8.0586-3.2891-0.17969-4.3281-1.9688-4.3711-2.0391-0.16016-0.30859-0.46875-0.51172-0.80859-0.53906-0.33984-0.03125-0.67969 0.12891-0.87891 0.41016-0.01953 0.03125-1.8516 2.4805-4.8203 1.8984-2.8398-0.55078-3.3984-2.6289-3.4219-2.7109-0.12109-0.53125-0.66016-0.87109-1.1914-0.75-0.76172 0.16016-3.0117 0.37891-4.2617-0.55859-0.58984-0.44922-0.91016-1.1289-0.96875-2.0781-0.05078-0.75 0.14062-1.3516 0.55859-1.8086 0.83984-0.91016 2.4805-1.1484 3.0391-1.1602 0.48047 0 0.89062-0.37109 0.96875-0.83984 0.01953-0.10156 0.42188-2.3711 2.6289-3.3594 2.8984-1.3086 5.0586 1.1484 5.1484 1.25 0.19922 0.23828 0.51172 0.37109 0.82031 0.35156s0.60156-0.17969 0.78125-0.44141c0.08984-0.14062 2.2695-3.3203 5.4414-1.7305 0.78906 0.39062 1.1016 0.67187 1.4805 1.0898 0 1.5781-0.01953 3.2383-0.03906 4.9609zm0.05078-7.5117c-0.17969-0.10938-0.37109-0.21094-0.58984-0.32812-3.1484-1.5703-5.8086-0.03125-7.2617 1.5-1.4297-1.1406-3.8906-2.1992-6.6406-0.96094-2.3008 1.0391-3.2305 3-3.5781 4.1016-0.96094 0.14062-2.6016 0.53906-3.6992 1.7305-0.80859 0.87109-1.1719 1.9805-1.1016 3.2891 0.08984 1.5508 0.69141 2.75 1.7617 3.5586 1.5898 1.1992 3.8281 1.1719 5.0312 1.0391 0.53125 1.0703 1.8008 2.7891 4.6484 3.3398 2.8203 0.55078 4.8711-0.78125 5.9492-1.7617 0.87109 0.85938 2.5195 1.9297 5.2812 2.0586-0.10938 5.4414 0.20265-19.64 0.19093-17.558z"/>
<path d="m22.832 21.131c2.8594 0 5.1914-2.3281 5.1914-5.1914 0-2.8594-2.3281-5.1914-5.1914-5.1914-2.8594 0-5.1914 2.3281-5.1914 5.1914 0 2.8594 2.3281 5.1914 5.1914 5.1914zm0-8.3789c1.7617 0 3.1914 1.4297 3.1914 3.1914s-1.4297 3.1914-3.1914 3.1914-3.1914-1.4297-3.1914-3.1914 1.4297-3.1914 3.1914-3.1914z"/>
<g stroke="currentColor">
<path d="m35.999-8.55a36.848 37.034 0 0 0-36.848 37.031v42.066h73.695v-42.066a36.848 37.034 0 0 0-36.848-37.031z" fill="none" stroke-width="2.3"/>
<path d="m35.999 0.20415a28.691 28.837 0 0 0-28.691 28.834v32.755h57.383v-32.755a28.691 28.837 0 0 0-28.691-28.834z" fill="none" stroke-width="2.8"/>
<line x1="35.999" x2="35.999" y1="-.22767" y2="62.225" stroke-width="2.0"/>
<line x1="6.8757" x2="65.122" y1="27.273" y2="27.273" stroke-width="2.0"/>
</g>
</svg>
