<?xml version="1.0" encoding="UTF-8" standalone="no"?>
<svg
   width="211.492"
   height="211.492"
   viewBox="0 0 46.998223 46.998223"
   fill="none"
   version="1.1"
   id="svg396"
   sodipodi:docname="no-padding-square.svg"
   inkscape:version="1.2.2 (b0a8486541, 2022-12-01)"
   xmlns:inkscape="http://www.inkscape.org/namespaces/inkscape"
   xmlns:sodipodi="http://sodipodi.sourceforge.net/DTD/sodipodi-0.dtd"
   xmlns="http://www.w3.org/2000/svg"
   xmlns:svg="http://www.w3.org/2000/svg">
  <sodipodi:namedview
     id="namedview398"
     pagecolor="#ffffff"
     bordercolor="#000000"
     borderopacity="0.25"
     inkscape:showpageshadow="2"
     inkscape:pageopacity="0.0"
     inkscape:pagecheckerboard="0"
     inkscape:deskcolor="#d1d1d1"
     showgrid="false"
     inkscape:zoom="0.99805176"
     inkscape:cx="180.35137"
     inkscape:cy="87.169828"
     inkscape:window-width="1366"
     inkscape:window-height="745"
     inkscape:window-x="0"
     inkscape:window-y="0"
     inkscape:window-maximized="1"
     inkscape:current-layer="svg396" />
  <g
     clip-path="url(#clip0_15_139)"
     id="g324"
     transform="translate(-0.50093634,-0.50091613)">
    <path
       d="M 3.26782,43.3293 C 1.46416,41.4081 0.883103,39.9914 1.94019,40.0907 c 1.05594,0.1005 3.28083,1.6735 5.0845,3.5948 1.80366,1.9212 2.38471,3.3379 1.32877,3.2386 C 7.29638,46.8236 5.07148,45.2505 3.26782,43.3293 Z"
       fill="#a6a6a6"
       id="path274" />
    <path
       fill-rule="evenodd"
       clip-rule="evenodd"
       d="M 9.3032,47.0814 C 9.06524,47.46 8.62646,47.5231 8.30003,47.4924 7.93268,47.4574 7.52097,47.3044 7.11242,47.1013 6.69373,46.8931 6.23458,46.6102 5.76115,46.2756 4.8141,45.6061 3.77818,44.7069 2.8517,43.72 1.9369,42.7455 1.2822,41.8495 1.00313,41.1688 0.87571,40.8581 0.758175,40.4325 0.926247,40.0533 0.992433,39.904 1.08497,39.7932 1.19181,39.7122 l 2.14131,-2.3511 8.10218,7.3793 z"
       fill="url(#paint0_linear_15_139)"
       id="path276"
       style="fill:url(#paint0_linear_15_139)" />
    <path
       d="M 5.50533,40.8727 C 3.70167,38.9514 3.12062,37.5348 4.17656,37.6352 c 1.05708,0.1005 3.28198,1.6724 5.08564,3.5936 1.8037,1.9224 2.3847,3.3391 1.3288,3.2386 C 9.53389,44.367 7.309,42.7951 5.50533,40.8727 Z"
       stroke="url(#paint1_linear_15_139)"
       stroke-width="1.14156"
       stroke-linecap="round"
       stroke-linejoin="round"
       id="path278"
       style="stroke:url(#paint1_linear_15_139)" />
    <path
       fill-rule="evenodd"
       clip-rule="evenodd"
       d="m 11.3021,43.8373 c -0.0696,0.1399 -0.2296,0.205 -0.486,0.1809 C 9.76012,43.9178 7.53522,42.3447 5.73156,40.4235 4.20753,38.8011 3.55611,37.5385 4.02682,37.2455 l 7.70958,-8.4643 7.258,6.6109 z"
       fill="url(#paint2_linear_15_139)"
       id="path280"
       style="fill:url(#paint2_linear_15_139)" />
    <path
       d="m 13.4874,31.9086 c 1.8037,1.9224 4.0285,3.4943 5.0845,3.5948 1.0571,0.1004 0.476,-1.3163 -1.3276,-3.2386 -1.8037,-1.9213 -4.0286,-3.4932 -5.0857,-3.5937 -1.0559,-0.1004 -0.4749,1.3163 1.3288,3.2375 z"
       fill="#a56c4a"
       id="path282" />
    <path
       fill-rule="evenodd"
       clip-rule="evenodd"
       d="m 19.4784,35.2855 c -0.1543,0.2625 -0.4572,0.3248 -0.7459,0.2977 l -3e-4,-10e-5 c -0.3158,-0.03 -0.69,-0.165 -1.087,-0.3624 -0.4021,-0.1999 -0.8484,-0.4744 -1.3136,-0.8032 -0.9304,-0.6577 -1.952,-1.5442 -2.8661,-2.5179 -0.9083,-0.9675 -1.5337,-1.8328 -1.7927,-2.4639 -0.1234,-0.3007 -0.1973,-0.6273 -0.0805,-0.8911 0.0464,-0.1047 0.1131,-0.1829 0.1929,-0.2396 l 2.1627,-2.3758 7.6819,6.993 z"
       fill="url(#paint3_linear_15_139)"
       id="path284"
       style="fill:url(#paint3_linear_15_139)" />
    <path
       d="m 15.911,29.2488 c 1.8036,1.9212 4.0285,3.4931 5.0856,3.5936 1.056,0.1004 0.4749,-1.3162 -1.3288,-3.2386 -1.8036,-1.9213 -4.0285,-3.4932 -5.0856,-3.5936 -1.0559,-0.1005 -0.4749,1.3162 1.3288,3.2386 z"
       fill="#9e9e9e"
       stroke="#9e9e9e"
       stroke-width="0.570779"
       stroke-linecap="round"
       stroke-linejoin="round"
       id="path286" />
    <path
       d="m 47.1546,24.16 v 0.1705 L 40.4042,23.6861 18.7079,0.629261 18.9326,0.500885 26.8899,3.44878 Z"
       fill="url(#paint4_linear_15_139)"
       id="path288"
       style="fill:url(#paint4_linear_15_139)" />
    <path
       d="m 35.8434,40.6427 -7.2153,0.8355 -0.0617,-0.0446 11.9024,-13.1212 0.0703,-10e-5 6.6181,0.5883 v 0.0902 z"
       fill="#b6b6b6"
       id="path290" />
    <path
       d="M 15.3841,0.98248 18.9321,0.500885 19.1955,0.804087 15.194,2.97237 Z"
       fill="#e5e5e5"
       id="path292" />
    <path
       d="m 3.45334,15.938 -9e-5,2.0079 21.62675,23.039 0.1036,0.019 V 38.5352 L 3.55469,15.8281 Z"
       fill="#8b8a8b"
       id="path294" />
    <path
       d="M 15.3848,0.977966 3.45325,14.0774 v 2.1073 L 15.386,3.10504 Z"
       fill="#e2e1e1"
       id="path296" />
    <path
       d="m 3.45325,15.9219 v 1.4765 l 0.63267,-0.7929 z"
       fill="#8b8a8b"
       id="path298" />
    <path
       d="m 15.3846,0.98248 3.548,-0.481595 -3.548,2.332205 z"
       fill="#e5e5e5"
       id="path300" />
    <path
       d="M 15.6016,2.70703 15.3951,2.83679 3.45203,15.9325 25.2535,39.1454 37.366,25.8627 Z"
       fill="url(#paint5_linear_15_139)"
       id="path302"
       style="fill:url(#paint5_linear_15_139)" />
    <path
       d="m 26.7705,17.5466 -4.8573,-3.4532 c -0.0799,-0.0559 -0.1861,-0.0468 -0.258,0.0228 l -4.4704,4.3665 c -0.105,0.1039 -0.0902,0.2854 0.0286,0.3642 l 1.3915,0.9178 c 0.1313,0.0867 0.1336,0.2899 0.0046,0.3835 l -1.9806,1.4487 c -0.1336,0.097 -0.1244,0.3128 0.0171,0.3915 l 0.9098,0.5114 c 0.1416,0.0788 0.1507,0.2934 0.0172,0.3916 l -3.1188,2.2683 c -0.1952,0.1415 -0.0673,0.4669 0.161,0.4109 l 0.1518,-0.0376 9.9156,-3.7261 c 0.1655,-0.0628 0.1963,-0.3025 0.0514,-0.4064 l -1.3893,-0.9931 c -0.1302,-0.0936 -0.121,-0.3048 0.0171,-0.3893 l 3.3927,-2.0822 c 0.1381,-0.0845 0.1473,-0.2957 0.016,-0.3893 z"
       fill="url(#paint6_linear_15_139)"
       id="path304"
       style="fill:url(#paint6_linear_15_139)" />
    <path
       d="M 28.6279,41.4783 25.08,40.9959 v -2.0544 l 0.0415,-0.0426 3.5634,2.532 z"
       fill="#939493"
       id="path306" />
    <path
       d="M 40.5594,23.5398 37.0115,25.872 15.3846,2.83309 18.9326,0.500885 Z"
       fill="url(#paint7_linear_15_139)"
       id="path308"
       style="fill:url(#paint7_linear_15_139)" />
    <path
       d="m 47.1531,28.9933 -6.6644,-0.6168 v -4.8391 l 6.6644,0.6157 z"
       fill="#f2f2f2"
       id="path310" />
    <path
       d="m 40.5547,28.375 -11.9268,13.1032 -3.5537,-2.5094 11.9727,-13.129 3.5078,2.4493 z"
       fill="#9b9b9b"
       id="path312" />
    <path
       d="M 40.5596,28.3789 V 23.5398 L 40.5312,23.5 l -3.5429,2.3359 0.0233,0.0361 z"
       fill="#a7a6a7"
       id="path314" />
    <path
       opacity="0.5"
       fill-rule="evenodd"
       clip-rule="evenodd"
       d="m 26.8705,17.7338 c 0,0.063 -0.0432,0.156 -0.097,0.189 l -3.4172,2.0917 c -0.009,0.0087 -0.021,0.0209 -0.0337,0.0353 -0.0289,0.0329 -0.0527,0.0677 -0.0618,0.0953 -0.0284,0.0861 -0.0019,0.183 0.039,0.2315 l 1.4056,1.0037 0.0056,0.0053 c 0.0129,0.0122 0.0393,0.0233 0.0506,0.0369 0.0157,0.0189 0.0704,0.0803 0.0665,0.1629 -0.0039,0.0826 -0.0345,0.1765 -0.1171,0.2076 l -9.9415,3.7343 c -0.059,0.0222 -0.1992,0.0704 -0.2539,0.043 -0.0547,-0.0273 -0.1289,-0.0547 -0.1289,-0.1094 L 24.5829,21.5854 C 24.5801,21.581 24.5762,21.5759 24.5718,21.5706 24.567,21.5649 24.5624,21.5599 24.559,21.5563 c 0,0 -1.4077,-1.0446 -1.4363,-1.0644 -0.0286,-0.0197 -0.0788,-0.0857 -0.0977,-0.1811 -0.0046,-0.0639 -0.0066,-0.1597 0.0189,-0.2372 0.0238,-0.0721 0.0723,-0.135 0.1074,-0.1748 0.0186,-0.0211 0.0359,-0.0385 0.0487,-0.0507 0.0064,-0.0061 0.0118,-0.0111 0.0156,-0.0146 l 0.0048,-0.0042 0.0014,-0.0013 8e-4,-6e-4 c 0.011,-0.0094 0.0234,-0.0165 0.0363,-0.021 l 3.5426,-2.1889 c 0.0537,-0.0331 0.069,0.0533 0.069,0.1163 z"
       fill="#ffffff"
       id="path316" />
    <path
       opacity="0.3"
       d="m 40.5884,28.2531 -3.4739,-2.438"
       stroke="#ffffff"
       stroke-width="0.228312"
       stroke-linecap="round"
       id="path318" />
    <path
       d="m 28.2045,10.4043 5.7967,12.296 3.0183,3.1747 3.5508,-2.3398 z"
       fill="url(#paint8_linear_15_139)"
       id="path320"
       style="fill:url(#paint8_linear_15_139)" />
    <path
       fill-rule="evenodd"
       clip-rule="evenodd"
       d="m 4.11721,37.1562 c 0,0.1993 0.01513,0.2401 0.07017,0.4448 0.0444,0.1651 0.13269,0.4168 0.30797,0.7483 0.35063,0.663 1.04993,1.646 2.44343,2.8923 1.39465,1.2474 2.47115,1.8906 3.19262,2.2217 0.3607,0.1655 0.6329,0.2531 0.812,0.2991 0.0896,0.023 0.156,0.0357 0.1986,0.0425 0.0696,0.0111 0.1227,0.0063 0.1845,0.0063 -0.0453,0.0755 -0.1715,0.2273 -0.2249,0.2829 -0.0534,0.0556 -0.1987,0.0152 -0.2578,0 C 10.6441,44.0428 10.3671,43.9483 9.98857,43.7746 9.23147,43.4272 8.12669,42.7635 6.71047,41.4969 5.29311,40.2292 4.56584,39.2151 4.19262,38.5094 4.00597,38.1564 3.90802,37.8809 3.85666,37.6899 3.83098,37.5944 3.82797,37.5716 3.82035,37.5195 3.80003,37.3804 3.99022,37.2292 4.11721,37.1562 Z"
       fill="#e4e4e4"
       id="path322" />
  </g>
  <defs
     id="defs394">
    <linearGradient
       id="paint0_linear_15_139"
       x1="1.70575"
       y1="39.239101"
       x2="9.71101"
       y2="46.570301"
       gradientUnits="userSpaceOnUse">
      <stop
         stop-color="#C4C4C4"
         id="stop326" />
      <stop
         offset="0.25"
         stop-color="#F8F8F8"
         id="stop328" />
      <stop
         offset="0.467629"
         stop-color="#A6A6A6"
         id="stop330" />
      <stop
         offset="0.68"
         stop-color="#B8B8B8"
         id="stop332" />
      <stop
         offset="1"
         stop-color="#A9AAA9"
         id="stop334" />
    </linearGradient>
    <linearGradient
       id="paint1_linear_15_139"
       x1="3.263"
       y1="37.517799"
       x2="11.083"
       y2="45.073299"
       gradientUnits="userSpaceOnUse">
      <stop
         stop-color="#C4C4C4"
         id="stop337" />
      <stop
         offset="0.257541"
         stop-color="#F8F8F8"
         id="stop339" />
      <stop
         offset="0.468637"
         stop-color="#A6A6A6"
         id="stop341" />
      <stop
         offset="0.679224"
         stop-color="#B8B8B8"
         id="stop343" />
      <stop
         offset="1"
         stop-color="#A9AAA9"
         id="stop345" />
    </linearGradient>
    <linearGradient
       id="paint2_linear_15_139"
       x1="8.1389999"
       y1="33.606098"
       x2="14.9884"
       y2="39.8848"
       gradientUnits="userSpaceOnUse">
      <stop
         stop-color="#A67333"
         id="stop348" />
      <stop
         offset="0.235"
         stop-color="#AE7C3F"
         id="stop350" />
      <stop
         offset="0.47"
         stop-color="#C6832F"
         id="stop352" />
      <stop
         offset="0.715"
         stop-color="#EF9F3D"
         id="stop354" />
      <stop
         offset="1"
         stop-color="#ED9C3A"
         id="stop356" />
    </linearGradient>
    <linearGradient
       id="paint3_linear_15_139"
       x1="11.5337"
       y1="28.447701"
       x2="18.2924"
       y2="35.589001"
       gradientUnits="userSpaceOnUse">
      <stop
         stop-color="#D5D5D4"
         id="stop359" />
      <stop
         offset="0.49"
         stop-color="#7D7E7C"
         id="stop361" />
      <stop
         offset="1"
         stop-color="#838283"
         id="stop363" />
    </linearGradient>
    <linearGradient
       id="paint4_linear_15_139"
       x1="24.691601"
       y1="0.500884"
       x2="45.810398"
       y2="24.4736"
       gradientUnits="userSpaceOnUse">
      <stop
         stop-color="#AFAFAF"
         id="stop366" />
      <stop
         offset="1"
         stop-color="#BFBEBF"
         id="stop368" />
    </linearGradient>
    <linearGradient
       id="paint5_linear_15_139"
       x1="16.7008"
       y1="5.6379399"
       x2="27.545601"
       y2="35.889198"
       gradientUnits="userSpaceOnUse">
      <stop
         stop-color="#BABAB9"
         id="stop371" />
      <stop
         offset="1"
         stop-color="#8F8F8F"
         id="stop373" />
    </linearGradient>
    <linearGradient
       id="paint6_linear_15_139"
       x1="26.403799"
       y1="17.624201"
       x2="13.8467"
       y2="22.761299"
       gradientUnits="userSpaceOnUse">
      <stop
         stop-color="#FBCC56"
         id="stop376" />
      <stop
         offset="1"
         stop-color="#FEAD01"
         id="stop378" />
    </linearGradient>
    <linearGradient
       id="paint7_linear_15_139"
       x1="18.413"
       y1="0.50088501"
       x2="38.390301"
       y2="23.332001"
       gradientUnits="userSpaceOnUse">
      <stop
         stop-color="#E4E3E4"
         id="stop381" />
      <stop
         offset="1"
         stop-color="#ADADAC"
         id="stop383" />
    </linearGradient>
    <linearGradient
       id="paint8_linear_15_139"
       x1="34.3964"
       y1="10.4043"
       x2="34.3964"
       y2="25.891399"
       gradientUnits="userSpaceOnUse">
      <stop
         stop-color="#C3C3C3"
         id="stop386" />
      <stop
         offset="1"
         stop-color="#AAAAA9"
         id="stop388" />
    </linearGradient>
    <clipPath
       id="clip0_15_139">
      <rect
         width="48"
         height="48"
         fill="#ffffff"
         id="rect391"
         x="0"
         y="0" />
    </clipPath>
  </defs>
</svg>
