<?xml version="1.0" encoding="UTF-8"?>
<svg width="300.79" height="300.79" fill="none" version="1.1" viewBox="0 0 46.998 46.998" xmlns="http://www.w3.org/2000/svg">
 <defs>
  <linearGradient id="paint0_linear_11_95" x1="1.7058" x2="9.711" y1="39.239" y2="46.57" gradientUnits="userSpaceOnUse">
   <stop stop-color="#C4C4C4" offset="0"/>
   <stop stop-color="#F8F8F8" offset=".25"/>
   <stop stop-color="#A6A6A6" offset=".46763"/>
   <stop stop-color="#B8B8B8" offset=".68"/>
   <stop stop-color="#A9AAA9" offset="1"/>
  </linearGradient>
  <linearGradient id="paint1_linear_11_95" x1="3.263" x2="11.083" y1="37.518" y2="45.073" gradientUnits="userSpaceOnUse">
   <stop stop-color="#C4C4C4" offset="0"/>
   <stop stop-color="#F8F8F8" offset=".25754"/>
   <stop stop-color="#A6A6A6" offset=".46864"/>
   <stop stop-color="#B8B8B8" offset=".67922"/>
   <stop stop-color="#A9AAA9" offset="1"/>
  </linearGradient>
  <linearGradient id="paint2_linear_11_95" x1="8.139" x2="14.988" y1="33.606" y2="39.885" gradientUnits="userSpaceOnUse">
   <stop stop-color="#A67333" offset="0"/>
   <stop stop-color="#AE7C3F" offset=".235"/>
   <stop stop-color="#C6832F" offset=".47"/>
   <stop stop-color="#EF9F3D" offset=".715"/>
   <stop stop-color="#ED9C3A" offset="1"/>
  </linearGradient>
  <linearGradient id="paint3_linear_11_95" x1="11.534" x2="18.292" y1="28.448" y2="35.589" gradientUnits="userSpaceOnUse">
   <stop stop-color="#D5D5D4" offset="0"/>
   <stop stop-color="#7D7E7C" offset=".49"/>
   <stop stop-color="#838283" offset="1"/>
  </linearGradient>
  <linearGradient id="paint4_linear_11_95" x1="24.692" x2="45.81" y1=".50089" y2="24.474" gradientUnits="userSpaceOnUse">
   <stop stop-color="#AFAFAF" offset="0"/>
   <stop stop-color="#BFBEBF" offset="1"/>
  </linearGradient>
  <linearGradient id="paint5_linear_11_95" x1="16.701" x2="27.546" y1="5.6379" y2="35.889" gradientUnits="userSpaceOnUse">
   <stop stop-color="#BABAB9" offset="0"/>
   <stop stop-color="#8F8F8F" offset="1"/>
  </linearGradient>
  <linearGradient id="paint6_linear_11_95" x1="26.404" x2="13.847" y1="17.624" y2="22.761" gradientUnits="userSpaceOnUse">
   <stop stop-color="#FBCC56" offset="0"/>
   <stop stop-color="#FEAD01" offset="1"/>
  </linearGradient>
  <linearGradient id="paint7_linear_11_95" x1="18.413" x2="38.39" y1=".50089" y2="23.332" gradientUnits="userSpaceOnUse">
   <stop stop-color="#E4E3E4" offset="0"/>
   <stop stop-color="#ADADAC" offset="1"/>
  </linearGradient>
  <linearGradient id="paint8_linear_11_95" x1="34.396" x2="34.396" y1="10.404" y2="25.891" gradientUnits="userSpaceOnUse">
   <stop stop-color="#C3C3C3" offset="0"/>
   <stop stop-color="#AAAAA9" offset="1"/>
  </linearGradient>
  <clipPath id="clipPath582">
   <rect width="48" height="48" fill="#fff"/>
  </clipPath>
  <clipPath id="clipPath588">
   <rect width="48" height="48" fill="#fff"/>
  </clipPath>
  <clipPath id="clipPath594">
   <rect width="48" height="48" fill="#fff"/>
  </clipPath>
  <clipPath id="clipPath600">
   <rect width="48" height="48" fill="#fff"/>
  </clipPath>
  <clipPath id="clipPath606">
   <rect width="48" height="48" fill="#fff"/>
  </clipPath>
  <clipPath id="clipPath612">
   <rect width="48" height="48" fill="#fff"/>
  </clipPath>
  <clipPath id="clipPath618">
   <rect width="48" height="48" fill="#fff"/>
  </clipPath>
  <clipPath id="clipPath624">
   <rect width="48" height="48" fill="#fff"/>
  </clipPath>
  <clipPath id="clipPath630">
   <rect width="48" height="48" fill="#fff"/>
  </clipPath>
  <clipPath id="clipPath636">
   <rect width="48" height="48" fill="#fff"/>
  </clipPath>
  <clipPath id="clipPath642">
   <rect width="48" height="48" fill="#fff"/>
  </clipPath>
  <clipPath id="clipPath648">
   <rect width="48" height="48" fill="#fff"/>
  </clipPath>
  <clipPath id="clipPath654">
   <rect width="48" height="48" fill="#fff"/>
  </clipPath>
  <clipPath id="clipPath660">
   <rect width="48" height="48" fill="#fff"/>
  </clipPath>
  <clipPath id="clipPath666">
   <rect width="48" height="48" fill="#fff"/>
  </clipPath>
  <clipPath id="clipPath672">
   <rect width="48" height="48" fill="#fff"/>
  </clipPath>
  <clipPath id="clipPath678">
   <rect width="48" height="48" fill="#fff"/>
  </clipPath>
  <clipPath id="clipPath684">
   <rect width="48" height="48" fill="#fff"/>
  </clipPath>
  <clipPath id="clipPath690">
   <rect width="48" height="48" fill="#fff"/>
  </clipPath>
  <clipPath id="clipPath696">
   <rect width="48" height="48" fill="#fff"/>
  </clipPath>
  <clipPath id="clipPath702">
   <rect width="48" height="48" fill="#fff"/>
  </clipPath>
  <clipPath id="clipPath708">
   <rect width="48" height="48" fill="#fff"/>
  </clipPath>
  <clipPath id="clipPath714">
   <rect width="48" height="48" fill="#fff"/>
  </clipPath>
 </defs>
 <g transform="translate(.34199)">
  <path transform="translate(-.8429 -.50088)" d="m3.2678 43.329c-1.8037-1.9212-2.3847-3.3379-1.3276-3.2386 1.0559 0.1005 3.2808 1.6735 5.0845 3.5948 1.8037 1.9212 2.3847 3.3379 1.3288 3.2386-1.0571-0.1005-3.282-1.6736-5.0856-3.5948z" clip-path="url(#clipPath714)" fill="#a6a6a6"/>
  <path transform="translate(-.8429 -.50088)" d="m9.3032 47.081c-0.23796 0.3786-0.67674 0.4417-1.0032 0.411-0.36735-0.035-0.77906-0.188-1.1876-0.3911-0.41869-0.2082-0.87784-0.4911-1.3513-0.8257-0.94705-0.6695-1.983-1.5687-2.9094-2.5556-0.9148-0.9745-1.5695-1.8705-1.8486-2.5512-0.12742-0.3107-0.24496-0.7363-0.076883-1.1155 0.066186-0.1493 0.15872-0.2601 0.26556-0.3411l2.1413-2.3511 8.1022 7.3793z" clip-path="url(#clipPath708)" clip-rule="evenodd" fill="url(#paint0_linear_11_95)" fill-rule="evenodd"/>
  <path transform="translate(-.8429 -.50088)" d="m5.5053 40.873c-1.8037-1.9213-2.3847-3.3379-1.3288-3.2375 1.0571 0.1005 3.282 1.6724 5.0856 3.5936 1.8037 1.9224 2.3847 3.3391 1.3288 3.2386-1.0571-0.1004-3.282-1.6723-5.0857-3.5947z" clip-path="url(#clipPath702)" stroke="url(#paint1_linear_11_95)" stroke-linecap="round" stroke-linejoin="round" stroke-width="1.1416"/>
  <path transform="translate(-.8429 -.50088)" d="m11.302 43.837c-0.0696 0.1399-0.2296 0.205-0.486 0.1809-1.056-0.1004-3.2809-1.6735-5.0845-3.5947-1.524-1.6224-2.1754-2.885-1.7047-3.178l7.7096-8.4643 7.258 6.6109z" clip-path="url(#clipPath696)" clip-rule="evenodd" fill="url(#paint2_linear_11_95)" fill-rule="evenodd"/>
  <path transform="translate(-.8429 -.50088)" d="m13.487 31.909c1.8037 1.9224 4.0285 3.4943 5.0845 3.5948 1.0571 0.1004 0.476-1.3163-1.3276-3.2386-1.8037-1.9213-4.0286-3.4932-5.0857-3.5937-1.0559-0.1004-0.4749 1.3163 1.3288 3.2375z" clip-path="url(#clipPath690)" fill="#a56c4a"/>
  <path transform="translate(-.8429 -.50088)" d="m19.478 35.286c-0.1543 0.2625-0.4572 0.3248-0.7459 0.2977l-3e-4 -1e-4c-0.3158-0.03-0.69-0.165-1.087-0.3624-0.4021-0.1999-0.8484-0.4744-1.3136-0.8032-0.9304-0.6577-1.952-1.5442-2.8661-2.5179-0.9083-0.9675-1.5337-1.8328-1.7927-2.4639-0.1234-0.3007-0.1973-0.6273-0.0805-0.8911 0.0464-0.1047 0.1131-0.1829 0.1929-0.2396l2.1627-2.3758 7.6819 6.993z" clip-path="url(#clipPath684)" clip-rule="evenodd" fill="url(#paint3_linear_11_95)" fill-rule="evenodd"/>
  <path transform="translate(-.8429 -.50088)" d="m15.911 29.249c1.8036 1.9212 4.0285 3.4931 5.0856 3.5936 1.056 0.1004 0.4749-1.3162-1.3288-3.2386-1.8036-1.9213-4.0285-3.4932-5.0856-3.5936-1.0559-0.1005-0.4749 1.3162 1.3288 3.2386z" clip-path="url(#clipPath678)" fill="#9e9e9e" stroke="#9e9e9e" stroke-linecap="round" stroke-linejoin="round" stroke-width=".57078"/>
  <path transform="translate(-.8429 -.50088)" d="m47.155 24.16-6.5952-0.6202-21.627-23.039 7.9573 2.9479z" clip-path="url(#clipPath672)" fill="url(#paint4_linear_11_95)"/>
  <path transform="translate(-.8429 -.50088)" d="m15.385 0.97797-11.932 13.099-0.00123 1.8551 11.933-13.099z" clip-path="url(#clipPath666)" fill="#e2e1e1"/>
  <path transform="translate(-.8429 -.50088)" d="m35.843 40.643-7.2153 0.8356 11.932-13.099 6.5976 0.6119z" clip-path="url(#clipPath660)" fill="#b6b6b6"/>
  <path transform="translate(-.8429 -.50088)" d="m15.385 0.98248 3.548-0.4816-3.548 2.3322z" clip-path="url(#clipPath654)" fill="#e5e5e5"/>
  <path transform="translate(-.8429 -.50088)" d="m3.452 15.932 0.00121 2.0135 21.627 23.039-1e-4 -2.0135z" clip-path="url(#clipPath648)" fill="#8b8a8b"/>
  <path transform="translate(-.8429 -.50088)" d="m15.385 2.8331-11.933 13.099 21.628 23.039 11.932-13.099z" clip-path="url(#clipPath642)" fill="url(#paint5_linear_11_95)"/>
  <path transform="translate(-.8429 -.50088)" d="m26.77 17.547-4.8573-3.4532c-0.0799-0.0559-0.1861-0.0468-0.258 0.0228l-4.4704 4.3665c-0.105 0.1039-0.0902 0.2854 0.0286 0.3642l1.3915 0.9178c0.1313 0.0867 0.1336 0.2899 0.0046 0.3835l-1.9806 1.4487c-0.1336 0.097-0.1244 0.3128 0.0171 0.3915l0.9098 0.5114c0.1416 0.0788 0.1507 0.2934 0.0172 0.3916l-3.1188 2.2683c-0.1952 0.1415-0.0673 0.4669 0.161 0.4109l0.1518-0.0376 9.9156-3.7261c0.1655-0.0628 0.1963-0.3025 0.0514-0.4064l-1.3893-0.9931c-0.1302-0.0936-0.121-0.3048 0.0171-0.3893l3.3927-2.0822c0.1381-0.0845 0.1473-0.2957 0.016-0.3893z" clip-path="url(#clipPath636)" fill="url(#paint6_linear_11_95)"/>
  <path transform="translate(-.8429 -.50088)" d="m28.628 41.478-3.548-0.4823 1e-4 -2.0246z" clip-path="url(#clipPath630)" fill="#939493"/>
  <path transform="translate(-.8429 -.50088)" d="m40.559 23.54-3.5479 2.3322-21.627-23.039 3.548-2.3322z" clip-path="url(#clipPath624)" fill="url(#paint7_linear_11_95)"/>
  <path transform="translate(-.8429 -.50088)" d="m40.56 28.379-11.932 13.099-3.5479-2.5069 11.932-13.099z" clip-path="url(#clipPath618)" fill="#9b9b9b"/>
  <path transform="translate(-.8429 -.50088)" d="m40.56 28.379v-4.8391l-3.548 2.3322z" clip-path="url(#clipPath612)" fill="#a7a6a7"/>
  <path transform="translate(-.8429 -.50088)" d="m26.87 17.734c0 0.063-0.0432 0.156-0.097 0.189l-3.4172 2.0917c-9e-3 0.0087-0.021 0.0209-0.0337 0.0353-0.0289 0.0329-0.0527 0.0677-0.0618 0.0953-0.0284 0.0861-0.0019 0.183 0.039 0.2315l1.4056 1.0037 0.0056 0.0053c0.0129 0.0122 0.0393 0.0233 0.0506 0.0369 0.0157 0.0189 0.0704 0.0803 0.0665 0.1629s-0.0345 0.1765-0.1171 0.2076l-9.9415 3.7343c-0.059 0.0222-0.1992 0.0704-0.2539 0.043-0.0547-0.0273-0.1289-0.0547-0.1289-0.1094l10.196-3.8755c-0.0028-0.0044-0.0067-0.0095-0.0111-0.0148-0.0048-0.0057-0.0094-0.0107-0.0128-0.0143 0 0-1.4077-1.0446-1.4363-1.0644-0.0286-0.0197-0.0788-0.0857-0.0977-0.1811-0.0046-0.0639-0.0066-0.1597 0.0189-0.2372 0.0238-0.0721 0.0723-0.135 0.1074-0.1748 0.0186-0.0211 0.0359-0.0385 0.0487-0.0507 0.0064-0.0061 0.0118-0.0111 0.0156-0.0146l0.0048-0.0042 0.0014-0.0013 8e-4 -6e-4c0.011-0.0094 0.0234-0.0165 0.0363-0.021l3.5426-2.1889c0.0537-0.0331 0.069 0.0533 0.069 0.1163z" clip-path="url(#clipPath606)" clip-rule="evenodd" fill="#fff" fill-rule="evenodd" opacity=".5"/>
  <path transform="translate(-.8429 -.50088)" d="m40.588 28.253-3.4739-2.438" clip-path="url(#clipPath600)" opacity=".3" stroke="#fff" stroke-linecap="round" stroke-width=".22831"/>
  <path transform="translate(-.8429 -.50088)" d="m47.153 28.993-6.5938-0.6144v-4.8391l6.5938 0.6133z" clip-path="url(#clipPath594)" fill="#f2f2f2"/>
  <path transform="translate(-.8429 -.50088)" d="m28.204 10.404 5.7967 12.296 3.0183 3.1747 3.5688-2.3257z" clip-path="url(#clipPath588)" fill="url(#paint8_linear_11_95)"/>
  <path transform="translate(-.8429 -.50088)" d="m4.1172 37.156c0 0.1993 0.01513 0.2401 0.07017 0.4448 0.0444 0.1651 0.13269 0.4168 0.30797 0.7483 0.35063 0.663 1.0499 1.646 2.4434 2.8923 1.3946 1.2474 2.4712 1.8906 3.1926 2.2217 0.3607 0.1655 0.6329 0.2531 0.812 0.2991 0.0896 0.023 0.156 0.0357 0.1986 0.0425 0.0696 0.0111 0.1227 0.0063 0.1845 0.0063-0.0453 0.0755-0.1715 0.2273-0.2249 0.2829s-0.1987 0.0152-0.2578 0c-0.1997-0.0513-0.4767-0.1458-0.85523-0.3195-0.7571-0.3474-1.8619-1.0111-3.2781-2.2777-1.4174-1.2677-2.1446-2.2818-2.5178-2.9875-0.18665-0.353-0.2846-0.6285-0.33596-0.8195-0.02568-0.0955-0.02869-0.1183-0.03631-0.1704-0.02032-0.1391 0.16987-0.2903 0.29686-0.3633z" clip-path="url(#clipPath582)" clip-rule="evenodd" fill="#e4e4e4" fill-rule="evenodd"/>
 </g>
</svg>
