<?xml version="1.0" encoding="UTF-8" standalone="no"?>
<svg
   width="168.23703"
   height="191.60139"
   viewBox="0 0 168.23703 191.60139"
   version="1.1"
   id="svg53"
   sodipodi:docname="wired-outline-1827-growing-plant-hover-pinch.svg"
   inkscape:version="1.2.2 (b0a8486541, 2022-12-01)"
   xmlns:inkscape="http://www.inkscape.org/namespaces/inkscape"
   xmlns:sodipodi="http://sodipodi.sourceforge.net/DTD/sodipodi-0.dtd"
   xmlns:xlink="http://www.w3.org/1999/xlink"
   xmlns="http://www.w3.org/2000/svg"
   xmlns:svg="http://www.w3.org/2000/svg">
  <sodipodi:namedview
     id="namedview55"
     pagecolor="#ffffff"
     bordercolor="#000000"
     borderopacity="0.25"
     inkscape:showpageshadow="2"
     inkscape:pageopacity="0.0"
     inkscape:pagecheckerboard="0"
     inkscape:deskcolor="#d1d1d1"
     showgrid="false"
     inkscape:zoom="1.3139535"
     inkscape:cx="73.061947"
     inkscape:cy="101.22124"
     inkscape:window-width="1366"
     inkscape:window-height="745"
     inkscape:window-x="0"
     inkscape:window-y="0"
     inkscape:window-maximized="1"
     inkscape:current-layer="svg53" />
  <g
     mask="url(#e)"
     style="display:none"
     id="g25"
     clip-path="url(#clipPath306)"
     transform="translate(-141.71054,-114.41023)">
    <path
       fill="none"
       stroke="#07a889"
       stroke-linecap="round"
       stroke-linejoin="round"
       stroke-width="12.04"
       d="m 332.626,169.941 c -24.369,27.555 -56.811,41.102 -82.542,37.03 -7.188,-25.04 2.291,-58.895 26.66,-86.45 24.369,-27.556 56.811,-41.102 82.542,-37.03 7.188,25.04 -2.291,58.894 -26.66,86.45"
       class="secondary"
       id="path23" />
  </g>
  <path
     fill="none"
     stroke="#07a889"
     stroke-linecap="round"
     stroke-linejoin="round"
     stroke-width="12.04"
     d="m 164.522,161.845 c 20.119,17.793 30.009,41.48 27.036,60.267 -18.283,5.248 -43,-1.672 -63.119,-19.465 -20.119,-17.793 -30.01,-41.48 -27.037,-60.267 18.283,-5.248 43.001,1.672 63.12,19.465"
     class="secondary"
     style="display:none"
     id="path27"
     clip-path="url(#clipPath298)"
     transform="translate(-141.71054,-114.41023)" />
  <path
     fill="none"
     stroke="#07a889"
     stroke-linecap="round"
     stroke-linejoin="round"
     stroke-width="12.04"
     d="m 153.486,187.285 c 16.896,9.023 52.082,38.943 60.918,87.07 1.673,9.113 2.099,17.735 1.769,25.645 -0.984,-10.773 -1.434,-31.96 8.536,-55.633 4.167,-9.894 9.323,-17.426 25.375,-37.395 11.157,-13.879 26.676,-32.569 46.26,-54.292"
     class="secondary"
     style="display:none"
     id="path29"
     clip-path="url(#clipPath290)"
     transform="translate(-141.71054,-114.41023)" />
  <path
     fill="none"
     class="primary"
     style="display:none"
     id="path31"
     d="" />
  <g
     id="g317"
     transform="translate(-141.71054,-114.41023)">
    <path
       fill="none"
       stroke="#07a889"
       stroke-linecap="round"
       stroke-linejoin="round"
       stroke-width="12.04"
       d="m 290.80655,187.97032 c -14.2705,23.68562 -36.4144,38.11254 -55.99202,38.60044 -8.71846,-17.53636 -6.31292,-43.85547 7.95758,-67.54109 14.26952,-23.68543 36.4136,-38.11137 55.99221,-38.59945 8.71827,17.53538 6.31256,43.85351 -7.95777,67.5401"
       class="secondary"
       style="display:block"
       id="path33"
       clip-path="url(#clipPath282)" />
    <path
       fill="none"
       stroke="#07a889"
       stroke-linecap="round"
       stroke-linejoin="round"
       stroke-width="12.04"
       d="m 193.49471,190.20166 c 11.93257,16.35902 15.37856,35.40174 10.14642,48.75352 -14.31201,0.90281 -31.39062,-8.19408 -43.32297,-24.55408 -11.93257,-16.35902 -15.37954,-35.40196 -10.14642,-48.75353 14.31201,-0.9028 31.3916,8.19431 43.32395,24.5543"
       class="secondary"
       style="display:block"
       id="path35"
       clip-path="url(#clipPath274)" />
    <path
       fill="none"
       stroke="#07a889"
       stroke-linecap="round"
       stroke-linejoin="round"
       stroke-width="12.04"
       d="m 178.215,206.47 c 15.099,15.2 30.71,38.042 36.189,67.885 1.673,9.113 2.099,17.735 1.769,25.645 -0.984,-10.773 -1.434,-31.96 8.536,-55.633 4.167,-9.894 9.323,-17.426 25.375,-37.395 a 1235,1235 0 0 1 16.586,-20.19"
       class="secondary"
       style="display:block"
       id="path37"
       clip-path="url(#clipPath266)" />
  </g>
  <path
     fill="none"
     class="primary"
     style="display:none"
     id="path41"
     d="" />
  <path
     fill="none"
     class="primary"
     style="display:none"
     id="path43"
     d="" />
  <path
     fill="none"
     class="primary"
     style="display:none"
     id="path45"
     d="" />
  <path
     fill="none"
     class="primary"
     style="display:none"
     id="path47"
     d="" />
</svg>
