<svg class="hammer" width="37.072" height="54.389" version="1.1" viewBox="-50 -50 37.072 54.389" xmlns="http://www.w3.org/2000/svg">
 <g transform="translate(-31.464,-27.668)">
  <g stroke-linecap="round" stroke-linejoin="round">
   <path d="m-16.033-3.64 2.963 3.037 0.469-3.427z" fill="#b5b5b5"/>
   <path d="m-16.033-19.443v15.803l3.432-0.39v-15.803z" fill="#949494"/>
   <path d="m16.042-19.123v15.803l-28.643-0.71v-15.803z" fill="#757575"/>
   <path d="m-0.645-18.017 5.38 1.188c0.088 0.019 0.154 0.096 0.159 0.186 0 0 0.331 5.597 0.331 5.597 8e-3 0.132-0.113 0.231-0.242 0.198l-1.497-0.383c-0.14-0.035-0.267 0.085-0.238 0.227l0.445 2.19c0.03 0.147-0.108 0.269-0.251 0.222l-0.925-0.304c-0.144-0.047-0.281 0.075-0.251 0.223l0.707 3.44c0.044 0.215-0.241 0.325-0.359 0.138l-0.08-0.124s-4.383-8.857-4.383-8.857c-0.074-0.148 0.053-0.312 0.214-0.277 0 0 1.542 0.336 1.542 0.336 0.144 0.031 0.268-0.101 0.227-0.244l-1.006-3.513c-0.041-0.143 0.082-0.275 0.227-0.243z" fill="#f7bc26" stroke="#f7bc26" stroke-width=".6"/>
   <path d="m16.042-3.32-0.469 3.426-28.643-0.709 0.469-3.427z" fill="#949494"/>
   <path d="m-16.033-19.443 2.963-2.889 0.469 2.499z" fill="#b5b5b5"/>
   <path d="m18.536-2.783-2.963 2.889 0.469-3.426z" fill="#b5b5b5"/>
   <path d="m-13.07-22.332 0.469 2.499 28.643 0.71-0.469-2.5z" fill="#949494"/>
   <path d="m18.536-18.586v15.803l-2.494-0.537v-15.803z" fill="#949494"/>
  </g>
  <g stroke="#707070">
   <path d="m0 27.952v2.963" stroke-width="9.2"/>
   <path d="m-0.641 31.548c-2.278-0.056-3.769-0.377-3.409-0.734 0.361-0.356 2.414-0.589 4.691-0.533 2.278 0.057 3.769 0.378 3.409 0.734-0.361 0.356-2.414 0.59-4.691 0.533" fill="#707070" stroke-linecap="round" stroke-linejoin="round"/>
   <path d="m-0.641 28.585c2.277 0.057 4.33-0.177 4.691-0.533 0.36-0.356-1.131-0.677-3.409-0.734-2.277-0.056-4.33 0.177-4.691 0.533-0.36 0.357 1.131 0.678 3.409 0.734" fill="#707070" stroke-linecap="round" stroke-linejoin="round"/>
  </g>
  <g stroke="#787878">
   <path d="m0 26.223v0.988" stroke-width="8.7"/>
   <path d="m-0.641 27.844c-2.278-0.056-3.769-0.377-3.409-0.734 0.361-0.356 2.414-0.589 4.691-0.533 2.278 0.057 3.769 0.378 3.409 0.734-0.361 0.356-2.414 0.59-4.691 0.533" fill="#787878" stroke-linecap="round" stroke-linejoin="round" stroke-width=".5"/>
   <path d="m-0.641 26.857c2.277 0.056 4.33-0.177 4.691-0.534 0.36-0.356-1.131-0.677-3.409-0.733-2.277-0.057-4.33 0.176-4.691 0.533-0.36 0.356 1.131 0.677 3.409 0.734" fill="#787878" stroke-linecap="round" stroke-linejoin="round" stroke-width=".5"/>
  </g>
  <path d="m18.536-18.586-2.963-3.037 0.469 2.5z" fill="#b5b5b5" stroke-linecap="round" stroke-linejoin="round"/>
  <path d="m0 4.445v21.531" stroke="#91512b" stroke-width="8.2"/>
  <g stroke-linecap="round" stroke-linejoin="round">
   <path d="m-0.641 26.61c-2.278-0.057-3.769-0.378-3.409-0.734 0.361-0.356 2.414-0.59 4.691-0.533 2.278 0.056 3.769 0.377 3.409 0.734-0.361 0.356-2.414 0.589-4.691 0.533" fill="#91512b"/>
   <path d="m-0.641 5.078c2.277 0.057 4.33-0.177 4.691-0.533 0.36-0.356-1.131-0.677-3.409-0.734-2.277-0.056-4.33 0.177-4.691 0.533-0.36 0.357 1.131 0.678 3.409 0.734" fill="#91512b"/>
   <path d="m-18.536-1.168 2.503-2.472 2.963 3.037-2.503 2.472z" fill="#949494"/>
   <path d="m-18.536-1.168 2.503-2.472v-15.803l-2.503 2.472z" fill="#757575"/>
  </g>
  <g stroke="#787878">
   <path d="m0 1.235v2.963" stroke-width="8.7"/>
   <path d="m-0.641 4.831c-2.278-0.056-3.769-0.377-3.409-0.734 0.361-0.356 2.414-0.589 4.691-0.533 2.278 0.057 3.769 0.378 3.409 0.734-0.361 0.356-2.414 0.59-4.691 0.533" fill="#787878" stroke-linecap="round" stroke-linejoin="round" stroke-width=".5"/>
   <path d="m-0.641 1.868c2.277 0.057 4.33-0.177 4.691-0.533 0.36-0.356-1.131-0.677-3.409-0.734-2.277-0.056-4.33 0.177-4.691 0.533-0.36 0.357 1.131 0.678 3.409 0.734" fill="#787878" stroke-linecap="round" stroke-linejoin="round" stroke-width=".5"/>
  </g>
  <g stroke-linecap="round" stroke-linejoin="round">
   <path d="m15.573 0.106-2.503 2.473-28.643-0.71 2.503-2.472z" fill="#757575"/>
   <path d="m-18.536-16.971 2.503-2.472 2.963-2.889-2.503 2.472z" fill="#949494"/>
   <path d="m18.536-2.783-2.503 2.472-2.963 2.89 2.503-2.473z" fill="#949494"/>
   <path d="m15.573-21.623-2.503 2.472-28.643-0.709 2.503-2.472z" fill="#757575"/>
   <path d="m18.536-2.783-2.503 2.472v-15.803l2.503-2.472z" fill="#757575"/>
   <path d="m18.536-18.586-2.503 2.472-2.963-3.037 2.503-2.472z" fill="#949494"/>
   <path d="m-18.536-1.168 2.963 3.037-0.469-2.5z" fill="#b5b5b5"/>
   <path d="m-18.536-16.971v15.803l2.494 0.537v-15.803z" fill="#949494"/>
   <path d="m-16.042-0.631 0.469 2.5 28.643 0.71-0.469-2.5z" fill="#949494"/>
   <path d="m-18.536-16.971 2.963-2.889-0.469 3.426z" fill="#b5b5b5"/>
   <path d="m16.033-0.311-2.963 2.89-0.469-2.5z" fill="#b5b5b5"/>
   <path d="m13.07-19.151-0.469 3.427-28.643-0.71 0.469-3.426z" fill="#949494"/>
   <path d="m-16.042-16.434v15.803l28.643 0.71v-15.803z" fill="#757575"/>
   <path d="m0.645-14.453s-5.38 0.921-5.38 0.921c-0.088 0.015-0.154 0.089-0.159 0.178 0 0-0.331 5.581-0.331 5.581-8e-3 0.131 0.113 0.237 0.242 0.21l1.497-0.308c0.14-0.029 0.267 0.097 0.238 0.238l-0.445 2.167c-0.03 0.146 0.108 0.275 0.251 0.235l0.925-0.258c0.144-0.04 0.281 0.089 0.251 0.235l-0.707 3.405c-0.044 0.213 0.241 0.337 0.359 0.157l0.08-0.121s4.383-8.639 4.383-8.639c0.074-0.145-0.053-0.315-0.214-0.288 0 0-1.542 0.259-1.542 0.259-0.144 0.024-0.268-0.113-0.227-0.254l1.006-3.463c0.041-0.141-0.082-0.28-0.227-0.255z" fill="#f7bc26" stroke="#f7bc26" stroke-width=".6"/>
   <path d="m16.033-16.114v15.803l-3.432 0.39v-15.803z" fill="#949494"/>
   <path d="m16.033-16.114-2.963-3.037-0.469 3.427z" fill="#b5b5b5"/>
  </g>
 </g>
</svg>
