<svg class="hammer" width="37.072" height="54.389" version="1.1" viewBox="-50 -50 37.072 54.389" xmlns="http://www.w3.org/2000/svg">
 <g transform="translate(-31.464,-27.668)">
  <g stroke-linecap="round" stroke-linejoin="round">
   <path d="m-16.033-3.64 2.963 3.037.469-3.427z" fill="#ababab"/>
   <path d="m-16.033-19.443v15.803l3.432-.39v-15.803z" fill="#949494"/>
   <path d="m16.042-19.123v15.803l-28.643-.71v-15.803z" fill="#757575"/>
   <path d="m-.645-18.017 5.38 1.188c.088.019.154.096.159.186 0 0 .331 5.597.331 5.597.008.132-.113.231-.242.198l-1.497-.383c-.14-.035-.267.085-.238.227l.445 2.19c.03.147-.108.269-.251.222l-.925-.304c-.144-.047-.281.075-.251.223l.707 3.44c.044.215-.241.325-.359.138l-.08-.124s-4.383-8.857-4.383-8.857c-.074-.148.053-.312.214-.277 0 0 1.542.336 1.542.336.144.031.268-.101.227-.244l-1.006-3.513c-.041-.143.082-.275.227-.243z" fill="#fbbf28" stroke="#fbbf28" stroke-width=".6"/>
   <path d="m16.042-3.32-.469 3.426-28.643-.709.469-3.427z" fill="#949494"/>
   <path d="m-16.033-19.443 2.963-2.889.469 2.499z" fill="#ababab"/>
   <path d="m18.536-2.783-2.963 2.889.469-3.426z" fill="#ababab"/>
   <path d="m-13.07-22.332.469 2.499 28.643.71-.469-2.5z" fill="#949494"/>
   <path d="m18.536-18.586v15.803l-2.494-.537v-15.803z" fill="#949494"/>
  </g>
  <g stroke="#828282">
   <path d="m0 27.952v2.963" stroke-width="9.2"/>
   <path d="m-.641 31.548c-2.278-.056-3.769-.377-3.409-.734.361-.356 2.414-.589 4.691-.533 2.278.057 3.769.378 3.409.734-.361.356-2.414.59-4.691.533" fill="#828282" stroke-linecap="round" stroke-linejoin="round"/>
   <path d="m-.641 28.585c2.277.057 4.33-.177 4.691-.533.36-.356-1.131-.677-3.409-.734-2.277-.056-4.33.177-4.691.533-.36.357 1.131.678 3.409.734" fill="#828282" stroke-linecap="round" stroke-linejoin="round"/>
  </g>
  <g stroke="#7a7a7a">
   <path d="m0 26.223v.988" stroke-width="8.7"/>
   <path d="m-.641 27.844c-2.278-.056-3.769-.377-3.409-.734.361-.356 2.414-.589 4.691-.533 2.278.057 3.769.378 3.409.734-.361.356-2.414.59-4.691.533" fill="#7a7a7a" stroke-linecap="round" stroke-linejoin="round" stroke-width=".5"/>
   <path d="m-.641 26.857c2.277.056 4.33-.177 4.691-.534.36-.356-1.131-.677-3.409-.733-2.277-.057-4.33.176-4.691.533-.36.356 1.131.677 3.409.734" fill="#7a7a7a" stroke-linecap="round" stroke-linejoin="round" stroke-width=".5"/>
  </g>
  <path d="m18.536-18.586-2.963-3.037.469 2.5z" fill="#ababab" stroke-linecap="round" stroke-linejoin="round"/>
  <path d="m0 4.445v21.531" stroke="#91512b" stroke-width="8.2"/>
  <g stroke-linecap="round" stroke-linejoin="round">
   <path d="m-.641 26.61c-2.278-.057-3.769-.378-3.409-.734.361-.356 2.414-.59 4.691-.533 2.278.056 3.769.377 3.409.734-.361.356-2.414.589-4.691.533" fill="#91512b"/>
   <path d="m-.641 5.078c2.277.057 4.33-.177 4.691-.533.36-.356-1.131-.677-3.409-.734-2.277-.056-4.33.177-4.691.533-.36.357 1.131.678 3.409.734" fill="#91512b"/>
   <path d="m-18.536-1.168 2.503-2.472 2.963 3.037-2.503 2.472z" fill="#949494"/>
   <path d="m-18.536-1.168 2.503-2.472v-15.803l-2.503 2.472z" fill="#757575"/>
  </g>
  <g stroke="#6e6e6e">
   <path d="m0 1.235v2.963" stroke-width="8.7"/>
   <path d="m-.641 4.831c-2.278-.056-3.769-.377-3.409-.734.361-.356 2.414-.589 4.691-.533 2.278.057 3.769.378 3.409.734-.361.356-2.414.59-4.691.533" fill="#6e6e6e" stroke-linecap="round" stroke-linejoin="round" stroke-width=".5"/>
   <path d="m-.641 1.868c2.277.057 4.33-.177 4.691-.533.36-.356-1.131-.677-3.409-.734-2.277-.056-4.33.177-4.691.533-.36.357 1.131.678 3.409.734" fill="#6e6e6e" stroke-linecap="round" stroke-linejoin="round" stroke-width=".5"/>
  </g>
  <g stroke-linecap="round" stroke-linejoin="round">
   <path d="m15.573.106-2.503 2.473-28.643-.71 2.503-2.472z" fill="#757575"/>
   <path d="m-18.536-16.971 2.503-2.472 2.963-2.889-2.503 2.472z" fill="#949494"/>
   <path d="m18.536-2.783-2.503 2.472-2.963 2.89 2.503-2.473z" fill="#949494"/>
   <path d="m15.573-21.623-2.503 2.472-28.643-.709 2.503-2.472z" fill="#757575"/>
   <path d="m18.536-2.783-2.503 2.472v-15.803l2.503-2.472z" fill="#757575"/>
   <path d="m18.536-18.586-2.503 2.472-2.963-3.037 2.503-2.472z" fill="#949494"/>
   <path d="m-18.536-1.168 2.963 3.037-.469-2.5z" fill="#ababab"/>
   <path d="m-18.536-16.971v15.803l2.494.537v-15.803z" fill="#949494"/>
   <path d="m-16.042-.631.469 2.5 28.643.71-.469-2.5z" fill="#949494"/>
   <path d="m-18.536-16.971 2.963-2.889-.469 3.426z" fill="#ababab"/>
   <path d="m16.033-.311-2.963 2.89-.469-2.5z" fill="#ababab"/>
   <path d="m13.07-19.151-.469 3.427-28.643-.71.469-3.426z" fill="#949494"/>
   <path d="m-16.042-16.434v15.803l28.643.71v-15.803z" fill="#757575"/>
   <path d="m.645-14.453s-5.38.921-5.38.921c-.088.015-.154.089-.159.178 0 0-.331 5.581-.331 5.581-.008.131.113.237.242.21l1.497-.308c.14-.029.267.097.238.238l-.445 2.167c-.03.146.108.275.251.235l.925-.258c.144-.04.281.089.251.235l-.707 3.405c-.044.213.241.337.359.157l.08-.121s4.383-8.639 4.383-8.639c.074-.145-.053-.315-.214-.288 0 0-1.542.259-1.542.259-.144.024-.268-.113-.227-.254l1.006-3.463c.041-.141-.082-.28-.227-.255z" fill="#fbbf28" stroke="#fbbf28" stroke-width=".6"/>
   <path d="m16.033-16.114v15.803l-3.432.39v-15.803z" fill="#949494"/>
   <path d="m16.033-16.114-2.963-3.037-.469 3.427z" fill="#ababab"/>
  </g>
 </g>
</svg>
