<svg class="hammer" width="37.112" height="54.397" version="1.1" viewBox="-50 -50 37.112 54.397" xmlns="http://www.w3.org/2000/svg">
 <g transform="translate(-31.444,-27.66)">
  <g stroke-linecap="round" stroke-linejoin="round">
   <path d="m15.991-3.65-2.961 3.039-.481-3.427z" fill="#ababab"/>
   <path d="m15.991-19.453v15.803l-3.442-.388v-15.803z" fill="#949494"/>
   <path d="m12.549-19.841v15.803l-28.625.728v-15.803z" fill="#757575"/>
   <path d="m-4.175-17.896s5.376.918 5.376.918c.089.015.154.088.159.178l.331 5.58c.008.132-.113.237-.241.211l-1.497-.308c-.14-.029-.267.098-.238.238l.445 2.168c.03.146-.108.275-.251.235l-.924-.258c-.144-.04-.282.09-.251.236l.707 3.404c.044.213-.241.337-.36.157l-.079-.121s-4.381-8.637-4.381-8.637c-.073-.144.054-.315.214-.288 0 0 1.541.259 1.541.259.145.024.268-.114.227-.255l-1.005-3.462c-.041-.141.082-.279.227-.255z" fill="#fbbf28" stroke="#fbbf28" stroke-width=".6"/>
   <path d="m12.549-4.038.481 3.427-28.625.727-.481-3.426z" fill="#949494"/>
   <path d="m15.991-19.453-2.961-2.887-.481 2.499z" fill="#ababab"/>
   <path d="m-15.595-21.613-.481 2.5 28.625-.728.481-2.499z" fill="#949494"/>
   <path d="m-18.556-2.772 2.961 2.888-.481-3.426z" fill="#ababab"/>
   <path d="m-18.556-18.575v15.803l2.48-.538v-15.803z" fill="#949494"/>
  </g>
  <g stroke="#828282">
   <path d="m0 27.952v2.963" stroke-width="9.2"/>
   <path d="m.657 31.548c-2.276.058-4.334-.174-4.704-.531-.37-.356 1.113-.678 3.39-.735 2.276-.058 4.334.174 4.704.53s-1.113.678-3.39.736" fill="#828282" stroke-linecap="round" stroke-linejoin="round"/>
   <path d="m.657 28.585c2.277-.058 3.76-.38 3.39-.736s-2.428-.588-4.704-.531c-2.277.058-3.76.38-3.39.736.37.357 2.428.589 4.704.531" fill="#828282" stroke-linecap="round" stroke-linejoin="round"/>
  </g>
  <g stroke="#7a7a7a">
   <path d="m0 26.223v.988" stroke-width="8.7"/>
   <path d="m.657 27.844c-2.276.058-4.334-.174-4.704-.53s1.113-.678 3.39-.736c2.276-.058 4.334.174 4.704.53s-1.113.678-3.39.736" fill="#7a7a7a" stroke-linecap="round" stroke-linejoin="round" stroke-width=".5"/>
   <path d="m.657 26.856c2.277-.058 3.76-.38 3.39-.736s-2.428-.588-4.704-.53c-2.277.058-3.76.38-3.39.736s2.428.588 4.704.53" fill="#7a7a7a" stroke-linecap="round" stroke-linejoin="round" stroke-width=".5"/>
  </g>
  <path d="m-18.556-18.575 2.961-3.038-.481 2.5z" fill="#ababab" stroke-linecap="round" stroke-linejoin="round"/>
  <path d="m15.991-3.65 2.565 2.471-2.961 3.038-2.565-2.47z" fill="#949494" stroke-linecap="round" stroke-linejoin="round"/>
  <path d="m0 4.445v21.531" stroke="#91512b" stroke-width="8.2"/>
  <g stroke-linecap="round" stroke-linejoin="round">
   <path d="m.657 26.609c-2.276.058-4.334-.174-4.704-.53s1.113-.678 3.39-.736c2.276-.058 4.334.174 4.704.53s-1.113.678-3.39.736" fill="#91512b"/>
   <path d="m.657 5.078c2.277-.058 3.76-.38 3.39-.736s-2.428-.588-4.704-.53c-2.277.057-3.76.379-3.39.735.37.357 2.428.589 4.704.531" fill="#91512b"/>
   <path d="m15.991-3.65 2.565 2.471v-15.803l-2.565-2.471z" fill="#757575"/>
  </g>
  <g stroke="#6e6e6e">
   <path d="m0 1.235v2.963" stroke-width="8.7"/>
   <path d="m.657 4.831c-2.276.058-4.334-.174-4.704-.531-.37-.356 1.113-.678 3.39-.735 2.276-.058 4.334.174 4.704.53s-1.113.678-3.39.736" fill="#6e6e6e" stroke-linecap="round" stroke-linejoin="round" stroke-width=".5"/>
   <path d="m.657 1.868c2.277-.058 3.76-.38 3.39-.736s-2.428-.588-4.704-.53c-2.277.057-3.76.379-3.39.735.37.357 2.428.589 4.704.531" fill="#6e6e6e" stroke-linecap="round" stroke-linejoin="round" stroke-width=".5"/>
  </g>
  <g stroke-linecap="round" stroke-linejoin="round">
   <path d="m13.03-.611 2.565 2.47-28.625.728-2.565-2.471z" fill="#757575"/>
   <path d="m15.991-19.453 2.565 2.471-2.961-2.888-2.565-2.47z" fill="#949494"/>
   <path d="m-15.991-.301-2.565-2.471 2.961 2.888 2.565 2.471z" fill="#949494"/>
   <path d="m13.03-22.34 2.565 2.47-28.625.727-2.565-2.47z" fill="#757575"/>
   <path d="m-15.991-.301-2.565-2.471v-15.803l2.565 2.471z" fill="#757575"/>
   <path d="m-15.991-16.104-2.565-2.471 2.961-3.038 2.565 2.47z" fill="#949494"/>
   <path d="m18.556-1.179-2.961 3.038.481-2.499z" fill="#ababab"/>
   <path d="m18.556-16.982v15.803l-2.48.539v-15.804z" fill="#949494"/>
   <path d="m18.556-16.982-2.961-2.888.481 3.426z" fill="#ababab"/>
   <path d="m-12.549.087-.481 2.5 28.625-.728.481-2.499z" fill="#949494"/>
   <path d="m-15.991-.301 2.961 2.888.481-2.5z" fill="#ababab"/>
   <path d="m15.595-19.87.481 3.426-28.625.728-.481-3.427z" fill="#949494"/>
   <path d="m-12.549-15.716v15.803l28.625-.727v-15.804z" fill="#757575"/>
   <path d="m4.175-14.574-5.376 1.191c-.089.02-.154.096-.159.186l-.331 5.598c-.008.131.113.23.241.198 0 0 1.497-.384 1.497-.384.14-.036.267.084.238.226l-.445 2.19c-.03.148.108.269.251.222l.924-.304c.144-.047.282.075.251.222l-.707 3.441c-.044.215.241.325.36.138l.079-.124 4.381-8.86c.073-.148-.054-.312-.214-.277 0 0-1.541.337-1.541.337-.145.031-.268-.1-.227-.243l1.005-3.514c.041-.143-.082-.275-.227-.243z" fill="#fbbf28" stroke="#fbbf28" stroke-width=".6"/>
   <path d="m-15.991-16.104v15.803l3.442.388v-15.803z" fill="#949494"/>
   <path d="m-15.991-16.104 2.961-3.039.481 3.427z" fill="#ababab"/>
  </g>
 </g>
</svg>
