<svg class="hammer" width="41.217" height="41.217" version="1.1" viewBox="-50 -50 41.217 41.217" xmlns="http://www.w3.org/2000/svg">
 <g transform="translate(-1.3476)">
  <path d="m-40.453-34.749 1.126 4.064 2.707-2.765z" fill="#949494" stroke-linecap="round" stroke-linejoin="round"/>
  <path d="m-34.215-48.796-6.238 14.047 3.833 1.299 6.238-14.048z" fill="#828282" stroke-linecap="round" stroke-linejoin="round"/>
  <g stroke="#696969">
   <path d="m-46.172 7.746-1.169 2.634" stroke-width="8.6"/>
   <path d="m-49.289 10.547c-1.635-1.019-2.055-1.885-0.96-1.978 1.095-0.094 3.219 0.626 4.855 1.644 1.635 1.019 2.055 1.885 0.96 1.978-1.095 0.094-3.219-0.626-4.855-1.644" fill="#696969" stroke-linecap="round" stroke-linejoin="round"/>
   <path d="m-48.119 7.913c1.635 1.019 3.759 1.738 4.855 1.645 1.095-0.094 0.675-0.959-0.961-1.978-1.635-1.019-3.759-1.739-4.854-1.645-1.096 0.093-0.675 0.959 0.96 1.978" fill="#696969" stroke-linecap="round" stroke-linejoin="round"/>
  </g>
  <g stroke="#707070">
   <path d="m-45.49 6.21-0.389 0.878" stroke-width="8.1"/>
   <path d="m-47.827 7.254c-1.635-1.019-2.055-1.884-0.96-1.978s3.219 0.626 4.855 1.645c1.635 1.019 2.055 1.884 0.96 1.978s-3.219-0.626-4.855-1.645" fill="#707070" stroke-linecap="round" stroke-linejoin="round" stroke-width=".5"/>
   <path d="m-47.437 6.376c1.636 1.019 3.76 1.739 4.855 1.645s0.675-0.959-0.96-1.978c-1.636-1.019-3.76-1.738-4.855-1.645-1.095 0.094-0.675 0.959 0.96 1.978" fill="#707070" stroke-linecap="round" stroke-linejoin="round" stroke-width=".5"/>
  </g>
  <g stroke-linecap="round" stroke-linejoin="round">
   <path d="m-34.215-48.796 3.465-1.204 0.368 2.502z" fill="#949494"/>
   <path d="m-14.431-19.626-2.707 2.766-22.189-13.825 2.707-2.765z" fill="#828282"/>
   <path d="m-48.652-34.048 8.199-0.701 1.126 4.064-8.199 0.701z" fill="#828282"/>
   <path d="m-8.1934-33.673-6.238 14.047-22.189-13.824 6.238-14.048z" fill="#696969"/>
  </g>
  <path d="m-33.696-20.349-11.696 26.339" stroke="#a05922" stroke-width="7.6"/>
  <g stroke-linecap="round" stroke-linejoin="round">
   <path d="m-47.339 6.157c-1.636-1.019-2.056-1.885-0.961-1.978 1.096-0.094 3.22 0.626 4.855 1.645 1.636 1.019 2.056 1.884 0.96 1.978-1.095 0.093-3.219-0.626-4.854-1.645" fill="#a05922"/>
   <path d="m-35.644-20.183c1.636 1.019 3.76 1.739 4.855 1.645 1.095-0.093 0.675-0.959-0.96-1.978-1.636-1.019-3.76-1.738-4.855-1.645-1.095 0.094-0.675 0.959 0.96 1.978" fill="#a05922"/>
   <path d="m-48.652-34.048 8.199-0.701 6.238-14.047-8.199 0.701z" fill="#696969"/>
   <path d="m-30.75-50 0.368 2.502 22.189 13.825-0.368-2.503z" fill="#828282"/>
   <path d="m-42.414-48.095 8.199-0.701 3.465-1.204-8.199 0.701z" fill="#828282"/>
  </g>
  <g stroke="#707070">
   <path d="m-32.429-23.203-1.17 2.634" stroke-width="8.1"/>
   <path d="m-35.546-20.402c-1.636-1.019-2.056-1.884-0.96-1.978 1.095-0.094 3.219 0.626 4.854 1.645 1.636 1.019 2.056 1.884 0.961 1.978-1.096 0.094-3.22-0.626-4.855-1.645" fill="#707070" stroke-linecap="round" stroke-linejoin="round" stroke-width=".5"/>
   <path d="m-34.377-23.036c1.636 1.019 3.76 1.739 4.855 1.645 1.096-0.094 0.675-0.959-0.96-1.978-1.636-1.019-3.76-1.739-4.855-1.645s-0.675 0.959 0.96 1.978" fill="#707070" stroke-linecap="round" stroke-linejoin="round" stroke-width=".5"/>
  </g>
  <g stroke-linecap="round" stroke-linejoin="round">
   <path d="m-13.673-18.064-3.465 1.204 2.707-2.766z" fill="#949494"/>
   <path d="m-17.138-16.86-8.199 0.701-22.189-13.825 8.199-0.701z" fill="#696969"/>
   <path d="m-48.652-34.048 1.126 4.064-0.367-2.502z" fill="#949494"/>
   <path d="m-7.4354-32.112-6.238 14.048-0.758-1.562 6.238-14.047z" fill="#828282"/>
   <path d="m-42.414-48.095-6.238 14.047 0.759 1.562 6.237-14.048z" fill="#828282"/>
   <path d="m-7.4354-32.112-1.126-4.064 0.368 2.503z" fill="#949494"/>
   <path d="m-8.5614-36.176-8.199 0.701-22.189-13.824 8.199-0.701z" fill="#696969"/>
   <path d="m-42.414-48.095 3.465-1.204-2.707 2.765z" fill="#949494"/>
   <path d="m-13.673-18.064-8.199 0.701-3.465 1.204 8.199-0.701z" fill="#828282"/>
   <path d="m-47.893-32.486 0.367 2.502 22.189 13.825-0.367-2.503z" fill="#828282"/>
   <path d="m-13.673-18.064-8.199 0.701 6.238-14.048 8.199-0.701z" fill="#696969"/>
   <path d="m-41.656-46.534-6.237 14.048 22.189 13.824 6.237-14.047z" fill="#696969"/>
   <path d="m-29.32-37.096-4.583-1.66c-0.076-0.027-0.156 8e-3 -0.196 0.085 0 0-2.462 4.809-2.462 4.809-0.058 0.113-5e-3 0.262 0.107 0.298l1.296 0.415c0.122 0.039 0.171 0.21 0.093 0.322 0 0-1.205 1.722-1.205 1.722-0.081 0.116-0.024 0.294 0.104 0.324l0.828 0.197c0.128 0.03 0.185 0.208 0.104 0.324 0 0-1.899 2.701-1.899 2.701-0.119 0.169 0.056 0.411 0.22 0.305l0.11-0.071 6.849-5.661c0.115-0.094 0.083-0.304-0.054-0.354l-1.312-0.48c-0.123-0.045-0.166-0.224-0.078-0.33 0 0 2.156-2.615 2.156-2.615 0.088-0.107 0.046-0.287-0.078-0.331z" fill="#ecb018" stroke="#ecb018"/>
   <path d="m-7.4354-32.112-8.199 0.701-1.126-4.064 8.199-0.701z" fill="#828282"/>
   <path d="m-16.76-35.475-2.707 2.766-22.189-13.825 2.707-2.765z" fill="#828282"/>
   <path d="m-21.872-17.363-3.465 1.204-0.367-2.503z" fill="#949494"/>
   <path d="m-15.634-31.411-6.238 14.048-3.832-1.299 6.237-14.047z" fill="#828282"/>
   <path d="m-15.634-31.411-1.126-4.064-2.707 2.766z" fill="#949494"/>
  </g>
 </g>
</svg>
