<svg class="hammer" width="39.313" height="51.462" version="1.1" viewBox="-50 -50 39.313 51.462" xmlns="http://www.w3.org/2000/svg">
 <g transform="rotate(13 -41.845 -31.38)">
  <g stroke-linecap="round" stroke-linejoin="round">
   <path d="m-15.431-31.308-2.963 3.037-0.469-3.427z" fill="#b5b5b5"/>
   <path d="m-15.431-47.111v15.803l-3.432-0.39v-15.803z" fill="#949494"/>
   <path d="m-18.863-31.698 0.469 3.427-28.643 0.709-0.469-3.426z" fill="#949494"/>
   <path d="m-18.863-47.501v15.803l-28.643 0.71v-15.803z" fill="#757575"/>
   <path d="m-15.431-47.111-2.963-2.889-0.469 2.499z" fill="#b5b5b5"/>
   <path d="m-50-30.451 2.963 2.889-0.469-3.426z" fill="#b5b5b5"/>
   <path d="m-47.037-49.291-0.469 2.5 28.643-0.71 0.469-2.499z" fill="#949494"/>
   <path d="m-50-46.254v15.803l2.494-0.537v-15.803z" fill="#949494"/>
  </g>
  <g stroke="#757575">
   <path d="m-31.464-4.754v2.963" stroke-width="9.6"/>
   <path d="m-30.791-1.126c-2.389 0.059-4.542-0.186-4.92-0.559-0.378-0.374 1.185-0.711 3.574-0.77s4.542 0.185 4.92 0.559-1.185 0.711-3.574 0.77" fill="#757575" stroke-linecap="round" stroke-linejoin="round"/>
   <path d="m-30.791-4.089c2.389-0.059 3.952-0.396 3.574-0.77s-2.531-0.618-4.92-0.559-3.952 0.396-3.574 0.77c0.378 0.373 2.531 0.618 4.92 0.559" fill="#757575" stroke-linecap="round" stroke-linejoin="round"/>
  </g>
  <g stroke="#808080">
   <path d="m-31.464-6.482v0.988" stroke-width="9.1"/>
   <path d="m-30.791-4.83c-2.389 0.059-4.542-0.185-4.92-0.559s1.185-0.711 3.574-0.77 4.542 0.186 4.92 0.559c0.378 0.374-1.185 0.711-3.574 0.77" fill="#808080" stroke-linecap="round" stroke-linejoin="round" stroke-width=".5"/>
   <path d="m-30.791-5.818c2.389-0.059 3.952-0.396 3.574-0.769-0.378-0.374-2.531-0.619-4.92-0.559-2.389 0.059-3.952 0.395-3.574 0.769s2.531 0.618 4.92 0.559" fill="#808080" stroke-linecap="round" stroke-linejoin="round" stroke-width=".5"/>
  </g>
  <path d="m-50-46.254 2.963-3.037-0.469 2.5z" fill="#b5b5b5" stroke-linecap="round" stroke-linejoin="round"/>
  <path d="m-15.431-31.308 2.503 2.472-2.963 3.037-2.503-2.472z" fill="#949494" stroke-linecap="round" stroke-linejoin="round"/>
  <path d="m-31.464-23.223v16.494" stroke="#9e4d1f" stroke-width="8.6"/>
  <g stroke-linecap="round" stroke-linejoin="round">
   <path d="m-30.791-6.065c-2.389 0.06-4.542-0.185-4.92-0.559-0.378-0.373 1.185-0.71 3.574-0.769 2.389-0.06 4.542 0.185 4.92 0.559 0.378 0.373-1.185 0.71-3.574 0.769" fill="#9e4d1f"/>
   <path d="m-30.791-22.559c2.389-0.059 3.952-0.396 3.574-0.77-0.378-0.373-2.531-0.618-4.92-0.559s-3.952 0.396-3.574 0.77 2.531 0.618 4.92 0.559" fill="#9e4d1f"/>
   <path d="m-15.431-31.308 2.503 2.472v-15.803l-2.503-2.472z" fill="#757575"/>
  </g>
  <g stroke="#808080">
   <path d="m-31.464-26.433v2.963" stroke-width="9.1"/>
   <path d="m-30.791-22.806c-2.389 0.059-4.542-0.185-4.92-0.559s1.185-0.711 3.574-0.77 4.542 0.186 4.92 0.559c0.378 0.374-1.185 0.711-3.574 0.77" fill="#808080" stroke-linecap="round" stroke-linejoin="round" stroke-width=".5"/>
   <path d="m-30.791-25.769c2.389-0.059 3.952-0.396 3.574-0.77-0.378-0.373-2.531-0.618-4.92-0.559s-3.952 0.396-3.574 0.77 2.531 0.618 4.92 0.559" fill="#808080" stroke-linecap="round" stroke-linejoin="round" stroke-width=".5"/>
  </g>
  <g stroke-linecap="round" stroke-linejoin="round">
   <path d="m-18.394-28.271 2.503 2.472-28.643 0.71-2.503-2.473z" fill="#757575"/>
   <path d="m-15.431-47.111 2.503 2.472-2.963-2.889-2.503-2.472z" fill="#949494"/>
   <path d="m-47.497-27.979-2.503-2.472 2.963 2.889 2.503 2.473z" fill="#949494"/>
   <path d="m-18.394-50 2.503 2.472-28.643 0.709-2.503-2.472z" fill="#757575"/>
   <path d="m-47.497-27.979-2.503-2.472v-15.803l2.503 2.472z" fill="#757575"/>
   <path d="m-47.497-43.782-2.503-2.472 2.963-3.037 2.503 2.472z" fill="#949494"/>
   <path d="m-12.928-28.836-2.963 3.037 0.469-2.5z" fill="#b5b5b5"/>
   <path d="m-12.928-44.639v15.803l-2.494 0.537v-15.803z" fill="#949494"/>
   <path d="m-44.065-27.589-0.469 2.5 28.643-0.71 0.469-2.5z" fill="#949494"/>
   <path d="m-12.928-44.639-2.963-2.889 0.469 3.426z" fill="#b5b5b5"/>
   <path d="m-47.497-27.979 2.963 2.89 0.469-2.5z" fill="#b5b5b5"/>
   <path d="m-15.891-47.528 0.469 3.426-28.643 0.71-0.469-3.427z" fill="#949494"/>
   <path d="m-44.065-43.392v15.803l28.643-0.71v-15.803z" fill="#757575"/>
   <path d="m-27.331-42.239-5.379 1.187c-0.089 0.02-0.154 0.096-0.16 0.186l-0.331 5.598c-7e-3 0.131 0.114 0.231 0.242 0.198 0 0 1.498-0.383 1.498-0.383 0.14-0.036 0.267 0.084 0.238 0.226l-0.445 2.19c-0.03 0.147 0.107 0.269 0.251 0.222l0.925-0.304c0.143-0.047 0.281 0.076 0.251 0.223l-0.708 3.44c-0.044 0.216 0.241 0.325 0.36 0.139l0.079-0.125 4.384-8.857c0.073-0.148-0.054-0.312-0.214-0.277 0 0-1.542 0.336-1.542 0.336-0.145 0.032-0.268-0.1-0.227-0.243l1.006-3.513c0.041-0.143-0.083-0.275-0.228-0.243z" fill="#f7bc26" stroke="#f7bc26" stroke-width=".6"/>
   <path d="m-47.497-43.782v15.803l3.432 0.39v-15.803z" fill="#949494"/>
   <path d="m-47.497-43.782 2.963-3.037 0.469 3.427z" fill="#b5b5b5"/>
  </g>
 </g>
</svg>
