<svg class="hammer" width="55.682" height="40.941" version="1.1" viewBox="-50 -50 55.682 40.941" xmlns="http://www.w3.org/2000/svg">
 <g transform="rotate(66.588 9.4918 -28.033)">
  <g stroke-linecap="round" stroke-linejoin="round">
   <path d="m16.033-3.64-2.963 3.037-0.469-3.427z" fill="#b5b5b5"/>
   <path d="m16.033-19.443v15.803l-3.432-0.39v-15.803z" fill="#949494"/>
   <path d="m12.601-19.833v15.803l-28.643 0.71v-15.803z" fill="#757575"/>
   <path d="m-4.133-17.898s5.379 0.921 5.379 0.921c0.089 0.015 0.154 0.088 0.16 0.178l0.331 5.58c7e-3 0.132-0.114 0.237-0.242 0.211l-1.498-0.309c-0.14-0.029-0.267 0.098-0.238 0.238l0.445 2.168c0.03 0.146-0.107 0.275-0.251 0.235l-0.925-0.258c-0.143-0.04-0.281 0.089-0.251 0.235l0.708 3.405c0.044 0.213-0.241 0.337-0.36 0.156l-0.079-0.121s-4.384-8.639-4.384-8.639c-0.073-0.145 0.054-0.315 0.214-0.288l1.542 0.26c0.145 0.024 0.268-0.114 0.227-0.255l-1.006-3.463c-0.041-0.141 0.083-0.279 0.228-0.254z" fill="#f7bc26" stroke="#f7bc26" stroke-width=".6"/>
   <path d="m12.601-4.03 0.469 3.427-28.643 0.709-0.469-3.426z" fill="#949494"/>
   <path d="m16.033-19.443-2.963-2.889-0.469 2.499z" fill="#b5b5b5"/>
   <path d="m-18.536-2.783 2.963 2.889-0.469-3.426z" fill="#b5b5b5"/>
   <path d="m-15.573-21.623-0.469 2.5 28.643-0.71 0.469-2.499z" fill="#949494"/>
   <path d="m-18.536-18.586v15.803l2.494-0.537v-15.803z" fill="#949494"/>
  </g>
  <g stroke="#757575">
   <path d="m0 27.161v2.963" stroke-width="9.7"/>
   <path d="m0.68 30.797c-2.416 0.059-4.594-0.188-4.976-0.566-0.383-0.378 1.199-0.719 3.616-0.779 2.416-0.059 4.594 0.188 4.976 0.566 0.383 0.378-1.199 0.719-3.616 0.779" fill="#757575" stroke-linecap="round" stroke-linejoin="round"/>
   <path d="m0.68 27.834c2.417-0.06 3.999-0.401 3.616-0.779-0.382-0.378-2.56-0.626-4.976-0.566-2.417 0.06-3.999 0.401-3.616 0.779 0.382 0.378 2.56 0.625 4.976 0.566" fill="#757575" stroke-linecap="round" stroke-linejoin="round"/>
  </g>
  <g stroke="#808080">
   <path d="m0 25.433v0.988" stroke-width="9.2"/>
   <path d="m0.68 27.093c-2.416 0.06-4.594-0.188-4.976-0.566-0.383-0.378 1.199-0.719 3.616-0.778 2.416-0.06 4.594 0.187 4.976 0.565 0.383 0.378-1.199 0.719-3.616 0.779" fill="#808080" stroke-linecap="round" stroke-linejoin="round" stroke-width=".5"/>
   <path d="m0.68 26.105c2.417-0.06 3.999-0.4 3.616-0.778-0.382-0.379-2.56-0.626-4.976-0.566-2.417 0.06-3.999 0.4-3.616 0.778 0.382 0.378 2.56 0.626 4.976 0.566" fill="#808080" stroke-linecap="round" stroke-linejoin="round" stroke-width=".5"/>
  </g>
  <path d="m-18.536-18.586 2.963-3.037-0.469 2.5z" fill="#b5b5b5" stroke-linecap="round" stroke-linejoin="round"/>
  <path d="m16.033-3.64 2.503 2.472-2.963 3.037-2.503-2.472z" fill="#949494" stroke-linecap="round" stroke-linejoin="round"/>
  <path d="m0 4.445v20.741" stroke="#9e4d1f" stroke-width="8.7"/>
  <g stroke-linecap="round" stroke-linejoin="round">
   <path d="m0.68 25.858c-2.416 0.06-4.594-0.187-4.976-0.565-0.383-0.379 1.199-0.719 3.616-0.779 2.416-0.06 4.594 0.188 4.976 0.566 0.383 0.378-1.199 0.718-3.616 0.778" fill="#9e4d1f"/>
   <path d="m0.68 5.117c2.417-0.06 3.999-0.401 3.616-0.779-0.382-0.378-2.56-0.625-4.976-0.566-2.417 0.06-3.999 0.401-3.616 0.779 0.382 0.378 2.56 0.626 4.976 0.566" fill="#9e4d1f"/>
   <path d="m16.033-3.64 2.503 2.472v-15.803l-2.503-2.472z" fill="#757575"/>
  </g>
  <g stroke="#808080">
   <path d="m0 1.235v2.963" stroke-width="9.2"/>
   <path d="m0.68 4.87c-2.416 0.06-4.594-0.188-4.976-0.566-0.383-0.378 1.199-0.719 3.616-0.778 2.416-0.06 4.594 0.187 4.976 0.565 0.383 0.378-1.199 0.719-3.616 0.779" fill="#808080" stroke-linecap="round" stroke-linejoin="round" stroke-width=".5"/>
   <path d="m0.68 1.907c2.417-0.06 3.999-0.401 3.616-0.779-0.382-0.378-2.56-0.625-4.976-0.566-2.417 0.06-3.999 0.401-3.616 0.779 0.382 0.378 2.56 0.626 4.976 0.566" fill="#808080" stroke-linecap="round" stroke-linejoin="round" stroke-width=".5"/>
  </g>
  <g stroke-linecap="round" stroke-linejoin="round">
   <path d="m13.07-0.603 2.503 2.472-28.643 0.71-2.503-2.473z" fill="#757575"/>
   <path d="m16.033-19.443 2.503 2.472-2.963-2.889-2.503-2.472z" fill="#949494"/>
   <path d="m-16.033-0.311-2.503-2.472 2.963 2.889 2.503 2.473z" fill="#949494"/>
   <path d="m13.07-22.332 2.503 2.472-28.643 0.709-2.503-2.472z" fill="#757575"/>
   <path d="m-16.033-0.311-2.503-2.472v-15.803l2.503 2.472z" fill="#757575"/>
   <path d="m-16.033-16.114-2.503-2.472 2.963-3.037 2.503 2.472z" fill="#949494"/>
   <path d="m18.536-1.168-2.963 3.037 0.469-2.5z" fill="#b5b5b5"/>
   <path d="m18.536-16.971v15.803l-2.494 0.537v-15.803z" fill="#949494"/>
   <path d="m-12.601 0.079-0.469 2.5 28.643-0.71 0.469-2.5z" fill="#949494"/>
   <path d="m18.536-16.971-2.963-2.889 0.469 3.426z" fill="#b5b5b5"/>
   <path d="m-16.033-0.311 2.963 2.89 0.469-2.5z" fill="#b5b5b5"/>
   <path d="m15.573-19.86 0.469 3.426-28.643 0.71-0.469-3.427z" fill="#949494"/>
   <path d="m-12.601-15.724v15.803l28.643-0.71v-15.803z" fill="#757575"/>
   <path d="m4.133-14.571-5.379 1.187c-0.089 0.02-0.154 0.096-0.16 0.186l-0.331 5.598c-7e-3 0.131 0.114 0.231 0.242 0.198 0 0 1.498-0.383 1.498-0.383 0.14-0.036 0.267 0.084 0.238 0.226l-0.445 2.19c-0.03 0.147 0.107 0.269 0.251 0.222l0.925-0.304c0.143-0.047 0.281 0.076 0.251 0.223l-0.708 3.44c-0.044 0.216 0.241 0.325 0.36 0.139l0.079-0.125 4.384-8.857c0.073-0.148-0.054-0.312-0.214-0.277 0 0-1.542 0.336-1.542 0.336-0.145 0.032-0.268-0.1-0.227-0.243l1.006-3.513c0.041-0.143-0.083-0.275-0.228-0.243z" fill="#f7bc26" stroke="#f7bc26" stroke-width=".6"/>
   <path d="m-16.033-16.114v15.803l3.432 0.39v-15.803z" fill="#949494"/>
   <path d="m-16.033-16.114 2.963-3.037 0.469 3.427z" fill="#b5b5b5"/>
  </g>
 </g>
</svg>
