<svg class="hammer" width="41.625" height="51.865" version="1.1" viewBox="-50 -50 41.625 51.865" xmlns="http://www.w3.org/2000/svg">
 <g transform="rotate(-21 -77.816 57.398)">
  <g stroke-linecap="round" stroke-linejoin="round">
   <path d="m13.649-5.606-2.814 3.169-1.039-3.651z" fill="#a3a3a3"/>
   <path d="m13.649-21.006v15.4l-3.853-.482v-15.4z" fill="#8f8f8f"/>
   <path d="m9.796-6.088 1.039 3.651-27.208 2.724-1.038-3.651z" fill="#8f8f8f"/>
   <path d="m13.649-21.006-2.814-2.605-1.039 2.123z" fill="#a3a3a3"/>
   <path d="m9.796-21.488v15.4l-27.207 2.724v-15.399z" fill="#757575"/>
  </g>
  <g stroke="#808080">
   <path d="m0 22.329v2.887" stroke-width="9.6"/>
   <path d="m1.488 26.311c-2.269.228-4.685-.075-5.522-.691s.276-1.271 2.546-1.499c2.269-.227 4.685.075 5.522.691s-.276 1.272-2.546 1.499" fill="#808080" stroke-linecap="round" stroke-linejoin="round"/>
   <path d="m1.488 23.424c2.27-.227 3.383-.883 2.546-1.499s-3.253-.918-5.522-.691c-2.27.227-3.383.883-2.546 1.499s3.253.918 5.522.691" fill="#808080" stroke-linecap="round" stroke-linejoin="round"/>
  </g>
  <g stroke="#878787">
   <path d="m0 20.645v.962" stroke-width="9.1"/>
   <path d="m1.488 22.702c-2.269.227-4.685-.075-5.522-.691s.276-1.272 2.546-1.499c2.269-.227 4.685.075 5.522.691s-.276 1.272-2.546 1.499" fill="#878787" stroke-linecap="round" stroke-linejoin="round" stroke-width=".5"/>
   <path d="m1.488 21.74c2.27-.228 3.383-.883 2.546-1.499s-3.253-.919-5.522-.691c-2.27.227-3.383.883-2.546 1.499s3.253.918 5.522.691" fill="#878787" stroke-linecap="round" stroke-linejoin="round" stroke-width=".5"/>
  </g>
  <path d="m13.649-5.606 5.538 4.074-2.814 3.169-5.538-4.074z" fill="#8f8f8f" stroke-linecap="round" stroke-linejoin="round"/>
  <path d="m0 4.331v16.073" stroke="#91512b" stroke-width="8.6"/>
  <g stroke-linecap="round" stroke-linejoin="round">
   <path d="m1.488 21.499c-2.269.227-4.685-.075-5.522-.691s.276-1.272 2.546-1.499c2.269-.227 4.685.075 5.522.691s-.276 1.272-2.546 1.499" fill="#91512b"/>
   <path d="m1.488 5.426c2.27-.227 3.383-.883 2.546-1.499s-3.253-.918-5.522-.691c-2.27.227-3.383.883-2.546 1.499s3.253.918 5.522.691" fill="#91512b"/>
   <path d="m-16.373-20.887-1.038 2.124 27.207-2.725 1.039-2.123z" fill="#8f8f8f"/>
   <path d="m13.649-5.606 5.538 4.074v-15.399l-5.538-4.075z" fill="#757575"/>
   <path d="m-19.187-2.318 2.814 2.605-1.038-3.651z" fill="#a3a3a3"/>
  </g>
  <g stroke="#878787">
   <path d="m0 1.203v2.887" stroke-width="9.1"/>
   <path d="m1.488 5.185c-2.269.228-4.685-.075-5.522-.691s.276-1.271 2.546-1.499c2.269-.227 4.685.075 5.522.691s-.276 1.272-2.546 1.499" fill="#878787" stroke-linecap="round" stroke-linejoin="round" stroke-width=".5"/>
   <path d="m1.488 2.298c2.27-.227 3.383-.883 2.546-1.499s-3.253-.918-5.522-.691c-2.27.227-3.383.883-2.546 1.499s3.253.918 5.522.691" fill="#878787" stroke-linecap="round" stroke-linejoin="round" stroke-width=".5"/>
  </g>
  <g stroke-linecap="round" stroke-linejoin="round">
   <path d="m-19.187-17.717v15.399l1.776-1.046v-15.399z" fill="#8f8f8f"/>
   <path d="m10.835-2.437 5.538 4.074-27.208 2.725-5.538-4.075z" fill="#757575"/>
   <path d="m13.649-21.006 5.538 4.075-2.814-2.606-5.538-4.074z" fill="#8f8f8f"/>
   <path d="m-19.187-17.717 2.814-3.17-1.038 2.124z" fill="#a3a3a3"/>
   <path d="m19.187-1.532-2.814 3.169 1.038-2.123z" fill="#a3a3a3"/>
   <path d="m-13.649 1.757-5.538-4.075 2.814 2.605 5.538 4.075z" fill="#8f8f8f"/>
   <path d="m10.835-23.611 5.538 4.074-27.208 2.725-5.538-4.075z" fill="#757575"/>
   <path d="m19.187-16.931v15.399l-1.776 1.046v-15.399z" fill="#8f8f8f"/>
   <path d="m19.187-16.931-2.814-2.606 1.038 3.652z" fill="#a3a3a3"/>
   <path d="m-13.649 1.757-5.538-4.075v-15.399l5.538 4.074z" fill="#757575"/>
   <path d="m-9.796 2.239-1.039 2.123 27.208-2.725 1.038-2.123z" fill="#8f8f8f"/>
   <path d="m-13.649-13.643-5.538-4.074 2.814-3.17 5.538 4.075z" fill="#8f8f8f"/>
   <path d="m-9.796-13.161v15.4l27.207-2.725v-15.399z" fill="#757575"/>
   <path d="m6.128-13.208-5.11 1.539c-.084.026-.146.105-.151.193 0 0-.314 5.477-.314 5.477-.008.129.107.218.229.176l1.423-.479c.133-.045.253.064.226.204l-.423 2.165c-.028.146.103.255.239.199l.878-.362c.137-.056.268.054.239.199l-.672 3.403c-.042.213.228.299.341.109l.076-.127s4.163-8.941 4.163-8.941c.07-.15-.05-.301-.203-.255l-1.464.436c-.138.041-.255-.078-.216-.22l.956-3.495c.039-.142-.079-.262-.217-.221z" fill="#f7bc26" stroke="#f7bc26" stroke-width=".6"/>
   <path d="m-13.649 1.757 2.814 2.605 1.039-2.123z" fill="#a3a3a3"/>
   <path d="m16.373-19.537 1.038 3.652-27.207 2.724-1.039-3.651z" fill="#8f8f8f"/>
   <path d="m-13.649-13.643v15.4l3.853.482v-15.4z" fill="#8f8f8f"/>
   <path d="m-13.649-13.643 2.814-3.169 1.039 3.651z" fill="#a3a3a3"/>
  </g>
 </g>
</svg>
