<svg class="hammer" width="47.4" height="47.4" version="1.1" viewBox="-50 -50 47.4 47.4" xmlns="http://www.w3.org/2000/svg">
 <g transform="translate(-29.107 -20.3)">
  <path d="m-8.511-10.449 1.126 4.064 2.707-2.765z" fill="#a3a3a3" stroke-linecap="round" stroke-linejoin="round"/>
  <path d="m-2.273-24.496-6.238 14.047 3.833 1.299 6.238-14.048z" fill="#8f8f8f" stroke-linecap="round" stroke-linejoin="round"/>
  <g stroke="#808080">
   <path d="m-13.255 29.851-1.17 2.634" stroke-width="9.6"/>
   <path d="m-16.628 32.673c-1.851-1.153-2.326-2.132-1.087-2.238 1.24-.106 3.643.709 5.494 1.862 1.85 1.153 2.326 2.132 1.086 2.238-1.239.106-3.642-.708-5.493-1.862" fill="#808080" stroke-linecap="round" stroke-linejoin="round"/>
   <path d="m-15.459 30.04c1.851 1.153 4.255 1.967 5.494 1.861s.764-1.085-1.087-2.238c-1.85-1.153-4.254-1.968-5.493-1.862-1.24.106-.764 1.086 1.086 2.239" fill="#808080" stroke-linecap="round" stroke-linejoin="round"/>
  </g>
  <path d="m-2.273-24.496 3.465-1.204.368 2.502z" fill="#a3a3a3" stroke-linecap="round" stroke-linejoin="round"/>
  <g stroke="#878787">
   <path d="m-12.573 28.315-.39.878" stroke-width="9.1"/>
   <path d="m-15.166 29.381c-1.851-1.153-2.326-2.132-1.087-2.238 1.24-.106 3.643.708 5.494 1.861 1.85 1.153 2.326 2.132 1.086 2.238-1.239.106-3.642-.708-5.493-1.861" fill="#878787" stroke-linecap="round" stroke-linejoin="round" stroke-width=".5"/>
   <path d="m-14.776 28.503c1.85 1.153 4.254 1.967 5.493 1.861 1.24-.106.764-1.085-1.087-2.238-1.85-1.153-4.254-1.967-5.493-1.861s-.764 1.085 1.087 2.238" fill="#878787" stroke-linecap="round" stroke-linejoin="round" stroke-width=".5"/>
  </g>
  <g stroke-linecap="round" stroke-linejoin="round">
   <path d="m17.511 4.674-2.707 2.766-22.189-13.825 2.707-2.765z" fill="#8f8f8f"/>
   <path d="m-16.71-9.748 8.199-.701 1.126 4.064-8.199.701z" fill="#8f8f8f"/>
   <path d="m23.749-9.373-6.238 14.047-22.189-13.824 6.238-14.048z" fill="#757575"/>
  </g>
  <path d="m-1.754 3.951-10.721 24.144" stroke="#91512b" stroke-width="8.6"/>
  <g stroke-linecap="round" stroke-linejoin="round">
   <path d="m-14.679 28.284c-1.851-1.153-2.326-2.133-1.087-2.239 1.24-.106 3.643.709 5.494 1.862s2.326 2.132 1.087 2.238c-1.24.106-3.643-.708-5.494-1.861" fill="#91512b"/>
   <path d="m-3.958 4.139c1.851 1.153 4.254 1.968 5.494 1.862 1.239-.106.764-1.086-1.087-2.239s-4.254-1.967-5.493-1.861c-1.24.106-.764 1.085 1.086 2.238" fill="#91512b"/>
   <path d="m-16.71-9.748 8.199-.701 6.238-14.047-8.199.701z" fill="#757575"/>
   <path d="m1.192-25.7.368 2.502 22.189 13.825-.368-2.503z" fill="#8f8f8f"/>
   <path d="m-10.472-23.795 8.199-.701 3.465-1.204-8.199.701z" fill="#8f8f8f"/>
  </g>
  <g stroke="#878787">
   <path d="m-.487 1.097-1.17 2.634" stroke-width="9.1"/>
   <path d="m-3.86 3.92c-1.851-1.153-2.326-2.132-1.087-2.238s3.643.708 5.493 1.861c1.851 1.153 2.327 2.132 1.087 2.238-1.239.106-3.643-.708-5.493-1.861" fill="#878787" stroke-linecap="round" stroke-linejoin="round" stroke-width=".5"/>
   <path d="m-2.691 1.286c1.851 1.153 4.254 1.967 5.494 1.861 1.239-.106.764-1.085-1.087-2.238s-4.254-1.967-5.493-1.861c-1.24.106-.764 1.085 1.086 2.238" fill="#878787" stroke-linecap="round" stroke-linejoin="round" stroke-width=".5"/>
  </g>
  <g stroke-linecap="round" stroke-linejoin="round">
   <path d="m18.269 6.236-3.465 1.204 2.707-2.766z" fill="#a3a3a3"/>
   <path d="m14.804 7.44-8.199.701-22.189-13.825 8.199-.701z" fill="#757575"/>
   <path d="m-16.71-9.748 1.126 4.064-.367-2.502z" fill="#a3a3a3"/>
   <path d="m24.507-7.812-6.238 14.048-.758-1.562 6.238-14.047z" fill="#8f8f8f"/>
   <path d="m-10.472-23.795-6.238 14.047.759 1.562 6.237-14.048z" fill="#8f8f8f"/>
   <path d="m24.507-7.812-1.126-4.064.368 2.503z" fill="#a3a3a3"/>
   <path d="m23.381-11.876-8.199.701-22.189-13.824 8.199-.701z" fill="#757575"/>
   <path d="m-10.472-23.795 3.465-1.204-2.707 2.765z" fill="#a3a3a3"/>
   <path d="m18.269 6.236-8.199.701-3.465 1.204 8.199-.701z" fill="#8f8f8f"/>
   <path d="m-15.951-8.186.367 2.502 22.189 13.825-.367-2.503z" fill="#8f8f8f"/>
   <path d="m18.269 6.236-8.199.701 6.238-14.048 8.199-.701z" fill="#757575"/>
   <path d="m-9.714-22.234-6.237 14.048 22.189 13.824 6.237-14.047z" fill="#757575"/>
   <path d="m2.545-12.79-4.583-1.659c-.076-.027-.156.008-.195.085 0 0-2.463 4.808-2.463 4.808-.058.114-.005.263.107.298l1.296.416c.122.039.171.21.093.321 0 0-1.205 1.722-1.205 1.722-.081.116-.024.294.105.325l.827.196c.128.031.186.209.104.325 0 0-1.899 2.701-1.899 2.701-.118.169.056.41.22.304l.11-.07 6.849-5.661c.115-.095.083-.304-.054-.354l-1.312-.48c-.123-.045-.165-.224-.078-.331 0 0 2.157-2.615 2.157-2.615.087-.106.045-.286-.079-.331z" fill="#f7bc26" stroke="#f7bc26" stroke-width=".6"/>
   <path d="m24.507-7.812-8.199.701-1.126-4.064 8.199-.701z" fill="#8f8f8f"/>
   <path d="m15.182-11.175-2.707 2.766-22.189-13.825 2.707-2.765z" fill="#8f8f8f"/>
   <path d="m10.07 6.937-3.465 1.204-.367-2.503z" fill="#a3a3a3"/>
   <path d="m16.308-7.111-6.238 14.048-3.832-1.299 6.237-14.047z" fill="#8f8f8f"/>
   <path d="m16.308-7.111-1.126-4.064-2.707 2.766z" fill="#a3a3a3"/>
  </g>
 </g>
</svg>
