<svg class="hammer" width="39.731" height="51.413" version="1.1" viewBox="-50 -50 39.731 51.413" xmlns="http://www.w3.org/2000/svg">
 <g transform="rotate(-13 -125.75 109.76)">
  <g stroke-linecap="round" stroke-linejoin="round">
   <path d="m-15.603-3.737 2.942 3.055 0.586-3.424z" fill="#b5b5b5"/>
   <path d="m-15.603-19.54v15.803l3.528-0.369v-15.803z" fill="#949494"/>
   <path d="m16.367-3.221-0.585 3.424-28.443-0.885 0.586-3.424z" fill="#949494"/>
   <path d="m16.367-19.024v15.803l-28.442-0.885v-15.803z" fill="#757575"/>
   <path d="m-0.197-18.019 5.342 1.22c0.088 0.02 0.153 0.097 0.158 0.187 0 0 0.329 5.599 0.329 5.599 7e-3 0.132-0.113 0.231-0.24 0.197l-1.487-0.392c-0.14-0.037-0.265 0.083-0.237 0.225l0.442 2.192c0.03 0.148-0.107 0.269-0.249 0.221l-0.919-0.309c-0.142-0.048-0.279 0.073-0.249 0.221l0.702 3.444c0.044 0.216-0.238 0.324-0.356 0.137l-0.079-0.125s-4.353-8.884-4.353-8.884c-0.073-0.149 0.053-0.312 0.213-0.276 0 0 1.53 0.345 1.53 0.345 0.144 0.033 0.267-0.098 0.226-0.241l-0.999-3.52c-0.041-0.143 0.082-0.274 0.226-0.241z" fill="#f7bc26" stroke="#f7bc26" stroke-width=".6"/>
   <path d="m-15.603-19.54 2.942-2.871 0.586 2.502z" fill="#b5b5b5"/>
   <path d="m-12.661-22.411 0.586 2.502 28.442 0.885-0.585-2.502z" fill="#949494"/>
   <path d="m18.724-2.669-2.942 2.872 0.585-3.424z" fill="#b5b5b5"/>
   <path d="m18.724-18.472v15.803l-2.357-0.552v-15.803z" fill="#949494"/>
  </g>
  <g stroke="#757575">
   <path d="m0 22.914v2.963" stroke-width="9.6"/>
   <path d="m-0.839 26.537c-2.372-0.074-3.85-0.42-3.378-0.791 0.471-0.371 2.684-0.602 5.056-0.528s3.85 0.42 3.378 0.791c-0.471 0.371-2.684 0.602-5.056 0.528" fill="#757575" stroke-linecap="round" stroke-linejoin="round"/>
   <path d="m-0.839 23.574c2.372 0.074 4.585-0.157 5.056-0.528 0.472-0.372-1.006-0.718-3.378-0.791-2.372-0.074-4.585 0.157-5.056 0.528-0.472 0.371 1.006 0.717 3.378 0.791" fill="#757575" stroke-linecap="round" stroke-linejoin="round"/>
  </g>
  <g stroke="#808080">
   <path d="m0 21.186v0.988" stroke-width="9.1"/>
   <path d="m-0.839 22.833c-2.372-0.073-3.85-0.42-3.378-0.791 0.471-0.371 2.684-0.602 5.056-0.528s3.85 0.42 3.378 0.791c-0.471 0.371-2.684 0.602-5.056 0.528" fill="#808080" stroke-linecap="round" stroke-linejoin="round" stroke-width=".5"/>
   <path d="m-0.839 21.846c2.372 0.073 4.585-0.158 5.056-0.529 0.472-0.371-1.006-0.717-3.378-0.791s-4.585 0.158-5.056 0.529c-0.472 0.371 1.006 0.717 3.378 0.791" fill="#808080" stroke-linecap="round" stroke-linejoin="round" stroke-width=".5"/>
  </g>
  <path d="m-18.724-1.282 3.121-2.455 2.942 3.055-3.121 2.455z" fill="#949494" stroke-linecap="round" stroke-linejoin="round"/>
  <path d="m18.724-18.472-2.942-3.054 0.585 2.502z" fill="#b5b5b5" stroke-linecap="round" stroke-linejoin="round"/>
  <path d="m0 4.445v16.494" stroke="#9e4d1f" stroke-width="8.6"/>
  <g stroke-linecap="round" stroke-linejoin="round">
   <path d="m-0.839 21.599c-2.372-0.074-3.85-0.42-3.378-0.791 0.471-0.371 2.684-0.603 5.056-0.529s3.85 0.42 3.378 0.791c-0.471 0.371-2.684 0.603-5.056 0.529" fill="#9e4d1f"/>
   <path d="m-0.839 5.104c2.372 0.074 4.585-0.157 5.056-0.528 0.472-0.371-1.006-0.717-3.378-0.791s-4.585 0.157-5.056 0.528c-0.472 0.371 1.006 0.718 3.378 0.791" fill="#9e4d1f"/>
   <path d="m-18.724-1.282 3.121-2.455v-15.803l-3.121 2.455z" fill="#757575"/>
  </g>
  <g stroke="#808080">
   <path d="m0 1.235v2.963" stroke-width="9.1"/>
   <path d="m-0.839 4.857c-2.372-0.073-3.85-0.419-3.378-0.791 0.471-0.371 2.684-0.602 5.056-0.528s3.85 0.42 3.378 0.791c-0.471 0.371-2.684 0.602-5.056 0.528" fill="#808080" stroke-linecap="round" stroke-linejoin="round" stroke-width=".5"/>
   <path d="m-0.839 1.894c2.372 0.074 4.585-0.157 5.056-0.528 0.472-0.371-1.006-0.717-3.378-0.791s-4.585 0.157-5.056 0.528c-0.472 0.371 1.006 0.718 3.378 0.791" fill="#808080" stroke-linecap="round" stroke-linejoin="round" stroke-width=".5"/>
  </g>
  <g stroke-linecap="round" stroke-linejoin="round">
   <path d="m15.782 0.203-3.121 2.455-28.443-0.885 3.121-2.455z" fill="#757575"/>
   <path d="m-18.724-17.085 3.121-2.455 2.942-2.871-3.121 2.454z" fill="#949494"/>
   <path d="m18.724-2.669-3.121 2.455-2.942 2.872 3.121-2.455z" fill="#949494"/>
   <path d="m15.782-21.526-3.121 2.454-28.443-0.885 3.121-2.454z" fill="#757575"/>
   <path d="m18.724-2.669-3.121 2.455v-15.803l3.121-2.455z" fill="#757575"/>
   <path d="m-18.724-1.282 2.942 3.055-0.585-2.503z" fill="#b5b5b5"/>
   <path d="m18.724-18.472-3.121 2.455-2.942-3.055 3.121-2.454z" fill="#949494"/>
   <path d="m-18.724-17.085v15.803l2.357 0.552v-15.803z" fill="#949494"/>
   <path d="m-18.724-17.085 2.942-2.872-0.585 3.424z" fill="#b5b5b5"/>
   <path d="m-16.367-0.73 0.585 2.503 28.443 0.885-0.586-2.503z" fill="#949494"/>
   <path d="m15.603-0.214-2.942 2.872-0.586-2.503z" fill="#b5b5b5"/>
   <path d="m-16.367-16.533v15.803l28.442 0.885v-15.803z" fill="#757575"/>
   <path d="m0.197-14.45-5.342 0.888c-0.088 0.014-0.153 0.087-0.158 0.177 0 0-0.329 5.579-0.329 5.579-7e-3 0.131 0.113 0.237 0.24 0.211l1.487-0.299c0.14-0.028 0.265 0.099 0.237 0.239l-0.442 2.166c-0.03 0.145 0.107 0.275 0.249 0.236l0.919-0.253c0.142-0.039 0.279 0.091 0.249 0.237l-0.702 3.401c-0.044 0.213 0.238 0.338 0.356 0.158l0.079-0.12s4.353-8.612 4.353-8.612c0.073-0.145-0.053-0.316-0.213-0.29 0 0-1.53 0.25-1.53 0.25-0.144 0.024-0.267-0.115-0.226-0.255l0.999-3.457c0.041-0.141-0.082-0.28-0.226-0.256z" fill="#f7bc26" stroke="#f7bc26" stroke-width=".6"/>
   <path d="m12.661-19.072-0.586 3.424-28.442-0.885 0.585-3.424z" fill="#949494"/>
   <path d="m15.603-16.017v15.803l-3.528 0.369v-15.803z" fill="#949494"/>
   <path d="m15.603-16.017-2.942-3.055-0.586 3.424z" fill="#b5b5b5"/>
  </g>
 </g>
</svg>
