<?xml version="1.0" encoding="utf-8"?>
<!-- Generator: Adobe Illustrator 25.4.1, SVG Export Plug-In . SVG Version: 6.00 Build 0)  -->
<svg version="1.1" id="Capa_1" xmlns="http://www.w3.org/2000/svg" xmlns:xlink="http://www.w3.org/1999/xlink" x="0px" y="0px"
	 viewBox="0 0 200 112" style="enable-background:new 0 0 200 112;" xml:space="preserve">
<style type="text/css">
	.st0{fill:#C8030F;}
	.st1{fill-rule:evenodd;clip-rule:evenodd;fill:#FFFFFF;}
</style>
<path class="st0" d="M10.8,111.1c-6,0-10.8-5-10.8-11.2V39.1C0,17.5,16.8,0,37.6,0h150.2c6,0,10.8,5,10.8,11.2v60.8
	c0,21.6-16.8,39.1-37.6,39.1H10.8z"/>
<path class="st1" d="M30.3,20.9v62.4H53c5.7,0,15.1-1.1,22.7-9.7c7.7-8.6,8.4-17.4,8.4-22.4c0-5-0.7-13-9.7-22
	c-8.7-8.7-19.1-8.5-21.7-8.4c-0.2,0-0.3,0-0.4,0C50.8,20.9,30.3,20.9,30.3,20.9L30.3,20.9z M45.2,36.3h9.2c4.2,0,14.5,4.5,14.5,15.4
	c0,11.7-10.4,16.6-14.5,16.6h-9.2l-0.1-16.6L45.2,36.3z M90.9,83.3v-45l13.5-7.1v52.1H90.9z"/>
<path class="st1" d="M114.4,61.1c0-14.4,11-26.4,25.1-26.4v0c14,0,25.4,11.7,25.4,26V86l-11.2-5.6c0,0-6.1,6.4-14.2,6.4
	C125.1,86.8,114.4,75.5,114.4,61.1z M128.7,60.9c0,6.2,4.9,11.2,11,11.2v0c6.1,0,11-5,11-11.2c0-6.2-4.9-11.2-11-11.2
	C133.6,49.7,128.7,54.7,128.7,60.9z"/>
</svg>
