<svg width="81" height="26" fill="#e6252c" version="1.1" xmlns="http://www.w3.org/2000/svg">
<path d="m81 19v-19h-81v26h70v-7"/>
<path d="m56.244 21c0 1.104-0.896 2-2 2h-3.244c-1.104 0-2-0.896-2-2v-17c0-0.55 0.447-1 1-1h1.877c0.553 0 1 0.45 1 1v7.05l3.367 3.37zm10.43 0c0 1.104-0.897 2-2 2h-3.45c-1.104 0-2-0.896-2-2v-16c0-1.104 0.896-2 2-2h14.776c1.104 0 2 0.896 2 2v8.435c0 1.104-0.896 2-2 2h-8.327c-0.553 0-1 0.447-1 1v4.565zm-3.577-10.443c0 0.552 0.447 1 1 1h9.018c0.553 0 1-0.448 1-1v-2.68c0-0.55-0.447-1-1-1h-9.018c-0.553 0-1 0.45-1 1zm-22.097-7.557c-0.553 0-1 0.448-1 1v5.47c0 1.103-0.897 2-2 2h-7.124c-1.104 0-2-0.897-2-2v-5.47c0-0.552-0.448-1-1-1h-1.876c-0.553 0-1 0.448-1 1v17c0 1.104 0.895 2 2 2h3.346c1.104 0 2-0.896 2-2v-3.653c0-1.104 0.896-2 2-2h3.654c1.103 0 2 0.896 2 2v4.653c0 0.553 0.447 1 1 1h1.876c0.553 0 1-0.447 1-1v-18c0-0.552-0.447-1-1-1zm-19.428 18c0 1.104-0.896 2-2 2h-14.572c-1.104 0-2-0.896-2-2v-16c0-1.105 0.896-2 2-2h14.572c1.104 0 2 0.895 2 2v3.73c0 0.553-0.448 1-1 1h-2.022c-0.473 0-0.856-0.382-0.856-0.854v-1c0-0.552-0.448-1-1-1h-7.817c-1.104 0-2 0.896-2 2v2.174l3.368 3.367v2.704c0 1.107 0.896 2 2 2h4.45c0.55 0 1-0.444 1-1v-0.493c0-0.553 0.447-1 1-1h1.877c0.552 0 1 0.447 1 1z" fill="#fff"/>
</svg>
