<?xml version="1.0" encoding="UTF-8"?>
<svg width="17.284" height="17.284" version="1.1" viewBox="0 0 17.284 17.284" xml:space="preserve" xmlns="http://www.w3.org/2000/svg" xmlns:cc="http://creativecommons.org/ns#" xmlns:dc="http://purl.org/dc/elements/1.1/" xmlns:rdf="http://www.w3.org/1999/02/22-rdf-syntax-ns#"><defs><clipPath id="clipPath1075"><path d="m789.58 466.67h62.5v62.5h-62.5z" clip-rule="evenodd"/></clipPath></defs><g fill="#323d48" transform="matrix(.33185 0 0 .33185 -263.75 -156.59)" clip-path="url(#clipPath1075)"><g transform="matrix(2.6042,0,0,2.6042,789.58,466.67)"><path d="m12 2c5.523 0 10 4.477 10 10s-4.477 10-10 10-10-4.477-10-10h2c0 4.418 3.582 8 8 8s8-3.582 8-8-3.582-8-8-8c-2.464 0-4.668 1.114-6.135 2.865l2.135 2.135h-6v-6l2.447 2.446c1.833-2.11 4.537-3.446 7.553-3.446zm1 5v4.585l3.243 3.243-1.415 1.415-3.828-3.83v-5.413z"/></g></g></svg>
