<?xml version="1.0" encoding="UTF-8"?>
<!-- Created with Inkscape (http://www.inkscape.org/) -->
<svg width="116.15" height="32" version="1.1" viewBox="0 0 116.15 32" xml:space="preserve" xmlns="http://www.w3.org/2000/svg" xmlns:cc="http://creativecommons.org/ns#" xmlns:dc="http://purl.org/dc/elements/1.1/" xmlns:rdf="http://www.w3.org/1999/02/22-rdf-syntax-ns#"><metadata><rdf:RDF><cc:Work rdf:about=""><dc:format>image/svg+xml</dc:format><dc:type rdf:resource="http://purl.org/dc/dcmitype/StillImage"/><dc:title/></cc:Work></rdf:RDF></metadata><defs><clipPath id="clipPath1075"><path d="m789.58 466.67h62.5v62.5h-62.5z" clip-rule="evenodd"/></clipPath><clipPath id="clipPath1087"><path d="m733.33 429.17h1700v2753.1h-1700z" clip-rule="evenodd"/></clipPath></defs><path d="m0.51852 22.296v-16.593c0-0.6876 0.13157-1.349 0.3947-1.9843 0.26313-0.63526 0.63779-1.196 1.124-1.6822 0.48623-0.4862 1.0469-0.86089 1.6822-1.124 0.63526-0.26313 1.2967-0.3947 1.9843-0.3947h104.74c0.68759 0 1.349 0.13157 1.9843 0.3947 0.63526 0.26314 1.196 0.63779 1.6822 1.124 0.4862 0.48623 0.86089 1.0469 1.124 1.6822 0.26312 0.63526 0.3947 1.2967 0.3947 1.9843v16.593c0 0.6876-0.13158 1.349-0.3947 1.9843-0.26313 0.63526-0.63782 1.196-1.124 1.6822-0.4862 0.4862-1.0469 0.86089-1.6822 1.124s-1.2967 0.3947-1.9843 0.3947h-104.74c-0.6876-4e-6 -1.349-0.13157-1.9843-0.3947-0.63526-0.26313-1.196-0.63782-1.6822-1.124-0.4862-0.4862-0.86089-1.0469-1.124-1.6822-0.26313-0.63526-0.3947-1.2967-0.3947-1.9843z" fill="#555" stroke-width=".33185"/><path d="m0.51852 22.296v-16.593c0-0.6876 0.13157-1.349 0.3947-1.9843 0.26313-0.63526 0.63779-1.196 1.124-1.6822 0.48623-0.4862 1.0469-0.86089 1.6822-1.124 0.63526-0.26313 1.2967-0.3947 1.9843-0.3947h104.74c0.68759 0 1.349 0.13157 1.9843 0.3947 0.63526 0.26314 1.196 0.63779 1.6822 1.124 0.4862 0.48623 0.86089 1.0469 1.124 1.6822 0.26312 0.63526 0.3947 1.2967 0.3947 1.9843v16.593c0 0.6876-0.13158 1.349-0.3947 1.9843-0.26313 0.63526-0.63782 1.196-1.124 1.6822-0.4862 0.4862-1.0469 0.86089-1.6822 1.124s-1.2967 0.3947-1.9843 0.3947h-104.74c-0.6876-4e-6 -1.349-0.13157-1.9843-0.3947-0.63526-0.26313-1.196-0.63782-1.6822-1.124-0.4862-0.4862-0.86089-1.0469-1.124-1.6822-0.26313-0.63526-0.3947-1.2967-0.3947-1.9843z" fill="none" stroke="#555" stroke-miterlimit="10" stroke-width="1.037"/><g transform="matrix(.33185 0 0 .33185 -252.17 -151.24)" clip-path="url(#clipPath1075)"><g transform="matrix(2.6042,0,0,2.6042,789.58,466.67)"><path d="m12 2c5.523 0 10 4.477 10 10s-4.477 10-10 10-10-4.477-10-10h2c0 4.418 3.582 8 8 8s8-3.582 8-8-3.582-8-8-8c-2.464 0-4.668 1.114-6.135 2.865l2.135 2.135h-6v-6l2.447 2.446c1.833-2.11 4.537-3.446 7.553-3.446zm1 5v4.585l3.243 3.243-1.415 1.415-3.828-3.83v-5.413z" fill="#fff"/></g></g><g transform="matrix(.33185 0 0 .33185 -252.17 -151.24)" clip-path="url(#clipPath1087)"><g transform="matrix(3.125,0,0,3.125,733.33,429.17)"><g transform="translate(42,27)" fill="#fff" aria-label="Changelog"><path d="m5.5687-8.9578q-1.6453 0-2.5594 1.0617-0.91406 1.0547-0.91406 2.8969 0 1.8211 0.94922 2.932 0.95625 1.1039 2.5805 1.1039 2.0812 0 3.1289-2.0602l1.0969 0.54844q-0.61172 1.2797-1.7227 1.9477-1.1039 0.66797-2.5664 0.66797-1.4977 0-2.5945-0.61875-1.0898-0.62578-1.6664-1.7789-0.56953-1.1602-0.56953-2.7422 0-2.3695 1.2797-3.7125 1.2797-1.343 3.5438-1.343 1.582 0 2.6437 0.61875 1.0617 0.61875 1.5609 1.8352l-1.2727 0.42187q-0.34453-0.86484-1.1109-1.3219-0.75938-0.45703-1.807-0.45703z" style=""/><path d="m12.229-6.307q0.40781-0.74531 0.97734-1.0898 0.57656-0.35156 1.4555-0.35156 1.2375 0 1.8211 0.61875 0.59062 0.61172 0.59062 2.0602v5.0695h-1.2727v-4.8234q0-0.80156-0.14766-1.1883-0.14766-0.39375-0.48516-0.57656t-0.93516-0.18281q-0.89297 0-1.4344 0.61875-0.53438 0.61875-0.53438 1.6664v4.4859h-1.2656v-10.434h1.2656v2.7141q0 0.42891-0.02812 0.88594-0.02109 0.45703-0.02812 0.52734z" style=""/><path d="m20.911 0.14062q-1.1461 0-1.7227-0.60469-0.57656-0.60469-0.57656-1.6594 0-1.1812 0.77344-1.8141 0.78047-0.63281 2.5102-0.675l1.7086-0.028125v-0.41484q0-0.92812-0.39375-1.3289-0.39375-0.40078-1.2375-0.40078-0.85078 0-1.2375 0.28828-0.38672 0.28828-0.46406 0.92109l-1.3219-0.11953q0.32344-2.0531 3.0516-2.0531 1.4344 0 2.1586 0.66094 0.72422 0.65391 0.72422 1.8984v3.2766q0 0.5625 0.14766 0.85078 0.14766 0.28125 0.5625 0.28125 0.18281 0 0.41484-0.049219v0.7875q-0.47812 0.1125-0.97734 0.1125-0.70312 0-1.0266-0.36562-0.31641-0.37266-0.35859-1.1602h-0.04219q-0.48515 0.87187-1.132 1.2375-0.63984 0.35859-1.5609 0.35859zm0.28828-0.94922q0.69609 0 1.2375-0.31641 0.54141-0.31641 0.85078-0.86484 0.31641-0.55547 0.31641-1.1391v-0.62578l-1.3852 0.028125q-0.89297 0.014063-1.357 0.18281-0.45703 0.16875-0.70312 0.52031-0.24609 0.35156-0.24609 0.92109 0 0.61875 0.33047 0.95625 0.3375 0.3375 0.95625 0.3375z" style=""/><path d="m31.801 0v-4.8234q0-0.75234-0.14766-1.1672-0.14766-0.41484-0.47109-0.59766-0.32344-0.18281-0.94922-0.18281-0.91406 0-1.4414 0.62578-0.52734 0.62578-0.52734 1.7367v4.4086h-1.2656v-5.9836q0-1.3289-0.04219-1.6242h1.1953q7e-3 0.035156 0.01406 0.18984 7e-3 0.15469 0.01406 0.35859 0.01406 0.19688 0.02812 0.75234h0.02109q0.43594-0.7875 1.0055-1.1109 0.57656-0.33047 1.4273-0.33047 1.2516 0 1.8281 0.62578 0.58359 0.61875 0.58359 2.0531v5.0695z" style=""/><path d="m37.853 2.9883q-1.2445 0-1.9828-0.49219-0.73828-0.48516-0.94922-1.3852l1.2727-0.18281q0.12656 0.52734 0.55547 0.80859 0.43594 0.28828 1.1391 0.28828 1.8914 0 1.8914-2.2148v-1.2234h-0.01406q-0.3586 0.73125-0.98438 1.1039-0.62578 0.36562-1.4625 0.36562-1.3992 0-2.0602-0.92812-0.65391-0.92813-0.65391-2.918 0-2.018 0.70312-2.9742 0.71016-0.96328 2.1516-0.96328 0.80859 0 1.3992 0.37266 0.59766 0.36562 0.92109 1.0477h0.01406q0-0.21094 0.02812-0.73125 0.02813-0.52031 0.05625-0.56953h1.2023q-0.04219 0.37969-0.04219 1.575v5.8148q0 3.2062-3.1852 3.2062zm1.9266-6.7922q0-0.92812-0.25312-1.5961-0.25312-0.675-0.71719-1.0266-0.45703-0.35859-1.0406-0.35859-0.97031 0-1.4133 0.70312-0.44297 0.70312-0.44297 2.2781 0 1.5609 0.41484 2.243 0.41484 0.68203 1.4203 0.68203 0.59766 0 1.0617-0.35156 0.46406-0.35156 0.71719-1.0055 0.25312-0.66094 0.25312-1.568z" style=""/><path d="m43.941-3.5367q0 1.3078 0.54141 2.018 0.54141 0.71016 1.582 0.71016 0.82266 0 1.3148-0.33047 0.49922-0.33047 0.675-0.83672l1.1109 0.31641q-0.68203 1.8-3.1008 1.8-1.6875 0-2.5734-1.0055-0.87891-1.0055-0.87891-2.9883 0-1.8844 0.87891-2.8898 0.88594-1.0055 2.5242-1.0055 3.3539 0 3.3539 4.043v0.16875zm4.1203-0.97031q-0.10547-1.2023-0.61172-1.7508-0.50625-0.55547-1.4555-0.55547-0.92109 0-1.4625 0.61875-0.53438 0.61172-0.57656 1.6875z" style=""/><path d="m50.97 0v-10.434h1.2656v10.434z" style=""/><path d="m60.404-3.8109q0 1.9969-0.87891 2.9742-0.87891 0.97734-2.5523 0.97734-1.6664 0-2.5172-1.0125-0.85078-1.0195-0.85078-2.9391 0-3.9375 3.4102-3.9375 1.7438 0 2.5664 0.96328 0.82266 0.95625 0.82266 2.9742zm-1.3289 0q0-1.575-0.47109-2.2852-0.46406-0.71719-1.568-0.71719-1.1109 0-1.6102 0.73125-0.49219 0.72422-0.49219 2.2711 0 1.5047 0.48516 2.2641 0.49219 0.75234 1.5398 0.75234 1.1391 0 1.6242-0.73125 0.49219-0.73125 0.49219-2.2852z" style=""/><path d="m64.853 2.9883q-1.2445 0-1.9828-0.49219-0.73828-0.48516-0.94922-1.3852l1.2727-0.18281q0.12656 0.52734 0.55547 0.80859 0.43594 0.28828 1.1391 0.28828 1.8914 0 1.8914-2.2148v-1.2234h-0.01406q-0.3586 0.73125-0.98438 1.1039-0.62578 0.36562-1.4625 0.36562-1.3992 0-2.0602-0.92812-0.65391-0.92813-0.65391-2.918 0-2.018 0.70312-2.9742 0.71016-0.96328 2.1516-0.96328 0.80859 0 1.3992 0.37266 0.59766 0.36562 0.92109 1.0477h0.01406q0-0.21094 0.02813-0.73125 0.02812-0.52031 0.05625-0.56953h1.2023q-0.04219 0.37969-0.04219 1.575v5.8148q0 3.2062-3.1852 3.2062zm1.9266-6.7922q0-0.92812-0.25312-1.5961-0.25312-0.675-0.71719-1.0266-0.45703-0.35859-1.0406-0.35859-0.97031 0-1.4133 0.70312-0.44297 0.70312-0.44297 2.2781 0 1.5609 0.41484 2.243 0.41484 0.68203 1.4203 0.68203 0.59766 0 1.0617-0.35156 0.46406-0.35156 0.71719-1.0055 0.25312-0.66094 0.25312-1.568z" style=""/></g>
</g></g></svg>
