<?xml version="1.0" encoding="UTF-8"?>
<svg width="725.6" height="198.3" version="1.1" viewBox="0 0 725.6 198.3" xmlns="http://www.w3.org/2000/svg" xmlns:cc="http://creativecommons.org/ns#" xmlns:dc="http://purl.org/dc/elements/1.1/" xmlns:rdf="http://www.w3.org/1999/02/22-rdf-syntax-ns#">
 <metadata>
  <rdf:RDF>
   <cc:Work rdf:about="">
    <dc:format>image/svg+xml</dc:format>
    <dc:type rdf:resource="http://purl.org/dc/dcmitype/StillImage"/>
    <dc:title/>
   </cc:Work>
  </rdf:RDF>
 </metadata>
 <style>.st0{fill:#7289DA;}</style>
 <path class="st0" d="m105.9 83.2c-5.7 0-10.2 4.9-10.2 11s4.6 11 10.2 11c5.7 0 10.2-4.9 10.2-11s-4.6-11-10.2-11zm-36.5 0c-5.7 0-10.2 4.9-10.2 11s4.6 11 10.2 11c5.7 0 10.2-4.9 10.2-11 0.1-6.1-4.5-11-10.2-11z" fill="#7289da"/>
 <path class="st0" d="m154.5 0h-134c-11.3 0-20.5 9.2-20.5 20.5v134c0 11.3 9.2 20.5 20.5 20.5h113.4l-5.3-18.3 12.8 11.8 12.1 11.1 21.6 18.7v-177.8c-0.1-11.3-9.3-20.5-20.6-20.5zm-38.6 129.5s-3.6-4.3-6.6-8c13.1-3.7 18.1-11.8 18.1-11.8-4.1 2.7-8 4.6-11.5 5.9-5 2.1-9.8 3.4-14.5 4.3-9.6 1.8-18.4 1.3-25.9-0.1-5.7-1.1-10.6-2.6-14.7-4.3-2.3-0.9-4.8-2-7.3-3.4-0.3-0.2-0.6-0.3-0.9-0.5-0.2-0.1-0.3-0.2-0.4-0.2-1.8-1-2.8-1.7-2.8-1.7s4.8 7.9 17.5 11.7c-3 3.8-6.7 8.2-6.7 8.2-22.1-0.7-30.5-15.1-30.5-15.1 0-31.9 14.4-57.8 14.4-57.8 14.4-10.7 28-10.4 28-10.4l1 1.2c-18 5.1-26.2 13-26.2 13s2.2-1.2 5.9-2.8c10.7-4.7 19.2-5.9 22.7-6.3 0.6-0.1 1.1-0.2 1.7-0.2 6.1-0.8 13-1 20.2-0.2 9.5 1.1 19.7 3.9 30.1 9.5 0 0-7.9-7.5-24.9-12.6l1.4-1.6s13.7-0.3 28 10.4c0 0 14.4 25.9 14.4 57.8 0-0.1-8.4 14.3-30.5 15zm151-86.7h-33.2v37.3l22.1 19.9v-36.2h11.8c7.5 0 11.2 3.6 11.2 9.4v27.7c0 5.8-3.5 9.7-11.2 9.7h-34v21.1h33.2c17.8 0.1 34.5-8.8 34.5-29.2v-29.8c0.1-20.8-16.6-29.9-34.4-29.9zm174 59.7v-30.6c0-11 19.8-13.5 25.8-2.5l18.3-7.4c-7.2-15.8-20.3-20.4-31.2-20.4-17.8 0-35.4 10.3-35.4 30.3v30.6c0 20.2 17.6 30.3 35 30.3 11.2 0 24.6-5.5 32-19.9l-19.6-9c-4.8 12.3-24.9 9.3-24.9-1.4zm-60.5-26.4c-6.9-1.5-11.5-4-11.8-8.3 0.4-10.3 16.3-10.7 25.6-0.8l14.7-11.3c-9.2-11.2-19.6-14.2-30.3-14.2-16.3 0-32.1 9.2-32.1 26.6 0 16.9 13 26 27.3 28.2 7.3 1 15.4 3.9 15.2 8.9-0.6 9.5-20.2 9-29.1-1.8l-14.2 13.3c8.3 10.7 19.6 16.1 30.2 16.1 16.3 0 34.4-9.4 35.1-26.6 1-21.7-14.8-27.2-30.6-30.1zm-67 55.5h22.4v-88.8h-22.4zm377.7-88.8h-33.2v37.3l22.1 19.9v-36.2h11.8c7.5 0 11.2 3.6 11.2 9.4v27.7c0 5.8-3.5 9.7-11.2 9.7h-34v21.1h33.3c17.8 0.1 34.5-8.8 34.5-29.2v-29.8c0-20.8-16.7-29.9-34.5-29.9zm-162.9-1.2c-18.4 0-36.7 10-36.7 30.5v30.3c0 20.3 18.4 30.5 36.9 30.5 18.4 0 36.7-10.2 36.7-30.5v-30.3c0-20.4-18.5-30.5-36.9-30.5zm14.4 60.8c0 6.4-7.2 9.7-14.3 9.7-7.2 0-14.4-3.1-14.4-9.7v-30.3c0-6.5 7-10 14-10 7.3 0 14.7 3.1 14.7 10zm102.9-30.3c-0.5-20.8-14.7-29.2-33-29.2h-35.5v88.8h22.7v-28.2h4l20.6 28.2h28l-24.2-30.5c10.7-3.4 17.4-12.7 17.4-29.1zm-32.6 12h-13.2v-20.3h13.2c14.1 0 14.1 20.3 0 20.3z" fill="#7289da"/>
</svg>
