<?xml version="1.0" encoding="UTF-8"?>
<svg width="117.09" height="32" version="1.1" viewBox="0 0 117.09 32" xmlns="http://www.w3.org/2000/svg" xmlns:cc="http://creativecommons.org/ns#" xmlns:dc="http://purl.org/dc/elements/1.1/" xmlns:rdf="http://www.w3.org/1999/02/22-rdf-syntax-ns#">
 <metadata>
  <rdf:RDF>
   <cc:Work rdf:about="">
    <dc:format>image/svg+xml</dc:format>
    <dc:type rdf:resource="http://purl.org/dc/dcmitype/StillImage"/>
    <dc:title/>
   </cc:Work>
  </rdf:RDF>
 </metadata>
 <style>.st0{fill:#7289DA;}</style>
 <path class="st0" d="m17.089 13.426c-0.91981 0-1.646 0.79071-1.646 1.7751s0.7423 1.7751 1.646 1.7751c0.91981 0 1.646-0.79071 1.646-1.7751s-0.7423-1.7751-1.646-1.7751zm-5.89 0c-0.91981 0-1.646 0.79071-1.646 1.7751s0.7423 1.7751 1.646 1.7751c0.91981 0 1.646-0.79071 1.646-1.7751 0.01614-0.98436-0.72616-1.7751-1.646-1.7751z" fill="#7289da" stroke-width=".16137"/>
 <path class="st0" d="m24.932 0h-21.624c-1.8235 0-3.3081 1.4846-3.3081 3.3081v21.624c0 1.8235 1.4846 3.3081 3.3081 3.3081h18.299l-0.85526-2.9531 2.0655 1.9042 1.9526 1.7912 3.4856 3.0176v-28.692c-0.01614-1.8235-1.5007-3.3081-3.3242-3.3081zm-6.2289 20.897s-0.58093-0.69389-1.065-1.291c2.1139-0.59707 2.9208-1.9042 2.9208-1.9042-0.66162 0.4357-1.291 0.7423-1.8558 0.95208-0.80685 0.33888-1.5814 0.54866-2.3399 0.69389-1.5492 0.29047-2.9692 0.20978-4.1795-0.01614-0.91981-0.17751-1.7105-0.41956-2.3721-0.69389-0.37115-0.14523-0.77458-0.32274-1.178-0.54866-0.048411-0.03227-0.096822-0.04841-0.14523-0.08068-0.032274-0.01614-0.048411-0.03227-0.064548-0.03227-0.29047-0.16137-0.45184-0.27433-0.45184-0.27433s0.77458 1.2748 2.824 1.888c-0.48411 0.61321-1.0812 1.3232-1.0812 1.3232-3.5663-0.11296-4.9218-2.4367-4.9218-2.4367 0-5.1477 2.3237-9.3272 2.3237-9.3272 2.3237-1.7267 4.5184-1.6782 4.5184-1.6782l0.16137 0.19364c-2.9047 0.82299-4.2279 2.0978-4.2279 2.0978s0.35501-0.19364 0.95208-0.45184c1.7267-0.75844 3.0983-0.95208 3.6631-1.0166 0.09682-0.01614 0.17751-0.03227 0.27433-0.03227 0.98436-0.1291 2.0978-0.16137 3.2597-0.03227 1.533 0.17751 3.179 0.62934 4.8572 1.533 0 0-1.2748-1.2103-4.0181-2.0333l0.22592-0.25819s2.2108-0.04841 4.5184 1.6782c0 0 2.3237 4.1795 2.3237 9.3272 0-0.01614-1.3555 2.3076-4.9218 2.4206zm24.367-13.991h-5.3575v6.0191l3.5663 3.2113v-5.8416h1.9042c1.2103 0 1.8073 0.58093 1.8073 1.5169v4.4699c0 0.93595-0.5648 1.5653-1.8073 1.5653h-5.4866v3.4049h5.3575c2.8724 0.01614 5.5673-1.4201 5.5673-4.712v-4.8088c0.016137-3.3565-2.6787-4.825-5.5511-4.825zm28.078 9.6338v-4.9379c0-1.7751 3.1951-2.1785 4.1633-0.40342l2.9531-1.1941c-1.1619-2.5496-3.2758-3.2919-5.0347-3.2919-2.8724 0-5.7125 1.6621-5.7125 4.8895v4.9379c0 3.2597 2.8401 4.8895 5.648 4.8895 1.8073 0 3.9697-0.88754 5.1638-3.2113l-3.1629-1.4523c-0.77458 1.9849-4.0181 1.5007-4.0181-0.22592zm-9.7629-4.2602c-1.1135-0.24206-1.8558-0.64548-1.9042-1.3394 0.06455-1.6621 2.6303-1.7267 4.1311-0.1291l2.3721-1.8235c-1.4846-1.8073-3.1629-2.2915-4.8895-2.2915-2.6303 0-5.18 1.4846-5.18 4.2924 0 2.7272 2.0978 4.1956 4.4054 4.5506 1.178 0.16137 2.4851 0.62934 2.4528 1.4362-0.09682 1.533-3.2597 1.4523-4.6959-0.29047l-2.2915 2.1462c1.3394 1.7267 3.1629 2.5981 4.8734 2.5981 2.6303 0 5.5511-1.5169 5.6641-4.2924 0.16137-3.5017-2.3883-4.3893-4.9379-4.8572zm-10.812 8.956h3.6147v-14.33h-3.6147zm60.949-14.33h-5.3575v6.0191l3.5663 3.2113v-5.8416h1.9042c1.2103 0 1.8073 0.58093 1.8073 1.5169v4.4699c0 0.93595-0.56479 1.5653-1.8073 1.5653h-5.4866v3.4049h5.3736c2.8724 0.01614 5.5673-1.4201 5.5673-4.712v-4.8088c0-3.3565-2.6949-4.825-5.5673-4.825zm-26.287-0.19364c-2.9692 0-5.9223 1.6137-5.9223 4.9218v4.8895c0 3.2758 2.9692 4.9218 5.9546 4.9218 2.9692 0 5.9223-1.646 5.9223-4.9218v-4.8895c0-3.2919-2.9853-4.9218-5.9546-4.9218zm2.3237 9.8113c0 1.0328-1.1619 1.5653-2.3076 1.5653-1.1619 0-2.3237-0.50025-2.3237-1.5653v-4.8895c0-1.0489 1.1296-1.6137 2.2592-1.6137 1.178 0 2.3721 0.50025 2.3721 1.6137zm16.605-4.8895c-0.0807-3.3565-2.3721-4.712-5.3252-4.712h-5.7286v14.33h3.6631v-4.5506h0.64548l3.3242 4.5506h4.5184l-3.9052-4.9218c1.7267-0.54866 2.8078-2.0494 2.8078-4.6959zm-5.2607 1.9364h-2.1301v-3.2758h2.1301c2.2753 0 2.2753 3.2758 0 3.2758z" fill="#7289da" stroke-width=".16137"/>
</svg>
