<?xml version="1.0" encoding="UTF-8"?>
<svg width="133" height="32" version="1.2" viewBox="0 0 133 32" xmlns="http://www.w3.org/2000/svg" xmlns:cc="http://creativecommons.org/ns#" xmlns:dc="http://purl.org/dc/elements/1.1/" xmlns:rdf="http://www.w3.org/1999/02/22-rdf-syntax-ns#">
 <metadata>
  <rdf:RDF>
   <cc:Work rdf:about="">
    <dc:format>image/svg+xml</dc:format>
    <dc:type rdf:resource="http://purl.org/dc/dcmitype/StillImage"/>
    <dc:title/>
   </cc:Work>
  </rdf:RDF>
 </metadata>
 <desc>Created by HiQPdf</desc>
 <g transform="translate(-8,-8)" fill-rule="evenodd" stroke-linecap="square" stroke-linejoin="bevel">
  <g transform="translate(8,8)" fill="#1b95e0">
   <path d="m4 0h125c2.209 0 4 1.7909 4 4v20c0 2.2091-1.791 4-4 4h-125c-2.2091 0-4-1.7909-4-4v-20c0-2.2091 1.7909-4 4-4" fill-rule="evenodd"/>
  </g>
  <g transform="translate(8,8)" fill="#fff" font-family="Arial" font-size="13px" font-weight="400" stroke-linecap="square" stroke-linejoin="bevel">
   <text x="31" y="19" xml:space="preserve">Follow </text>
   <text x="72" y="19" xml:space="preserve">@brillout</text>
  </g>
  <g transform="matrix(.25 0 0 .25 17 13)" fill="#fff">
   <path d="m68.812 15.14c-2.348 1.04-4.87 1.744-7.52 2.06 2.704-1.62 4.78-4.186 5.757-7.243-2.53 1.5-5.33 2.592-8.314 3.176-2.385-2.543-5.787-4.133-9.553-4.133-7.23 0-13.092 5.86-13.092 13.093 0 1.026 0.118 2.02 0.338 2.98-10.885-0.546-20.528-5.755-26.988-13.677-1.125 1.936-1.77 4.184-1.77 6.58 0 4.543 2.312 8.552 5.824 10.9-2.146-0.07-4.165-0.658-5.93-1.64-2e-3 0.056-2e-3 0.11-2e-3 0.163 0 6.345 4.513 11.638 10.504 12.84-1.1 0.298-2.256 0.457-3.45 0.457-0.845 0-1.666-0.078-2.464-0.23 1.667 5.2 6.5 8.985 12.23 9.09-4.482 3.51-10.13 5.605-16.26 5.605-1.055 0-2.096-0.06-3.122-0.184 5.794 3.717 12.676 5.882 20.067 5.882 24.083 0 37.25-19.95 37.25-37.25 0-0.565-0.013-1.133-0.038-1.693 2.558-1.847 4.778-4.15 6.532-6.774l1e-3 -2e-3" fill-rule="nonzero"/>
  </g>
 </g>
</svg>
