<?xml version="1.0" encoding="UTF-8"?>
<!-- Generator: Adobe Illustrator 25.2.3, SVG Export Plug-In . SVG Version: 6.00 Build 0)  -->
<svg width="120" height="120" version="1.1" viewBox="0 0 120 120" xml:space="preserve" xmlns="http://www.w3.org/2000/svg">
<g transform="translate(-3.9652 -5.0005)">
	
		<path d="m118.03 102.32-45.74 20.68c-2.82 1.33-5.76 1.2-8.46-0.36l-57.74-29.32c-1.65-1.06-2.14-2.61-2.04-3.69s0.35-2.25 3.25-3.09l4.28-1.58 57.92 31.57 41.16-16.82z" fill="#01579b"/>
		<path d="m71.74 119.69c-2.32 1.09-5.03 0.99-7.26-0.26l-56.37-28.4c-0.8-0.44-1.04-1.45-0.56-2.23 1.24-2.05 3.52-8.53-0.24-13.91l63.66 30.65z" fill="#f5f5f5"/>
		<path d="m115.59 99.98s-43.83 19.7-43.85 19.71c-1.45 0.63-4.34 1.75-7.67-0.49 2.63 0.19 4.48-0.9 5.43-2.67 0.93-1.72 0.65-4.54-0.48-6.13-0.69-0.96-2.54-2.49-3.35-3.35l47.43-18.55c4.2-1.73 8.14 0.86 8.77 4.01 0.7 3.56-3.84 6.47-6.28 7.47z" fill="#94c6d6"/>
		<path d="m117.78 86.96-45.27 20.2c-2.85 1.13-6.04 0.98-8.77-0.4l-57.84-29.38c-0.56-0.28-1.39-1.05-1.72-2.1-0.54-1.75 0.14-3.95 2.19-4.65l62.68 31.95 42.92-18.37z" fill="#01579b"/>
		<path d="m121.19 89.89-4.93-1.79-10.16 0.59-33.58 14.99c-2.85 1.13-6.04 0.98-8.77-0.4l-57.85-29.37c-1.49-0.76-1.17-2.97 0.47-3.28l41.69-18.65c1.19-0.22 2.41-0.09 3.52 0.38l59.49 28.36s9.45 6.47 10.12 9.17z" fill="#0091ea"/>
		<path d="m105.53 88.98s6.26-2.45 11.18-2.23 6.63 3.67 6.63 3.67c-0.93-4.23-5.3-6.39-5.3-6.39l-65-32.73c-0.45-0.19-2.11-0.58-4.66 0.47-2.06 0.85-8.79 4-8.79 4z" fill="#616161"/>
		<path d="m123.62 91.22c-0.47-1.87-1.63-3.87-3.77-4.84-2.82-1.27-6.84-0.94-9.41 0.4l-4.91 2.18v3.46l6.21-2.76c6.04-2.69 8.72 1.34 8.95 2.29 0.96 3.87-0.9 6.11-6.39 8.63l-8.92 4.02v3.48l10.26-4.57c4.54-1.82 9.72-5.24 7.98-12.29z" fill="#424242"/>
	
	
		<polygon points="18.45 65.23 37.88 91.93 33.01 90.31 15.74 66.44" fill="#01579b"/>
	
	
		<polygon points="55.16 101.31 52.08 98.87 105.53 87.96 105.53 89.71 98.04 92.55" fill="#01579b"/>
	
	
		<path d="m14.8 46.18 67.51-11.28 29.49 32.47c1.49 1.57 0.68 4.17-1.44 4.6l-69.7 14.3z" fill="#9ccc65"/>
		
			<path d="m110.36 69.17-69.22 14.02-0.22 3.3 69.44-14.24c1.96-0.41 2.78-2.65 1.71-4.23-0.38 0.56-0.96 1-1.71 1.15z" fill="#689f38"/>
		
		<path d="m114.09 84.3c0.73 1.16 0.07 2.69-1.27 2.96l-63.72 12.92c-3.83 0.79-7.59-1.72-7.93-5.62-0.29-3.3 1.94-6.29 5.19-6.97l61.28-13.76z" fill="#689f38"/>
		<path d="m55.59 80.1-25.38-36.32-14.48 3.83c-3.35 3.33-2.1 8.8-2.1 8.8s22.17 35.58 25.67 40.13 8.61 3.84 8.61 3.84l8.63-1.74-0.9-16.1z" fill="#616161"/>
		<path d="m55.59 80.34-12.19 2.52c-3.33 0.75-3.93 3.88-3.93 3.88l-29.43-42.17s-4.19 5.07-1.41 9.38l30.67 42.59c3.35 4.77 8.61 3.88 8.61 3.88l8.63-1.74-0.89-15.78z" fill="#424242"/>
		<path d="m110.25 83c0.31 0.68-0.09 1.47-0.82 1.62l-60.93 12.5c-3.83 0.79-6.54-1.75-6.4-5.21 0.18-4.37 2.63-6.22 5.87-6.89l61.23-12.51s-2.08 2.34-0.49 6.72c0.54 1.51 1.12 2.85 1.54 3.77z" fill="#b9e4ea"/>
		<line x1="45.21" x2="19.1" y1="83.7" y2="46.76" fill="none" stroke="#424242" stroke-miterlimit="10" stroke-width="2.071"/>
	
	<polygon points="12.32 53.71 51.12 73.48 47.26 67.95 13.68 51.03" fill="#424242"/>
	<polygon points="47.26 68.18 50.88 73.36 64.95 80.55 75.43 78.94 108.79 64.03 106.33 61.33 68.5 78.69" fill="#689f38"/>
	
		<path d="m118.02 57.35-45.73 20.68c-2.82 1.33-5.76 1.2-8.46-0.36l-57.74-29.32c-1.65-1.06-2.14-2.61-2.04-3.69s0.35-2.25 3.25-3.09l2.71-1 59.32 29.11 48.17-19.93z" fill="#c62828"/>
		<path d="m71.73 74.72c-2.32 1.09-5.03 0.99-7.26-0.26l-56.37-28.4c-0.8-0.44-1.04-1.45-0.56-2.23 1.24-2.05 3.52-8.53-0.24-13.91l62.24 31.66z" fill="#f5f5f5"/>
		<path d="m115.58 55.01s-43.83 19.7-43.85 19.71c-1.45 0.63-4.34 1.75-7.67-0.49 2.63 0.19 4.48-0.9 5.43-2.67 0.93-1.72 0.65-4.54-0.48-6.13-0.69-0.96-2.54-2.49-3.35-3.35l47.43-18.55c4.2-1.73 8.14 0.86 8.77 4.01 0.7 3.56-3.84 6.47-6.28 7.47z" fill="#94c6d6"/>
		<path d="m117.78 41.99-45.27 20.2c-2.85 1.13-6.04 0.98-8.77-0.4l-57.85-29.38c-0.6-0.3-1.5-1.07-1.79-2.16-0.43-1.62 0.13-3.75 2.26-4.59l53.01-11.23z" fill="#c62828"/>
		<path d="m121.18 44.92-4.93-1.79-10.16 0.59-33.58 14.99c-2.85 1.13-6.04 0.98-8.77-0.4l-57.85-29.38c-1.49-0.76-0.96-2.77 0.47-3.28l41.7-18.64c1.19-0.22 2.41-0.09 3.52 0.38l59.49 28.36s9.44 6.46 10.11 9.17z" fill="#f44336"/>
		<path d="m105.53 44s5.21-1.83 10.13-1.61 7.69 3.05 7.69 3.05c-1.01-4.52-5.3-6.39-5.3-6.39l-65-32.73c-0.45-0.19-2.11-0.58-4.66 0.47-2.06 0.85-8.79 4-8.79 4z" fill="#616161"/>
		
			<polygon points="47.17 7.32 114.81 41.22 111.48 41.86 44.97 8.31" fill="#424242"/>
		
		<path d="m123.61 46.25c-0.47-1.87-1.26-3.68-3.49-4.62-2.85-1.2-5.45-1.45-9.69 0.18l-4.91 2.18v3.46l6.21-2.76c3.15-1.48 7.79-1.16 8.95 2.29 1.27 3.78-0.9 6.11-6.39 8.63l-8.92 4.02v3.48l10.26-4.57c4.55-1.82 9.73-5.24 7.98-12.29z" fill="#424242"/>
	
</g>
</svg>
