<svg width="448.52" height="448.52" data-name="Layer 1" version="1.1" viewBox="0 0 448.52 448.52" xmlns="http://www.w3.org/2000/svg">
<defs>
<linearGradient id="linear-gradient" x1="256" x2="256" y1="460.43" y2="11.91" gradientTransform="translate(-31.74,-11)" gradientUnits="userSpaceOnUse">
<stop stop-color="#bd7f26" offset="0"/>
<stop stop-color="#e3ca75" offset="1"/>
</linearGradient>
<linearGradient id="linear-gradient-2" x1="256" x2="256" y1="449.56" y2="22.68" gradientTransform="translate(-31.74,-11)" gradientUnits="userSpaceOnUse">
<stop stop-color="#e5b151" offset="0"/>
<stop stop-color="#ffd645" offset="1"/>
</linearGradient>
<linearGradient id="linear-gradient-3" x1="1902.1" x2="1902.1" y1="5236.8" y2="4882" gradientTransform="rotate(180 1063.2 2641.5)" gradientUnits="userSpaceOnUse">
<stop stop-color="#bd7f26" offset="0"/>
<stop stop-color="#fbf2ac" offset="1"/>
</linearGradient>
<linearGradient id="linear-gradient-4" x1="1902.1" x2="1902.1" y1="5228.2" y2="4890.5" gradientTransform="rotate(180 1063.2 2641.5)" gradientUnits="userSpaceOnUse">
<stop stop-color="#edb300" offset="0"/>
<stop stop-color="#be871d" offset="1"/>
</linearGradient>
<linearGradient id="linear-gradient-5" x1="256" x2="256" y1="372.53" y2="113.06" gradientTransform="translate(-31.74,-11)" gradientUnits="userSpaceOnUse">
<stop stop-color="#bd7f26" offset="0"/>
<stop stop-color="#bd7f26" offset="1"/>
</linearGradient>
<linearGradient id="linear-gradient-6" x1="256" x2="256" y1="105.52" y2="365" gradientTransform="translate(-31.74,-11)" gradientUnits="userSpaceOnUse">
<stop stop-color="#ffd645" offset="0"/>
<stop stop-color="#e5b151" offset="1"/>
</linearGradient>
</defs>
<title>dollar_coin</title>
<g fill-rule="evenodd">
<path d="m224.26 448.52c123.53 0 224.26-100.67 224.26-224.13 0-123.73-100.73-224.39-224.26-224.39s-224.26 100.66-224.26 224.39c0 123.46 100.74 224.13 224.26 224.13z" fill="url(#linear-gradient)"/>
<path d="m224.26 437.7c117.57 0 213.44-95.81 213.44-213.31 0-117.76-95.87-213.57-213.44-213.57s-213.44 95.81-213.44 213.57c0 117.5 95.88 213.31 213.44 213.31z" fill="url(#linear-gradient-2)"/>
<path d="m224.26 46.89c-97.7 0-177.37 79.62-177.37 177.27 0 97.84 79.67 177.47 177.37 177.47s177.37-79.63 177.37-177.47c0-97.65-79.67-177.27-177.37-177.27z" fill="url(#linear-gradient-3)"/>
<path d="m224.26 55.45c-93 0-168.81 75.78-168.81 168.71 0 93.14 75.81 168.91 168.81 168.91s168.81-75.77 168.81-168.91c0-92.93-75.81-168.71-168.81-168.71z" fill="url(#linear-gradient-4)"/>
<path d="m158 271.81h13.42c15.66 0 15.41 2.48 22.62 14.66 8 13.42 26.1 21.37 45.48 13.17 9.69-4.22 17.15-17.14 8.7-32.06-8-14.41-26.59-16.4-45-20.88-19.89-5-40.76-11.68-51-26.84-15.66-23.86-15.41-57.66 17.4-78.29 13.17-8.21 26.6-13.42 41.76-14.91v-14.41c0-10.69 3-10.19 12.92-10.19 4.48 0 8 0.24 9.95 1.74s2.23 4.47 2.23 9.19v13.92a62.1 62.1 0 0 1 9.44 1.49c27.34 4.72 45.23 15.41 53.43 43.24 4.23 14.17-2.73 17.15-15.65 17.15h-19.82c-12.43 0-14.66-3-17.89-14.41-1.49-4.72-3.73-8.2-7.45-10.44-15.91-9.69-43.75-1.74-42.5 19.63 1 14.17 20.62 19.38 40.76 25.6 26.1 7.7 53.69 15.16 64.62 39.76 11.68 26.6 4.47 56.42-25.1 73.32a106.88 106.88 0 0 1-39.77 12.92v14.66c0 10.69-2 11.68-11.93 11.68-10.68 0-13.17 0-13.17-11.68v-14.4a145.16 145.16 0 0 1-20.14-3c-27.09-5.71-40.76-17.64-48.21-43.74-3.98-14.4 1.24-16.88 14.9-16.88z" fill="url(#linear-gradient-5)"/>
<path d="m158 256.74h13.42c15.66 0 15.41 2.48 22.62 14.66 8 13.42 26.1 21.37 45.48 13.17 9.69-4.22 17.15-17.14 8.7-32.06-8-14.41-26.59-16.4-45-20.88-19.89-5-40.76-11.68-51-26.84-15.66-23.86-15.41-57.66 17.4-78.29 13.17-8.21 26.6-13.42 41.76-14.91v-14.41c0-10.69 3-10.19 12.92-10.19 4.48 0 8 0.24 9.95 1.74s2.23 4.47 2.23 9.19v13.92a62.1 62.1 0 0 1 9.44 1.49c27.34 4.72 45.23 15.41 53.43 43.24 4.23 14.17-2.73 17.15-15.65 17.15h-19.82c-12.43 0-14.66-3-17.89-14.41-1.49-4.72-3.73-8.2-7.45-10.44-15.91-9.69-43.75-1.74-42.5 19.63 1 14.17 20.62 19.38 40.76 25.6 26.1 7.7 53.69 15.16 64.62 39.76 11.68 26.6 4.47 56.42-25.1 73.32a106.88 106.88 0 0 1-39.77 12.92v14.66c0 10.69-2 11.68-11.93 11.68-10.68 0-13.17 0-13.17-11.68v-14.39a145.16 145.16 0 0 1-20.14-3c-27.09-5.71-40.76-17.64-48.21-43.74-3.98-14.41 1.24-16.89 14.9-16.89z" fill="#fbf2ac"/>
<path d="m158 264.27h13.42c15.66 0 15.41 2.48 22.62 14.66 8 13.42 26.1 21.37 45.48 13.17 9.74-4.21 17.15-17.1 8.74-32.1-8-14.41-26.59-16.4-45-20.88-19.89-5-40.76-11.68-51-26.84-15.66-23.86-15.41-57.66 17.4-78.29 13.17-8.21 26.6-13.42 41.76-14.91v-14.37c0-10.69 3-10.19 12.92-10.19 4.48 0 8 0.24 9.95 1.74s2.23 4.47 2.23 9.19v13.92a62.1 62.1 0 0 1 9.44 1.49c27.34 4.72 45.23 15.41 53.43 43.24 4.23 14.17-2.73 17.15-15.65 17.15h-19.86c-12.43 0-14.66-3-17.89-14.41-1.49-4.72-3.73-8.2-7.45-10.44-15.91-9.69-43.75-1.74-42.5 19.63 1 14.17 20.62 19.38 40.76 25.6 26.1 7.7 53.69 15.16 64.62 39.76 11.68 26.6 4.47 56.42-25.1 73.32a106.88 106.88 0 0 1-39.77 12.92v14.66c0 10.69-2 11.68-11.93 11.68-10.68 0-13.17 0-13.17-11.68v-14.39a145.16 145.16 0 0 1-20.14-3c-27.09-5.71-40.76-17.64-48.21-43.74-3.98-14.4 1.24-16.89 14.9-16.89z" fill="url(#linear-gradient-6)"/>
</g>
</svg>
