<svg width="245" height="245" viewBox="0 0 245 245" fill="none" xmlns="http://www.w3.org/2000/svg">
<path d="M122.5 245C190.155 245 245 190.155 245 122.5C245 54.8451 190.155 0 122.5 0C54.8451 0 0 54.8451 0 122.5C0 190.155 54.8451 245 122.5 245Z" fill="url(#paint0_linear_5_47)"/>
<path d="M122.5 224.665C178.924 224.665 224.665 178.924 224.665 122.5C224.665 66.0759 178.924 20.335 122.5 20.335C66.0758 20.335 20.335 66.0759 20.335 122.5C20.335 178.924 66.0758 224.665 122.5 224.665Z" fill="url(#paint1_linear_5_47)"/>
<path d="M122.5 218.785C175.677 218.785 218.785 175.677 218.785 122.5C218.785 69.3233 175.677 26.215 122.5 26.215C69.3232 26.215 26.215 69.3233 26.215 122.5C26.215 175.677 69.3232 218.785 122.5 218.785Z" fill="#362C15"/>
<path d="M122.5 214.988C173.579 214.988 214.987 173.579 214.987 122.5C214.987 71.4206 173.579 30.0125 122.5 30.0125C71.4205 30.0125 30.0125 71.4206 30.0125 122.5C30.0125 173.579 71.4205 214.988 122.5 214.988Z" fill="url(#paint2_radial_5_47)"/>
<path d="M122.5 209.108C170.332 209.108 209.107 170.332 209.107 122.5C209.107 74.668 170.332 35.8925 122.5 35.8925C74.668 35.8925 35.8925 74.668 35.8925 122.5C35.8925 170.332 74.668 209.108 122.5 209.108Z" stroke="#8A8C8E" stroke-width="0.633" stroke-miterlimit="10"/>
<path d="M112.414 51.593C80.7888 56.0846 55.7784 81.2992 51.5521 113.006H52.8588C57.0646 82.0138 81.5238 57.3709 112.414 52.92V51.593Z" fill="#8A8C8E"/>
<path d="M134.056 51.838V53.1446C164.273 58.1671 188.017 82.5038 192.162 113.006H193.468C189.303 81.7892 164.987 56.8809 134.056 51.838Z" fill="#8A8C8E"/>
<path d="M112.414 192.039C84.3821 187.997 61.638 167.396 54.5125 140.467H53.165C60.3313 168.111 83.6471 189.263 112.394 193.346V192.039H112.414Z" fill="#8A8C8E"/>
<path d="M190.488 140.467C183.485 166.927 161.414 187.303 134.056 191.856V193.162C162.129 188.589 184.771 167.662 191.835 140.487H190.488V140.467Z" fill="#8A8C8E"/>
<path d="M122.949 136.567V126.359L159.209 162.598L122.949 136.567Z" fill="white"/>
<path d="M123.276 127.135L156.167 160.026L123.276 136.404V127.135ZM122.623 125.583V136.751L162.231 165.191L122.623 125.583Z" fill="#A8A8A8"/>
<path d="M162.231 165.191L133.79 125.583H122.623L162.231 165.191Z" fill="#393839"/>
<path d="M85.9541 88.588L122.194 114.64V124.848L85.9541 88.588Z" fill="white"/>
<path d="M88.9759 91.1809L121.888 114.803V124.072L88.9759 91.1809ZM82.9121 86.0154L122.52 125.624V114.456L82.9121 86.0154Z" fill="#A8A8A8"/>
<path d="M82.9121 86.0154L111.373 125.624H122.52L82.9121 86.0154Z" fill="#393839"/>
<path d="M123.419 125.318L159.658 89.0575L133.627 125.318H123.419Z" fill="white"/>
<path d="M157.086 92.0792L133.464 124.991H124.195L157.086 92.0792ZM162.231 86.0154L122.623 125.624H133.79L162.231 86.0154Z" fill="#A8A8A8"/>
<path d="M162.231 86.0154L122.623 114.476V125.624L162.231 86.0154Z" fill="#393839"/>
<path d="M111.638 125.991H121.847L85.5868 162.251L111.638 125.991Z" fill="white"/>
<path d="M121.071 126.318L88.1797 159.23L111.802 126.338H121.071M122.623 125.685H111.475L83.0347 165.293L122.623 125.685Z" fill="#A8A8A8"/>
<path d="M83.0143 165.293L122.623 136.832V125.685L83.0143 165.293Z" fill="#393839"/>
<path d="M115.089 117.559L122.316 73.5204V124.787L115.089 117.559Z" fill="white"/>
<path d="M121.989 77.4812V124.011L115.436 117.457L121.989 77.4812ZM122.622 69.5596L114.742 117.682L122.643 125.583V69.5596H122.622Z" fill="#A8A8A8"/>
<path d="M122.623 69.5596L130.524 117.682L122.623 125.583V69.5596Z" fill="#616161"/>
<path d="M115.436 133.688L121.99 127.135V173.664L115.436 133.688Z" fill="white"/>
<path d="M121.336 128.686V165.722L116.11 133.913L121.336 128.686ZM122.622 125.583L114.721 133.484L122.622 181.606V125.583Z" fill="#A8A8A8"/>
<path d="M122.623 181.586L130.524 133.464L122.623 125.583V181.586Z" fill="#616161"/>
<path d="M70.5803 125.318L114.619 118.09L121.847 125.318H70.5803Z" fill="white"/>
<path d="M114.517 118.437L121.071 124.991H74.5413L114.517 118.437ZM114.742 117.743L66.6196 125.644H122.643L114.742 117.743Z" fill="#A8A8A8"/>
<path d="M66.6196 125.624L114.742 133.525L122.623 125.624H66.6196Z" fill="#616161"/>
<path d="M123.419 125.889H174.685L130.626 133.117L123.419 125.889Z" fill="white"/>
<path d="M170.704 126.216L130.728 132.77L124.174 126.216H170.704ZM178.646 125.583H122.623L130.524 133.484L178.646 125.583Z" fill="#A8A8A8"/>
<path d="M178.646 125.583L130.524 117.682L122.623 125.583H178.646Z" fill="#616161"/>
<path d="M91.9772 46.7542L115.028 128.298L129.973 122.5L91.9772 46.7542Z" fill="#ED0000"/>
<path d="M153.023 204.065L129.972 122.5L115.027 128.298L153.023 204.065Z" fill="#00AEFF"/>
<path d="M122.622 129.564C124.821 129.564 126.604 127.782 126.604 125.583C126.604 123.384 124.821 121.602 122.622 121.602C120.424 121.602 118.641 123.384 118.641 125.583C118.641 127.782 120.424 129.564 122.622 129.564Z" fill="#FFC800"/>
<path opacity="0.2" d="M112.822 100.593L126.216 127.277L134.342 156.024L120.948 129.34L112.822 100.593ZM93.0591 49.6533L116.109 131.218L154.125 206.964L131.055 125.399L93.0591 49.6533Z" fill="#424242"/>
<path d="M119.58 40.7517L129.319 53.0017V44.5083C129.319 43.3242 129.156 42.5279 128.809 42.0992C128.339 41.5275 127.563 41.2621 126.461 41.2825V40.7517H132.994V41.2825C132.157 41.3846 131.606 41.5275 131.32 41.6908C131.034 41.8542 130.81 42.14 130.646 42.5279C130.483 42.9158 130.401 43.5692 130.401 44.5083V60.9438H129.911L116.559 44.5083V57.0646C116.559 58.2079 116.824 58.9633 117.335 59.3717C117.845 59.78 118.458 59.9638 119.111 59.9638H119.58V60.4946H112.578V59.9638C113.66 59.9638 114.415 59.7392 114.844 59.29C115.273 58.8613 115.477 58.1058 115.477 57.0646V43.12L115.048 42.5892C114.64 42.0583 114.252 41.7113 113.945 41.5479C113.619 41.3846 113.17 41.2825 112.557 41.2621V40.7313H119.58V40.7517Z" fill="black"/>
<path d="M191.957 116.518V124.827H192.366C193.652 124.827 194.591 124.419 195.183 123.602C195.775 122.786 196.143 121.581 196.306 120.009H196.878V130.707H196.306C196.184 129.544 195.939 128.584 195.551 127.849C195.163 127.114 194.714 126.604 194.203 126.359C193.693 126.093 192.958 125.971 191.978 125.971V131.728C191.978 132.851 192.019 133.545 192.121 133.79C192.223 134.035 192.386 134.24 192.652 134.403C192.917 134.566 193.325 134.648 193.917 134.648H195.142C197.041 134.648 198.572 134.199 199.736 133.321C200.9 132.443 201.717 131.095 202.207 129.278H202.758L201.839 135.771H184.199V135.22H184.873C185.465 135.22 185.935 135.117 186.302 134.913C186.567 134.77 186.772 134.525 186.894 134.199C186.996 133.954 187.057 133.321 187.057 132.3V118.825C187.057 117.906 187.037 117.335 186.976 117.13C186.886 116.805 186.693 116.518 186.425 116.314C186.037 116.028 185.526 115.885 184.852 115.885H184.179V115.334H201.267V121.377H200.696C200.41 119.907 200.002 118.845 199.471 118.192C198.94 117.539 198.205 117.069 197.225 116.783C196.674 116.6 195.612 116.518 194.06 116.518H191.957Z" fill="black"/>
<path d="M128.502 183.505L128.666 190.304H128.053C127.767 188.609 127.053 187.221 125.91 186.18C124.766 185.138 123.541 184.628 122.214 184.628C121.193 184.628 120.377 184.893 119.785 185.445C119.192 185.996 118.886 186.629 118.886 187.323C118.886 187.772 118.988 188.18 119.192 188.528C119.478 188.997 119.948 189.467 120.601 189.936C121.071 190.263 122.153 190.855 123.868 191.692C126.257 192.856 127.87 193.979 128.686 195.02C129.503 196.061 129.911 197.266 129.911 198.593C129.911 200.288 129.237 201.758 127.91 203.003C126.583 204.228 124.889 204.84 122.847 204.84C122.214 204.84 121.602 204.779 121.03 204.636C120.458 204.514 119.744 204.269 118.886 203.901C118.396 203.697 118.008 203.595 117.702 203.595C117.437 203.595 117.171 203.697 116.865 203.901C116.579 204.105 116.334 204.412 116.15 204.82H115.599V197.123H116.15C116.6 199.287 117.437 200.941 118.702 202.084C119.968 203.228 121.316 203.799 122.765 203.799C123.888 203.799 124.787 203.493 125.46 202.88C126.134 202.268 126.461 201.553 126.461 200.737C126.461 200.247 126.338 199.798 126.073 199.328C125.807 198.879 125.42 198.45 124.909 198.042C124.399 197.633 123.46 197.103 122.132 196.449C120.275 195.53 118.947 194.755 118.131 194.122C117.314 193.489 116.702 192.774 116.252 191.978C115.803 191.182 115.599 190.304 115.599 189.365C115.599 187.731 116.191 186.363 117.396 185.22C118.58 184.077 120.091 183.505 121.908 183.505C122.561 183.505 123.215 183.587 123.827 183.75C124.297 183.873 124.868 184.097 125.542 184.424C126.216 184.75 126.685 184.914 126.971 184.914C127.237 184.914 127.441 184.832 127.584 184.669C127.727 184.505 127.87 184.118 128.012 183.505H128.502Z" fill="black"/>
<path d="M69.9271 115.865V116.416C69.5596 116.436 69.2329 116.538 68.9879 116.722C68.7429 116.906 68.4979 117.171 68.3142 117.539C68.2529 117.661 67.9467 118.417 67.3954 119.825L61.1479 136.302H60.5762L55.6354 123.439L50.1842 136.302H49.6125L43.0383 120.009C42.3646 118.376 41.895 117.375 41.65 117.028C41.3846 116.681 40.9354 116.477 40.3025 116.416V115.865H48.9592V116.416C48.265 116.436 47.7954 116.538 47.5708 116.742C47.3462 116.947 47.2237 117.171 47.2237 117.457C47.2237 117.825 47.4687 118.621 47.9383 119.825L51.8583 129.503L55.0025 121.928L54.1858 119.805C53.7367 118.641 53.3896 117.865 53.1446 117.477C52.8996 117.09 52.6137 116.804 52.3075 116.64C52.0012 116.477 51.5112 116.395 50.8987 116.395V115.844H60.5762V116.395C59.9025 116.395 59.4125 116.457 59.1267 116.559C58.9331 116.617 58.7632 116.735 58.6419 116.897C58.5207 117.059 58.4544 117.255 58.4529 117.457C58.4529 117.682 58.6775 118.376 59.1062 119.54L62.7404 128.992L65.9867 120.458C66.3337 119.58 66.5379 118.968 66.6196 118.641C66.7012 118.315 66.7421 118.008 66.7421 117.743C66.7421 117.335 66.5992 117.028 66.3337 116.783C66.0479 116.559 65.5375 116.436 64.7617 116.416V115.865H69.9271Z" fill="black"/>
<path opacity="0.2" d="M122.5 6.125C186.67 6.125 238.875 58.3304 238.875 122.5C238.875 186.67 186.67 238.875 122.5 238.875C58.3304 238.875 6.125 186.67 6.125 122.5C6.125 58.3304 58.3304 6.125 122.5 6.125ZM122.5 0C54.8392 0 0 54.8392 0 122.5C0 190.161 54.8392 245 122.5 245C190.161 245 245 190.161 245 122.5C245 54.8392 190.161 0 122.5 0Z" fill="#424242"/>
<defs>
<linearGradient id="paint0_linear_5_47" x1="42.8546" y1="25.8271" x2="221.215" y2="242.325" gradientUnits="userSpaceOnUse">
<stop offset="0.004" stop-color="#FFE7AD"/>
<stop offset="0.261" stop-color="#FFB200"/>
<stop offset="0.475" stop-color="#FAAE00"/>
<stop offset="0.731" stop-color="#EBA400"/>
<stop offset="1" stop-color="#D49300"/>
</linearGradient>
<linearGradient id="paint1_linear_5_47" x1="122.5" y1="18.865" x2="122.5" y2="250.288" gradientUnits="userSpaceOnUse">
<stop offset="0.001" stop-color="#543B0B"/>
<stop offset="0.016" stop-color="#563D0B"/>
<stop offset="0.248" stop-color="#785606"/>
<stop offset="0.468" stop-color="#906703"/>
<stop offset="0.671" stop-color="#9F7201"/>
<stop offset="0.841" stop-color="#A47600"/>
</linearGradient>
<radialGradient id="paint2_radial_5_47" cx="0" cy="0" r="1" gradientUnits="userSpaceOnUse" gradientTransform="translate(122.5 122.5) scale(92.4957)">
<stop offset="0.001" stop-color="white"/>
<stop offset="0.205" stop-color="#FFFEFC"/>
<stop offset="0.373" stop-color="#FFFBF2"/>
<stop offset="0.528" stop-color="#FFF6E0"/>
<stop offset="0.673" stop-color="#FFEFC9"/>
<stop offset="0.8" stop-color="#FFE7AD"/>
<stop offset="1" stop-color="#F0C560"/>
</radialGradient>
</defs>
</svg>
