<svg viewBox="0 0 512 512" fill="none" xmlns="http://www.w3.org/2000/svg" preserveAspectRatio="xMidYMid meet"><path fill-rule="evenodd" clip-rule="evenodd" d="M424.404 470.816C478.089 423.889 512 354.905 512 278C512 136.615 397.385 22 256 22C114.615 22 0 136.615 0 278C0 352.658 31.9583 419.851 82.9409 466.646L83.1767 465L419.144 355L424.404 470.816Z" fill="#333333"/><path d="M189.915 52.7412L144.5 46L151.303 43.9069C155.402 42.6455 159.248 40.6719 162.662 38.0765L163.73 37.2654C167.845 34.1375 171.12 30.0364 173.259 25.3304C174.414 22.7883 175.224 20.1027 175.665 17.3454L176.173 14.1698C176.72 10.7473 176.692 7.25741 176.09 3.84416C175.834 2.39429 177.279 1.23239 178.64 1.79296L180.498 2.55815C182.829 3.51798 185.084 4.65434 187.242 5.95732L194.965 10.6205C205.229 16.8174 214.226 24.9023 221.48 34.4477L226.616 41.2051C228.529 43.7228 230.783 45.9625 233.313 47.8599C236.088 49.9411 239.164 51.5874 242.435 52.7418L246 54L227.274 54.749C214.785 55.2486 202.278 54.5764 189.915 52.7412Z" fill="#CCCCCC"/><path d="M178.321 93.006L191.79 68.3844C191.922 68.143 191.93 67.8528 191.812 67.6042L187.22 57.9361C184.337 51.8673 178.219 48 171.5 48L170.23 47.9562C161.437 47.653 152.704 46.3829 144.188 44.169L142.504 43.731C135.521 41.9153 128.746 39.3732 122.293 36.1463L119.446 34.723C115.159 32.5797 111.099 30.012 107.325 27.0584L103.55 24.1043C102.428 23.2265 100.803 23.4506 99.9606 24.5992C97.3651 28.1384 95.7379 32.2935 95.2395 36.6541L94.5535 42.6571C94.1854 45.8774 94.1446 49.1267 94.4316 52.3552L96.1031 71.1595C97.3467 85.1501 102.175 98.584 110.123 110.165L111.825 112.645C114.267 116.203 117.113 119.466 120.306 122.369C120.756 122.778 121.329 123.03 121.936 123.084C145.029 125.156 167.194 113.348 178.321 93.006Z" fill="#CCCCCC"/><path d="M127.378 123.538L143.376 116.613C150.438 113.557 152.588 104.577 147.676 98.6533C143.683 93.8378 136.58 93.0803 131.661 96.9453L127.867 99.9256C126.958 100.64 126.127 101.448 125.387 102.336L116.263 113.284C114.982 114.822 115.084 117.084 116.5 118.5L119.318 121.721C119.77 122.237 120.296 122.685 120.878 123.049C122.833 124.271 125.263 124.453 127.378 123.538Z" fill="#EDEDED"/><path d="M147.988 44.8437L147.5 45L148.962 45.4651C155.294 47.4798 161.861 48.66 168.498 48.9761C168.83 48.9919 169.163 48.9534 169.483 48.8619L172.5 48L174 47.5L164.419 45.4172C163.158 45.1431 161.982 44.5687 160.991 43.7426C160.218 43.0981 160.223 41.9084 161.002 41.2708L162.423 40.1084C164.12 38.7197 165.493 36.976 166.444 35C160.934 39.3642 154.682 42.6988 147.988 44.8437Z" fill="#B2B2B2"/><path d="M202.776 219.428L72.2905 452.693C71.643 453.851 70.0687 454.069 69.1308 453.131L66.5 450.5L55.5 438L48.4888 428.927C41.8407 420.323 35.9052 411.192 30.7414 401.624L29.7434 399.775C24.2581 389.611 19.6635 378.991 16.0112 368.034L12.5 357.5C7.22519 338.379 6.01447 318.365 8.94583 298.747L9.06961 297.919C10.354 289.323 12.4034 280.86 15.1935 272.629L21 255.5L25.3334 246.385C32.0537 232.249 41.3193 219.472 52.6669 208.691L58.1719 203.462C69.5529 192.65 83.3937 184.769 98.5 180.5C94.967 181.498 91.3608 182.216 87.7149 182.647L80.5 183.5L75 184L69 185L63 185.561L59 186L56.1186 186.18C55.1927 186.238 54.7576 185.057 55.4998 184.5L55.5002 184.5L59.5273 182.57C72.5066 176.351 83.1766 166.172 90 153.5L94.4475 146.562C99.7511 138.288 106.807 131.28 115.116 126.032L116.833 124.948C119.935 122.989 123.246 121.384 126.705 120.163L142.446 114.607C145.348 113.583 147.69 111.39 148.903 108.561L149.143 108C149.705 106.687 149.932 105.255 149.803 103.833C149.608 101.689 148.616 99.6966 147.023 98.2485L144.256 95.7328C144.086 95.5779 143.93 95.4073 143.792 95.2232L126 71.5L111.803 51.9315C108.994 48.0592 107.359 43.4599 107.094 38.6832C107.051 37.9263 107.836 37.4015 108.52 37.7295L123.881 45.1028C137.174 51.4834 152.33 52.825 166.537 48.8786C169.84 47.9612 173.214 47.3242 176.624 46.9745L183.675 46.2513C201.406 44.4328 219.32 45.9054 236.516 50.5953L238 51L254.798 57.0472C275.869 64.6329 292.567 81.0571 300.5 102L304.022 115.734C305.004 119.567 306.392 123.285 308.162 126.824C312.321 135.142 318.495 142.289 326.121 147.613L335.084 153.87C339.023 156.62 343.157 159.078 347.453 161.227L367.289 171.145C368.178 171.589 368.444 172.732 367.843 173.523C362.372 180.721 355.148 186.395 346.859 190.005L335.371 195.008C330.797 197 326.081 198.65 321.262 199.945L312.822 202.212C300.992 205.39 288.796 207 276.546 207H256.333C252.148 207 248.001 206.213 244.108 204.679C228.581 198.562 210.923 204.863 202.776 219.428Z" fill="white"/><path d="M271.185 135.316L279.987 135.418C281.182 135.432 281.452 133.748 280.312 133.388C278.441 132.797 276.623 132.048 274.879 131.15L268.008 127.61C263.35 125.211 258.969 122.308 254.944 118.953L253.592 117.827C250.54 115.283 247.77 112.418 245.33 109.282L243.768 107.273C243.234 106.586 242.134 107.005 242.192 107.873C243.212 123.186 255.839 135.138 271.185 135.316Z" fill="#666666"/></svg>