<svg width="635" height="404" viewBox="0 0 635 404" fill="none" xmlns="http://www.w3.org/2000/svg">
<g clip-path="url(#clip0_481_118)">
<path d="M621.487 44.7143L601.608 32.961L601.369 56.0538L621.487 44.7143ZM229.5 77.7144L228.315 76.1032L228.314 76.1037L229.5 77.7144ZM306.155 44.7142L306.155 46.7142L306.257 46.7142L306.359 46.7038L306.155 44.7142ZM120.212 110.714L120.154 112.713L120.183 112.714L120.212 112.714L120.212 110.714ZM230.685 79.3255C243.727 69.733 266.303 46.7149 306.155 46.7142L306.155 42.7142C264.679 42.7149 240.882 66.8604 228.315 76.1032L230.685 79.3255ZM306.359 46.7038C306.357 46.7039 306.363 46.7034 306.378 46.7022C306.392 46.7011 306.412 46.6998 306.438 46.6982C306.489 46.6951 306.557 46.6916 306.643 46.6879C306.815 46.6805 307.043 46.6729 307.329 46.6653C307.898 46.65 308.674 46.6351 309.649 46.6207C311.597 46.5917 314.316 46.5648 317.715 46.5399C324.513 46.49 334.019 46.4482 345.49 46.414C368.432 46.3456 399.227 46.3077 431.931 46.2968C497.341 46.275 570.377 46.3614 603.486 46.5282L603.506 42.5282C570.386 42.3614 497.34 42.275 431.93 42.2968C399.224 42.3077 368.425 42.3456 345.478 42.414C334.005 42.4482 324.493 42.4901 317.686 42.54C314.283 42.5649 311.552 42.592 309.59 42.6211C307.692 42.6493 306.386 42.68 305.95 42.7247L306.359 46.7038ZM37.2086 110.714C37.2281 112.714 37.2283 112.714 37.2287 112.714C37.2292 112.714 37.2299 112.714 37.2309 112.714C37.2327 112.714 37.2356 112.714 37.2393 112.714C37.2468 112.714 37.2581 112.714 37.2731 112.714C37.303 112.714 37.3478 112.713 37.407 112.713C37.5253 112.711 37.7014 112.71 37.9319 112.708C38.3929 112.703 39.0719 112.697 39.9436 112.689C41.6868 112.674 44.2004 112.653 47.2815 112.629C53.4439 112.581 61.8758 112.525 70.9541 112.487C89.1263 112.411 109.841 112.411 120.154 112.713L120.271 108.715C109.878 108.41 89.0907 108.411 70.9374 108.487C61.853 108.525 53.4163 108.582 47.2507 108.629C44.1679 108.653 41.6527 108.674 39.9082 108.69C39.0359 108.697 38.3562 108.703 37.8946 108.708C37.6638 108.71 37.4875 108.712 37.3688 108.713C37.3095 108.713 37.2646 108.714 37.2345 108.714C37.2195 108.714 37.2081 108.714 37.2005 108.714C37.1967 108.714 37.1939 108.714 37.192 108.714C37.191 108.714 37.1903 108.714 37.1898 108.714C37.1893 108.714 37.1891 108.714 37.2086 110.714ZM120.212 112.714C140.888 112.714 163.802 107.812 183.833 101.225C203.841 94.6467 221.188 86.3165 230.686 79.325L228.314 76.1037C219.297 82.7418 202.395 90.9115 182.584 97.4254C162.797 103.931 140.324 108.714 120.212 108.714L120.212 112.714Z" fill="#00CFF5"/>
<path d="M622.5 180.21L602.614 168.467L602.388 191.56L622.5 180.21ZM409.475 180.21L409.475 178.21L409.475 178.21L409.475 180.21ZM223.531 110.71L223.531 112.71L223.531 112.71L223.531 110.71ZM312.686 151.718C333.23 169.611 368.457 182.211 409.475 182.21L409.475 178.21C369.165 178.211 334.956 165.809 315.314 148.702L312.686 151.718ZM409.475 182.21C414.474 182.21 553.904 181.865 604.491 182.033L604.504 178.033C553.912 177.865 414.445 178.21 409.475 178.21L409.475 182.21ZM140.527 112.71L223.531 112.71L223.531 108.71L140.527 108.71L140.527 112.71ZM223.531 112.71C263.559 112.71 292.673 134.287 312.686 151.718L315.314 148.702C295.141 131.133 265.078 108.71 223.531 108.71L223.531 112.71Z" fill="#00CFF5"/>
<path d="M17.0083 108.714C15.9037 108.71 15.0046 109.602 15 110.706C14.9955 111.811 15.8872 112.71 16.9917 112.714L17.0083 108.714ZM623 113.214L603.048 101.585L602.953 124.679L623 113.214ZM16.9917 112.714L604.992 115.14L605.008 111.14L17.0083 108.714L16.9917 112.714Z" fill="#00CFF5"/>
<rect x="410" y="9.71436" width="185" height="25" rx="5.71302" fill="#E6E6E8"/>
<path d="M426.452 19.6448L423.345 28.2144H421.559L418.446 19.6448H420.237L422.408 26.2393H422.497L424.661 19.6448H426.452ZM428.02 28.2144V19.6448H429.688V28.2144H428.02ZM428.863 18.3226C428.572 18.3226 428.323 18.2259 428.115 18.0325C427.91 17.8353 427.808 17.601 427.808 17.3295C427.808 17.0542 427.91 16.8199 428.115 16.6265C428.323 16.4294 428.572 16.3308 428.863 16.3308C429.153 16.3308 429.4 16.4294 429.605 16.6265C429.813 16.8199 429.917 17.0542 429.917 17.3295C429.917 17.601 429.813 17.8353 429.605 18.0325C429.4 18.2259 429.153 18.3226 428.863 18.3226ZM433.467 25.3076L433.456 23.2713H433.746L437.16 19.6448H439.157L435.263 23.7734H435.001L433.467 25.3076ZM431.932 28.2144V16.7883H433.601V28.2144H431.932ZM437.344 28.2144L434.276 24.1416L435.425 22.9756L439.392 28.2144H437.344ZM444.018 28.3873C443.174 28.3873 442.447 28.2069 441.837 27.8461C441.231 27.4816 440.762 26.9702 440.431 26.3119C440.104 25.6498 439.94 24.8743 439.94 23.9854C439.94 23.1076 440.104 22.334 440.431 21.6645C440.762 20.995 441.223 20.4724 441.814 20.0967C442.41 19.7211 443.105 19.5332 443.901 19.5332C444.385 19.5332 444.853 19.6132 445.307 19.7731C445.761 19.9331 446.168 20.1841 446.529 20.5263C446.89 20.8685 447.174 21.313 447.382 21.8597C447.591 22.4028 447.695 23.063 447.695 23.8403V24.4317H440.883V23.182H446.06C446.06 22.7431 445.971 22.3544 445.792 22.0159C445.614 21.6738 445.363 21.4041 445.039 21.207C444.719 21.0098 444.344 20.9113 443.912 20.9113C443.444 20.9113 443.034 21.0266 442.685 21.2572C442.339 21.4841 442.071 21.7816 441.881 22.1498C441.695 22.5143 441.602 22.9105 441.602 23.3382V24.3145C441.602 24.8873 441.703 25.3746 441.904 25.7763C442.108 26.178 442.393 26.4848 442.757 26.6968C443.122 26.9051 443.548 27.0093 444.035 27.0093C444.351 27.0093 444.639 26.9646 444.9 26.8754C445.16 26.7824 445.385 26.6448 445.575 26.4625C445.765 26.2803 445.91 26.0552 446.01 25.7874L447.589 26.072C447.462 26.5369 447.236 26.9442 446.908 27.2938C446.585 27.6397 446.177 27.9094 445.686 28.1028C445.199 28.2925 444.643 28.3873 444.018 28.3873ZM454.595 22.6631V24.1081H449.529V22.6631H454.595ZM456.818 28.2144V19.6448H458.431V21.0061H458.52C458.676 20.5449 458.951 20.1823 459.345 19.9182C459.743 19.6504 460.194 19.5165 460.696 19.5165C460.8 19.5165 460.923 19.5202 461.064 19.5277C461.209 19.5351 461.322 19.5444 461.404 19.5556V21.1512C461.337 21.1326 461.218 21.1121 461.047 21.0898C460.876 21.0638 460.705 21.0508 460.534 21.0508C460.14 21.0508 459.788 21.1344 459.479 21.3018C459.174 21.4655 458.933 21.6942 458.754 21.9881C458.576 22.2782 458.486 22.6092 458.486 22.9811V28.2144H456.818ZM466.234 28.3873C465.39 28.3873 464.663 28.2069 464.053 27.8461C463.447 27.4816 462.978 26.9702 462.647 26.3119C462.32 25.6498 462.156 24.8743 462.156 23.9854C462.156 23.1076 462.32 22.334 462.647 21.6645C462.978 20.995 463.439 20.4724 464.031 20.0967C464.626 19.7211 465.321 19.5332 466.117 19.5332C466.601 19.5332 467.069 19.6132 467.523 19.7731C467.977 19.9331 468.384 20.1841 468.745 20.5263C469.106 20.8685 469.39 21.313 469.599 21.8597C469.807 22.4028 469.911 23.063 469.911 23.8403V24.4317H463.099V23.182H468.276C468.276 22.7431 468.187 22.3544 468.008 22.0159C467.83 21.6738 467.579 21.4041 467.255 21.207C466.935 21.0098 466.56 20.9113 466.128 20.9113C465.66 20.9113 465.251 21.0266 464.901 21.2572C464.555 21.4841 464.287 21.7816 464.098 22.1498C463.912 22.5143 463.819 22.9105 463.819 23.3382V24.3145C463.819 24.8873 463.919 25.3746 464.12 25.7763C464.324 26.178 464.609 26.4848 464.973 26.6968C465.338 26.9051 465.764 27.0093 466.251 27.0093C466.567 27.0093 466.855 26.9646 467.116 26.8754C467.376 26.7824 467.601 26.6448 467.791 26.4625C467.981 26.2803 468.126 26.0552 468.226 25.7874L469.805 26.072C469.679 26.5369 469.452 26.9442 469.124 27.2938C468.801 27.6397 468.393 27.9094 467.902 28.1028C467.415 28.2925 466.859 28.3873 466.234 28.3873ZM474.256 28.404C473.713 28.404 473.222 28.3036 472.783 28.1028C472.344 27.8982 471.996 27.6025 471.74 27.2157C471.487 26.8289 471.36 26.3546 471.36 25.793C471.36 25.3095 471.453 24.9115 471.639 24.5991C471.825 24.2867 472.076 24.0393 472.392 23.8571C472.708 23.6748 473.062 23.5372 473.452 23.4442C473.843 23.3512 474.241 23.2805 474.646 23.2322C475.16 23.1727 475.576 23.1243 475.896 23.0871C476.216 23.0462 476.448 22.9811 476.593 22.8919C476.738 22.8026 476.811 22.6575 476.811 22.4567V22.4176C476.811 21.9304 476.673 21.5529 476.398 21.2851C476.127 21.0173 475.721 20.8834 475.182 20.8834C474.62 20.8834 474.178 21.008 473.854 21.2572C473.534 21.5027 473.313 21.776 473.19 22.0773L471.622 21.7203C471.808 21.1995 472.08 20.7792 472.437 20.4594C472.798 20.1358 473.212 19.9015 473.681 19.7564C474.15 19.6076 474.643 19.5332 475.16 19.5332C475.502 19.5332 475.864 19.5742 476.247 19.656C476.634 19.7341 476.995 19.8791 477.33 20.0911C477.668 20.3032 477.945 20.6063 478.161 21.0005C478.377 21.3911 478.485 21.8988 478.485 22.5236V28.2144H476.856V27.0427H476.789C476.681 27.2585 476.519 27.4705 476.303 27.6788C476.088 27.887 475.81 28.06 475.472 28.1976C475.133 28.3352 474.728 28.404 474.256 28.404ZM474.618 27.0651C475.08 27.0651 475.474 26.9739 475.801 26.7917C476.132 26.6094 476.383 26.3714 476.554 26.0776C476.729 25.78 476.817 25.462 476.817 25.1235V24.0189C476.757 24.0784 476.642 24.1342 476.471 24.1862C476.303 24.2346 476.112 24.2774 475.896 24.3145C475.68 24.348 475.47 24.3796 475.266 24.4094C475.061 24.4354 474.89 24.4577 474.752 24.4763C474.429 24.5173 474.133 24.5861 473.865 24.6828C473.601 24.7795 473.389 24.919 473.229 25.1012C473.073 25.2797 472.995 25.5178 472.995 25.8153C472.995 26.2282 473.147 26.5406 473.452 26.7526C473.757 26.9609 474.146 27.0651 474.618 27.0651ZM484.316 28.3873C483.487 28.3873 482.773 28.1995 482.174 27.8238C481.579 27.4444 481.121 26.9219 480.801 26.2561C480.482 25.5903 480.322 24.8278 480.322 23.9686C480.322 23.0983 480.485 22.3302 480.813 21.6645C481.14 20.995 481.601 20.4724 482.196 20.0967C482.791 19.7211 483.492 19.5332 484.3 19.5332C484.95 19.5332 485.531 19.6541 486.04 19.8959C486.55 20.1339 486.961 20.4687 487.273 20.9001C487.589 21.3316 487.777 21.8356 487.837 22.4121H486.213C486.124 22.0104 485.919 21.6645 485.599 21.3743C485.283 21.0842 484.859 20.9392 484.327 20.9392C483.862 20.9392 483.455 21.0619 483.106 21.3074C482.76 21.5492 482.49 21.8951 482.297 22.3451C482.103 22.7914 482.007 23.3196 482.007 23.9296C482.007 24.5544 482.101 25.0938 482.291 25.5475C482.481 26.0013 482.749 26.3528 483.094 26.602C483.444 26.8512 483.855 26.9758 484.327 26.9758C484.644 26.9758 484.93 26.9181 485.187 26.8028C485.447 26.6838 485.665 26.5146 485.839 26.2951C486.018 26.0757 486.142 25.8116 486.213 25.5029H487.837C487.777 26.0571 487.597 26.5518 487.296 26.9869C486.994 27.4221 486.591 27.7643 486.085 28.0135C485.583 28.2627 484.993 28.3873 484.316 28.3873ZM493.621 19.6448V20.9838H488.94V19.6448H493.621ZM490.195 17.5917H491.863V25.6982C491.863 26.0218 491.912 26.2654 492.008 26.429C492.105 26.589 492.23 26.6987 492.382 26.7582C492.539 26.814 492.708 26.8419 492.89 26.8419C493.024 26.8419 493.141 26.8326 493.241 26.814C493.342 26.7954 493.42 26.7805 493.476 26.7694L493.777 28.1474C493.68 28.1846 493.543 28.2218 493.364 28.259C493.186 28.2999 492.963 28.3222 492.695 28.3259C492.256 28.3334 491.847 28.2553 491.467 28.0916C491.088 27.928 490.781 27.675 490.547 27.3329C490.312 26.9907 490.195 26.5611 490.195 26.0441V17.5917ZM500.224 22.6631V24.1081H495.158V22.6631H500.224ZM506.14 28.3873C505.296 28.3873 504.569 28.2069 503.959 27.8461C503.353 27.4816 502.884 26.9702 502.553 26.3119C502.226 25.6498 502.062 24.8743 502.062 23.9854C502.062 23.1076 502.226 22.334 502.553 21.6645C502.884 20.995 503.345 20.4724 503.937 20.0967C504.532 19.7211 505.227 19.5332 506.023 19.5332C506.507 19.5332 506.975 19.6132 507.429 19.7731C507.883 19.9331 508.29 20.1841 508.651 20.5263C509.012 20.8685 509.296 21.313 509.505 21.8597C509.713 22.4028 509.817 23.063 509.817 23.8403V24.4317H503.005V23.182H508.182C508.182 22.7431 508.093 22.3544 507.915 22.0159C507.736 21.6738 507.485 21.4041 507.161 21.207C506.842 21.0098 506.466 20.9113 506.034 20.9113C505.566 20.9113 505.157 21.0266 504.807 21.2572C504.461 21.4841 504.193 21.7816 504.004 22.1498C503.818 22.5143 503.725 22.9105 503.725 23.3382V24.3145C503.725 24.8873 503.825 25.3746 504.026 25.7763C504.23 26.178 504.515 26.4848 504.88 26.6968C505.244 26.9051 505.67 27.0093 506.157 27.0093C506.473 27.0093 506.762 26.9646 507.022 26.8754C507.282 26.7824 507.507 26.6448 507.697 26.4625C507.887 26.2803 508.032 26.0552 508.132 25.7874L509.711 26.072C509.585 26.5369 509.358 26.9442 509.03 27.2938C508.707 27.6397 508.3 27.9094 507.809 28.1028C507.321 28.2925 506.765 28.3873 506.14 28.3873ZM512.785 19.6448L514.676 22.9811L516.585 19.6448H518.409L515.736 23.9296L518.431 28.2144H516.607L514.676 25.0119L512.752 28.2144H510.922L513.589 23.9296L510.955 19.6448H512.785ZM520.122 31.4279V19.6448H521.751V21.034H521.89C521.987 20.8555 522.126 20.6491 522.309 20.4147C522.491 20.1804 522.744 19.9758 523.067 19.801C523.391 19.6225 523.819 19.5332 524.351 19.5332C525.042 19.5332 525.66 19.7081 526.203 20.0577C526.746 20.4073 527.172 20.9113 527.481 21.5696C527.793 22.228 527.949 23.0202 527.949 23.9463C527.949 24.8725 527.795 25.6666 527.486 26.3286C527.177 26.9869 526.753 27.4946 526.214 27.8517C525.675 28.2051 525.059 28.3817 524.367 28.3817C523.847 28.3817 523.421 28.2943 523.09 28.1195C522.762 27.9447 522.506 27.7401 522.32 27.5058C522.134 27.2715 521.991 27.0632 521.89 26.8809H521.79V31.4279H520.122ZM521.756 23.9296C521.756 24.5321 521.844 25.0603 522.019 25.5141C522.193 25.9678 522.446 26.323 522.777 26.5797C523.108 26.8326 523.514 26.9591 523.994 26.9591C524.492 26.9591 524.909 26.827 525.243 26.5629C525.578 26.2951 525.831 25.9325 526.002 25.475C526.177 25.0175 526.264 24.5024 526.264 23.9296C526.264 23.3642 526.179 22.8565 526.008 22.4065C525.84 21.9564 525.587 21.6012 525.249 21.3409C524.914 21.0805 524.496 20.9503 523.994 20.9503C523.51 20.9503 523.101 21.0749 522.766 21.3241C522.435 21.5733 522.184 21.9211 522.013 22.3674C521.842 22.8138 521.756 23.3345 521.756 23.9296ZM533.512 28.3873C532.667 28.3873 531.94 28.2069 531.33 27.8461C530.724 27.4816 530.255 26.9702 529.924 26.3119C529.597 25.6498 529.433 24.8743 529.433 23.9854C529.433 23.1076 529.597 22.334 529.924 21.6645C530.255 20.995 530.716 20.4724 531.308 20.0967C531.903 19.7211 532.598 19.5332 533.394 19.5332C533.878 19.5332 534.347 19.6132 534.8 19.7731C535.254 19.9331 535.661 20.1841 536.022 20.5263C536.383 20.8685 536.668 21.313 536.876 21.8597C537.084 22.4028 537.188 23.063 537.188 23.8403V24.4317H530.376V23.182H535.554C535.554 22.7431 535.464 22.3544 535.286 22.0159C535.107 21.6738 534.856 21.4041 534.533 21.207C534.213 21.0098 533.837 20.9113 533.406 20.9113C532.937 20.9113 532.528 21.0266 532.178 21.2572C531.832 21.4841 531.564 21.7816 531.375 22.1498C531.189 22.5143 531.096 22.9105 531.096 23.3382V24.3145C531.096 24.8873 531.196 25.3746 531.397 25.7763C531.602 26.178 531.886 26.4848 532.251 26.6968C532.615 26.9051 533.041 27.0093 533.528 27.0093C533.844 27.0093 534.133 26.9646 534.393 26.8754C534.653 26.7824 534.878 26.6448 535.068 26.4625C535.258 26.2803 535.403 26.0552 535.503 25.7874L537.082 26.072C536.956 26.5369 536.729 26.9442 536.402 27.2938C536.078 27.6397 535.671 27.9094 535.18 28.1028C534.692 28.2925 534.136 28.3873 533.512 28.3873ZM539.039 28.2144V19.6448H540.651V21.0061H540.741C540.897 20.5449 541.172 20.1823 541.566 19.9182C541.964 19.6504 542.414 19.5165 542.917 19.5165C543.021 19.5165 543.143 19.5202 543.285 19.5277C543.43 19.5351 543.543 19.5444 543.625 19.5556V21.1512C543.558 21.1326 543.439 21.1121 543.268 21.0898C543.097 21.0638 542.926 21.0508 542.755 21.0508C542.361 21.0508 542.009 21.1344 541.7 21.3018C541.395 21.4655 541.154 21.6942 540.975 21.9881C540.797 22.2782 540.707 22.6092 540.707 22.9811V28.2144H539.039ZM545.069 28.2144V19.6448H546.737V28.2144H545.069ZM545.911 18.3226C545.621 18.3226 545.372 18.2259 545.164 18.0325C544.959 17.8353 544.857 17.601 544.857 17.3295C544.857 17.0542 544.959 16.8199 545.164 16.6265C545.372 16.4294 545.621 16.3308 545.911 16.3308C546.201 16.3308 546.449 16.4294 546.653 16.6265C546.862 16.8199 546.966 17.0542 546.966 17.3295C546.966 17.601 546.862 17.8353 546.653 18.0325C546.449 18.2259 546.201 18.3226 545.911 18.3226ZM548.981 28.2144V19.6448H550.582V21.0396H550.688C550.867 20.5672 551.159 20.199 551.564 19.9349C551.97 19.6671 552.455 19.5332 553.02 19.5332C553.593 19.5332 554.073 19.6671 554.46 19.9349C554.85 20.2027 555.139 20.571 555.325 21.0396H555.414C555.618 20.5821 555.944 20.2176 556.39 19.9461C556.837 19.6709 557.368 19.5332 557.986 19.5332C558.763 19.5332 559.397 19.7769 559.888 20.2641C560.383 20.7513 560.63 21.4859 560.63 22.4679V28.2144H558.962V22.6241C558.962 22.0438 558.804 21.6235 558.488 21.3632C558.172 21.1028 557.794 20.9727 557.355 20.9727C556.812 20.9727 556.39 21.14 556.089 21.4748C555.788 21.8058 555.637 22.2317 555.637 22.7524V28.2144H553.974V22.5181C553.974 22.0531 553.829 21.6793 553.539 21.3967C553.249 21.114 552.872 20.9727 552.407 20.9727C552.091 20.9727 551.799 21.0563 551.531 21.2237C551.267 21.3874 551.053 21.6161 550.889 21.9099C550.729 22.2038 550.649 22.5441 550.649 22.9309V28.2144H548.981ZM566.56 28.3873C565.715 28.3873 564.988 28.2069 564.378 27.8461C563.772 27.4816 563.303 26.9702 562.972 26.3119C562.645 25.6498 562.481 24.8743 562.481 23.9854C562.481 23.1076 562.645 22.334 562.972 21.6645C563.303 20.995 563.764 20.4724 564.356 20.0967C564.951 19.7211 565.646 19.5332 566.442 19.5332C566.926 19.5332 567.395 19.6132 567.848 19.7731C568.302 19.9331 568.709 20.1841 569.07 20.5263C569.431 20.8685 569.715 21.313 569.924 21.8597C570.132 22.4028 570.236 23.063 570.236 23.8403V24.4317H563.424V23.182H568.601C568.601 22.7431 568.512 22.3544 568.334 22.0159C568.155 21.6738 567.904 21.4041 567.581 21.207C567.261 21.0098 566.885 20.9113 566.454 20.9113C565.985 20.9113 565.576 21.0266 565.226 21.2572C564.88 21.4841 564.612 21.7816 564.423 22.1498C564.237 22.5143 564.144 22.9105 564.144 23.3382V24.3145C564.144 24.8873 564.244 25.3746 564.445 25.7763C564.65 26.178 564.934 26.4848 565.299 26.6968C565.663 26.9051 566.089 27.0093 566.576 27.0093C566.892 27.0093 567.181 26.9646 567.441 26.8754C567.701 26.7824 567.926 26.6448 568.116 26.4625C568.306 26.2803 568.451 26.0552 568.551 25.7874L570.13 26.072C570.004 26.5369 569.777 26.9442 569.45 27.2938C569.126 27.6397 568.719 27.9094 568.228 28.1028C567.74 28.2925 567.184 28.3873 566.56 28.3873ZM573.755 23.1262V28.2144H572.087V19.6448H573.688V21.0396H573.794C573.991 20.5858 574.3 20.2213 574.72 19.9461C575.144 19.6709 575.678 19.5332 576.322 19.5332C576.906 19.5332 577.417 19.656 577.856 19.9015C578.295 20.1432 578.635 20.504 578.877 20.9838C579.119 21.4636 579.239 22.0569 579.239 22.7636V28.2144H577.571V22.9644C577.571 22.3433 577.41 21.8579 577.086 21.5082C576.762 21.1549 576.318 20.9782 575.753 20.9782C575.366 20.9782 575.022 21.0619 574.72 21.2293C574.423 21.3967 574.187 21.6421 574.012 21.9657C573.841 22.2856 573.755 22.6724 573.755 23.1262ZM585.477 19.6448V20.9838H580.796V19.6448H585.477ZM582.051 17.5917H583.72V25.6982C583.72 26.0218 583.768 26.2654 583.865 26.429C583.961 26.589 584.086 26.6987 584.238 26.7582C584.395 26.814 584.564 26.8419 584.746 26.8419C584.88 26.8419 584.997 26.8326 585.098 26.814C585.198 26.7954 585.276 26.7805 585.332 26.7694L585.633 28.1474C585.536 28.1846 585.399 28.2218 585.22 28.259C585.042 28.2999 584.819 28.3222 584.551 28.3259C584.112 28.3334 583.703 28.2553 583.323 28.0916C582.944 27.928 582.637 27.675 582.403 27.3329C582.169 26.9907 582.051 26.5611 582.051 26.0441V17.5917Z" fill="#4E4D60"/>
<rect x="402" y="144.714" width="193" height="25" rx="5.71302" fill="#E6E6E8"/>
<path d="M417.952 154.645L414.845 163.214H413.059L409.946 154.645H411.737L413.908 161.239H413.997L416.161 154.645H417.952ZM419.52 163.214V154.645H421.188V163.214H419.52ZM420.363 153.323C420.072 153.323 419.823 153.226 419.615 153.032C419.41 152.835 419.308 152.601 419.308 152.329C419.308 152.054 419.41 151.82 419.615 151.627C419.823 151.429 420.072 151.331 420.363 151.331C420.653 151.331 420.9 151.429 421.105 151.627C421.313 151.82 421.417 152.054 421.417 152.329C421.417 152.601 421.313 152.835 421.105 153.032C420.9 153.226 420.653 153.323 420.363 153.323ZM424.967 160.308L424.956 158.271H425.246L428.66 154.645H430.657L426.763 158.773H426.501L424.967 160.308ZM423.432 163.214V151.788H425.101V163.214H423.432ZM428.844 163.214L425.776 159.142L426.925 157.976L430.892 163.214H428.844ZM435.518 163.387C434.674 163.387 433.947 163.207 433.337 162.846C432.731 162.482 432.262 161.97 431.931 161.312C431.604 160.65 431.44 159.874 431.44 158.985C431.44 158.108 431.604 157.334 431.931 156.664C432.262 155.995 432.723 155.472 433.314 155.097C433.91 154.721 434.605 154.533 435.401 154.533C435.885 154.533 436.353 154.613 436.807 154.773C437.261 154.933 437.668 155.184 438.029 155.526C438.39 155.869 438.674 156.313 438.882 156.86C439.091 157.403 439.195 158.063 439.195 158.84V159.432H432.383V158.182H437.56C437.56 157.743 437.471 157.354 437.292 157.016C437.114 156.674 436.863 156.404 436.539 156.207C436.219 156.01 435.844 155.911 435.412 155.911C434.944 155.911 434.534 156.027 434.185 156.257C433.839 156.484 433.571 156.782 433.381 157.15C433.195 157.514 433.102 157.91 433.102 158.338V159.315C433.102 159.887 433.203 160.375 433.404 160.776C433.608 161.178 433.893 161.485 434.257 161.697C434.622 161.905 435.048 162.009 435.535 162.009C435.851 162.009 436.139 161.965 436.4 161.875C436.66 161.782 436.885 161.645 437.075 161.463C437.265 161.28 437.41 161.055 437.51 160.787L439.089 161.072C438.962 161.537 438.736 161.944 438.408 162.294C438.085 162.64 437.677 162.909 437.186 163.103C436.699 163.292 436.143 163.387 435.518 163.387ZM446.095 157.663V159.108H441.029V157.663H446.095ZM448.318 163.214V154.645H449.931V156.006H450.02C450.176 155.545 450.451 155.182 450.845 154.918C451.243 154.65 451.694 154.517 452.196 154.517C452.3 154.517 452.423 154.52 452.564 154.528C452.709 154.535 452.822 154.544 452.904 154.556V156.151C452.837 156.133 452.718 156.112 452.547 156.09C452.376 156.064 452.205 156.051 452.034 156.051C451.64 156.051 451.288 156.134 450.979 156.302C450.674 156.465 450.433 156.694 450.254 156.988C450.076 157.278 449.986 157.609 449.986 157.981V163.214H448.318ZM457.734 163.387C456.89 163.387 456.163 163.207 455.553 162.846C454.947 162.482 454.478 161.97 454.147 161.312C453.82 160.65 453.656 159.874 453.656 158.985C453.656 158.108 453.82 157.334 454.147 156.664C454.478 155.995 454.939 155.472 455.531 155.097C456.126 154.721 456.821 154.533 457.617 154.533C458.101 154.533 458.569 154.613 459.023 154.773C459.477 154.933 459.884 155.184 460.245 155.526C460.606 155.869 460.89 156.313 461.099 156.86C461.307 157.403 461.411 158.063 461.411 158.84V159.432H454.599V158.182H459.776C459.776 157.743 459.687 157.354 459.508 157.016C459.33 156.674 459.079 156.404 458.755 156.207C458.435 156.01 458.06 155.911 457.628 155.911C457.16 155.911 456.751 156.027 456.401 156.257C456.055 156.484 455.787 156.782 455.598 157.15C455.412 157.514 455.319 157.91 455.319 158.338V159.315C455.319 159.887 455.419 160.375 455.62 160.776C455.824 161.178 456.109 161.485 456.473 161.697C456.838 161.905 457.264 162.009 457.751 162.009C458.067 162.009 458.355 161.965 458.616 161.875C458.876 161.782 459.101 161.645 459.291 161.463C459.481 161.28 459.626 161.055 459.726 160.787L461.305 161.072C461.179 161.537 460.952 161.944 460.624 162.294C460.301 162.64 459.893 162.909 459.402 163.103C458.915 163.292 458.359 163.387 457.734 163.387ZM465.756 163.404C465.213 163.404 464.722 163.304 464.283 163.103C463.844 162.898 463.496 162.603 463.24 162.216C462.987 161.829 462.86 161.355 462.86 160.793C462.86 160.309 462.953 159.912 463.139 159.599C463.325 159.287 463.576 159.039 463.892 158.857C464.208 158.675 464.562 158.537 464.952 158.444C465.343 158.351 465.741 158.281 466.146 158.232C466.66 158.173 467.076 158.124 467.396 158.087C467.716 158.046 467.948 157.981 468.093 157.892C468.238 157.803 468.311 157.658 468.311 157.457V157.418C468.311 156.93 468.173 156.553 467.898 156.285C467.627 156.017 467.221 155.883 466.682 155.883C466.12 155.883 465.678 156.008 465.354 156.257C465.034 156.503 464.813 156.776 464.69 157.077L463.122 156.72C463.308 156.2 463.58 155.779 463.937 155.459C464.298 155.136 464.712 154.901 465.181 154.756C465.65 154.608 466.143 154.533 466.66 154.533C467.002 154.533 467.364 154.574 467.747 154.656C468.134 154.734 468.495 154.879 468.83 155.091C469.168 155.303 469.445 155.606 469.661 156.001C469.877 156.391 469.985 156.899 469.985 157.524V163.214H468.356V162.043H468.289C468.181 162.258 468.019 162.47 467.803 162.679C467.588 162.887 467.31 163.06 466.972 163.198C466.633 163.335 466.228 163.404 465.756 163.404ZM466.118 162.065C466.58 162.065 466.974 161.974 467.301 161.792C467.632 161.609 467.883 161.371 468.054 161.078C468.229 160.78 468.317 160.462 468.317 160.124V159.019C468.257 159.078 468.142 159.134 467.971 159.186C467.803 159.235 467.612 159.277 467.396 159.315C467.18 159.348 466.97 159.38 466.766 159.409C466.561 159.435 466.39 159.458 466.252 159.476C465.929 159.517 465.633 159.586 465.365 159.683C465.101 159.779 464.889 159.919 464.729 160.101C464.573 160.28 464.495 160.518 464.495 160.815C464.495 161.228 464.647 161.541 464.952 161.753C465.257 161.961 465.646 162.065 466.118 162.065ZM475.816 163.387C474.987 163.387 474.273 163.199 473.674 162.824C473.079 162.444 472.621 161.922 472.301 161.256C471.982 160.59 471.822 159.828 471.822 158.969C471.822 158.098 471.985 157.33 472.313 156.664C472.64 155.995 473.101 155.472 473.696 155.097C474.291 154.721 474.992 154.533 475.8 154.533C476.45 154.533 477.031 154.654 477.54 154.896C478.05 155.134 478.461 155.469 478.773 155.9C479.089 156.332 479.277 156.836 479.337 157.412H477.713C477.624 157.01 477.419 156.664 477.099 156.374C476.783 156.084 476.359 155.939 475.827 155.939C475.362 155.939 474.955 156.062 474.606 156.307C474.26 156.549 473.99 156.895 473.797 157.345C473.603 157.791 473.507 158.32 473.507 158.93C473.507 159.554 473.601 160.094 473.791 160.548C473.981 161.001 474.249 161.353 474.594 161.602C474.944 161.851 475.355 161.976 475.827 161.976C476.144 161.976 476.43 161.918 476.687 161.803C476.947 161.684 477.165 161.515 477.339 161.295C477.518 161.076 477.642 160.812 477.713 160.503H479.337C479.277 161.057 479.097 161.552 478.796 161.987C478.494 162.422 478.091 162.764 477.585 163.014C477.083 163.263 476.493 163.387 475.816 163.387ZM485.121 154.645V155.984H480.44V154.645H485.121ZM481.695 152.592H483.363V160.698C483.363 161.022 483.412 161.265 483.508 161.429C483.605 161.589 483.73 161.699 483.882 161.758C484.039 161.814 484.208 161.842 484.39 161.842C484.524 161.842 484.641 161.833 484.741 161.814C484.842 161.795 484.92 161.781 484.976 161.769L485.277 163.147C485.18 163.185 485.043 163.222 484.864 163.259C484.686 163.3 484.463 163.322 484.195 163.326C483.756 163.333 483.347 163.255 482.967 163.092C482.588 162.928 482.281 162.675 482.047 162.333C481.812 161.991 481.695 161.561 481.695 161.044V152.592ZM491.724 157.663V159.108H486.658V157.663H491.724ZM497.64 163.387C496.796 163.387 496.069 163.207 495.459 162.846C494.853 162.482 494.384 161.97 494.053 161.312C493.726 160.65 493.562 159.874 493.562 158.985C493.562 158.108 493.726 157.334 494.053 156.664C494.384 155.995 494.845 155.472 495.437 155.097C496.032 154.721 496.727 154.533 497.523 154.533C498.007 154.533 498.475 154.613 498.929 154.773C499.383 154.933 499.79 155.184 500.151 155.526C500.512 155.869 500.796 156.313 501.005 156.86C501.213 157.403 501.317 158.063 501.317 158.84V159.432H494.505V158.182H499.682C499.682 157.743 499.593 157.354 499.415 157.016C499.236 156.674 498.985 156.404 498.661 156.207C498.342 156.01 497.966 155.911 497.534 155.911C497.066 155.911 496.657 156.027 496.307 156.257C495.961 156.484 495.693 156.782 495.504 157.15C495.318 157.514 495.225 157.91 495.225 158.338V159.315C495.225 159.887 495.325 160.375 495.526 160.776C495.73 161.178 496.015 161.485 496.38 161.697C496.744 161.905 497.17 162.009 497.657 162.009C497.973 162.009 498.262 161.965 498.522 161.875C498.782 161.782 499.007 161.645 499.197 161.463C499.387 161.28 499.532 161.055 499.632 160.787L501.211 161.072C501.085 161.537 500.858 161.944 500.53 162.294C500.207 162.64 499.8 162.909 499.309 163.103C498.821 163.292 498.265 163.387 497.64 163.387ZM504.285 154.645L506.176 157.981L508.085 154.645H509.909L507.236 158.93L509.931 163.214H508.107L506.176 160.012L504.252 163.214H502.422L505.089 158.93L502.455 154.645H504.285ZM511.622 166.428V154.645H513.251V156.034H513.39C513.487 155.855 513.626 155.649 513.809 155.415C513.991 155.18 514.244 154.976 514.567 154.801C514.891 154.623 515.319 154.533 515.851 154.533C516.542 154.533 517.16 154.708 517.703 155.058C518.246 155.407 518.672 155.911 518.981 156.57C519.293 157.228 519.449 158.02 519.449 158.946C519.449 159.872 519.295 160.667 518.986 161.329C518.677 161.987 518.253 162.495 517.714 162.852C517.175 163.205 516.559 163.382 515.867 163.382C515.347 163.382 514.921 163.294 514.59 163.12C514.262 162.945 514.006 162.74 513.82 162.506C513.634 162.271 513.491 162.063 513.39 161.881H513.29V166.428H511.622ZM513.256 158.93C513.256 159.532 513.344 160.06 513.519 160.514C513.693 160.968 513.946 161.323 514.277 161.58C514.608 161.833 515.014 161.959 515.494 161.959C515.992 161.959 516.409 161.827 516.743 161.563C517.078 161.295 517.331 160.932 517.502 160.475C517.677 160.018 517.764 159.502 517.764 158.93C517.764 158.364 517.679 157.857 517.508 157.406C517.34 156.956 517.087 156.601 516.749 156.341C516.414 156.081 515.996 155.95 515.494 155.95C515.01 155.95 514.601 156.075 514.266 156.324C513.935 156.573 513.684 156.921 513.513 157.367C513.342 157.814 513.256 158.334 513.256 158.93ZM525.012 163.387C524.167 163.387 523.44 163.207 522.83 162.846C522.224 162.482 521.755 161.97 521.424 161.312C521.097 160.65 520.933 159.874 520.933 158.985C520.933 158.108 521.097 157.334 521.424 156.664C521.755 155.995 522.216 155.472 522.808 155.097C523.403 154.721 524.098 154.533 524.894 154.533C525.378 154.533 525.847 154.613 526.3 154.773C526.754 154.933 527.161 155.184 527.522 155.526C527.883 155.869 528.168 156.313 528.376 156.86C528.584 157.403 528.688 158.063 528.688 158.84V159.432H521.876V158.182H527.054C527.054 157.743 526.964 157.354 526.786 157.016C526.607 156.674 526.356 156.404 526.033 156.207C525.713 156.01 525.337 155.911 524.906 155.911C524.437 155.911 524.028 156.027 523.678 156.257C523.332 156.484 523.064 156.782 522.875 157.15C522.689 157.514 522.596 157.91 522.596 158.338V159.315C522.596 159.887 522.696 160.375 522.897 160.776C523.102 161.178 523.386 161.485 523.751 161.697C524.115 161.905 524.541 162.009 525.028 162.009C525.344 162.009 525.633 161.965 525.893 161.875C526.153 161.782 526.378 161.645 526.568 161.463C526.758 161.28 526.903 161.055 527.003 160.787L528.582 161.072C528.456 161.537 528.229 161.944 527.902 162.294C527.578 162.64 527.171 162.909 526.68 163.103C526.192 163.292 525.636 163.387 525.012 163.387ZM530.539 163.214V154.645H532.151V156.006H532.241C532.397 155.545 532.672 155.182 533.066 154.918C533.464 154.65 533.914 154.517 534.417 154.517C534.521 154.517 534.643 154.52 534.785 154.528C534.93 154.535 535.043 154.544 535.125 154.556V156.151C535.058 156.133 534.939 156.112 534.768 156.09C534.597 156.064 534.426 156.051 534.255 156.051C533.861 156.051 533.509 156.134 533.2 156.302C532.895 156.465 532.654 156.694 532.475 156.988C532.297 157.278 532.207 157.609 532.207 157.981V163.214H530.539ZM536.569 163.214V154.645H538.237V163.214H536.569ZM537.411 153.323C537.121 153.323 536.872 153.226 536.664 153.032C536.459 152.835 536.357 152.601 536.357 152.329C536.357 152.054 536.459 151.82 536.664 151.627C536.872 151.429 537.121 151.331 537.411 151.331C537.701 151.331 537.949 151.429 538.153 151.627C538.362 151.82 538.466 152.054 538.466 152.329C538.466 152.601 538.362 152.835 538.153 153.032C537.949 153.226 537.701 153.323 537.411 153.323ZM540.481 163.214V154.645H542.082V156.04H542.188C542.367 155.567 542.659 155.199 543.064 154.935C543.47 154.667 543.955 154.533 544.52 154.533C545.093 154.533 545.573 154.667 545.96 154.935C546.35 155.203 546.639 155.571 546.825 156.04H546.914C547.118 155.582 547.444 155.218 547.89 154.946C548.337 154.671 548.868 154.533 549.486 154.533C550.263 154.533 550.897 154.777 551.388 155.264C551.883 155.751 552.13 156.486 552.13 157.468V163.214H550.462V157.624C550.462 157.044 550.304 156.624 549.988 156.363C549.672 156.103 549.294 155.973 548.855 155.973C548.312 155.973 547.89 156.14 547.589 156.475C547.288 156.806 547.137 157.232 547.137 157.752V163.214H545.474V157.518C545.474 157.053 545.329 156.679 545.039 156.397C544.749 156.114 544.372 155.973 543.907 155.973C543.591 155.973 543.299 156.056 543.031 156.224C542.767 156.387 542.553 156.616 542.389 156.91C542.229 157.204 542.149 157.544 542.149 157.931V163.214H540.481ZM558.06 163.387C557.215 163.387 556.488 163.207 555.878 162.846C555.272 162.482 554.803 161.97 554.472 161.312C554.145 160.65 553.981 159.874 553.981 158.985C553.981 158.108 554.145 157.334 554.472 156.664C554.803 155.995 555.264 155.472 555.856 155.097C556.451 154.721 557.146 154.533 557.942 154.533C558.426 154.533 558.895 154.613 559.348 154.773C559.802 154.933 560.209 155.184 560.57 155.526C560.931 155.869 561.215 156.313 561.424 156.86C561.632 157.403 561.736 158.063 561.736 158.84V159.432H554.924V158.182H560.101C560.101 157.743 560.012 157.354 559.834 157.016C559.655 156.674 559.404 156.404 559.081 156.207C558.761 156.01 558.385 155.911 557.954 155.911C557.485 155.911 557.076 156.027 556.726 156.257C556.38 156.484 556.112 156.782 555.923 157.15C555.737 157.514 555.644 157.91 555.644 158.338V159.315C555.644 159.887 555.744 160.375 555.945 160.776C556.15 161.178 556.434 161.485 556.799 161.697C557.163 161.905 557.589 162.009 558.076 162.009C558.392 162.009 558.681 161.965 558.941 161.875C559.201 161.782 559.426 161.645 559.616 161.463C559.806 161.28 559.951 161.055 560.051 160.787L561.63 161.072C561.504 161.537 561.277 161.944 560.95 162.294C560.626 162.64 560.219 162.909 559.728 163.103C559.24 163.292 558.684 163.387 558.06 163.387ZM565.255 158.126V163.214H563.587V154.645H565.188V156.04H565.294C565.491 155.586 565.8 155.221 566.22 154.946C566.644 154.671 567.178 154.533 567.822 154.533C568.406 154.533 568.917 154.656 569.356 154.901C569.795 155.143 570.135 155.504 570.377 155.984C570.619 156.464 570.739 157.057 570.739 157.764V163.214H569.071V157.964C569.071 157.343 568.91 156.858 568.586 156.508C568.262 156.155 567.818 155.978 567.253 155.978C566.866 155.978 566.522 156.062 566.22 156.229C565.923 156.397 565.687 156.642 565.512 156.966C565.341 157.286 565.255 157.672 565.255 158.126ZM576.977 154.645V155.984H572.296V154.645H576.977ZM573.551 152.592H575.22V160.698C575.22 161.022 575.268 161.265 575.365 161.429C575.461 161.589 575.586 161.699 575.738 161.758C575.895 161.814 576.064 161.842 576.246 161.842C576.38 161.842 576.497 161.833 576.598 161.814C576.698 161.795 576.776 161.781 576.832 161.769L577.133 163.147C577.036 163.185 576.899 163.222 576.72 163.259C576.542 163.3 576.319 163.322 576.051 163.326C575.612 163.333 575.203 163.255 574.823 163.092C574.444 162.928 574.137 162.675 573.903 162.333C573.669 161.991 573.551 161.561 573.551 161.044V152.592ZM578.8 163.214V161.965L582.666 157.959C583.079 157.524 583.419 157.142 583.687 156.815C583.959 156.484 584.161 156.17 584.295 155.872C584.429 155.575 584.496 155.259 584.496 154.924C584.496 154.544 584.407 154.217 584.228 153.942C584.05 153.663 583.806 153.449 583.498 153.3C583.189 153.148 582.841 153.072 582.454 153.072C582.045 153.072 581.688 153.155 581.383 153.323C581.078 153.49 580.844 153.726 580.68 154.031C580.516 154.336 580.435 154.693 580.435 155.102H578.789C578.789 154.407 578.949 153.799 579.269 153.278C579.588 152.757 580.027 152.354 580.585 152.067C581.143 151.777 581.777 151.632 582.488 151.632C583.206 151.632 583.838 151.775 584.385 152.062C584.935 152.344 585.365 152.731 585.673 153.222C585.982 153.709 586.136 154.26 586.136 154.874C586.136 155.298 586.057 155.712 585.897 156.118C585.74 156.523 585.467 156.975 585.076 157.473C584.686 157.968 584.143 158.569 583.447 159.275L581.177 161.652V161.736H586.321V163.214H578.8Z" fill="#4E4D60"/>
<rect x="502" y="78.7144" width="93" height="25" rx="5.71302" fill="#E6E6E8"/>
<path d="M518.452 88.6448L515.345 97.2144H513.559L510.446 88.6448H512.237L514.408 95.2393H514.497L516.661 88.6448H518.452ZM520.02 97.2144V88.6448H521.688V97.2144H520.02ZM520.863 87.3226C520.572 87.3226 520.323 87.2259 520.115 87.0325C519.91 86.8353 519.808 86.601 519.808 86.3295C519.808 86.0542 519.91 85.8199 520.115 85.6265C520.323 85.4294 520.572 85.3308 520.863 85.3308C521.153 85.3308 521.4 85.4294 521.605 85.6265C521.813 85.8199 521.917 86.0542 521.917 86.3295C521.917 86.601 521.813 86.8353 521.605 87.0325C521.4 87.2259 521.153 87.3226 520.863 87.3226ZM525.467 94.3076L525.456 92.2713H525.746L529.16 88.6448H531.157L527.263 92.7734H527.001L525.467 94.3076ZM523.932 97.2144V85.7883H525.601V97.2144H523.932ZM529.344 97.2144L526.276 93.1416L527.425 91.9756L531.392 97.2144H529.344ZM536.018 97.3873C535.174 97.3873 534.447 97.2069 533.837 96.8461C533.231 96.4816 532.762 95.9702 532.431 95.3119C532.104 94.6498 531.94 93.8743 531.94 92.9854C531.94 92.1076 532.104 91.334 532.431 90.6645C532.762 89.995 533.223 89.4724 533.814 89.0967C534.41 88.7211 535.105 88.5332 535.901 88.5332C536.385 88.5332 536.853 88.6132 537.307 88.7731C537.761 88.9331 538.168 89.1841 538.529 89.5263C538.89 89.8685 539.174 90.313 539.382 90.8597C539.591 91.4028 539.695 92.063 539.695 92.8403V93.4317H532.883V92.182H538.06C538.06 91.7431 537.971 91.3544 537.792 91.0159C537.614 90.6738 537.363 90.4041 537.039 90.207C536.719 90.0098 536.344 89.9113 535.912 89.9113C535.444 89.9113 535.034 90.0266 534.685 90.2572C534.339 90.4841 534.071 90.7816 533.881 91.1498C533.695 91.5143 533.602 91.9105 533.602 92.3382V93.3145C533.602 93.8873 533.703 94.3746 533.904 94.7763C534.108 95.178 534.393 95.4848 534.757 95.6968C535.122 95.9051 535.548 96.0093 536.035 96.0093C536.351 96.0093 536.639 95.9646 536.9 95.8754C537.16 95.7824 537.385 95.6448 537.575 95.4625C537.765 95.2803 537.91 95.0552 538.01 94.7874L539.589 95.072C539.462 95.5369 539.236 95.9442 538.908 96.2938C538.585 96.6397 538.177 96.9094 537.686 97.1028C537.199 97.2925 536.643 97.3873 536.018 97.3873ZM546.595 91.6631V93.1081H541.529V91.6631H546.595ZM548.818 97.2144V88.6448H550.431V90.0061H550.52C550.676 89.5449 550.951 89.1823 551.345 88.9182C551.743 88.6504 552.194 88.5165 552.696 88.5165C552.8 88.5165 552.923 88.5202 553.064 88.5277C553.209 88.5351 553.322 88.5444 553.404 88.5556V90.1512C553.337 90.1326 553.218 90.1121 553.047 90.0898C552.876 90.0638 552.705 90.0508 552.534 90.0508C552.14 90.0508 551.788 90.1344 551.479 90.3018C551.174 90.4655 550.933 90.6942 550.754 90.9881C550.576 91.2782 550.486 91.6092 550.486 91.9811V97.2144H548.818ZM558.234 97.3873C557.39 97.3873 556.663 97.2069 556.053 96.8461C555.447 96.4816 554.978 95.9702 554.647 95.3119C554.32 94.6498 554.156 93.8743 554.156 92.9854C554.156 92.1076 554.32 91.334 554.647 90.6645C554.978 89.995 555.439 89.4724 556.031 89.0967C556.626 88.7211 557.321 88.5332 558.117 88.5332C558.601 88.5332 559.069 88.6132 559.523 88.7731C559.977 88.9331 560.384 89.1841 560.745 89.5263C561.106 89.8685 561.39 90.313 561.599 90.8597C561.807 91.4028 561.911 92.063 561.911 92.8403V93.4317H555.099V92.182H560.276C560.276 91.7431 560.187 91.3544 560.008 91.0159C559.83 90.6738 559.579 90.4041 559.255 90.207C558.935 90.0098 558.56 89.9113 558.128 89.9113C557.66 89.9113 557.251 90.0266 556.901 90.2572C556.555 90.4841 556.287 90.7816 556.098 91.1498C555.912 91.5143 555.819 91.9105 555.819 92.3382V93.3145C555.819 93.8873 555.919 94.3746 556.12 94.7763C556.324 95.178 556.609 95.4848 556.973 95.6968C557.338 95.9051 557.764 96.0093 558.251 96.0093C558.567 96.0093 558.855 95.9646 559.116 95.8754C559.376 95.7824 559.601 95.6448 559.791 95.4625C559.981 95.2803 560.126 95.0552 560.226 94.7874L561.805 95.072C561.679 95.5369 561.452 95.9442 561.124 96.2938C560.801 96.6397 560.393 96.9094 559.902 97.1028C559.415 97.2925 558.859 97.3873 558.234 97.3873ZM566.256 97.404C565.713 97.404 565.222 97.3036 564.783 97.1028C564.344 96.8982 563.996 96.6025 563.74 96.2157C563.487 95.8289 563.36 95.3546 563.36 94.793C563.36 94.3095 563.453 93.9115 563.639 93.5991C563.825 93.2867 564.076 93.0393 564.392 92.8571C564.708 92.6748 565.062 92.5372 565.452 92.4442C565.843 92.3512 566.241 92.2805 566.646 92.2322C567.16 92.1727 567.576 92.1243 567.896 92.0871C568.216 92.0462 568.448 91.9811 568.593 91.8919C568.738 91.8026 568.811 91.6575 568.811 91.4567V91.4176C568.811 90.9304 568.673 90.5529 568.398 90.2851C568.127 90.0173 567.721 89.8834 567.182 89.8834C566.62 89.8834 566.178 90.008 565.854 90.2572C565.534 90.5027 565.313 90.776 565.19 91.0773L563.622 90.7203C563.808 90.1995 564.08 89.7792 564.437 89.4594C564.798 89.1358 565.212 88.9015 565.681 88.7564C566.15 88.6076 566.643 88.5332 567.16 88.5332C567.502 88.5332 567.864 88.5742 568.247 88.656C568.634 88.7341 568.995 88.8791 569.33 89.0911C569.668 89.3032 569.945 89.6063 570.161 90.0005C570.377 90.3911 570.485 90.8988 570.485 91.5236V97.2144H568.856V96.0427H568.789C568.681 96.2585 568.519 96.4705 568.303 96.6788C568.088 96.887 567.81 97.06 567.472 97.1976C567.133 97.3352 566.728 97.404 566.256 97.404ZM566.618 96.0651C567.08 96.0651 567.474 95.9739 567.801 95.7917C568.132 95.6094 568.383 95.3714 568.554 95.0776C568.729 94.78 568.817 94.462 568.817 94.1235V93.0189C568.757 93.0784 568.642 93.1342 568.471 93.1862C568.303 93.2346 568.112 93.2774 567.896 93.3145C567.68 93.348 567.47 93.3796 567.266 93.4094C567.061 93.4354 566.89 93.4577 566.752 93.4763C566.429 93.5173 566.133 93.5861 565.865 93.6828C565.601 93.7795 565.389 93.919 565.229 94.1012C565.073 94.2797 564.995 94.5178 564.995 94.8153C564.995 95.2282 565.147 95.5406 565.452 95.7526C565.757 95.9609 566.146 96.0651 566.618 96.0651ZM576.316 97.3873C575.487 97.3873 574.773 97.1995 574.174 96.8238C573.579 96.4444 573.121 95.9219 572.801 95.2561C572.482 94.5903 572.322 93.8278 572.322 92.9686C572.322 92.0983 572.485 91.3302 572.813 90.6645C573.14 89.995 573.601 89.4724 574.196 89.0967C574.791 88.7211 575.492 88.5332 576.3 88.5332C576.95 88.5332 577.531 88.6541 578.04 88.8959C578.55 89.1339 578.961 89.4687 579.273 89.9001C579.589 90.3316 579.777 90.8356 579.837 91.4121H578.213C578.124 91.0104 577.919 90.6645 577.599 90.3743C577.283 90.0842 576.859 89.9392 576.327 89.9392C575.862 89.9392 575.455 90.0619 575.106 90.3074C574.76 90.5492 574.49 90.8951 574.297 91.3451C574.103 91.7914 574.007 92.3196 574.007 92.9296C574.007 93.5544 574.101 94.0938 574.291 94.5475C574.481 95.0013 574.749 95.3528 575.094 95.602C575.444 95.8512 575.855 95.9758 576.327 95.9758C576.644 95.9758 576.93 95.9181 577.187 95.8028C577.447 95.6838 577.665 95.5146 577.839 95.2951C578.018 95.0757 578.142 94.8116 578.213 94.5029H579.837C579.777 95.0571 579.597 95.5518 579.296 95.9869C578.994 96.4221 578.591 96.7643 578.085 97.0135C577.583 97.2627 576.993 97.3873 576.316 97.3873ZM585.621 88.6448V89.9838H580.94V88.6448H585.621ZM582.195 86.5917H583.863V94.6982C583.863 95.0218 583.912 95.2654 584.008 95.429C584.105 95.589 584.23 95.6987 584.382 95.7582C584.539 95.814 584.708 95.8419 584.89 95.8419C585.024 95.8419 585.141 95.8326 585.241 95.814C585.342 95.7954 585.42 95.7805 585.476 95.7694L585.777 97.1474C585.68 97.1846 585.543 97.2218 585.364 97.259C585.186 97.2999 584.963 97.3222 584.695 97.3259C584.256 97.3334 583.847 97.2553 583.467 97.0916C583.088 96.928 582.781 96.675 582.547 96.3329C582.312 95.9907 582.195 95.5611 582.195 95.0441V86.5917Z" fill="#4E4D60"/>
<path d="M621.486 247.421L601.647 235.599L601.328 258.691L621.486 247.421ZM380.499 280.421L379.314 278.81L379.313 278.811L380.499 280.421ZM457.153 247.421L457.153 249.421L457.256 249.421L457.358 249.411L457.153 247.421ZM271.211 313.421L271.152 315.42L271.182 315.421L271.211 315.421L271.211 313.421ZM381.684 282.032C394.726 272.44 417.301 249.422 457.153 249.421L457.153 245.421C415.678 245.422 391.88 269.567 379.314 278.81L381.684 282.032ZM457.358 249.411C457.85 249.36 459.819 249.305 463.144 249.257C466.407 249.209 470.857 249.169 476.196 249.135C486.873 249.067 501.094 249.026 516.472 249.009C547.228 248.976 582.598 249.038 603.473 249.173L603.499 245.173C582.61 245.038 547.229 244.976 516.468 245.009C501.087 245.026 486.858 245.067 476.17 245.135C470.827 245.169 466.366 245.209 463.086 245.257C459.87 245.304 457.665 245.358 456.949 245.432L457.358 249.411ZM37.207 313.421C37.2127 315.421 37.2135 315.421 37.2152 315.421C37.2168 315.421 37.2192 315.421 37.2225 315.421C37.2289 315.421 37.2386 315.421 37.2516 315.421C37.2774 315.421 37.3161 315.421 37.3674 315.421C37.4699 315.421 37.623 315.42 37.8251 315.42C38.2293 315.419 38.8294 315.417 39.613 315.415C41.1802 315.41 43.4816 315.404 46.4179 315.396C52.2905 315.381 60.7032 315.36 70.8631 315.336C91.1829 315.289 118.492 315.232 146.447 315.194C202.387 315.118 260.84 315.118 271.152 315.42L271.27 311.422C260.876 311.117 202.327 311.118 146.442 311.194C118.484 311.232 91.1743 311.289 70.8537 311.336C60.6934 311.36 52.2804 311.381 46.4074 311.396C43.4709 311.404 41.1694 311.41 39.602 311.415C38.8184 311.417 38.2182 311.419 37.8139 311.42C37.6118 311.42 37.4587 311.421 37.3561 311.421C37.3048 311.421 37.2661 311.421 37.2402 311.421C37.2273 311.421 37.2176 311.421 37.2111 311.421C37.2078 311.421 37.2054 311.421 37.2038 311.421C37.2022 311.421 37.2013 311.421 37.207 313.421ZM271.211 315.421C291.887 315.421 314.8 310.519 334.832 303.932C354.839 297.354 372.187 289.023 381.684 282.032L379.313 278.811C370.296 285.449 353.393 293.618 333.582 300.132C313.796 306.638 291.323 311.421 271.211 311.421L271.211 315.421Z" fill="#00CC70"/>
<path d="M622.501 382.922L602.593 371.216L602.409 394.309L622.501 382.922ZM231.475 382.922L231.475 380.922L231.475 380.922L231.475 382.922ZM45.5318 313.422L45.5318 311.422L45.5318 311.422L45.5318 313.422ZM134.687 354.43C155.23 372.322 190.457 384.922 231.475 384.922L231.475 380.922C191.166 380.922 156.956 368.521 137.314 351.414L134.687 354.43ZM231.475 384.922C236.747 384.922 528.285 384.538 604.487 384.778L604.5 380.778C528.29 380.538 236.729 380.922 231.475 380.922L231.475 384.922ZM140.528 313.422C140.528 311.422 140.528 311.422 140.527 311.422C140.526 311.422 140.525 311.422 140.523 311.422C140.519 311.422 140.514 311.422 140.507 311.422C140.493 311.422 140.472 311.422 140.444 311.422C140.389 311.422 140.306 311.422 140.197 311.422C139.979 311.422 139.655 311.422 139.234 311.422C138.391 311.422 137.159 311.422 135.597 311.422C132.474 311.422 128.035 311.422 122.773 311.422C112.25 311.422 98.4339 311.422 85.2653 311.422C72.0966 311.422 59.575 311.422 51.6397 311.422C47.6721 311.422 44.851 311.422 43.6689 311.422C43.3733 311.422 43.1802 311.422 43.0973 311.422C43.0766 311.422 43.0628 311.422 43.056 311.422C43.0543 311.422 43.0531 311.422 43.0523 311.422C43.0517 311.422 45.0507 313.419 43.0571 315.422C43.0531 315.422 43.0492 315.422 43.0565 315.422C43.071 315.422 43.1139 315.422 43.1865 315.422C43.4764 315.422 44.2377 315.422 45.5318 315.422L45.5318 311.422C44.2377 311.422 43.4764 311.422 43.1864 311.422C43.1139 311.422 43.0708 311.422 43.0562 311.422C43.0544 311.422 43.0529 311.422 43.0519 311.422C43.0509 311.422 43.0474 311.422 43.0445 311.422C41.0507 313.425 43.0506 315.422 43.0516 315.422C43.0525 315.422 43.0539 315.422 43.0556 315.422C43.0626 315.422 43.0765 315.422 43.0972 315.422C43.1802 315.422 43.3733 315.422 43.6688 315.422C44.851 315.422 47.6721 315.422 51.6397 315.422C59.575 315.422 72.0966 315.422 85.2653 315.422C98.4339 315.422 112.25 315.422 122.773 315.422C128.035 315.422 132.474 315.422 135.597 315.422C137.159 315.422 138.391 315.422 139.234 315.422C139.655 315.422 139.979 315.422 140.197 315.422C140.306 315.422 140.389 315.422 140.444 315.422C140.472 315.422 140.493 315.422 140.507 315.422C140.514 315.422 140.519 315.422 140.523 315.422C140.525 315.422 140.526 315.422 140.527 315.422C140.528 315.422 140.528 315.422 140.528 313.422ZM45.5318 315.422C85.5594 315.422 114.674 336.999 134.687 354.43L137.314 351.414C117.142 333.844 87.0787 311.422 45.5318 311.422L45.5318 315.422Z" fill="#00CC70"/>
<path d="M17.0083 311.422C15.9037 311.417 15.0046 312.309 15 313.414C14.9955 314.518 15.8872 315.417 16.9917 315.422L17.0083 311.422ZM623 315.922L603.048 304.292L602.953 327.386L623 315.922ZM16.9917 315.422L604.992 317.848L605.008 313.848L17.0083 311.422L16.9917 315.422Z" fill="#00CC70"/>
<rect x="421" y="212.714" width="174" height="25" rx="5.71302" fill="#E6E6E8"/>
<path d="M437.452 222.645L434.345 231.214H432.559L429.446 222.645H431.237L433.408 229.239H433.497L435.661 222.645H437.452ZM439.02 231.214V222.645H440.688V231.214H439.02ZM439.863 221.323C439.572 221.323 439.323 221.226 439.115 221.032C438.91 220.835 438.808 220.601 438.808 220.329C438.808 220.054 438.91 219.82 439.115 219.627C439.323 219.429 439.572 219.331 439.863 219.331C440.153 219.331 440.4 219.429 440.605 219.627C440.813 219.82 440.917 220.054 440.917 220.329C440.917 220.601 440.813 220.835 440.605 221.032C440.4 221.226 440.153 221.323 439.863 221.323ZM444.467 228.308L444.456 226.271H444.746L448.16 222.645H450.157L446.263 226.773H446.001L444.467 228.308ZM442.932 231.214V219.788H444.601V231.214H442.932ZM448.344 231.214L445.276 227.142L446.425 225.976L450.392 231.214H448.344ZM455.018 231.387C454.174 231.387 453.447 231.207 452.837 230.846C452.231 230.482 451.762 229.97 451.431 229.312C451.104 228.65 450.94 227.874 450.94 226.985C450.94 226.108 451.104 225.334 451.431 224.664C451.762 223.995 452.223 223.472 452.814 223.097C453.41 222.721 454.105 222.533 454.901 222.533C455.385 222.533 455.853 222.613 456.307 222.773C456.761 222.933 457.168 223.184 457.529 223.526C457.89 223.869 458.174 224.313 458.382 224.86C458.591 225.403 458.695 226.063 458.695 226.84V227.432H451.883V226.182H457.06C457.06 225.743 456.971 225.354 456.792 225.016C456.614 224.674 456.363 224.404 456.039 224.207C455.719 224.01 455.344 223.911 454.912 223.911C454.444 223.911 454.034 224.027 453.685 224.257C453.339 224.484 453.071 224.782 452.881 225.15C452.695 225.514 452.602 225.91 452.602 226.338V227.315C452.602 227.887 452.703 228.375 452.904 228.776C453.108 229.178 453.393 229.485 453.757 229.697C454.122 229.905 454.548 230.009 455.035 230.009C455.351 230.009 455.639 229.965 455.9 229.875C456.16 229.782 456.385 229.645 456.575 229.463C456.765 229.28 456.91 229.055 457.01 228.787L458.589 229.072C458.462 229.537 458.236 229.944 457.908 230.294C457.585 230.64 457.177 230.909 456.686 231.103C456.199 231.292 455.643 231.387 455.018 231.387ZM465.595 225.663V227.108H460.529V225.663H465.595ZM475.149 222.645L472.042 231.214H470.256L467.143 222.645H468.934L471.104 229.239H471.194L473.358 222.645H475.149ZM482.145 227.66V222.645H483.819V231.214H482.179V229.73H482.09C481.892 230.188 481.576 230.569 481.141 230.874C480.71 231.175 480.172 231.326 479.529 231.326C478.978 231.326 478.491 231.205 478.067 230.963C477.647 230.718 477.316 230.355 477.074 229.875C476.836 229.396 476.717 228.802 476.717 228.096V222.645H478.385V227.895C478.385 228.479 478.547 228.944 478.87 229.29C479.194 229.635 479.614 229.808 480.131 229.808C480.444 229.808 480.754 229.73 481.063 229.574C481.375 229.418 481.634 229.182 481.838 228.866C482.047 228.549 482.149 228.148 482.145 227.66ZM489.754 231.387C488.91 231.387 488.182 231.207 487.572 230.846C486.966 230.482 486.498 229.97 486.166 229.312C485.839 228.65 485.676 227.874 485.676 226.985C485.676 226.108 485.839 225.334 486.166 224.664C486.498 223.995 486.959 223.472 487.55 223.097C488.145 222.721 488.841 222.533 489.637 222.533C490.12 222.533 490.589 222.613 491.043 222.773C491.496 222.933 491.904 223.184 492.264 223.526C492.625 223.869 492.91 224.313 493.118 224.86C493.326 225.403 493.431 226.063 493.431 226.84V227.432H486.618V226.182H491.796C491.796 225.743 491.707 225.354 491.528 225.016C491.35 224.674 491.098 224.404 490.775 224.207C490.455 224.01 490.079 223.911 489.648 223.911C489.179 223.911 488.77 224.027 488.42 224.257C488.075 224.484 487.807 224.782 487.617 225.15C487.431 225.514 487.338 225.91 487.338 226.338V227.315C487.338 227.887 487.439 228.375 487.639 228.776C487.844 229.178 488.128 229.485 488.493 229.697C488.857 229.905 489.283 230.009 489.771 230.009C490.087 230.009 490.375 229.965 490.635 229.875C490.896 229.782 491.121 229.645 491.31 229.463C491.5 229.28 491.645 229.055 491.746 228.787L493.325 229.072C493.198 229.537 492.971 229.944 492.644 230.294C492.32 230.64 491.913 230.909 491.422 231.103C490.935 231.292 490.379 231.387 489.754 231.387ZM500.331 225.663V227.108H495.265V225.663H500.331ZM506.247 231.387C505.403 231.387 504.676 231.207 504.066 230.846C503.459 230.482 502.991 229.97 502.66 229.312C502.332 228.65 502.169 227.874 502.169 226.985C502.169 226.108 502.332 225.334 502.66 224.664C502.991 223.995 503.452 223.472 504.043 223.097C504.639 222.721 505.334 222.533 506.13 222.533C506.614 222.533 507.082 222.613 507.536 222.773C507.99 222.933 508.397 223.184 508.758 223.526C509.119 223.869 509.403 224.313 509.611 224.86C509.82 225.403 509.924 226.063 509.924 226.84V227.432H503.112V226.182H508.289C508.289 225.743 508.2 225.354 508.021 225.016C507.843 224.674 507.592 224.404 507.268 224.207C506.948 224.01 506.573 223.911 506.141 223.911C505.673 223.911 505.263 224.027 504.914 224.257C504.568 224.484 504.3 224.782 504.11 225.15C503.924 225.514 503.831 225.91 503.831 226.338V227.315C503.831 227.887 503.932 228.375 504.133 228.776C504.337 229.178 504.622 229.485 504.986 229.697C505.351 229.905 505.777 230.009 506.264 230.009C506.58 230.009 506.868 229.965 507.129 229.875C507.389 229.782 507.614 229.645 507.804 229.463C507.993 229.28 508.138 229.055 508.239 228.787L509.818 229.072C509.691 229.537 509.464 229.944 509.137 230.294C508.814 230.64 508.406 230.909 507.915 231.103C507.428 231.292 506.872 231.387 506.247 231.387ZM512.892 222.645L514.783 225.981L516.691 222.645H518.516L515.843 226.93L518.538 231.214H516.714L514.783 228.012L512.858 231.214H511.028L513.695 226.93L511.062 222.645H512.892ZM520.228 234.428V222.645H521.858V224.034H521.997C522.094 223.855 522.233 223.649 522.415 223.415C522.598 223.18 522.851 222.976 523.174 222.801C523.498 222.623 523.926 222.533 524.457 222.533C525.149 222.533 525.767 222.708 526.31 223.058C526.853 223.407 527.279 223.911 527.587 224.57C527.9 225.228 528.056 226.02 528.056 226.946C528.056 227.872 527.902 228.667 527.593 229.329C527.284 229.987 526.86 230.495 526.321 230.852C525.782 231.205 525.166 231.382 524.474 231.382C523.953 231.382 523.528 231.294 523.197 231.12C522.869 230.945 522.613 230.74 522.427 230.506C522.241 230.271 522.097 230.063 521.997 229.881H521.897V234.428H520.228ZM521.863 226.93C521.863 227.532 521.951 228.06 522.125 228.514C522.3 228.968 522.553 229.323 522.884 229.58C523.215 229.833 523.621 229.959 524.1 229.959C524.599 229.959 525.015 229.827 525.35 229.563C525.685 229.295 525.938 228.932 526.109 228.475C526.284 228.018 526.371 227.502 526.371 226.93C526.371 226.364 526.286 225.857 526.114 225.406C525.947 224.956 525.694 224.601 525.356 224.341C525.021 224.081 524.602 223.95 524.1 223.95C523.617 223.95 523.208 224.075 522.873 224.324C522.542 224.573 522.291 224.921 522.12 225.367C521.949 225.814 521.863 226.334 521.863 226.93ZM533.618 231.387C532.774 231.387 532.047 231.207 531.437 230.846C530.831 230.482 530.362 229.97 530.031 229.312C529.704 228.65 529.54 227.874 529.54 226.985C529.54 226.108 529.704 225.334 530.031 224.664C530.362 223.995 530.823 223.472 531.415 223.097C532.01 222.721 532.705 222.533 533.501 222.533C533.985 222.533 534.453 222.613 534.907 222.773C535.361 222.933 535.768 223.184 536.129 223.526C536.49 223.869 536.774 224.313 536.983 224.86C537.191 225.403 537.295 226.063 537.295 226.84V227.432H530.483V226.182H535.66C535.66 225.743 535.571 225.354 535.393 225.016C535.214 224.674 534.963 224.404 534.639 224.207C534.319 224.01 533.944 223.911 533.512 223.911C533.044 223.911 532.635 224.027 532.285 224.257C531.939 224.484 531.671 224.782 531.482 225.15C531.296 225.514 531.203 225.91 531.203 226.338V227.315C531.203 227.887 531.303 228.375 531.504 228.776C531.708 229.178 531.993 229.485 532.357 229.697C532.722 229.905 533.148 230.009 533.635 230.009C533.951 230.009 534.239 229.965 534.5 229.875C534.76 229.782 534.985 229.645 535.175 229.463C535.365 229.28 535.51 229.055 535.61 228.787L537.189 229.072C537.063 229.537 536.836 229.944 536.508 230.294C536.185 230.64 535.777 230.909 535.287 231.103C534.799 231.292 534.243 231.387 533.618 231.387ZM539.146 231.214V222.645H540.758V224.006H540.847C541.004 223.545 541.279 223.182 541.673 222.918C542.071 222.65 542.521 222.517 543.023 222.517C543.127 222.517 543.25 222.52 543.392 222.528C543.537 222.535 543.65 222.544 543.732 222.556V224.151C543.665 224.133 543.546 224.112 543.375 224.09C543.204 224.064 543.033 224.051 542.862 224.051C542.467 224.051 542.116 224.134 541.807 224.302C541.502 224.465 541.26 224.694 541.082 224.988C540.903 225.278 540.814 225.609 540.814 225.981V231.214H539.146ZM545.176 231.214V222.645H546.844V231.214H545.176ZM546.018 221.323C545.728 221.323 545.479 221.226 545.27 221.032C545.066 220.835 544.963 220.601 544.963 220.329C544.963 220.054 545.066 219.82 545.27 219.627C545.479 219.429 545.728 219.331 546.018 219.331C546.308 219.331 546.555 219.429 546.76 219.627C546.968 219.82 547.072 220.054 547.072 220.329C547.072 220.601 546.968 220.835 546.76 221.032C546.555 221.226 546.308 221.323 546.018 221.323ZM549.088 231.214V222.645H550.689V224.04H550.795C550.974 223.567 551.266 223.199 551.671 222.935C552.076 222.667 552.562 222.533 553.127 222.533C553.7 222.533 554.18 222.667 554.567 222.935C554.957 223.203 555.245 223.571 555.431 224.04H555.521C555.725 223.582 556.051 223.218 556.497 222.946C556.943 222.671 557.475 222.533 558.093 222.533C558.87 222.533 559.504 222.777 559.995 223.264C560.49 223.751 560.737 224.486 560.737 225.468V231.214H559.069V225.624C559.069 225.044 558.911 224.624 558.595 224.363C558.279 224.103 557.901 223.973 557.462 223.973C556.919 223.973 556.497 224.14 556.196 224.475C555.894 224.806 555.744 225.232 555.744 225.752V231.214H554.081V225.518C554.081 225.053 553.936 224.679 553.646 224.397C553.356 224.114 552.978 223.973 552.513 223.973C552.197 223.973 551.905 224.056 551.638 224.224C551.373 224.387 551.16 224.616 550.996 224.91C550.836 225.204 550.756 225.544 550.756 225.931V231.214H549.088ZM566.666 231.387C565.822 231.387 565.095 231.207 564.485 230.846C563.879 230.482 563.41 229.97 563.079 229.312C562.752 228.65 562.588 227.874 562.588 226.985C562.588 226.108 562.752 225.334 563.079 224.664C563.41 223.995 563.871 223.472 564.463 223.097C565.058 222.721 565.753 222.533 566.549 222.533C567.033 222.533 567.501 222.613 567.955 222.773C568.409 222.933 568.816 223.184 569.177 223.526C569.538 223.869 569.822 224.313 570.03 224.86C570.239 225.403 570.343 226.063 570.343 226.84V227.432H563.531V226.182H568.708C568.708 225.743 568.619 225.354 568.44 225.016C568.262 224.674 568.011 224.404 567.687 224.207C567.367 224.01 566.992 223.911 566.56 223.911C566.092 223.911 565.683 224.027 565.333 224.257C564.987 224.484 564.719 224.782 564.529 225.15C564.344 225.514 564.251 225.91 564.251 226.338V227.315C564.251 227.887 564.351 228.375 564.552 228.776C564.756 229.178 565.041 229.485 565.405 229.697C565.77 229.905 566.196 230.009 566.683 230.009C566.999 230.009 567.287 229.965 567.548 229.875C567.808 229.782 568.033 229.645 568.223 229.463C568.413 229.28 568.558 229.055 568.658 228.787L570.237 229.072C570.11 229.537 569.884 229.944 569.556 230.294C569.233 230.64 568.825 230.909 568.334 231.103C567.847 231.292 567.291 231.387 566.666 231.387ZM573.862 226.126V231.214H572.194V222.645H573.795V224.04H573.901C574.098 223.586 574.407 223.221 574.827 222.946C575.251 222.671 575.785 222.533 576.428 222.533C577.012 222.533 577.524 222.656 577.963 222.901C578.402 223.143 578.742 223.504 578.984 223.984C579.225 224.464 579.346 225.057 579.346 225.764V231.214H577.678V225.964C577.678 225.343 577.516 224.858 577.193 224.508C576.869 224.155 576.425 223.978 575.859 223.978C575.472 223.978 575.128 224.062 574.827 224.229C574.53 224.397 574.293 224.642 574.119 224.966C573.948 225.286 573.862 225.672 573.862 226.126ZM585.584 222.645V223.984H580.903V222.645H585.584ZM582.158 220.592H583.826V228.698C583.826 229.022 583.875 229.265 583.971 229.429C584.068 229.589 584.193 229.699 584.345 229.758C584.501 229.814 584.671 229.842 584.853 229.842C584.987 229.842 585.104 229.833 585.204 229.814C585.305 229.795 585.383 229.781 585.439 229.769L585.74 231.147C585.643 231.185 585.506 231.222 585.327 231.259C585.149 231.3 584.925 231.322 584.658 231.326C584.219 231.333 583.81 231.255 583.43 231.092C583.051 230.928 582.744 230.675 582.51 230.333C582.275 229.991 582.158 229.561 582.158 229.044V220.592Z" fill="#4E4D60"/>
<rect x="414" y="347.714" width="181" height="25" rx="5.71302" fill="#E6E6E8"/>
<path d="M429.452 357.645L426.345 366.214H424.559L421.446 357.645H423.237L425.408 364.239H425.497L427.661 357.645H429.452ZM431.02 366.214V357.645H432.688V366.214H431.02ZM431.863 356.323C431.572 356.323 431.323 356.226 431.115 356.032C430.91 355.835 430.808 355.601 430.808 355.329C430.808 355.054 430.91 354.82 431.115 354.627C431.323 354.429 431.572 354.331 431.863 354.331C432.153 354.331 432.4 354.429 432.605 354.627C432.813 354.82 432.917 355.054 432.917 355.329C432.917 355.601 432.813 355.835 432.605 356.032C432.4 356.226 432.153 356.323 431.863 356.323ZM436.467 363.308L436.456 361.271H436.746L440.16 357.645H442.157L438.263 361.773H438.001L436.467 363.308ZM434.932 366.214V354.788H436.601V366.214H434.932ZM440.344 366.214L437.276 362.142L438.425 360.976L442.392 366.214H440.344ZM447.018 366.387C446.174 366.387 445.447 366.207 444.837 365.846C444.231 365.482 443.762 364.97 443.431 364.312C443.104 363.65 442.94 362.874 442.94 361.985C442.94 361.108 443.104 360.334 443.431 359.664C443.762 358.995 444.223 358.472 444.814 358.097C445.41 357.721 446.105 357.533 446.901 357.533C447.385 357.533 447.853 357.613 448.307 357.773C448.761 357.933 449.168 358.184 449.529 358.526C449.89 358.869 450.174 359.313 450.382 359.86C450.591 360.403 450.695 361.063 450.695 361.84V362.432H443.883V361.182H449.06C449.06 360.743 448.971 360.354 448.792 360.016C448.614 359.674 448.363 359.404 448.039 359.207C447.719 359.01 447.344 358.911 446.912 358.911C446.444 358.911 446.034 359.027 445.685 359.257C445.339 359.484 445.071 359.782 444.881 360.15C444.695 360.514 444.602 360.91 444.602 361.338V362.315C444.602 362.887 444.703 363.375 444.904 363.776C445.108 364.178 445.393 364.485 445.757 364.697C446.122 364.905 446.548 365.009 447.035 365.009C447.351 365.009 447.639 364.965 447.9 364.875C448.16 364.782 448.385 364.645 448.575 364.463C448.765 364.28 448.91 364.055 449.01 363.787L450.589 364.072C450.462 364.537 450.236 364.944 449.908 365.294C449.585 365.64 449.177 365.909 448.686 366.103C448.199 366.292 447.643 366.387 447.018 366.387ZM457.595 360.663V362.108H452.529V360.663H457.595ZM467.149 357.645L464.042 366.214H462.256L459.143 357.645H460.934L463.104 364.239H463.194L465.358 357.645H467.149ZM474.145 362.66V357.645H475.819V366.214H474.179V364.73H474.09C473.892 365.188 473.576 365.569 473.141 365.874C472.71 366.175 472.172 366.326 471.529 366.326C470.978 366.326 470.491 366.205 470.067 365.963C469.647 365.718 469.316 365.355 469.074 364.875C468.836 364.396 468.717 363.802 468.717 363.096V357.645H470.385V362.895C470.385 363.479 470.547 363.944 470.87 364.29C471.194 364.635 471.614 364.808 472.131 364.808C472.444 364.808 472.754 364.73 473.063 364.574C473.375 364.418 473.634 364.182 473.838 363.866C474.047 363.549 474.149 363.148 474.145 362.66ZM481.754 366.387C480.91 366.387 480.182 366.207 479.572 365.846C478.966 365.482 478.498 364.97 478.166 364.312C477.839 363.65 477.676 362.874 477.676 361.985C477.676 361.108 477.839 360.334 478.166 359.664C478.498 358.995 478.959 358.472 479.55 358.097C480.145 357.721 480.841 357.533 481.637 357.533C482.12 357.533 482.589 357.613 483.043 357.773C483.496 357.933 483.904 358.184 484.264 358.526C484.625 358.869 484.91 359.313 485.118 359.86C485.326 360.403 485.431 361.063 485.431 361.84V362.432H478.618V361.182H483.796C483.796 360.743 483.707 360.354 483.528 360.016C483.35 359.674 483.098 359.404 482.775 359.207C482.455 359.01 482.079 358.911 481.648 358.911C481.179 358.911 480.77 359.027 480.42 359.257C480.075 359.484 479.807 359.782 479.617 360.15C479.431 360.514 479.338 360.91 479.338 361.338V362.315C479.338 362.887 479.439 363.375 479.639 363.776C479.844 364.178 480.128 364.485 480.493 364.697C480.857 364.905 481.283 365.009 481.771 365.009C482.087 365.009 482.375 364.965 482.635 364.875C482.896 364.782 483.121 364.645 483.31 364.463C483.5 364.28 483.645 364.055 483.746 363.787L485.325 364.072C485.198 364.537 484.971 364.944 484.644 365.294C484.32 365.64 483.913 365.909 483.422 366.103C482.935 366.292 482.379 366.387 481.754 366.387ZM492.331 360.663V362.108H487.265V360.663H492.331ZM498.247 366.387C497.403 366.387 496.676 366.207 496.066 365.846C495.459 365.482 494.991 364.97 494.66 364.312C494.332 363.65 494.169 362.874 494.169 361.985C494.169 361.108 494.332 360.334 494.66 359.664C494.991 358.995 495.452 358.472 496.043 358.097C496.639 357.721 497.334 357.533 498.13 357.533C498.614 357.533 499.082 357.613 499.536 357.773C499.99 357.933 500.397 358.184 500.758 358.526C501.119 358.869 501.403 359.313 501.611 359.86C501.82 360.403 501.924 361.063 501.924 361.84V362.432H495.112V361.182H500.289C500.289 360.743 500.2 360.354 500.021 360.016C499.843 359.674 499.592 359.404 499.268 359.207C498.948 359.01 498.573 358.911 498.141 358.911C497.673 358.911 497.263 359.027 496.914 359.257C496.568 359.484 496.3 359.782 496.11 360.15C495.924 360.514 495.831 360.91 495.831 361.338V362.315C495.831 362.887 495.932 363.375 496.133 363.776C496.337 364.178 496.622 364.485 496.986 364.697C497.351 364.905 497.777 365.009 498.264 365.009C498.58 365.009 498.868 364.965 499.129 364.875C499.389 364.782 499.614 364.645 499.804 364.463C499.993 364.28 500.138 364.055 500.239 363.787L501.818 364.072C501.691 364.537 501.464 364.944 501.137 365.294C500.814 365.64 500.406 365.909 499.915 366.103C499.428 366.292 498.872 366.387 498.247 366.387ZM504.892 357.645L506.783 360.981L508.691 357.645H510.516L507.843 361.93L510.538 366.214H508.714L506.783 363.012L504.858 366.214H503.028L505.695 361.93L503.062 357.645H504.892ZM512.228 369.428V357.645H513.858V359.034H513.997C514.094 358.855 514.233 358.649 514.415 358.415C514.598 358.18 514.851 357.976 515.174 357.801C515.498 357.623 515.926 357.533 516.457 357.533C517.149 357.533 517.767 357.708 518.31 358.058C518.853 358.407 519.279 358.911 519.587 359.57C519.9 360.228 520.056 361.02 520.056 361.946C520.056 362.872 519.902 363.667 519.593 364.329C519.284 364.987 518.86 365.495 518.321 365.852C517.782 366.205 517.166 366.382 516.474 366.382C515.953 366.382 515.528 366.294 515.197 366.12C514.869 365.945 514.613 365.74 514.427 365.506C514.241 365.271 514.097 365.063 513.997 364.881H513.897V369.428H512.228ZM513.863 361.93C513.863 362.532 513.951 363.06 514.125 363.514C514.3 363.968 514.553 364.323 514.884 364.58C515.215 364.833 515.621 364.959 516.1 364.959C516.599 364.959 517.015 364.827 517.35 364.563C517.685 364.295 517.938 363.932 518.109 363.475C518.284 363.018 518.371 362.502 518.371 361.93C518.371 361.364 518.286 360.857 518.114 360.406C517.947 359.956 517.694 359.601 517.356 359.341C517.021 359.081 516.602 358.95 516.1 358.95C515.617 358.95 515.208 359.075 514.873 359.324C514.542 359.573 514.291 359.921 514.12 360.367C513.949 360.814 513.863 361.334 513.863 361.93ZM525.618 366.387C524.774 366.387 524.047 366.207 523.437 365.846C522.831 365.482 522.362 364.97 522.031 364.312C521.704 363.65 521.54 362.874 521.54 361.985C521.54 361.108 521.704 360.334 522.031 359.664C522.362 358.995 522.823 358.472 523.415 358.097C524.01 357.721 524.705 357.533 525.501 357.533C525.985 357.533 526.453 357.613 526.907 357.773C527.361 357.933 527.768 358.184 528.129 358.526C528.49 358.869 528.774 359.313 528.983 359.86C529.191 360.403 529.295 361.063 529.295 361.84V362.432H522.483V361.182H527.66C527.66 360.743 527.571 360.354 527.393 360.016C527.214 359.674 526.963 359.404 526.639 359.207C526.319 359.01 525.944 358.911 525.512 358.911C525.044 358.911 524.635 359.027 524.285 359.257C523.939 359.484 523.671 359.782 523.482 360.15C523.296 360.514 523.203 360.91 523.203 361.338V362.315C523.203 362.887 523.303 363.375 523.504 363.776C523.708 364.178 523.993 364.485 524.357 364.697C524.722 364.905 525.148 365.009 525.635 365.009C525.951 365.009 526.239 364.965 526.5 364.875C526.76 364.782 526.985 364.645 527.175 364.463C527.365 364.28 527.51 364.055 527.61 363.787L529.189 364.072C529.063 364.537 528.836 364.944 528.508 365.294C528.185 365.64 527.777 365.909 527.287 366.103C526.799 366.292 526.243 366.387 525.618 366.387ZM531.146 366.214V357.645H532.758V359.006H532.847C533.004 358.545 533.279 358.182 533.673 357.918C534.071 357.65 534.521 357.517 535.023 357.517C535.127 357.517 535.25 357.52 535.392 357.528C535.537 357.535 535.65 357.544 535.732 357.556V359.151C535.665 359.133 535.546 359.112 535.375 359.09C535.204 359.064 535.033 359.051 534.862 359.051C534.467 359.051 534.116 359.134 533.807 359.302C533.502 359.465 533.26 359.694 533.082 359.988C532.903 360.278 532.814 360.609 532.814 360.981V366.214H531.146ZM537.176 366.214V357.645H538.844V366.214H537.176ZM538.018 356.323C537.728 356.323 537.479 356.226 537.27 356.032C537.066 355.835 536.963 355.601 536.963 355.329C536.963 355.054 537.066 354.82 537.27 354.627C537.479 354.429 537.728 354.331 538.018 354.331C538.308 354.331 538.555 354.429 538.76 354.627C538.968 354.82 539.072 355.054 539.072 355.329C539.072 355.601 538.968 355.835 538.76 356.032C538.555 356.226 538.308 356.323 538.018 356.323ZM541.088 366.214V357.645H542.689V359.04H542.795C542.974 358.567 543.266 358.199 543.671 357.935C544.076 357.667 544.562 357.533 545.127 357.533C545.7 357.533 546.18 357.667 546.567 357.935C546.957 358.203 547.245 358.571 547.431 359.04H547.521C547.725 358.582 548.051 358.218 548.497 357.946C548.943 357.671 549.475 357.533 550.093 357.533C550.87 357.533 551.504 357.777 551.995 358.264C552.49 358.751 552.737 359.486 552.737 360.468V366.214H551.069V360.624C551.069 360.044 550.911 359.624 550.595 359.363C550.279 359.103 549.901 358.973 549.462 358.973C548.919 358.973 548.497 359.14 548.196 359.475C547.894 359.806 547.744 360.232 547.744 360.752V366.214H546.081V360.518C546.081 360.053 545.936 359.679 545.646 359.397C545.356 359.114 544.978 358.973 544.513 358.973C544.197 358.973 543.905 359.056 543.638 359.224C543.373 359.387 543.16 359.616 542.996 359.91C542.836 360.204 542.756 360.544 542.756 360.931V366.214H541.088ZM558.666 366.387C557.822 366.387 557.095 366.207 556.485 365.846C555.879 365.482 555.41 364.97 555.079 364.312C554.752 363.65 554.588 362.874 554.588 361.985C554.588 361.108 554.752 360.334 555.079 359.664C555.41 358.995 555.871 358.472 556.463 358.097C557.058 357.721 557.753 357.533 558.549 357.533C559.033 357.533 559.501 357.613 559.955 357.773C560.409 357.933 560.816 358.184 561.177 358.526C561.538 358.869 561.822 359.313 562.03 359.86C562.239 360.403 562.343 361.063 562.343 361.84V362.432H555.531V361.182H560.708C560.708 360.743 560.619 360.354 560.44 360.016C560.262 359.674 560.011 359.404 559.687 359.207C559.367 359.01 558.992 358.911 558.56 358.911C558.092 358.911 557.683 359.027 557.333 359.257C556.987 359.484 556.719 359.782 556.529 360.15C556.344 360.514 556.251 360.91 556.251 361.338V362.315C556.251 362.887 556.351 363.375 556.552 363.776C556.756 364.178 557.041 364.485 557.405 364.697C557.77 364.905 558.196 365.009 558.683 365.009C558.999 365.009 559.287 364.965 559.548 364.875C559.808 364.782 560.033 364.645 560.223 364.463C560.413 364.28 560.558 364.055 560.658 363.787L562.237 364.072C562.11 364.537 561.884 364.944 561.556 365.294C561.233 365.64 560.825 365.909 560.334 366.103C559.847 366.292 559.291 366.387 558.666 366.387ZM565.862 361.126V366.214H564.194V357.645H565.795V359.04H565.901C566.098 358.586 566.407 358.221 566.827 357.946C567.251 357.671 567.785 357.533 568.428 357.533C569.012 357.533 569.524 357.656 569.963 357.901C570.402 358.143 570.742 358.504 570.984 358.984C571.225 359.464 571.346 360.057 571.346 360.764V366.214H569.678V360.964C569.678 360.343 569.516 359.858 569.193 359.508C568.869 359.155 568.425 358.978 567.859 358.978C567.472 358.978 567.128 359.062 566.827 359.229C566.53 359.397 566.293 359.642 566.119 359.966C565.948 360.286 565.862 360.672 565.862 361.126ZM577.584 357.645V358.984H572.903V357.645H577.584ZM574.158 355.592H575.826V363.698C575.826 364.022 575.875 364.265 575.971 364.429C576.068 364.589 576.193 364.699 576.345 364.758C576.501 364.814 576.671 364.842 576.853 364.842C576.987 364.842 577.104 364.833 577.204 364.814C577.305 364.795 577.383 364.781 577.439 364.769L577.74 366.147C577.643 366.185 577.506 366.222 577.327 366.259C577.149 366.3 576.925 366.322 576.658 366.326C576.219 366.333 575.81 366.255 575.43 366.092C575.051 365.928 574.744 365.675 574.51 365.333C574.275 364.991 574.158 364.561 574.158 364.044V355.592ZM579.407 366.214V364.965L583.273 360.959C583.686 360.524 584.026 360.142 584.294 359.815C584.566 359.484 584.768 359.17 584.902 358.872C585.036 358.575 585.103 358.259 585.103 357.924C585.103 357.544 585.014 357.217 584.835 356.942C584.657 356.663 584.413 356.449 584.104 356.3C583.796 356.148 583.448 356.072 583.061 356.072C582.652 356.072 582.295 356.155 581.99 356.323C581.685 356.49 581.451 356.726 581.287 357.031C581.123 357.336 581.041 357.693 581.041 358.102H579.396C579.396 357.407 579.555 356.799 579.875 356.278C580.195 355.757 580.634 355.354 581.192 355.067C581.75 354.777 582.384 354.632 583.094 354.632C583.812 354.632 584.445 354.775 584.991 355.062C585.542 355.344 585.971 355.731 586.28 356.222C586.589 356.709 586.743 357.26 586.743 357.874C586.743 358.298 586.663 358.712 586.503 359.118C586.347 359.523 586.074 359.975 585.683 360.473C585.293 360.968 584.75 361.569 584.054 362.275L581.783 364.652V364.736H586.927V366.214H579.407Z" fill="#4E4D60"/>
<rect x="509" y="281.422" width="86" height="25" rx="5.71302" fill="#E6E6E8"/>
<path d="M527.452 291.352L524.345 299.922H522.559L519.446 291.352H521.237L523.408 297.947H523.497L525.661 291.352H527.452ZM529.02 299.922V291.352H530.688V299.922H529.02ZM529.863 290.03C529.572 290.03 529.323 289.933 529.115 289.74C528.91 289.543 528.808 289.309 528.808 289.037C528.808 288.762 528.91 288.527 529.115 288.334C529.323 288.137 529.572 288.038 529.863 288.038C530.153 288.038 530.4 288.137 530.605 288.334C530.813 288.527 530.917 288.762 530.917 289.037C530.917 289.309 530.813 289.543 530.605 289.74C530.4 289.933 530.153 290.03 529.863 290.03ZM534.467 297.015L534.456 294.979H534.746L538.16 291.352H540.157L536.263 295.481H536.001L534.467 297.015ZM532.932 299.922V288.496H534.601V299.922H532.932ZM538.344 299.922L535.276 295.849L536.425 294.683L540.392 299.922H538.344ZM545.018 300.095C544.174 300.095 543.447 299.914 542.837 299.554C542.231 299.189 541.762 298.678 541.431 298.019C541.104 297.357 540.94 296.582 540.94 295.693C540.94 294.815 541.104 294.041 541.431 293.372C541.762 292.702 542.223 292.18 542.814 291.804C543.41 291.429 544.105 291.241 544.901 291.241C545.385 291.241 545.853 291.321 546.307 291.481C546.761 291.641 547.168 291.892 547.529 292.234C547.89 292.576 548.174 293.02 548.382 293.567C548.591 294.11 548.695 294.77 548.695 295.548V296.139H541.883V294.89H547.06C547.06 294.451 546.971 294.062 546.792 293.723C546.614 293.381 546.363 293.112 546.039 292.914C545.719 292.717 545.344 292.619 544.912 292.619C544.444 292.619 544.034 292.734 543.685 292.965C543.339 293.192 543.071 293.489 542.881 293.857C542.695 294.222 542.602 294.618 542.602 295.046V296.022C542.602 296.595 542.703 297.082 542.904 297.484C543.108 297.885 543.393 298.192 543.757 298.404C544.122 298.613 544.548 298.717 545.035 298.717C545.351 298.717 545.639 298.672 545.9 298.583C546.16 298.49 546.385 298.352 546.575 298.17C546.765 297.988 546.91 297.763 547.01 297.495L548.589 297.779C548.462 298.244 548.236 298.652 547.908 299.001C547.585 299.347 547.177 299.617 546.686 299.81C546.199 300 545.643 300.095 545.018 300.095ZM555.595 294.371V295.816H550.529V294.371H555.595ZM565.149 291.352L562.042 299.922H560.256L557.143 291.352H558.934L561.104 297.947H561.194L563.358 291.352H565.149ZM572.145 296.368V291.352H573.819V299.922H572.179V298.438H572.09C571.892 298.895 571.576 299.277 571.141 299.582C570.71 299.883 570.172 300.033 569.529 300.033C568.978 300.033 568.491 299.913 568.067 299.671C567.647 299.425 567.316 299.063 567.074 298.583C566.836 298.103 566.717 297.51 566.717 296.803V291.352H568.385V296.602C568.385 297.186 568.547 297.651 568.87 297.997C569.194 298.343 569.614 298.516 570.131 298.516C570.444 298.516 570.754 298.438 571.063 298.282C571.375 298.125 571.634 297.889 571.838 297.573C572.047 297.257 572.149 296.855 572.145 296.368ZM579.754 300.095C578.91 300.095 578.182 299.914 577.572 299.554C576.966 299.189 576.498 298.678 576.166 298.019C575.839 297.357 575.676 296.582 575.676 295.693C575.676 294.815 575.839 294.041 576.166 293.372C576.498 292.702 576.959 292.18 577.55 291.804C578.145 291.429 578.841 291.241 579.637 291.241C580.12 291.241 580.589 291.321 581.043 291.481C581.496 291.641 581.904 291.892 582.264 292.234C582.625 292.576 582.91 293.02 583.118 293.567C583.326 294.11 583.431 294.77 583.431 295.548V296.139H576.618V294.89H581.796C581.796 294.451 581.707 294.062 581.528 293.723C581.35 293.381 581.098 293.112 580.775 292.914C580.455 292.717 580.079 292.619 579.648 292.619C579.179 292.619 578.77 292.734 578.42 292.965C578.075 293.192 577.807 293.489 577.617 293.857C577.431 294.222 577.338 294.618 577.338 295.046V296.022C577.338 296.595 577.439 297.082 577.639 297.484C577.844 297.885 578.128 298.192 578.493 298.404C578.857 298.613 579.283 298.717 579.771 298.717C580.087 298.717 580.375 298.672 580.635 298.583C580.896 298.49 581.121 298.352 581.31 298.17C581.5 297.988 581.645 297.763 581.746 297.495L583.325 297.779C583.198 298.244 582.971 298.652 582.644 299.001C582.32 299.347 581.913 299.617 581.422 299.81C580.935 300 580.379 300.095 579.754 300.095Z" fill="#4E4D60"/>
</g>
<defs>
<clipPath id="clip0_481_118">
<rect width="635" height="404" fill="white"/>
</clipPath>
</defs>
</svg>
