<svg width="120.94" height="120.94" version="1.1" viewBox="0 0 120.94 120.94" xmlns="http://www.w3.org/2000/svg">
<radialGradient id="SVGID_1_" cx="43.972" cy="29.066" r="90.951" gradientTransform="matrix(.6257 .78 -.5815 .4665 30.239 -23.257)" gradientUnits="userSpaceOnUse">
<stop stop-color="#17A1F3" offset=".506"/>
<stop stop-color="#1B7FFA" offset=".7668"/>
<stop stop-color="#1366F0" offset=".9624"/>
<stop stop-color="#1160EE" offset="1"/>
</radialGradient>
<radialGradient id="SVGID_2_" cx="4.9296" cy="38.972" r="40.299" gradientTransform="matrix(.9806 -.1961 .1182 .5911 -7.6314 12.437)" gradientUnits="userSpaceOnUse">
<stop stop-color="#E3DDA6" offset=".3442"/>
<stop stop-color="#E3DDA6" stop-opacity="0" offset=".9961"/>
</radialGradient>
<radialGradient id="SVGID_3_" cx="42.188" cy="107.57" r="31.591" gradientTransform="translate(-3.1199 -4.4649)" gradientUnits="userSpaceOnUse">
<stop stop-color="#E3DDA6" offset=".7225"/>
<stop stop-color="#E3DDA6" stop-opacity="0" offset="1"/>
</radialGradient>
<radialGradient id="SVGID_4_" cx="62.919" cy="134.22" r="22.682" gradientTransform="translate(-3.1199 -4.4649)" gradientUnits="userSpaceOnUse">
<stop stop-color="#E3DDA6" offset=".4033"/>
<stop stop-color="#E3DDA6" stop-opacity="0" offset="1"/>
</radialGradient>
<g transform="translate(.00020733 .80504)">
<path d="m0.020132 60.215c0.68 24.4 16.99 59.55 61.45 59.1 43.32-0.44 60.76-36.3 59.4-62.06-1.37-25.76-21.66-57.46-61.79-57.23-40.14 0.22-59.8 33.96-59.06 60.19z" fill="url(#SVGID_1_)"/>
<path d="m59.91 0.015062s-0.45 1.27 2.17 2.07 4.01 0.85 5.88 1.71c1.87 0.85 2.99 2.19 5.66 3.58s3.58 1.71 4.06 0.75c0.22-0.43-0.69-2.35-0.69-2.35s0.43-1.82-0.21-2.46c-0.54-0.54-3.52-1.75-4.59-2.18-1-0.4-4.59-0.84-6.31-0.95-4.22-0.26-5.97-0.17-5.97-0.17z" fill="#fff"/>
<path d="m45.94 45.335c0.09 0.23 0.65 1.37 1.77 1.68s4.08 0.37 4.79 0.65c0.72 0.28 2.46 1.18 2.93 1.46s2.3 1.82 2.74 1.96c1.03 0.34 1.62-0.28 2.09-0.12s0.75 1.06 1.68 1.12c0.56 0.04 1.28-0.87 1.81-0.97s3.24 0.12 3.3-0.75-1.84-2.68-2.96-2.68c-0.94 0-1.09 0.81-1.81 0.84s-1.18-0.75-2.02-0.72-1.28 0.75-1.74 0.53c-0.47-0.22-5.48-3.67-6.79-4.05-1.31-0.37-4.73 0.09-5.2 0.22-0.46 0.15-0.74 0.43-0.59 0.83z" fill="#7add8a"/>
<path d="m24.07 16.785c0.75-1.82 1.93-4.57 3.53-6.34 1.61-1.77 4.36-4.23 4.36-4.23s4.9-2.57 12.29-4.49c7.39-1.92 14.54-1.7 14.54-1.7s-0.62 0.58-0.57 0.9c0.05 0.32 0.05 0.86 1.34 1.34 1.28 0.48 3.85 0.8 4.55 1.61 0.7 0.8 0.91 1.87 0.11 2.41s-2.25 0.37-3.64-0.05c-1.39-0.43-1.34-0.48-1.5-0.96s1.39-0.7 1.18-1.18-0.91-0.27-1.71-0.7-1.38-0.53-1.88-0.32-0.99 1.27-1.21 1.8-0.34 0.71-0.56 0.87-1.58 0.09-1.95 0.12-1.83 0.71-2.69 1.11c-0.87 0.4-2.69 0.84-3.1 1.18-0.4 0.34-0.77 0.9-0.09 1.33s2.2 0.87 3.1 1.18 2.48 0.34 2.69 0.62c0.22 0.28 0.03 1.58 0.19 1.77 0.15 0.19 0.74 0.96 1.11 0.9s0.9-1.49 1.11-1.92c0.22-0.43 1.7-0.93 1.58-1.61s-0.81-0.81-0.84-1.21 0.46-1.24 0.43-1.46 0.03-1.46 0.68-1.58 1.55 0.37 2.29 0.62 1.49-0.03 2.63 0.74c1.15 0.77 0.9 1.36 1.46 1.39s0.59-0.9 1.33-1.02 2.14 1.27 3.9 2.32 4.15 2.51 4.86 3.53 0.46 1.27 1.02 1.64 2.42 1.39 2.51 1.83c0.09 0.43-0.03 1.02-1.86 0.9s-2.6-0.59-3.04-1.05c-0.43-0.46-0.46-0.9-0.34-1.18s0.62-0.31 0.62-0.31 0.28-1.15-0.46-1.49-1.46-0.56-3.75-0.19-3.84 0.9-4.15 1.39c-0.31 0.5-0.03 1.11 0.37 1.11s1.86-0.84 2.38-0.68c0.53 0.15 0 1.86 0.4 2.11s1.61 0.12 2.26 0.15 1.33-0.06 1.67 0.46-0.59 1.02-1.46 1.39-2.14 1.21-2.51 1.52-0.99 0.59-1.24 0.06 0.03-1.52 0.03-1.52-2.11 0.84-2.45 1.24 0.19 1.64-0.5 2.29c-0.68 0.65-1.89 0.15-2.51 0.43s-1.7 1.33-2.42 2.2c-0.71 0.87-1.08 1.33-1.08 1.95s0.68 1.24-0.43 2.17-1.7 0.71-2.69 1.18c-0.99 0.46-2.48 1.33-3.07 2.63s0.15 3.9 0.28 4.8c0.12 0.9 0.56 2.91-0.46 2.94s-1.15-0.62-1.89-2.63-1.02-2.91-1.58-3.19-1.27-0.03-2.51 0.12-6.23 0.37-7.25 0.37-2.32-0.31-3.47 1.18-1.05 2.32-1.08 3.44-0.4 1.46-0.93 2.42-0.68 3.62-0.5 4.06c0.19 0.43 1.77 2.17 2.04 2.17 0.28 0 2.85 0.12 3.28-0.03s0.93-0.77 1.18-1.39 0.15-1.15 0.84-1.83 1.61-0.59 2.2-0.62 1.05-0.15 1.58-0.22c0.53-0.06 1.33 0.74 1.3 1.02s-1.18 1.46-1.49 2.11-0.31 0.65-0.31 0.65-0.22 0.99-0.5 1.42-0.5 0.87-0.74 1.18c-0.25 0.31-0.09 0.9 0.43 1.02 0.53 0.12 0.43-0.28 0.62-0.37s3.16-0.03 3.78 0.03 1.55 0.96 1.64 1.27 0.12 2.14-0.22 3.07-0.9 1.42-0.96 1.77c-0.06 0.34 0.09 0.87 0.09 0.87s0.46 0.87 1.15 1.52c0.68 0.65 1.42 1.05 1.42 1.05s1.58 0 2.42-0.03 1.42-0.15 1.98 0.25 1.55 1.58 1.77 1.55 0.53-1.24 2.26-2.63 2.42-1.55 3.44-1.7 1.21 0.31 1.21 0.31 0.46 0.4 1.27 0.06 0.71-0.84 1.95-0.77 2.01 0.74 2.85 0.96 2.42 0.34 4.09 0.43 2.69-0.15 3.31-0.06 1.15 0.81 1.49 1.11c0.34 0.31 0.34 0.81 0.34 0.81s0.65 0.15 1.27 0.59c0.62 0.43 1.21 1.52 1.98 1.83s2.17 0.15 3.81 0.25c1.64 0.09 2.11 0.28 2.94 1.08s1.33 1.86 1.64 2.76 0.77 2.97 0.77 2.97 1.21-0.37 3.1 0.4 2.04 1.55 2.04 1.55 2.94-0.09 3.75-0.06 2.91 1.46 3.13 1.95c0.22 0.5-0.22 4.31-0.15 4.89 0.06 0.59-2.17 3.78-2.73 4.31s-0.93 1.15-1.8 3.62-1.49 4.12-1.95 4.58-1.92 2.2-3.44 2.94-2.42 0.62-3.44 1.11c-1.02 0.5-1.8 2.11-2.29 3.22-0.5 1.11-0.19 2.48-0.46 2.91-0.28 0.43-3.84 3.93-4.52 4.15s-3.87-0.34-4.4 0.09 0.65 1.67 0.53 2.08c-0.12 0.4-1.15 1.49-2.04 2.17-0.9 0.68-1.67 1.67-2.29 1.77-0.62 0.09-1.39-0.34-2.01 0.37s0.06 1.86-0.22 2.35c-0.28 0.5-0.92 0.95-1.29 1.63s-0.64 0.92-0.64 0.92-2.82 0.25-4.5 0.34c-1.67 0.09-5.06 0.05-5.06 0.05s0.76-1.49 0.86-2.98-0.37-2.29-0.06-3.16 1.3-1.89 1.3-1.89 0.71-3.41 0.65-5.73-0.34-3.69-0.37-4.12 0.22-8.11 0.09-8.58c-0.12-0.46-1.77-1.33-2.57-2.04-0.81-0.71-3-1.67-3.59-2.57s-0.74-1.24-0.96-1.58-1.89-3.34-2.29-4.12c-0.4-0.77-1.39-1.46-1.8-2.54s-0.4-1.98-0.09-2.32 0.81-0.62 0.71-1.02c-0.09-0.4-0.99-0.46-0.68-1.77s1.39-2.48 1.67-2.73 0.5 0.03 0.77-0.22c0.28-0.25 2.01-1.73 2.23-2.01s0.15-2.26-0.15-3.1c-0.31-0.84-1.55-2.2-2.01-2.35s-1.58 1.15-2.57 1.11c-0.99-0.03-1.64 0-3.19-0.99s-3.72-2.91-4.18-3.72-0.28-1.11-0.56-1.55c-0.28-0.43-1.73-1.21-2.54-1.61s-1.64-0.28-2.11-0.59-2.73-2.82-3.16-3.34c-0.43-0.53-0.81-0.68-1.11-0.71s-0.59 0.4-0.84 0.46-2.26 0.09-2.57-0.06-2.73-1.39-3.93-2.51-2.73-1.89-3.41-2.82 0.03-1.92 0.12-2.42-0.03-2.35-0.09-3-1.18-1.83-1.33-3.13-0.59-2.6-0.71-3.22-0.06-2.79-0.22-2.91c-0.15-0.12-0.93-0.43-1.11 0.93s0.25 2.38 0.34 3.93 0.09 2.48 0.31 2.94 0.96 1.42 0.37 1.73-1.36-0.34-1.8-1.21c-0.43-0.87-0.09-2.51-0.46-3.31s-0.5-2.38-0.59-3.16c-0.09-0.77-0.43-2.73-0.34-4.43s0.62-1.86 0.62-1.86 0-1.98 0.03-2.38 2.01-4.12 3.62-6.19c1.65-2.05 2.83-3.66 2.83-3.66z" fill="#7add8a"/>
<path d="m38.5 52.165c0.16-2.52-1.21-2.67-1.64-2.52s-3 0.03-3.28 0.03-1.86-1.73-2.04-2.17c-0.19-0.43-0.03-3.1 0.5-4.06s0.9-1.3 0.93-2.42-0.06-1.95 1.08-3.44c1.15-1.49 2.45-1.18 3.47-1.18s6.01-0.22 7.25-0.37 1.95-0.4 2.51-0.12 0.84 1.18 1.58 3.19 0.87 2.66 1.89 2.63 0.59-2.04 0.46-2.94c-0.12-0.9-0.87-3.5-0.28-4.8s2.08-2.17 3.07-2.63 1.58-0.25 2.69-1.18 0.43-1.55 0.43-2.17 0.37-1.08 1.08-1.95 1.8-1.92 2.42-2.2 1.83 0.22 2.51-0.43 0.15-1.89 0.5-2.29c0.34-0.4 2.45-1.24 2.45-1.24s-0.28 0.99-0.03 1.52 0.87 0.25 1.24-0.06 1.64-1.15 2.51-1.52 1.8-0.87 1.46-1.39-1.02-0.43-1.67-0.46-1.86 0.09-2.26-0.15c-0.4-0.25 0.12-1.95-0.4-2.11-0.53-0.15-1.98 0.68-2.38 0.68s-0.68-0.62-0.37-1.11c0.31-0.5-9.63-1.42-10-1.36s-0.96-0.71-1.11-0.9 0.03-1.49-0.19-1.77-1.8-0.31-2.69-0.62c-0.9-0.31-2.42-0.74-3.1-1.18s-0.31-0.99 0.09-1.33 2.23-0.77 3.1-1.18c0.87-0.4 2.32-1.08 2.69-1.11s1.73 0.03 1.95-0.12 0.34-0.34 0.56-0.87 0.71-1.58 1.21-1.8 1.61-1.82 1.56-2.14c-0.05-0.32 0.57-0.9 0.57-0.9s-7.15-0.23-14.54 1.7c-7.39 1.93-12.29 4.49-12.29 4.49s-2.75 2.46-4.36 4.23-2.78 4.52-3.53 6.34c0 0-1.18 1.61-2.79 3.69s-3.59 5.79-3.62 6.19-0.03 2.38-0.03 2.38-0.53 0.15-0.62 1.86c-0.09 1.7 0.25 3.65 0.34 4.43 0.09 0.77 0.22 2.35 0.59 3.16s0.03 2.45 0.46 3.31c0.43 0.87 1.21 1.52 1.8 1.21s-0.15-1.27-0.37-1.73-0.22-1.39-0.31-2.94-0.53-2.57-0.34-3.93 0.96-1.05 1.11-0.93 0.09 2.29 0.22 2.91c0.12 0.62 0.56 1.92 0.71 3.22s1.27 2.48 1.33 3.13 0.19 2.51 0.09 3c-0.09 0.5-0.81 1.49-0.12 2.42 0.68 0.93 2.2 1.7 3.41 2.82s3.62 2.35 3.93 2.51c0.31 0.15 2.32 0.12 2.57 0.06s0.53-0.5 0.84-0.46 1.62 1.14 2.17 1.05c0.95-0.17 2.91-0.12 3.03-1.98z" fill="url(#SVGID_2_)"/>
<path d="m54.71 66.805c0.12 0.88 0.37 2.82 0.15 3.1s-1.95 1.77-2.23 2.01c-0.28 0.25-0.5-0.03-0.77 0.22-0.28 0.25-1.36 1.42-1.67 2.73s0.59 1.36 0.68 1.77-0.4 0.68-0.71 1.02-0.31 1.24 0.09 2.32 1.39 1.77 1.8 2.54c0.4 0.77 2.08 3.78 2.29 4.12 0.22 0.34 0.37 0.68 0.96 1.58s2.79 1.86 3.59 2.57c0.81 0.71 2.45 1.58 2.57 2.04s-0.12 8.15-0.09 8.58 0.31 1.8 0.37 4.12-0.65 5.73-0.65 5.73-0.99 1.02-1.3 1.89 0.15 1.67 0.06 3.16-0.86 2.98-0.86 2.98 3.38 0.04 5.06-0.05c1.67-0.09 4.5-0.34 4.5-0.34s0.27-0.24 0.64-0.92 1.01-1.13 1.29-1.63-0.4-1.64 0.22-2.35 1.39-0.28 2.01-0.37 1.39-1.08 2.29-1.77c0.9-0.68 1.92-1.77 2.04-2.17s-1.05-1.64-0.53-2.08c0.53-0.43 3.72 0.12 4.4-0.09 0.68-0.22 4.24-3.72 4.52-4.15s-0.03-1.8 0.46-2.91c0.5-1.11 0.83-18.84-4.46-26.54-6.19-9.02-27.31-11.65-26.72-7.11z" fill="url(#SVGID_3_)"/>
<path d="m54.73 66.845c0.12 0.88 0.37 2.82 0.15 3.1s-1.95 1.77-2.23 2.01c-0.28 0.25-0.5-0.03-0.77 0.22-0.28 0.25-1.36 1.42-1.67 2.73s0.59 1.36 0.68 1.77-0.4 0.68-0.71 1.02-0.31 1.24 0.09 2.32 1.39 1.77 1.8 2.54c0.4 0.77 2.08 3.78 2.29 4.12s0.37 0.68 0.96 1.58 2.79 1.86 3.59 2.57c0.81 0.71 2.45 1.58 2.57 2.04s-0.12 8.15-0.09 8.58 0.31 1.8 0.37 4.12-0.65 5.73-0.65 5.73-0.99 1.02-1.3 1.89 0.15 1.67 0.06 3.16-0.86 2.98-0.86 2.98 3.38 0.04 5.06-0.05c1.67-0.09 4.5-0.34 4.5-0.34s0.27-0.24 0.64-0.92 1.01-1.13 1.29-1.63-0.4-1.64 0.22-2.35 1.39-0.28 2.01-0.37 1.39-1.08 2.29-1.77c0.9-0.68 1.92-1.77 2.04-2.17s-1.05-1.64-0.53-2.08 3.72 0.12 4.4-0.09c0.68-0.22 4.24-3.72 4.52-4.15s-0.03-1.8 0.46-2.91c0.5-1.11 0.83-18.84-4.46-26.54-6.2-9.03-27.32-11.65-26.72-7.11z" fill="url(#SVGID_4_)"/>
<path d="m44.09 17.675c0.28 0.38 1.55-0.08 2.15-0.05s1.25 0.27 1.33 0.82c0.08 0.54-0.52 0.63-0.87 1.33-0.18 0.36-1.39 2.79-0.73 3.07 0.87 0.38 1.3-0.49 1.49-0.9s0.65-1.28 0.65-1.28 0.52-1.14 1.2-1.06c1.22 0.14 0.73 1.88 0.73 1.88s-0.27 1.3 0.38 1.6 1.28 0.08 1.63-0.05c0.35-0.14 0.95 0 1.66-0.3s1.01-0.57 1.49-0.76c0.49-0.19 0.92-0.08 0.98-0.52 0.05-0.43-0.38-0.87-1.11-0.92s-1.63 0.79-1.93 1.06-1.28 0.46-1.39-0.24 0.52-0.76 0.98-1.03 0.76-0.65 0.76-0.65-0.84-1.09-1.09-1.17c-0.24-0.08-1.22 0.22-2.2-0.46-0.91-0.63-1.28-1.49-1.52-1.71s-1.33-0.57-2.39-0.35-2.64 1.09-2.2 1.69z" fill="#4b9eec"/>
</g>
</svg>
