<svg xmlns="http://www.w3.org/2000/svg" xmlns:xlink="http://www.w3.org/1999/xlink" aria-hidden="true" focusable="false" width="1em" height="1em" style="-ms-transform: rotate(360deg); -webkit-transform: rotate(360deg); transform: rotate(360deg);" preserveAspectRatio="xMidYMid meet" viewBox="0 0 128 128"><path d="M69.19 71.88c-19.34-.75-25.48 11.45-32.74 16.57c-5.57 3.93-14.76 3.28-14.76 3.28c-6.98 1.2-11.57 5.04-11.57 11.94c0 6.55 3.53 12.91 12.93 12.91l63.22-2.2s2.58-41.74-17.08-42.5z" fill="#d3cac3"/><path d="M9.96 84.32l19.91-50.01l13.81 5.3s-4.6 24.51-5.13 30.6c-.53 6.09 5.13 20.37 3.95 32.98c-1.32 14.13-6.89 17.83-17.52 19.04c-7.44.85-15.83-2.52-18.16-6.79c-3.44-6.3-4.43-14.18 3.14-31.12z" fill="#90a4ae"/><path d="M28.43 37.83c.77-.05 1.92-.37 3.97 2.11c1.52 1.84 4.92 4.98 8.9 5.19c.69-3.36 1.19-5.71 1.19-5.71l-12.63-5.1l-1.43 3.51z" fill="#466b7d"/><linearGradient id="IconifyId-17a99df72c5-49eee0-24" gradientUnits="userSpaceOnUse" x1="42.234" y1="41.429" x2="-3.656" y2="163.116"><stop offset=".308" stop-color="#d3cac3"/><stop offset=".744" stop-color="#6d94a5"/></linearGradient><path d="M14.13 98.73s15.13-45.62 21.08-62.25l-5.35-2.16l-19.9 50c-7.57 16.94-6.58 24.81-3.14 31.12c2.33 4.28 9.16 7.86 16.6 7.01c1.84-.21 3.48-.57 4.97-1.07c-5.3-8.63-14.26-22.65-14.26-22.65z" fill="url(#IconifyId-17a99df72c5-49eee0-24)"/><path d="M28.43 37.83c.77-.05 1.92-.37 3.97 2.11c1.52 1.84 6.11 5.86 10.09 6.07c.69-3.36 1.18-6.39 1.18-6.39l-13.81-5.3l-1.43 3.51z" fill="#466b7d"/><path d="M39.09 76.07s.06 5.87-4.94 10.17c-7.74 6.66-23.47 2.86-26.26 21.28c-.74 4.87-2.74 4.06-2.74 4.06s2.6 11.75 17.94 10.9c11.31-1.01 17.63-9.15 19.07-18.43c1.51-9.65-3.07-27.98-3.07-27.98z" fill="#466b7d"/><linearGradient id="IconifyId-17a99df72c5-49eee0-25" gradientUnits="userSpaceOnUse" x1="53.649" y1="100.495" x2="53.649" y2="122.038"><stop offset=".292" stop-color="#d3cac3"/><stop offset="1" stop-color="#6d94a5"/></linearGradient><path d="M81.58 71.13c-25.26 0-32.72 7.64-38.7 13.78c-2.92 3-5.23 5.37-9.31 6.43c-3.6.94-9.18 2.09-10.8 2.42c-.02 0-.04.01-.06.01c-7.86 1.36-12.54 6.85-12.54 14.68c0 3.93 1.31 7.35 3.79 9.87c1.95 1.99 5.64 4.35 12.1 4.35h.1l68.95-2.27s6.21-33.08-3.09-44.41c-2.62-3.18-6.23-4.86-10.44-4.86z" fill="url(#IconifyId-17a99df72c5-49eee0-25)"/><path d="M76.08 80.35C58.7 77.27 51.93 86.21 42.5 93.56c-4.28 3.34-15.86 4.56-15.86 4.56c-6.98 1.2-11.57 5.04-11.57 11.94c0 7.18 3.53 12.56 12.93 12.56l63.22-2.2c0 .01 4.23-36.64-15.14-40.07z" fill="#90a4ae"/><path d="M70.82 88.15c.03-4.01-.08-7.17-.16-9.47v-.12c-.1-2.86-.46-5.05-.93-6.75c-.2.03-.41.05-.61.08c-4.25-.27-8.48.6-8.48.6s4.87 1.23 5.41 9.04c.18 2.59.25 3.26.19 7.5c-.47 34.51 27.89 31.43 27.89 31.43l.31-1.71c-16.92-3.08-23.76-11.94-23.62-30.6z" fill="#466b7d"/><circle cx="28.27" cy="110.96" r="7.42" fill="#466b7d"/><circle cx="28.45" cy="109.74" r="6.55" fill="#a38e7a"/><radialGradient id="IconifyId-17a99df72c5-49eee0-26" cx="26.668" cy="105.722" r="10.024" gradientUnits="userSpaceOnUse"><stop offset="0" stop-color="#fff"/><stop offset=".921" stop-color="#cdd7db" stop-opacity="0"/></radialGradient><circle cx="28.45" cy="109.74" r="6.55" fill="url(#IconifyId-17a99df72c5-49eee0-26)"/><circle cx="29.39" cy="110.16" r="5.39" fill="#c6b3a1"/><path d="M121.79 88.89h.02c.01-17.13-14.62-28.3-31.06-27.66c-15.19.6-23.27 10.67-23.27 10.67s4.67 4.46 2.5 16.15l.02.02c-.08.32-.15.65-.22.98c-2.83 14.38 6.53 28.33 20.9 31.16c14.37 2.83 28.31-6.54 31.13-20.92c.7-3.55.66-7.07-.02-10.4z" fill="#90a4ae"/><linearGradient id="IconifyId-17a99df72c5-49eee0-27" gradientUnits="userSpaceOnUse" x1="67.478" y1="90.967" x2="123.505" y2="90.967"><stop offset=".292" stop-color="#d3cac3"/><stop offset="1" stop-color="#6d94a5"/></linearGradient><path d="M121.79 88.89l1.71.17c-.45-16.8-16.31-28.47-32.75-27.83c-15.19.6-23.27 10.67-23.27 10.67s.83.66 1.19 7.76c.12 2.37.19 5.45.16 9.47c-.12 16.06 7.49 28.25 21.86 31.08c14.37 2.83 29.3-6.08 32.12-20.46c.69-3.55-.34-7.53-1.02-10.86z" fill="url(#IconifyId-17a99df72c5-49eee0-27)"/><circle cx="98.03" cy="92.75" r="25.74" fill="#90a4ae"/><g><circle cx="100.55" cy="94.98" r="15.37" fill="#466b7d"/><circle cx="101.06" cy="92.86" r="14.25" fill="#a38e7a"/><radialGradient id="IconifyId-17a99df72c5-49eee0-28" cx="95.821" cy="81.892" r="20.256" gradientUnits="userSpaceOnUse"><stop offset="0" stop-color="#fff"/><stop offset=".921" stop-color="#cdd7db" stop-opacity="0"/></radialGradient><circle cx="101.06" cy="92.86" r="14.25" fill="url(#IconifyId-17a99df72c5-49eee0-28)"/><circle cx="102.82" cy="93.28" r="12.5" fill="#c6b3a1"/></g><g><path d="M68.35 20.1l-8.67-4.53l-7.93 8.47l-.25 6.79l12.76 4.65s6.56-3.38 6.83-3.51s-.11-5.54-.11-5.54l-2.63-6.33z" fill="#212121"/><path d="M57.25 22.24c1.38-3.39 2.68-3.27 4.19-2.84c1.54.44 2.57 2.24 1.38 4.89l-2.05 6.11l6.88-2.1l2.88 2.99l1.65 3.62s-6.4 2.36-10.42 2.52s-6.23-3.14-6.23-3.14l-2.82-1.3c.01 0 4.12-9.7 4.54-10.75z" fill="#466b7d"/><path d="M64.23 13.41c.12-2.62.26-5.99.26-6.06l-.06-.02c-.4-.08-3.03-.59-6.42-.98c-3.92-.45-6.04.24-7.96 2.45L38.9 20.09c-3.13 3.9-.64 9.19-.64 9.19l14.1 2.44s8.82-11.54 11.13-14.57c.13-.63.42-2.11.74-3.74z" fill="#6d94a5"/><path d="M38.26 29.28s-2.48-5.29.64-9.19l11.16-11.3c1.91-2.21 4.04-2.9 7.96-2.45c3.68.43 6.47.99 6.47.99s-.35 8.92-.45 9.08c-.11.16-11.68 15.3-11.68 15.3l-14.1-2.43z" fill="#d3cac3"/><path fill="#90a4ae" d="M45.97 22.63l14.59-14.7l1.65 11.34l-8.8 11.13l-4.92-4.76z"/><path d="M68.4 11.42c-.81-2.65-1.68-3.47-3.91-4.08c-4.32-1.19-7.45 3.49-4.81 8.23c2.87 5.16 7 13.66 7 13.66l6.36 5.09c.92-.34 1.97-1.95 1.19-4.57L68.4 11.42z" fill="#90a4ae"/><path d="M67.33 9.54c-.12-.11-.03-.76-.95-1.42c-.56-.4-1.24-.61-1.9-.79c-4.32-1.19-7.45 3.49-4.81 8.23c2.34 4.21 6.89 13.56 6.89 13.56s.68 2.4 1.12 2.52c.54.14 1.11-.2 1.39-.68c.28-.48.08-.95.05-1.5c0 0-6.37-13.02-7-14.21s4.22-6.61 5.21-5.71z" fill="#466b7d"/><circle cx="64.55" cy="12.72" r="4.6" fill="#466b7d"/><circle cx="64.94" cy="12.22" r="4.29" fill="#a38e7a"/><radialGradient id="IconifyId-17a99df72c5-49eee0-29" cx="61.144" cy="5.681" r="6.568" gradientTransform="rotate(12.17 45.284 22.59)" gradientUnits="userSpaceOnUse"><stop offset="0" stop-color="#fff"/><stop offset=".921" stop-color="#cdd7db" stop-opacity="0"/></radialGradient><circle cx="64.94" cy="12.22" r="4.29" fill="url(#IconifyId-17a99df72c5-49eee0-29)"/><circle cx="65.7" cy="12.25" r="3.46" fill="#c6b3a1"/><circle cx="70.66" cy="31.29" r="3.96" fill="#466b7d"/><circle cx="70.86" cy="31.11" r="3.52" fill="#a38e7a"/><radialGradient id="IconifyId-17a99df72c5-49eee0-30" cx="71.125" cy="23.363" r="5.386" gradientTransform="rotate(12.17 45.284 22.59)" gradientUnits="userSpaceOnUse"><stop offset="0" stop-color="#fff"/><stop offset=".921" stop-color="#cdd7db" stop-opacity="0"/></radialGradient><circle cx="70.86" cy="31.11" r="3.52" fill="url(#IconifyId-17a99df72c5-49eee0-30)"/><circle cx="71.58" cy="31.3" r="2.84" fill="#c6b3a1"/><path d="M27.73 27.46c1.25-6.16 6.84-8.05 12.21-7.55c4.69.43 7.59 1.15 7.59 1.15c-.57 2.14-.59 17.32-1.83 19.16c-1.38 2.03-8.15.61-12.48-2.65c-2.57-1.93-4.07-1.47-4.07-1.47s-2.19-4.88-1.42-8.64z" fill="#d9c6b6"/><ellipse transform="rotate(-75.072 43.516 30.68)" cx="43.51" cy="30.68" rx="10.44" ry="9.86" fill="#90a4ae"/><path d="M38.13 29.42c.8-3.18 4.02-5.63 8.01-4.38c3.17.99 18.86 6.8 18.86 6.8l.36 7.67s-18.16-.72-19.9-.92c-7.53-.87-8.14-5.95-7.33-9.17z" fill="#466b7d"/><path d="M67.91 36.95c.39-1.8-.69-3.56-2.42-4.08v-.03s-14.51-5.46-17.76-6.17a6.013 6.013 0 0 0-7.15 4.61a6.013 6.013 0 0 0 4.61 7.15c1.59.34 16.94 1.16 19.15 1.28c.04 0 .09.01.13.01c.09 0 .14.01.14.01v-.02c1.58-.08 2.95-1.17 3.3-2.76z" fill="#90a4ae"/><g><circle cx="47.29" cy="33.09" r="4.6" fill="#466b7d"/><circle cx="47.68" cy="32.6" r="4.29" fill="#a38e7a"/><radialGradient id="IconifyId-17a99df72c5-49eee0-31" cx="48.566" cy="29.233" r="6.568" gradientTransform="rotate(12.17 45.284 22.59)" gradientUnits="userSpaceOnUse"><stop offset="0" stop-color="#fff"/><stop offset=".921" stop-color="#cdd7db" stop-opacity="0"/></radialGradient><circle cx="47.68" cy="32.6" r="4.29" fill="url(#IconifyId-17a99df72c5-49eee0-31)"/><circle cx="48.42" cy="32.86" r="3.46" fill="#c6b3a1"/></g></g></svg>
