<svg width="413" height="180" viewBox="0 0 413 180" fill="none" xmlns="http://www.w3.org/2000/svg">
<g clip-path="url(#clip0_484_2)">
<path d="M407.651 0H5.34898C2.39482 0 0 2.39482 0 5.34898V174.651C0 177.605 2.39482 180 5.34898 180H407.651C410.605 180 413 177.605 413 174.651V5.34898C413 2.39482 410.605 0 407.651 0Z" fill="#E3E3E9" fill-opacity="0.4"/>
<path d="M6 7.76148C6 6.78864 6.78864 6 7.76148 6C8.73431 6 9.52295 6.78864 9.52295 7.76148C9.52295 8.73431 8.73431 9.52295 7.76148 9.52295C6.78864 9.52295 6 8.73431 6 7.76148Z" fill="#B8B8C5"/>
<path d="M403.5 7.76148C403.5 6.78864 404.289 6 405.261 6C406.234 6 407.023 6.78864 407.023 7.76148C407.023 8.73431 406.234 9.52295 405.261 9.52295C404.289 9.52295 403.5 8.73431 403.5 7.76148Z" fill="#B8B8C5"/>
<path d="M6 172.761C6 171.789 6.78864 171 7.76148 171C8.73431 171 9.52295 171.789 9.52295 172.761C9.52295 173.734 8.73431 174.523 7.76148 174.523C6.78864 174.523 6 173.734 6 172.761Z" fill="#B8B8C5"/>
<path d="M403.5 172.761C403.5 171.789 404.289 171 405.261 171C406.234 171 407.023 171.789 407.023 172.761C407.023 173.734 406.234 174.523 405.261 174.523C404.289 174.523 403.5 173.734 403.5 172.761Z" fill="#B8B8C5"/>
<path d="M138.652 55.3345H23.3506C20.5811 55.3345 18.3359 57.5796 18.3359 60.3491V161.651C18.3359 164.42 20.5811 166.665 23.3506 166.665H138.652C141.422 166.665 143.667 164.42 143.667 161.651V60.3491C143.667 57.5796 141.422 55.3345 138.652 55.3345Z" fill="white"/>
<path d="M138.652 55.3345H23.3506C20.5811 55.3345 18.3359 57.5796 18.3359 60.3491V161.651C18.3359 164.42 20.5811 166.665 23.3506 166.665H138.652C141.422 166.665 143.667 164.42 143.667 161.651V60.3491C143.667 57.5796 141.422 55.3345 138.652 55.3345Z" stroke="#D6D6D6" stroke-width="0.668622"/>
<path d="M44.9141 79.0352V67.3647H51.9574V68.6184H46.3273V72.5617H51.5927V73.8154H46.3273V77.7815H52.0486V79.0352H44.9141ZM55.6672 73.7698V79.0352H54.3223V70.2823H55.6216V71.65H55.7355C55.9407 71.2055 56.2522 70.8484 56.6701 70.5786C57.088 70.3051 57.6274 70.1683 58.2885 70.1683C58.8811 70.1683 59.3997 70.2899 59.8441 70.5331C60.2886 70.7724 60.6343 71.1371 60.8813 71.6272C61.1282 72.1134 61.2517 72.7289 61.2517 73.4735V79.0352H59.9068V73.5646C59.9068 72.877 59.7283 72.3414 59.3712 71.9577C59.0141 71.5702 58.524 71.3764 57.901 71.3764C57.4717 71.3764 57.088 71.4695 56.7499 71.6557C56.4156 71.8418 56.1515 72.1134 55.9578 72.4705C55.764 72.8276 55.6672 73.2607 55.6672 73.7698ZM67.2422 82.4999C66.5926 82.4999 66.0341 82.4163 65.5669 82.2491C65.0996 82.0858 64.7102 81.8692 64.3987 81.5995C64.0909 81.3336 63.8459 81.0487 63.6636 80.7447L64.7349 79.9925C64.8564 80.1521 65.0103 80.3344 65.1964 80.5396C65.3826 80.7485 65.6371 80.929 65.96 81.0809C66.2868 81.2367 66.7141 81.3146 67.2422 81.3146C67.9488 81.3146 68.532 81.1436 68.9916 80.8017C69.4513 80.4598 69.6812 79.9242 69.6812 79.1947V77.4168H69.5672C69.4684 77.5764 69.3279 77.7739 69.1455 78.0095C68.9669 78.2412 68.7086 78.4482 68.3705 78.6306C68.0362 78.8091 67.5841 78.8984 67.0143 78.8984C66.3077 78.8984 65.6732 78.7313 65.111 78.397C64.5525 78.0626 64.1099 77.5764 63.7832 76.9381C63.4603 76.2999 63.2989 75.5249 63.2989 74.6132C63.2989 73.7166 63.4565 72.9359 63.7718 72.2711C64.0871 71.6025 64.5259 71.0858 65.0882 70.7211C65.6504 70.3526 66.3001 70.1683 67.0371 70.1683C67.6069 70.1683 68.059 70.2633 68.3933 70.4533C68.7314 70.6394 68.9897 70.8522 69.1683 71.0915C69.3506 71.327 69.4912 71.5208 69.59 71.6727H69.7267V70.2823H71.026V79.2859C71.026 80.0381 70.855 80.6498 70.5131 81.1208C70.175 81.5957 69.7191 81.9433 69.1455 82.1637C68.5757 82.3878 67.9412 82.4999 67.2422 82.4999ZM67.1966 77.6903C67.7361 77.6903 68.192 77.5669 68.5643 77.3199C68.9366 77.073 69.2196 76.7178 69.4133 76.2543C69.6071 75.7909 69.7039 75.2362 69.7039 74.5904C69.7039 73.9597 69.609 73.4032 69.419 72.9207C69.2291 72.4382 68.948 72.0602 68.5757 71.7867C68.2033 71.5132 67.7437 71.3764 67.1966 71.3764C66.6268 71.3764 66.1519 71.5208 65.772 71.8095C65.3959 72.0982 65.1129 72.4857 64.9229 72.972C64.7368 73.4583 64.6437 73.9977 64.6437 74.5904C64.6437 75.1982 64.7387 75.7358 64.9286 76.203C65.1224 76.6665 65.4073 77.0312 65.7834 77.2972C66.1633 77.5593 66.6344 77.6903 67.1966 77.6903ZM73.4877 79.0352V70.2823H74.8326V79.0352H73.4877ZM74.1716 68.8235C73.9094 68.8235 73.6834 68.7342 73.4934 68.5557C73.3073 68.3771 73.2142 68.1625 73.2142 67.9118C73.2142 67.661 73.3073 67.4464 73.4934 67.2678C73.6834 67.0893 73.9094 67 74.1716 67C74.4337 67 74.6578 67.0893 74.844 67.2678C75.0339 67.4464 75.1289 67.661 75.1289 67.9118C75.1289 68.1625 75.0339 68.3771 74.844 68.5557C74.6578 68.7342 74.4337 68.8235 74.1716 68.8235ZM78.6406 73.7698V79.0352H77.2958V70.2823H78.595V71.65H78.709C78.9141 71.2055 79.2256 70.8484 79.6435 70.5786C80.0614 70.3051 80.6009 70.1683 81.2619 70.1683C81.8545 70.1683 82.3731 70.2899 82.8176 70.5331C83.2621 70.7724 83.6078 71.1371 83.8547 71.6272C84.1016 72.1134 84.2251 72.7289 84.2251 73.4735V79.0352H82.8803V73.5646C82.8803 72.877 82.7017 72.3414 82.3446 71.9577C81.9875 71.5702 81.4974 71.3764 80.8744 71.3764C80.4451 71.3764 80.0614 71.4695 79.7233 71.6557C79.389 71.8418 79.125 72.1134 78.9312 72.4705C78.7375 72.8276 78.6406 73.2607 78.6406 73.7698ZM90.3524 79.2175C89.509 79.2175 88.7815 79.0314 88.1699 78.6591C87.562 78.283 87.0929 77.7587 86.7624 77.0863C86.4356 76.4101 86.2723 75.6237 86.2723 74.7271C86.2723 73.8306 86.4356 73.0404 86.7624 72.3566C87.0929 71.6689 87.5526 71.1333 88.1414 70.7496C88.734 70.3621 89.4255 70.1683 90.2156 70.1683C90.6715 70.1683 91.1217 70.2443 91.5662 70.3963C92.0107 70.5482 92.4153 70.7952 92.78 71.1371C93.1447 71.4752 93.4353 71.9235 93.6518 72.4819C93.8684 73.0404 93.9766 73.728 93.9766 74.5448V75.1146H87.2296V73.9521H92.609C92.609 73.4583 92.5102 73.0176 92.3127 72.6301C92.1189 72.2426 91.8416 71.9368 91.4807 71.7126C91.1236 71.4885 90.7019 71.3764 90.2156 71.3764C89.68 71.3764 89.2165 71.5094 88.8252 71.7753C88.4377 72.0375 88.1395 72.3794 87.9305 72.801C87.7216 73.2227 87.6171 73.6748 87.6171 74.1573V74.9323C87.6171 75.5933 87.7311 76.1537 87.959 76.6133C88.1908 77.0692 88.5118 77.4168 88.9221 77.6562C89.3324 77.8917 89.8091 78.0095 90.3524 78.0095C90.7057 78.0095 91.0248 77.9601 91.3098 77.8613C91.5985 77.7587 91.8473 77.6068 92.0563 77.4054C92.2652 77.2003 92.4267 76.9457 92.5406 76.6418L93.8399 77.0065C93.7031 77.4472 93.4733 77.8347 93.1504 78.169C92.8274 78.4995 92.4286 78.7579 91.9537 78.944C91.4788 79.1264 90.945 79.2175 90.3524 79.2175ZM99.6919 79.2175C98.8488 79.2175 98.1213 79.0314 97.5097 78.6591C96.9019 78.283 96.4327 77.7587 96.1022 77.0863C95.7755 76.4101 95.6121 75.6237 95.6121 74.7271C95.6121 73.8306 95.7755 73.0404 96.1022 72.3566C96.4327 71.6689 96.8924 71.1333 97.4812 70.7496C98.0738 70.3621 98.7653 70.1683 99.5559 70.1683C100.011 70.1683 100.462 70.2443 100.906 70.3963C101.351 70.5482 101.755 70.7952 102.12 71.1371C102.485 71.4752 102.775 71.9235 102.992 72.4819C103.208 73.0404 103.317 73.728 103.317 74.5448V75.1146H96.5694V73.9521H101.949C101.949 73.4583 101.85 73.0176 101.653 72.6301C101.459 72.2426 101.182 71.9368 100.821 71.7126C100.464 71.4885 100.042 71.3764 99.5559 71.3764C99.0199 71.3764 98.5563 71.5094 98.165 71.7753C97.7775 72.0375 97.4793 72.3794 97.2704 72.801C97.0614 73.2227 96.9569 73.6748 96.9569 74.1573V74.9323C96.9569 75.5933 97.0709 76.1537 97.2989 76.6133C97.5306 77.0692 97.8516 77.4168 98.2619 77.6562C98.6722 77.8917 99.1489 78.0095 99.6919 78.0095C100.046 78.0095 100.365 77.9601 100.65 77.8613C100.938 77.7587 101.187 77.6068 101.396 77.4054C101.605 77.2003 101.767 76.9457 101.881 76.6418L103.18 77.0065C103.043 77.4472 102.813 77.8347 102.49 78.169C102.167 78.4995 101.768 78.7579 101.294 78.944C100.819 79.1264 100.285 79.2175 99.6919 79.2175ZM105.362 79.0352V70.2823H106.662V71.6044H106.753C106.912 71.1713 107.201 70.8199 107.619 70.5501C108.037 70.2804 108.508 70.1456 109.032 70.1456C109.131 70.1456 109.254 70.1475 109.403 70.1513C109.551 70.1551 109.663 70.1608 109.739 70.1683V71.536C109.693 71.5246 109.589 71.5075 109.425 71.4847C109.266 71.4581 109.097 71.4448 108.918 71.4448C108.493 71.4448 108.113 71.5341 107.778 71.7126C107.448 71.8874 107.186 72.1305 106.992 72.442C106.802 72.7498 106.707 73.1012 106.707 73.4963V79.0352H105.362ZM117.533 72.2426L116.325 72.5845C116.249 72.3832 116.137 72.1875 115.989 71.9976C115.844 71.8038 115.647 71.6443 115.396 71.5189C115.145 71.3935 114.824 71.3308 114.433 71.3308C113.897 71.3308 113.451 71.4543 113.094 71.7012C112.74 71.9444 112.564 72.254 112.564 72.6301C112.564 72.9644 112.685 73.2284 112.928 73.4222C113.172 73.6159 113.552 73.7774 114.068 73.9066L115.367 74.2257C116.15 74.4156 116.733 74.7062 117.117 75.0975C117.501 75.485 117.692 75.9846 117.692 76.5962C117.692 77.0977 117.548 77.546 117.259 77.9411C116.974 78.3362 116.575 78.6477 116.063 78.8756C115.55 79.1036 114.953 79.2175 114.273 79.2175C113.381 79.2175 112.642 79.0238 112.057 78.6363C111.472 78.2488 111.101 77.6827 110.945 76.9381L112.222 76.619C112.343 77.0901 112.573 77.4434 112.911 77.679C113.253 77.9145 113.7 78.0323 114.251 78.0323C114.877 78.0323 115.375 77.8993 115.744 77.6334C116.116 77.3636 116.302 77.0407 116.302 76.6646C116.302 76.3607 116.196 76.1062 115.983 75.901C115.77 75.6921 115.443 75.5363 115.003 75.4337L113.544 75.0918C112.742 74.9019 112.153 74.6075 111.777 74.2086C111.405 73.8059 111.219 73.3025 111.219 72.6985C111.219 72.2046 111.358 71.7677 111.635 71.3878C111.916 71.0079 112.298 70.7097 112.78 70.4932C113.267 70.2766 113.817 70.1683 114.433 70.1683C115.299 70.1683 115.979 70.3583 116.473 70.7382C116.971 71.1181 117.324 71.6196 117.533 72.2426Z" fill="#262626"/>
<path d="M129.301 108.982H32.6966C29.7425 108.982 27.3477 111.377 27.3477 114.331V150.017C27.3477 152.971 29.7425 155.366 32.6966 155.366H129.301C132.255 155.366 134.65 152.971 134.65 150.017V114.331C134.65 111.377 132.255 108.982 129.301 108.982Z" fill="#F2F1FF"/>
<path d="M61.5508 139.674V125.572H70.2956V127.404H63.6784V131.701H69.669V133.525H63.6784V139.674H61.5508ZM72.6143 139.674V129.098H74.6043V130.778H74.7144C74.9072 130.209 75.2469 129.761 75.7335 129.435C76.2247 129.105 76.7801 128.94 77.3999 128.94C77.5284 128.94 77.6799 128.944 77.8543 128.953C78.0333 128.963 78.1733 128.974 78.2743 128.988V130.957C78.1917 130.934 78.0448 130.909 77.8337 130.881C77.6225 130.849 77.4113 130.833 77.2002 130.833C76.7136 130.833 76.2798 130.936 75.8988 131.143C75.5224 131.345 75.224 131.627 75.0036 131.99C74.7833 132.348 74.6731 132.757 74.6731 133.216V139.674H72.6143ZM84.2356 139.888C83.1936 139.888 82.2961 139.665 81.5433 139.22C80.7951 138.77 80.2167 138.139 79.8081 137.326C79.4042 136.509 79.2022 135.552 79.2022 134.455C79.2022 133.372 79.4042 132.417 79.8081 131.591C80.2167 130.764 80.7859 130.119 81.5158 129.656C82.2502 129.192 83.1087 128.96 84.091 128.96C84.6878 128.96 85.2662 129.059 85.8262 129.256C86.3862 129.454 86.8889 129.764 87.3342 130.186C87.7794 130.608 88.1306 131.157 88.3877 131.832C88.6447 132.502 88.7733 133.317 88.7733 134.276V135.006H80.3659V133.463H86.7558C86.7558 132.922 86.6456 132.442 86.4252 132.024C86.2049 131.602 85.8951 131.269 85.4957 131.026C85.1009 130.783 84.6373 130.661 84.1048 130.661C83.5264 130.661 83.0214 130.803 82.5899 131.088C82.163 131.368 81.8325 131.735 81.5984 132.19C81.3689 132.639 81.2541 133.128 81.2541 133.656V134.861C81.2541 135.568 81.3781 136.17 81.6259 136.665C81.8784 137.161 82.2296 137.54 82.6794 137.801C83.1293 138.058 83.6549 138.187 84.2563 138.187C84.6465 138.187 85.0022 138.132 85.3235 138.022C85.6449 137.907 85.9226 137.737 86.1567 137.512C86.3908 137.287 86.5698 137.01 86.6938 136.679L88.6424 137.03C88.4864 137.604 88.2063 138.107 87.8024 138.538C87.403 138.965 86.9004 139.298 86.2944 139.537C85.6931 139.771 85.0068 139.888 84.2356 139.888ZM95.6159 139.888C94.5739 139.888 93.6764 139.665 92.9236 139.22C92.1754 138.77 91.597 138.139 91.1884 137.326C90.7844 136.509 90.5825 135.552 90.5825 134.455C90.5825 133.372 90.7844 132.417 91.1884 131.591C91.597 130.764 92.1662 130.119 92.8961 129.656C93.6305 129.192 94.4889 128.96 95.4713 128.96C96.0681 128.96 96.6464 129.059 97.2065 129.256C97.7665 129.454 98.2692 129.764 98.7144 130.186C99.1595 130.608 99.5105 131.157 99.7675 131.832C100.025 132.502 100.153 133.317 100.153 134.276V135.006H91.7461V133.463H98.136C98.136 132.922 98.0259 132.442 97.8055 132.024C97.5852 131.602 97.2753 131.269 96.876 131.026C96.4812 130.783 96.0176 130.661 95.4851 130.661C94.9067 130.661 94.4017 130.803 93.9702 131.088C93.5433 131.368 93.2128 131.735 92.9787 132.19C92.7492 132.639 92.6344 133.128 92.6344 133.656V134.861C92.6344 135.568 92.7583 136.17 93.0062 136.665C93.2587 137.161 93.6099 137.54 94.0597 137.801C94.5096 138.058 95.0352 138.187 95.6365 138.187C96.0267 138.187 96.3825 138.132 96.7038 138.022C97.0252 137.907 97.3029 137.737 97.537 137.512C97.7711 137.287 97.9501 137.01 98.0741 136.679L100.022 137.03C99.8665 137.604 99.5865 138.107 99.1825 138.538C98.7833 138.965 98.2806 139.298 97.6747 139.537C97.0734 139.771 96.3871 139.888 95.6159 139.888Z" fill="#5B55FD"/>
<path d="M390.65 54.6655H159.347C156.209 54.6655 153.664 57.21 153.664 60.3488V161.651C153.664 164.79 156.209 167.335 159.347 167.335H390.65C393.789 167.335 396.333 164.79 396.333 161.651V60.3488C396.333 57.21 393.789 54.6655 390.65 54.6655Z" fill="white"/>
<path d="M390.65 54.6655H159.347C156.209 54.6655 153.664 57.21 153.664 60.3488V161.651C153.664 164.79 156.209 167.335 159.347 167.335H390.65C393.789 167.335 396.333 164.79 396.333 161.651V60.3488C396.333 57.21 393.789 54.6655 390.65 54.6655Z" stroke="#D6D6D6" stroke-width="0.668622"/>
<path d="M189.314 93.9089C189.259 93.4411 189.034 93.0779 188.64 92.8194C188.246 92.5609 187.763 92.4316 187.191 92.4316C186.772 92.4316 186.406 92.4993 186.092 92.6347C185.781 92.7702 185.538 92.9564 185.363 93.1933C185.19 93.4303 185.104 93.6996 185.104 94.0012C185.104 94.2536 185.164 94.4706 185.284 94.6521C185.407 94.8306 185.564 94.9799 185.755 95.0999C185.946 95.2169 186.146 95.3138 186.355 95.3908C186.564 95.4646 186.757 95.5247 186.932 95.5708L187.892 95.8293C188.139 95.894 188.413 95.9832 188.714 96.0971C189.019 96.211 189.31 96.3664 189.587 96.5634C189.867 96.7573 190.098 97.0065 190.279 97.3112C190.461 97.6159 190.552 97.9899 190.552 98.433C190.552 98.9439 190.418 99.4056 190.15 99.818C189.885 100.23 189.497 100.558 188.987 100.801C188.479 101.044 187.862 101.166 187.135 101.166C186.458 101.166 185.872 101.057 185.376 100.838C184.884 100.62 184.496 100.315 184.213 99.9242C183.933 99.5333 183.775 99.0793 183.738 98.5623H184.919C184.95 98.9193 185.07 99.2148 185.28 99.4487C185.492 99.6795 185.76 99.8518 186.083 99.9657C186.409 100.077 186.76 100.132 187.135 100.132C187.572 100.132 187.965 100.061 188.313 99.9195C188.66 99.7749 188.936 99.5748 189.139 99.3194C189.342 99.0609 189.444 98.7593 189.444 98.4146C189.444 98.1007 189.356 97.8452 189.18 97.6482C189.005 97.4513 188.774 97.2912 188.488 97.1681C188.202 97.045 187.892 96.9373 187.56 96.845L186.397 96.5126C185.658 96.3002 185.073 95.9971 184.642 95.6031C184.212 95.2092 183.996 94.6937 183.996 94.0566C183.996 93.5273 184.139 93.0656 184.425 92.6717C184.715 92.2747 185.103 91.9669 185.589 91.7484C186.078 91.5268 186.624 91.416 187.228 91.416C187.837 91.416 188.379 91.5252 188.853 91.7438C189.327 91.9592 189.702 92.2547 189.979 92.6301C190.259 93.0056 190.407 93.4319 190.422 93.9089H189.314ZM192.286 101V93.9089H193.339V95.0168H193.431C193.579 94.6383 193.817 94.3444 194.147 94.1351C194.476 93.9227 194.871 93.8166 195.333 93.8166C195.801 93.8166 196.19 93.9227 196.501 94.1351C196.815 94.3444 197.06 94.6383 197.235 95.0168H197.309C197.491 94.6506 197.763 94.3598 198.126 94.1443C198.489 93.9258 198.925 93.8166 199.433 93.8166C200.067 93.8166 200.585 94.0151 200.988 94.4121C201.391 94.806 201.593 95.42 201.593 96.2541V101H200.504V96.2541C200.504 95.7309 200.36 95.3569 200.074 95.1323C199.788 94.9076 199.451 94.7953 199.063 94.7953C198.565 94.7953 198.178 94.9461 197.904 95.2477C197.631 95.5462 197.494 95.9248 197.494 96.3833V101H196.386V96.1433C196.386 95.7401 196.255 95.4154 195.993 95.1692C195.732 94.9199 195.395 94.7953 194.982 94.7953C194.699 94.7953 194.434 94.8707 194.188 95.0215C193.945 95.1723 193.748 95.3815 193.597 95.6493C193.45 95.914 193.376 96.2202 193.376 96.568V101H192.286ZM205.672 101.166C205.222 101.166 204.815 101.081 204.448 100.912C204.082 100.74 203.791 100.492 203.576 100.169C203.36 99.8426 203.253 99.4487 203.253 98.987C203.253 98.5808 203.333 98.2515 203.493 97.9991C203.653 97.7436 203.867 97.5436 204.134 97.3989C204.402 97.2543 204.698 97.1466 205.021 97.0758C205.347 97.0019 205.675 96.9435 206.004 96.9004C206.435 96.845 206.784 96.8034 207.052 96.7757C207.323 96.7449 207.52 96.6942 207.643 96.6234C207.769 96.5526 207.832 96.4295 207.832 96.2541V96.2171C207.832 95.7616 207.708 95.4077 207.458 95.1553C207.212 94.903 206.838 94.7768 206.336 94.7768C205.816 94.7768 205.409 94.8907 205.113 95.1184C204.818 95.3462 204.61 95.5893 204.49 95.8478L203.456 95.4785C203.64 95.0476 203.887 94.7122 204.194 94.4721C204.505 94.229 204.844 94.0597 205.21 93.9643C205.579 93.8658 205.943 93.8166 206.3 93.8166C206.527 93.8166 206.789 93.8443 207.084 93.8997C207.383 93.952 207.671 94.0612 207.948 94.2274C208.228 94.3936 208.46 94.6444 208.645 94.9799C208.829 95.3154 208.922 95.7647 208.922 96.3279V101H207.832V100.04H207.777C207.703 100.194 207.58 100.358 207.407 100.534C207.235 100.709 207.006 100.858 206.72 100.981C206.433 101.104 206.084 101.166 205.672 101.166ZM205.838 100.187C206.269 100.187 206.632 100.103 206.927 99.9334C207.226 99.7641 207.451 99.5456 207.601 99.2779C207.755 99.0101 207.832 98.7285 207.832 98.433V97.4359C207.786 97.4913 207.684 97.5421 207.527 97.5882C207.374 97.6313 207.195 97.6698 206.992 97.7036C206.792 97.7344 206.597 97.7621 206.406 97.7867C206.218 97.8083 206.066 97.8267 205.949 97.8421C205.666 97.8791 205.401 97.9391 205.155 98.0222C204.911 98.1022 204.715 98.2238 204.564 98.3869C204.416 98.5469 204.342 98.7654 204.342 99.0424C204.342 99.421 204.482 99.7072 204.762 99.9011C205.045 100.092 205.404 100.187 205.838 100.187ZM212 91.5453V101H210.91V91.5453H212ZM215.085 91.5453V101H213.995V91.5453H215.085ZM222.823 101.166C222.374 101.166 221.966 101.081 221.6 100.912C221.233 100.74 220.943 100.492 220.727 100.169C220.512 99.8426 220.404 99.4487 220.404 98.987C220.404 98.5808 220.484 98.2515 220.644 97.9991C220.804 97.7436 221.018 97.5436 221.286 97.3989C221.554 97.2543 221.849 97.1466 222.172 97.0758C222.498 97.0019 222.826 96.9435 223.155 96.9004C223.586 96.845 223.936 96.8034 224.203 96.7757C224.474 96.7449 224.671 96.6942 224.794 96.6234C224.92 96.5526 224.984 96.4295 224.984 96.2541V96.2171C224.984 95.7616 224.859 95.4077 224.61 95.1553C224.363 94.903 223.989 94.7768 223.488 94.7768C222.968 94.7768 222.56 94.8907 222.264 95.1184C221.969 95.3462 221.761 95.5893 221.641 95.8478L220.607 95.4785C220.792 95.0476 221.038 94.7122 221.346 94.4721C221.657 94.229 221.995 94.0597 222.361 93.9643C222.731 93.8658 223.094 93.8166 223.451 93.8166C223.679 93.8166 223.94 93.8443 224.236 93.8997C224.534 93.952 224.822 94.0612 225.099 94.2274C225.379 94.3936 225.611 94.6444 225.796 94.9799C225.981 95.3154 226.073 95.7647 226.073 96.3279V101H224.984V100.04H224.928C224.854 100.194 224.731 100.358 224.559 100.534C224.386 100.709 224.157 100.858 223.871 100.981C223.585 101.104 223.235 101.166 222.823 101.166ZM222.989 100.187C223.42 100.187 223.783 100.103 224.079 99.9334C224.377 99.7641 224.602 99.5456 224.753 99.2779C224.907 99.0101 224.984 98.7285 224.984 98.433V97.4359C224.937 97.4913 224.836 97.5421 224.679 97.5882C224.525 97.6313 224.346 97.6698 224.143 97.7036C223.943 97.7344 223.748 97.7621 223.557 97.7867C223.369 97.8083 223.217 97.8267 223.1 97.8421C222.817 97.8791 222.552 97.9391 222.306 98.0222C222.063 98.1022 221.866 98.2238 221.715 98.3869C221.567 98.5469 221.493 98.7654 221.493 99.0424C221.493 99.421 221.634 99.7072 221.914 99.9011C222.197 100.092 222.555 100.187 222.989 100.187ZM228.062 103.659V93.9089H229.114V95.0353H229.243C229.323 94.9122 229.434 94.7552 229.576 94.5644C229.72 94.3705 229.927 94.1982 230.194 94.0474C230.465 93.8935 230.831 93.8166 231.293 93.8166C231.89 93.8166 232.416 93.9658 232.872 94.2644C233.327 94.5629 233.683 94.9861 233.938 95.5339C234.194 96.0817 234.322 96.728 234.322 97.4728C234.322 98.2238 234.194 98.8747 233.938 99.4256C233.683 99.9734 233.329 100.398 232.877 100.7C232.424 100.998 231.902 101.148 231.312 101.148C230.856 101.148 230.491 101.072 230.217 100.921C229.944 100.767 229.733 100.594 229.585 100.4C229.437 100.203 229.323 100.04 229.243 99.9103H229.151V103.659H228.062ZM229.133 97.4543C229.133 97.9899 229.211 98.4623 229.368 98.8716C229.525 99.2779 229.754 99.5964 230.056 99.8272C230.358 100.055 230.727 100.169 231.164 100.169C231.619 100.169 231.999 100.049 232.304 99.8087C232.612 99.5656 232.843 99.2394 232.997 98.8301C233.154 98.4177 233.232 97.9591 233.232 97.4543C233.232 96.9558 233.155 96.5064 233.001 96.1063C232.85 95.7032 232.621 95.3846 232.313 95.1507C232.009 94.9137 231.626 94.7953 231.164 94.7953C230.721 94.7953 230.348 94.9076 230.047 95.1323C229.745 95.3538 229.517 95.6647 229.363 96.0648C229.21 96.4618 229.133 96.925 229.133 97.4543ZM235.983 103.659V93.9089H237.036V95.0353H237.165C237.245 94.9122 237.356 94.7552 237.498 94.5644C237.642 94.3705 237.849 94.1982 238.116 94.0474C238.387 93.8935 238.753 93.8166 239.215 93.8166C239.812 93.8166 240.338 93.9658 240.794 94.2644C241.249 94.5629 241.605 94.9861 241.86 95.5339C242.116 96.0817 242.243 96.728 242.243 97.4728C242.243 98.2238 242.116 98.8747 241.86 99.4256C241.605 99.9734 241.251 100.398 240.798 100.7C240.346 100.998 239.824 101.148 239.233 101.148C238.778 101.148 238.413 101.072 238.139 100.921C237.865 100.767 237.655 100.594 237.507 100.4C237.359 100.203 237.245 100.04 237.165 99.9103H237.073V103.659H235.983ZM237.054 97.4543C237.054 97.9899 237.133 98.4623 237.29 98.8716C237.447 99.2779 237.676 99.5964 237.978 99.8272C238.279 100.055 238.649 100.169 239.086 100.169C239.541 100.169 239.921 100.049 240.226 99.8087C240.534 99.5656 240.765 99.2394 240.918 98.8301C241.075 98.4177 241.154 97.9591 241.154 97.4543C241.154 96.9558 241.077 96.5064 240.923 96.1063C240.772 95.7032 240.543 95.3846 240.235 95.1507C239.931 94.9137 239.547 94.7953 239.086 94.7953C238.643 94.7953 238.27 94.9076 237.969 95.1323C237.667 95.3538 237.439 95.6647 237.285 96.0648C237.131 96.4618 237.054 96.925 237.054 97.4543ZM248.928 95.497L247.949 95.7739C247.888 95.6108 247.797 95.4523 247.677 95.2985C247.56 95.1415 247.4 95.0122 247.197 94.9107C246.994 94.8091 246.734 94.7583 246.417 94.7583C245.983 94.7583 245.621 94.8583 245.332 95.0584C245.046 95.2554 244.902 95.5062 244.902 95.8109C244.902 96.0817 245.001 96.2956 245.198 96.4526C245.395 96.6095 245.703 96.7403 246.121 96.845L247.174 97.1035C247.808 97.2574 248.28 97.4928 248.591 97.8098C248.902 98.1237 249.057 98.5284 249.057 99.0239C249.057 99.4302 248.94 99.7934 248.706 100.113C248.476 100.434 248.152 100.686 247.737 100.871C247.322 101.055 246.838 101.148 246.287 101.148C245.564 101.148 244.966 100.991 244.492 100.677C244.018 100.363 243.718 99.9042 243.591 99.3009L244.626 99.0424C244.724 99.424 244.91 99.7103 245.184 99.9011C245.461 100.092 245.823 100.187 246.269 100.187C246.777 100.187 247.18 100.08 247.478 99.8641C247.78 99.6456 247.931 99.384 247.931 99.0793C247.931 98.8331 247.845 98.6269 247.672 98.4607C247.5 98.2915 247.235 98.1653 246.878 98.0822L245.697 97.8052C245.047 97.6513 244.57 97.4128 244.265 97.0896C243.964 96.7634 243.813 96.3556 243.813 95.8663C243.813 95.4662 243.925 95.1123 244.15 94.8045C244.378 94.4967 244.687 94.2551 245.078 94.0797C245.472 93.9043 245.918 93.8166 246.417 93.8166C247.118 93.8166 247.669 93.9704 248.069 94.2782C248.473 94.586 248.759 94.9922 248.928 95.497Z" fill="#888888"/>
<path d="M294.145 101V91.5454H295.29V99.9843H299.685V101H294.145ZM303.396 101.166C302.947 101.166 302.539 101.082 302.173 100.912C301.807 100.74 301.516 100.492 301.3 100.169C301.085 99.8427 300.977 99.4488 300.977 98.9871C300.977 98.5809 301.057 98.2516 301.217 97.9992C301.377 97.7437 301.591 97.5437 301.859 97.399C302.127 97.2544 302.422 97.1467 302.745 97.0759C303.072 97.002 303.399 96.9436 303.729 96.9005C304.16 96.8451 304.509 96.8035 304.777 96.7758C305.047 96.745 305.244 96.6943 305.368 96.6235C305.494 96.5527 305.557 96.4296 305.557 96.2542V96.2172C305.557 95.7617 305.432 95.4078 305.183 95.1554C304.937 94.9031 304.563 94.7769 304.061 94.7769C303.541 94.7769 303.133 94.8908 302.838 95.1185C302.542 95.3463 302.335 95.5894 302.214 95.8479L301.18 95.4786C301.365 95.0477 301.611 94.7123 301.919 94.4722C302.23 94.2291 302.568 94.0598 302.935 93.9644C303.304 93.8659 303.667 93.8167 304.024 93.8167C304.252 93.8167 304.513 93.8444 304.809 93.8998C305.107 93.9521 305.395 94.0613 305.672 94.2275C305.952 94.3937 306.185 94.6445 306.369 94.98C306.554 95.3155 306.646 95.7648 306.646 96.328V101H305.557V100.04H305.501C305.428 100.194 305.304 100.358 305.132 100.534C304.96 100.709 304.73 100.858 304.444 100.981C304.158 101.105 303.809 101.166 303.396 101.166ZM303.562 100.187C303.993 100.187 304.357 100.103 304.652 99.9335C304.951 99.7642 305.175 99.5457 305.326 99.278C305.48 99.0102 305.557 98.7286 305.557 98.4331V97.436C305.511 97.4914 305.409 97.5422 305.252 97.5883C305.098 97.6314 304.92 97.6699 304.717 97.7037C304.517 97.7345 304.321 97.7622 304.13 97.7868C303.943 97.8084 303.79 97.8268 303.673 97.8422C303.39 97.8792 303.125 97.9392 302.879 98.0223C302.636 98.1023 302.439 98.2239 302.288 98.387C302.141 98.547 302.067 98.7655 302.067 99.0425C302.067 99.4211 302.207 99.7073 302.487 99.9012C302.77 100.092 303.129 100.187 303.562 100.187ZM308.635 101V93.909H309.687V94.98H309.761C309.891 94.6292 310.124 94.3445 310.463 94.126C310.802 93.9075 311.183 93.7982 311.608 93.7982C311.688 93.7982 311.788 93.7997 311.908 93.8028C312.028 93.8059 312.119 93.8105 312.18 93.8167V94.9246C312.143 94.9154 312.059 94.9015 311.926 94.8831C311.797 94.8615 311.66 94.8508 311.516 94.8508C311.171 94.8508 310.863 94.9231 310.592 95.0677C310.324 95.2093 310.112 95.4063 309.955 95.6586C309.801 95.9079 309.724 96.1926 309.724 96.5127V101H308.635ZM316.118 103.807C315.592 103.807 315.139 103.739 314.761 103.604C314.382 103.471 314.067 103.296 313.815 103.077C313.565 102.862 313.367 102.631 313.219 102.385L314.087 101.776C314.185 101.905 314.31 102.053 314.461 102.219C314.612 102.388 314.818 102.534 315.079 102.657C315.344 102.783 315.69 102.847 316.118 102.847C316.691 102.847 317.163 102.708 317.535 102.431C317.908 102.154 318.094 101.72 318.094 101.129V99.6888H318.002C317.922 99.8181 317.808 99.9781 317.66 100.169C317.515 100.357 317.306 100.524 317.032 100.672C316.761 100.817 316.395 100.889 315.934 100.889C315.361 100.889 314.847 100.754 314.392 100.483C313.939 100.212 313.581 99.8181 313.316 99.301C313.054 98.784 312.924 98.1561 312.924 97.4175C312.924 96.6912 313.051 96.0587 313.307 95.5201C313.562 94.9785 313.918 94.5599 314.373 94.2645C314.829 93.9659 315.355 93.8167 315.952 93.8167C316.414 93.8167 316.78 93.8936 317.051 94.0475C317.325 94.1983 317.534 94.3706 317.679 94.5645C317.826 94.7553 317.94 94.9123 318.02 95.0354H318.131V93.909H319.184V101.203C319.184 101.812 319.045 102.308 318.768 102.69C318.494 103.074 318.125 103.356 317.66 103.534C317.198 103.716 316.684 103.807 316.118 103.807ZM316.081 99.9104C316.518 99.9104 316.888 99.8104 317.189 99.6103C317.491 99.4103 317.72 99.1225 317.877 98.7471C318.034 98.3716 318.112 97.9222 318.112 97.399C318.112 96.8882 318.036 96.4373 317.882 96.0464C317.728 95.6556 317.5 95.3493 317.198 95.1277C316.897 94.9061 316.524 94.7954 316.081 94.7954C315.62 94.7954 315.235 94.9123 314.927 95.1462C314.622 95.3801 314.393 95.694 314.239 96.088C314.088 96.4819 314.013 96.9189 314.013 97.399C314.013 97.8915 314.09 98.327 314.244 98.7055C314.401 99.081 314.632 99.3764 314.936 99.5919C315.244 99.8042 315.626 99.9104 316.081 99.9104ZM324.151 101.148C323.468 101.148 322.878 100.997 322.383 100.695C321.89 100.391 321.51 99.9658 321.242 99.4211C320.978 98.8732 320.845 98.2362 320.845 97.5098C320.845 96.7835 320.978 96.1434 321.242 95.5894C321.51 95.0323 321.883 94.5984 322.36 94.2875C322.84 93.9736 323.4 93.8167 324.04 93.8167C324.409 93.8167 324.774 93.8782 325.134 94.0013C325.494 94.1244 325.822 94.3245 326.117 94.6015C326.413 94.8754 326.648 95.2385 326.824 95.691C326.999 96.1434 327.087 96.7004 327.087 97.3621V97.8238H321.621V96.882H325.979C325.979 96.4819 325.899 96.1249 325.739 95.811C325.582 95.4971 325.357 95.2493 325.065 95.0677C324.776 94.8861 324.434 94.7954 324.04 94.7954C323.606 94.7954 323.231 94.9031 322.914 95.1185C322.6 95.3309 322.358 95.6079 322.189 95.9495C322.02 96.2911 321.935 96.6573 321.935 97.0482V97.676C321.935 98.2115 322.027 98.6655 322.212 99.0379C322.4 99.4072 322.66 99.6888 322.992 99.8827C323.324 100.074 323.711 100.169 324.151 100.169C324.437 100.169 324.696 100.129 324.926 100.049C325.16 99.9658 325.362 99.8427 325.531 99.6796C325.7 99.5134 325.831 99.3072 325.924 99.061L326.976 99.3564C326.865 99.7134 326.679 100.027 326.418 100.298C326.156 100.566 325.833 100.775 325.448 100.926C325.063 101.074 324.631 101.148 324.151 101.148ZM328.744 101V93.909H329.797V94.98H329.871C330 94.6292 330.234 94.3445 330.572 94.126C330.911 93.9075 331.293 93.7982 331.717 93.7982C331.797 93.7982 331.897 93.7997 332.017 93.8028C332.137 93.8059 332.228 93.8105 332.29 93.8167V94.9246C332.253 94.9154 332.168 94.9015 332.036 94.8831C331.907 94.8615 331.77 94.8508 331.625 94.8508C331.28 94.8508 330.972 94.9231 330.702 95.0677C330.434 95.2093 330.222 95.4063 330.065 95.6586C329.911 95.9079 329.834 96.1926 329.834 96.5127V101H328.744ZM339.324 101.166C338.875 101.166 338.467 101.082 338.101 100.912C337.734 100.74 337.444 100.492 337.228 100.169C337.013 99.8427 336.905 99.4488 336.905 98.9871C336.905 98.5809 336.985 98.2516 337.145 97.9992C337.305 97.7437 337.519 97.5437 337.787 97.399C338.055 97.2544 338.35 97.1467 338.673 97.0759C338.999 97.002 339.327 96.9436 339.656 96.9005C340.087 96.8451 340.437 96.8035 340.704 96.7758C340.975 96.745 341.172 96.6943 341.295 96.6235C341.421 96.5527 341.485 96.4296 341.485 96.2542V96.2172C341.485 95.7617 341.36 95.4078 341.111 95.1554C340.864 94.9031 340.49 94.7769 339.989 94.7769C339.469 94.7769 339.061 94.8908 338.765 95.1185C338.47 95.3463 338.262 95.5894 338.142 95.8479L337.108 95.4786C337.293 95.0477 337.539 94.7123 337.847 94.4722C338.158 94.2291 338.496 94.0598 338.862 93.9644C339.232 93.8659 339.595 93.8167 339.952 93.8167C340.18 93.8167 340.441 93.8444 340.737 93.8998C341.035 93.9521 341.323 94.0613 341.6 94.2275C341.88 94.3937 342.112 94.6445 342.297 94.98C342.482 95.3155 342.574 95.7648 342.574 96.328V101H341.485V100.04H341.429C341.355 100.194 341.232 100.358 341.06 100.534C340.887 100.709 340.658 100.858 340.372 100.981C340.086 101.105 339.736 101.166 339.324 101.166ZM339.49 100.187C339.921 100.187 340.284 100.103 340.58 99.9335C340.878 99.7642 341.103 99.5457 341.254 99.278C341.408 99.0102 341.485 98.7286 341.485 98.4331V97.436C341.438 97.4914 341.337 97.5422 341.18 97.5883C341.026 97.6314 340.847 97.6699 340.644 97.7037C340.444 97.7345 340.249 97.7622 340.058 97.7868C339.87 97.8084 339.718 97.8268 339.601 97.8422C339.318 97.8792 339.053 97.9392 338.807 98.0223C338.564 98.1023 338.367 98.2239 338.216 98.387C338.068 98.547 337.994 98.7655 337.994 99.0425C337.994 99.4211 338.135 99.7073 338.415 99.9012C338.698 100.092 339.056 100.187 339.49 100.187ZM344.563 103.659V93.909H345.615V95.0354H345.744C345.824 94.9123 345.935 94.7553 346.077 94.5645C346.221 94.3706 346.428 94.1983 346.695 94.0475C346.966 93.8936 347.332 93.8167 347.794 93.8167C348.391 93.8167 348.917 93.9659 349.373 94.2645C349.828 94.563 350.184 94.9862 350.439 95.534C350.695 96.0818 350.823 96.7281 350.823 97.4729C350.823 98.2239 350.695 98.8748 350.439 99.4257C350.184 99.9735 349.83 100.398 349.378 100.7C348.925 100.998 348.403 101.148 347.813 101.148C347.357 101.148 346.992 101.072 346.718 100.921C346.445 100.768 346.234 100.594 346.086 100.4C345.938 100.203 345.824 100.04 345.744 99.9104H345.652V103.659H344.563ZM345.634 97.4544C345.634 97.99 345.712 98.4624 345.869 98.8717C346.026 99.278 346.255 99.5965 346.557 99.8273C346.859 100.055 347.228 100.169 347.665 100.169C348.12 100.169 348.5 100.049 348.805 99.8088C349.113 99.5657 349.344 99.2395 349.498 98.8302C349.655 98.4178 349.733 97.9592 349.733 97.4544C349.733 96.9559 349.656 96.5065 349.502 96.1064C349.351 95.7033 349.122 95.3847 348.814 95.1508C348.51 94.9138 348.127 94.7954 347.665 94.7954C347.222 94.7954 346.849 94.9077 346.548 95.1324C346.246 95.3539 346.018 95.6648 345.864 96.0649C345.711 96.4619 345.634 96.9251 345.634 97.4544ZM352.484 103.659V93.909H353.537V95.0354H353.666C353.746 94.9123 353.857 94.7553 353.999 94.5645C354.143 94.3706 354.35 94.1983 354.617 94.0475C354.888 93.8936 355.254 93.8167 355.716 93.8167C356.313 93.8167 356.839 93.9659 357.295 94.2645C357.75 94.563 358.106 94.9862 358.361 95.534C358.617 96.0818 358.744 96.7281 358.744 97.4729C358.744 98.2239 358.617 98.8748 358.361 99.4257C358.106 99.9735 357.752 100.398 357.299 100.7C356.847 100.998 356.325 101.148 355.734 101.148C355.279 101.148 354.914 101.072 354.64 100.921C354.366 100.768 354.156 100.594 354.008 100.4C353.86 100.203 353.746 100.04 353.666 99.9104H353.574V103.659H352.484ZM353.555 97.4544C353.555 97.99 353.634 98.4624 353.791 98.8717C353.948 99.278 354.177 99.5965 354.479 99.8273C354.78 100.055 355.15 100.169 355.587 100.169C356.042 100.169 356.422 100.049 356.727 99.8088C357.035 99.5657 357.266 99.2395 357.419 98.8302C357.576 98.4178 357.655 97.9592 357.655 97.4544C357.655 96.9559 357.578 96.5065 357.424 96.1064C357.273 95.7033 357.044 95.3847 356.736 95.1508C356.432 94.9138 356.048 94.7954 355.587 94.7954C355.144 94.7954 354.771 94.9077 354.47 95.1324C354.168 95.3539 353.94 95.6648 353.786 96.0649C353.632 96.4619 353.555 96.9251 353.555 97.4544ZM365.429 95.4971L364.45 95.774C364.389 95.6109 364.298 95.4524 364.178 95.2986C364.061 95.1416 363.901 95.0123 363.698 94.9108C363.495 94.8092 363.235 94.7584 362.918 94.7584C362.484 94.7584 362.122 94.8584 361.833 95.0585C361.547 95.2555 361.403 95.5063 361.403 95.811C361.403 96.0818 361.502 96.2957 361.699 96.4527C361.896 96.6096 362.204 96.7404 362.622 96.8451L363.675 97.1036C364.309 97.2575 364.781 97.4929 365.092 97.8099C365.403 98.1238 365.558 98.5285 365.558 99.024C365.558 99.4303 365.441 99.7935 365.207 100.114C364.977 100.434 364.653 100.686 364.238 100.871C363.823 101.055 363.339 101.148 362.788 101.148C362.065 101.148 361.467 100.991 360.993 100.677C360.519 100.363 360.219 99.9043 360.092 99.301L361.127 99.0425C361.225 99.4241 361.411 99.7104 361.685 99.9012C361.962 100.092 362.324 100.187 362.77 100.187C363.278 100.187 363.681 100.08 363.979 99.8642C364.281 99.6457 364.432 99.3841 364.432 99.0794C364.432 98.8332 364.346 98.627 364.173 98.4608C364.001 98.2916 363.736 98.1654 363.379 98.0823L362.198 97.8053C361.548 97.6514 361.071 97.4129 360.766 97.0897C360.465 96.7635 360.314 96.3557 360.314 95.8664C360.314 95.4663 360.426 95.1124 360.651 94.8046C360.879 94.4968 361.188 94.2552 361.579 94.0798C361.973 93.9044 362.419 93.8167 362.918 93.8167C363.619 93.8167 364.17 93.9705 364.57 94.2783C364.974 94.5861 365.26 94.9923 365.429 95.4971Z" fill="#888888"/>
<path d="M239.804 71.0117H238.391C238.308 70.6052 238.161 70.2481 237.952 69.9404C237.747 69.6327 237.496 69.3744 237.2 69.1654C236.908 68.9527 236.583 68.7931 236.226 68.6868C235.869 68.5804 235.496 68.5272 235.109 68.5272C234.402 68.5272 233.762 68.7057 233.188 69.0629C232.619 69.42 232.165 69.9461 231.826 70.6413C231.492 71.3365 231.325 72.1894 231.325 73.2C231.325 74.2105 231.492 75.0634 231.826 75.7586C232.165 76.4538 232.619 76.9799 233.188 77.3371C233.762 77.6942 234.402 77.8727 235.109 77.8727C235.496 77.8727 235.869 77.8195 236.226 77.7132C236.583 77.6068 236.908 77.4491 237.2 77.2402C237.496 77.0274 237.747 76.7672 237.952 76.4595C238.161 76.148 238.308 75.7909 238.391 75.3882H239.804C239.698 75.9846 239.504 76.5184 239.223 76.9894C238.942 77.4605 238.592 77.8613 238.175 78.1918C237.757 78.5185 237.287 78.7674 236.767 78.9383C236.25 79.1093 235.698 79.1948 235.109 79.1948C234.113 79.1948 233.228 78.9516 232.453 78.4654C231.678 77.9791 231.069 77.2877 230.624 76.3911C230.18 75.4945 229.957 74.4308 229.957 73.2C229.957 71.9691 230.18 70.9054 230.624 70.0088C231.069 69.1122 231.678 68.4208 232.453 67.9346C233.228 67.4483 234.113 67.2051 235.109 67.2051C235.698 67.2051 236.25 67.2906 236.767 67.4616C237.287 67.6325 237.757 67.8833 238.175 68.2138C238.592 68.5405 238.942 68.9394 239.223 69.4105C239.504 69.8777 239.698 70.4115 239.804 71.0117ZM245.461 79.2176C244.671 79.2176 243.978 79.0295 243.382 78.6534C242.789 78.2773 242.325 77.7511 241.991 77.0749C241.661 76.3987 241.495 75.6085 241.495 74.7044C241.495 73.7926 241.661 72.9967 241.991 72.3167C242.325 71.6367 242.789 71.1086 243.382 70.7325C243.978 70.3564 244.671 70.1684 245.461 70.1684C246.252 70.1684 246.943 70.3564 247.536 70.7325C248.132 71.1086 248.596 71.6367 248.926 72.3167C249.26 72.9967 249.428 73.7926 249.428 74.7044C249.428 75.6085 249.26 76.3987 248.926 77.0749C248.596 77.7511 248.132 78.2773 247.536 78.6534C246.943 79.0295 246.252 79.2176 245.461 79.2176ZM245.461 78.0095C246.062 78.0095 246.556 77.8556 246.943 77.5479C247.331 77.2402 247.617 76.8356 247.804 76.3341C247.99 75.8327 248.083 75.2894 248.083 74.7044C248.083 74.1193 247.99 73.5742 247.804 73.0689C247.617 72.5636 247.331 72.1552 246.943 71.8437C246.556 71.5322 246.062 71.3764 245.461 71.3764C244.861 71.3764 244.367 71.5322 243.98 71.8437C243.592 72.1552 243.306 72.5636 243.119 73.0689C242.933 73.5742 242.84 74.1193 242.84 74.7044C242.84 75.2894 242.933 75.8327 243.119 76.3341C243.306 76.8356 243.592 77.2402 243.98 77.5479C244.367 77.8556 244.861 78.0095 245.461 78.0095ZM251.481 79.0352V70.2823H252.78V71.65H252.894C253.076 71.1827 253.371 70.8199 253.777 70.5616C254.183 70.2994 254.672 70.1684 255.242 70.1684C255.819 70.1684 256.3 70.2994 256.683 70.5616C257.071 70.8199 257.373 71.1827 257.589 71.65H257.68C257.905 71.1979 258.241 70.8389 258.689 70.573C259.137 70.3032 259.675 70.1684 260.302 70.1684C261.084 70.1684 261.724 70.4134 262.222 70.9035C262.72 71.3897 262.969 72.1476 262.969 73.1772V79.0352H261.624V73.1772C261.624 72.5313 261.447 72.0698 261.094 71.7924C260.741 71.5151 260.325 71.3764 259.846 71.3764C259.23 71.3764 258.754 71.5626 258.416 71.9349C258.077 72.3034 257.908 72.7707 257.908 73.3367V79.0352H256.541V73.0404C256.541 72.5427 256.379 72.1419 256.056 71.838C255.733 71.5303 255.317 71.3764 254.808 71.3764C254.459 71.3764 254.132 71.4695 253.828 71.6557C253.528 71.8418 253.285 72.1001 253.099 72.4307C252.917 72.7574 252.825 73.1354 252.825 73.5647V79.0352H251.481ZM265.428 82.3175V70.2823H266.727V71.6728H266.886C266.985 71.5208 267.122 71.3271 267.297 71.0915C267.475 70.8522 267.73 70.6394 268.06 70.4533C268.395 70.2633 268.847 70.1684 269.416 70.1684C270.153 70.1684 270.803 70.3526 271.365 70.7211C271.928 71.0896 272.366 71.612 272.682 72.2882C272.997 72.9644 273.155 73.7622 273.155 74.6816C273.155 75.6085 272.997 76.412 272.682 77.092C272.366 77.7682 271.93 78.2925 271.371 78.6648C270.813 79.0333 270.169 79.2176 269.439 79.2176C268.877 79.2176 268.427 79.1245 268.089 78.9383C267.751 78.7484 267.49 78.5337 267.308 78.2944C267.126 78.0513 266.985 77.8499 266.886 77.6904H266.772V82.3175H265.428ZM266.75 74.6588C266.75 75.3198 266.846 75.9029 267.04 76.4082C267.234 76.9097 267.517 77.3029 267.889 77.5878C268.262 77.8689 268.717 78.0095 269.257 78.0095C269.819 78.0095 270.288 77.8613 270.664 77.565C271.044 77.2649 271.329 76.8622 271.519 76.3569C271.713 75.8478 271.81 75.2818 271.81 74.6588C271.81 74.0433 271.715 73.4887 271.525 72.9948C271.339 72.4971 271.056 72.1039 270.676 71.8152C270.3 71.5227 269.827 71.3764 269.257 71.3764C268.71 71.3764 268.25 71.5151 267.878 71.7924C267.506 72.066 267.224 72.4497 267.035 72.9435C266.845 73.4336 266.75 74.0053 266.75 74.6588ZM277.782 79.2403C277.227 79.2403 276.724 79.1359 276.272 78.9269C275.82 78.7142 275.461 78.4084 275.195 78.0095C274.929 77.6068 274.796 77.1205 274.796 76.5507C274.796 76.0492 274.895 75.6427 275.092 75.3312C275.29 75.0159 275.554 74.7689 275.884 74.5904C276.215 74.4118 276.579 74.2789 276.978 74.1915C277.381 74.1003 277.786 74.0281 278.192 73.9749C278.724 73.9066 279.155 73.8553 279.486 73.8211C279.82 73.7831 280.063 73.7204 280.215 73.633C280.371 73.5457 280.449 73.3937 280.449 73.1772V73.1316C280.449 72.5693 280.295 72.1324 279.987 71.8209C279.683 71.5094 279.222 71.3536 278.602 71.3536C277.96 71.3536 277.457 71.4942 277.092 71.7753C276.728 72.0565 276.471 72.3566 276.323 72.6757L275.047 72.2198C275.275 71.688 275.578 71.2739 275.958 70.9775C276.342 70.6774 276.76 70.4685 277.212 70.3507C277.668 70.2291 278.116 70.1684 278.557 70.1684C278.838 70.1684 279.161 70.2026 279.526 70.2709C279.894 70.3355 280.249 70.4704 280.591 70.6755C280.937 70.8807 281.224 71.1903 281.452 71.6044C281.68 72.0185 281.794 72.5731 281.794 73.2683V79.0352H280.449V77.8499H280.38C280.289 78.0399 280.137 78.2431 279.924 78.4597C279.712 78.6762 279.429 78.8604 279.075 79.0124C278.722 79.1644 278.291 79.2403 277.782 79.2403ZM277.987 78.0323C278.519 78.0323 278.967 77.9278 279.332 77.7189C279.7 77.5099 279.978 77.2402 280.164 76.9097C280.354 76.5792 280.449 76.2315 280.449 75.8668V74.636C280.392 74.7044 280.266 74.767 280.073 74.824C279.883 74.8772 279.662 74.9247 279.412 74.9665C279.165 75.0045 278.923 75.0387 278.688 75.0691C278.456 75.0956 278.268 75.1184 278.124 75.1374C277.774 75.183 277.448 75.2571 277.144 75.3597C276.844 75.4585 276.6 75.6085 276.414 75.8099C276.232 76.0074 276.141 76.2771 276.141 76.619C276.141 77.0863 276.314 77.4396 276.659 77.679C277.009 77.9145 277.451 78.0323 277.987 78.0323ZM285.593 73.7698V79.0352H284.248V70.2823H285.547V71.65H285.661C285.867 71.2055 286.178 70.8484 286.596 70.5787C287.014 70.3051 287.553 70.1684 288.214 70.1684C288.807 70.1684 289.326 70.2899 289.77 70.5331C290.215 70.7724 290.56 71.1371 290.807 71.6272C291.054 72.1134 291.178 72.7289 291.178 73.4735V79.0352H289.833V73.5647C289.833 72.877 289.654 72.3414 289.297 71.9577C288.94 71.5702 288.45 71.3764 287.827 71.3764C287.398 71.3764 287.014 71.4695 286.676 71.6557C286.341 71.8418 286.077 72.1134 285.884 72.4705C285.69 72.8277 285.593 73.2607 285.593 73.7698ZM293.635 79.0352V70.2823H294.98V79.0352H293.635ZM294.319 68.8235C294.057 68.8235 293.831 68.7342 293.641 68.5557C293.455 68.3771 293.362 68.1625 293.362 67.9118C293.362 67.661 293.455 67.4464 293.641 67.2678C293.831 67.0893 294.057 67 294.319 67C294.581 67 294.805 67.0893 294.991 67.2678C295.181 67.4464 295.276 67.661 295.276 67.9118C295.276 68.1625 295.181 68.3771 294.991 68.5557C294.805 68.7342 294.581 68.8235 294.319 68.8235ZM301.113 79.2176C300.27 79.2176 299.542 79.0314 298.93 78.6591C298.323 78.283 297.853 77.7587 297.523 77.0863C297.196 76.4101 297.033 75.6237 297.033 74.7271C297.033 73.8306 297.196 73.0404 297.523 72.3566C297.853 71.669 298.313 71.1333 298.902 70.7496C299.495 70.3621 300.186 70.1684 300.976 70.1684C301.432 70.1684 301.882 70.2443 302.327 70.3963C302.771 70.5483 303.176 70.7952 303.54 71.1371C303.905 71.4752 304.196 71.9235 304.412 72.4819C304.629 73.0404 304.737 73.728 304.737 74.5448V75.1146H297.99V73.9522H303.369C303.369 73.4583 303.271 73.0176 303.073 72.6301C302.879 72.2426 302.602 71.9368 302.241 71.7126C301.884 71.4885 301.462 71.3764 300.976 71.3764C300.44 71.3764 299.977 71.5094 299.586 71.7753C299.198 72.0375 298.9 72.3794 298.691 72.8011C298.482 73.2227 298.378 73.6748 298.378 74.1573V74.9323C298.378 75.5933 298.492 76.1537 298.72 76.6133C298.951 77.0692 299.272 77.4168 299.683 77.6562C300.093 77.8917 300.57 78.0095 301.113 78.0095C301.466 78.0095 301.785 77.9601 302.07 77.8613C302.359 77.7587 302.608 77.6068 302.817 77.4054C303.026 77.2003 303.187 76.9458 303.301 76.6418L304.6 77.0065C304.464 77.4472 304.234 77.8347 303.911 78.169C303.588 78.4995 303.189 78.7579 302.714 78.944C302.239 79.1264 301.706 79.2176 301.113 79.2176ZM312.983 72.2426L311.775 72.5845C311.699 72.3832 311.587 72.1875 311.439 71.9976C311.294 71.8038 311.097 71.6443 310.846 71.5189C310.595 71.3935 310.274 71.3309 309.883 71.3309C309.347 71.3309 308.901 71.4543 308.544 71.7013C308.19 71.9444 308.014 72.254 308.014 72.6301C308.014 72.9644 308.135 73.2284 308.378 73.4222C308.622 73.6159 309.001 73.7774 309.518 73.9066L310.817 74.2257C311.6 74.4156 312.183 74.7063 312.567 75.0975C312.951 75.485 313.142 75.9846 313.142 76.5962C313.142 77.0977 312.998 77.546 312.709 77.9411C312.424 78.3362 312.025 78.6477 311.513 78.8756C311 79.1036 310.403 79.2176 309.723 79.2176C308.831 79.2176 308.092 79.0238 307.507 78.6363C306.922 78.2488 306.551 77.6828 306.395 76.9382L307.672 76.619C307.793 77.0901 308.023 77.4434 308.361 77.679C308.703 77.9145 309.15 78.0323 309.7 78.0323C310.327 78.0323 310.825 77.8993 311.194 77.6334C311.566 77.3636 311.752 77.0407 311.752 76.6646C311.752 76.3607 311.646 76.1062 311.433 75.901C311.22 75.6921 310.893 75.5363 310.453 75.4338L308.994 75.0918C308.192 74.9019 307.603 74.6075 307.227 74.2086C306.855 73.8059 306.669 73.3025 306.669 72.6985C306.669 72.2046 306.808 71.7677 307.085 71.3878C307.366 71.0079 307.748 70.7097 308.23 70.4932C308.717 70.2766 309.267 70.1684 309.883 70.1684C310.749 70.1684 311.429 70.3583 311.923 70.7382C312.421 71.1181 312.774 71.6196 312.983 72.2426Z" fill="#262626"/>
<path d="M381.649 108.98H284.697C281.742 108.98 279.348 111.375 279.348 114.329V150.015C279.348 152.969 281.742 155.364 284.697 155.364H381.649C384.603 155.364 386.998 152.969 386.998 150.015V114.329C386.998 111.375 384.603 108.98 381.649 108.98Z" fill="#F2F1FF"/>
<path d="M319.703 133.571L310.559 138.006V135.899L317.307 132.828L317.238 132.945V132.648L317.307 132.772L310.559 129.695V127.594L319.703 132.029V133.571ZM332.983 139.906C331.896 139.901 330.966 139.614 330.195 139.045C329.424 138.476 328.834 137.647 328.425 136.56C328.017 135.472 327.812 134.161 327.812 132.628C327.812 131.099 328.017 129.793 328.425 128.71C328.838 127.627 329.43 126.8 330.202 126.231C330.977 125.662 331.905 125.377 332.983 125.377C334.062 125.377 334.987 125.664 335.758 126.238C336.53 126.807 337.119 127.633 337.528 128.717C337.941 129.796 338.148 131.099 338.148 132.628C338.148 134.166 337.943 135.479 337.535 136.566C337.126 137.65 336.536 138.478 335.765 139.052C334.994 139.621 334.067 139.906 332.983 139.906ZM332.983 138.068C333.938 138.068 334.684 137.602 335.221 136.67C335.763 135.738 336.034 134.391 336.034 132.628C336.034 131.457 335.91 130.468 335.662 129.66C335.419 128.848 335.068 128.232 334.608 127.815C334.154 127.392 333.612 127.181 332.983 127.181C332.033 127.181 331.287 127.649 330.746 128.586C330.204 129.522 329.931 130.87 329.926 132.628C329.926 133.803 330.048 134.797 330.291 135.609C330.539 136.417 330.89 137.03 331.345 137.448C331.799 137.861 332.345 138.068 332.983 138.068ZM350.074 141.435V123.807H351.203V141.435H350.074ZM353.606 129.275C353.533 128.623 353.23 128.118 352.697 127.76C352.165 127.397 351.494 127.216 350.686 127.216C350.108 127.216 349.608 127.308 349.185 127.491C348.763 127.67 348.435 127.918 348.201 128.235C347.971 128.547 347.856 128.903 347.856 129.302C347.856 129.637 347.935 129.926 348.091 130.17C348.251 130.413 348.46 130.617 348.717 130.782C348.979 130.943 349.259 131.079 349.557 131.189C349.856 131.294 350.143 131.382 350.418 131.45L351.795 131.808C352.245 131.919 352.706 132.068 353.179 132.256C353.652 132.444 354.09 132.692 354.494 133C354.898 133.307 355.224 133.688 355.472 134.143C355.725 134.597 355.851 135.141 355.851 135.775C355.851 136.573 355.644 137.283 355.231 137.902C354.822 138.522 354.228 139.011 353.448 139.369C352.672 139.727 351.733 139.906 350.631 139.906C349.576 139.906 348.662 139.738 347.891 139.403C347.12 139.068 346.516 138.593 346.08 137.978C345.644 137.358 345.403 136.624 345.357 135.775H347.492C347.533 136.284 347.698 136.709 347.987 137.048C348.281 137.384 348.655 137.634 349.11 137.799C349.569 137.96 350.071 138.04 350.618 138.04C351.219 138.04 351.754 137.946 352.222 137.758C352.695 137.565 353.067 137.299 353.337 136.959C353.608 136.615 353.744 136.213 353.744 135.754C353.744 135.336 353.624 134.994 353.386 134.728C353.152 134.462 352.833 134.241 352.429 134.067C352.029 133.893 351.577 133.739 351.072 133.606L349.406 133.151C348.277 132.844 347.381 132.391 346.72 131.795C346.064 131.198 345.736 130.408 345.736 129.426C345.736 128.613 345.956 127.904 346.397 127.298C346.837 126.692 347.434 126.222 348.187 125.887C348.94 125.547 349.789 125.377 350.735 125.377C351.69 125.377 352.532 125.545 353.262 125.88C353.996 126.215 354.575 126.676 354.997 127.264C355.419 127.847 355.64 128.517 355.658 129.275H353.606Z" fill="#5B55FD"/>
<path d="M265.647 108.98H168.697C165.742 108.98 163.348 111.375 163.348 114.329V150.015C163.348 152.969 165.742 155.364 168.697 155.364H265.647C268.601 155.364 270.996 152.969 270.996 150.015V114.329C270.996 111.375 268.601 108.98 265.647 108.98Z" fill="#F2F1FF"/>
<path d="M197.723 139.672V125.57H206.468V127.402H199.851V131.698H205.841V133.523H199.851V139.672H197.723ZM208.787 139.672V129.095H210.777V130.776H210.887C211.08 130.206 211.419 129.759 211.906 129.433C212.397 129.102 212.953 128.937 213.572 128.937C213.701 128.937 213.852 128.942 214.027 128.951C214.206 128.96 214.346 128.972 214.447 128.985V130.955C214.364 130.932 214.217 130.906 214.006 130.879C213.795 130.847 213.584 130.831 213.373 130.831C212.886 130.831 212.452 130.934 212.071 131.141C211.695 131.343 211.396 131.625 211.176 131.987C210.956 132.346 210.846 132.754 210.846 133.213V139.672H208.787ZM220.408 139.885C219.366 139.885 218.469 139.663 217.716 139.217C216.967 138.768 216.389 138.136 215.98 137.324C215.577 136.507 215.375 135.55 215.375 134.453C215.375 133.369 215.577 132.414 215.98 131.588C216.389 130.762 216.958 130.117 217.688 129.653C218.423 129.19 219.281 128.958 220.263 128.958C220.86 128.958 221.439 129.056 221.999 129.254C222.559 129.451 223.061 129.761 223.507 130.183C223.952 130.606 224.303 131.154 224.56 131.829C224.817 132.499 224.946 133.314 224.946 134.274V135.003H216.538V133.461H222.928C222.928 132.919 222.818 132.44 222.598 132.022C222.377 131.6 222.067 131.267 221.668 131.023C221.273 130.78 220.81 130.659 220.277 130.659C219.699 130.659 219.194 130.801 218.762 131.085C218.335 131.365 218.005 131.733 217.771 132.187C217.541 132.637 217.426 133.126 217.426 133.654V134.859C217.426 135.566 217.55 136.167 217.798 136.663C218.051 137.159 218.402 137.537 218.852 137.799C219.302 138.056 219.827 138.185 220.429 138.185C220.819 138.185 221.175 138.129 221.496 138.019C221.817 137.905 222.095 137.735 222.329 137.51C222.563 137.285 222.742 137.007 222.866 136.677L224.815 137.028C224.659 137.602 224.379 138.104 223.975 138.536C223.575 138.963 223.073 139.295 222.467 139.534C221.865 139.768 221.179 139.885 220.408 139.885ZM231.788 139.885C230.746 139.885 229.849 139.663 229.096 139.217C228.348 138.768 227.769 138.136 227.361 137.324C226.957 136.507 226.755 135.55 226.755 134.453C226.755 133.369 226.957 132.414 227.361 131.588C227.769 130.762 228.339 130.117 229.068 129.653C229.803 129.19 230.661 128.958 231.644 128.958C232.24 128.958 232.819 129.056 233.379 129.254C233.939 129.451 234.442 129.761 234.887 130.183C235.332 130.606 235.683 131.154 235.94 131.829C236.197 132.499 236.326 133.314 236.326 134.274V135.003H227.919V133.461H234.308C234.308 132.919 234.198 132.44 233.978 132.022C233.758 131.6 233.448 131.267 233.048 131.023C232.654 130.78 232.19 130.659 231.657 130.659C231.079 130.659 230.574 130.801 230.143 131.085C229.716 131.365 229.385 131.733 229.151 132.187C228.922 132.637 228.807 133.126 228.807 133.654V134.859C228.807 135.566 228.931 136.167 229.179 136.663C229.431 137.159 229.782 137.537 230.232 137.799C230.682 138.056 231.208 138.185 231.809 138.185C232.199 138.185 232.555 138.129 232.876 138.019C233.198 137.905 233.475 137.735 233.709 137.51C233.943 137.285 234.123 137.007 234.246 136.677L236.195 137.028C236.039 137.602 235.759 138.104 235.355 138.536C234.956 138.963 234.453 139.295 233.847 139.534C233.246 139.768 232.559 139.885 231.788 139.885Z" fill="#5B55FD"/>
<path d="M264.267 33V21.95H266.664L268.228 27.509L269.792 21.95H272.257V33H270.421V24.874L268.738 30.858H267.684L266.001 24.874V33H264.267ZM274.434 33V31.13H277.103V23.82H274.434V21.95H281.812V23.82H279.143V31.13H281.812V33H274.434ZM286.965 33V23.837H283.565V21.95H292.405V23.837H289.005V33H286.965ZM294.446 28.988V27.56H301.246V28.988H294.446ZM309.424 33.204C307.339 33.204 306.296 32.167 306.296 30.093V22.749H303.168V20.93H308.302V29.787C308.302 30.365 308.41 30.773 308.625 31.011C308.852 31.249 309.237 31.368 309.781 31.368C310.45 31.368 311.096 31.1753 311.719 30.79L312.229 32.49C311.413 32.966 310.478 33.204 309.424 33.204ZM316.566 33V26.71H313.438V24.908H318.572V31.198H321.7V33H316.566ZM317.399 23.446C317.013 23.446 316.69 23.3157 316.43 23.055C316.169 22.7943 316.039 22.4713 316.039 22.086C316.039 21.7007 316.169 21.3777 316.43 21.117C316.69 20.8563 317.013 20.726 317.399 20.726C317.784 20.726 318.107 20.8563 318.368 21.117C318.628 21.3777 318.759 21.7007 318.759 22.086C318.759 22.4713 318.628 22.7943 318.368 23.055C318.107 23.3157 317.784 23.446 317.399 23.446ZM328.11 33.204C327.226 33.204 326.455 33.034 325.798 32.694C325.152 32.3427 324.648 31.8497 324.285 31.215C323.934 30.5803 323.758 29.8267 323.758 28.954C323.758 28.0813 323.934 27.3277 324.285 26.693C324.648 26.0583 325.152 25.571 325.798 25.231C326.455 24.8797 327.226 24.704 328.11 24.704C329.164 24.704 330.127 24.9817 331 25.537L330.303 27.186C329.884 26.948 329.51 26.7837 329.181 26.693C328.864 26.591 328.524 26.54 328.161 26.54C327.39 26.54 326.801 26.744 326.393 27.152C325.996 27.56 325.798 28.1607 325.798 28.954C325.798 29.7473 325.996 30.348 326.393 30.756C326.801 31.164 327.39 31.368 328.161 31.368C328.558 31.368 328.932 31.3113 329.283 31.198C329.634 31.0847 330.042 30.8863 330.507 30.603L331.255 32.201C330.314 32.8697 329.266 33.204 328.11 33.204ZM337.75 33.204C336.345 33.204 335.24 32.8243 334.435 32.065C333.631 31.3057 333.228 30.2687 333.228 28.954C333.228 28.104 333.404 27.3617 333.755 26.727C334.107 26.0923 334.594 25.5993 335.217 25.248C335.841 24.8853 336.566 24.704 337.393 24.704C338.198 24.704 338.895 24.874 339.484 25.214C340.085 25.5427 340.55 26.0073 340.878 26.608C341.207 27.2087 341.371 27.9113 341.371 28.716C341.371 28.8633 341.366 29.0163 341.354 29.175C341.343 29.3223 341.32 29.481 341.286 29.651H335.268C335.382 30.2743 335.648 30.739 336.067 31.045C336.487 31.351 337.053 31.504 337.767 31.504C338.617 31.504 339.45 31.2433 340.266 30.722L341.014 32.201C340.493 32.5523 339.972 32.8073 339.45 32.966C338.929 33.1247 338.362 33.204 337.75 33.204ZM335.285 28.138H339.399C339.309 27.5713 339.088 27.1407 338.736 26.846C338.396 26.5513 337.943 26.404 337.376 26.404C336.821 26.404 336.362 26.5513 335.999 26.846C335.648 27.1407 335.41 27.5713 335.285 28.138ZM343.6 33V24.908H345.079L345.249 25.605C345.679 25.2877 346.104 25.061 346.524 24.925C346.954 24.7777 347.408 24.704 347.884 24.704C348.836 24.704 349.567 24.976 350.077 25.52C350.587 26.0527 350.842 26.8177 350.842 27.815V33H348.836V28.121C348.836 27.543 348.722 27.135 348.496 26.897C348.28 26.659 347.901 26.54 347.357 26.54C347.039 26.54 346.739 26.5797 346.456 26.659C346.184 26.727 345.9 26.8403 345.606 26.999V33H343.6ZM356.946 33.204C355.427 33.204 354.13 32.8697 353.053 32.201L353.784 30.637C354.226 30.9203 354.719 31.1357 355.263 31.283C355.818 31.4303 356.396 31.504 356.997 31.504C358.164 31.504 358.748 31.2263 358.748 30.671C358.748 30.4443 358.686 30.28 358.561 30.178C358.436 30.076 358.21 30.008 357.881 29.974L356.011 29.753C355.15 29.651 354.509 29.413 354.09 29.039C353.682 28.6537 353.478 28.104 353.478 27.39C353.478 26.5287 353.784 25.8657 354.396 25.401C355.008 24.9363 355.898 24.704 357.065 24.704C358.334 24.704 359.496 24.976 360.55 25.52L359.904 27.118C359.077 26.642 358.119 26.404 357.031 26.404C356 26.404 355.484 26.676 355.484 27.22C355.484 27.4353 355.546 27.594 355.671 27.696C355.807 27.798 356.034 27.866 356.351 27.9L358.221 28.121C359.082 28.223 359.717 28.4667 360.125 28.852C360.544 29.226 360.754 29.7757 360.754 30.501C360.754 31.3623 360.425 32.031 359.768 32.507C359.122 32.9717 358.181 33.204 356.946 33.204ZM367.334 33.204C365.929 33.204 364.824 32.8243 364.019 32.065C363.215 31.3057 362.812 30.2687 362.812 28.954C362.812 28.104 362.988 27.3617 363.339 26.727C363.691 26.0923 364.178 25.5993 364.801 25.248C365.425 24.8853 366.15 24.704 366.977 24.704C367.782 24.704 368.479 24.874 369.068 25.214C369.669 25.5427 370.134 26.0073 370.462 26.608C370.791 27.2087 370.955 27.9113 370.955 28.716C370.955 28.8633 370.95 29.0163 370.938 29.175C370.927 29.3223 370.904 29.481 370.87 29.651H364.852C364.966 30.2743 365.232 30.739 365.651 31.045C366.071 31.351 366.637 31.504 367.351 31.504C368.201 31.504 369.034 31.2433 369.85 30.722L370.598 32.201C370.077 32.5523 369.556 32.8073 369.034 32.966C368.513 33.1247 367.946 33.204 367.334 33.204ZM364.869 28.138H368.983C368.893 27.5713 368.672 27.1407 368.32 26.846C367.98 26.5513 367.527 26.404 366.96 26.404C366.405 26.404 365.946 26.5513 365.583 26.846C365.232 27.1407 364.994 27.5713 364.869 28.138ZM376.159 33.204C375.093 33.204 374.243 32.8243 373.609 32.065C372.985 31.2943 372.674 30.2573 372.674 28.954C372.674 27.6507 372.985 26.6193 373.609 25.86C374.243 25.0893 375.093 24.704 376.159 24.704C376.533 24.704 376.901 24.7607 377.264 24.874C377.638 24.976 378.006 25.1403 378.369 25.367V20.93H380.375V33H378.896L378.726 32.32C377.887 32.9093 377.031 33.204 376.159 33.204ZM376.669 31.368C376.952 31.368 377.235 31.3283 377.519 31.249C377.802 31.1697 378.085 31.0563 378.369 30.909V26.999C378.085 26.8403 377.802 26.727 377.519 26.659C377.235 26.5797 376.952 26.54 376.669 26.54C376.011 26.54 375.518 26.744 375.19 27.152C374.861 27.5487 374.697 28.1493 374.697 28.954C374.697 29.7587 374.861 30.365 375.19 30.773C375.518 31.1697 376.011 31.368 376.669 31.368Z" fill="black"/>
<path d="M66.4907 33V31.657L71.5397 23.82H66.7457V21.95H74.2597V23.293L69.2107 31.13H74.2597V33H66.4907ZM80.721 33.204C79.3157 33.204 78.2107 32.8243 77.406 32.065C76.6014 31.3057 76.199 30.2687 76.199 28.954C76.199 28.104 76.3747 27.3617 76.726 26.727C77.0774 26.0923 77.5647 25.5993 78.188 25.248C78.8114 24.8853 79.5367 24.704 80.364 24.704C81.1687 24.704 81.8657 24.874 82.455 25.214C83.0557 25.5427 83.5204 26.0073 83.849 26.608C84.1777 27.2087 84.342 27.9113 84.342 28.716C84.342 28.8633 84.3364 29.0163 84.325 29.175C84.3137 29.3223 84.291 29.481 84.257 29.651H78.239C78.3524 30.2743 78.6187 30.739 79.038 31.045C79.4574 31.351 80.024 31.504 80.738 31.504C81.588 31.504 82.421 31.2433 83.237 30.722L83.985 32.201C83.4637 32.5523 82.9424 32.8073 82.421 32.966C81.8997 33.1247 81.333 33.204 80.721 33.204ZM78.256 28.138H82.37C82.2794 27.5713 82.0584 27.1407 81.707 26.846C81.367 26.5513 80.9137 26.404 80.347 26.404C79.7917 26.404 79.3327 26.5513 78.97 26.846C78.6187 27.1407 78.3807 27.5713 78.256 28.138ZM87.0464 33V24.908H88.6104L88.8144 26.03C89.2337 25.5653 89.687 25.231 90.1744 25.027C90.6617 24.8117 91.2114 24.704 91.8234 24.704C92.6507 24.704 93.3647 24.9193 93.9654 25.35L93.2174 27.084C92.968 26.9027 92.713 26.7723 92.4524 26.693C92.203 26.6023 91.931 26.557 91.6364 26.557C90.673 26.557 89.8117 27.0217 89.0524 27.951V33H87.0464ZM99.9847 33.204C99.1687 33.204 98.449 33.0283 97.8257 32.677C97.2024 32.3143 96.715 31.8157 96.3637 31.181C96.0124 30.535 95.8367 29.7927 95.8367 28.954C95.8367 28.104 96.0124 27.3617 96.3637 26.727C96.715 26.0923 97.2024 25.5993 97.8257 25.248C98.449 24.8853 99.1687 24.704 99.9847 24.704C100.801 24.704 101.52 24.8853 102.144 25.248C102.767 25.5993 103.254 26.0923 103.606 26.727C103.957 27.3617 104.133 28.104 104.133 28.954C104.133 29.7927 103.957 30.535 103.606 31.181C103.254 31.8157 102.767 32.3143 102.144 32.677C101.52 33.0283 100.801 33.204 99.9847 33.204ZM99.9847 31.368C100.642 31.368 101.158 31.1583 101.532 30.739C101.906 30.3083 102.093 29.7133 102.093 28.954C102.093 28.1947 101.906 27.6053 101.532 27.186C101.158 26.7553 100.642 26.54 99.9847 26.54C99.3274 26.54 98.8117 26.7553 98.4377 27.186C98.0637 27.6053 97.8767 28.1947 97.8767 28.954C97.8767 29.7133 98.0637 30.3083 98.4377 30.739C98.8117 31.1583 99.3274 31.368 99.9847 31.368ZM106.446 28.988V27.56H113.246V28.988H106.446ZM118.704 33V26.71H115.576V24.908H120.71V31.198H123.838V33H118.704ZM119.537 23.446C119.152 23.446 118.829 23.3157 118.568 23.055C118.308 22.7943 118.177 22.4713 118.177 22.086C118.177 21.7007 118.308 21.3777 118.568 21.117C118.829 20.8563 119.152 20.726 119.537 20.726C119.923 20.726 120.246 20.8563 120.506 21.117C120.767 21.3777 120.897 21.7007 120.897 22.086C120.897 22.4713 120.767 22.7943 120.506 23.055C120.246 23.3157 119.923 23.446 119.537 23.446ZM126.016 33V24.908H127.495L127.665 25.605C128.095 25.2877 128.52 25.061 128.94 24.925C129.37 24.7777 129.824 24.704 130.3 24.704C131.252 24.704 131.983 24.976 132.493 25.52C133.003 26.0527 133.258 26.8177 133.258 27.815V33H131.252V28.121C131.252 27.543 131.138 27.135 130.912 26.897C130.696 26.659 130.317 26.54 129.773 26.54C129.455 26.54 129.155 26.5797 128.872 26.659C128.6 26.727 128.316 26.8403 128.022 26.999V33H126.016ZM138.41 33L135.231 24.908H137.373L139.498 30.501L141.623 24.908H143.629L140.45 33H138.41ZM149.75 33.204C148.345 33.204 147.24 32.8243 146.435 32.065C145.631 31.3057 145.228 30.2687 145.228 28.954C145.228 28.104 145.404 27.3617 145.755 26.727C146.107 26.0923 146.594 25.5993 147.217 25.248C147.841 24.8853 148.566 24.704 149.393 24.704C150.198 24.704 150.895 24.874 151.484 25.214C152.085 25.5427 152.55 26.0073 152.878 26.608C153.207 27.2087 153.371 27.9113 153.371 28.716C153.371 28.8633 153.366 29.0163 153.354 29.175C153.343 29.3223 153.32 29.481 153.286 29.651H147.268C147.382 30.2743 147.648 30.739 148.067 31.045C148.487 31.351 149.053 31.504 149.767 31.504C150.617 31.504 151.45 31.2433 152.266 30.722L153.014 32.201C152.493 32.5523 151.972 32.8073 151.45 32.966C150.929 33.1247 150.362 33.204 149.75 33.204ZM147.285 28.138H151.399C151.309 27.5713 151.088 27.1407 150.736 26.846C150.396 26.5513 149.943 26.404 149.376 26.404C148.821 26.404 148.362 26.5513 147.999 26.846C147.648 27.1407 147.41 27.5713 147.285 28.138ZM159.085 33.204C157.566 33.204 156.268 32.8697 155.192 32.201L155.923 30.637C156.365 30.9203 156.858 31.1357 157.402 31.283C157.957 31.4303 158.535 31.504 159.136 31.504C160.303 31.504 160.887 31.2263 160.887 30.671C160.887 30.4443 160.824 30.28 160.7 30.178C160.575 30.076 160.348 30.008 160.02 29.974L158.15 29.753C157.288 29.651 156.648 29.413 156.229 29.039C155.821 28.6537 155.617 28.104 155.617 27.39C155.617 26.5287 155.923 25.8657 156.535 25.401C157.147 24.9363 158.036 24.704 159.204 24.704C160.473 24.704 161.635 24.976 162.689 25.52L162.043 27.118C161.215 26.642 160.258 26.404 159.17 26.404C158.138 26.404 157.623 26.676 157.623 27.22C157.623 27.4353 157.685 27.594 157.81 27.696C157.946 27.798 158.172 27.866 158.49 27.9L160.36 28.121C161.221 28.223 161.856 28.4667 162.264 28.852C162.683 29.226 162.893 29.7757 162.893 30.501C162.893 31.3623 162.564 32.031 161.907 32.507C161.261 32.9717 160.32 33.204 159.085 33.204ZM170.374 33.204C168.289 33.204 167.246 32.167 167.246 30.093V26.71H164.883V24.908H167.246V22.613L169.252 21.746V24.908H172.312V26.71H169.252V29.787C169.252 30.365 169.36 30.773 169.575 31.011C169.802 31.249 170.187 31.368 170.731 31.368C171.4 31.368 172.046 31.1753 172.669 30.79L173.179 32.49C172.363 32.966 171.428 33.204 170.374 33.204ZM178.875 33.204C178.059 33.204 177.34 33.0283 176.716 32.677C176.093 32.3143 175.606 31.8157 175.254 31.181C174.903 30.535 174.727 29.7927 174.727 28.954C174.727 28.104 174.903 27.3617 175.254 26.727C175.606 26.0923 176.093 25.5993 176.716 25.248C177.34 24.8853 178.059 24.704 178.875 24.704C179.691 24.704 180.411 24.8853 181.034 25.248C181.658 25.5993 182.145 26.0923 182.496 26.727C182.848 27.3617 183.023 28.104 183.023 28.954C183.023 29.7927 182.848 30.535 182.496 31.181C182.145 31.8157 181.658 32.3143 181.034 32.677C180.411 33.0283 179.691 33.204 178.875 33.204ZM178.875 31.368C179.533 31.368 180.048 31.1583 180.422 30.739C180.796 30.3083 180.983 29.7133 180.983 28.954C180.983 28.1947 180.796 27.6053 180.422 27.186C180.048 26.7553 179.533 26.54 178.875 26.54C178.218 26.54 177.702 26.7553 177.328 27.186C176.954 27.6053 176.767 28.1947 176.767 28.954C176.767 29.7133 176.954 30.3083 177.328 30.739C177.702 31.1583 178.218 31.368 178.875 31.368ZM185.66 33V24.908H187.224L187.428 26.03C187.847 25.5653 188.3 25.231 188.788 25.027C189.275 24.8117 189.825 24.704 190.437 24.704C191.264 24.704 191.978 24.9193 192.579 25.35L191.831 27.084C191.581 26.9027 191.326 26.7723 191.066 26.693C190.816 26.6023 190.544 26.557 190.25 26.557C189.286 26.557 188.425 27.0217 187.666 27.951V33H185.66ZM198.53 33.204C197.011 33.204 195.714 32.8697 194.637 32.201L195.368 30.637C195.81 30.9203 196.303 31.1357 196.847 31.283C197.402 31.4303 197.98 31.504 198.581 31.504C199.748 31.504 200.332 31.2263 200.332 30.671C200.332 30.4443 200.27 30.28 200.145 30.178C200.02 30.076 199.794 30.008 199.465 29.974L197.595 29.753C196.734 29.651 196.093 29.413 195.674 29.039C195.266 28.6537 195.062 28.104 195.062 27.39C195.062 26.5287 195.368 25.8657 195.98 25.401C196.592 24.9363 197.482 24.704 198.649 24.704C199.918 24.704 201.08 24.976 202.134 25.52L201.488 27.118C200.661 26.642 199.703 26.404 198.615 26.404C197.584 26.404 197.068 26.676 197.068 27.22C197.068 27.4353 197.13 27.594 197.255 27.696C197.391 27.798 197.618 27.866 197.935 27.9L199.805 28.121C200.666 28.223 201.301 28.4667 201.709 28.852C202.128 29.226 202.338 29.7757 202.338 30.501C202.338 31.3623 202.009 32.031 201.352 32.507C200.706 32.9717 199.765 33.204 198.53 33.204Z" fill="black"/>
<path d="M245.876 31.1939C247.521 30.586 248.38 29.4154 248.38 27.4006C248.38 25.3858 246.673 23.6104 244.541 23.6069C242.29 23.6033 240.593 25.3785 240.62 27.4006C240.647 29.4227 241.617 30.768 243.168 31.2544L240.42 37.9812C236.741 37.0337 233 32.7165 233 27.4006C233 21.1043 238.085 16 244.459 16C250.833 16 256 21.1043 256 27.4006C256 32.7992 252.294 37.0563 248.537 38L245.876 31.1939Z" fill="#3DA638" stroke="#1C511C" stroke-width="1.5" stroke-linecap="round" stroke-linejoin="round"/>
<path d="M45.499 15C47.9713 14.9998 50.3882 15.7328 52.4439 17.1062C54.4997 18.4796 56.102 20.4317 57.0482 22.7158C57.9945 24.9998 58.2421 27.5132 57.7599 29.938C57.2777 32.3629 56.0873 34.5902 54.3392 36.3385C52.5911 38.0867 50.3638 39.2773 47.939 39.7597C45.5142 40.2421 43.0008 39.9946 40.7167 39.0486C38.4325 38.1025 36.4803 36.5004 35.1067 34.4447C33.7331 32.3891 33 29.9723 33 27.5C33 24.185 34.3168 21.0057 36.6608 18.6615C39.0048 16.3173 42.184 15.0003 45.499 15Z" stroke="#088738" stroke-opacity="0.79" stroke-width="2"/>
<path d="M53.3174 21.6586C43.5199 21.6261 37.281 23.5485 37.7038 31.4171C39.5449 28.6132 41.7764 26.2126 44.782 24.6772C42.0589 26.9707 39.8715 29.8333 38.3739 33.063C42.3424 33.8795 44.7332 32.8158 46.4865 31.0138C49.1278 28.3139 48.6268 24.3162 53.3174 21.6586Z" fill="#00AC40"/>
</g>
<defs>
<clipPath id="clip0_484_2">
<rect width="413" height="180" fill="white"/>
</clipPath>
</defs>
</svg>
