<svg width="120" height="118" viewBox="0 0 120 118" fill="none" xmlns="http://www.w3.org/2000/svg">
<path d="M41.3199 12.4466H18.1299V27.9201H41.3199V12.4466Z" fill="#D9B836"/>
<path d="M110.59 117.96C115.787 117.96 120 112.149 120 104.98C120 97.8112 115.787 91.9998 110.59 91.9998C105.393 91.9998 101.18 97.8112 101.18 104.98C101.18 112.149 105.393 117.96 110.59 117.96Z" fill="#D5BC32"/>
<path d="M110.59 91.9998H105.41C105.41 91.9998 105.45 26.935 105.45 15.9558C105.45 4.97657 97.8399 0 95.0299 0H18.1299C18.1299 0 28.2299 1.24158 28.3599 15.9558C28.4499 26.4322 28.3599 80.3946 28.3599 97.6433C28.3599 114.892 34.7299 117.95 34.7299 117.95H110.11C110.18 117.95 110.25 117.939 110.32 117.929C110.41 117.929 110.5 117.95 110.59 117.95C115.79 117.95 120 112.142 120 104.97C120 97.8177 115.79 91.9998 110.59 91.9998Z" fill="#FFD511"/>
<path d="M110.59 91.9998H105.41C105.41 91.9998 105.45 26.935 105.45 15.9558C105.45 4.97657 97.8399 0 95.0299 0H18.1299C18.1299 0 28.2299 1.24158 28.3599 15.9558C28.4499 26.4322 28.3599 80.3946 28.3599 97.6433C28.3599 114.892 34.7299 117.95 34.7299 117.95H110.11C110.18 117.95 110.25 117.939 110.32 117.929C110.41 117.929 110.5 117.95 110.59 117.95C115.79 117.95 120 112.142 120 104.97C120 97.8177 115.79 91.9998 110.59 91.9998Z" fill="#FFD511"/>
<path d="M28.26 96.689L28.35 87.3516C28.35 87.3516 87.88 93.9801 105.39 72.8631V96.453L28.26 96.689Z" fill="#D5BC32"/>
<g opacity="0.6">
<path opacity="0.77" d="M41.52 24.1953C42.69 24.1953 43.87 24.1748 45.04 24.1953C45.93 24.2158 46.76 24.339 47.67 24.2466C48.65 24.144 49.63 23.9491 50.63 23.9798C51.85 24.0209 53.02 24.4005 54.25 24.4005C54.85 24.4005 55.39 24.2261 55.98 24.1953C56.66 24.1645 57.34 24.1953 58.02 24.1953H62.32" stroke="#9E673C" stroke-width="3.0045" stroke-miterlimit="10" stroke-linecap="round"/>
<path opacity="0.77" d="M75.01 24.1953C75.74 24.1953 76.5 24.2569 77.22 24.144C78.34 23.9696 79.41 23.4976 80.58 23.6002C81.83 23.7131 82.89 24.4621 84.12 24.6571C86.11 24.9546 87.98 23.7336 89.99 23.5386C90.63 23.4771 91.27 23.5181 91.91 23.5694C93.36 23.6925 94.79 23.8772 96.22 24.1132" stroke="#9E673C" stroke-width="3.0045" stroke-miterlimit="10" stroke-linecap="round"/>
<path opacity="0.77" d="M41.52 48.2162C42.52 48.2162 43.56 48.3188 44.55 48.2162C45.94 48.0726 47.28 47.5698 48.71 47.6416C50.15 47.7134 51.47 48.3599 52.88 48.6164C54.82 48.955 56.77 48.5343 58.69 48.2778C60.74 48.0007 62.69 48.2265 64.75 48.2265H72.45" stroke="#9E673C" stroke-width="3.0045" stroke-miterlimit="10" stroke-linecap="round"/>
<path opacity="0.77" d="M82.77 48.2163C83.51 48.2163 84.25 48.206 84.99 48.2163C86.24 48.2368 87.17 47.8264 88.36 47.5904C90.05 47.2518 91.74 47.7853 93.41 47.9598C94.64 48.0829 95.93 48.2265 97.16 48.2163" stroke="#9E673C" stroke-width="3.0045" stroke-miterlimit="10" stroke-linecap="round"/>
<path opacity="0.77" d="M64.5601 72.2782C65.9001 72.2782 67.3001 72.1858 68.6101 72.3705C70.8801 72.6989 72.7901 71.9704 75.0201 71.7344C77.1101 71.5086 79.2001 71.9396 81.3001 72.114C83.4801 72.2987 85.6701 72.2166 87.8601 72.1345C90.1301 72.0524 92.4001 72.2679 94.6901 72.2679" stroke="#9E673C" stroke-width="3.0045" stroke-miterlimit="10" stroke-linecap="round"/>
<path opacity="0.77" d="M40.5801 72.2782C42.5401 72.2782 44.4701 72.6579 46.4301 72.5142C47.0901 72.4629 47.7501 72.3705 48.4201 72.3398C49.7501 72.2679 51.0901 72.5758 52.4001 72.4219C53.2701 72.3192 54.1001 72.2782 54.9801 72.2782" stroke="#9E673C" stroke-width="3.0045" stroke-miterlimit="10" stroke-linecap="round"/>
<path opacity="0.77" d="M64.5601 12.2721C65.9001 12.2721 67.3001 12.1797 68.6101 12.3644C70.8801 12.6928 72.7901 11.9643 75.0201 11.7283C77.1101 11.5025 79.2001 11.9335 81.3001 12.1079C83.4801 12.2926 85.6701 12.2105 87.8601 12.1284C90.1301 12.0463 92.4001 12.2618 94.6901 12.2618" stroke="#9E673C" stroke-width="3.0045" stroke-miterlimit="10" stroke-linecap="round"/>
<path opacity="0.77" d="M40.5801 12.2721C42.5401 12.2721 44.4701 12.6517 46.4301 12.5081C47.0901 12.4568 47.7501 12.3644 48.4201 12.3337C49.7501 12.2618 51.0901 12.5697 52.4001 12.4157C53.2701 12.3131 54.1001 12.2721 54.9801 12.2721" stroke="#9E673C" stroke-width="3.0045" stroke-miterlimit="10" stroke-linecap="round"/>
<path opacity="0.77" d="M41.52 36.2725C42.48 36.2725 43.41 36.3135 44.35 36.3853C46.03 36.5085 47.59 35.7286 49.22 35.5542C51.27 35.3387 53.29 36.016 55.32 36.3238C57.33 36.6316 59.37 36.4469 61.39 36.3238C62.31 36.2622 63.27 36.1801 64.19 36.2006C65.18 36.2212 66.12 36.5393 67.11 36.529C68.38 36.5187 69.55 35.9441 70.8 35.7492C73.58 35.3079 76.35 36.7445 79.16 36.5495C80.08 36.488 80.97 36.252 81.88 36.1596C83 36.0467 84.13 36.1493 85.25 36.252L90.23 36.7137" stroke="#9E673C" stroke-width="3.0045" stroke-miterlimit="10" stroke-linecap="round"/>
<path opacity="0.77" d="M41.52 60.2729C42.48 60.2729 43.41 60.3139 44.35 60.3857C46.03 60.5089 47.59 59.729 49.22 59.5546C51.27 59.3391 53.29 60.0163 55.32 60.3242C57.33 60.632 59.37 60.4473 61.39 60.3242C62.31 60.2626 63.27 60.1805 64.19 60.201C65.18 60.2216 66.12 60.5397 67.11 60.5294C68.38 60.5191 69.55 59.9445 70.8 59.7496C73.58 59.3083 76.35 60.7449 79.16 60.5499C80.08 60.4884 80.97 60.2524 81.88 60.16C83 60.0471 84.13 60.1497 85.25 60.2523L90.23 60.7141" stroke="#9E673C" stroke-width="3.0045" stroke-miterlimit="10" stroke-linecap="round"/>
<path opacity="0.77" d="M54.3901 84.2425C54.9101 84.2528 55.3801 84.1296 55.8901 84.1091C56.6301 84.0681 57.3601 84.2835 58.0901 84.3964C59.8401 84.6632 61.6701 84.7966 63.4101 84.4067C64.3901 84.1809 65.3201 83.8013 66.3201 83.6576C68.8301 83.2882 71.3101 84.4375 73.8601 84.4272C76.0601 84.4067 78.4201 83.3806 80.5901 83.9757C82.0101 84.3554 83.4701 84.263 84.9701 84.263" stroke="#9E673C" stroke-width="3.0045" stroke-miterlimit="10" stroke-linecap="round"/>
</g>
<path d="M34.25 91.9998V98.3308H118.66C117.02 94.5445 114.02 91.9998 110.59 91.9998H105.41H34.25Z" fill="#F9FFA8"/>
<path d="M34.7301 117.96C39.9271 117.96 44.1401 112.149 44.1401 104.98C44.1401 97.8112 39.9271 91.9998 34.7301 91.9998C29.5331 91.9998 25.3201 97.8112 25.3201 104.98C25.3201 112.149 29.5331 117.96 34.7301 117.96Z" fill="#D5BC32"/>
<path d="M41.71 104.303C41.71 109.772 38.37 112.871 34.79 113.876C30.18 115.169 28.26 114.04 28.26 114.04V94.565C28.26 94.565 31.51 93.7236 34.98 94.7292C38.52 95.745 41.71 98.8336 41.71 104.303Z" fill="#784D30"/>
<path d="M29.48 114.204C33.1914 114.204 36.2 109.771 36.2 104.303C36.2 98.834 33.1914 94.4008 29.48 94.4008C25.7687 94.4008 22.76 98.834 22.76 104.303C22.76 109.771 25.7687 114.204 29.48 114.204Z" fill="#784D30"/>
<path d="M29.48 114.215C33.1914 114.215 36.2 109.782 36.2 104.313C36.2 98.8443 33.1914 94.4111 29.48 94.4111C25.7687 94.4111 22.76 98.8443 22.76 104.313C22.76 109.782 25.7687 114.215 29.48 114.215Z" fill="#784D30"/>
<path d="M20.8599 108.93C23.3231 108.93 25.3199 106.863 25.3199 104.313C25.3199 101.763 23.3231 99.6955 20.8599 99.6955C18.3967 99.6955 16.3999 101.763 16.3999 104.313C16.3999 106.863 18.3967 108.93 20.8599 108.93Z" fill="#BA793E"/>
<path d="M29.0199 101.501C30.2899 101.902 31.8399 104.662 29.1999 107.309C28.5299 107.976 29.2199 109.454 29.6799 110.695C30.2599 112.275 30.6799 113.127 32.0199 112.183C33.8199 110.931 35.5299 107.35 35.5299 104.313C35.5299 99.3979 32.8199 95.4064 29.4799 95.4064C27.7599 95.4064 26.4199 95.9708 25.2899 98.3616C24.7899 99.4287 24.7399 100.793 26.3299 100.958C26.3299 100.968 28.1099 101.224 29.0199 101.501Z" fill="#BA793E"/>
<path d="M18.34 27.8482C23.9126 27.8482 28.43 21.6142 28.43 13.9241C28.43 6.23404 23.9126 0 18.34 0C12.7674 0 8.25 6.23404 8.25 13.9241C8.25 21.6142 12.7674 27.8482 18.34 27.8482Z" fill="#D5BC32"/>
<path d="M25.3201 13.2469C25.3201 18.716 21.9801 21.8148 18.4001 22.8203C13.7901 24.1132 11.8701 22.9845 11.8701 22.9845V3.50921C11.8701 3.50921 15.1201 2.66781 18.5901 3.67339C22.1201 4.67896 25.3201 7.77777 25.3201 13.2469Z" fill="#784D30"/>
<path d="M13.0901 23.1487C16.8015 23.1487 19.8101 18.7155 19.8101 13.2469C19.8101 7.77823 16.8015 3.34503 13.0901 3.34503C9.37876 3.34503 6.37012 7.77823 6.37012 13.2469C6.37012 18.7155 9.37876 23.1487 13.0901 23.1487Z" fill="#784D30"/>
<path d="M13.0901 23.159C16.8015 23.159 19.8101 18.7258 19.8101 13.2571C19.8101 7.78852 16.8015 3.35532 13.0901 3.35532C9.37876 3.35532 6.37012 7.78852 6.37012 13.2571C6.37012 18.7258 9.37876 23.159 13.0901 23.159Z" fill="#784D30"/>
<path d="M4.46 17.8746C6.92319 17.8746 8.92 15.8073 8.92 13.2572C8.92 10.707 6.92319 8.63974 4.46 8.63974C1.99681 8.63974 0 10.707 0 13.2572C0 15.8073 1.99681 17.8746 4.46 17.8746Z" fill="#BA793E"/>
<path d="M12.62 10.4457C13.89 10.8459 15.44 13.6061 12.8 16.2534C12.13 16.9203 12.82 18.3979 13.28 19.6395C13.86 21.2197 14.28 22.0713 15.62 21.1273C17.42 19.8755 19.13 16.2944 19.13 13.2572C19.13 8.34218 16.42 4.35066 13.08 4.35066C11.36 4.35066 10.02 4.91502 8.89 7.30582C8.39 8.37296 8.34 9.73767 9.93 9.90184C9.93 9.9121 11.72 10.1584 12.62 10.4457Z" fill="#BA793E"/>
</svg>
