<svg width="120" height="120" viewBox="0 0 120 120" fill="none" xmlns="http://www.w3.org/2000/svg">
<g clip-path="url(#clip0_1_2)">
<path d="M70.614 45.43C70.614 45.43 70.444 45.64 70.134 46.03C69.834 46.42 69.334 47 68.794 47.74C68.304 48.5 67.644 49.33 67.004 50.44C66.684 50.99 66.334 51.57 65.974 52.18C65.634 52.8 65.304 53.48 64.944 54.17C64.574 54.85 64.244 55.6 63.914 56.38C63.594 57.16 63.194 57.94 62.924 58.79C62.624 59.63 62.304 60.5 61.984 61.38C61.714 62.28 61.444 63.21 61.174 64.15C60.874 65.08 60.694 66.07 60.454 67.05C60.224 68.03 59.984 69.02 59.834 70.05C59.664 71.07 59.474 72.09 59.314 73.12L58.924 76.24C58.774 77.27 58.724 78.33 58.644 79.37C58.584 80.41 58.464 81.45 58.444 82.48C58.424 84.55 58.294 86.58 58.394 88.55C58.444 90.52 58.474 92.42 58.644 94.23C58.784 96.03 58.864 97.74 59.084 99.31C59.264 100.88 59.424 102.32 59.564 103.6C59.764 104.87 59.934 105.98 60.074 106.89C60.354 108.71 60.514 109.76 60.514 109.76L60.534 109.87C60.764 111.35 59.744 112.74 58.264 112.96C56.784 113.19 55.394 112.17 55.174 110.69C55.174 110.67 55.164 110.63 55.164 110.61C55.164 110.61 55.024 109.53 54.794 107.63C54.674 106.68 54.534 105.53 54.364 104.21C54.254 102.88 54.134 101.38 54.004 99.75C53.844 98.12 53.824 96.34 53.754 94.46C53.654 92.58 53.704 90.59 53.734 88.54C53.714 86.49 53.934 84.36 54.034 82.21C54.094 81.13 54.254 80.05 54.364 78.96C54.494 77.87 54.584 76.78 54.784 75.7C54.964 74.62 55.144 73.53 55.314 72.45C55.534 71.38 55.794 70.31 56.024 69.25C56.244 68.19 56.534 67.15 56.834 66.13C57.144 65.11 57.384 64.09 57.754 63.12C58.094 62.14 58.434 61.19 58.764 60.25C59.154 59.33 59.524 58.43 59.894 57.56C60.234 56.68 60.694 55.87 61.074 55.06C61.464 54.26 61.854 53.49 62.284 52.77C62.704 52.05 63.084 51.36 63.484 50.71C63.904 50.08 64.314 49.49 64.694 48.93C65.434 47.81 66.254 46.89 66.834 46.11C67.454 45.37 67.954 44.86 68.294 44.47C68.634 44.1 68.814 43.9 68.814 43.9C69.254 43.42 69.994 43.38 70.474 43.82C70.954 44.25 71.004 44.95 70.614 45.43Z" fill="#6FBB39" stroke="#6FBB39" stroke-width="4.4032"/>
<path d="M0.00440228 30.38C0.00440228 30.38 -0.815599 56.3 20.0444 68.2C40.9044 80.1 56.2044 72.12 56.2044 72.12C56.2044 72.12 60.2044 26.14 0.00440228 30.38Z" fill="url(#paint0_linear_1_2)"/>
<path opacity="0.2" d="M7.5944 32.84C24.1244 32.84 36.4644 37.15 44.2844 45.64C52.5944 54.66 53.4844 66.11 53.5044 70.28C51.6044 70.97 47.9144 72 42.9644 72C35.8344 72 28.5744 69.92 21.3944 65.82C5.9044 56.99 3.2644 39.45 2.8244 32.96C4.4444 32.88 6.0444 32.84 7.5944 32.84ZM7.5944 30.1C5.1844 30.1 2.6644 30.19 0.00440228 30.38C0.00440228 30.38 -0.815599 56.3 20.0444 68.2C28.9544 73.29 36.8544 74.74 42.9744 74.74C51.1844 74.74 56.2044 72.12 56.2044 72.12C56.2044 72.12 59.8444 30.1 7.5944 30.1Z" fill="#3C743E"/>
<path d="M119.72 6.0005C119.72 6.0005 89.58 -1.8395 72.11 18.7505C54.64 39.3405 59.89 59.8405 59.89 59.8405C59.89 59.8405 111.59 72.5305 119.72 6.0005Z" fill="url(#paint1_linear_1_2)"/>
<path opacity="0.2" d="M106.28 7.2705C110.7 7.2705 114.41 7.7705 116.67 8.1605C113.94 27.2005 107.2 41.0305 96.6 49.3005C87.32 56.5405 76.86 58.0605 69.71 58.0605C66.47 58.0605 63.84 57.7505 62.24 57.4905C61.51 52.4205 60.62 36.5005 74.19 20.5005C83.49 9.5705 96.77 7.2705 106.28 7.2705ZM106.28 4.5305C96.03 4.5305 82.03 7.0605 72.11 18.7405C54.64 39.3305 59.89 59.8405 59.89 59.8405C59.89 59.8405 63.83 60.8105 69.71 60.8105C85.12 60.8105 113.83 54.1605 119.71 6.0005C119.72 6.0005 114.08 4.5305 106.28 4.5305Z" fill="#3C743E"/>
<path opacity="0.2" d="M63.364 53.49C63.364 53.49 63.834 52.68 64.664 51.27C65.074 50.56 65.574 49.71 66.214 48.73C66.844 47.76 67.514 46.63 68.334 45.48C69.134 44.31 69.994 43.04 70.974 41.75C71.914 40.43 72.994 39.1 74.104 37.72C74.644 37.02 75.264 36.36 75.844 35.67C76.434 34.98 77.034 34.28 77.674 33.61C78.304 32.93 78.944 32.25 79.594 31.57C80.264 30.91 80.924 30.24 81.594 29.58C82.254 28.91 82.974 28.29 83.654 27.65C84.334 27.01 85.034 26.38 85.744 25.79C87.134 24.57 88.564 23.44 89.944 22.35C91.344 21.29 92.704 20.27 94.034 19.35C95.364 18.44 96.614 17.58 97.814 16.84C98.994 16.07 100.094 15.41 101.084 14.84C102.064 14.25 102.924 13.75 103.644 13.37C105.074 12.58 105.894 12.13 105.894 12.13C105.894 12.13 105.094 12.62 103.704 13.47C103.004 13.89 102.164 14.43 101.214 15.06C100.254 15.68 99.184 16.39 98.054 17.2C96.894 17.99 95.684 18.9 94.414 19.87C93.134 20.84 91.834 21.91 90.494 23.03C89.174 24.17 87.814 25.35 86.494 26.62C85.814 27.24 85.164 27.88 84.514 28.55C83.874 29.22 83.194 29.85 82.574 30.54C81.944 31.22 81.314 31.91 80.694 32.59C80.094 33.29 79.494 33.99 78.904 34.69C78.304 35.38 77.744 36.09 77.194 36.8C76.654 37.51 76.074 38.18 75.574 38.89C74.554 40.29 73.554 41.64 72.684 42.98C71.774 44.29 70.994 45.57 70.264 46.75C69.514 47.92 68.914 49.03 68.354 50C67.794 50.96 67.324 51.84 66.944 52.57C66.184 54.02 65.744 54.85 65.744 54.85C65.394 55.52 64.564 55.78 63.894 55.42C63.224 55.06 62.964 54.24 63.324 53.57L63.364 53.49Z" stroke="#1C5705" stroke-width="2.8913"/>
<path opacity="0.2" d="M50.264 67C50.264 67 49.834 66.19 49.074 64.78C48.884 64.43 48.674 64.04 48.444 63.61C48.194 63.21 47.924 62.78 47.644 62.32C47.074 61.39 46.444 60.34 45.634 59.25C45.244 58.7 44.834 58.12 44.414 57.53C43.954 56.96 43.484 56.37 43.004 55.77C42.064 54.53 40.904 53.37 39.784 52.1C38.564 50.93 37.364 49.64 35.984 48.5C34.664 47.29 33.214 46.21 31.774 45.1C30.284 44.07 28.814 42.99 27.254 42.11C25.744 41.15 24.164 40.36 22.654 39.56C21.894 39.17 21.114 38.85 20.374 38.5C19.624 38.16 18.894 37.82 18.154 37.56C17.424 37.28 16.714 37 16.024 36.74C15.334 36.47 14.644 36.29 13.994 36.07C13.344 35.86 12.714 35.66 12.114 35.48C11.504 35.32 10.934 35.18 10.394 35.04C9.314 34.75 8.374 34.52 7.584 34.39C6.014 34.08 5.114 33.91 5.114 33.91C5.114 33.91 6.024 34.05 7.604 34.29C8.404 34.39 9.354 34.59 10.454 34.83C11.004 34.95 11.584 35.07 12.194 35.2C12.804 35.36 13.434 35.54 14.104 35.72C14.764 35.91 15.474 36.07 16.174 36.31C16.884 36.55 17.604 36.79 18.354 37.05C19.114 37.29 19.864 37.6 20.634 37.91C21.404 38.23 22.204 38.52 22.984 38.88C24.544 39.62 26.174 40.36 27.754 41.27C29.374 42.1 30.914 43.14 32.474 44.12C33.984 45.19 35.514 46.24 36.914 47.41C38.374 48.51 39.654 49.78 40.954 50.94C42.154 52.2 43.404 53.34 44.424 54.58C44.954 55.18 45.464 55.77 45.954 56.34C46.414 56.94 46.864 57.51 47.284 58.06C48.164 59.15 48.884 60.22 49.514 61.18C49.834 61.66 50.134 62.1 50.414 62.51C50.664 62.93 50.894 63.31 51.094 63.65C51.914 65.03 52.384 65.82 52.384 65.82C52.724 66.4 52.534 67.14 51.954 67.49C51.374 67.84 50.624 67.64 50.284 67.06C50.284 67.03 50.274 67.01 50.264 67Z" fill="#1C5705" stroke="#1C5705" stroke-width="2.1354"/>
</g>
<defs>
<linearGradient id="paint0_linear_1_2" x1="5.621" y1="33.1035" x2="47.1524" y2="67.9055" gradientUnits="userSpaceOnUse">
<stop stop-color="#A3E854"/>
<stop offset="0.9952" stop-color="#83CA45"/>
</linearGradient>
<linearGradient id="paint1_linear_1_2" x1="63.4274" y1="55.1325" x2="109.914" y2="12.1805" gradientUnits="userSpaceOnUse">
<stop offset="0.0048071" stop-color="#73C02F"/>
<stop offset="1" stop-color="#B1ED6C"/>
</linearGradient>
<clipPath id="clip0_1_2">
<rect width="119.72" height="119.72" fill="white"/>
</clipPath>
</defs>
</svg>
