<svg width="1044.9" height="338.24" version="1.1" viewBox="0 0 1044.9 338.24" xmlns="http://www.w3.org/2000/svg">
<path d="m327.33 133.11c0 22.866-16.854 41.843-38.725 45.129-10.434-16.16-28.358-27.024-48.824-27.493-2.2743-5.4314-3.5447-11.4-3.5447-17.636 0-25.214 20.466-45.666 45.547-45.666 25.082 0 45.548 20.519 45.548 45.666zm-50.497-114.47c-25.148 0-45.548 20.52-45.548 45.666 0 9.7232 3.0766 18.776 8.2936 26.22 10.835-10.796 25.75-17.435 42.203-17.435 13.377 0 25.75 4.4262 35.716 11.869 3.1436-6.1694 4.9491-13.21 4.9491-20.587-0.0671-25.213-20.466-45.733-45.614-45.733zm-96.646 206.2c-3.3438-0.80431-6.8216-1.2068-10.366-1.2068-25.149 0-45.548 20.519-45.548 45.666s20.466 45.666 45.548 45.666c25.081 0 45.547-20.519 45.547-45.666 0-1.0059-0.0671-1.9448-0.13389-2.9508-17.389-7.3093-30.632-22.732-35.047-41.508zm-70.294 44.459c0-7.5778 1.4044-14.82 4.0128-21.525-2.8094-0.53645-5.6851-0.87198-8.6947-0.87198-25.148 0-45.547 20.519-45.547 45.666 0 25.214 20.466 45.666 45.547 45.666 14.179 0 26.82-6.5043 35.181-16.697-18.192-10.259-30.499-29.841-30.499-52.237zm-105.68 1.4754c0 25.214 20.466 45.666 45.547 45.666h0.46818c-3.1435-7.3093-4.9493-15.357-4.9493-23.806 0-24.542 14.714-45.599 35.783-54.92-8.1596-7.7788-19.196-12.607-31.301-12.607-25.081 0-45.547 20.519-45.547 45.666zm41.334-117.62c-25.148 0-45.547 20.519-45.547 45.666 0 10.393 3.4779 19.983 9.3636 27.694 10.634-9.7899 24.814-15.758 40.397-15.758 13.042 0 25.148 4.2246 34.98 11.333 4.0798-6.8398 6.4204-14.82 6.4204-23.269 0-25.214-20.466-45.666-45.614-45.666zm56.182-85.431c-23.878 0-43.274 19.447-43.274 43.386 0 23.939 19.396 43.386 43.274 43.386 23.877 0 43.273-19.447 43.273-43.386 0-23.94-19.397-43.386-43.273-43.386zm136.78 97.702c-25.148 0-45.481 20.452-45.481 45.599 0 25.147 20.4 45.599 45.481 45.599 25.082 0 45.481-20.452 45.481-45.599 0-25.147-20.333-45.599-45.481-45.599zm-69.826-119.83c0 25.214 20.466 45.666 45.547 45.666 2.9433 0 5.819-0.26855 8.6284-0.805-3.8126-7.9127-5.953-16.764-5.953-26.085 0-21.794 11.638-40.905 29.027-51.433-8.2266-7.9798-19.397-12.942-31.77-12.942-25.014-0.06703-45.48 20.385-45.48 45.599z" fill="#3f434a"/>
<g transform="translate(414.43 35.525)" fill="#3f434a">
<path d="m297.43 82.727h-44.714v169.52h44.714z"/>
<path d="m216 13.762-44.713 0.1454 0.769 238.41 44.714-0.145-0.77-238.41z"/>
<path d="m122.03 161.5c-8.47-4.843-18.812-8.698-31.221-11.663-8.9625-2.471-16.054-4.745-21.372-6.82-5.3183-2.076-9.0608-4.35-11.228-6.722-2.2652-2.372-3.3486-5.041-3.3486-8.006 0-4.448 1.8713-8.006 5.7123-10.576 3.8411-2.57 9.2579-3.855 16.349-3.855 6.3033 0 13.591 1.384 21.766 4.052 8.175 2.768 15.561 6.524 22.16 11.466l22.16-30.444c-8.667-6.4248-18.713-11.367-30.236-14.826-11.425-3.4596-23.145-5.2387-34.964-5.2387-13.394 0-25.213 2.1745-35.357 6.5236-10.144 4.3492-18.122 10.28-24.13 17.792-5.9093 7.512-8.864 16.309-8.864 26.193 0 10.181 2.3638 18.682 7.0912 25.601s11.622 12.652 20.584 17.1 19.796 8.302 32.402 11.465c8.47 2.472 15.069 4.646 19.993 6.524 4.8259 1.878 8.273 3.855 10.243 5.931 1.9697 2.075 2.9547 4.744 2.9547 8.006 0 5.239-2.364 9.291-7.0911 12.454-4.7275 3.065-11.031 4.646-19.008 4.646-8.9625 0-18.122-1.878-27.478-5.535-9.3564-3.756-18.22-8.896-26.69-15.618l-22.455 31.136c11.819 8.402 24.13 14.629 36.736 18.781 12.606 4.052 25.902 6.128 39.888 6.128 22.652 0 40.183-4.844 52.691-14.629 12.508-9.786 18.712-22.536 18.712-38.351 0-9.193-2.265-17.1-6.697-23.921-4.432-6.919-10.833-12.75-19.303-17.594z"/>
<path d="m619.1 122.36c-7.485-13.344-17.727-23.921-30.531-31.729-12.803-7.8086-27.38-11.664-43.63-11.664-16.054 0-30.531 3.8549-43.63 11.664-13.099 7.8087-23.44 18.385-31.024 31.926-7.682 13.443-11.425 28.467-11.425 45.073s3.94 31.531 11.819 44.875 18.713 23.92 32.501 31.729c13.788 7.808 29.349 11.663 46.585 11.663 13.296 0 25.705-2.273 37.327-6.82 11.621-4.547 21.963-11.268 31.023-20.263l-25.114-27.478c-6.402 6.227-13.296 10.675-20.485 13.541-7.289 2.867-15.266 4.25-23.835 4.25-9.356 0-17.727-2.273-24.917-6.721-7.288-4.448-13.099-10.477-17.334-18.187-1.97-3.46-3.447-7.216-4.53-11.169h127.05c0.493-2.274 0.887-4.745 1.084-7.611 0.197-2.867 0.393-5.635 0.393-8.303-0.098-16.408-3.841-31.433-11.326-44.776zm-117.2 28.565c0.886-3.558 2.166-7.018 3.742-10.181 3.841-7.808 9.16-13.937 16.054-18.582 6.894-4.547 14.576-6.82 22.947-6.82 8.864 0 16.645 2.273 23.441 6.82 6.795 4.547 12.114 10.675 16.053 18.187 1.773 3.361 3.053 6.82 4.038 10.576z"/>
<path d="m435.71 206.78c-7.387 5.535-14.576 8.303-21.372 8.303-7.19 0-12.705-2.472-16.842-7.414-4.038-4.942-6.106-11.762-6.106-20.362v-65.632h51.805v-38.944h-51.706v-56.044l-42.547 16.013v40.032h-30.925v38.944h28.66v66.423c0 21.252 5.416 37.857 16.25 49.916 10.834 11.96 26.099 17.99 45.797 17.99 9.159 0 18.122-1.681 27.183-5.041 7.485-2.768 14.182-6.722 20.288-11.763 1.182-0.988 2.462-2.075 3.546-3.261l-21.471-31.136c-0.787 0.692-1.674 1.384-2.56 1.977z"/>
<path d="m292.02 55.914c12.308-12.352 14.802-29.876 5.572-39.14-9.231-9.2641-26.692-6.7608-38.999 5.5914-12.308 12.352-14.802 29.876-5.572 39.14 9.231 9.2641 26.692 6.7607 38.999-5.5914z"/>
</g>
</svg>
