<?xml version="1.0" encoding="UTF-8"?>
<svg width="281.99" height="281.99" fill="none" version="1.1" viewBox="0 0 46.998 46.998" xmlns="http://www.w3.org/2000/svg">
 <g transform="translate(-.50088 -.50061)" clip-path="url(#clip0_19_250)">
  <path d="m3.6726 14.167v3.8142l21.424 22.824 3.5066 0.4768 7.167-0.8613 11.181-11.504v-4.7831l-20.071-20.501-7.859-2.9221-3.5527 0.49214z" fill="#8f8f8f"/>
  <path d="m3.2678 43.329c-1.8037-1.9213-2.3847-3.3379-1.3276-3.2386 1.0559 0.1004 3.2808 1.6735 5.0845 3.5947 1.8037 1.9213 2.3847 3.338 1.3288 3.2386-1.0571-0.1004-3.282-1.6735-5.0856-3.5947z" fill="#a6a6a6"/>
  <path d="m9.3032 47.081c-0.23796 0.3786-0.67674 0.4417-1.0032 0.411-0.36735-0.035-0.77906-0.188-1.1876-0.3911-0.41869-0.2082-0.87784-0.4911-1.3513-0.8257-0.94705-0.6695-1.983-1.5687-2.9094-2.5556-0.9148-0.9745-1.5695-1.8705-1.8486-2.5512-0.12742-0.3107-0.24496-0.7363-0.076883-1.1155 0.066186-0.1493 0.15872-0.2601 0.26556-0.3411l2.1413-2.3511 8.1022 7.3793z" clip-rule="evenodd" fill="url(#paint0_linear_19_250)" fill-rule="evenodd"/>
  <path d="m5.5053 40.873c-1.8037-1.9213-2.3847-3.3379-1.3288-3.2375 1.0571 0.1005 3.282 1.6724 5.0856 3.5936 1.8037 1.9224 2.3847 3.3391 1.3288 3.2386-1.0571-0.1004-3.282-1.6723-5.0857-3.5947z" stroke="url(#paint1_linear_19_250)" stroke-linecap="round" stroke-linejoin="round" stroke-width="1.1416"/>
  <path d="m11.302 43.837c-0.0696 0.1399-0.2296 0.205-0.486 0.1809-1.056-0.1005-3.2809-1.6735-5.0845-3.5948-1.524-1.6223-2.1754-2.8849-1.7047-3.178l7.7096-8.4642 7.258 6.6109z" clip-rule="evenodd" fill="url(#paint2_linear_19_250)" fill-rule="evenodd"/>
  <path d="m13.487 31.909c1.8037 1.9223 4.0285 3.4943 5.0845 3.5947 1.0571 0.1005 0.476-1.3162-1.3276-3.2386-1.8037-1.9212-4.0286-3.4931-5.0857-3.5936-1.0559-0.1005-0.4749 1.3162 1.3288 3.2375z" fill="#a56c4a"/>
  <path d="m19.478 35.286c-0.1543 0.2625-0.4572 0.3248-0.7459 0.2977l-3e-4 -1e-4c-0.3158-0.03-0.69-0.165-1.087-0.3624-0.4021-0.1999-0.8484-0.4744-1.3136-0.8032-0.9304-0.6577-1.952-1.5442-2.8661-2.5179-0.9083-0.9675-1.5337-1.8328-1.7927-2.4639-0.1234-0.3007-0.1973-0.6273-0.0805-0.8911 0.0464-0.1047 0.1131-0.1829 0.1929-0.2396l2.1627-2.3758 7.6819 6.993z" clip-rule="evenodd" fill="url(#paint3_linear_19_250)" fill-rule="evenodd"/>
  <path d="m15.911 29.249c1.8036 1.9212 4.0285 3.4931 5.0856 3.5936 1.056 0.1004 0.4749-1.3162-1.3288-3.2386-1.8036-1.9213-4.0285-3.4932-5.0856-3.5936-1.0559-0.1005-0.4749 1.3162 1.3288 3.2386z" fill="#9e9e9e" stroke="#9e9e9e" stroke-linecap="round" stroke-linejoin="round" stroke-width=".57078"/>
  <path d="m47.155 24.16v0.1705l-6.7504-0.6445-21.696-23.057 0.2247-0.12838 7.9573 2.9479z" fill="url(#paint4_linear_19_250)"/>
  <path d="m35.843 40.643-7.2153 0.8355-0.0617-0.0446 11.902-13.121h0.0703l6.6181 0.5882v0.0903z" fill="#b6b6b6"/>
  <path d="m15.384 0.98245 3.548-0.4816 0.2634 0.3032-4.0015 2.1683z" fill="#e5e5e5"/>
  <path d="m3.4533 15.938-9e-5 2.0079 21.627 23.039 0.1036 0.019v-2.4687l-21.629-22.707z" fill="#8b8a8b"/>
  <path d="m15.385 0.9779-11.932 13.099v2.1073l11.933-13.08z" fill="#e2e1e1"/>
  <path d="m3.4532 15.922v1.4765l0.63267-0.7929z" fill="#8b8a8b"/>
  <path d="m15.385 0.98245 3.548-0.4816-3.548 2.3322z" fill="#e5e5e5"/>
  <path d="m15.602 2.707-0.2065 0.12976-11.943 13.096 21.801 23.213 12.112-13.283z" fill="url(#paint5_linear_19_250)"/>
  <path d="m26.77 17.547-4.8573-3.4532c-0.0799-0.056-0.1861-0.0468-0.258 0.0228l-4.4704 4.3665c-0.105 0.1039-0.0902 0.2854 0.0286 0.3641l1.3915 0.9178c0.1313 0.0868 0.1336 0.29 0.0046 0.3836l-1.9806 1.4486c-0.1336 0.0971-0.1244 0.3128 0.0171 0.3916l0.9098 0.5114c0.1416 0.0788 0.1507 0.2934 0.0172 0.3916l-3.1188 2.2682c-0.1952 0.1416-0.0673 0.4669 0.161 0.411l0.1518-0.0377 9.9156-3.726c0.1655-0.0628 0.1963-0.3025 0.0514-0.4064l-1.3893-0.9932c-0.1302-0.0936-0.121-0.3048 0.0171-0.3892l3.3927-2.0822c0.1381-0.0845 0.1473-0.2957 0.016-0.3893z" fill="url(#paint6_linear_19_250)"/>
  <path d="m28.628 41.478-3.5479-0.4823v-2.0544l0.0415-0.0427 3.5634 2.5321z" fill="#939493"/>
  <path d="m40.559 23.54-3.5479 2.3322-21.627-23.039 3.548-2.3322z" fill="url(#paint7_linear_19_250)"/>
  <path d="m47.153 28.993-6.6644-0.6168v-4.8391l6.6644 0.6157z" fill="#f2f2f2"/>
  <path d="m40.555 28.375-11.927 13.103-3.5537-2.5094 11.973-13.129 3.5078 2.4493z" fill="#9b9b9b"/>
  <path d="m40.56 28.379v-4.8391l-0.0284-0.0398-3.5429 2.3359 0.0233 0.0361z" fill="#a7a6a7"/>
  <path d="m26.87 17.734c0 0.0631-0.0432 0.1561-0.097 0.1891l-3.4172 2.0916c-9e-3 0.0088-0.021 0.0209-0.0337 0.0353-0.0289 0.0329-0.0527 0.0677-0.0618 0.0954-0.0284 0.086-0.0019 0.183 0.039 0.2314l1.4056 1.0037 0.0056 0.0053c0.0129 0.0123 0.0393 0.0233 0.0506 0.037 0.0157 0.0188 0.0704 0.0803 0.0665 0.1628-0.0039 0.0826-0.0345 0.1765-0.1171 0.2076l-9.9415 3.7344c-0.059 0.0222-0.1992 0.0703-0.2539 0.043-0.0547-0.0274-0.1289-0.0547-0.1289-0.1094l10.196-3.8756c-0.0028-0.0044-0.0067-0.0094-0.0111-0.0148-0.0048-0.0057-0.0094-0.0107-0.0128-0.0143 0 0-1.4077-1.0446-1.4363-1.0643-0.0286-0.0198-0.0788-0.0857-0.0977-0.1811-0.0046-0.064-0.0066-0.1597 0.0189-0.2372 0.0238-0.0722 0.0723-0.135 0.1074-0.1748 0.0186-0.0211 0.0359-0.0385 0.0487-0.0508 0.0064-0.0061 0.0118-0.011 0.0156-0.0145l0.0048-0.0042 0.0014-0.0013 8e-4 -7e-4c0.011-0.0094 0.0234-0.0164 0.0363-0.021l3.5426-2.1889c0.0537-0.033 0.069 0.0533 0.069 0.1163z" clip-rule="evenodd" fill="#fff" fill-rule="evenodd" opacity=".5"/>
  <path d="m40.588 28.253-3.4739-2.4381" opacity=".3" stroke="#fff" stroke-linecap="round" stroke-width=".22831"/>
  <path d="m28.204 10.404 5.7967 12.296 3.0183 3.1747 3.5508-2.3399z" fill="url(#paint8_linear_19_250)"/>
  <path d="m4.1172 37.156c0 0.1993 0.01513 0.2401 0.07017 0.4448 0.0444 0.1651 0.13269 0.4168 0.30797 0.7483 0.35063 0.663 1.0499 1.646 2.4434 2.8923 1.3946 1.2474 2.4712 1.8906 3.1926 2.2217 0.3607 0.1655 0.6329 0.2531 0.812 0.2991 0.0896 0.023 0.156 0.0357 0.1986 0.0425 0.0696 0.0111 0.1227 0.0063 0.1845 0.0063-0.0453 0.0755-0.1715 0.2273-0.2249 0.2829s-0.1987 0.0152-0.2578 0c-0.1997-0.0513-0.4767-0.1458-0.85523-0.3195-0.7571-0.3474-1.8619-1.0111-3.2781-2.2777-1.4174-1.2677-2.1446-2.2818-2.5178-2.9875-0.18665-0.353-0.2846-0.6285-0.33596-0.8195-0.02568-0.0955-0.02869-0.1183-0.03631-0.1704-0.02032-0.1391 0.16987-0.2903 0.29686-0.3633z" clip-rule="evenodd" fill="#e4e4e4" fill-rule="evenodd"/>
 </g>
 <defs>
  <linearGradient id="paint0_linear_19_250" x1="1.7058" x2="9.711" y1="39.239" y2="46.57" gradientUnits="userSpaceOnUse">
   <stop stop-color="#C4C4C4" offset="0"/>
   <stop stop-color="#F8F8F8" offset=".25"/>
   <stop stop-color="#A6A6A6" offset=".46763"/>
   <stop stop-color="#B8B8B8" offset=".68"/>
   <stop stop-color="#A9AAA9" offset="1"/>
  </linearGradient>
  <linearGradient id="paint1_linear_19_250" x1="3.263" x2="11.083" y1="37.518" y2="45.073" gradientUnits="userSpaceOnUse">
   <stop stop-color="#C4C4C4" offset="0"/>
   <stop stop-color="#F8F8F8" offset=".25754"/>
   <stop stop-color="#A6A6A6" offset=".46864"/>
   <stop stop-color="#B8B8B8" offset=".67922"/>
   <stop stop-color="#A9AAA9" offset="1"/>
  </linearGradient>
  <linearGradient id="paint2_linear_19_250" x1="8.139" x2="14.988" y1="33.606" y2="39.885" gradientUnits="userSpaceOnUse">
   <stop stop-color="#A67333" offset="0"/>
   <stop stop-color="#AE7C3F" offset=".235"/>
   <stop stop-color="#C6832F" offset=".47"/>
   <stop stop-color="#EF9F3D" offset=".715"/>
   <stop stop-color="#ED9C3A" offset="1"/>
  </linearGradient>
  <linearGradient id="paint3_linear_19_250" x1="11.534" x2="18.292" y1="28.448" y2="35.589" gradientUnits="userSpaceOnUse">
   <stop stop-color="#D5D5D4" offset="0"/>
   <stop stop-color="#7D7E7C" offset=".49"/>
   <stop stop-color="#838283" offset="1"/>
  </linearGradient>
  <linearGradient id="paint4_linear_19_250" x1="24.692" x2="45.81" y1=".50085" y2="24.474" gradientUnits="userSpaceOnUse">
   <stop stop-color="#AFAFAF" offset="0"/>
   <stop stop-color="#BFBEBF" offset="1"/>
  </linearGradient>
  <linearGradient id="paint5_linear_19_250" x1="16.701" x2="27.546" y1="5.6379" y2="35.889" gradientUnits="userSpaceOnUse">
   <stop stop-color="#BABAB9" offset="0"/>
   <stop stop-color="#8F8F8F" offset="1"/>
  </linearGradient>
  <linearGradient id="paint6_linear_19_250" x1="26.404" x2="13.847" y1="17.624" y2="22.761" gradientUnits="userSpaceOnUse">
   <stop stop-color="#FBCC56" offset="0"/>
   <stop stop-color="#FEAD01" offset="1"/>
  </linearGradient>
  <linearGradient id="paint7_linear_19_250" x1="18.413" x2="38.39" y1=".50085" y2="23.332" gradientUnits="userSpaceOnUse">
   <stop stop-color="#E4E3E4" offset="0"/>
   <stop stop-color="#ADADAC" offset="1"/>
  </linearGradient>
  <linearGradient id="paint8_linear_19_250" x1="34.396" x2="34.396" y1="10.404" y2="25.891" gradientUnits="userSpaceOnUse">
   <stop stop-color="#C3C3C3" offset="0"/>
   <stop stop-color="#AAAAA9" offset="1"/>
  </linearGradient>
  <clipPath id="clip0_19_250">
   <rect width="48" height="48" fill="#fff"/>
  </clipPath>
 </defs>
</svg>
