<?xml version="1.0" encoding="UTF-8"?>
<svg width="787.44" height="341.58" fill="none" version="1.1" viewBox="0 0 787.44 341.58" xmlns="http://www.w3.org/2000/svg" xmlns:cc="http://creativecommons.org/ns#" xmlns:dc="http://purl.org/dc/elements/1.1/" xmlns:rdf="http://www.w3.org/1999/02/22-rdf-syntax-ns#" xmlns:xlink="http://www.w3.org/1999/xlink">
 <metadata>
  <rdf:RDF>
   <cc:Work rdf:about="">
    <dc:format>image/svg+xml</dc:format>
    <dc:type rdf:resource="http://purl.org/dc/dcmitype/StillImage"/>
    <dc:title/>
   </cc:Work>
  </rdf:RDF>
 </metadata>
 <g transform="matrix(.4304 0 0 .4304 614.88 -.63392)">
  <path d="m399.64 59.525-184 329.02c-3.799 6.793-13.559 6.833-17.415 0.073l-187.65-329.06c-4.2008-7.3667 2.0985-16.29 10.446-14.798l184.19 32.924c1.175 0.21 2.378 0.208 3.553-0.0061l180.34-32.87c8.32-1.5164 14.649 7.3376 10.522 14.719z" fill="url(#linearGradient863)"/>
  <path d="m292.96 1.5744-136.16 26.681c-2.238 0.4385-3.895 2.3351-4.03 4.6112l-8.376 141.46c-0.197 3.332 2.863 5.918 6.115 5.168l37.91-8.749c3.547-0.818 6.752 2.306 6.023 5.873l-11.263 55.153c-0.758 3.712 2.727 6.886 6.352 5.785l23.415-7.114c3.63-1.102 7.118 2.081 6.35 5.796l-17.899 86.633c-1.12 5.419 6.088 8.374 9.094 3.728l2.008-3.103 110.95-221.43c1.858-3.7075-1.346-7.935-5.418-7.1492l-39.022 7.5312c-3.667 0.707-6.787-2.708-5.752-6.2957l25.469-88.291c1.036-3.5938-2.095-7.0117-5.766-6.2925z" fill="url(#paint1_linear)"/>
 </g>
 <defs>
  <linearGradient id="paint0_linear" x1="6.0002" x2="235" y1="33" y2="344" gradientUnits="userSpaceOnUse">
   <stop stop-color="#41D1FF" offset="0"/>
   <stop stop-color="#BD34FE" offset="1"/>
  </linearGradient>
  <linearGradient id="paint1_linear" x1="194.65" x2="236.08" y1="8.8182" y2="292.99" gradientUnits="userSpaceOnUse">
   <stop stop-color="#FFEA83" offset="0"/>
   <stop stop-color="#FFDD35" offset=".083333"/>
   <stop stop-color="#FFA800" offset="1"/>
  </linearGradient>
  <linearGradient id="linearGradient861" x1="98.317" x2="704.98" y1="524.8" y2="524.8" gradientTransform="translate(-98.317,-299.88)" gradientUnits="userSpaceOnUse" xlink:href="#paint0_linear"/>
  <linearGradient id="linearGradient863" x1="6.0002" x2="235" y1="33" y2="344" gradientUnits="userSpaceOnUse" xlink:href="#paint0_linear"/>
 </defs>
 <g fill="url(#linearGradient861)" aria-label="SSR">
  <path d="m51.467 231.45q-2.6667-1.0667-5.3334-2.6667l34.934-34.667q2.6667 1.3334 6.1334 2.6667l-34.934 35.2q-0.26667 0-0.53334 0-0.26667-0.26667-0.26667-0.53334zm13.334 60.267-32.8 32.8q-2.6667-1.8667-5.3334-3.7334l34.134-34.134q1.6 2.9334 4 5.0667zm-27.467-26.934-30.934 30.934q-1.3334-2.9334-2.4-6.4001l24.534-24.534zm-35.467 17.334q-0.80001-3.7334-1.3334-7.7334l9.8668-9.6001h9.0668zm131.47-68.001q3.7334 1.6 6.1334 2.9334l-35.2 35.2q-2.6667-1.3334-6.4001-2.6667zm12 6.1334q35.2 21.067 35.2 57.334 0 29.867-22.667 46.934t-62.134 17.067q-27.734 0-50.401-10.133-3.4667-1.3334-7.4668-3.7334l32.267-32.267q9.6001 4.8001 25.6 4.8001 13.867 0 21.6-5.8667 8.0001-5.8667 8.0001-16.267 0-12-8.5334-18.934-2.4-1.8667-6.4001-4zm-144 44.534-1.3334 1.0667t0-0.26667q0-0.53334 0-0.80001zm39.2-39.2q-33.6-20.8-33.6-53.601 0-18.934 10.933-33.334 11.2-14.4 31.467-22.4 20.267-8.0001 45.601-8.0001 24.8 0 44.267 8.8001 2.9334 1.3334 6.6668 3.2l-33.6 33.6q-7.7334-4.2667-18.4-4.2667-14.934 0-23.467 6.4001-8.5334 6.4001-8.5334 16.534 0 8.8001 9.3335 15.734 1.6 1.0667 4 2.6667zm139.2-57.867q0.53334 4 0.80001 8.2668l-2.6667 2.6667h-9.0668zm-123.73 105.6q0.53334 4 1.8667 7.4668l-36 35.734q-2.4-2.1334-4.5334-4.5334zm85.601-94.668h-9.0668l37.067-37.067t0 0.26667q0 0 0.26667 0 1.3334 2.4 3.2 5.6001zm-20.8 30.134q2.9334 1.0667 6.4001 2.4l-35.734 36q-2.6667-1.0667-4.8001-1.8667-0.26667 0-1.0667-0.26667t-1.0667-0.26667zm-65.334 56.001q0 0.26667 0 0.26667l-42.134 42.134q-1.6-2.1334-1.8667-2.6667-0.53334-0.80001-1.8667-2.9334l36.8-36.8zm68.801-95.735 37.067-37.334q2.4 2.4 4.2667 4.8001l-40.267 40.267q0-4.2667-1.0667-7.7334zm-10.133 37.067-36.267 36.267q-3.4667-1.3334-6.6668-2.4l36.267-36q3.4667 1.0667 6.6668 2.1334zm3.2-48.534 34.134-33.867q2.9334 1.8667 5.0667 3.7334l-34.934 35.2q-1.8667-2.6667-4.2667-5.0667zm58.667-4q1.3334 3.2 2.1334 6.6668l-18.4 18.4h-9.0668zm-117.6 81.068 35.467-35.2q2.9334 1.0667 6.6668 2.1334l-35.734 36q-3.4667-1.6-6.4001-2.9334z"/>
  <path d="m260 231.45q-2.6667-1.0667-5.3334-2.6667l34.934-34.667q2.6667 1.3334 6.1334 2.6667l-34.934 35.2q-0.26667 0-0.53334 0-0.26667-0.26667-0.26667-0.53334zm13.334 60.267-32.8 32.8q-2.6667-1.8667-5.3334-3.7334l34.134-34.134q1.6 2.9334 4 5.0667zm-27.467-26.934-30.934 30.934q-1.3334-2.9334-2.4-6.4001l24.534-24.534zm-35.467 17.334q-0.80001-3.7334-1.3334-7.7334l9.8668-9.6001h9.0668zm131.47-68.001q3.7334 1.6 6.1334 2.9334l-35.2 35.2q-2.6667-1.3334-6.4001-2.6667zm12 6.1334q35.2 21.067 35.2 57.334 0 29.867-22.667 46.934-22.667 17.067-62.134 17.067-27.734 0-50.401-10.133-3.4667-1.3334-7.4668-3.7334l32.267-32.267q9.6001 4.8001 25.6 4.8001 13.867 0 21.6-5.8667 8.0001-5.8667 8.0001-16.267 0-12-8.5334-18.934-2.4-1.8667-6.4001-4zm-144 44.534-1.3334 1.0667t0-0.26667q0-0.53334 0-0.80001zm39.2-39.2q-33.6-20.8-33.6-53.601 0-18.934 10.933-33.334 11.2-14.4 31.467-22.4t45.601-8.0001q24.8 0 44.267 8.8001 2.9334 1.3334 6.6668 3.2l-33.6 33.6q-7.7334-4.2667-18.4-4.2667-14.934 0-23.467 6.4001t-8.5334 16.534q0 8.8001 9.3334 15.734 1.6 1.0667 4 2.6667zm139.2-57.867q0.53335 4 0.80002 8.2668l-2.6667 2.6667h-9.0668zm-123.73 105.6q0.53334 4 1.8667 7.4668l-36 35.734q-2.4-2.1334-4.5334-4.5334zm85.601-94.668h-9.0668l37.067-37.067t0 0.26667q0 0 0.26667 0 1.3334 2.4 3.2 5.6001zm-20.8 30.134q2.9334 1.0667 6.4001 2.4l-35.734 36q-2.6667-1.0667-4.8001-1.8667-0.26667 0-1.0667-0.26667t-1.0667-0.26667zm-65.334 56.001q0 0.26667 0 0.26667l-42.134 42.134q-1.6-2.1334-1.8667-2.6667-0.53334-0.80001-1.8667-2.9334l36.8-36.8zm68.801-95.735 37.067-37.334q2.4 2.4 4.2667 4.8001l-40.267 40.267q0-4.2667-1.0667-7.7334zm-10.133 37.067-36.267 36.267q-3.4667-1.3334-6.6668-2.4l36.267-36q3.4667 1.0667 6.6668 2.1334zm3.2-48.534 34.134-33.867q2.9334 1.8667 5.0667 3.7334l-34.934 35.2q-1.8667-2.6667-4.2667-5.0667zm58.667-4q1.3334 3.2 2.1334 6.6668l-18.4 18.4h-9.0668zm-117.6 81.068 35.467-35.2q2.9334 1.0667 6.6668 2.1334l-35.734 36q-3.4667-1.6-6.4001-2.9334z"/>
  <path d="m597.34 163.98q0.80001 3.7334 1.0667 8.0001l-91.734 91.734-2.4-4.8001h-2.1334zm-123.73 132.8-45.067 44.801h-9.0668l54.134-53.867zm-36 44.801 36-36v36zm36-135.47-56.801 56.801v-154.67h92.801q30.667 0 51.734 9.8668l-36 36.267q-6.6668-2.9334-15.734-2.9334h-36zm115.2 12.8q-10.133 16-31.2 26.134l49.067 94.135v2.4h-60.801l-36.267-72.001 89.068-88.801q-0.53334 22.934-9.8668 38.134zm-115.2 59.734-56.801 56.801v-9.0668l56.801-56.801zm26.667-62.934-83.468 83.468v-9.0668l74.401-74.401zm41.601-32.8 44.801-44.534q1.8667 2.6667 3.4667 5.6001l-49.067 48.801q1.0667-4.2667 1.0667-9.0668 0 0-0.26667-0.26667 0-0.26667 0-0.53334zm-48.801 76.001h-9.0668l109.07-109.07q1.6 3.2 2.4 6.6668zm48.001-84.268q-0.80001-3.7334-2.1334-6.6668l38.934-38.934q2.4 2.1334 4.5334 4.5334zm-67.468 85.868-56.801 56.801v-9.0668l92.534-92.534h0.26667q5.0667 0 9.6001-0.80001l-44.267 44.001h-1.3334zm-56.801 11.467 56.801-56.801v0.53334h8.5334l-65.334 65.334zm114.4-114.4 36-36.267q2.6667 1.6 5.6001 3.7334l-37.067 37.067q-1.0667-1.0667-1.8667-2.1334-1.3334-1.0667-2.6667-2.4z"/>
 </g>
</svg>
