<svg xmlns="http://www.w3.org/2000/svg" xmlns:xlink="http://www.w3.org/1999/xlink" aria-hidden="true" focusable="false" width="1em" height="1em" style="-ms-transform: rotate(360deg); -webkit-transform: rotate(360deg); transform: rotate(360deg);" preserveAspectRatio="xMidYMid meet" viewBox="0 0 128 128"><linearGradient id="IconifyId-17a9a1bedc8-7759f1-57" x1="24.99" x2="112.35" y1="16.65" y2="122.69" gradientUnits="userSpaceOnUse"><stop stop-color="#FFE7AD" offset=".004"/><stop stop-color="#FFB200" offset=".261"/><stop stop-color="#FAAE00" offset=".475"/><stop stop-color="#EBA400" offset=".731"/><stop stop-color="#D49300" offset="1"/></linearGradient><circle cx="64" cy="64" r="60" fill="url(#IconifyId-17a9a1bedc8-7759f1-57)"/><linearGradient id="IconifyId-17a9a1bedc8-7759f1-58" x1="64" x2="64" y1="13.24" y2="126.59" gradientUnits="userSpaceOnUse"><stop stop-color="#543B0B" offset=".001"/><stop stop-color="#563D0B" offset=".016"/><stop stop-color="#785606" offset=".248"/><stop stop-color="#906703" offset=".468"/><stop stop-color="#9F7201" offset=".671"/><stop stop-color="#A47600" offset=".841"/></linearGradient><circle cx="64" cy="64" r="50.04" fill="url(#IconifyId-17a9a1bedc8-7759f1-58)"/><circle cx="64" cy="64" r="47.16" fill="#362C15"/><radialGradient id="IconifyId-17a9a1bedc8-7759f1-59" cx="64" cy="64" r="45.304" gradientUnits="userSpaceOnUse"><stop stop-color="#fff" offset=".001"/><stop stop-color="#FFFEFC" offset=".205"/><stop stop-color="#FFFBF2" offset=".373"/><stop stop-color="#FFF6E0" offset=".528"/><stop stop-color="#FFEFC9" offset=".673"/><stop stop-color="#FFE7AD" offset=".8"/><stop stop-color="#F0C560" offset="1"/></radialGradient><circle cx="64" cy="64" r="45.3" fill="url(#IconifyId-17a9a1bedc8-7759f1-59)"/><circle cx="64" cy="64" r="42.42" fill="none" stroke="#8A8C8E" stroke-miterlimit="10" stroke-width=".633"/><path d="M59.06 29.27c-15.49 2.2-27.74 14.55-29.81 30.08h.64c2.06-15.18 14.04-27.25 29.17-29.43v-.65z" fill="#8A8C8E"/><path d="M69.66 29.39v.64c14.8 2.46 26.43 14.38 28.46 29.32h.64c-2.04-15.29-13.95-27.49-29.1-29.96z" fill="#8A8C8E"/><path d="M59.06 98.06C45.33 96.08 34.19 85.99 30.7 72.8h-.66c3.51 13.54 14.93 23.9 29.01 25.9v-.64z" fill="#8A8C8E"/><path d="M97.3 72.8c-3.43 12.96-14.24 22.94-27.64 25.17v.64c13.75-2.24 24.84-12.49 28.3-25.8h-.66z" fill="#8A8C8E"/><path fill="#fff" d="M64.22 70.89v-5l17.76 17.75z"/><path d="M64.38 66.27l16.11 16.11l-16.11-11.57v-4.54m-.32-.76v5.47l19.4 13.93l-19.4-19.4z" fill="#A8A8A8"/><path fill="#393839" d="M83.46 84.91l-13.93-19.4h-5.47z"/><path fill="#fff" d="M46.1 47.39l17.75 12.76v5z"/><path d="M47.58 48.66L63.7 60.23v4.54L47.58 48.66m-2.97-2.53l19.4 19.4v-5.47l-19.4-13.93z" fill="#A8A8A8"/><path fill="#393839" d="M44.61 46.13l13.94 19.4h5.46z"/><path fill="#fff" d="M64.45 65.38L82.2 47.62L69.45 65.38z"/><path d="M80.94 49.1L69.37 65.22h-4.54L80.94 49.1m2.52-2.97l-19.4 19.4h5.47l13.93-19.4z" fill="#A8A8A8"/><path fill="#393839" d="M83.46 46.13l-19.4 13.94v5.46z"/><path fill="#fff" d="M58.68 65.71h5L45.92 83.47z"/><path d="M63.3 65.87L47.19 81.99l11.57-16.11h4.54m.76-.32H58.6l-13.93 19.4l19.39-19.4z" fill="#A8A8A8"/><path fill="#393839" d="M44.66 84.96l19.4-13.94v-5.46z"/><path fill="#fff" d="M60.37 61.58l3.54-21.57v25.11z"/><path d="M63.75 41.95v22.79l-3.21-3.21l3.21-19.58m.31-3.88L60.2 61.64l3.87 3.87V38.07h-.01z" fill="#A8A8A8"/><path fill="#616161" d="M64.06 38.07l3.87 23.57l-3.87 3.87z"/><path fill="#fff" d="M60.54 69.48l3.21-3.21v22.79z"/><path d="M63.43 67.03v18.14l-2.56-15.58l2.56-2.56m.63-1.52l-3.87 3.87l3.87 23.57V65.51z" fill="#A8A8A8"/><path fill="#616161" d="M64.06 92.94l3.87-23.57l-3.87-3.86z"/><path fill="#fff" d="M38.57 65.38l21.57-3.54l3.54 3.54z"/><path d="M60.09 62.01l3.21 3.21H40.51l19.58-3.21m.11-.34l-23.57 3.87h27.44l-3.87-3.87z" fill="#A8A8A8"/><path fill="#616161" d="M36.63 65.53L60.2 69.4l3.86-3.87z"/><path fill="#fff" d="M64.45 65.66h25.11L67.98 69.2z"/><path d="M87.61 65.82l-19.58 3.21l-3.21-3.21h22.79m3.89-.31H64.06l3.87 3.87l23.57-3.87z" fill="#A8A8A8"/><path fill="#616161" d="M91.5 65.51l-23.57-3.87l-3.87 3.87z"/><path fill="#ED0000" d="M49.05 26.9l11.29 39.94L67.66 64z"/><path fill="#00AEFF" d="M78.95 103.95L67.66 64l-7.32 2.84z"/><circle cx="64.06" cy="65.51" r="1.95" fill="#FFC800"/><path d="M59.26 53.27l6.56 13.07l3.98 14.08l-6.56-13.07l-3.98-14.08m-9.68-24.95l11.29 39.95l18.62 37.1l-11.3-39.95l-18.61-37.1z" fill="#424242" opacity=".2"/><path d="M62.57 23.96l4.77 6V25.8c0-.58-.08-.97-.25-1.18c-.23-.28-.61-.41-1.15-.4v-.26h3.2v.26c-.41.05-.68.12-.82.2s-.25.22-.33.41s-.12.51-.12.97v8.05h-.24l-6.54-8.05v6.15c0 .56.13.93.38 1.13s.55.29.87.29h.23v.26h-3.43v-.26c.53 0 .9-.11 1.11-.33c.21-.21.31-.58.31-1.09v-6.83l-.21-.26c-.2-.26-.39-.43-.54-.51c-.16-.08-.38-.13-.68-.14v-.26h3.44z" fill="#000"/><path d="M98.02 61.07v4.07h.2c.63 0 1.09-.2 1.38-.6s.47-.99.55-1.76h.28v5.24h-.28c-.06-.57-.18-1.04-.37-1.4s-.41-.61-.66-.73c-.25-.13-.61-.19-1.09-.19v2.82c0 .55.02.89.07 1.01s.13.22.26.3s.33.12.62.12h.6c.93 0 1.68-.22 2.25-.65s.97-1.09 1.21-1.98h.27l-.45 3.18h-8.64v-.27h.33c.29 0 .52-.05.7-.15c.13-.07.23-.19.29-.35c.05-.12.08-.43.08-.93v-6.6c0-.45-.01-.73-.04-.83a.756.756 0 0 0-.27-.4c-.19-.14-.44-.21-.77-.21h-.33v-.27h8.37v2.96h-.28c-.14-.72-.34-1.24-.6-1.56s-.62-.55-1.1-.69c-.27-.09-.79-.13-1.55-.13h-1.03z" fill="#000"/><path d="M66.94 93.88l.08 3.33h-.3c-.14-.83-.49-1.51-1.05-2.02s-1.16-.76-1.81-.76c-.5 0-.9.13-1.19.4s-.44.58-.44.92c0 .22.05.42.15.59c.14.23.37.46.69.69c.23.16.76.45 1.6.86c1.17.57 1.96 1.12 2.36 1.63s.6 1.1.6 1.75c0 .83-.33 1.55-.98 2.16c-.65.6-1.48.9-2.48.9c-.31 0-.61-.03-.89-.1c-.28-.06-.63-.18-1.05-.36c-.24-.1-.43-.15-.58-.15c-.13 0-.26.05-.41.15c-.14.1-.26.25-.35.45h-.27v-3.77h.27c.22 1.06.63 1.87 1.25 2.43s1.28.84 1.99.84c.55 0 .99-.15 1.32-.45s.49-.65.49-1.05c0-.24-.06-.46-.19-.69c-.13-.22-.32-.43-.57-.63s-.71-.46-1.36-.78c-.91-.45-1.56-.83-1.96-1.14s-.7-.66-.92-1.05s-.32-.82-.32-1.28c0-.8.29-1.47.88-2.03c.58-.56 1.32-.84 2.21-.84c.32 0 .64.04.94.12c.23.06.51.17.84.33s.56.24.7.24c.13 0 .23-.04.3-.12s.14-.27.21-.57h.24z" fill="#000"/><path d="M38.25 60.75v.27c-.18.01-.34.06-.46.15s-.24.22-.33.4c-.03.06-.18.43-.45 1.12l-3.06 8.07h-.28l-2.42-6.3l-2.67 6.3h-.28l-3.22-7.98c-.33-.8-.56-1.29-.68-1.46c-.13-.17-.35-.27-.66-.3v-.27h4.24v.27c-.34.01-.57.06-.68.16s-.17.21-.17.35c0 .18.12.57.35 1.16l1.92 4.74l1.54-3.71l-.4-1.04c-.22-.57-.39-.95-.51-1.14s-.26-.33-.41-.41s-.39-.12-.69-.12v-.27h4.74v.27c-.33 0-.57.03-.71.08a.463.463 0 0 0-.33.44c0 .11.11.45.32 1.02l1.78 4.63L36.32 63c.17-.43.27-.73.31-.89s.06-.31.06-.44c0-.2-.07-.35-.2-.47c-.14-.11-.39-.17-.77-.18v-.27h2.53z" fill="#000"/><path d="M64 7c31.43 0 57 25.57 57 57s-25.57 57-57 57S7 95.43 7 64S32.57 7 64 7m0-3C30.86 4 4 30.86 4 64s26.86 60 60 60s60-26.86 60-60S97.14 4 64 4z" fill="#424242" opacity=".2"/></svg>
